<svg xmlns="http://www.w3.org/2000/svg" width="90.184" height="90.184" viewBox="0 0 90.184 90.184">
  <g id="Grupo_1180946" data-name="Grupo 1180946" transform="translate(-335.752 -1556)">
    <g id="Grupo_1176550" data-name="Grupo 1176550" transform="translate(335.752 1556)">
      <g id="Grupo_1073526" data-name="Grupo 1073526" transform="translate(0 0)">
        <g id="Grupo_1072785" data-name="Grupo 1072785" transform="translate(0 0)">
          <path id="Trazado_608385" data-name="Trazado 608385" d="M45.092,0A45.092,45.092,0,1,1,0,45.092,45.092,45.092,0,0,1,45.092,0Z" transform="translate(0 0)" fill="none"/>
        </g>
        <g id="Grupo_1073383" data-name="Grupo 1073383" transform="translate(0 0)">
          <path id="Trazado_608385-2" data-name="Trazado 608385" d="M45.092,0A45.092,45.092,0,1,1,0,45.092,45.092,45.092,0,0,1,45.092,0Z" transform="translate(0 0)" fill="#ebede8"/>
        </g>
      </g>
    </g>
    <g id="Grupo_1178604" data-name="Grupo 1178604" transform="translate(350.099 1569.52)">
      <path id="Trazado_1007358" data-name="Trazado 1007358" d="M160.917,7.5h25.946a8.406,8.406,0,0,1,8.417,8.394V36.11a8.406,8.406,0,0,1-8.417,8.394H176.321c0,4.537-3.038,5.913-6.75,5.913-.239,0-.222-.362.008-.426,3.4-.951,2.275-5.487,2.275-5.487H160.917A8.406,8.406,0,0,1,152.5,36.11V15.894A8.406,8.406,0,0,1,160.917,7.5Z" transform="translate(-133.966 -6.588)" fill="#b5fcff"/>
      <g id="Grupo_1178597" data-name="Grupo 1178597" transform="translate(49.251 0.912)">
        <path id="Trazado_1007359" data-name="Trazado 1007359" d="M408.889,7.5h-3.646a8.406,8.406,0,0,1,8.417,8.394V36.11a8.406,8.406,0,0,1-8.417,8.394h3.646a8.406,8.406,0,0,0,8.417-8.394V15.894A8.406,8.406,0,0,0,408.889,7.5Z" transform="translate(-405.243 -7.5)" fill="#71f6fc"/>
      </g>
      <g id="Grupo_1178599" data-name="Grupo 1178599" transform="translate(0.912 25.91)">
        <g id="Grupo_1178598" data-name="Grupo 1178598">
          <path id="Trazado_1007360" data-name="Trazado 1007360" d="M13.081,217.206c0,2.215-1.334,4.011-2.979,4.011s-2.6-2.062-2.6-4.277.956-3.744,2.6-3.744S13.081,214.991,13.081,217.206Z" transform="translate(-7.5 -213.195)" fill="#e8916f"/>
          <path id="Trazado_1007361" data-name="Trazado 1007361" d="M207.58,217.206c0,2.215,1.334,4.011,2.979,4.011s2.6-2.062,2.6-4.277-.956-3.744-2.6-3.744S207.58,214.991,207.58,217.206Z" transform="translate(-183.263 -213.195)" fill="#d98868"/>
        </g>
      </g>
      <rect id="Rectángulo_455146" data-name="Rectángulo 455146" width="6.077" height="9.723" transform="translate(12.822 42.355)" fill="#d98868"/>
      <path id="Trazado_1007362" data-name="Trazado 1007362" d="M40.5,142.973v-8.151A10.322,10.322,0,0,1,50.822,124.5h1.231a10.322,10.322,0,0,1,10.322,10.322v8.151a10.938,10.938,0,0,1-10.938,10.938h0A10.938,10.938,0,0,1,40.5,142.973Z" transform="translate(-35.578 -109.369)" fill="#ebad88"/>
      <path id="Trazado_1007363" data-name="Trazado 1007363" d="M117.939,124.5h-1.231a10.392,10.392,0,0,0-1.207.073,10.322,10.322,0,0,1,9.115,10.25v8.151a10.941,10.941,0,0,1-9.115,10.786,11,11,0,0,0,1.823.152h0a10.938,10.938,0,0,0,10.938-10.938v-8.151A10.323,10.323,0,0,0,117.939,124.5Z" transform="translate(-101.464 -109.369)" fill="#e8916f"/>
      <path id="Trazado_1007364" data-name="Trazado 1007364" d="M41.939,409.438v2.054H13.5v-2.054c0-5.972,4.206-10.813,9.4-10.813h9.649C37.733,398.625,41.939,403.466,41.939,409.438Z" transform="translate(-11.859 -350.178)" fill="#685c79"/>
      <path id="Trazado_1007365" data-name="Trazado 1007365" d="M143.842,398.625H140.2c5.189,0,9.4,4.841,9.4,10.813v2.054h3.646v-2.054C153.237,403.466,149.031,398.625,143.842,398.625Z" transform="translate(-123.157 -350.178)" fill="#594f69"/>
      <path id="Trazado_1007366" data-name="Trazado 1007366" d="M93.026,398.625h9.109L97.58,411.492Z" transform="translate(-81.72 -350.178)" fill="#ff2c5c"/>
      <g id="Grupo_1178600" data-name="Grupo 1178600" transform="translate(8.844 47.216)">
        <path id="Trazado_1007367" data-name="Trazado 1007367" d="M79.787,402.6l-3.35-14.1-3.666,1.231v5.434l1.778,1.289v2.337Z" transform="translate(-72.771 -388.5)" fill="#50475e"/>
        <path id="Trazado_1007368" data-name="Trazado 1007368" d="M130.5,402.6l3.35-14.1,3.666,1.231v5.434l-1.778,1.289v2.337Z" transform="translate(-123.484 -388.5)" fill="#50475e"/>
      </g>
      <path id="Trazado_1007369" data-name="Trazado 1007369" d="M21.126,101.867s.91.367,1.844-1.386c1.068-2,3.884-3.124,7.258-3,4.187.151,5.906-1.323,6.738-2.8,1.15,3.8,2.769,2.8,3.82,6.044a1.564,1.564,0,0,0,2.185,1.146s4.352-2.523,2.109-6.53c.385-8.052-5.929-8.529-5.929-8.529s-2.886-3.665-10.8-1.759C16.94,87.8,18.966,95.822,18.966,95.822A4.442,4.442,0,0,0,21.126,101.867Z" transform="translate(-16.251 -74.23)" fill="#ffd659"/>
      <g id="Grupo_1178601" data-name="Grupo 1178601" transform="translate(14.49 10.27)">
        <path id="Trazado_1007370" data-name="Trazado 1007370" d="M133.565,95.339c.385-8.052-5.929-8.529-5.929-8.529s-2.3-2.917-8.411-2.192a7.438,7.438,0,0,1,4.765,2.192s6.314.477,5.929,8.529a4.288,4.288,0,0,1-.667,5.326l.019.057a1.564,1.564,0,0,0,2.185,1.146S135.808,99.345,133.565,95.339Z" transform="translate(-119.225 -84.502)" fill="#ffbd54"/>
      </g>
      <path id="Trazado_1007371" data-name="Trazado 1007371" d="M287.393,47.807a8.88,8.88,0,0,1-2.819-3.729l-1.523-3.809c-.156-.411-.778-.408-1.752-.156h0c-.975.252-1.648,1.392-.912,3.75l.566,2.185a.689.689,0,0,1-.456.828,16.7,16.7,0,0,1-4.317.6h-3.4a1.857,1.857,0,0,0-1.872,1.734,1.823,1.823,0,0,0,1.5,1.883.029.029,0,0,1,0,.057,1.823,1.823,0,0,0-1.5,1.883,1.857,1.857,0,0,0,1.872,1.734h.677a.065.065,0,0,1,.023.127,1.849,1.849,0,0,0-1.337,1.792,1.776,1.776,0,0,0,1.776,1.727h1.111a.061.061,0,0,1,.022.117,1.933,1.933,0,0,0-1.409,1.748,1.779,1.779,0,0,0,1.789,1.781H288.34a3.045,3.045,0,0,0,3.045-3.045V52.794C291.385,51.146,289.463,49.407,287.393,47.807Z" transform="translate(-237.977 -35.085)" fill="#ebad88"/>
      <g id="Grupo_1178602" data-name="Grupo 1178602" transform="translate(42.101 4.854)">
        <path id="Trazado_1007372" data-name="Trazado 1007372" d="M353.727,47.807a8.879,8.879,0,0,1-2.819-3.729l-1.523-3.809c-.156-.411-.778-.408-1.752-.156a1.751,1.751,0,0,0-1.221,1.839l.85,2.126a8.88,8.88,0,0,0,2.819,3.729c2.07,1.6,3.992,3.339,3.992,4.987v6.218a3.045,3.045,0,0,1-3.045,3.045h3.646a3.045,3.045,0,0,0,3.045-3.045V52.794C357.719,51.146,355.8,49.407,353.727,47.807Z" transform="translate(-346.412 -39.939)" fill="#e8916f"/>
      </g>
      <g id="Grupo_1178603" data-name="Grupo 1178603">
        <path id="Trazado_1007373" data-name="Trazado 1007373" d="M93.583,288.937a.907.907,0,0,0-1.186.5c-.037.086-.94,2.1-3.975,2.1A4.6,4.6,0,0,1,84.2,289.38a.912.912,0,0,0-1.635.806,6.373,6.373,0,0,0,5.853,3.171c4.3,0,5.606-3.1,5.66-3.228A.915.915,0,0,0,93.583,288.937Z" transform="translate(-72.453 -253.761)"/>
        <path id="Trazado_1007374" data-name="Trazado 1007374" d="M74.932,240.258a.911.911,0,0,0,.868-1.6,5.589,5.589,0,0,0-4.244-.206.912.912,0,0,0,.582,1.728A3.762,3.762,0,0,1,74.932,240.258Z" transform="translate(-62.315 -209.193)"/>
        <path id="Trazado_1007375" data-name="Trazado 1007375" d="M150.832,238.449a5.589,5.589,0,0,0-4.244.206.913.913,0,0,0,.433,1.715.9.9,0,0,0,.434-.111,3.764,3.764,0,0,1,2.8-.082.911.911,0,1,0,.582-1.728Z" transform="translate(-128.354 -209.193)"/>
        <path id="Trazado_1007376" data-name="Trazado 1007376" d="M266.188,40.015a2.733,2.733,0,0,0-2.087,4.557,2.72,2.72,0,0,0,.841,4.271,2.756,2.756,0,0,0-.3,1.3,2.653,2.653,0,0,0,1.756,2.471,2.653,2.653,0,0,0-.256,1.1,2.607,2.607,0,0,0,.755,1.892,2.737,2.737,0,0,0,1.945.821h12.913a3.961,3.961,0,0,0,3.957-3.957V46.247c0-2.066-2.089-3.965-4.346-5.709a7.976,7.976,0,0,1-2.53-3.346l-1.521-3.8c-.5-1.308-2.254-.855-2.83-.706a2.417,2.417,0,0,0-1.517,1.18,4.723,4.723,0,0,0-.043,3.7l.507,1.958a16.582,16.582,0,0,1-3.85.492h-3.392Zm3.43,1.823a17.572,17.572,0,0,0,4.573-.642,1.6,1.6,0,0,0,1.057-1.924l-.566-2.185c0-.014-.008-.029-.012-.043-.255-.818-.545-2.385.27-2.6a4.219,4.219,0,0,1,.775-.144l1.425,3.564a9.8,9.8,0,0,0,3.108,4.112c.995.769,3.638,2.811,3.638,4.266v6.218a2.136,2.136,0,0,1-2.134,2.134H268.839a.869.869,0,0,1-.877-.849c0-.153.014-.619.813-.913a.972.972,0,0,0-.336-1.884h-1.111a.866.866,0,0,1-.865-.819.933.933,0,0,1,.893-1.005h1.319a.912.912,0,0,0,0-1.823h-2.487a.949.949,0,0,1-.962-.866.914.914,0,0,1,.747-.943c.159-.029.4-.006,2.387-.014a.912.912,0,0,0,0-1.823h-2.223a.913.913,0,0,1-.91-.957.949.949,0,0,1,.962-.866h3.43Z" transform="translate(-231.389 -28.538)"/>
        <path id="Trazado_1007377" data-name="Trazado 1007377" d="M52.9,0H38.891a.912.912,0,0,0,0,1.823H52.9A7.5,7.5,0,0,1,60.4,9.306V29.521A7.5,7.5,0,0,1,52.9,37H42.355a.911.911,0,0,0-.912.912c0,1.726-.391,3.908-3.26,4.7a6.68,6.68,0,0,0,.589-4.918A.911.911,0,0,0,37.888,37H27.212a11.774,11.774,0,0,0,.438-2.211c2.629.475,4.07-2.323,4.07-5.138,0-1.963-.672-3.457-1.816-4.177a4.974,4.974,0,0,0-.154-4.582c.139-4.4-1.654-6.669-3.2-7.807a7.773,7.773,0,0,0-3.2-1.369,8.369,8.369,0,0,0-3.9-2.013v-.4a7.5,7.5,0,0,1,7.506-7.483H35A.912.912,0,0,0,35,0h-8.05a9.328,9.328,0,0,0-9.329,9.306v.106a17.832,17.832,0,0,0-5.732.522A20.556,20.556,0,0,0,8,11.263a.912.912,0,0,0,.773,1.651,18.738,18.738,0,0,1,3.543-1.209,15.176,15.176,0,0,1,5.944-.388.911.911,0,0,0,.229.039,6.32,6.32,0,0,1,3.693,1.785.911.911,0,0,0,.648.345,5.807,5.807,0,0,1,2.638,1.07c1.77,1.3,2.594,3.491,2.45,6.506a.912.912,0,0,0,.115.489A3.266,3.266,0,0,1,27.9,25.3a5.991,5.991,0,0,1-1.585,1.51.762.762,0,0,1-.507,0,1.01,1.01,0,0,1-.409-.606A6.386,6.386,0,0,0,23.377,23.1a5.4,5.4,0,0,1-1.789-2.915A.911.911,0,0,0,19.921,20c-.348.619-1.406,2.5-5.911,2.339-3.775-.138-6.877,1.2-8.1,3.484a1.983,1.983,0,0,1-.771.92A3.481,3.481,0,0,1,3.525,22.01a.911.911,0,0,0,.074-.642A7.1,7.1,0,0,1,5.793,14.9a.911.911,0,1,0-1.262-1.315,8.941,8.941,0,0,0-2.765,7.9,5.979,5.979,0,0,0-.428,2.306,5,5,0,0,0,.354,1.767A4.788,4.788,0,0,0,0,29.654c0,2.861,1.48,5.6,4.069,5.138a11.876,11.876,0,0,0,7.841,9.99v1.673L8.554,47.582a.911.911,0,0,0-.527.462C3.7,49.535.729,54.053.729,59.26v2.054a.911.911,0,0,0,.912.912H30.08a.911.911,0,0,0,.912-.912V59.26a13.147,13.147,0,0,0-.633-4.058.912.912,0,0,0-1.734.562,11.328,11.328,0,0,1,.545,3.5V60.4h-10.5l2.97-2.159a.911.911,0,0,0,.376-.737V55.635l1.4-1.016a.912.912,0,0,0,.376-.738V50.043a8.575,8.575,0,0,1,3.182,2.57.911.911,0,0,0,1.439-1.119,10.208,10.208,0,0,0-4.716-3.45.911.911,0,0,0-.527-.462L19.81,46.456v-1.68A11.914,11.914,0,0,0,26.5,38.815c.151.007.3.012.451.012H37.114A6.317,6.317,0,0,1,37.12,40.2a2.408,2.408,0,0,1-1.753,2.327,1.167,1.167,0,0,0-.835,1.28,1.074,1.074,0,0,0,1.073.936A8.76,8.76,0,0,0,40.916,43.3a5.97,5.97,0,0,0,2.31-4.478H52.9a9.328,9.328,0,0,0,9.329-9.306V9.306A9.328,9.328,0,0,0,52.9,0ZM27.71,32.924v-4.86a8.077,8.077,0,0,0,1.173-1.07,3.093,3.093,0,0,1,1.015,2.66C29.9,31.275,29.2,33.5,27.71,32.924ZM1.823,29.654A3.38,3.38,0,0,1,2.68,27.1a6.49,6.49,0,0,0,1.331,1.085v4.738C2.52,33.506,1.823,31.275,1.823,29.654ZM9.756,49.1l2.1-.7L14.4,59.129l-2.871-2.087V55.17a.911.911,0,0,0-.376-.738l-1.4-1.016V49.1Zm4.2.255h3.809l-1.9,8.014Zm-11.4,9.9c0-4.14,2.161-7.753,5.38-9.218V53.88a.911.911,0,0,0,.376.738l1.4,1.016v1.872a.911.911,0,0,0,.376.737l2.97,2.159H2.552ZM21.965,49.1v4.313l-1.4,1.016a.912.912,0,0,0-.376.738v1.872l-2.871,2.087L19.866,48.4Zm-3.978-1.568H13.733V45.264a11.956,11.956,0,0,0,4.254,0ZM8.77,40.694A9.956,9.956,0,0,1,5.834,33.6V28.433a3.546,3.546,0,0,0,1.69-1.753c.874-1.64,3.4-2.629,6.421-2.52,2.886.1,5.063-.532,6.5-1.893a6.761,6.761,0,0,0,1.7,2.169,4.6,4.6,0,0,1,1.529,2.336,2.64,2.64,0,0,0,1.411,1.713,2.307,2.307,0,0,0,.806.192V33.6A10.045,10.045,0,0,1,8.77,40.694Z"/>
      </g>
    </g>
  </g>
</svg>
