<svg xmlns="http://www.w3.org/2000/svg" width="92" height="92" viewBox="0 0 92 92">
  <g id="Grupo_1178618" data-name="Grupo 1178618" transform="translate(-840 -3101)">
    <rect id="Rectángulo_454605" data-name="Rectángulo 454605" width="92" height="92" transform="translate(840 3101)" fill="#ffd600"/>
    <g id="Grupo_1178617" data-name="Grupo 1178617" transform="translate(852.219 3087.999)">
      <path id="Trazado_1007433" data-name="Trazado 1007433" d="M371.88,298.965l-1.3-7.434a3.781,3.781,0,0,0-3.731-3.137h-1.794v-.426a6.692,6.692,0,0,0,2.9-5.509v-2.265a6.7,6.7,0,0,0-13.391,0v2.265a6.692,6.692,0,0,0,2.9,5.509v.426h-1.794a3.781,3.781,0,0,0-3.731,3.136l-1.3,7.434a1.789,1.789,0,0,0,1.762,2.1h17.719a1.788,1.788,0,0,0,1.762-2.1ZM359.439,288.9a6.66,6.66,0,0,0,3.638,0v1.741a1.819,1.819,0,1,1-3.638,0Zm1.819-13.423a4.714,4.714,0,0,1,3.893,2.058c-4.347,3-7.4,2.449-8.567,2.037A4.722,4.722,0,0,1,361.258,275.478Zm-4.716,6.14a8.684,8.684,0,0,0,2.127.256,13.154,13.154,0,0,0,7.239-2.461,4.726,4.726,0,0,1,.066.781v2.265a4.716,4.716,0,0,1-9.432,0v-.841Zm-3.917,17.464,1.258-7.21a1.805,1.805,0,0,1,1.781-1.5h1.794v.268a3.8,3.8,0,1,0,7.6,0v-.268h1.794a1.805,1.805,0,0,1,1.781,1.5l1.258,7.21H352.626Z" transform="translate(-304.344 -211.689)" fill="#405425"/>
      <path id="Trazado_1007434" data-name="Trazado 1007434" d="M302.4,55.919a4.077,4.077,0,0,0-3.976-3.849h-.083a4.065,4.065,0,0,0-4.026,3.5,4.113,4.113,0,0,0-.039.566.99.99,0,1,0,1.979,0,2.136,2.136,0,0,1,.02-.292,2.085,2.085,0,0,1,2.066-1.793h.043a2.085,2.085,0,0,1,1.469,3.52,2.066,2.066,0,0,1-1.512.65.99.99,0,0,0-.99.99v3.215a.99.99,0,0,0,1.979,0V60.075a4.083,4.083,0,0,0,1.958-1.143A4.032,4.032,0,0,0,302.4,55.919Z" transform="translate(-255.441 -19.478)" fill="#405425"/>
      <path id="Trazado_1007435" data-name="Trazado 1007435" d="M128.184,318.593H109.458a.99.99,0,1,0,0,1.979h18.726a.99.99,0,0,0,0-1.979Z" transform="translate(-94.155 -250.832)" fill="#405425"/>
      <path id="Trazado_1007436" data-name="Trazado 1007436" d="M128.184,371.327H109.458a.99.99,0,1,0,0,1.979h18.726a.99.99,0,0,0,0-1.979Z" transform="translate(-94.155 -296.608)" fill="#405425"/>
      <path id="Trazado_1007437" data-name="Trazado 1007437" d="M318.494,143.988a1,1,0,1,0,1,1A1,1,0,0,0,318.494,143.988Z" transform="translate(-275.597 -99.268)" fill="#405425"/>
      <path id="Trazado_1007438" data-name="Trazado 1007438" d="M20.877,56.554A1.785,1.785,0,0,0,21.27,55.1l-.482-2.762a.99.99,0,0,0-1.95.34l.443,2.538H2.016L3.274,48a1.805,1.805,0,0,1,1.781-1.5H6.85v.268a3.8,3.8,0,1,0,7.6,0v-.268h1.794A1.805,1.805,0,0,1,18.023,48l.063.359a.99.99,0,0,0,1.95-.34l-.063-.359a3.781,3.781,0,0,0-3.731-3.136H14.447V44.1a6.692,6.692,0,0,0,2.9-5.509V36.325a6.7,6.7,0,0,0-13.39,0V38.59A6.692,6.692,0,0,0,6.85,44.1v.426H5.056a3.781,3.781,0,0,0-3.731,3.136L.027,55.1a1.789,1.789,0,0,0,1.762,2.1H19.508a1.785,1.785,0,0,0,1.369-.638Zm-8.41-9.781a1.819,1.819,0,1,1-3.638,0V45.032a6.66,6.66,0,0,0,3.638,0ZM10.648,31.609a4.714,4.714,0,0,1,3.893,2.058c-4.347,3-7.4,2.449-8.567,2.037a4.722,4.722,0,0,1,4.674-4.1Zm-4.716,6.14A8.686,8.686,0,0,0,8.059,38,13.154,13.154,0,0,0,15.3,35.544a4.724,4.724,0,0,1,.066.781V38.59a4.716,4.716,0,1,1-9.432,0v-.841Z" transform="translate(0 0)" fill="#405425"/>
      <path id="Trazado_1007439" data-name="Trazado 1007439" d="M156.608,42.341l4.618,1.993v2.623a4.293,4.293,0,0,0,4.289,4.289h24.92a4.293,4.293,0,0,0,4.289-4.289V34.7a4.293,4.293,0,0,0-4.289-4.289H185.9a.99.99,0,0,0,0,1.979h4.536a2.312,2.312,0,0,1,2.309,2.309V46.957a2.312,2.312,0,0,1-2.309,2.309h-24.92a2.312,2.312,0,0,1-2.309-2.309v-2.84a1.648,1.648,0,0,0-1-1.514l-4.115-1.776,4.115-1.776a1.648,1.648,0,0,0,1-1.514V34.7a2.312,2.312,0,0,1,2.309-2.309h16.07a.99.99,0,1,0,0-1.979h-16.07a4.293,4.293,0,0,0-4.289,4.289v2.623l-4.618,1.993a1.649,1.649,0,0,0,0,3.029Z" transform="translate(-135.078 -0.674)" fill="#405425"/>
      <path id="Trazado_1007440" data-name="Trazado 1007440" d="M99.111,283.919a1.648,1.648,0,0,0-1-1.514L93.5,280.412v-2.623a4.293,4.293,0,0,0-4.289-4.289h-6.9a.99.99,0,1,0,0,1.979h6.9a2.312,2.312,0,0,1,2.309,2.309v2.84a1.649,1.649,0,0,0,1,1.514l4.115,1.776L92.513,285.7a1.648,1.648,0,0,0-1,1.514v2.84a2.312,2.312,0,0,1-2.309,2.309H64.289a2.312,2.312,0,0,1-2.309-2.309V277.789a2.312,2.312,0,0,1,2.309-2.309H78a.99.99,0,1,0,0-1.979H64.289A4.293,4.293,0,0,0,60,277.789V290.05a4.293,4.293,0,0,0,4.289,4.289h24.92A4.293,4.293,0,0,0,93.5,290.05v-2.623l4.618-1.993A1.649,1.649,0,0,0,99.111,283.919Z" transform="translate(-52.082 -211.69)" fill="#405425"/>
    </g>
  </g>
</svg>
