<svg xmlns="http://www.w3.org/2000/svg" width="92" height="92" viewBox="0 0 92 92">
  <g id="Grupo_1178623" data-name="Grupo 1178623" transform="translate(-840 -3364.5)">
    <rect id="Rectángulo_454606" data-name="Rectángulo 454606" width="92" height="92" transform="translate(840 3364.5)" fill="#ffd600"/>
    <g id="Grupo_1178622" data-name="Grupo 1178622" transform="translate(857.582 3383.229)">
      <path id="Trazado_1007451" data-name="Trazado 1007451" d="M13.339,21H9.868A.868.868,0,0,0,9,21.868v3.471a.868.868,0,0,0,.868.868h3.471a.868.868,0,0,0,.868-.868V21.868A.868.868,0,0,0,13.339,21Zm-.868,3.471H10.736V22.736h1.736Z" transform="translate(-0.793 -2.775)" fill="#405425"/>
      <path id="Trazado_1007452" data-name="Trazado 1007452" d="M9.868,9.736h7.811a.868.868,0,0,0,0-1.736H9.868a.868.868,0,0,0,0,1.736Z" transform="translate(-0.793 -1.057)" fill="#405425"/>
      <path id="Trazado_1007453" data-name="Trazado 1007453" d="M9.868,13.736h12.15a.868.868,0,0,0,0-1.736H9.868a.868.868,0,0,0,0,1.736Z" transform="translate(-0.793 -1.586)" fill="#405425"/>
      <path id="Trazado_1007454" data-name="Trazado 1007454" d="M17,21.868a.868.868,0,0,0,.868.868H36.961a.868.868,0,1,0,0-1.736H17.868A.868.868,0,0,0,17,21.868Z" transform="translate(-1.85 -2.775)" fill="#405425"/>
      <path id="Trazado_1007455" data-name="Trazado 1007455" d="M17.868,26.736h9.547a.868.868,0,0,0,0-1.736H17.868a.868.868,0,0,0,0,1.736Z" transform="translate(-1.85 -3.303)" fill="#405425"/>
      <path id="Trazado_1007456" data-name="Trazado 1007456" d="M13.339,31H9.868A.868.868,0,0,0,9,31.868v3.471a.868.868,0,0,0,.868.868h3.471a.868.868,0,0,0,.868-.868V31.868A.868.868,0,0,0,13.339,31Zm-.868,3.471H10.736V32.736h1.736Z" transform="translate(-0.793 -4.096)" fill="#405425"/>
      <path id="Trazado_1007457" data-name="Trazado 1007457" d="M17,31.868a.868.868,0,0,0,.868.868H38.7A.868.868,0,0,0,38.7,31H17.868A.868.868,0,0,0,17,31.868Z" transform="translate(-1.85 -4.096)" fill="#405425"/>
      <path id="Trazado_1007458" data-name="Trazado 1007458" d="M17.868,35a.868.868,0,1,0,0,1.736H31.754a.868.868,0,1,0,0-1.736Z" transform="translate(-1.85 -4.625)" fill="#405425"/>
      <path id="Trazado_1007459" data-name="Trazado 1007459" d="M13.339,41H9.868A.868.868,0,0,0,9,41.868v3.471a.868.868,0,0,0,.868.868h3.471a.868.868,0,0,0,.868-.868V41.868A.868.868,0,0,0,13.339,41Zm-.868,3.471H10.736V42.736h1.736Z" transform="translate(-0.793 -5.418)" fill="#405425"/>
      <path id="Trazado_1007460" data-name="Trazado 1007460" d="M39.564,41.868A.868.868,0,0,0,38.7,41H17.868a.868.868,0,1,0,0,1.736H38.7A.868.868,0,0,0,39.564,41.868Z" transform="translate(-1.85 -5.418)" fill="#405425"/>
      <path id="Trazado_1007461" data-name="Trazado 1007461" d="M17.868,46.736h9.547a.868.868,0,1,0,0-1.736H17.868a.868.868,0,1,0,0,1.736Z" transform="translate(-1.85 -5.946)" fill="#405425"/>
      <path id="Trazado_1007462" data-name="Trazado 1007462" d="M13.339,51H9.868A.868.868,0,0,0,9,51.868v3.471a.868.868,0,0,0,.868.868h3.471a.868.868,0,0,0,.868-.868V51.868A.868.868,0,0,0,13.339,51Zm-.868,3.471H10.736V52.736h1.736Z" transform="translate(-0.793 -6.739)" fill="#405425"/>
      <path id="Trazado_1007463" data-name="Trazado 1007463" d="M36.961,51H17.868a.868.868,0,0,0,0,1.736H36.961a.868.868,0,0,0,0-1.736Z" transform="translate(-1.85 -6.739)" fill="#405425"/>
      <path id="Trazado_1007464" data-name="Trazado 1007464" d="M31.754,55H17.868a.868.868,0,1,0,0,1.736H31.754a.868.868,0,1,0,0-1.736Z" transform="translate(-1.85 -7.267)" fill="#405425"/>
      <path id="Trazado_1007465" data-name="Trazado 1007465" d="M53.336,35.582a3.471,3.471,0,0,0-5.926-2.455l-4.489,4.489V9.547c0-.018-.01-.035-.01-.053a.846.846,0,0,0-.047-.231c-.01-.028-.017-.055-.03-.082a.837.837,0,0,0-.165-.246.009.009,0,0,0,0,0L33.991.253a.848.848,0,0,0-.252-.168c-.025-.012-.053-.018-.08-.029A.882.882,0,0,0,33.432.01C33.413.01,33.4,0,33.375,0H5.6A2.607,2.607,0,0,0,3,2.6V52.94a2.607,2.607,0,0,0,2.6,2.6H40.318a2.607,2.607,0,0,0,2.6-2.6V47.434l9.4-9.4a3.446,3.446,0,0,0,1.017-2.454ZM34.245,2.964l5.714,5.715H35.113a.869.869,0,0,1-.868-.868Zm6.073,50.844H5.6a.869.869,0,0,1-.868-.868V2.6A.869.869,0,0,1,5.6,1.736H32.509V7.811a2.607,2.607,0,0,0,2.6,2.6h6.073V39.352l-3.322,3.322c-.006.005-.008.014-.013.019a.837.837,0,0,0-.166.25.629.629,0,0,0-.022.069.83.83,0,0,0-.041.129l-.763,4.444a.869.869,0,0,0,.855,1.015.838.838,0,0,0,.147-.013l3.325-.57V52.94a.869.869,0,0,1-.868.868Zm-1.269-8.72,1.31,1.31-1.582.272ZM51.092,36.81l-8.933,8.933L39.7,43.288l2.962-2.963h0l5.97-5.97a1.736,1.736,0,0,1,2.454,2.455Z" fill="#405425"/>
    </g>
  </g>
</svg>
