<svg xmlns="http://www.w3.org/2000/svg" width="169.706" height="169.706" viewBox="0 0 169.706 169.706">
  <g id="Grupo_1177738" data-name="Grupo 1177738" transform="translate(-1065.98 -3369.146)">
    <rect id="Rect치ngulo_402033" data-name="Rect치ngulo 402033" width="120" height="120" rx="30" transform="translate(1065.98 3453.999) rotate(-45)" fill="#ffd600"/>
    <rect id="Rect치ngulo_454167" data-name="Rect치ngulo 454167" width="100" height="100" rx="50" transform="translate(1100.833 3403.999)" fill="#c8bf57"/>
    <g id="Grupo_1177737" data-name="Grupo 1177737" transform="translate(1121.245 3424.447)">
      <g id="Grupo_1177735" data-name="Grupo 1177735" transform="translate(1.154 1.154)">
        <path id="Trazado_995573" data-name="Trazado 995573" d="M443.619,316v15.238H436V316Z" transform="translate(-386.824 -280.677)" fill="#fce8d0"/>
        <path id="Trazado_995574" data-name="Trazado 995574" d="M285.235,260.6a2.309,2.309,0,0,1-4.617,0,2.309,2.309,0,0,1-4.617,0V245.921a6.728,6.728,0,0,1,.036-.7,7.379,7.379,0,0,1,2.553-4.757A6.925,6.925,0,0,0,280.6,236.1v-.122c.691,0,14.552,0,14.566,0v.54a4.612,4.612,0,0,0,1.353,3.265l1.912,1.913a4.615,4.615,0,0,1,1.353,3.266v.252h-5.31v15.37a2.309,2.309,0,1,1-4.617.012,2.309,2.309,0,0,1-4.617,0Z" transform="translate(-245.294 -209.894)" fill="#d0a084"/>
        <path id="Trazado_995575" data-name="Trazado 995575" d="M259.654,49.162a2.309,2.309,0,0,1,2.284,2.333,2.268,2.268,0,0,1-2.284,2.284h-.024c-14.647-.008-14.032.021-14.563-.025a6.879,6.879,0,0,1-4.3-1.98,7.326,7.326,0,0,0-4.94-2.567h0c.036-.435.014.223.02-14.494,0-.024,0-.047,0-.072h.423a4.617,4.617,0,0,0,3.265-1.353l1.913-1.913A4.642,4.642,0,0,1,244.713,30h.372v5.31h14.569a2.309,2.309,0,0,1,2.284,2.333,2.268,2.268,0,0,1-2.284,2.284,2.309,2.309,0,0,1,2.284,2.333,2.268,2.268,0,0,1-2.284,2.284,2.309,2.309,0,0,1,2.284,2.333A2.268,2.268,0,0,1,259.654,49.162Z" transform="translate(-209.761 -27.691)" fill="#ffda8f"/>
        <path id="Trazado_995576" data-name="Trazado 995576" d="M330.545,10v7.619H316V10Z" transform="translate(-280.677 -10)" fill="#d0a084"/>
        <path id="Trazado_995577" data-name="Trazado 995577" d="M51.4,280.6a2.369,2.369,0,0,1-2.4-2.284,2.409,2.409,0,0,1,2.4-2.333h.024c14.556.009,14.021-.025,14.574.029a6.979,6.979,0,0,1,4.285,2.024l.56.56A6.921,6.921,0,0,0,75.2,280.6V295.17h-.42a4.616,4.616,0,0,0-3.265,1.352l-1.913,1.913a4.62,4.62,0,0,1-3.266,1.353h-.372v-5.334H51.4a2.369,2.369,0,0,1-2.4-2.284,2.409,2.409,0,0,1,2.4-2.333,2.369,2.369,0,0,1-2.4-2.284,2.409,2.409,0,0,1,2.4-2.333,2.369,2.369,0,0,1-2.4-2.284,2.409,2.409,0,0,1,2.4-2.333Z" transform="translate(-44.498 -245.277)" fill="#fce8d0"/>
        <path id="Trazado_995578" data-name="Trazado 995578" d="M39.928,52.4a2.311,2.311,0,1,1,4.617,0,2.311,2.311,0,1,1,4.617,0,2.309,2.309,0,1,1,4.615-.072c0,.024,0,.047,0,.072-.006,14.731.016,14.061-.02,14.494a6.923,6.923,0,0,1-2.009,4.389,7.321,7.321,0,0,0-2.56,4.83c-.553-.053-.015-.02-14.574-.029v-.3a4.612,4.612,0,0,0-1.353-3.265l-1.912-1.913A4.615,4.615,0,0,1,30,67.345v-.492h5.31V52.4c0-.032,0-.065,0-.1a2.309,2.309,0,1,1,4.615.1Z" transform="translate(-27.691 -45.383)" fill="#d0a084"/>
        <path id="Trazado_995579" data-name="Trazado 995579" d="M84.545,443.619H70V436H84.545Z" transform="translate(-63.074 -386.824)" fill="#d0a084"/>
        <path id="Trazado_995580" data-name="Trazado 995580" d="M17.621,70c0,.031,0,.063,0,.1V84.545H10V70h7.619Z" transform="translate(-10 -63.074)" fill="#ffda8f"/>
      </g>
      <g id="Grupo_1177736" data-name="Grupo 1177736" transform="translate(0 0)">
        <path id="Trazado_995581" data-name="Trazado 995581" d="M57.949,35.323H56.724a5.722,5.722,0,0,0-1.62-3.179l-1.912-1.913A3.431,3.431,0,0,1,52.2,28.2a3.444,3.444,0,0,0,2.283-3.239,3.5,3.5,0,0,0-.878-2.325,3.424,3.424,0,0,0,.878-2.293,3.5,3.5,0,0,0-.878-2.325,3.425,3.425,0,0,0,.878-2.293,3.5,3.5,0,0,0-.878-2.325,3.425,3.425,0,0,0,.878-2.293,3.49,3.49,0,0,0-2.309-3.294V1.154A1.154,1.154,0,0,0,51.023,0H36.478a1.154,1.154,0,0,0-1.154,1.154V2.366a5.868,5.868,0,0,0-3.3,1.657L30.111,5.936a3.438,3.438,0,0,1-1.946.979,3.5,3.5,0,0,0-3.231-2.3,3.392,3.392,0,0,0-2.309.932,3.325,3.325,0,0,0-4.617,0,3.325,3.325,0,0,0-4.617,0,3.392,3.392,0,0,0-2.309-.932A3.508,3.508,0,0,0,7.847,6.926H1.154A1.154,1.154,0,0,0,0,8.081V22.626A1.154,1.154,0,0,0,1.154,23.78H2.348A5.721,5.721,0,0,0,4,27.2l1.912,1.913a3.432,3.432,0,0,1,.954,1.8A3.548,3.548,0,0,0,4.5,34.193,3.364,3.364,0,0,0,5.421,36.5,3.429,3.429,0,0,0,4.5,38.811a3.364,3.364,0,0,0,.919,2.305A3.429,3.429,0,0,0,4.5,43.428a3.364,3.364,0,0,0,.919,2.305,3.392,3.392,0,0,0,1.5,5.573v6.643A1.154,1.154,0,0,0,8.081,59.1H22.626a1.154,1.154,0,0,0,1.154-1.154V56.763a5.818,5.818,0,0,0,3.3-1.635l1.913-1.913a3.436,3.436,0,0,1,1.74-.941,3.46,3.46,0,0,0,5.746,2.164,3.455,3.455,0,0,0,4.617,0,3.455,3.455,0,0,0,4.617,0,3.458,3.458,0,0,0,5.619-1.568h6.617A1.154,1.154,0,0,0,59.1,51.715V49.291a1.154,1.154,0,0,0-2.309,0v1.27h-5.31V37.623c1.2,0,4.4.017,5.31,0V38.9a1.154,1.154,0,0,0,2.309,0V36.478a1.154,1.154,0,0,0-1.154-1.154ZM37.632,2.309H49.868v5.31H37.632ZM31.744,7.568l1.913-1.913a3.565,3.565,0,0,1,1.667-.942V8.773a1.154,1.154,0,0,0,1.154,1.154H51.047a1.156,1.156,0,0,1,1.13,1.179,1.118,1.118,0,0,1-1.13,1.13H46.429a1.154,1.154,0,0,0,0,2.309h4.617a1.156,1.156,0,0,1,1.13,1.179,1.118,1.118,0,0,1-1.13,1.13H46.429a1.154,1.154,0,0,0,0,2.309h4.617a1.156,1.156,0,0,1,1.13,1.179,1.118,1.118,0,0,1-1.13,1.13H46.429a1.154,1.154,0,0,0,0,2.309h4.617a1.156,1.156,0,0,1,1.13,1.179,1.118,1.118,0,0,1-1.13,1.13H37.062a5.764,5.764,0,0,1-4.082-1.667A8.633,8.633,0,0,0,28.4,21.677V9.211a5.728,5.728,0,0,0,3.346-1.643Zm-.78,27.6a6.566,6.566,0,0,1-3.209-2.07A8.185,8.185,0,0,0,24,30.954a6.622,6.622,0,0,1,2.034-3.079A8.086,8.086,0,0,0,28.184,24a6.565,6.565,0,0,1,3.164,2.054,8.016,8.016,0,0,0,3.815,2.12,6.533,6.533,0,0,1-2.091,3.295,8.112,8.112,0,0,0-2.108,3.7ZM2.309,9.235h5.31V21.471H2.309ZM5.632,25.566a3.433,3.433,0,0,1-.951-1.786H8.773a1.154,1.154,0,0,0,1.154-1.154V8.176c0-.018,0-.036,0-.049a1.23,1.23,0,0,1,1.153-1.2,1.237,1.237,0,0,1,1.154,1.25v4.617a1.154,1.154,0,0,0,2.309,0V8.176A1.237,1.237,0,0,1,15.7,6.926a1.237,1.237,0,0,1,1.154,1.25v4.617a1.154,1.154,0,1,0,2.309,0V8.176a1.158,1.158,0,1,1,2.309,0v4.617a1.154,1.154,0,0,0,2.309,0V8.176a1.156,1.156,0,1,1,2.307-.037c0,.013,0,.025,0,.038V22.161A5.777,5.777,0,0,1,24.4,26.242a8.655,8.655,0,0,0-2.721,4.464H9.172A5.722,5.722,0,0,0,7.544,27.48ZM21.471,56.795H9.235v-5.31H21.471Zm5.888-5.212L25.447,53.5a3.488,3.488,0,0,1-1.667.923V50.33a1.154,1.154,0,0,0-1.154-1.154H8.056a1.223,1.223,0,0,1-1.246-1.13,1.261,1.261,0,0,1,1.246-1.179H12.7a1.154,1.154,0,1,0,0-2.309H8.056a1.223,1.223,0,0,1-1.246-1.13A1.261,1.261,0,0,1,8.056,42.25H12.7a1.154,1.154,0,1,0,0-2.309H8.056a1.223,1.223,0,0,1-1.246-1.13,1.261,1.261,0,0,1,1.246-1.179H12.7a1.154,1.154,0,1,0,0-2.309H8.056a1.223,1.223,0,0,1-1.246-1.13,1.261,1.261,0,0,1,1.246-1.179H22.041a5.809,5.809,0,0,1,4.082,1.714,8.584,8.584,0,0,0,4.583,2.748V49.94A5.726,5.726,0,0,0,27.359,51.583ZM50.33,35.323a1.154,1.154,0,0,0-1.154,1.154v15.37a1.154,1.154,0,1,1-2.309.012V46.55a1.154,1.154,0,1,0-2.309,0v5.31a1.154,1.154,0,0,1-2.309,0V46.55a1.154,1.154,0,0,0-2.309,0v5.31a1.154,1.154,0,1,1-2.309,0V46.55a1.154,1.154,0,1,0-2.309,0v5.31a1.154,1.154,0,0,1-2.309,0V37.182A5.789,5.789,0,0,1,34.7,33.1a8.55,8.55,0,0,0,2.772-4.7H49.9a5.722,5.722,0,0,0,1.658,3.466l1.912,1.913a3.437,3.437,0,0,1,.9,1.546Z" transform="translate(0 0)"/>
        <circle id="Elipse_13614" data-name="Elipse 13614" cx="1.201" cy="1.201" r="1.201" transform="translate(56.774 43.162)"/>
      </g>
    </g>
  </g>
</svg>
