<svg xmlns="http://www.w3.org/2000/svg" width="294.945" height="363.414" viewBox="0 0 294.945 363.414">
  <g id="_x32_3" transform="translate(-755.07 -350)">
    <ellipse id="Elipse_13536" data-name="Elipse 13536" cx="147.472" cy="145.678" rx="147.472" ry="145.678" transform="translate(755.07 422.058)" fill="#abbc42"/>
    <path id="Trazado_988919" data-name="Trazado 988919" d="M1036.381,1895.587l-9.822,30.183a.031.031,0,0,0-.009.026l-1.191,3.642-11.485,5.8-54.018,28.414c-1.926-9.673-5.586-16.6.322-32v-.008a179.667,179.667,0,0,1,8.115-17.665v-.009c1.926-3.738,4.132-7.817,6.653-12.317,20.125-35.872,41.72-50.3,48.355-54.115,1.331-.762,2.057-1.1,2.057-1.1Z" transform="translate(-184.826 -1369.964)" fill="#6e8036"/>
    <path id="Trazado_988920" data-name="Trazado 988920" d="M1717.289,1895.588l-5.917,18.181c-1.975-6.4.888-16.03-6.618-31.181-3.125-6.291-4.369-7.821-3.948-15.152a89.26,89.26,0,0,1,3.405-19.9c1.331-.762,2.057-1.1,2.057-1.1Z" transform="translate(-865.734 -1369.965)" fill="#2d343c"/>
    <path id="Trazado_988921" data-name="Trazado 988921" d="M2194.289,1315.836l-3-16.236,45.134-12.89,2.412,20.994,9.814,16.61-15.362,30.922-20.406,7.949-21.117-10.422-2.886-12.671,2.919-22.349" transform="translate(-1312.632 -857.544)" fill="#f96041"/>
    <g id="Grupo_1176509" data-name="Grupo 1176509" transform="translate(819.095 450.16)">
      <path id="Trazado_988922" data-name="Trazado 988922" d="M1903.09,1599.892c-8.609,168.167-5.889,115.031-6.434,125.685l-6.486,3.948-58.615,12.6-63.184-15.765,3.8-116.363-5.878-48.576c4.764-2.748,40.837-18.056,41.124-18.179,2.591,16.1,8.509,26,19.135,27.084a8.355,8.355,0,0,0,3.274-.123c22.768-4.228,22.138-35.093,22.138-35.093,20.75,3.18,41.623,16.48,41.913,16.615Z" transform="translate(-1744.859 -1535.115)" fill="#6e8036"/>
      <path id="Trazado_988923" data-name="Trazado 988923" d="M2264.618,1535.765c-.37,8.973-2.706,20.928-7.983,28.222a24.849,24.849,0,0,1-14.583,9.655,9.448,9.448,0,0,1-2.7,9.007,11.7,11.7,0,0,1-6.863-9.856c-6.653-.875-12.238-5.822-15.415-11.73-2.644-4.911-3.414-10.741-3.965-16.4,2.1-.884,3.361-1.409,3.361-1.409,2.591,16.1,8.509,26,19.135,27.084v.009c.788,2.674.905,6.2,3.326,8.053a50.123,50.123,0,0,0-.052-8.185c22.768-4.228,22.138-35.093,22.138-35.093C2262.219,1535.3,2263.418,1535.511,2264.618,1535.765Z" transform="translate(-2153.91 -1535.117)" fill="#2d343c"/>
      <path id="Trazado_988924" data-name="Trazado 988924" d="M2202.185,1575.57c-5.55,14.767-19.635,12.071-19.635,12.071s-3.686,13.332-8.973,13.481-11.187-12.894-11.187-12.894c-2.6.84-12.124,2.7-17.989-6.5-4.4-6.915-2.188-19.109-.814-24.747,1.059-.455,2.04-.875,2.915-1.243-.989,5.576-2.714,18.873,2.1,24.921,6.171,7.765,14.881,3.379,14.881,3.379s4.105,11.056,10.2,12.5c0,0,3.536-.42,6.241-11.712,0,0,13.034.481,16.938-7.8,3.659-7.73,4.561-20.274,3.983-30.419,1.488.333,2.968.718,4.429,1.138C2205.783,1554.036,2205.976,1565.5,2202.185,1575.57Z" transform="translate(-2088.625 -1545.641)" fill="#2d343c"/>
      <path id="Trazado_988925" data-name="Trazado 988925" d="M1689.421,1757.587l-9.822,16.544-4.018,3.755-126.359,6.276-20.738-10.26-15.853-32.694,3.37-38.5,7.729-37.781,5.6-4.612,6.28-5.578,4.779-12.578s-3.878-27.609,6.373-51.7c4.591-2.093,12.871-5.7,17.455-7.668a132.778,132.778,0,0,0-9.279,47.882c26.226,6.513,54.045,4.937,82.923-2.066,0,0-1.313-38.708-4.928-55.384a124.393,124.393,0,0,1,14.338,5.7c1.908,11.257,6.014,37.483,6.434,57.546l5.894,42.223,26.433-21.88,1.882,45.466Z" transform="translate(-1512.632 -1570.005)" fill="#fefefe"/>
      <path id="Trazado_988926" data-name="Trazado 988926" d="M1899.524,1715.34c-5.81,14.922-7.8,34.65-8.071,50.92-.052,5.094.1,8.246.1,8.246l-5.375.49c-2.621-19.019-.788-39.794,7.336-57.021C1895.532,1717.082,1897.555,1716.188,1899.524,1715.34Z" transform="translate(-1853.585 -1700.108)" fill="#cce4fe"/>
      <path id="Trazado_988927" data-name="Trazado 988927" d="M1894.138,2325.249l-5.375.49c-.4-2.923-.683-5.751-.875-8.491a26.8,26.8,0,0,1,6.154-.245C1893.989,2322.1,1894.138,2325.249,1894.138,2325.249Z" transform="translate(-1856.173 -2250.852)" fill="#f96041"/>
      <path id="Trazado_988928" data-name="Trazado 988928" d="M1885.058,2157.5l6.793.718c-.2,2.74-.333,5.323-.411,7.668h-6.521C1884.856,2162.971,1884.91,2160.17,1885.058,2157.5Z" transform="translate(-1853.431 -2104.899)" fill="#f96041"/>
      <path id="Trazado_988929" data-name="Trazado 988929" d="M1894.419,2004l6.609,1.112q-.433,3.1-.744,6.084l-6.81-.823Q1893.868,2007.024,1894.419,2004Z" transform="translate(-1861.287 -1964.372)" fill="#f96041"/>
      <path id="Trazado_988930" data-name="Trazado 988930" d="M1922.385,1839.42l5.523,1.593c-.6,2.5-1.12,5.033-1.575,7.546l-6.241-1.348C1920.81,1844.313,1921.6,1841.7,1922.385,1839.42Z" transform="translate(-1885.656 -1813.702)" fill="#f96041"/>
      <path id="Trazado_988931" data-name="Trazado 988931" d="M1986.021,1715.34c-.569,1.462-1.085,2.958-1.576,4.473l-4.9-.849c.158-.35.315-.674.464-.99C1982.029,1717.082,1984.052,1716.188,1986.021,1715.34Z" transform="translate(-1940.082 -1700.108)" fill="#f96041"/>
      <path id="Trazado_988932" data-name="Trazado 988932" d="M2991.6,1655.069l-6.723.236c-.707-21.369-4.243-49.839-7.589-67.98,2.521.91,4.946,1.891,7.23,2.871C2987.617,1601.687,2990.822,1645.246,2991.6,1655.069Z" transform="translate(-2853.507 -1582.912)" fill="#cce4fe"/>
      <path id="Trazado_988933" data-name="Trazado 988933" d="M2994.132,1645.55l-6.968-.333c-.525-3.422-1-6.338-1.383-8.6l7.055,1.077C2993.274,1639.833,2993.712,1642.512,2994.132,1645.55Z" transform="translate(-2861.278 -1628.042)" fill="#f96041"/>
      <path id="Trazado_988934" data-name="Trazado 988934" d="M3019.951,1815.147h-6.687c-.324-2.495-.656-4.876-.972-7.117l6.88.368C3019.444,1810.56,3019.7,1812.828,3019.951,1815.147Z" transform="translate(-2885.549 -1784.965)" fill="#f96041"/>
      <path id="Trazado_988935" data-name="Trazado 988935" d="M3041.132,1981.122h-6.443c-.236-2.258-.49-4.482-.744-6.644l6.574.219C3040.729,1976.851,3040.939,1979,3041.132,1981.122Z" transform="translate(-2905.371 -1937.345)" fill="#f96041"/>
      <path id="Trazado_988936" data-name="Trazado 988936" d="M3057.357,2137.583l-6.382.245c-.166-2.267-.359-4.517-.56-6.74l6.425.394C3057.024,2133.609,3057.2,2135.657,3057.357,2137.583Z" transform="translate(-2920.45 -2080.719)" fill="#f96041"/>
      <path id="Trazado_988937" data-name="Trazado 988937" d="M3069.454,2296.629l-6.723.236c-.1-2.906-.228-5.829-.4-8.753l6.513.385C3069.225,2293.46,3069.454,2296.629,3069.454,2296.629Z" transform="translate(-2931.356 -2224.473)" fill="#f96041"/>
    </g>
    <path id="Trazado_988938" data-name="Trazado 988938" d="M1293.6,3618.528a148.523,148.523,0,0,1-245.111-.359C1125.768,3585.43,1216.411,3585.536,1293.6,3618.528Z" transform="translate(-268.622 -2969.558)" fill="#5a6984"/>
    <ellipse id="Elipse_13537" data-name="Elipse 13537" cx="34.915" cy="14.908" rx="34.915" ry="14.908" transform="translate(871.207 636.09)" fill="#2d343c"/>
    <ellipse id="Elipse_13538" data-name="Elipse 13538" cx="37.204" cy="12.305" rx="37.204" ry="12.305" transform="translate(922.928 660.004)" fill="#2d343c"/>
    <path id="Trazado_988939" data-name="Trazado 988939" d="M2948.282,4118.141c-11.213,0-20.729-3.4-20.729-6.687,0-.875.639-1.7,1.786-2.442,7.212-4.7,30.039-4.655,37.1.043C2972.6,4113.164,2961.273,4118.141,2948.282,4118.141Z" transform="translate(-1988.877 -3438.111)" fill="#91dcd7"/>
    <path id="Trazado_988940" data-name="Trazado 988940" d="M2985.785,4109.055c-7.558,5.652-29.507,5.3-37.1-.043C2955.9,4104.309,2978.726,4104.357,2985.785,4109.055Z" transform="translate(-2008.224 -3438.112)" fill="#1a6a8f"/>
    <path id="Trazado_988941" data-name="Trazado 988941" d="M3454.8,3567.677a24.73,24.73,0,0,1,9.17-7.116c10.761-4.307,20.646,5.054,14.1,20.073a36.617,36.617,0,0,1-35.919,21.9c-.191-3.321,2.424-6.219,5.38-7.744s6.309-2.079,9.417-3.262a24.929,24.929,0,0,0,14.928-16.448c1.775-6.491-2.854-8.853-7.325-5.136-2.38,1.979-4.094,4.666-6.476,6.642s-5.94,3.133-8.55,1.468" transform="translate(-2459.981 -2938.259)" fill="#cce4fe"/>
    <path id="Trazado_988942" data-name="Trazado 988942" d="M2717.22,3556.98v13.8a37.986,37.986,0,0,0,37.986,37.986h0a37.986,37.986,0,0,0,37.983-37.494l.185-14.293" transform="translate(-1796.319 -2935.942)" fill="#fefefe"/>
    <path id="Trazado_988943" data-name="Trazado 988943" d="M1008.863,2730.843a8.168,8.168,0,0,1-1.3,4.009l-54.017,28.414c-3.745-4.828-5.586-16.6.322-32v-.009a46.48,46.48,0,0,1,47.777-8.053,15.814,15.814,0,0,1,4.823,2.766A6.834,6.834,0,0,1,1008.863,2730.843Z" transform="translate(-178.52 -2169.575)" fill="#2d343c"/>
    <path id="Trazado_988944" data-name="Trazado 988944" d="M1119.917,2630.6c-.54,4.2-.456,3.47-.542,4.176-.079-.061-.167-.114-.245-.166a65.479,65.479,0,0,0-60.566-7.659c.84-1.742,1.759-3.563,2.749-5.48v-.009A77,77,0,0,1,1119.917,2630.6Z" transform="translate(-277.843 -2077.46)" fill="#2d343c"/>
    <path id="Trazado_988945" data-name="Trazado 988945" d="M3193.794,1731.66l-4.619,73.767,1.233,7.539-4.193,7.095s43.175,4.469,43.1,39.126c0,0,19.4-23.963,8.334-66.4S3193.794,1731.66,3193.794,1731.66Z" transform="translate(-2225.678 -1264.889)" fill="#6e8036"/>
    <path id="Trazado_988946" data-name="Trazado 988946" d="M2461.276,2997.91a2.55,2.55,0,0,1-1.243,1.068A3.4,3.4,0,0,1,2461.276,2997.91Z" transform="translate(-1560.868 -2424.122)" fill="#fdad95"/>
    <g id="Grupo_1176510" data-name="Grupo 1176510" transform="translate(844.685 350)">
      <path id="Trazado_988947" data-name="Trazado 988947" d="M1827.016,360.329c4.3-5.9,11.49-8.62,18.492-9.748,11.085-1.786,23.819.532,33,7.183a33.684,33.684,0,0,1,5.944,5.667c10.043-2.306,18.772,2.239,22.14,14.865,3.991,14.962.337,34.524-13.551,43.083-6.4,3.945-13.828,5.822-21.142,7.564a98.646,98.646,0,0,1-17.25,2.992c-15.286.856-24.591-5.782-28.061-13.84-2.123-4.929-6.491-8.595-8.516-13.686-6.461-16.237-.079-28.168,8.029-31.328a9.417,9.417,0,0,1-.667-2.347C1824.67,367,1824.866,363.572,1827.016,360.329Z" transform="translate(-1815.418 -350)" fill="#2d343c"/>
      <path id="Trazado_988948" data-name="Trazado 988948" d="M2117.2,819.541a9.273,9.273,0,0,0,.8,1.366l.455.979q2.609,4,5.41,7.864c-3.1-1.2-4.952-4.822-6.151-7.936l-.235-.3c-1.342.389-5.6,3.219-7.6,4.064a36.519,36.519,0,0,1-33.571-2.17c.411-1.137,1.035-2.273,1.54-3.377,1.659,1.455,4.6,2.536,6.683,3.233C2095.521,826.931,2107.075,824.533,2117.2,819.541Z" transform="translate(-2054.26 -779.858)" fill="#f96041"/>
      <path id="Trazado_988949" data-name="Trazado 988949" d="M1874.656,844.751a36.518,36.518,0,0,0,33.571,2.17c2-.845,6.258-3.675,7.6-4.064l.235.3c1.2,3.12,3.05,6.74,6.152,7.936,3.274,4.733,7.376,9.045,10.234,14.031-.146-.256.568-1.709.68-2.008,5.127-13.667,19.095-8.26,14.789,3.38a13.276,13.276,0,0,1-3.294,5,16.616,16.616,0,0,1-4.238,3.309,35.132,35.132,0,0,1-5.232,1.15,33.727,33.727,0,0,1-14.286,28.115c-16.3,11.207-34.87,7.666-46.087-11.8-.321-.557-2-4.906-2.625-4.845a9.472,9.472,0,0,1-1.336.065c-4.642-.2-9.883-4.3-12.75-7.687a9.5,9.5,0,0,1-1.965-6.684,5.41,5.41,0,0,1,2.193-3.845c1.714-1.182,3.325-1,5.242-.653,1.291.885,3.255,3.251,4.447,3.743C1866.912,861.816,1867.225,859.739,1874.656,844.751Z" transform="translate(-1852.607 -801.204)" fill="#fdad95"/>
      <path id="Trazado_988950" data-name="Trazado 988950" d="M2003.507,918.029c.276,2.225-2.077,8.057-3.4,9.986a3,3,0,0,1-.961.828C2000.064,925.145,2001.92,921.481,2003.507,918.029Z" transform="translate(-1983.619 -870.022)" fill="#f96041"/>
      <path id="Trazado_988951" data-name="Trazado 988951" d="M2174.208,1227.216c1.34.293.434,2.683,0,3.422a2.871,2.871,0,0,1-1.71,1.356c-1.238.354-4.264-1.273-4.23-3.413.021-1.352,2.453.094,3.01.344a13.341,13.341,0,0,0,2.083-1.367C2173.656,1227.331,2173.824,1227.131,2174.208,1227.216Z" transform="translate(-2138.444 -1153.06)" fill="#2d343c"/>
      <path id="Trazado_988952" data-name="Trazado 988952" d="M2511.987,1159.277c.3.144.345.5.389.81.3,2.11-1.4,4.506-3.548,4.269a3.788,3.788,0,0,1-3.088-3.14c-.041-.7.6-.812,1.163-.758a2.93,2.93,0,0,1,.857.164c.4.175.648.447,1.117.473,1.26.069,1.58-1.029,2.027-1.5A1.153,1.153,0,0,1,2511.987,1159.277Z" transform="translate(-2447.397 -1090.836)" fill="#2d343c"/>
      <path id="Trazado_988953" data-name="Trazado 988953" d="M2090.357,1073.69a4.731,4.731,0,0,1-.819,3.591c-2.229,3.12-8.828,5.236-11.711,2.677a4.243,4.243,0,0,1-.949-1.447,12.71,12.71,0,0,0,8.718-.466A7.983,7.983,0,0,0,2090.357,1073.69Z" transform="translate(-2054.781 -1012.527)" fill="#f96041"/>
      <path id="Trazado_988954" data-name="Trazado 988954" d="M2361.8,1440.23l.225.089c.149.3.3.416.207.76-.32,1.182-1.927,2.348-2.948,2.964a11.475,11.475,0,0,1-9.208,1.2,2.4,2.4,0,0,1-.54-.341,1.224,1.224,0,0,1-.45-1.194c.89-.571,4.552.04,6.038-.255A17.013,17.013,0,0,0,2361.8,1440.23Z" transform="translate(-2303.972 -1348.089)" fill="#f96041"/>
      <path id="Trazado_988955" data-name="Trazado 988955" d="M2436.33,1025.52c3.054,4.168,11,4.992,14.633,2.274a9.342,9.342,0,0,0,1.178-1.084,2.353,2.353,0,0,1-.516,1.731c-1.325,1.78-3.627,2.57-5.752,2.874C2440.526,1032.082,2436.716,1028.75,2436.33,1025.52Z" transform="translate(-2383.854 -968.429)" fill="#f96041"/>
      <path id="Trazado_988956" data-name="Trazado 988956" d="M2072.546,1057.8a2.485,2.485,0,0,1-.244-2.129c1.568-3.619,12.17-6.556,13.65-2.98a1.039,1.039,0,0,1-.03.866,8.049,8.049,0,0,1-4.659,3.777A12.709,12.709,0,0,1,2072.546,1057.8Z" transform="translate(-2050.449 -991.821)" fill="#2d343c"/>
      <path id="Trazado_988957" data-name="Trazado 988957" d="M2322.447,1096.33c1.789,1.209,2.93,19.029,4.986,22.029,2.51,1.373,4.439-2.107,6.613-2.1l.447.509a2.2,2.2,0,0,1-.265,1.617c-2.253,2.042-6.636,3.873-9.019,2-1.372-1.08-1.564-5.2-1.763-6.9-.278-2.381-2.169-15.059-1.567-16.433A3.621,3.621,0,0,1,2322.447,1096.33Z" transform="translate(-2278.967 -1033.254)" fill="#f96041"/>
      <path id="Trazado_988958" data-name="Trazado 988958" d="M1905.965,1187.589c2.6-1.906,5.01-1.454,7.031,1.751.762,1.209,1.164,2.594,1.853,3.836.808,2.192,1.647,4.372,2.254,6.631a2.66,2.66,0,0,1,.339,2.1l-.757-.147c-2.539-2.412-10.306-8.764-11.09-11.712A3.009,3.009,0,0,1,1905.965,1187.589Z" transform="translate(-1897.869 -1115.765)" fill="#f96041"/>
      <path id="Trazado_988959" data-name="Trazado 988959" d="M2436.487,993.508c-.92-.972,0-2.341,1.217-2.965,3.685-1.889,13.064-.2,14.174,2.365a2.2,2.2,0,0,1,.064,1.042,9.361,9.361,0,0,1-1.179,1.084c-2.167,1.62-5.195,1.793-7.788,1.391A11.163,11.163,0,0,1,2436.487,993.508Z" transform="translate(-2383.655 -935.668)" fill="#2d343c"/>
      <path id="Trazado_988960" data-name="Trazado 988960" d="M2569.47,1218.928c4.7,1.646,5.748,8.457-.1,11.086a6.5,6.5,0,0,1-3.725-.111,6.336,6.336,0,0,1-3.288-8.262C2563.6,1218.849,2567.023,1218.07,2569.47,1218.928Z" transform="translate(-2498.783 -1145.188)" fill="#f96041"/>
      <path id="Trazado_988961" data-name="Trazado 988961" d="M2785.918,1041.584c-.833-1.26-.557-3.294-.4-4.75.469-4.318,1.482-9.349,5.134-12.15a3.336,3.336,0,0,1,2.706-.863,3.545,3.545,0,0,1,2.43,1.842,7.886,7.886,0,0,1-1.237,6.967c-1.3,2.044-5.908,7.391-8.112,8.176Z" transform="translate(-2703.372 -966.832)" fill="#f96041"/>
      <path id="Trazado_988962" data-name="Trazado 988962" d="M2112.527,1320.169c.715,4.906-5.266,8.413-9.224,5.946a5.94,5.94,0,0,1-1.964-8.4C2104,1313.978,2111.734,1314.732,2112.527,1320.169Z" transform="translate(-2076.249 -1233.807)" fill="#f96041"/>
    </g>
    <g id="Grupo_1176511" data-name="Grupo 1176511" transform="translate(841.649 526.984)">
      <path id="Trazado_988963" data-name="Trazado 988963" d="M1872.729,2742.661v.009c-5.653,17.019-20.919,23.924-38.727,26.729-31.676,4.991-44.819-15.182-48.684-23.075v-.009a46.735,46.735,0,0,1-1.937-4.643c-6.1-16.082-5.719-32.649,6.147-45.287,4.413-4.721,8.586-9.114,8.586-9.114l-.315-23.081,46.378-2.366,1.051,20.606c.284.219,20.914,4.848,27.722,24.705a39.915,39.915,0,0,1,2.01,10.021C1875.021,2717.994,1875.42,2734.585,1872.729,2742.661Z" transform="translate(-1779.491 -2643.424)" fill="#f96041"/>
      <path id="Trazado_988964" data-name="Trazado 988964" d="M1908.857,3076.782a56.713,56.713,0,0,1-90.144-.773,37.122,37.122,0,0,1,6.722-9.976c15.706,17.2,46.838,22.314,77.119-.437A35.082,35.082,0,0,1,1908.857,3076.782Z" transform="translate(-1815.398 -3013.071)" fill="#2f84d1"/>
      <ellipse id="Elipse_13539" data-name="Elipse 13539" cx="6.538" cy="5.308" rx="6.538" ry="5.308" transform="matrix(0.67, -0.742, 0.742, 0.67, 8.358, 68.206)" fill="#fefefe"/>
      <ellipse id="Elipse_13540" data-name="Elipse 13540" cx="3.632" cy="2.949" rx="3.632" ry="2.949" transform="matrix(0.67, -0.742, 0.742, 0.67, 12.057, 67.631)" fill="#f96041"/>
      <ellipse id="Elipse_13541" data-name="Elipse 13541" cx="8.012" cy="6.505" rx="8.012" ry="6.505" transform="translate(30.02 82.447) rotate(-79.944)" fill="#fefefe"/>
      <ellipse id="Elipse_13542" data-name="Elipse 13542" cx="4.451" cy="3.613" rx="4.451" ry="3.613" transform="translate(33.488 79.446) rotate(-79.944)" fill="#f96041"/>
      <ellipse id="Elipse_13543" data-name="Elipse 13543" cx="6.831" cy="8.414" rx="6.831" ry="8.414" transform="translate(50.99 69.413) rotate(-20.176)" fill="#fefefe"/>
      <ellipse id="Elipse_13544" data-name="Elipse 13544" cx="3.795" cy="4.674" rx="3.795" ry="4.674" transform="translate(55.13 71.875) rotate(-20.176)" fill="#f96041"/>
      <ellipse id="Elipse_13545" data-name="Elipse 13545" cx="6.066" cy="7.472" rx="6.066" ry="7.472" transform="translate(69.781 64.198) rotate(-33.911)" fill="#fefefe"/>
      <ellipse id="Elipse_13546" data-name="Elipse 13546" cx="3.37" cy="4.151" rx="3.37" ry="4.151" transform="translate(73.871 65.451) rotate(-33.911)" fill="#f96041"/>
      <path id="Trazado_988965" data-name="Trazado 988965" d="M1880.779,3276.193c-7.574,8.231-18.515,13.172-29.476,15.984-29.26,7.532-55.449-3.673-65.632-20.08.126-.8.288-1.575.468-2.338,5.625,9.749,15.9,16.184,26.9,19.427,25.94,7.657,54.719-1.546,67.578-15.474C1880.678,3274.55,1880.737,3275.379,1880.779,3276.193Z" transform="translate(-1785.149 -3199.98)" fill="#fefefe"/>
      <path id="Trazado_988966" data-name="Trazado 988966" d="M1914.861,3607.609a36.576,36.576,0,0,1-1.639,4.116c-13.467,11.526-39.671,19.247-64.018,12.066a52.992,52.992,0,0,1-21.754-12.529v-.009a46.823,46.823,0,0,1-1.937-4.643c5.885,7.106,14.477,11.962,23.563,14.645C1874.045,3628.621,1901.572,3620.315,1914.861,3607.609Z" transform="translate(-1821.622 -3508.363)" fill="#fefefe"/>
      <circle id="Elipse_13547" data-name="Elipse 13547" cx="5.416" cy="5.416" r="5.416" transform="translate(78.919 95.943) rotate(-45)" fill="#fefefe"/>
      <circle id="Elipse_13548" data-name="Elipse 13548" cx="4.146" cy="4.146" r="4.146" transform="translate(80.715 95.943) rotate(-45)" fill="#f96041"/>
      <circle id="Elipse_13549" data-name="Elipse 13549" cx="5.416" cy="5.416" r="5.416" transform="translate(61.307 102.974) rotate(-45)" fill="#fefefe"/>
      <circle id="Elipse_13550" data-name="Elipse 13550" cx="4.146" cy="4.146" r="4.146" transform="translate(63.104 102.974) rotate(-45)" fill="#f96041"/>
      <circle id="Elipse_13551" data-name="Elipse 13551" cx="5.416" cy="5.416" r="5.416" transform="matrix(0.106, -0.994, 0.994, 0.106, 37.36, 110.272)" fill="#fefefe"/>
      <circle id="Elipse_13552" data-name="Elipse 13552" cx="4.146" cy="4.146" r="4.146" transform="translate(37.474 105.464) rotate(-45)" fill="#f96041"/>
      <circle id="Elipse_13553" data-name="Elipse 13553" cx="5.416" cy="5.416" r="5.416" transform="translate(15.657 95.506) rotate(-3.813)" fill="#fefefe"/>
      <circle id="Elipse_13554" data-name="Elipse 13554" cx="4.146" cy="4.146" r="4.146" transform="translate(15.562 100.539) rotate(-45)" fill="#f96041"/>
      <ellipse id="Elipse_13555" data-name="Elipse 13555" cx="26.391" cy="12.816" rx="26.391" ry="12.816" transform="matrix(0.999, -0.051, 0.051, 0.999, 14.593, 2.692)" fill="#a73c32"/>
      <path id="Trazado_988967" data-name="Trazado 988967" d="M2057.217,2510.288a4.438,4.438,0,0,1-.71,2.569c-2.409,3.979-10.658,7.223-20.624,7.731s-18.5-1.878-21.3-5.592a4.439,4.439,0,0,1-.968-2.483c-.259-5.071,9.288-9.677,21.335-10.292S2056.958,2505.217,2057.217,2510.288Z" transform="translate(-1993.819 -2497.248)" fill="#f96041"/>
      <path id="Trazado_988968" data-name="Trazado 988968" d="M2067.046,2567.5c-2.409,3.979-10.658,7.223-20.624,7.731s-18.5-1.878-21.3-5.592c2.391-3.979,10.649-7.222,20.624-7.731S2064.262,2563.785,2067.046,2567.5Z" transform="translate(-2004.359 -2551.89)" fill="#2d343c"/>
    </g>
    <path id="Trazado_988969" data-name="Trazado 988969" d="M2793.352,3412.649a6.644,6.644,0,0,1-2.582,4.832c-12.572,11.3-58.416,11.3-70.992,0a6.644,6.644,0,0,1-2.583-4.832c0-7.353,17.052-13.323,38.078-13.323S2793.352,3405.3,2793.352,3412.649Z" transform="translate(-1796.296 -2791.613)" fill="#cce4fe"/>
    <path id="Trazado_988970" data-name="Trazado 988970" d="M2825.718,3433.984a4.777,4.777,0,0,1-1.444,3.23,8.067,8.067,0,0,1-.919.884c-11.492,9.637-53.366,9.627-64.847,0a5.648,5.648,0,0,1-2.363-4.114c0-6.268,15.582-11.354,34.787-11.354S2825.718,3427.717,2825.718,3433.984Z" transform="translate(-1831.954 -2812.948)" fill="#75b5dc"/>
    <path id="Trazado_988971" data-name="Trazado 988971" d="M2839.919,3520.631c-9.55,10.817-57.185,10.761-66.685,0C2787.689,3511.462,2825.437,3511.445,2839.919,3520.631Z" transform="translate(-1847.599 -2896.364)" fill="#2d343c"/>
    <path id="Trazado_988972" data-name="Trazado 988972" d="M2740.018,3696.136c-2.9-1.194-4.758-3.843-4.895-4.985a1.169,1.169,0,0,1,1.652-1.294,3.265,3.265,0,0,1,1.1.755,14.213,14.213,0,0,1,3.183,4.459,22.852,22.852,0,0,1-.181-5.02,3.861,3.861,0,0,1,.334-1.668,1.48,1.48,0,0,1,1.372-.854c2.148.218,1.39,4.956.615,6.972,4.065-7.022,7.8-4.67,6.688-2.026-.687,1.628-4.026,3.558-5.627,4.319,1.782.054,5.084.516,6.317,1.792,1.486,1.54.148,3.966-3,2.67a9.205,9.205,0,0,1-4.038-3.257c1.379,2.286,2.4,3.464,2.464,4.642a1.9,1.9,0,0,1-3.115,1.679c-1.035-1-1.1-4.609-.992-6.045-.124,1.84-1.018,4.487-2.216,5.4a1.55,1.55,0,0,1-2.547-1.41c.047-1.489,1.785-3.363,2.925-4.3a10.8,10.8,0,0,1-5.938,1.713c-1.9-.343-1.992-2.882.753-3.6A14.515,14.515,0,0,1,2740.018,3696.136Z" transform="translate(-1810.533 -3055.455)" fill="#75b5dc"/>
    <path id="Trazado_988973" data-name="Trazado 988973" d="M3017.355,3915.266c-2.9-1.194-4.758-3.843-4.895-4.985a1.169,1.169,0,0,1,1.652-1.294,3.263,3.263,0,0,1,1.1.756,14.215,14.215,0,0,1,3.183,4.459,22.807,22.807,0,0,1-.182-5.02,3.864,3.864,0,0,1,.334-1.668,1.481,1.481,0,0,1,1.372-.854c2.148.219,1.39,4.956.615,6.972,4.065-7.021,7.8-4.67,6.688-2.026-.687,1.628-4.026,3.558-5.627,4.319,1.782.054,5.085.516,6.317,1.792,1.486,1.54.148,3.966-3,2.67a9.205,9.205,0,0,1-4.037-3.257c1.379,2.285,2.4,3.465,2.464,4.642a1.9,1.9,0,0,1-3.115,1.679c-1.035-1-1.1-4.609-.992-6.046-.124,1.841-1.018,4.487-2.216,5.4a1.551,1.551,0,0,1-2.547-1.41c.047-1.489,1.786-3.363,2.925-4.3a10.8,10.8,0,0,1-5.938,1.713c-1.915-.345-1.995-2.882.753-3.6A14.553,14.553,0,0,1,3017.355,3915.266Z" transform="translate(-2064.426 -3256.065)" fill="#75b5dc"/>
    <path id="Trazado_988974" data-name="Trazado 988974" d="M3288.429,3733.023c-2.9-1.194-4.758-3.843-4.895-4.984a1.169,1.169,0,0,1,1.652-1.294,3.265,3.265,0,0,1,1.1.755,14.213,14.213,0,0,1,3.183,4.459,22.805,22.805,0,0,1-.182-5.02,3.865,3.865,0,0,1,.334-1.668,1.317,1.317,0,0,1,2.458-.022c.64,1.274.226,4.329-.471,6.14,4.065-7.022,7.8-4.67,6.688-2.026-.687,1.628-4.025,3.558-5.626,4.319,1.782.054,5.084.516,6.317,1.792,1.489,1.544.147,3.966-3,2.67a9.2,9.2,0,0,1-4.038-3.257c1.379,2.286,2.4,3.464,2.464,4.642a1.9,1.9,0,0,1-3.115,1.678c-1.035-1-1.1-4.609-.992-6.045-.144,2.146-1.518,6.255-3.6,5.747a1.728,1.728,0,0,1-1.161-1.759c.047-1.489,1.786-3.363,2.925-4.3a10.8,10.8,0,0,1-5.938,1.713c-1.9-.343-1.992-2.882.753-3.6A14.521,14.521,0,0,1,3288.429,3733.023Z" transform="translate(-2312.596 -3089.228)" fill="#75b5dc"/>
    <g id="Grupo_1176512" data-name="Grupo 1176512" transform="translate(812.328 616.099)">
      <ellipse id="Elipse_13556" data-name="Elipse 13556" cx="38.293" cy="14.917" rx="38.293" ry="14.917" transform="translate(2.14 45.906)" fill="#2d343c"/>
      <path id="Trazado_988975" data-name="Trazado 988975" d="M1515.693,3715a37.925,37.925,0,0,1-16.6,31.382,5.471,5.471,0,0,1,.726,2.678c0,5.822-9.9,10.549-22.129,10.549s-22.129-4.727-22.129-10.549a5.452,5.452,0,0,1,.735-2.7,37.927,37.927,0,0,1-16.579-31.268l-.018-8.053h75.973C1515.677,3707.332,1515.694,3715.526,1515.693,3715Z" transform="translate(-1439.099 -3689.425)" fill="#f96041"/>
      <ellipse id="Elipse_13557" data-name="Elipse 13557" cx="37.987" cy="17.626" rx="37.987" ry="17.626" transform="translate(0.611)" fill="#f7a434"/>
      <path id="Trazado_988976" data-name="Trazado 988976" d="M1509.758,3763.034c0,9.734-17.28,17.63-38.6,17.63s-38.595-7.9-38.595-17.63a7.443,7.443,0,0,1,.079-1.085c1.226,9.227,18.006,16.536,38.516,16.536s37.3-7.31,38.525-16.536A7.559,7.559,0,0,1,1509.758,3763.034Z" transform="translate(-1432.56 -3739.688)" fill="#fefefe"/>
      <ellipse id="Elipse_13558" data-name="Elipse 13558" cx="33.109" cy="13.886" rx="33.109" ry="13.886" transform="translate(5.489 3.739)" fill="#a73c32"/>
      <ellipse id="Elipse_13559" data-name="Elipse 13559" cx="4.576" cy="5.102" rx="4.576" ry="5.102" transform="translate(34.498 42.755)" fill="#fefefe"/>
      <ellipse id="Elipse_13560" data-name="Elipse 13560" cx="2.76" cy="3.077" rx="2.76" ry="3.077" transform="translate(36.314 44.779)" fill="#f96041"/>
      <ellipse id="Elipse_13561" data-name="Elipse 13561" cx="4.576" cy="5.102" rx="4.576" ry="5.102" transform="translate(55.706 40.994) rotate(-10.731)" fill="#fefefe"/>
      <ellipse id="Elipse_13562" data-name="Elipse 13562" cx="2.76" cy="3.077" rx="2.76" ry="3.077" transform="translate(57.897 42.63) rotate(-10.737)" fill="#f96041"/>
      <ellipse id="Elipse_13563" data-name="Elipse 13563" cx="5.102" cy="4.576" rx="5.102" ry="4.576" transform="matrix(0.228, -0.974, 0.974, 0.228, 11.744, 49.069)" fill="#fefefe"/>
      <ellipse id="Elipse_13564" data-name="Elipse 13564" cx="3.077" cy="2.76" rx="3.077" ry="2.76" transform="matrix(0.228, -0.974, 0.974, 0.228, 13.973, 47.512)" fill="#f96041"/>
    </g>
    <g id="Grupo_1176513" data-name="Grupo 1176513" transform="translate(891.415 547.05)">
      <path id="Trazado_988977" data-name="Trazado 988977" d="M2480.567,2728.793c-11.888,22.427-40.775,7.9-58.054-3.694-5.847-3.931-10.364-7.511-12.439-9.218a31.72,31.72,0,0,0-20.772,3.143,14.969,14.969,0,0,1-4.114,1.812,3.878,3.878,0,0,1-4.009-1.392c-1.033-1.637-.105-3.773.84-5.462a3.761,3.761,0,1,1-5.927-4.631,2.55,2.55,0,0,0,1.243-1.068,3.407,3.407,0,0,0-1.243,1.068,3.475,3.475,0,0,1-3.589-.578,4.686,4.686,0,0,1-.893-5.138c.709-1.716,2.451-2.9,4.062-3.817-2.188.56-4.849,1-6.408-.639a4.286,4.286,0,0,1-.35-4.823,11.089,11.089,0,0,1,3.589-3.65,63.148,63.148,0,0,1,13.157-7.248c16.952-6.889,18.567,6.538,28.353,13.481,17.192-2.547,21.893-5.681,23.075-6.828a1.993,1.993,0,0,0,.376-.446S2498.047,2695.811,2480.567,2728.793Z" transform="translate(-2368.342 -2681.547)" fill="#fdad95"/>
      <path id="Trazado_988978" data-name="Trazado 988978" d="M3067.352,2816.729c-11.887,22.427-40.774,7.9-58.054-3.694a99.893,99.893,0,0,0,36.87,5.156,16.951,16.951,0,0,0,5.384-.9,6.5,6.5,0,0,0,3.86-3.642c1.094-3.107-1.094-6.337-3.221-8.85a176.246,176.246,0,0,0-28.318-26.751,1.993,1.993,0,0,0,.376-.446S3084.832,2783.747,3067.352,2816.729Z" transform="translate(-2955.128 -2769.483)" fill="#f96041"/>
      <path id="Trazado_988979" data-name="Trazado 988979" d="M2468.179,2805.395c1.155-.376,1.467.525.407,1.124-10.869,6.146-10.812,6.232-11.614,6.271-.537.026-1.205-.231-1.091-.841.09-.481,1.008-.918,1.371-1.167q1.7-1.167,3.514-2.167A42.781,42.781,0,0,1,2468.179,2805.395Z" transform="translate(-2448.471 -2794.846)" fill="#f96041"/>
      <path id="Trazado_988980" data-name="Trazado 988980" d="M2479.7,2923.1c1.156-.376,1.467.524.408,1.124-10.869,6.146-10.812,6.232-11.614,6.271-.537.026-1.205-.23-1.091-.841.089-.48,1.008-.917,1.371-1.167q1.7-1.167,3.514-2.167A42.842,42.842,0,0,1,2479.7,2923.1Z" transform="translate(-2459.018 -2902.608)" fill="#f96041"/>
      <path id="Trazado_988981" data-name="Trazado 988981" d="M2532.957,2998.826a.679.679,0,0,1,.009.691c-.519,1-2.118,1.529-3.048,2.055-4.114,2.326-4.489,2.615-5.209,2.649-.537.026-1.205-.231-1.091-.841.09-.481,1.008-.918,1.371-1.167a23.642,23.642,0,0,1,6.93-3.537c.349-.1.786-.156,1.017.123Z" transform="translate(-2510.483 -2971.801)" fill="#f96041"/>
    </g>
    <g id="Grupo_1176514" data-name="Grupo 1176514" transform="translate(774.59 503.881)">
      <path id="Trazado_988982" data-name="Trazado 988982" d="M1628.816,2219.554a3.9,3.9,0,0,0-.832.227,4.848,4.848,0,0,0-3.248,1.725l-30.266-47.366a2.2,2.2,0,0,1,.547-2.955h0a2.2,2.2,0,0,1,3.159.583Z" transform="translate(-1542.732 -2170.755)" fill="#fbd401"/>
      <path id="Trazado_988983" data-name="Trazado 988983" d="M1071.534,2421.409a11.107,11.107,0,0,1-3,2.889c-2.495,1.8-8.15,1.436-8.036,4.517a20.012,20.012,0,0,1-.954,5.55c-3.256,11.423-15.127,33.833-40.118,41.308-30.314,9.051-32.975-8.22-32.975-8.22a21.712,21.712,0,0,1-.385-3.51c-.509-12.714,6.343-24.644,19.827-30.279a149.526,149.526,0,0,1,29.815-9s-4.709-16.509,9.113-23.469c2.924-1.47,24.791-10.959,24.519-2.171a4.106,4.106,0,0,1-2.066,3.388,3.216,3.216,0,0,1,1.392,6.093,3.891,3.891,0,0,1,2.425,3.476,3.934,3.934,0,0,1-2.285,3.571,2.91,2.91,0,0,1,3.326,1.856A4.58,4.58,0,0,1,1071.534,2421.409Z" transform="translate(-986.037 -2376.357)" fill="#fdad95"/>
      <path id="Trazado_988984" data-name="Trazado 988984" d="M1737.589,2539.974c1.732-.25,1.956,1.128.272,1.662q-8.3,2.63-16.6,5.261c-.7.221-2.155.94-1.93-.32.176-.983,1.583-1.43,2.328-1.783A55.771,55.771,0,0,1,1737.589,2539.974Z" transform="translate(-1657.34 -2508.742)" fill="#e67960"/>
      <path id="Trazado_988985" data-name="Trazado 988985" d="M1714.928,2476.014c1.732-.25,1.956,1.128.272,1.662q-8.3,2.631-16.6,5.261c-.7.221-2.155.94-1.93-.32.176-.983,1.584-1.43,2.328-1.783a55.754,55.754,0,0,1,15.925-4.819Z" transform="translate(-1636.595 -2450.188)" fill="#e67960"/>
      <path id="Trazado_988986" data-name="Trazado 988986" d="M1812.345,2627.054c1.732-.25,1.956,1.128.272,1.662l-7.11,2.253c-1.107.351-4.913,2.321-5.436.352-.425-1.6,2.7-2.012,3.719-2.329A55.7,55.7,0,0,1,1812.345,2627.054Z" transform="translate(-1731.238 -2588.462)" fill="#e67960"/>
      <path id="Trazado_988987" data-name="Trazado 988987" d="M1059.826,2857.1c-3.257,11.423-15.127,33.833-40.118,41.308-30.314,9.051-32.975-8.22-32.975-8.22a21.709,21.709,0,0,1-.385-3.51c2.4,3.983,6.985,6.591,11.66,7.309,5.629.875,11.371-.534,16.737-2.434A93.18,93.18,0,0,0,1059.826,2857.1Z" transform="translate(-986.322 -2799.094)" fill="#e67960"/>
    </g>
    <path id="Trazado_988988" data-name="Trazado 988988" d="M1956.042,2760.942a12.964,12.964,0,0,1-13.367-1.392c-3.429-2.665-5.06-7.248-2.206-10.469a4.848,4.848,0,0,1,3.248-1.725c2.531-.981,5.522.181,6.714,4.858a33.682,33.682,0,0,0,1.4,5.453C1952.6,2759.393,1954.161,2760.942,1956.042,2760.942Z" transform="translate(-1083.875 -2194.449)" fill="#2d343c"/>
  </g>
</svg>
