<svg xmlns="http://www.w3.org/2000/svg" width="100" height="100" viewBox="0 0 100 100">
  <g id="Grupo_1176899" data-name="Grupo 1176899" transform="translate(-637 -6992)">
    <g id="Grupo_1098742" data-name="Grupo 1098742" transform="translate(637.242 6992)">
      <rect id="Rectángulo_400898" data-name="Rectángulo 400898" width="100" height="100" rx="50" transform="translate(-0.242)" fill="#fff" opacity="0.859"/>
      <g id="Rectángulo_400907" data-name="Rectángulo 400907" transform="translate(-0.242)" fill="none" stroke="#ffd600" stroke-linecap="round" stroke-width="3" stroke-dasharray="0 7">
        <rect width="100" height="100" rx="50" stroke="none"/>
        <rect x="1.5" y="1.5" width="97" height="97" rx="48.5" fill="none"/>
      </g>
    </g>
    <g id="Grupo_1107006" data-name="Grupo 1107006" transform="translate(645.398 7000.157)">
      <rect id="Rectángulo_400898-2" data-name="Rectángulo 400898" width="84" height="84" rx="42" transform="translate(-0.399 -0.157)" fill="#405425" opacity="0.859"/>
      <rect id="Rectángulo_400907-2" data-name="Rectángulo 400907" width="84" height="84" rx="42" transform="translate(-0.398 -0.157)" fill="none"/>
    </g>
    <g id="Grupo_1177866" data-name="Grupo 1177866" transform="translate(657.667 7001.043)">
      <g id="Grupo_1177864" data-name="Grupo 1177864" transform="translate(0.859 13.989)">
        <g id="Grupo_1177862" data-name="Grupo 1177862" transform="translate(19.329 17.756)">
          <path id="Trazado_995792" data-name="Trazado 995792" d="M203.408,183.636l1.437.53h7.55l1.722-.984-.587-2.649-2.554-1.949-2.744-.511-1.379.3A6.03,6.03,0,0,0,203.408,183.636Z" transform="translate(-200.29 -177.79)" fill="#ffe270"/>
          <path id="Trazado_995793" data-name="Trazado 995793" d="M209.736,175.613a6.018,6.018,0,0,0-2.92.57c.121-.008.243-.013.366-.013a5.747,5.747,0,0,1,5.3,3.523,1.263,1.263,0,0,1-1.161,1.755h-7.949c0,.062,0,.123,0,.185a6.031,6.031,0,1,0,6.37-6.022Z" transform="translate(-200.253 -175.604)" fill="#ffd250"/>
          <path id="Trazado_995794" data-name="Trazado 995794" d="M192.611,256.516H178.067a1.872,1.872,0,0,1-1.872-1.872V242.893h18.289v11.751a1.872,1.872,0,0,1-1.872,1.872Z" transform="translate(-176.195 -235.183)" fill="#ffab56"/>
          <path id="Trazado_995795" data-name="Trazado 995795" d="M288.695,242.893v11.751a1.872,1.872,0,0,1-1.873,1.872h3.74a1.872,1.872,0,0,0,1.872-1.872V242.893Z" transform="translate(-274.146 -235.183)" fill="#ff982a"/>
        </g>
        <path id="Trazado_995796" data-name="Trazado 995796" d="M208.944,32.842l1.43.222,2.717-.554,2.159-1.716.416-2.58L214.985,25l-1.335-2.041-1.915-.9h-1.62a5.762,5.762,0,0,0-1.17,10.776Z" transform="translate(-183.001 -21.903)" fill="#a2dbff"/>
        <path id="Trazado_995797" data-name="Trazado 995797" d="M236.446,20.643a5.775,5.775,0,0,0-1.361.163,5.471,5.471,0,0,1-1.17,10.776,5.762,5.762,0,1,0,2.531-10.939Z" transform="translate(-207.972 -20.643)" fill="#64caff"/>
        <path id="Trazado_995798" data-name="Trazado 995798" d="M10.732,338.169l1.43.222,2.717-.554,2.159-1.716.416-2.58-.68-3.212-1.335-2.041-1.915-.9H11.9a5.762,5.762,0,0,0-1.17,10.776Z" transform="translate(-7.5 -292.245)" fill="#ff7383"/>
        <path id="Trazado_995799" data-name="Trazado 995799" d="M38.234,325.97a5.776,5.776,0,0,0-1.361.163,5.471,5.471,0,0,1-1.17,10.776,5.762,5.762,0,1,0,2.531-10.939Z" transform="translate(-32.471 -290.985)" fill="#ff546a"/>
        <path id="Trazado_995800" data-name="Trazado 995800" d="M371.955,339.583l.128-.086.378-.19.839-.393-.013-1.552L374.4,335.8l1.159-2.384-1.047-1.892-.492-2.195-.859-1.518-1.045-.8-.159-.1-1.467-.607a.689.689,0,0,1-.345-.313l-.339-.638a.69.69,0,0,0-.609-.366H367.97a.69.69,0,0,0-.609.366l-.339.638a.69.69,0,0,1-.345.313l-1.656.686a.689.689,0,0,1-.466.022l-.691-.211a.69.69,0,0,0-.689.172l-.866.866a.69.69,0,0,0-.172.689l.211.691a.689.689,0,0,1-.022.466l-.686,1.656a.69.69,0,0,1-.313.345l-.638.339a.69.69,0,0,0-.366.609v1.225a.69.69,0,0,0,.366.609l.638.339a.69.69,0,0,1,.313.345l.686,1.656a.69.69,0,0,1,.022.466l-.211.691a.69.69,0,0,0,.172.689l.866.866a.69.69,0,0,0,.689.172l.691-.211a.69.69,0,0,1,.466.022l1.656.686a.69.69,0,0,1,.345.313l.339.638a.69.69,0,0,0,.609.366h1.225a.69.69,0,0,0,.609-.366l.339-.638a.691.691,0,0,1,.345-.313Zm-1.028-3.991a3.316,3.316,0,1,1,0-4.69A3.316,3.316,0,0,1,370.927,335.592Z" transform="translate(-319.895 -290.115)" fill="#6c5e69"/>
        <g id="Grupo_1177863" data-name="Grupo 1177863" transform="translate(52.06 36.657)">
          <path id="Trazado_995801" data-name="Trazado 995801" d="M466.366,345.812l-.638-.339a.691.691,0,0,1-.313-.345l-.686-1.656a.689.689,0,0,1-.022-.466l.211-.691a.69.69,0,0,0-.172-.689l-.866-.866a.69.69,0,0,0-.689-.172l-.691.211a.69.69,0,0,1-.466-.022l-.189-.078.573.607a.761.761,0,0,1,.172.73l-.211.732a.771.771,0,0,0,.022.493l.686,1.754a.718.718,0,0,0,.313.366l.638.359a.738.738,0,0,1,.366.645v1.3a.738.738,0,0,1-.366.645l-.638.359a.718.718,0,0,0-.313.366l-.686,1.755a.772.772,0,0,0-.022.493l.211.732a.762.762,0,0,1-.172.73l-.573.607.189-.078a.69.69,0,0,1,.466-.022l.691.211a.69.69,0,0,0,.689-.172l.866-.866a.69.69,0,0,0,.172-.689l-.211-.691a.69.69,0,0,1,.022-.466l.686-1.656a.69.69,0,0,1,.313-.345l.638-.339a.69.69,0,0,0,.366-.609v-1.225A.69.69,0,0,0,466.366,345.812Z" transform="translate(-461.844 -340.558)" fill="#574d56"/>
        </g>
      </g>
      <g id="Grupo_1177865" data-name="Grupo 1177865" transform="translate(0 13.128)">
        <path id="Trazado_995802" data-name="Trazado 995802" d="M150.659,171.644a.859.859,0,0,0-1.218-1.213l-5.366,5.386h-1.946a6.89,6.89,0,1,0-13.682,0H126.5l-5.366-5.386a.859.859,0,0,0-1.218,1.213l5.367,5.387v4.217a.859.859,0,1,0,1.719,0v-3.713h16.57v10.892a1.014,1.014,0,0,1-1.013,1.013H128.016A1.014,1.014,0,0,1,127,188.426v-3.855a.859.859,0,1,0-1.719,0v3.855a2.735,2.735,0,0,0,2.732,2.732H142.56a2.735,2.735,0,0,0,2.732-2.732v-11.4Zm-20.477,4.172a5.172,5.172,0,1,1,10.212,0Z" transform="translate(-105.955 -150.348)"/>
        <path id="Trazado_995803" data-name="Trazado 995803" d="M231.578,320.17a.859.859,0,1,0,0-1.719h-5.286a.859.859,0,1,0,0,1.719Z" transform="translate(-199.601 -283.466)"/>
        <path id="Trazado_995804" data-name="Trazado 995804" d="M10.714,319.873a6.62,6.62,0,1,0,2.529,5.2A6.586,6.586,0,0,0,10.714,319.873ZM6.621,329.98a4.9,4.9,0,1,1,4.9-4.9,4.908,4.908,0,0,1-4.9,4.9Z" transform="translate(0 -283.469)"/>
        <path id="Trazado_995805" data-name="Trazado 995805" d="M249.359,37.332a.859.859,0,0,0-.859.859v2.99a.859.859,0,0,0,.859.859h1.616a.859.859,0,0,0,0-1.719h-.756V38.191A.859.859,0,0,0,249.359,37.332Z" transform="translate(-220.026 -34.559)"/>
        <path id="Trazado_995806" data-name="Trazado 995806" d="M356.6,100.541l1.388.225a10.7,10.7,0,0,1,8.776,8.169,20.4,20.4,0,0,1,.506,4.43l-2.508-2.2a.859.859,0,1,0-1.134,1.292l4.023,3.532a.86.86,0,0,0,1.224-.091l3.263-3.866a.859.859,0,0,0-1.313-1.109l-1.838,2.178a22.037,22.037,0,0,0-.546-4.549,12.327,12.327,0,0,0-3.642-6.29,12.5,12.5,0,0,0-6.534-3.19l-1.388-.225a.859.859,0,1,0-.275,1.7Z" transform="translate(-315.098 -89.013)"/>
        <path id="Trazado_995807" data-name="Trazado 995807" d="M154.119,431.494l-.986,1a10.7,10.7,0,0,1-11.739,2.435,20.4,20.4,0,0,1-3.906-2.149l3.247-.773a.859.859,0,1,0-.4-1.672l-5.208,1.239a.859.859,0,0,0-.633,1.051l1.267,4.9a.859.859,0,1,0,1.664-.43l-.714-2.759a22.045,22.045,0,0,0,4.027,2.185,12.3,12.3,0,0,0,4.692.93,12.53,12.53,0,0,0,8.927-3.749l.986-1a.859.859,0,1,0-1.226-1.2Z" transform="translate(-119.061 -382.511)"/>
        <path id="Trazado_995808" data-name="Trazado 995808" d="M40.282,85.763l2.125-4.914a.859.859,0,0,0-.463-1.136L37.263,77.8a.859.859,0,1,0-.651,1.591l2.638,1.08a22.04,22.04,0,0,0-4.161,1.918,12.328,12.328,0,0,0-4.866,5.4,12.5,12.5,0,0,0-1.028,7.2l.213,1.39a.859.859,0,1,0,1.7-.26l-.213-1.39A10.7,10.7,0,0,1,35.969,83.86a20.4,20.4,0,0,1,4.06-1.842L38.7,85.081a.859.859,0,1,0,1.577.682Z" transform="translate(-25.72 -70.329)"/>
        <path id="Trazado_995809" data-name="Trazado 995809" d="M41.253,355.376a.86.86,0,0,0-1.215,0l-.953.953-.953-.953a.859.859,0,1,0-1.215,1.215l.953.953-.953.953a.859.859,0,0,0,1.215,1.215l.953-.953.953.953a.859.859,0,0,0,1.215-1.215l-.953-.953.953-.953A.86.86,0,0,0,41.253,355.376Z" transform="translate(-32.463 -315.937)"/>
        <path id="Trazado_995810" data-name="Trazado 995810" d="M403.566,365a.859.859,0,0,0-1.07.576,2.457,2.457,0,1,1-4.09-2.446,2.466,2.466,0,0,1,3.331-.131.859.859,0,0,0,1.117-1.306,4.193,4.193,0,0,0-5.664.222,4.176,4.176,0,1,0,6.952,4.155.859.859,0,0,0-.576-1.07Z" transform="translate(-350.596 -320.87)"/>
        <path id="Trazado_995811" data-name="Trazado 995811" d="M370.235,324.626l-.584-.311-.639-1.544.193-.633a1.547,1.547,0,0,0-.386-1.548l-.866-.866a1.546,1.546,0,0,0-1.548-.386l-.633.193-1.544-.639-.311-.584a1.546,1.546,0,0,0-1.368-.822h-1.225a1.546,1.546,0,0,0-1.368.822l-.311.584-1.544.639-.633-.193a1.547,1.547,0,0,0-1.548.386l-.866.866a1.547,1.547,0,0,0-.386,1.548l.193.633-.639,1.544-.584.311a1.546,1.546,0,0,0-.822,1.368v1.225a1.546,1.546,0,0,0,.822,1.368l.584.311.639,1.544-.193.633a1.546,1.546,0,0,0,.386,1.548l.866.866a1.547,1.547,0,0,0,1.548.386l.633-.193,1.544.639.311.584a1.546,1.546,0,0,0,1.368.822h1.225a1.546,1.546,0,0,0,1.368-.822l.311-.584,1.544-.639.633.193a1.546,1.546,0,0,0,1.548-.386l.866-.866a1.547,1.547,0,0,0,.386-1.548l-.193-.633.639-1.544.584-.311a1.546,1.546,0,0,0,.822-1.368v-1.225A1.546,1.546,0,0,0,370.235,324.626Zm-.9,2.491-.548.292a1.553,1.553,0,0,0-.7.775l-.686,1.657a1.554,1.554,0,0,0-.05,1.045l.181.593-.722.722-.594-.181a1.554,1.554,0,0,0-1.045.05l-1.656.686a1.553,1.553,0,0,0-.775.7l-.292.548h-1.021l-.292-.548a1.553,1.553,0,0,0-.775-.7l-1.657-.686a1.554,1.554,0,0,0-1.045-.05l-.593.181-.722-.722.181-.594a1.553,1.553,0,0,0-.05-1.046l-.686-1.657a1.553,1.553,0,0,0-.7-.774l-.548-.291v-1.021l.548-.292a1.553,1.553,0,0,0,.7-.775l.686-1.656a1.553,1.553,0,0,0,.05-1.045l-.181-.593.722-.722.594.181a1.553,1.553,0,0,0,1.046-.05l1.657-.686a1.553,1.553,0,0,0,.774-.7l.292-.548h1.021l.291.548a1.553,1.553,0,0,0,.775.7l1.656.686a1.553,1.553,0,0,0,1.045.05l.593-.181.722.722-.181.594a1.553,1.553,0,0,0,.05,1.045l.686,1.656a1.553,1.553,0,0,0,.7.775l.548.292Zm.09-.974h0Z" transform="translate(-312.39 -282.612)"/>
        <path id="Trazado_995812" data-name="Trazado 995812" d="M200.211,24.47a6.621,6.621,0,1,0-.938-8.28.859.859,0,0,0,1.448.926,4.9,4.9,0,1,1-.767,2.721.859.859,0,0,0-1.719.03,6.584,6.584,0,0,0,1.976,4.6Z" transform="translate(-175.521 -13.128)"/>
      </g>
    </g>
  </g>
</svg>
