<svg xmlns="http://www.w3.org/2000/svg" width="100" height="100" viewBox="0 0 100 100">
  <g id="Grupo_1176935" data-name="Grupo 1176935" transform="translate(-637 -6992)">
    <g id="Grupo_1098742" data-name="Grupo 1098742" transform="translate(637.242 6992)">
      <rect id="Rectángulo_400898" data-name="Rectángulo 400898" width="100" height="100" rx="50" transform="translate(-0.242)" fill="#fff" opacity="0.859"/>
      <g id="Rectángulo_400907" data-name="Rectángulo 400907" transform="translate(-0.242)" fill="none" stroke="#c8bf57" stroke-linecap="round" stroke-width="3" stroke-dasharray="0 7">
        <rect width="100" height="100" rx="50" stroke="none"/>
        <rect x="1.5" y="1.5" width="97" height="97" rx="48.5" fill="none"/>
      </g>
    </g>
    <g id="Grupo_1107006" data-name="Grupo 1107006" transform="translate(645.398 7000.157)">
      <rect id="Rectángulo_400898-2" data-name="Rectángulo 400898" width="84" height="84" rx="42" transform="translate(-0.399 -0.157)" fill="#405425"/>
      <rect id="Rectángulo_400907-2" data-name="Rectángulo 400907" width="84" height="84" rx="42" transform="translate(-0.398 -0.157)" fill="none"/>
    </g>
    <g id="Grupo_1177905" data-name="Grupo 1177905" transform="translate(642.694 6997.695)">
      <path id="Trazado_996196" data-name="Trazado 996196" d="M91.4,45.687a21.7,21.7,0,1,1-43.4,0q0-.954.081-1.887A21.7,21.7,0,0,1,91.4,45.687Z" transform="translate(-28.226 -7.042)" fill="#9ce6ed"/>
      <path id="Trazado_996197" data-name="Trazado 996197" d="M246.645,86.541a21.686,21.686,0,0,1-10.31,18.474l-4.786-5.265V92.2h-3.774L224,86.541l3.774-2.831h4.718l2.831-3.774-1.887-4.718,5.9-4.918A21.65,21.65,0,0,1,246.645,86.541Z" transform="translate(-183.468 -47.896)" fill="#02c26a"/>
      <rect id="Rectángulo_455077" data-name="Rectángulo 455077" width="7.753" height="9.385" transform="translate(48.945 61.293)" fill="#4367e0"/>
      <rect id="Rectángulo_455078" data-name="Rectángulo 455078" width="7.345" height="17.138" transform="translate(56.698 53.54)" fill="#4976f2"/>
      <rect id="Rectángulo_455079" data-name="Rectángulo 455079" width="7.753" height="26.523" transform="translate(64.043 44.155)" fill="#548aff"/>
      <path id="Trazado_996198" data-name="Trazado 996198" d="M116.226,25.765l-6.718,6.718v5.661l-5.661,3.774-3.774-3.774H95.355V34.37L90.99,31.751a21.72,21.72,0,0,1,25.236-5.986Z" transform="translate(-66.146 -7.048)" fill="#02c26a"/>
      <path id="Trazado_996199" data-name="Trazado 996199" d="M66.871,200.492,63.1,203.322v11.242A21.71,21.71,0,0,1,48,193.887q0-.954.081-1.887h5.58l2.831,3.774H64.04Z" transform="translate(-28.226 -155.242)" fill="#02c26a"/>
      <path id="Trazado_996200" data-name="Trazado 996200" d="M33.435,257.887c0-1.042-2.112-1.887-4.718-1.887S24,256.845,24,257.887v23.588c0,1.042,2.112,1.887,4.718,1.887s4.718-.845,4.718-1.887Z" transform="translate(-7.056 -211.694)" fill="#ffc431"/>
      <ellipse id="Elipse_13633" data-name="Elipse 13633" cx="4.693" cy="2.04" rx="4.693" ry="2.04" transform="translate(17.117 44.155)" fill="#ffd873"/>
      <path id="Trazado_996201" data-name="Trazado 996201" d="M113.435,337.887c0-1.042-2.112-1.887-4.718-1.887s-4.718.845-4.718,1.887V352.04c0,1.042,2.112,1.887,4.718,1.887s4.718-.845,4.718-1.887Z" transform="translate(-77.621 -282.259)" fill="#ffc431"/>
      <ellipse id="Elipse_13634" data-name="Elipse 13634" cx="4.693" cy="2.04" rx="4.693" ry="2.04" transform="translate(26.502 53.54)" fill="#ffd873"/>
      <path id="Trazado_996202" data-name="Trazado 996202" d="M193.435,377.887c0-1.042-2.112-1.887-4.718-1.887s-4.718.845-4.718,1.887v9.435c0,1.042,2.112,1.887,4.718,1.887s4.718-.845,4.718-1.887Z" transform="translate(-148.186 -317.541)" fill="#ffc431"/>
      <ellipse id="Elipse_13635" data-name="Elipse 13635" cx="4.693" cy="1.836" rx="4.693" ry="1.836" transform="translate(35.887 58.437)" fill="#ffd873"/>
      <path id="Trazado_996203" data-name="Trazado 996203" d="M71.668,248H64.12a.944.944,0,0,0-.944.944v8.492h-6.6a.944.944,0,0,0-.944.944v6.6h-6.6a.944.944,0,0,0-.944.944v8.492H46.193v-9.435c0-.53-.257-1.523-1.975-2.21a11.265,11.265,0,0,0-7.373,0l-.088.037v-2.544c0-.53-.257-1.523-1.975-2.21a10.237,10.237,0,0,0-3.686-.62,10.238,10.238,0,0,0-3.686.62l-.088.037v-7.262c0-.531-.257-1.523-1.975-2.21a10.238,10.238,0,0,0-3.686-.62,10.238,10.238,0,0,0-3.686.62c-1.718.687-1.975,1.68-1.975,2.21v23.588c0,.53.257,1.523,1.975,2.21a10.238,10.238,0,0,0,3.686.62,10.238,10.238,0,0,0,3.686-.62,4.546,4.546,0,0,0,1.031-.559,4.546,4.546,0,0,0,1.031.559,10.238,10.238,0,0,0,3.686.62,10.238,10.238,0,0,0,3.686-.62,4.545,4.545,0,0,0,1.031-.559,4.546,4.546,0,0,0,1.031.559,11.265,11.265,0,0,0,7.373,0,5.128,5.128,0,0,0,.671-.323H71.668a.944.944,0,0,0,.944-.944V248.944A.944.944,0,0,0,71.668,248ZM17.887,267.157l.088.037a10.238,10.238,0,0,0,3.686.62,10.238,10.238,0,0,0,3.686-.62l.088-.037v2.508c-.164.292-1.469.979-3.774.979s-3.61-.687-3.774-.979Zm0-4.718.088.037a10.237,10.237,0,0,0,3.686.62,10.238,10.238,0,0,0,3.686-.62l.088-.037v2.508c-.164.292-1.469.979-3.774.979s-3.61-.687-3.774-.979Zm0-4.718.088.037a10.237,10.237,0,0,0,3.686.62,10.239,10.239,0,0,0,3.686-.62l.088-.037v2.508c-.164.292-1.469.979-3.774.979s-3.61-.687-3.774-.979Zm0-4.718.088.037a10.238,10.238,0,0,0,3.686.62,10.238,10.238,0,0,0,3.686-.62l.088-.037v2.508c-.164.292-1.469.979-3.774.979s-3.61-.687-3.774-.979ZM31.1,265.927c-2.3,0-3.61-.687-3.774-.979V262.44l.088.037a10.237,10.237,0,0,0,3.686.62,10.238,10.238,0,0,0,3.686-.62l.088-.037v2.508C34.707,265.24,33.4,265.927,31.1,265.927Zm-3.774,1.23.088.037a10.238,10.238,0,0,0,3.686.62,10.238,10.238,0,0,0,3.686-.62l.088-.037v2.508c-.164.292-1.469.979-3.774.979s-3.61-.687-3.774-.979Zm9.435,0,.088.037a11.265,11.265,0,0,0,7.373,0l.088-.037v2.508c-.164.292-1.469.979-3.774.979s-3.61-.687-3.774-.979Zm3.774-3.117c2.22,0,3.511.637,3.749.945-.245.309-1.537.942-3.749.942s-3.5-.633-3.749-.942C37.021,264.677,38.312,264.04,40.532,264.04ZM31.1,259.322c2.22,0,3.511.637,3.749.945-.245.309-1.537.942-3.749.942s-3.507-.635-3.75-.944C27.589,259.957,28.881,259.322,31.1,259.322Zm-9.435-9.435c2.22,0,3.511.637,3.749.945-.245.309-1.537.942-3.749.942s-3.5-.633-3.749-.942C18.15,250.524,19.441,249.887,21.661,249.887Zm0,25.475c-2.3,0-3.606-.685-3.774-.978v-2.509l.088.037a10.237,10.237,0,0,0,3.686.62,10.238,10.238,0,0,0,3.686-.62l.088-.037v2.509C25.268,274.677,23.962,275.362,21.661,275.362Zm9.435,0c-2.3,0-3.61-.687-3.774-.979v-2.508l.088.037a10.237,10.237,0,0,0,3.686.62,10.238,10.238,0,0,0,3.686-.62l.088-.037v2.509C34.7,274.677,33.4,275.362,31.1,275.362Zm9.435,0c-2.3,0-3.606-.685-3.774-.978v-2.509l.088.037a11.265,11.265,0,0,0,7.373,0l.088-.037v2.509C44.138,274.677,42.832,275.362,40.532,275.362Zm9.435-8.492h5.661v7.548H49.967Zm7.548-7.548h5.661v15.1H57.515Zm7.548,15.1V249.887h5.661v24.532Z" transform="translate(0 -204.638)"/>
      <rect id="Rectángulo_455080" data-name="Rectángulo 455080" width="2.04" height="2.04" transform="translate(40.376 53.54)"/>
      <path id="Trazado_996204" data-name="Trazado 996204" d="M256,180.758v1.887h4.718a.944.944,0,0,0,.667-.276l19.147-19.147v1.5h1.887v-3.774a.944.944,0,0,0-.944-.944H277.7v1.887h1.5l-18.871,18.871Z" transform="translate(-211.694 -127.017)"/>
      <path id="Trazado_996205" data-name="Trazado 996205" d="M77.992,21.994A22.645,22.645,0,0,0,40,38.645a22.936,22.936,0,0,0,.191,2.952l1.871-.243a21.044,21.044,0,0,1-.175-2.709c0-.316.008-.631.022-.944h4.224l2.548,3.4a.943.943,0,0,0,.755.377h7.014l2.118,3.53-3.093,2.32a.944.944,0,0,0-.377.755V50.91h1.887V48.552L60.38,46a.944.944,0,0,0,.243-1.24l-2.831-4.718a.944.944,0,0,0-.809-.458H49.907l-2.548-3.4a.943.943,0,0,0-.755-.377H42.081a20.659,20.659,0,0,1,4.16-9.874l3.194,1.917V31.1a.944.944,0,0,0,.944.944h4.327l3.5,3.5a.944.944,0,0,0,1.191.118l5.661-3.774a.943.943,0,0,0,.42-.785v-5.27l5.98-5.98A20.71,20.71,0,0,1,75.569,22.4l-5.036,4.2a.943.943,0,0,0-.272,1.075l1.69,4.225L69.721,34.87H65.475a.944.944,0,0,0-.566.189L61.135,37.89a.944.944,0,0,0-.219,1.278l3.774,5.661a.943.943,0,0,0,.785.42h2.831V50.91h1.887v-6.6a.944.944,0,0,0-.944-.944H65.98l-3-4.5,2.809-2.106h4.4a.943.943,0,0,0,.755-.377l2.831-3.774a.943.943,0,0,0,.121-.916l-1.632-4.081,4.74-3.95a20.681,20.681,0,0,1,6.318,13.18l1.88-.162A22.571,22.571,0,0,0,77.992,21.994ZM63.865,24.768a.944.944,0,0,0-.276.667v5.156l-4.6,3.065-3.227-3.227a.944.944,0,0,0-.667-.276H51.322V27.322a.944.944,0,0,0-.458-.809l-3.382-2.029a20.749,20.749,0,0,1,22.08-5.414Z" transform="translate(-21.169 0)"/>
    </g>
  </g>
</svg>
