<svg xmlns="http://www.w3.org/2000/svg" xmlns:xlink="http://www.w3.org/1999/xlink" width="120.24" height="122.868" viewBox="0 0 120.24 122.868">
  <defs>
    <clipPath id="clip-path">
      <path id="Trazado_1010780" data-name="Trazado 1010780" d="M129.707,71.062a22.53,22.53,0,1,1-22.531-22.53A22.531,22.531,0,0,1,129.707,71.062Z" transform="translate(-84.647 -48.532)"/>
    </clipPath>
    <clipPath id="clip-path-2">
      <ellipse id="Elipse_13748" data-name="Elipse 13748" cx="22.53" cy="22.53" rx="22.53" ry="22.53" transform="translate(0 2.244) rotate(-2.854)"/>
    </clipPath>
    <clipPath id="clip-path-3">
      <path id="Trazado_1010814" data-name="Trazado 1010814" d="M183.7,155.577a22.53,22.53,0,1,1-22.531-22.53A22.53,22.53,0,0,1,183.7,155.577Z" transform="translate(-138.639 -133.047)"/>
    </clipPath>
    <clipPath id="clip-path-4">
      <path id="Trazado_1010831" data-name="Trazado 1010831" d="M90.158,178.617a22.53,22.53,0,1,1-22.531-22.531A22.53,22.53,0,0,1,90.158,178.617Z" transform="translate(-45.098 -156.086)"/>
    </clipPath>
    <clipPath id="clip-path-5">
      <circle id="Elipse_13750" data-name="Elipse 13750" cx="22.531" cy="22.531" r="22.531"/>
    </clipPath>
    <clipPath id="clip-path-6">
      <path id="Trazado_1010861" data-name="Trazado 1010861" d="M183.7,258.685a22.53,22.53,0,1,1-22.53-22.531A22.53,22.53,0,0,1,183.7,258.685Z" transform="translate(-138.637 -236.154)"/>
    </clipPath>
  </defs>
  <g id="_4979937_50878" data-name="4979937_50878" transform="translate(-45.098 -32.202)">
    <g id="Grupo_1180802" data-name="Grupo 1180802" transform="translate(45.098 32.202)">
      <g id="Grupo_1180798" data-name="Grupo 1180798">
        <g id="Grupo_1180792" data-name="Grupo 1180792" transform="translate(0 6.23)">
          <g id="Grupo_1180751" data-name="Grupo 1180751" transform="translate(15.088 0)">
            <g id="Grupo_1180750" data-name="Grupo 1180750">
              <path id="Trazado_1010757" data-name="Trazado 1010757" d="M129.707,71.062a22.53,22.53,0,1,1-22.531-22.53A22.531,22.531,0,0,1,129.707,71.062Z" transform="translate(-84.647 -48.532)" fill="#e74645"/>
              <g id="Grupo_1180749" data-name="Grupo 1180749" clip-path="url(#clip-path)">
                <rect id="Rectángulo_455233" data-name="Rectángulo 455233" width="4.432" height="2.637" transform="translate(20.781 33.074)" fill="#f8bb94"/>
                <path id="Trazado_1010758" data-name="Trazado 1010758" d="M141.927,137.511a2.331,2.331,0,0,1-1.825-1.9.932.932,0,0,1,.037-.385H139.12v2.637h4.432v-.33A2.994,2.994,0,0,1,141.927,137.511Z" transform="translate(-118.339 -102.153)" fill="#dadada"/>
                <g id="Grupo_1180743" data-name="Grupo 1180743" transform="translate(30.004 22.643)">
                  <path id="Trazado_1010759" data-name="Trazado 1010759" d="M167.381,109.859a2.045,2.045,0,1,1-2.043-1.974A2.009,2.009,0,0,1,167.381,109.859Z" transform="translate(-163.294 -107.885)" fill="#f8bb94"/>
                  <g id="Grupo_1180742" data-name="Grupo 1180742" transform="translate(2.307 0.87)">
                    <path id="Trazado_1010760" data-name="Trazado 1010760" d="M169.342,110.172a.771.771,0,0,1,.136,0,1.147,1.147,0,0,1,.363.072.885.885,0,0,1,.434.333,1.41,1.41,0,0,1,.077.143c.019.051.033.1.048.158l.018.164c0,.054,0,.107-.007.162a1.391,1.391,0,0,1-.065.307,1.272,1.272,0,0,1-.126.277,1.009,1.009,0,0,1-.383.38.9.9,0,0,1-.2.082,1.088,1.088,0,0,1-.162.026c-.087,0-.136,0-.136,0l.125-.051c.04-.015.082-.044.132-.069a1.166,1.166,0,0,0,.15-.113.95.95,0,0,0,.145-.16,1.172,1.172,0,0,0,.121-.206,1.89,1.89,0,0,0,.086-.241,1.157,1.157,0,0,0,.047-.263l.01-.129-.009-.124c-.01-.039-.018-.079-.027-.118a.808.808,0,0,0-.045-.107.872.872,0,0,0-.3-.318,1.828,1.828,0,0,0-.306-.156C169.39,110.186,169.342,110.172,169.342,110.172Z" transform="translate(-169.342 -110.166)" fill="#dadada"/>
                  </g>
                  <path id="Trazado_1010761" data-name="Trazado 1010761" d="M168.96,112.694a.334.334,0,1,1-.33-.383A.36.36,0,0,1,168.96,112.694Z" transform="translate(-166.39 -110.622)" fill="#dadada"/>
                </g>
                <g id="Grupo_1180745" data-name="Grupo 1180745" transform="translate(12.184 22.643)">
                  <path id="Trazado_1010762" data-name="Trazado 1010762" d="M116.583,109.859a2.044,2.044,0,1,0,2.043-1.974A2.009,2.009,0,0,0,116.583,109.859Z" transform="translate(-116.583 -107.885)" fill="#f8bb94"/>
                  <g id="Grupo_1180744" data-name="Grupo 1180744" transform="translate(0.706 0.87)">
                    <path id="Trazado_1010763" data-name="Trazado 1010763" d="M119.506,110.172a.79.79,0,0,0-.138,0,1.147,1.147,0,0,0-.361.072.9.9,0,0,0-.435.333c-.028.044-.049.094-.076.143s-.033.1-.047.158l-.016.164c0,.054,0,.107.006.162a1.408,1.408,0,0,0,.063.307,1.331,1.331,0,0,0,.126.277,1.03,1.03,0,0,0,.383.38.882.882,0,0,0,.2.082,1.048,1.048,0,0,0,.159.026c.09,0,.138,0,.138,0l-.124-.051c-.04-.015-.083-.044-.134-.069a1.138,1.138,0,0,1-.15-.113.98.98,0,0,1-.144-.16,1.06,1.06,0,0,1-.12-.206,1.483,1.483,0,0,1-.088-.241,1.246,1.246,0,0,1-.045-.263l-.009-.129.008-.124c.01-.039.018-.079.026-.118s.026-.074.045-.107a.891.891,0,0,1,.3-.318,1.743,1.743,0,0,1,.305-.156C119.458,110.186,119.506,110.172,119.506,110.172Z" transform="translate(-118.433 -110.166)" fill="#dadada"/>
                  </g>
                  <path id="Trazado_1010764" data-name="Trazado 1010764" d="M120.556,112.694a.334.334,0,1,0,.332-.383A.36.36,0,0,0,120.556,112.694Z" transform="translate(-119.04 -110.622)" fill="#dadada"/>
                </g>
                <path id="Trazado_1010765" data-name="Trazado 1010765" d="M139.3,86.561c0,6.7-3.145,11.411-9.051,11.411S121.2,93.265,121.2,86.561s3.266-12.138,9.171-12.138S139.3,79.857,139.3,86.561Z" transform="translate(-107.256 -64.546)" fill="#f8bb94"/>
                <path id="Trazado_1010766" data-name="Trazado 1010766" d="M121.435,141.852s-5.622.743-7.643,2.492c-2.059,1.782-2.668,3.323-3.41,6.844h26.359c-.742-3.521-1.35-5.062-3.41-6.844-2.02-1.749-7.642-2.492-7.642-2.492Z" transform="translate(-100.564 -106.25)" fill="#f8bb94"/>
                <path id="Trazado_1010767" data-name="Trazado 1010767" d="M119.735,142.142s-3.923.454-5.944,2.2c-2.059,1.782-2.668,3.323-3.41,6.844H136.74c-.742-3.521-1.34-5.074-3.41-6.844-1.708-1.459-5.546-2.122-5.546-2.122l-2.1-.37h-4.254Z" transform="translate(-100.563 -106.25)" fill="#fff"/>
                <g id="Grupo_1180746" data-name="Grupo 1180746" transform="translate(21.22 35.47)">
                  <path id="Trazado_1010768" data-name="Trazado 1010768" d="M140.994,145.062a.39.39,0,0,1,.074-.076c-.024.024-.05.049-.074.076l-.724,5.912h3.555l-.724-5.912.489-2.031a.915.915,0,0,0,.049-.963,1.07,1.07,0,0,0-.663-.494,5.307,5.307,0,0,0-1.352-.047,1.168,1.168,0,0,0-1.044.385.891.891,0,0,0-.074,1.119Z" transform="translate(-140.27 -141.507)" fill="#e74645"/>
                  <path id="Trazado_1010769" data-name="Trazado 1010769" d="M141.955,149.625s1.473-.689,2.182.315a2.35,2.35,0,0,0-2.106,0Z" transform="translate(-141.312 -146.386)" fill="#c6c6c6"/>
                </g>
                <path id="Trazado_1010770" data-name="Trazado 1010770" d="M119.735,142.611s-3.923.454-5.944,2.2c-2.059,1.782-2.668,3.323-3.41,6.844H136.74c-.742-3.521-1.34-5.074-3.41-6.844-1.708-1.459-5.546-2.122-5.546-2.122l-4.223,8.724Z" transform="translate(-100.563 -106.72)" fill="#0d3953"/>
                <path id="Trazado_1010771" data-name="Trazado 1010771" d="M128.839,142.759l3.774,8.745-4.011-2.592.9-1.55-4.487-3.706A12.947,12.947,0,0,1,128.839,142.759Z" transform="translate(-109.616 -106.808)" fill="#031d2d"/>
                <path id="Trazado_1010772" data-name="Trazado 1010772" d="M149.152,142.814l-4.222,8.724,4.011-2.592-.9-1.55,4.488-3.706A9.375,9.375,0,0,0,149.152,142.814Z" transform="translate(-121.932 -106.842)" fill="#031d2d"/>
                <path id="Trazado_1010773" data-name="Trazado 1010773" d="M132.835,142.808l3.394,2.366-.283-1.183Z" transform="translate(-114.451 -106.842)" fill="#b2b2b2"/>
                <path id="Trazado_1010774" data-name="Trazado 1010774" d="M151.833,142.919l-3.72,2.372.325-1.378Z" transform="translate(-123.901 -106.91)" fill="#b2b2b2"/>
                <g id="Grupo_1180747" data-name="Grupo 1180747" transform="translate(18.384 34.821)">
                  <path id="Trazado_1010775" data-name="Trazado 1010775" d="M135.232,139.806l-2.4,1.145,2.836,1.694,1.984-2.189Z" transform="translate(-132.835 -139.806)" fill="#fff"/>
                  <path id="Trazado_1010776" data-name="Trazado 1010776" d="M135.2,140.648a1.735,1.735,0,0,1,1.254-.515l-1.219-.327-2.4,1.145,2.141,1.278A1.272,1.272,0,0,1,135.2,140.648Z" transform="translate(-132.835 -139.806)" fill="#dadada"/>
                </g>
                <g id="Grupo_1180748" data-name="Grupo 1180748" transform="translate(23.16 34.821)">
                  <path id="Trazado_1010777" data-name="Trazado 1010777" d="M147.777,139.806l2.4,1.145-2.835,1.694-1.984-2.189Z" transform="translate(-145.354 -139.806)" fill="#fff"/>
                  <path id="Trazado_1010778" data-name="Trazado 1010778" d="M149.764,140.648a1.733,1.733,0,0,0-1.254-.515l1.219-.327,2.4,1.145-2.14,1.278A1.276,1.276,0,0,0,149.764,140.648Z" transform="translate(-147.306 -139.806)" fill="#dadada"/>
                </g>
                <path id="Trazado_1010779" data-name="Trazado 1010779" d="M120.412,84.964l.916.918L121.5,78.5a3.9,3.9,0,0,1,4.131-3.833,10.378,10.378,0,0,0,7.6.3,3.626,3.626,0,0,1,4.254,3.353l-.031,7.71.974-1.2.055-1a29.958,29.958,0,0,0,0-8.032s-.766-5.289-5.547-6.188c0,0-7.807-2.009-11.1,2.906a9.963,9.963,0,0,0-1.849,7.522Z" transform="translate(-106.438 -61.315)" fill="#956000"/>
              </g>
            </g>
          </g>
          <g id="Grupo_1180761" data-name="Grupo 1180761" transform="translate(72.99 39.943)">
            <g id="Grupo_1180760" data-name="Grupo 1180760">
              <ellipse id="Elipse_13747" data-name="Elipse 13747" cx="22.53" cy="22.53" rx="22.53" ry="22.53" transform="translate(0 2.244) rotate(-2.854)" fill="#1db2a8"/>
              <g id="Grupo_1180759" data-name="Grupo 1180759" clip-path="url(#clip-path-2)">
                <rect id="Rectángulo_455234" data-name="Rectángulo 455234" width="4.432" height="2.635" transform="translate(21.405 34.288)" fill="#f8bb94"/>
                <path id="Trazado_1010781" data-name="Trazado 1010781" d="M292.784,245.075a3.009,3.009,0,0,1,1.936-.873c.632-.048,1.714.088,2.051-.572a.73.73,0,0,1,.191-.243v-.281H292.53v2.276A2.2,2.2,0,0,1,292.784,245.075Z" transform="translate(-271.125 -208.819)" fill="#c6c6c6"/>
                <g id="Grupo_1180753" data-name="Grupo 1180753" transform="translate(30.629 23.856)">
                  <path id="Trazado_1010782" data-name="Trazado 1010782" d="M320.793,217.737a2.044,2.044,0,1,1-2.043-1.974A2.011,2.011,0,0,1,320.793,217.737Z" transform="translate(-316.707 -215.763)" fill="#f8bb94"/>
                  <g id="Grupo_1180752" data-name="Grupo 1180752" transform="translate(2.306 0.87)">
                    <path id="Trazado_1010783" data-name="Trazado 1010783" d="M322.751,218.049a.815.815,0,0,1,.137,0,1.124,1.124,0,0,1,.362.072.9.9,0,0,1,.435.333,1.571,1.571,0,0,1,.076.142c.018.051.034.1.047.157l.016.164c0,.054,0,.108-.005.163a1.458,1.458,0,0,1-.065.307,1.336,1.336,0,0,1-.126.277,1.018,1.018,0,0,1-.383.381.852.852,0,0,1-.2.081,1.142,1.142,0,0,1-.159.027c-.09,0-.138,0-.138,0l.126-.051c.038-.015.081-.044.133-.069a1.187,1.187,0,0,0,.149-.113,1.032,1.032,0,0,0,.145-.159,1.26,1.26,0,0,0,.12-.207,1.637,1.637,0,0,0,.087-.241,1.187,1.187,0,0,0,.046-.262l.01-.129-.01-.124c-.01-.039-.018-.079-.026-.117s-.026-.075-.045-.108a.887.887,0,0,0-.3-.317,1.85,1.85,0,0,0-.3-.156C322.8,218.064,322.751,218.049,322.751,218.049Z" transform="translate(-322.751 -218.044)" fill="#dadada"/>
                  </g>
                  <path id="Trazado_1010784" data-name="Trazado 1010784" d="M322.37,220.571a.335.335,0,1,1-.33-.382A.359.359,0,0,1,322.37,220.571Z" transform="translate(-319.8 -218.5)" fill="#dadada"/>
                </g>
                <g id="Grupo_1180755" data-name="Grupo 1180755" transform="translate(12.807 23.856)">
                  <path id="Trazado_1010785" data-name="Trazado 1010785" d="M269.993,217.737a2.044,2.044,0,1,0,2.043-1.974A2.009,2.009,0,0,0,269.993,217.737Z" transform="translate(-269.993 -215.763)" fill="#f8bb94"/>
                  <g id="Grupo_1180754" data-name="Grupo 1180754" transform="translate(0.705 0.87)">
                    <path id="Trazado_1010786" data-name="Trazado 1010786" d="M272.916,218.049a.8.8,0,0,0-.137,0,1.122,1.122,0,0,0-.362.072.894.894,0,0,0-.435.333c-.029.043-.05.094-.076.142s-.033.1-.047.157l-.016.164c0,.054,0,.108.007.163a1.376,1.376,0,0,0,.189.585,1.025,1.025,0,0,0,.384.381.87.87,0,0,0,.2.081,1.149,1.149,0,0,0,.16.027c.088,0,.137,0,.137,0l-.126-.051c-.039-.015-.081-.044-.133-.069a1.345,1.345,0,0,1-.149-.113,1.112,1.112,0,0,1-.144-.159,1.211,1.211,0,0,1-.121-.207,1.64,1.64,0,0,1-.087-.241,1.256,1.256,0,0,1-.047-.262l-.009-.129.008-.124c.011-.039.019-.079.027-.117s.026-.075.045-.108a.888.888,0,0,1,.3-.317,1.787,1.787,0,0,1,.3-.156C272.868,218.064,272.916,218.049,272.916,218.049Z" transform="translate(-271.842 -218.044)" fill="#dadada"/>
                  </g>
                  <path id="Trazado_1010787" data-name="Trazado 1010787" d="M273.967,220.571a.334.334,0,1,0,.33-.382A.359.359,0,0,0,273.967,220.571Z" transform="translate(-272.451 -218.5)" fill="#dadada"/>
                </g>
                <path id="Trazado_1010788" data-name="Trazado 1010788" d="M292.716,194.439c0,6.7-3.145,11.411-9.051,11.411s-9.051-4.707-9.051-11.411,3.265-12.138,9.17-12.138S292.716,187.735,292.716,194.439Z" transform="translate(-260.044 -171.211)" fill="#f8bb94"/>
                <path id="Trazado_1010789" data-name="Trazado 1010789" d="M274.844,249.728s-5.621.744-7.643,2.492c-2.059,1.783-2.668,3.323-3.411,6.844h26.36c-.742-3.521-1.351-5.062-3.411-6.844-2.02-1.749-7.642-2.492-7.642-2.492h-4.254Z" transform="translate(-253.35 -212.914)" fill="#f8bb94"/>
                <path id="Trazado_1010790" data-name="Trazado 1010790" d="M281.273,250.741a11.517,11.517,0,0,1,5.466,2.1c2.06,1.783,2.669,3.323,3.411,6.844H263.79c.742-3.521,1.352-5.062,3.411-6.844a11.574,11.574,0,0,1,5.48-2.107s-.749,4.807,4.478,4.767C277.159,255.5,281.476,255.674,281.273,250.741Z" transform="translate(-253.349 -213.539)" fill="#1a7290"/>
                <line id="Línea_27108" data-name="Línea 27108" x1="0.178" transform="translate(23.533 46.15)" fill="#1a7290"/>
                <g id="Grupo_1180756" data-name="Grupo 1180756" transform="translate(18.585 37.057)">
                  <path id="Trazado_1010791" data-name="Trazado 1010791" d="M286.6,250.367a.7.7,0,0,1,.005.25,4.006,4.006,0,0,0,.74,2.875,3.784,3.784,0,0,0,3.023,1.066h.033a3.652,3.652,0,0,0,2.439-.952,4.4,4.4,0,0,0,.928-3.239l1.441.254a5.245,5.245,0,0,1-1.36,4.01,5.051,5.051,0,0,1-3.427,1.364h-.113a5.091,5.091,0,0,1-4.058-1.572,5.3,5.3,0,0,1-1.091-3.8Z" transform="translate(-285.138 -250.367)" fill="#054153"/>
                </g>
                <path id="Trazado_1010792" data-name="Trazado 1010792" d="M273.572,187.128l.326,5.471.8.226c-.7-8.831,3.949-10.852,3.949-10.852l1.3-5.528a6.489,6.489,0,0,0-5.716,3.155S272.761,181.093,273.572,187.128Z" transform="translate(-259.249 -167.587)" fill="#732400"/>
                <g id="Grupo_1180757" data-name="Grupo 1180757" transform="translate(13.769 10.012)">
                  <path id="Trazado_1010793" data-name="Trazado 1010793" d="M273.111,189.712s-.152-.69-.286-1.73c-.071-.52-.137-1.127-.193-1.778-.024-.326-.061-.662-.078-1q-.015-.257-.031-.517l-.008-.13v-.1l0-.065.008-.261a5.578,5.578,0,0,1,.185-1.1c.024-.088.046-.176.073-.262l.1-.25a3.85,3.85,0,0,1,.216-.478,3.376,3.376,0,0,1,.247-.44,4.32,4.32,0,0,1,.272-.4,5.155,5.155,0,0,1,.567-.663,5.268,5.268,0,0,1,.541-.492,5.214,5.214,0,0,1,.451-.333,3.738,3.738,0,0,1,.42-.246,10.326,10.326,0,0,0-1.095,1.334c-.075.1-.148.214-.217.332s-.15.233-.217.361a3.868,3.868,0,0,0-.2.391c-.066.135-.135.271-.189.417a3.3,3.3,0,0,0-.162.441,4.308,4.308,0,0,0-.13.46,2.944,2.944,0,0,0-.092.466,3,3,0,0,0-.047.485l-.014.261,0,.065,0,.032v0c0-.061,0-.014,0-.027v.024l0,.13q.009.26.018.517c.014.343.01.681.016,1.007,0,.654,0,1.264-.027,1.788C273.2,189.011,273.111,189.712,273.111,189.712Z" transform="translate(-272.514 -179.474)" fill="#511800"/>
                </g>
                <path id="Trazado_1010794" data-name="Trazado 1010794" d="M312.193,189.936l-.326,5.471-.8.225c.811-11.779-3.579-11.976-3.579-11.976l-1.672-4.4a6.488,6.488,0,0,1,5.716,3.156S313,183.9,312.193,189.936Z" transform="translate(-279.342 -169.324)" fill="#732400"/>
                <path id="Trazado_1010795" data-name="Trazado 1010795" d="M280.177,175.874a13.571,13.571,0,0,1,10.323.677l.4-4.041s-1.025-7.89-11.324-5.376a7.512,7.512,0,0,1,1.841,1.2,6.146,6.146,0,0,0-5.716,3.334,9.91,9.91,0,0,1,4.836-.318S277.3,173.479,280.177,175.874Z" transform="translate(-260.716 -161.524)" fill="#732400"/>
                <g id="Grupo_1180758" data-name="Grupo 1180758" transform="translate(18.859 4.818)">
                  <path id="Trazado_1010796" data-name="Trazado 1010796" d="M297.181,172.029a5.838,5.838,0,0,0-.2-.58,9.106,9.106,0,0,0-.705-1.425,9.2,9.2,0,0,0-.6-.854,8.372,8.372,0,0,0-.8-.834,7.168,7.168,0,0,0-.986-.723,6.311,6.311,0,0,0-1.134-.552,5.747,5.747,0,0,0-.6-.208,5.563,5.563,0,0,0-.615-.157,9.9,9.9,0,0,0-1.228-.192c-.2-.026-.4-.034-.6-.043s-.388-.028-.576-.021c-.376,0-.733,0-1.063.023s-.634.04-.9.061-.506.042-.7.068c-.388.043-.614.061-.614.061s.21-.077.584-.2a6.726,6.726,0,0,1,.683-.2,8.8,8.8,0,0,1,.9-.2c.167-.029.341-.064.523-.09l.567-.059c.195-.025.4-.024.6-.035a5.087,5.087,0,0,1,.633,0c.215.009.435.014.656.045a5.288,5.288,0,0,1,.67.1,8.33,8.33,0,0,1,1.337.375,7.02,7.02,0,0,1,1.244.636,6.476,6.476,0,0,1,1.051.852,6.657,6.657,0,0,1,1.808,3.533A3.916,3.916,0,0,1,297.181,172.029Z" transform="translate(-285.857 -165.86)" fill="#511800"/>
                </g>
              </g>
            </g>
          </g>
          <g id="Grupo_1180770" data-name="Grupo 1180770" transform="translate(35.686 32.243)">
            <g id="Grupo_1180769" data-name="Grupo 1180769">
              <path id="Trazado_1010797" data-name="Trazado 1010797" d="M183.7,155.577a22.53,22.53,0,1,1-22.531-22.53A22.53,22.53,0,0,1,183.7,155.577Z" transform="translate(-138.639 -133.047)" fill="#f9b233"/>
              <g id="Grupo_1180768" data-name="Grupo 1180768" clip-path="url(#clip-path-3)">
                <rect id="Rectángulo_455235" data-name="Rectángulo 455235" width="4.433" height="2.635" transform="translate(20.314 33.198)" fill="#f8bb94"/>
                <path id="Trazado_1010798" data-name="Trazado 1010798" d="M192.14,222.034a3.021,3.021,0,0,1,1.937-.873c.632-.047,1.714.089,2.051-.571a.746.746,0,0,1,.191-.242v-.28h-4.433v2.276A2.4,2.4,0,0,1,192.14,222.034Z" transform="translate(-171.573 -186.869)" fill="#c6c6c6"/>
                <g id="Grupo_1180763" data-name="Grupo 1180763" transform="translate(29.536 22.766)">
                  <path id="Trazado_1010799" data-name="Trazado 1010799" d="M220.148,194.7a2.045,2.045,0,1,1-2.043-1.974A2.009,2.009,0,0,1,220.148,194.7Z" transform="translate(-216.061 -192.722)" fill="#f8bb94"/>
                  <g id="Grupo_1180762" data-name="Grupo 1180762" transform="translate(2.307 0.87)">
                    <path id="Trazado_1010800" data-name="Trazado 1010800" d="M222.109,195.008a.835.835,0,0,1,.136,0,1.134,1.134,0,0,1,.362.072.884.884,0,0,1,.435.334,1.162,1.162,0,0,1,.076.142,1.5,1.5,0,0,1,.047.157l.018.164c0,.055-.006.108-.007.162a1.4,1.4,0,0,1-.064.307,1.272,1.272,0,0,1-.126.277,1.02,1.02,0,0,1-.384.381.841.841,0,0,1-.2.081.994.994,0,0,1-.161.027c-.087,0-.136,0-.136,0l.125-.051c.039-.015.083-.044.133-.069a1.224,1.224,0,0,0,.15-.113.975.975,0,0,0,.145-.159,1.169,1.169,0,0,0,.12-.207,1.506,1.506,0,0,0,.087-.241,1.228,1.228,0,0,0,.047-.262l.01-.129-.008-.124c-.012-.039-.018-.079-.027-.117s-.028-.075-.045-.108a.885.885,0,0,0-.3-.317,1.888,1.888,0,0,0-.306-.156C222.158,195.022,222.109,195.008,222.109,195.008Z" transform="translate(-222.109 -195.003)" fill="#dadada"/>
                  </g>
                  <path id="Trazado_1010801" data-name="Trazado 1010801" d="M221.729,197.529a.334.334,0,1,1-.33-.383A.36.36,0,0,1,221.729,197.529Z" transform="translate(-219.157 -195.458)" fill="#dadada"/>
                </g>
                <g id="Grupo_1180765" data-name="Grupo 1180765" transform="translate(11.716 22.766)">
                  <path id="Trazado_1010802" data-name="Trazado 1010802" d="M169.35,194.7a2.044,2.044,0,1,0,2.043-1.974A2.01,2.01,0,0,0,169.35,194.7Z" transform="translate(-169.35 -192.722)" fill="#f8bb94"/>
                  <g id="Grupo_1180764" data-name="Grupo 1180764" transform="translate(0.707 0.87)">
                    <path id="Trazado_1010803" data-name="Trazado 1010803" d="M172.275,195.008a.852.852,0,0,0-.138,0,1.14,1.14,0,0,0-.362.072.886.886,0,0,0-.434.334,1.165,1.165,0,0,0-.076.142c-.019.051-.033.1-.048.157l-.016.164c0,.055,0,.108.006.162a1.545,1.545,0,0,0,.064.307,1.328,1.328,0,0,0,.126.277,1.028,1.028,0,0,0,.384.381.857.857,0,0,0,.2.081,1.028,1.028,0,0,0,.159.027c.089,0,.138,0,.138,0l-.126-.051c-.039-.015-.082-.044-.134-.069a1.28,1.28,0,0,1-.149-.113.989.989,0,0,1-.144-.159,1.124,1.124,0,0,1-.12-.207,1.584,1.584,0,0,1-.089-.241,1.157,1.157,0,0,1-.044-.262l-.01-.129.008-.124c.01-.039.018-.079.026-.117s.027-.075.045-.108a.888.888,0,0,1,.3-.317,1.812,1.812,0,0,1,.305-.156C172.227,195.022,172.275,195.008,172.275,195.008Z" transform="translate(-171.202 -195.003)" fill="#dadada"/>
                  </g>
                  <path id="Trazado_1010804" data-name="Trazado 1010804" d="M173.322,197.529a.335.335,0,1,0,.331-.383A.361.361,0,0,0,173.322,197.529Z" transform="translate(-171.807 -195.458)" fill="#dadada"/>
                </g>
                <path id="Trazado_1010805" data-name="Trazado 1010805" d="M192.073,171.4c0,6.7-3.146,11.411-9.051,11.411s-9.051-4.707-9.051-11.411,3.266-12.139,9.172-12.139S192.073,164.693,192.073,171.4Z" transform="translate(-160.492 -149.258)" fill="#f8bb94"/>
                <path id="Trazado_1010806" data-name="Trazado 1010806" d="M174.2,226.688s-5.622.743-7.642,2.492c-2.059,1.782-2.668,3.323-3.41,6.844h26.359c-.742-3.521-1.35-5.063-3.41-6.844-2.022-1.749-7.643-2.492-7.643-2.492Z" transform="translate(-153.798 -190.964)" fill="#f8bb94"/>
                <path id="Trazado_1010807" data-name="Trazado 1010807" d="M172.04,227.7a11.57,11.57,0,0,0-5.481,2.107c-2.059,1.782-2.668,3.323-3.41,6.844h26.359c-.742-3.521-1.35-5.063-3.41-6.844a11.525,11.525,0,0,0-5.467-2.1l-4.3,4.28Z" transform="translate(-153.798 -191.588)" fill="#373c47"/>
                <path id="Trazado_1010808" data-name="Trazado 1010808" d="M172.928,164.086l.327,5.471.8.226c-.7-8.831,3.949-10.853,3.949-10.853l1.3-5.528a6.488,6.488,0,0,0-5.715,3.156S172.119,158.051,172.928,164.086Z" transform="translate(-159.697 -145.635)" fill="#432918"/>
                <g id="Grupo_1180766" data-name="Grupo 1180766" transform="translate(12.643 8.922)">
                  <path id="Trazado_1010809" data-name="Trazado 1010809" d="M172.41,166.67s-.164-.69-.307-1.729c-.075-.52-.146-1.126-.2-1.777-.026-.326-.063-.662-.081-1q-.015-.256-.031-.517l-.008-.13v-.1l0-.065.007-.261a3.738,3.738,0,0,1,.065-.554,3.633,3.633,0,0,1,.122-.55c.025-.089.046-.177.074-.264l.1-.251a3.951,3.951,0,0,1,.219-.48,3.3,3.3,0,0,1,.25-.441,4.4,4.4,0,0,1,.275-.4,5.114,5.114,0,0,1,.573-.662,5.185,5.185,0,0,1,.547-.489,4.943,4.943,0,0,1,.456-.328,3.61,3.61,0,0,1,.424-.241,10.772,10.772,0,0,0-1.078,1.348c-.074.1-.145.215-.214.333s-.148.233-.214.361a3.805,3.805,0,0,0-.2.391c-.064.135-.134.27-.187.415a3.332,3.332,0,0,0-.159.439,4.4,4.4,0,0,0-.128.457,2.906,2.906,0,0,0-.09.462,2.977,2.977,0,0,0-.046.482l-.014.261,0,.065,0,.032v0c0,.009,0-.062,0-.03v.024l0,.13c.006.173.011.346.017.517.014.342.008.681.013,1.007,0,.654-.011,1.264-.038,1.788C172.51,165.968,172.41,166.67,172.41,166.67Z" transform="translate(-171.778 -156.433)" fill="#2a1807"/>
                </g>
                <path id="Trazado_1010810" data-name="Trazado 1010810" d="M185.217,167.454s2.795,4.823,11.767,4.574c0,0-1.679-1.983-.842-2.927C196.142,169.1,187.453,164.969,185.217,167.454Z" transform="translate(-167.447 -153.836)" fill="#c6c6c6"/>
                <path id="Trazado_1010811" data-name="Trazado 1010811" d="M211.553,166.9l-.327,5.472-.8.225c.7-8.831-3.95-10.851-3.95-10.851l-1.3-5.529a6.487,6.487,0,0,1,5.715,3.155S212.363,160.862,211.553,166.9Z" transform="translate(-179.792 -147.374)" fill="#432918"/>
                <path id="Trazado_1010812" data-name="Trazado 1010812" d="M181.361,150.008s1.291-2.627,5.92-3.346c0,0,7.706-.927,10.163,4.42a14.3,14.3,0,0,1,.794,7.1s-.465-2.038-1.729-2.715c0,0-.212,2.41-3.538.928,0,0-.529.988.632,2.745C193.6,159.143,182.832,159.143,181.361,150.008Z" transform="translate(-165.063 -141.43)" fill="#432918"/>
                <g id="Grupo_1180767" data-name="Grupo 1180767" transform="translate(16.298 4.784)">
                  <path id="Trazado_1010813" data-name="Trazado 1010813" d="M181.361,149.38a3.317,3.317,0,0,1,.406-.71,5.5,5.5,0,0,1,.618-.718c.126-.135.28-.255.433-.4s.334-.262.521-.389a7.729,7.729,0,0,1,1.281-.713,9.338,9.338,0,0,1,1.542-.548c.272-.086.557-.127.842-.193l.215-.045.24-.029c.148-.014.3-.024.445-.032a15.724,15.724,0,0,1,1.8.01,14.7,14.7,0,0,1,1.786.243,10.556,10.556,0,0,1,1.684.487,8.6,8.6,0,0,1,1.478.721,6.84,6.84,0,0,1,1.172.892,6.025,6.025,0,0,1,.816.932,5.379,5.379,0,0,1,.488.811,4.335,4.335,0,0,1,.241.554l.076.2-.115-.179c-.074-.117-.181-.288-.336-.491a6.776,6.776,0,0,0-.588-.7,5.084,5.084,0,0,0-.4-.386c-.143-.134-.3-.262-.473-.391a8.1,8.1,0,0,0-1.169-.724,10.525,10.525,0,0,0-1.42-.579,12.8,12.8,0,0,0-1.6-.394,14.161,14.161,0,0,0-1.695-.2,15,15,0,0,0-1.71-.036l-.418.021-.187.013-.2.034c-.271.05-.545.076-.8.145a11.614,11.614,0,0,0-1.484.418l-.341.125-.322.141c-.216.084-.41.194-.6.289a8.128,8.128,0,0,0-.993.627,6.854,6.854,0,0,0-.7.591,5.369,5.369,0,0,0-.4.438A1.841,1.841,0,0,0,181.361,149.38Z" transform="translate(-181.361 -145.586)" fill="#2a1807"/>
                </g>
              </g>
            </g>
          </g>
          <g id="Grupo_1180777" data-name="Grupo 1180777" transform="translate(0 41.032)">
            <g id="Grupo_1180776" data-name="Grupo 1180776">
              <path id="Trazado_1010815" data-name="Trazado 1010815" d="M90.158,178.617a22.53,22.53,0,1,1-22.531-22.531A22.53,22.53,0,0,1,90.158,178.617Z" transform="translate(-45.098 -156.086)" fill="#6ebebf"/>
              <g id="Grupo_1180775" data-name="Grupo 1180775" clip-path="url(#clip-path-4)">
                <path id="Trazado_1010816" data-name="Trazado 1010816" d="M117.794,221.991s-2.915,9.853-8.065,10.471v-2.246S115.008,220.375,117.794,221.991Z" transform="translate(-85.072 -196.738)" fill="#432918"/>
                <rect id="Rectángulo_455236" data-name="Rectángulo 455236" width="4.431" height="2.637" transform="translate(20.314 33.198)" fill="#f8bb94"/>
                <path id="Trazado_1010817" data-name="Trazado 1010817" d="M98.6,245.075a3.02,3.02,0,0,1,1.937-.873c.633-.048,1.714.088,2.052-.572a.744.744,0,0,1,.19-.242v-.281H98.345v2.277A2.284,2.284,0,0,1,98.6,245.075Z" transform="translate(-78.031 -209.909)" fill="#c6c6c6"/>
                <g id="Grupo_1180772" data-name="Grupo 1180772" transform="translate(29.537 22.768)">
                  <path id="Trazado_1010818" data-name="Trazado 1010818" d="M126.608,217.738a2.044,2.044,0,1,1-2.044-1.973A2.01,2.01,0,0,1,126.608,217.738Z" transform="translate(-122.522 -215.765)" fill="#f8bb94"/>
                  <g id="Grupo_1180771" data-name="Grupo 1180771" transform="translate(2.306 0.869)">
                    <path id="Trazado_1010819" data-name="Trazado 1010819" d="M128.567,218.049a.815.815,0,0,1,.137,0,1.137,1.137,0,0,1,.361.072.9.9,0,0,1,.436.334,1.409,1.409,0,0,1,.074.142,1.571,1.571,0,0,1,.049.158l.016.164a1.535,1.535,0,0,1-.007.162,1.382,1.382,0,0,1-.063.307,1.3,1.3,0,0,1-.125.278,1.035,1.035,0,0,1-.384.38.84.84,0,0,1-.2.082,1.215,1.215,0,0,1-.159.027c-.09,0-.137,0-.137,0l.124-.052c.039-.015.083-.044.134-.069a1.459,1.459,0,0,0,.15-.113,1.093,1.093,0,0,0,.144-.159,1.278,1.278,0,0,0,.12-.206,1.4,1.4,0,0,0,.087-.242,1.143,1.143,0,0,0,.047-.262l.01-.129-.009-.124c-.01-.039-.018-.079-.027-.117s-.026-.074-.044-.108a.9.9,0,0,0-.3-.317,1.787,1.787,0,0,0-.3-.156C128.615,218.064,128.567,218.049,128.567,218.049Z" transform="translate(-128.567 -218.044)" fill="#dadada"/>
                  </g>
                  <path id="Trazado_1010820" data-name="Trazado 1010820" d="M128.186,220.572a.334.334,0,1,1-.331-.382A.359.359,0,0,1,128.186,220.572Z" transform="translate(-125.616 -218.502)" fill="#dadada"/>
                </g>
                <g id="Grupo_1180774" data-name="Grupo 1180774" transform="translate(11.715 22.768)">
                  <path id="Trazado_1010821" data-name="Trazado 1010821" d="M75.806,217.738a2.044,2.044,0,1,0,2.043-1.973A2.009,2.009,0,0,0,75.806,217.738Z" transform="translate(-75.806 -215.765)" fill="#f8bb94"/>
                  <g id="Grupo_1180773" data-name="Grupo 1180773" transform="translate(0.706 0.869)">
                    <path id="Trazado_1010822" data-name="Trazado 1010822" d="M78.731,218.049a.836.836,0,0,0-.138,0,1.137,1.137,0,0,0-.361.072.894.894,0,0,0-.435.334,1.5,1.5,0,0,0-.077.142c-.018.051-.033.1-.047.158l-.018.164c0,.053,0,.108.006.162a1.429,1.429,0,0,0,.065.307,1.266,1.266,0,0,0,.126.278,1.016,1.016,0,0,0,.384.38.825.825,0,0,0,.2.082,1.23,1.23,0,0,0,.16.027c.089,0,.138,0,.138,0l-.126-.052c-.039-.015-.083-.044-.133-.069a1.133,1.133,0,0,1-.149-.113.946.946,0,0,1-.145-.159,1.179,1.179,0,0,1-.121-.206,1.538,1.538,0,0,1-.087-.242,1.1,1.1,0,0,1-.046-.262l-.01-.129.008-.124c.012-.039.019-.079.028-.117a1.08,1.08,0,0,1,.045-.108.9.9,0,0,1,.3-.317,1.846,1.846,0,0,1,.3-.156C78.681,218.064,78.731,218.049,78.731,218.049Z" transform="translate(-77.656 -218.044)" fill="#dadada"/>
                  </g>
                  <path id="Trazado_1010823" data-name="Trazado 1010823" d="M79.776,220.572a.335.335,0,1,0,.332-.382A.36.36,0,0,0,79.776,220.572Z" transform="translate(-78.261 -218.502)" fill="#dadada"/>
                </g>
                <path id="Trazado_1010824" data-name="Trazado 1010824" d="M98.53,194.44c0,6.7-3.144,11.411-9.05,11.411s-9.05-4.707-9.05-11.411S83.7,182.3,89.6,182.3,98.53,187.735,98.53,194.44Z" transform="translate(-66.95 -172.3)" fill="#f8bb94"/>
                <path id="Trazado_1010825" data-name="Trazado 1010825" d="M80.657,249.73s-5.621.743-7.641,2.492c-2.06,1.783-2.67,3.323-3.411,6.844h26.36c-.741-3.521-1.351-5.062-3.411-6.844-2.021-1.748-7.641-2.492-7.641-2.492Z" transform="translate(-60.256 -214.005)" fill="#f8bb94"/>
                <path id="Trazado_1010826" data-name="Trazado 1010826" d="M94.75,249.73a29.512,29.512,0,0,1,5.279,1.245,12.969,12.969,0,0,0,0,8.091H85.511s1-2.859.383-8.32a31.046,31.046,0,0,1,4.6-1.016l2.039,3.963Z" transform="translate(-70.093 -214.005)" fill="#e74645"/>
                <path id="Trazado_1010827" data-name="Trazado 1010827" d="M103.921,274.2" transform="translate(-81.48 -229.141)" fill="#e74645"/>
                <path id="Trazado_1010828" data-name="Trazado 1010828" d="M105.689,190.2c-3.051-.746-4.532-4.538-4.532-4.538a4.406,4.406,0,0,0,.1,1.836,27.884,27.884,0,0,1-8.87-6.625c-2.809-3.469,1.7-5.747,1.7-5.747,7.237-2.554,10.35,2.278,10.35,2.278s5.142,4.649,2.611,13.637A2.19,2.19,0,0,0,105.689,190.2Z" transform="translate(-73.776 -167.399)" fill="#432918"/>
                <path id="Trazado_1010829" data-name="Trazado 1010829" d="M83.274,181.72s-6.485.221-7.728,10.474c0,0-1.792,18.756,6.622,21.949,0,0-.552-5.308,1.976-6.466v-2.432s-6.133-1.079-6.053-9.1c0,0,.04-9.258,4.749-11.014Z" transform="translate(-63.831 -171.941)" fill="#432918"/>
                <path id="Trazado_1010830" data-name="Trazado 1010830" d="M127.454,224.8a.683.683,0,1,1-.684-.683A.684.684,0,0,1,127.454,224.8Z" transform="translate(-95.191 -198.166)" fill="#fff"/>
              </g>
            </g>
          </g>
          <g id="Grupo_1180784" data-name="Grupo 1180784" transform="translate(56.947)">
            <g id="Grupo_1180783" data-name="Grupo 1180783">
              <circle id="Elipse_13749" data-name="Elipse 13749" cx="22.531" cy="22.531" r="22.531" fill="#f08046"/>
              <g id="Grupo_1180782" data-name="Grupo 1180782" clip-path="url(#clip-path-5)">
                <rect id="Rectángulo_455237" data-name="Rectángulo 455237" width="4.432" height="2.637" transform="translate(20.315 33.198)" fill="#f8bb94"/>
                <path id="Trazado_1010832" data-name="Trazado 1010832" d="M247.873,137.52a3.009,3.009,0,0,1,1.936-.873c.633-.048,1.714.088,2.051-.572a.762.762,0,0,1,.191-.242v-.281h-4.432v2.277A2.233,2.233,0,0,1,247.873,137.52Z" transform="translate(-227.304 -102.353)" fill="#c6c6c6"/>
                <g id="Grupo_1180779" data-name="Grupo 1180779" transform="translate(29.539 22.767)">
                  <path id="Trazado_1010833" data-name="Trazado 1010833" d="M275.883,110.183a2.044,2.044,0,1,1-2.043-1.973A2.009,2.009,0,0,1,275.883,110.183Z" transform="translate(-271.798 -108.209)" fill="#f8bb94"/>
                  <g id="Grupo_1180778" data-name="Grupo 1180778" transform="translate(2.306 0.869)">
                    <path id="Trazado_1010834" data-name="Trazado 1010834" d="M277.842,110.493a.8.8,0,0,1,.137,0,1.152,1.152,0,0,1,.361.072.884.884,0,0,1,.435.334,1.257,1.257,0,0,1,.076.142c.018.051.033.1.048.158l.016.164c0,.054,0,.108-.007.162a1.406,1.406,0,0,1-.064.307,1.26,1.26,0,0,1-.126.278,1.018,1.018,0,0,1-.383.38.842.842,0,0,1-.2.082,1.268,1.268,0,0,1-.159.027c-.09,0-.138,0-.138,0l.125-.051c.039-.015.082-.044.133-.069a1.185,1.185,0,0,0,.149-.113.915.915,0,0,0,.144-.159,1.132,1.132,0,0,0,.121-.206,1.576,1.576,0,0,0,.087-.242,1.182,1.182,0,0,0,.046-.262l.011-.129-.01-.124c-.011-.039-.018-.079-.027-.117a1,1,0,0,0-.045-.108.894.894,0,0,0-.3-.317,1.841,1.841,0,0,0-.305-.156C277.891,110.508,277.842,110.493,277.842,110.493Z" transform="translate(-277.842 -110.488)" fill="#dadada"/>
                  </g>
                  <path id="Trazado_1010835" data-name="Trazado 1010835" d="M277.459,113.016a.335.335,0,1,1-.332-.382A.36.36,0,0,1,277.459,113.016Z" transform="translate(-274.889 -110.946)" fill="#dadada"/>
                </g>
                <g id="Grupo_1180781" data-name="Grupo 1180781" transform="translate(11.717 22.767)">
                  <path id="Trazado_1010836" data-name="Trazado 1010836" d="M225.083,110.183a2.044,2.044,0,1,0,2.043-1.973A2.009,2.009,0,0,0,225.083,110.183Z" transform="translate(-225.083 -108.209)" fill="#f8bb94"/>
                  <g id="Grupo_1180780" data-name="Grupo 1180780" transform="translate(0.705 0.869)">
                    <path id="Trazado_1010837" data-name="Trazado 1010837" d="M228.005,110.493a.815.815,0,0,0-.137,0,1.152,1.152,0,0,0-.361.072.9.9,0,0,0-.435.334c-.029.043-.05.093-.077.142s-.032.1-.046.158l-.017.164c0,.054,0,.108.006.162a1.362,1.362,0,0,0,.064.307,1.331,1.331,0,0,0,.126.278,1.043,1.043,0,0,0,.383.38.856.856,0,0,0,.2.082,1.2,1.2,0,0,0,.159.027c.09,0,.137,0,.137,0l-.125-.051c-.04-.015-.082-.044-.133-.069a1.214,1.214,0,0,1-.149-.113.915.915,0,0,1-.145-.159,1.176,1.176,0,0,1-.12-.206,1.464,1.464,0,0,1-.088-.242,1.2,1.2,0,0,1-.045-.262l-.01-.129.008-.124c.011-.039.018-.079.027-.117s.025-.074.045-.108a.9.9,0,0,1,.3-.317,1.766,1.766,0,0,1,.3-.156C227.957,110.508,228.005,110.493,228.005,110.493Z" transform="translate(-226.932 -110.488)" fill="#dadada"/>
                  </g>
                  <path id="Trazado_1010838" data-name="Trazado 1010838" d="M229.054,113.016a.334.334,0,1,0,.331-.382A.36.36,0,0,0,229.054,113.016Z" transform="translate(-227.539 -110.946)" fill="#dadada"/>
                </g>
                <path id="Trazado_1010839" data-name="Trazado 1010839" d="M247.8,86.884c0,6.7-3.147,11.411-9.05,11.411S229.7,93.587,229.7,86.884s3.265-12.139,9.17-12.139S247.8,80.179,247.8,86.884Z" transform="translate(-216.223 -64.744)" fill="#f8bb94"/>
                <path id="Trazado_1010840" data-name="Trazado 1010840" d="M229.934,142.174s-5.622.744-7.643,2.492c-2.06,1.783-2.668,3.323-3.41,6.844H245.24c-.742-3.522-1.351-5.062-3.41-6.844-2.022-1.748-7.643-2.492-7.643-2.492Z" transform="translate(-209.53 -106.449)" fill="#f8bb94"/>
                <path id="Trazado_1010841" data-name="Trazado 1010841" d="M236.782,143.6s.607-.257-1.613.444c.611,5.525-.384,8.32-.384,8.32H249.3a12.972,12.972,0,0,1,0-8.091l-1.342-.486s-.124,6.729-6.152,6.261C241.808,150.048,236.584,150.56,236.782,143.6Z" transform="translate(-219.366 -107.302)" fill="#00b1c3"/>
                <path id="Trazado_1010842" data-name="Trazado 1010842" d="M253.194,166.647" transform="translate(-230.752 -121.586)" fill="#e74645"/>
                <path id="Trazado_1010843" data-name="Trazado 1010843" d="M232.54,74.164s-6.486.221-7.727,10.474c0,0-1.21,8.445,2.883,15.646a26.844,26.844,0,0,1,5.715-.162V97.689s-6.132-1.079-6.052-9.1c0,0,.04-9.258,4.747-11.014Z" transform="translate(-213.095 -64.385)" fill="#732400"/>
                <path id="Trazado_1010844" data-name="Trazado 1010844" d="M260.107,74.164s7.354-.114,8.6,10.139c0,0,.638,6.859-3.751,15.981a26.854,26.854,0,0,0-5.715-.162V97.689s6.131-1.079,6.052-9.1c0,0-.039-9.258-4.749-11.014Z" transform="translate(-234.49 -64.385)" fill="#732400"/>
                <path id="Trazado_1010845" data-name="Trazado 1010845" d="M238.057,71.64a14.357,14.357,0,0,0,12.892,6.026l1.714,4.365,1.7.7s2.566-.7-.1-11.1c0,0-2.759-7.6-12.727-5.335C241.532,66.305,236.567,67.212,238.057,71.64Z" transform="translate(-221.217 -59.264)" fill="#732400"/>
              </g>
            </g>
          </g>
          <g id="Grupo_1180791" data-name="Grupo 1180791" transform="translate(35.685 71.578)">
            <g id="Grupo_1180790" data-name="Grupo 1180790">
              <path id="Trazado_1010846" data-name="Trazado 1010846" d="M183.7,258.685a22.53,22.53,0,1,1-22.53-22.531A22.53,22.53,0,0,1,183.7,258.685Z" transform="translate(-138.637 -236.154)" fill="#e74645"/>
              <g id="Grupo_1180789" data-name="Grupo 1180789" clip-path="url(#clip-path-6)">
                <rect id="Rectángulo_455238" data-name="Rectángulo 455238" width="4.431" height="2.637" transform="translate(20.316 33.198)" fill="#f8bb94"/>
                <path id="Trazado_1010847" data-name="Trazado 1010847" d="M192.143,325.142a3.007,3.007,0,0,1,1.937-.873c.632-.048,1.713.088,2.05-.572a.762.762,0,0,1,.191-.242v-.281H191.89v2.278A2.227,2.227,0,0,1,192.143,325.142Z" transform="translate(-171.574 -289.975)" fill="#c6c6c6"/>
                <g id="Grupo_1180786" data-name="Grupo 1180786" transform="translate(29.537 22.767)">
                  <path id="Trazado_1010848" data-name="Trazado 1010848" d="M220.148,297.805a2.045,2.045,0,1,1-2.043-1.973A2.009,2.009,0,0,1,220.148,297.805Z" transform="translate(-216.061 -295.832)" fill="#f8bb94"/>
                  <g id="Grupo_1180785" data-name="Grupo 1180785" transform="translate(2.308 0.87)">
                    <path id="Trazado_1010849" data-name="Trazado 1010849" d="M222.111,298.117a.823.823,0,0,1,.137,0,1.158,1.158,0,0,1,.361.071.887.887,0,0,1,.435.334,1.25,1.25,0,0,1,.076.142c.018.051.033.1.047.158l.018.164c0,.054,0,.108-.007.163a1.431,1.431,0,0,1-.064.306,1.306,1.306,0,0,1-.126.278,1.019,1.019,0,0,1-.383.38.854.854,0,0,1-.2.082,1.16,1.16,0,0,1-.16.027c-.088,0-.137,0-.137,0l.124-.052c.04-.014.083-.044.133-.069a1.117,1.117,0,0,0,.15-.113.914.914,0,0,0,.144-.159,1.129,1.129,0,0,0,.121-.206,1.509,1.509,0,0,0,.087-.242,1.256,1.256,0,0,0,.046-.262l.01-.129-.008-.124c-.011-.039-.018-.079-.027-.117s-.026-.074-.045-.108a.891.891,0,0,0-.3-.318,1.927,1.927,0,0,0-.305-.156C222.16,298.132,222.111,298.117,222.111,298.117Z" transform="translate(-222.111 -298.112)" fill="#dadada"/>
                  </g>
                  <path id="Trazado_1010850" data-name="Trazado 1010850" d="M221.727,300.639a.334.334,0,1,1-.33-.383A.358.358,0,0,1,221.727,300.639Z" transform="translate(-219.157 -298.568)" fill="#dadada"/>
                </g>
                <g id="Grupo_1180788" data-name="Grupo 1180788" transform="translate(11.718 22.767)">
                  <path id="Trazado_1010851" data-name="Trazado 1010851" d="M169.352,297.805a2.044,2.044,0,1,0,2.042-1.973A2.009,2.009,0,0,0,169.352,297.805Z" transform="translate(-169.352 -295.832)" fill="#f8bb94"/>
                  <g id="Grupo_1180787" data-name="Grupo 1180787" transform="translate(0.705 0.87)">
                    <path id="Trazado_1010852" data-name="Trazado 1010852" d="M172.274,298.117a.838.838,0,0,0-.137,0,1.158,1.158,0,0,0-.361.071.9.9,0,0,0-.436.334,1.378,1.378,0,0,0-.075.142c-.019.051-.033.1-.048.158l-.017.164c0,.054,0,.108.007.163a1.429,1.429,0,0,0,.063.306,1.305,1.305,0,0,0,.126.278,1.022,1.022,0,0,0,.383.38.819.819,0,0,0,.2.082,1.143,1.143,0,0,0,.159.027c.088,0,.137,0,.137,0l-.125-.052c-.039-.014-.083-.044-.133-.069a1.137,1.137,0,0,1-.149-.113.979.979,0,0,1-.144-.159,1.223,1.223,0,0,1-.121-.206,1.549,1.549,0,0,1-.088-.242,1.142,1.142,0,0,1-.045-.262l-.01-.129.008-.124c.011-.039.018-.079.027-.117s.026-.074.045-.108a.9.9,0,0,1,.3-.318,1.833,1.833,0,0,1,.3-.156C172.225,298.132,172.274,298.117,172.274,298.117Z" transform="translate(-171.2 -298.112)" fill="#dadada"/>
                  </g>
                  <path id="Trazado_1010853" data-name="Trazado 1010853" d="M173.322,300.639a.334.334,0,1,0,.332-.383A.36.36,0,0,0,173.322,300.639Z" transform="translate(-171.807 -298.568)" fill="#dadada"/>
                </g>
                <path id="Trazado_1010854" data-name="Trazado 1010854" d="M192.073,274.506c0,6.7-3.145,11.411-9.051,11.411s-9.051-4.707-9.051-11.411,3.265-12.138,9.17-12.138S192.073,267.8,192.073,274.506Z" transform="translate(-160.491 -252.367)" fill="#f8bb94"/>
                <path id="Trazado_1010855" data-name="Trazado 1010855" d="M174.2,329.8s-5.623.744-7.643,2.492c-2.059,1.783-2.67,3.323-3.411,6.845h26.359c-.742-3.522-1.351-5.062-3.41-6.845-2.021-1.748-7.643-2.492-7.643-2.492Z" transform="translate(-153.798 -294.072)" fill="#f8bb94"/>
                <path id="Trazado_1010856" data-name="Trazado 1010856" d="M181.183,331.08a12.807,12.807,0,0,1,4.915,1.981c2.059,1.783,2.668,3.323,3.41,6.845H163.149c.741-3.522,1.351-5.062,3.411-6.845a13.1,13.1,0,0,1,5.06-2.015l4.709,5.075Z" transform="translate(-153.798 -294.845)" fill="#881719"/>
                <path id="Trazado_1010857" data-name="Trazado 1010857" d="M197.463,354.269" transform="translate(-175.021 -309.208)" fill="#e74645"/>
                <path id="Trazado_1010858" data-name="Trazado 1010858" d="M176.686,261.789s-6.486.221-7.728,10.473c0,0-.242,8.807-.242,19.221,0,0,1.484-2.6,8.84-3.738v-2.433s-6.133-1.079-6.054-9.1c0,0,.041-9.258,4.749-11.014Z" transform="translate(-157.241 -252.009)" fill="#432918"/>
                <path id="Trazado_1010859" data-name="Trazado 1010859" d="M204.375,261.786s7.367-.371,8.609,9.881c0,0,.143,9.1-.6,19.917,0,0-2.043-2.917-8.878-3.841v-2.433s6.132-1.079,6.053-9.1c0,0-.039-9.258-4.749-11.014Z" transform="translate(-178.757 -252.007)" fill="#432918"/>
                <path id="Trazado_1010860" data-name="Trazado 1010860" d="M179.2,267.491l.915-4.592v4.592h4.547l.753-3.233.784,3.233h5.7a29.546,29.546,0,0,0-.6-5.906s-1.517-7.144-12.216-6.513c0,0-9.015,0-9.668,12.42H179.2Z" transform="translate(-157.671 -247.83)" fill="#432918"/>
              </g>
            </g>
          </g>
        </g>
        <g id="Grupo_1180793" data-name="Grupo 1180793" transform="translate(49.018)">
          <path id="Trazado_1010862" data-name="Trazado 1010862" d="M179.815,35.317A3.115,3.115,0,1,1,176.7,32.2,3.115,3.115,0,0,1,179.815,35.317Z" transform="translate(-173.585 -32.202)" fill="#1db2a8"/>
          <path id="Trazado_1010863" data-name="Trazado 1010863" d="M196.37,55.82a2.132,2.132,0,1,1-2.132-2.132A2.132,2.132,0,0,1,196.37,55.82Z" transform="translate(-185.04 -45.491)" fill="#e74645"/>
          <path id="Trazado_1010864" data-name="Trazado 1010864" d="M212.262,35.933a3.731,3.731,0,1,1-3.733-3.731A3.732,3.732,0,0,1,212.262,35.933Z" transform="translate(-192.891 -32.202)" fill="#f9b233"/>
        </g>
        <g id="Grupo_1180794" data-name="Grupo 1180794" transform="translate(104.522 28.787)">
          <path id="Trazado_1010865" data-name="Trazado 1010865" d="M321.849,138.339a2.775,2.775,0,1,1-2.775,2.775A2.775,2.775,0,0,1,321.849,138.339Z" transform="translate(-319.074 -126.635)" fill="#1db2a8"/>
          <path id="Trazado_1010866" data-name="Trazado 1010866" d="M340.11,126.431a1.9,1.9,0,1,1-1.9,1.9A1.9,1.9,0,0,1,340.11,126.431Z" transform="translate(-330.91 -119.27)" fill="#e74645"/>
          <path id="Trazado_1010867" data-name="Trazado 1010867" d="M322.4,107.66a3.323,3.323,0,1,1-3.323,3.324A3.324,3.324,0,0,1,322.4,107.66Z" transform="translate(-319.074 -107.66)" fill="#f9b233"/>
        </g>
        <g id="Grupo_1180795" data-name="Grupo 1180795" transform="translate(2.377 31.878)">
          <path id="Trazado_1010868" data-name="Trazado 1010868" d="M55.389,142.779a2.775,2.775,0,1,1-3.744,1.178A2.776,2.776,0,0,1,55.389,142.779Z" transform="translate(-51.33 -132.277)" fill="#1db2a8"/>
          <path id="Trazado_1010869" data-name="Trazado 1010869" d="M77.9,140.168a1.9,1.9,0,1,1-2.562.806A1.9,1.9,0,0,1,77.9,140.168Z" transform="translate(-66.048 -130.723)" fill="#e74645"/>
          <path id="Trazado_1010870" data-name="Trazado 1010870" d="M69.548,116.138a3.323,3.323,0,1,1-4.485,1.411A3.324,3.324,0,0,1,69.548,116.138Z" transform="translate(-59.591 -115.761)" fill="#f9b233"/>
        </g>
        <g id="Grupo_1180796" data-name="Grupo 1180796" transform="translate(21.077 95.665)">
          <path id="Trazado_1010871" data-name="Trazado 1010871" d="M116.188,311a2.775,2.775,0,1,1-1.073,3.775A2.775,2.775,0,0,1,116.188,311Z" transform="translate(-109.263 -300.084)" fill="#1db2a8"/>
          <path id="Trazado_1010872" data-name="Trazado 1010872" d="M125.832,292.574a1.9,1.9,0,1,1-.734,2.584A1.9,1.9,0,0,1,125.832,292.574Z" transform="translate(-115.506 -288.758)" fill="#e74645"/>
          <path id="Trazado_1010873" data-name="Trazado 1010873" d="M102.053,283.384a3.324,3.324,0,1,1-1.285,4.522A3.324,3.324,0,0,1,102.053,283.384Z" transform="translate(-100.346 -282.963)" fill="#f9b233"/>
        </g>
        <g id="Grupo_1180797" data-name="Grupo 1180797" transform="translate(82.277 95.738)">
          <path id="Trazado_1010874" data-name="Trazado 1010874" d="M265.965,299a2.775,2.775,0,1,1-3.775-1.074A2.774,2.774,0,0,1,265.965,299Z" transform="translate(-260.766 -292.071)" fill="#1db2a8"/>
          <path id="Trazado_1010875" data-name="Trazado 1010875" d="M287.228,308.64a1.9,1.9,0,1,1-2.585-.734A1.9,1.9,0,0,1,287.228,308.64Z" transform="translate(-274.932 -298.314)" fill="#e74645"/>
          <path id="Trazado_1010876" data-name="Trazado 1010876" d="M291.8,284.86a3.323,3.323,0,1,1-4.521-1.284A3.323,3.323,0,0,1,291.8,284.86Z" transform="translate(-276.109 -283.154)" fill="#f9b233"/>
        </g>
      </g>
    </g>
  </g>
</svg>
