<svg xmlns="http://www.w3.org/2000/svg" width="73" height="73" viewBox="0 0 73 73">
  <g id="Grupo_1180737" data-name="Grupo 1180737" transform="translate(-717.396 -1574.227)">
    <rect id="Rectángulo_454573" data-name="Rectángulo 454573" width="73" height="73" rx="5" transform="translate(717.396 1574.227)" fill="#c8bf57"/>
    <g id="Grupo_1180741" data-name="Grupo 1180741" transform="translate(725.936 1575.752)">
      <path id="Trazado_1010677" data-name="Trazado 1010677" d="M160.607,337.8l-.765-13.827a2.491,2.491,0,0,0-1.878-2.271l-4.893-1.224-2.949-1.463-1.354,2.8a.6.6,0,0,1-.546.349H146.1a.575.575,0,0,1-.546-.349l-1.245-2.774-2.949,1.464-4.936,1.2a2.492,2.492,0,0,0-1.878,2.271l-.764,13.827a1.673,1.673,0,0,0,1.551,1.747h23.612a1.659,1.659,0,0,0,1.66-1.66V337.8Zm0,0" transform="translate(-119.171 -284.16)" fill="#60bae2"/>
      <path id="Trazado_1010678" data-name="Trazado 1010678" d="M275.1,320.457l-1.463,3.582a.539.539,0,0,1-.7.306.8.8,0,0,1-.218-.153l-1.922-2.381,1.354-2.8Zm0,0" transform="translate(-241.225 -284.161)" fill="#e9e9ea"/>
      <path id="Trazado_1010679" data-name="Trazado 1010679" d="M204.264,324.239a.539.539,0,0,0,.7.306.794.794,0,0,0,.218-.153l1.857-2.316a.163.163,0,0,1-.044-.087l-1.245-2.774-1.966.961-.983.48Zm0,0" transform="translate(-180.652 -284.338)" fill="#e9e9ea"/>
      <path id="Trazado_1010680" data-name="Trazado 1010680" d="M394.131,317.931l3.036.765a.161.161,0,0,1-.109-.131l-.612-1.747-1.791.9-.655.153Zm0,0" transform="translate(-350.969 -282.202)" fill="#e9e9ea"/>
      <path id="Trazado_1010681" data-name="Trazado 1010681" d="M433.065,327.538l-.437-7.886a1.564,1.564,0,0,0-1.136-1.4l-2.993-.743-1.791-.9-.612,1.747a.255.255,0,0,1-.24.174H424l.437.109a1.839,1.839,0,0,1,1.376,1.66l.5,8.825h5.242a1.51,1.51,0,0,0,1.507-1.507v-.087Zm0,0" transform="translate(-377.693 -282.024)" fill="#e9e9ea"/>
      <path id="Trazado_1010682" data-name="Trazado 1010682" d="M12.344,320.486a1.839,1.839,0,0,1,1.376-1.66l3.582-.9.109-.043-.721-.175-1.791-.9-.612,1.747a.255.255,0,0,1-.24.174H12.191a.255.255,0,0,1-.24-.174l-.612-1.747-1.791.9-2.993.743a1.494,1.494,0,0,0-1.136,1.4l-.437,7.885a1.513,1.513,0,0,0,1.42,1.594h5.461Zm0,0" transform="translate(-4.437 -282.201)" fill="#e9e9ea"/>
      <path id="Trazado_1010683" data-name="Trazado 1010683" d="M320.688,330.3l-.524-9.458a1.813,1.813,0,0,0-1.376-1.66l-3.582-.9-2.163-1.07-.721,2.1a.282.282,0,0,1-.284.2H309.81a.312.312,0,0,1-.284-.2l-.721-2.1-2.163,1.07-1.245.306.524.262,4.893,1.223a2.493,2.493,0,0,1,1.878,2.272l.546,9.851h5.614a1.808,1.808,0,0,0,1.813-1.813C320.688,330.365,320.688,330.343,320.688,330.3Zm0,0" transform="translate(-272.044 -282.557)" fill="#e9e9ea"/>
      <path id="Trazado_1010684" data-name="Trazado 1010684" d="M75.565,322.37a2.491,2.491,0,0,1,1.878-2.271l4.893-1.224.524-.262-1.267-.328-2.163-1.07-.721,2.1a.282.282,0,0,1-.284.2H76.22a.312.312,0,0,1-.284-.2l-.721-2.1-2.163,1.07-3.582.9a1.839,1.839,0,0,0-1.376,1.66L67.57,330.3a1.829,1.829,0,0,0,1.725,1.922H75.04Zm0,0" transform="translate(-60.187 -282.556)" fill="#e9e9ea"/>
      <path id="Trazado_1010685" data-name="Trazado 1010685" d="M397.7,231.617a1.449,1.449,0,0,0-.306.022c0,.109.022.2.022.306v3.189a1.421,1.421,0,0,1-.022.306,1.925,1.925,0,1,0,.612-3.8c-.087,0-.2-.022-.306-.022Zm0,0" transform="translate(-353.996 -206.307)" fill="#f9d0b4"/>
      <path id="Trazado_1010686" data-name="Trazado 1010686" d="M338.654,301.562a4.728,4.728,0,0,1-2.053-.48v1.7l.721,2.1a.282.282,0,0,0,.284.2h2.228a.312.312,0,0,0,.284-.2l.721-2.1v-1.769A4.5,4.5,0,0,1,338.654,301.562Zm0,0" transform="translate(-299.839 -268.127)" fill="#f9d0b4"/>
      <path id="Trazado_1010687" data-name="Trazado 1010687" d="M322.24,213.323a.243.243,0,0,0-.241-.241,4.8,4.8,0,0,1-3.32-1.2.266.266,0,0,0-.349,0l-.022.022a4.429,4.429,0,0,1-2.228,1.529,2.616,2.616,0,0,1-2.686,2.555,1.93,1.93,0,0,1-.372-.044c0,.109-.022.2-.022.305v1.224a4.609,4.609,0,1,0,9.218,0v-4.107c.022,0,.022-.022.022-.044Zm0,0" transform="translate(-278.816 -188.669)" fill="#f9d0b4"/>
      <path id="Trazado_1010688" data-name="Trazado 1010688" d="M467.262,245.414a1.048,1.048,0,0,0-.262.022V248.6a1.6,1.6,0,0,0,.5-3.167.809.809,0,0,0-.241-.022Zm0,0" transform="translate(-415.996 -218.597)" fill="#f9d0b4"/>
      <path id="Trazado_1010689" data-name="Trazado 1010689" d="M417.925,303.5a3.724,3.724,0,0,1-1.726-.415v1.42l.612,1.747a.255.255,0,0,0,.24.174h1.857a.255.255,0,0,0,.24-.174l.612-1.747v-1.486A3.657,3.657,0,0,1,417.925,303.5Zm0,0" transform="translate(-370.744 -269.908)" fill="#f9d0b4"/>
      <path id="Trazado_1010690" data-name="Trazado 1010690" d="M404.667,229.881a.2.2,0,0,0-.2-.2,3.865,3.865,0,0,1-2.752-1,.186.186,0,0,0-.284,0,.021.021,0,0,1-.022.022,3.708,3.708,0,0,1-2.271,1.376,1.919,1.919,0,0,1-.961,2.534,1.875,1.875,0,0,1-1.092.131,5.514,5.514,0,0,1-.087.59,3.844,3.844,0,0,0,7.689,0V229.9C404.667,229.925,404.667,229.9,404.667,229.881Zm0,0" transform="translate(-353.642 -203.632)" fill="#f9d0b4"/>
      <path id="Trazado_1010691" data-name="Trazado 1010691" d="M95.987,235.092V231.9a1.35,1.35,0,0,1,.022-.306,1.928,1.928,0,0,0-.655,3.8,1.553,1.553,0,0,0,.634,0Zm0,0" transform="translate(-83.515 -206.266)" fill="#f9d0b4"/>
      <path id="Trazado_1010692" data-name="Trazado 1010692" d="M123.418,217.5v-.983c-.022-.175-.044-.372-.066-.546a2.651,2.651,0,0,1-2.861-3.6,4.388,4.388,0,0,1-.634-.481.266.266,0,0,0-.349,0l-.022.022a4.989,4.989,0,0,1-5,1.638.247.247,0,0,0-.284.2V217.5a4.609,4.609,0,0,0,9.218,0Zm0,0" transform="translate(-101.727 -188.669)" fill="#f9d0b4"/>
      <path id="Trazado_1010693" data-name="Trazado 1010693" d="M139.654,301.562a4.728,4.728,0,0,1-2.053-.48v1.7l.721,2.1a.282.282,0,0,0,.284.2h2.228a.312.312,0,0,0,.284-.2l.721-2.1v-1.769a4.5,4.5,0,0,1-2.184.546Zm0,0" transform="translate(-122.573 -268.127)" fill="#f9d0b4"/>
      <path id="Trazado_1010694" data-name="Trazado 1010694" d="M28.46,248.325v-2.9a1.607,1.607,0,0,0-.546,3.167,2.29,2.29,0,0,0,.546,0v-.262Zm0,0" transform="translate(-23.676 -218.581)" fill="#f9d0b4"/>
      <path id="Trazado_1010695" data-name="Trazado 1010695" d="M51.183,232.786a1.911,1.911,0,0,1-1.922-1.922,1.933,1.933,0,0,1,.611-1.42,3.628,3.628,0,0,1-1.354-.765.186.186,0,0,0-.284,0,.021.021,0,0,1-.022.022,4.193,4.193,0,0,1-4.172,1.376.2.2,0,0,0-.24.153v3.145a3.844,3.844,0,0,0,7.689,0v-.611a1.349,1.349,0,0,1-.306.022Zm0,0" transform="translate(-39.017 -203.632)" fill="#f9d0b4"/>
      <path id="Trazado_1010696" data-name="Trazado 1010696" d="M64.925,303.5a3.724,3.724,0,0,1-1.726-.415v1.42l.612,1.747a.255.255,0,0,0,.24.174h1.857a.255.255,0,0,0,.24-.174l.612-1.747v-1.486a3.657,3.657,0,0,1-1.835.48Zm0,0" transform="translate(-56.297 -269.908)" fill="#f9d0b4"/>
      <path id="Trazado_1010697" data-name="Trazado 1010697" d="M313.813,201.816a2.692,2.692,0,0,0-.415.044c0,.131.022.284.022.437v4.347a2.471,2.471,0,0,1-.022.415,2.632,2.632,0,1,0,.83-5.2A1.281,1.281,0,0,0,313.813,201.816Zm0,0" transform="translate(-279.171 -179.761)" fill="#f9d0b4"/>
      <path id="Trazado_1010698" data-name="Trazado 1010698" d="M172.914,206.5v-4.347a2.941,2.941,0,0,1,.022-.437,2.636,2.636,0,1,0-.874,5.2,2.94,2.94,0,0,0,.874,0C172.936,206.783,172.914,206.652,172.914,206.5Zm0,0" transform="translate(-151.311 -179.638)" fill="#f9d0b4"/>
      <path id="Trazado_1010699" data-name="Trazado 1010699" d="M205.251,174.656a6.837,6.837,0,0,1-6.858,2.25.329.329,0,0,0-.393.262v5.155a6.313,6.313,0,1,0,12.625,0v-5.745a.336.336,0,0,0-.328-.328,6.669,6.669,0,0,1-4.544-1.638.343.343,0,0,0-.48,0c0,.022-.022.022-.022.044Zm0,0" transform="translate(-176.375 -155.441)" fill="#f9d0b4"/>
      <path id="Trazado_1010700" data-name="Trazado 1010700" d="M232.818,297.2a6.022,6.022,0,0,1-2.818-.677v2.337l1.245,2.774a.576.576,0,0,0,.546.349h2.119a.6.6,0,0,0,.546-.349l1.354-2.8v-2.425a6.007,6.007,0,0,1-2.992.787Zm0,0" transform="translate(-204.881 -264.027)" fill="#f9d0b4"/>
      <path id="Trazado_1010701" data-name="Trazado 1010701" d="M339.941,173.331a2.687,2.687,0,0,0-1.354.371,2.66,2.66,0,0,0-2.25-1.289h-1.354a5.039,5.039,0,0,0-.983.109v3.845a2.608,2.608,0,0,1,.808,1.9v.087a4.668,4.668,0,0,0,2.228-1.529.246.246,0,0,1,.349-.044l.022.022a4.911,4.911,0,0,0,3.32,1.2.242.242,0,0,1,.24.24v.677a1.909,1.909,0,0,1,1.638.524v-3.473A2.686,2.686,0,0,0,339.941,173.331Zm0,0" transform="translate(-297.522 -153.57)" fill="#6d6c6b"/>
      <path id="Trazado_1010702" data-name="Trazado 1010702" d="M416.663,196.781a2.183,2.183,0,0,1-2.993-.765h-1.136a4.1,4.1,0,0,0-1.136.175,2.5,2.5,0,0,1,.131.808v3.473a2.408,2.408,0,0,1,.437.611,3.811,3.811,0,0,0,2.271-1.376.208.208,0,0,1,.284-.044.021.021,0,0,1,.022.022,4.02,4.02,0,0,0,2.752,1,.2.2,0,0,1,.2.2v.59a1.546,1.546,0,0,1,1.355.437v-2.883a2.206,2.206,0,0,0-2.184-2.25Zm0,0" transform="translate(-366.468 -174.594)" fill="#6d6c6b"/>
      <path id="Trazado_1010703" data-name="Trazado 1010703" d="M107.192,176.627a.246.246,0,0,1,.349-.044l.022.022a3.45,3.45,0,0,0,.634.481,2.732,2.732,0,0,1,.786-1.07v-2.621c-.066.044-.153.066-.218.109a2.66,2.66,0,0,0-2.25-1.289h-1.354a4.773,4.773,0,0,0-4.762,4.762v2.14a1.942,1.942,0,0,1,1.507-.393v-.218a.242.242,0,0,1,.24-.24h.044a4.98,4.98,0,0,0,5-1.638Zm0,0" transform="translate(-89.434 -153.392)" fill="#6d6c6b"/>
      <path id="Trazado_1010704" data-name="Trazado 1010704" d="M39.647,200.34V198.2a5,5,0,0,1,.2-1.376,1.731,1.731,0,0,0-.655.262,2.21,2.21,0,0,0-1.878-1.07H36.175a3.99,3.99,0,0,0-3.976,3.975v1.77a1.6,1.6,0,0,1,1.245-.328v-.175a.2.2,0,0,1,.218-.2h.044a4.145,4.145,0,0,0,4.172-1.376.208.208,0,0,1,.284-.044.021.021,0,0,1,.022.022,3.622,3.622,0,0,0,1.354.765.389.389,0,0,1,.109-.087Zm0,0" transform="translate(-28.682 -174.594)" fill="#6d6c6b"/>
      <path id="Trazado_1010705" data-name="Trazado 1010705" d="M181.015,129.662c.131,0,.262.022.415.022v-.306a.327.327,0,0,1,.349-.328h.066a6.848,6.848,0,0,0,6.859-2.25.345.345,0,0,1,.48-.066l.022.022a6.619,6.619,0,0,0,4.544,1.638.336.336,0,0,1,.328.328v.961a2.619,2.619,0,0,1,2.228.7v-4.718a3.608,3.608,0,0,0-3.6-3.6,3.386,3.386,0,0,0-1.835.524,3.6,3.6,0,0,0-3.1-1.769h-1.857a6.512,6.512,0,0,0-6.509,6.509v2.927a2.42,2.42,0,0,1,1.616-.59Zm0,0" transform="translate(-159.805 -107.607)" fill="#6d6c6b"/>
      <path id="Trazado_1010706" data-name="Trazado 1010706" d="M164.374,57.782a2.424,2.424,0,0,1-1.922-1.922.047.047,0,0,0-.044-.044c-.022,0-.022.022-.044.044a2.423,2.423,0,0,1-1.922,1.922.047.047,0,0,0-.044.044c0,.022.022.022.044.044a2.422,2.422,0,0,1,1.922,1.922.048.048,0,0,0,.044.044c.022,0,.022-.022.044-.044a2.423,2.423,0,0,1,1.922-1.922.047.047,0,0,0,.044-.044Zm0,0" transform="translate(-142.881 -49.706)" fill="#fcd770"/>
      <path id="Trazado_1010707" data-name="Trazado 1010707" d="M392.446,128.108h-1.9a.546.546,0,1,1,0-1.092h1.9a.546.546,0,1,1,0,1.092Zm0,0" transform="translate(-347.406 -113.13)" fill="#f75c64"/>
      <path id="Trazado_1010708" data-name="Trazado 1010708" d="M399.347,121.207a.541.541,0,0,1-.546-.546v-1.9a.546.546,0,1,1,1.092,0v1.9A.541.541,0,0,1,399.347,121.207Zm0,0" transform="translate(-355.246 -105.29)" fill="#f75c64"/>
      <path id="Trazado_1010709" data-name="Trazado 1010709" d="M344.347,88.5a.627.627,0,0,1-.393-.153.3.3,0,0,1-.065-.087.163.163,0,0,1-.044-.087.2.2,0,0,1-.022-.109c0-.044-.022-.065-.022-.109a.2.2,0,0,1,.022-.109c0-.044.022-.065.022-.109.022-.044.022-.065.044-.087s.043-.066.065-.087a.537.537,0,0,1,.59-.109c.022.022.065.022.087.044s.066.044.087.066a.3.3,0,0,1,.066.087.392.392,0,0,1,.065.2.193.193,0,0,0,.022.109.193.193,0,0,1-.022.109c0,.044-.022.066-.022.109-.022.044-.022.066-.044.087s-.044.066-.066.087a.3.3,0,0,1-.087.066.165.165,0,0,1-.087.044.2.2,0,0,1-.109.022C344.412,88.5,344.391,88.5,344.347,88.5Zm0,0" transform="translate(-306.253 -77.848)" fill="#fcd770"/>
      <path id="Trazado_1010710" data-name="Trazado 1010710" d="M244.646,9.709h-1.9a.546.546,0,1,1,0-1.092h1.9a.546.546,0,0,1,0,1.092Zm0,0" transform="translate(-215.748 -7.662)" fill="#60bae2"/>
      <path id="Trazado_1010711" data-name="Trazado 1010711" d="M251.546,3.008A.541.541,0,0,1,251,2.462V.562a.546.546,0,1,1,1.092,0v1.9A.541.541,0,0,1,251.546,3.008Zm0,0" transform="translate(-223.587)" fill="#60bae2"/>
      <path id="Trazado_1010712" data-name="Trazado 1010712" d="M66.745,116.842h-.109c-.044,0-.065-.022-.109-.022-.044-.022-.065-.022-.087-.044s-.065-.044-.087-.066a.526.526,0,0,1-.153-.393v-.109c0-.044.022-.066.022-.109.022-.044.022-.066.044-.087s.044-.066.065-.087a.309.309,0,0,1,.087-.065.164.164,0,0,1,.087-.044.464.464,0,0,1,.415,0c.044.022.065.022.087.044a.506.506,0,0,1,.153.153.166.166,0,0,1,.044.087.194.194,0,0,1,.022.109c0,.044.022.065,0,.109a.627.627,0,0,1-.153.393.29.29,0,0,1-.087.066.165.165,0,0,1-.087.044.2.2,0,0,1-.109.022Zm0,0" transform="translate(-58.969 -103.109)" fill="#6dcc6d"/>
      <g id="Grupo_1180740" data-name="Grupo 1180740" transform="translate(0 12.663)">
        <path id="Trazado_1010713" data-name="Trazado 1010713" d="M393.237,231.468a2.367,2.367,0,0,1-.393-.044.53.53,0,0,1-.459-.568v-3.735a.53.53,0,0,1,.459-.568,2.478,2.478,0,0,1,.786,4.893,2.132,2.132,0,0,1-.393.022Zm.262-3.823v2.709a1.375,1.375,0,0,0,0-2.709Zm0,0" transform="translate(-349.529 -214.431)" fill="#231f20"/>
        <path id="Trazado_1010714" data-name="Trazado 1010714" d="M400.944,387.818a.541.541,0,0,1-.546-.546v-7.711a.546.546,0,1,1,1.092,0v7.711A.541.541,0,0,1,400.944,387.818Zm0,0" transform="translate(-356.669 -350.27)" fill="#231f20"/>
        <path id="Trazado_1010715" data-name="Trazado 1010715" d="M335.38,301.313h-2.228a.847.847,0,0,1-.808-.568l-.721-2.1a.483.483,0,0,1-.022-.175v-1.7a.541.541,0,0,1,.546-.546.442.442,0,0,1,.24.065,4.03,4.03,0,0,0,1.813.437,4.174,4.174,0,0,0,1.922-.48.546.546,0,0,1,.743.218.583.583,0,0,1,.065.262v1.769a.427.427,0,0,1-.022.175l-.721,2.1A.915.915,0,0,1,335.38,301.313Zm-2.053-1.092h1.879l.633-1.835v-.852a5.224,5.224,0,0,1-3.167.044v.808Zm0,0" transform="translate(-295.386 -276.477)" fill="#231f20"/>
        <path id="Trazado_1010716" data-name="Trazado 1010716" d="M338.308,175.7a.57.57,0,0,1-.372-.153,1.368,1.368,0,0,0-1.18-.371.56.56,0,0,1-.633-.459v-.481a5.479,5.479,0,0,1-3.145-1.114,5.1,5.1,0,0,1-2.272,1.486.54.54,0,0,1-.677-.35.481.481,0,0,1-.022-.174V174a2.153,2.153,0,0,0-.634-1.507.547.547,0,0,1-.175-.393V168.25a.519.519,0,0,1,.437-.524,4.632,4.632,0,0,1,1.092-.109h1.355a3.133,3.133,0,0,1,2.424,1.136,3.062,3.062,0,0,1,1.18-.218,3.193,3.193,0,0,1,3.189,3.189V175.2a.587.587,0,0,1-.568.5Zm-1.092-1.616a4.773,4.773,0,0,1,.546.109V171.68a2.093,2.093,0,0,0-2.075-2.1,2.172,2.172,0,0,0-1.092.305.539.539,0,0,1-.743-.2,2.073,2.073,0,0,0-1.791-1.027h-1.354a2.938,2.938,0,0,0-.437.022v3.167a2.943,2.943,0,0,1,.721,1.42,4.02,4.02,0,0,0,1.332-1.092.8.8,0,0,1,1.114-.131l.066.066a4.328,4.328,0,0,0,2.949,1.048.794.794,0,0,1,.765.787Zm0,0" transform="translate(-293.246 -161.96)" fill="#231f20"/>
        <path id="Trazado_1010717" data-name="Trazado 1010717" d="M313.354,218.247a5.164,5.164,0,0,1-5.155-5.155V211.8a1.252,1.252,0,0,0,.022-.284.543.543,0,0,1,.59-.5h.044a2.08,2.08,0,0,0,2.4-1.682,1.445,1.445,0,0,0,.022-.305.513.513,0,0,1,.393-.5,4.112,4.112,0,0,0,1.966-1.354.8.8,0,0,1,1.114-.131l.066.066a4.331,4.331,0,0,0,2.949,1.049.793.793,0,0,1,.764.786v4.194A5.189,5.189,0,0,1,313.354,218.247Zm-4.063-6.116v.961a4.063,4.063,0,0,0,8.126,0V209.2a5.479,5.479,0,0,1-3.145-1.114,5.048,5.048,0,0,1-1.944,1.354A3.157,3.157,0,0,1,309.291,212.131Zm8.41-2.905" transform="translate(-274.539 -196.928)" fill="#231f20"/>
        <path id="Trazado_1010718" data-name="Trazado 1010718" d="M462.794,244.835a1.885,1.885,0,0,1-.349-.022.53.53,0,0,1-.459-.568v-3.1a.53.53,0,0,1,.459-.568,2.156,2.156,0,1,1,.677,4.259,1.643,1.643,0,0,0-.328,0Zm.306-3.167V243.7a1.072,1.072,0,0,0,.721-1.311A1.083,1.083,0,0,0,463.1,241.668Zm0,0" transform="translate(-411.529 -226.924)" fill="#231f20"/>
        <path id="Trazado_1010719" data-name="Trazado 1010719" d="M469.148,374.751a.541.541,0,0,1-.546-.546v-6.444a.546.546,0,0,1,1.092,0V374.2A.541.541,0,0,1,469.148,374.751Zm0,0" transform="translate(-417.424 -339.759)" fill="#231f20"/>
        <path id="Trazado_1010720" data-name="Trazado 1010720" d="M414.454,302.657H412.6a.821.821,0,0,1-.764-.546l-.612-1.747a.481.481,0,0,1-.022-.174v-1.42a.541.541,0,0,1,.546-.546.44.44,0,0,1,.24.065,3.143,3.143,0,0,0,1.464.349,3.293,3.293,0,0,0,1.573-.393.546.546,0,0,1,.743.218.583.583,0,0,1,.066.262v1.485a.419.419,0,0,1-.022.174l-.611,1.747A.8.8,0,0,1,414.454,302.657Zm-1.66-1.092h1.442l.5-1.463v-.568a4.435,4.435,0,0,1-2.447.044v.546Zm0,0" transform="translate(-366.29 -278.259)" fill="#231f20"/>
        <path id="Trazado_1010721" data-name="Trazado 1010721" d="M392.594,314.867a.277.277,0,0,1-.131-.022l-3.036-.764c-.044,0-.066-.022-.109-.044l-.131-.065a.542.542,0,0,1-.241-.721.51.51,0,0,1,.35-.284l.59-.153,1.747-.852a.542.542,0,0,1,.721.241c0,.022.022.044.022.065l.568,1.66a.548.548,0,0,1,.044.764A.479.479,0,0,1,392.594,314.867Zm-1.42-1.486.5.131-.109-.328Zm0,0" transform="translate(-346.418 -290.491)" fill="#231f20"/>
        <path id="Trazado_1010722" data-name="Trazado 1010722" d="M427.11,325.291h-5.242a.55.55,0,0,1-.546-.524l-.5-8.824a1.234,1.234,0,0,0-.961-1.158l-.437-.109a.533.533,0,0,1-.393-.655.558.558,0,0,1,.524-.415h1.638l.546-1.551a.542.542,0,0,1,.7-.328c.022,0,.044.022.066.022l1.747.852,2.927.743a2.047,2.047,0,0,1,1.551,1.878l.437,7.885a2.072,2.072,0,0,1-1.944,2.184Zm-4.74-1.092h4.74a.956.956,0,0,0,.961-.961v-.044l-.437-7.885a1,1,0,0,0-.743-.9l-2.992-.743c-.044,0-.066-.022-.109-.044l-1.245-.611-.393,1.157a.778.778,0,0,1-.655.524,2.556,2.556,0,0,1,.415,1.2Zm0,0" transform="translate(-373.245 -290.299)" fill="#231f20"/>
        <path id="Trazado_1010723" data-name="Trazado 1010723" d="M414.374,198.117a.569.569,0,0,1-.372-.153,1.047,1.047,0,0,0-.9-.284.56.56,0,0,1-.634-.459v-.328a4.624,4.624,0,0,1-2.534-.9,4.393,4.393,0,0,1-2.359,1.311.571.571,0,0,1-.611-.306,1.223,1.223,0,0,0-.306-.437.5.5,0,0,1-.153-.415v-3.429a2.039,2.039,0,0,0-.109-.634.539.539,0,0,1,.349-.677h.022a4.293,4.293,0,0,1,1.289-.2H409.2a2.754,2.754,0,0,1,2.053.939,2.878,2.878,0,0,1,.961-.175,2.769,2.769,0,0,1,2.752,2.752v2.884A.61.61,0,0,1,414.374,198.117Zm-.808-1.507a1.158,1.158,0,0,1,.262.065V194.71a1.655,1.655,0,0,0-1.638-1.66,1.673,1.673,0,0,0-.852.24.538.538,0,0,1-.743-.2,1.651,1.651,0,0,0-1.42-.808H408.04a3.589,3.589,0,0,0-.481.044,2.384,2.384,0,0,1,.022.393v3.255c.044.065.109.131.153.2a3.22,3.22,0,0,0,1.573-1.092.761.761,0,0,1,1.049-.131c.022.022.044.044.065.044a3.38,3.38,0,0,0,2.4.83.747.747,0,0,1,.721.743Zm0,0" transform="translate(-361.995 -182.98)" fill="#231f20"/>
        <path id="Trazado_1010724" data-name="Trazado 1010724" d="M396.191,233.495a4.391,4.391,0,0,1-4.39-4.39V229a2.162,2.162,0,0,0,.065-.524.543.543,0,0,1,.59-.5h.043a.748.748,0,0,0,.218.022,1.371,1.371,0,0,0,1.376-1.376,1.529,1.529,0,0,0-.109-.546.535.535,0,0,1,.284-.721c.044-.022.066-.022.109-.044a3.223,3.223,0,0,0,1.944-1.2.761.761,0,0,1,1.049-.131c.022.022.044.044.065.044a3.38,3.38,0,0,0,2.4.83.746.746,0,0,1,.721.743v3.495a4.363,4.363,0,0,1-4.369,4.412Zm-3.3-4.346a3.3,3.3,0,1,0,6.6-.044v-3.167a4.625,4.625,0,0,1-2.534-.9,4.237,4.237,0,0,1-1.791,1.158,2.474,2.474,0,0,1-2.053,2.84.676.676,0,0,1-.218.022Zm0,0" transform="translate(-349.01 -212.023)" fill="#231f20"/>
        <path id="Trazado_1010725" data-name="Trazado 1010725" d="M91.268,231.553a2.468,2.468,0,0,1,0-4.936,2.383,2.383,0,0,1,.393.022.529.529,0,0,1,.459.568v3.735a.529.529,0,0,1-.459.568A1.2,1.2,0,0,1,91.268,231.553Zm-.24-3.823a1.388,1.388,0,0,0,0,2.73Zm0,0" transform="translate(-79.102 -214.516)" fill="#231f20"/>
        <path id="Trazado_1010726" data-name="Trazado 1010726" d="M114.354,218.247a5.164,5.164,0,0,1-5.155-5.155v-3.713a.783.783,0,0,1,.786-.786.326.326,0,0,1,.153.022,4.432,4.432,0,0,0,4.456-1.442.8.8,0,0,1,1.114-.131l.065.066a3.018,3.018,0,0,0,.524.393.522.522,0,0,1,.218.677,2.082,2.082,0,0,0,2.272,2.861.56.56,0,0,1,.634.459v.044a3.507,3.507,0,0,0,.065.5v1.07a5.127,5.127,0,0,1-5.133,5.133Zm-4.063-8.5v3.364a4.063,4.063,0,0,0,8.126,0v-.961a3.208,3.208,0,0,1-3.124-3.255,3.578,3.578,0,0,1,.087-.7c-.044-.044-.087-.066-.131-.109A5.487,5.487,0,0,1,110.291,209.75Zm0,0" transform="translate(-97.273 -196.928)" fill="#231f20"/>
        <path id="Trazado_1010727" data-name="Trazado 1010727" d="M95.944,175.387a.541.541,0,0,1-.546-.546v-2.119a5.314,5.314,0,0,1,5.308-5.308h1.354a3.193,3.193,0,0,1,2.468,1.18.5.5,0,0,1,.306.087.594.594,0,0,1,.262.459v2.621a.549.549,0,0,1-.2.437,1.971,1.971,0,0,0-.633.83.556.556,0,0,1-.721.306c-.022,0-.044-.022-.066-.044-.174-.109-.328-.218-.5-.349a5.533,5.533,0,0,1-5,1.66.54.54,0,0,1-.612.393,1.365,1.365,0,0,0-1.07.284A.514.514,0,0,1,95.944,175.387Zm4.762-6.881a4.2,4.2,0,0,0-4.216,4.216v1.245a3.723,3.723,0,0,1,.481-.087.806.806,0,0,1,.874-.437A4.432,4.432,0,0,0,102.3,172a.8.8,0,0,1,1.114-.131l.065.066.066.065a3.122,3.122,0,0,1,.437-.5v-1.813a.506.506,0,0,1-.153-.153,2.073,2.073,0,0,0-1.791-1.027Zm2.053,3.845" transform="translate(-84.979 -161.779)" fill="#231f20"/>
        <path id="Trazado_1010728" data-name="Trazado 1010728" d="M101.944,387.818a.541.541,0,0,1-.546-.546v-7.711a.546.546,0,1,1,1.092,0v7.711A.541.541,0,0,1,101.944,387.818Zm0,0" transform="translate(-90.324 -350.27)" fill="#231f20"/>
        <path id="Trazado_1010729" data-name="Trazado 1010729" d="M136.38,301.313h-2.228a.847.847,0,0,1-.808-.568l-.721-2.1a.483.483,0,0,1-.022-.175v-1.7a.541.541,0,0,1,.546-.546.442.442,0,0,1,.24.065,4.03,4.03,0,0,0,1.813.437,4.174,4.174,0,0,0,1.922-.48.546.546,0,0,1,.743.218.583.583,0,0,1,.065.262v1.769a.427.427,0,0,1-.022.175l-.721,2.1a.915.915,0,0,1-.808.546Zm-2.053-1.092h1.879l.633-1.835v-.852a5.224,5.224,0,0,1-3.167.044v.808Zm0,0" transform="translate(-118.119 -276.477)" fill="#231f20"/>
        <path id="Trazado_1010730" data-name="Trazado 1010730" d="M24.141,244.9a2.141,2.141,0,1,1,0-4.281,1.885,1.885,0,0,1,.349.022.53.53,0,0,1,.459.568v3.08a.53.53,0,0,1-.459.568,2.14,2.14,0,0,1-.349.044Zm-.306-3.167a1.072,1.072,0,0,0-.721,1.311,1.083,1.083,0,0,0,.721.721Zm0,0" transform="translate(-19.597 -226.987)" fill="#231f20"/>
        <path id="Trazado_1010731" data-name="Trazado 1010731" d="M43.191,233.317a4.391,4.391,0,0,1-4.39-4.39V225.8a.755.755,0,0,1,.764-.743.278.278,0,0,1,.131.022,3.553,3.553,0,0,0,3.626-1.18.761.761,0,0,1,1.049-.131c.022.022.044.044.065.044a2.549,2.549,0,0,0,1.136.634.54.54,0,0,1,.349.677.568.568,0,0,1-.153.241,1.372,1.372,0,0,0-.437,1,1.352,1.352,0,0,0,1.354,1.376.82.82,0,0,0,.24-.022.561.561,0,0,1,.634.459v.7a4.368,4.368,0,0,1-4.369,4.434Zm-3.3-7.077v2.686a3.3,3.3,0,1,0,6.6,0v-.044a2.471,2.471,0,0,1-2.228-2.687,2.348,2.348,0,0,1,.284-.939,3.9,3.9,0,0,1-.59-.372,4.733,4.733,0,0,1-4.063,1.354Zm0,0" transform="translate(-34.563 -211.846)" fill="#231f20"/>
        <path id="Trazado_1010732" data-name="Trazado 1010732" d="M27.944,197.853a.541.541,0,0,1-.546-.546v-1.77a4.531,4.531,0,0,1,4.522-4.521h1.136a2.754,2.754,0,0,1,2.053.939,1.823,1.823,0,0,1,.371-.109.546.546,0,0,1,.655.415.615.615,0,0,1,0,.284,4.565,4.565,0,0,0-.174,1.2v2.141a.551.551,0,0,1-.2.437l-.066.065a.551.551,0,0,1-.546.109,4.769,4.769,0,0,1-1.288-.655,4.65,4.65,0,0,1-4.107,1.355.531.531,0,0,1-.59.328,1.053,1.053,0,0,0-.83.218.977.977,0,0,1-.393.109Zm3.976-5.745a3.421,3.421,0,0,0-3.43,3.429v.939c.087-.022.175-.022.262-.044a.748.748,0,0,1,.808-.372,3.551,3.551,0,0,0,3.626-1.18.761.761,0,0,1,1.049-.131c.022.022.044.044.066.044a1.767,1.767,0,0,0,.524.371v-1.42a4.86,4.86,0,0,1,.022-.568.5.5,0,0,1-.393-.262,1.651,1.651,0,0,0-1.42-.808Zm3.451,3.779" transform="translate(-24.406 -182.803)" fill="#231f20"/>
        <path id="Trazado_1010733" data-name="Trazado 1010733" d="M32.944,374.751a.541.541,0,0,1-.546-.546v-6.444a.546.546,0,0,1,1.092,0V374.2A.541.541,0,0,1,32.944,374.751Zm0,0" transform="translate(-28.86 -339.759)" fill="#231f20"/>
        <path id="Trazado_1010734" data-name="Trazado 1010734" d="M61.454,302.657H59.6a.821.821,0,0,1-.765-.546l-.612-1.747a.481.481,0,0,1-.022-.174v-1.42a.541.541,0,0,1,.546-.546.44.44,0,0,1,.24.065,3.143,3.143,0,0,0,1.464.349,3.293,3.293,0,0,0,1.573-.393.546.546,0,0,1,.743.218.583.583,0,0,1,.066.262v1.485a.419.419,0,0,1-.022.174l-.611,1.747a.762.762,0,0,1-.743.524Zm-1.638-1.092h1.442l.5-1.463v-.568a4.435,4.435,0,0,1-2.447.044v.546Zm0,0" transform="translate(-51.843 -278.259)" fill="#231f20"/>
        <path id="Trazado_1010735" data-name="Trazado 1010735" d="M7.427,325.469H2.053A2.051,2.051,0,0,1,0,323.416v-.109l.437-7.885a2.047,2.047,0,0,1,1.551-1.878l2.927-.743,1.747-.852a.542.542,0,0,1,.721.241c0,.022.022.044.022.065l.546,1.551H9.392l.546-1.551a.543.543,0,0,1,.7-.328c.022,0,.044.022.066.022l1.747.852.655.175a.533.533,0,0,1,.393.655.575.575,0,0,1-.284.349l-.109.044c-.044.022-.066.022-.109.044l-3.582.9a1.255,1.255,0,0,0-.961,1.158l-.5,8.824a.517.517,0,0,1-.524.524Zm-.83-12.3-1.245.611c-.044.022-.066.022-.109.044l-2.992.742a.978.978,0,0,0-.743.9L1.07,323.35a.962.962,0,0,0,.917,1.026H6.859l.459-8.322a2.309,2.309,0,0,1,.393-1.2.821.821,0,0,1-.765-.546Zm4.172,0-.131.349.546-.131Zm0,0" transform="translate(0 -290.477)" fill="#231f20"/>
        <path id="Trazado_1010736" data-name="Trazado 1010736" d="M309.346,203.184a3.6,3.6,0,0,1-.5-.044.53.53,0,0,1-.459-.568c0-.131.022-.262.022-.393v-4.347a2.342,2.342,0,0,0-.022-.393.53.53,0,0,1,.459-.568,3.185,3.185,0,0,1,1,6.291,3.72,3.72,0,0,1-.5.022Zm.153-5.264v4.172a2.083,2.083,0,0,0,1.944-2.228A2.108,2.108,0,0,0,309.5,197.92Zm0,0" transform="translate(-274.703 -187.982)" fill="#231f20"/>
        <path id="Trazado_1010737" data-name="Trazado 1010737" d="M168.189,203.173A3.193,3.193,0,0,1,165,199.984a3.16,3.16,0,0,1,3.189-3.167,3.6,3.6,0,0,1,.5.044.53.53,0,0,1,.459.568c0,.131-.022.262-.022.393v4.347a2.38,2.38,0,0,0,.022.393.53.53,0,0,1-.459.568A1.882,1.882,0,0,1,168.189,203.173Zm-.131-5.264a2.091,2.091,0,0,0,0,4.172Zm0,0" transform="translate(-146.979 -187.97)" fill="#231f20"/>
        <path id="Trazado_1010738" data-name="Trazado 1010738" d="M199.859,184.834A6.871,6.871,0,0,1,193,177.975v-5.068a.877.877,0,0,1,.874-.874.421.421,0,0,1,.175.022A6.26,6.26,0,0,0,200.361,170a.877.877,0,0,1,1.245-.153l.065.066a6.21,6.21,0,0,0,4.172,1.486.871.871,0,0,1,.852.874V178A6.833,6.833,0,0,1,199.859,184.834Zm-5.767-11.686v4.827a5.767,5.767,0,1,0,11.533,0v-5.5a7.068,7.068,0,0,1-4.544-1.638A7.382,7.382,0,0,1,194.092,173.148Zm6.706-2.818" transform="translate(-171.922 -163.777)" fill="#231f20"/>
        <path id="Trazado_1010739" data-name="Trazado 1010739" d="M191.652,126.5a.569.569,0,0,1-.371-.153,2.131,2.131,0,0,0-1.442-.59,1.659,1.659,0,0,0-.328.022.56.56,0,0,1-.633-.459v-.83a7.068,7.068,0,0,1-4.544-1.638,7.315,7.315,0,0,1-6.99,2.315v.044a.541.541,0,0,1-.546.546h-.087a1.659,1.659,0,0,0-.328-.022,2.04,2.04,0,0,0-1.311.459.53.53,0,0,1-.764-.087.481.481,0,0,1-.109-.349v-2.884a7.066,7.066,0,0,1,7.055-7.055h1.857a4.106,4.106,0,0,1,3.276,1.616,3.971,3.971,0,0,1,1.66-.35,4.148,4.148,0,0,1,4.15,4.15v4.74a.537.537,0,0,1-.546.524Zm-1.682-1.835a3.321,3.321,0,0,1,1.136.262v-3.713a3.048,3.048,0,0,0-3.036-3.058,2.991,2.991,0,0,0-1.573.437.538.538,0,0,1-.743-.2,3.131,3.131,0,0,0-2.621-1.507h-1.857a5.957,5.957,0,0,0-5.963,5.963v1.988a3.9,3.9,0,0,1,1.005-.2.887.887,0,0,1,.284-.415.827.827,0,0,1,.743-.175A6.26,6.26,0,0,0,183.657,122a.877.877,0,0,1,1.245-.153l.066.066a6.211,6.211,0,0,0,4.172,1.485.872.872,0,0,1,.852.874v.109Zm0,0" transform="translate(-155.174 -115.816)" fill="#231f20"/>
        <path id="Trazado_1010740" data-name="Trazado 1010740" d="M251.967,369.108a.63.63,0,0,1-.393-.153.317.317,0,0,1-.066-.087.778.778,0,0,1-.087-.2c0-.044-.022-.066-.022-.109a.541.541,0,0,1,.546-.546h.109c.044,0,.066.022.109.022.022.022.066.022.087.044s.066.044.087.065a.526.526,0,0,1,.153.393v.109a.785.785,0,0,1-.087.2c-.022.022-.044.065-.066.087a.291.291,0,0,1-.087.066.165.165,0,0,1-.087.043.193.193,0,0,1-.109.022A.087.087,0,0,1,251.967,369.108Zm0,0" transform="translate(-223.942 -340.472)" fill="#231f20"/>
        <path id="Trazado_1010741" data-name="Trazado 1010741" d="M252.058,395.13a.2.2,0,0,1-.109-.022c-.044,0-.066-.022-.109-.022-.022-.022-.066-.022-.087-.044s-.066-.044-.087-.066a.528.528,0,0,1,0-.764.3.3,0,0,1,.087-.065.166.166,0,0,1,.087-.044.2.2,0,0,1,.109-.022.373.373,0,0,1,.218,0c.044,0,.065.022.109.022.044.022.065.022.087.044s.066.044.087.065a.528.528,0,0,1,0,.764.29.29,0,0,1-.087.066.165.165,0,0,1-.087.044.2.2,0,0,1-.109.022A.239.239,0,0,1,252.058,395.13Zm0,0" transform="translate(-224.033 -363.676)" fill="#231f20"/>
        <path id="Trazado_1010742" data-name="Trazado 1010742" d="M252.148,420.752a.194.194,0,0,1-.109-.022c-.044,0-.066-.022-.109-.022-.022-.022-.066-.022-.087-.044s-.066-.044-.087-.066a.526.526,0,0,1-.153-.393.627.627,0,0,1,.153-.393.569.569,0,0,1,.764,0,.526.526,0,0,1,.153.393A.51.51,0,0,1,252.148,420.752Zm0,0" transform="translate(-224.123 -386.48)" fill="#231f20"/>
        <path id="Trazado_1010743" data-name="Trazado 1010743" d="M252.012,446.576a.2.2,0,0,1-.109-.022c-.044,0-.066-.022-.109-.022-.044-.022-.066-.022-.087-.043a.514.514,0,0,1-.153-.153.164.164,0,0,1-.044-.087c-.022-.044-.022-.065-.044-.109a.367.367,0,0,1,0-.218c0-.044.022-.065.044-.109s.022-.065.044-.087a.514.514,0,0,1,.153-.153.165.165,0,0,1,.087-.044.2.2,0,0,1,.109-.022.489.489,0,0,1,.48.153.306.306,0,0,1,.066.087.165.165,0,0,1,.044.087.2.2,0,0,1,.022.109.373.373,0,0,1,0,.218c0,.043-.022.065-.022.109-.022.044-.022.065-.044.087a.514.514,0,0,1-.153.153.165.165,0,0,1-.087.044.2.2,0,0,1-.109.022Zm0,0" transform="translate(-223.988 -409.487)" fill="#231f20"/>
        <path id="Trazado_1010744" data-name="Trazado 1010744" d="M252.148,472.065a.541.541,0,0,1-.546-.546v-.109c0-.044.022-.066.044-.109s.022-.066.044-.087.044-.065.066-.087a.563.563,0,0,1,.48-.153c.044,0,.066.022.109.022.022.022.066.022.087.044s.066.044.087.065a.312.312,0,0,1,.066.087.166.166,0,0,1,.044.087.164.164,0,0,1,.022.109.2.2,0,0,0,.022.109.627.627,0,0,1-.153.393.29.29,0,0,1-.087.066.165.165,0,0,1-.087.044.194.194,0,0,1-.109.022A.087.087,0,0,1,252.148,472.065Zm0,0" transform="translate(-224.123 -432.179)" fill="#231f20"/>
        <path id="Trazado_1010745" data-name="Trazado 1010745" d="M326.347,416.879a.541.541,0,0,1-.546-.546V405.761a.546.546,0,0,1,1.092,0v10.572A.555.555,0,0,1,326.347,416.879Zm0,0" transform="translate(-290.219 -373.609)" fill="#231f20"/>
        <path id="Trazado_1010746" data-name="Trazado 1010746" d="M177.944,416.879a.541.541,0,0,1-.546-.546V405.761a.546.546,0,1,1,1.092,0v10.572A.541.541,0,0,1,177.944,416.879Zm0,0" transform="translate(-158.023 -373.609)" fill="#231f20"/>
        <path id="Trazado_1010747" data-name="Trazado 1010747" d="M229.456,298.42h-2.119a1.15,1.15,0,0,1-1.048-.677l-1.245-2.774a.779.779,0,0,1-.044-.218v-2.337a.541.541,0,0,1,.546-.546.441.441,0,0,1,.24.065,5.811,5.811,0,0,0,2.578.612,5.639,5.639,0,0,0,2.73-.7.547.547,0,0,1,.743.218.585.585,0,0,1,.065.262v2.424a.786.786,0,0,1-.044.24l-1.355,2.8a1.172,1.172,0,0,1-1.048.634Zm-3.364-3.8,1.2,2.665a.047.047,0,0,0,.044.044h2.119a.076.076,0,0,0,.044-.022l1.311-2.686v-1.464a6.752,6.752,0,0,1-4.718.066Zm0,0" transform="translate(-200.427 -272.558)" fill="#231f20"/>
        <path id="Trazado_1010748" data-name="Trazado 1010748" d="M154.332,335.543H130.808a2.2,2.2,0,0,1-2.206-2.206v-.131l.764-13.827a3.024,3.024,0,0,1,2.294-2.774l4.849-1.224,2.905-1.42a.542.542,0,0,1,.721.241v.022L141.38,317a.047.047,0,0,0,.044.044h2.119a.076.076,0,0,0,.044-.022l1.354-2.8a.551.551,0,0,1,.721-.262l2.9,1.42,4.849,1.224a3.025,3.025,0,0,1,2.294,2.774l.764,13.827a2.2,2.2,0,0,1-2.075,2.315c.022.022-.022.022-.066.022Zm-14.941-20.357-2.446,1.2c-.044.022-.066.022-.109.044l-4.893,1.223a1.909,1.909,0,0,0-1.463,1.769l-.765,13.827a1.088,1.088,0,0,0,1.048,1.158h23.59a1.119,1.119,0,0,0,1.114-1.114v-.065L154.7,319.4a1.909,1.909,0,0,0-1.464-1.769l-4.893-1.223c-.044,0-.065-.022-.109-.044l-2.446-1.2-1.114,2.294a1.16,1.16,0,0,1-1.027.655h-2.119a1.15,1.15,0,0,1-1.049-.677Zm0,0" transform="translate(-114.557 -292.272)" fill="#231f20"/>
        <path id="Trazado_1010749" data-name="Trazado 1010749" d="M235.673,258.9a3.007,3.007,0,0,1-2.468-1.311.551.551,0,1,1,.917-.612,1.876,1.876,0,0,0,2.621.5,1.835,1.835,0,0,0,.5-.5.578.578,0,0,1,.764-.153.553.553,0,0,1,.153.765,3.075,3.075,0,0,1-2.49,1.311Zm0,0" transform="translate(-207.648 -241.334)" fill="#231f20"/>
        <path id="Trazado_1010750" data-name="Trazado 1010750" d="M230.058,222.361a.2.2,0,0,1-.109-.022c-.044,0-.066-.022-.109-.022-.044-.022-.066-.022-.087-.044s-.066-.044-.087-.065a.528.528,0,0,1,0-.764.29.29,0,0,1,.087-.066.165.165,0,0,1,.087-.044.194.194,0,0,1,.109-.022.52.52,0,0,1,.633.437.534.534,0,0,1-.437.634C230.123,222.339,230.079,222.361,230.058,222.361Zm0,0" transform="translate(-204.436 -209.779)" fill="#231f20"/>
        <path id="Trazado_1010751" data-name="Trazado 1010751" d="M274.058,222.361a.2.2,0,0,1-.109-.022c-.044,0-.066-.022-.109-.022-.044-.022-.066-.022-.087-.044s-.066-.044-.087-.065a.528.528,0,0,1,0-.764.29.29,0,0,1,.087-.066.165.165,0,0,1,.087-.044.194.194,0,0,1,.109-.022.544.544,0,0,1,.2,1.07C274.123,222.339,274.1,222.361,274.058,222.361Zm0,0" transform="translate(-243.63 -209.779)" fill="#231f20"/>
        <path id="Trazado_1010752" data-name="Trazado 1010752" d="M268.611,320.24a1.108,1.108,0,0,1-.852-.415l-1.922-2.381a.576.576,0,0,1-.066-.59l1.354-2.8a.551.551,0,0,1,.721-.262l2.949,1.464a.545.545,0,0,1,.262.7l-1.464,3.582a1.131,1.131,0,0,1-.852.677C268.721,320.24,268.655,320.24,268.611,320.24Zm-1.7-3.211,1.7,2.119,1.267-3.123-2.01-.983Zm0,0" transform="translate(-236.699 -292.128)" fill="#231f20"/>
        <path id="Trazado_1010753" data-name="Trazado 1010753" d="M200.524,320.206a.373.373,0,0,1-.153-.022,1.048,1.048,0,0,1-.852-.677l-1.464-3.582a.545.545,0,0,1,.262-.7l2.949-1.464a.542.542,0,0,1,.721.24v.022l1.245,2.774a.558.558,0,0,1-.022.655l-1.857,2.315A1,1,0,0,1,200.524,320.206Zm-1.289-4.215,1.267,3.123,1.638-2.053-.918-2.053Zm0,0" transform="translate(-176.388 -292.094)" fill="#231f20"/>
        <path id="Trazado_1010754" data-name="Trazado 1010754" d="M278.011,420.709h-2.665a.546.546,0,0,1,0-1.092h2.665a.541.541,0,0,1,.546.546A.555.555,0,0,1,278.011,420.709Zm0,0" transform="translate(-244.788 -386.438)" fill="#231f20"/>
        <path id="Trazado_1010755" data-name="Trazado 1010755" d="M314.683,328.56h-5.614a.551.551,0,0,1-.546-.524l-.546-9.851a1.909,1.909,0,0,0-1.463-1.77l-4.893-1.223c-.044,0-.065-.022-.109-.044l-.524-.262a.542.542,0,0,1-.24-.721.51.51,0,0,1,.349-.284l1.2-.306,2.1-1.026a.542.542,0,0,1,.721.24c0,.022.022.044.022.066l.677,1.922h1.878l.677-1.922a.542.542,0,0,1,.7-.328c.022,0,.044.022.066.022l2.1,1.026,3.517.9a2.375,2.375,0,0,1,1.791,2.162l.524,9.458a2.354,2.354,0,0,1-2.228,2.49.578.578,0,0,0-.153-.022Zm-5.111-1.092h5.09a1.268,1.268,0,0,0,1.267-1.267v-.066l-.524-9.458a1.234,1.234,0,0,0-.961-1.158l-3.582-.9c-.044,0-.066-.022-.109-.044l-1.595-.787-.524,1.507a.827.827,0,0,1-.808.568,3.083,3.083,0,0,1,1.245,2.294ZM303,314.406l1.66.415-.371-1.049Zm0,0" transform="translate(-267.852 -291.012)" fill="#231f20"/>
        <path id="Trazado_1010756" data-name="Trazado 1010756" d="M70.6,328.382H64.96a2.349,2.349,0,0,1-2.359-2.359v-.131l.524-9.458a2.35,2.35,0,0,1,1.791-2.163l3.517-.9,2.1-1.026a.542.542,0,0,1,.721.24c0,.022.022.044.022.066l.677,1.922h1.878l.677-1.922a.542.542,0,0,1,.7-.328c.022,0,.044.022.066.022l2.1,1.026,1.2.306a.533.533,0,0,1,.393.655.572.572,0,0,1-.284.349l-.524.262c-.044.022-.066.022-.109.044l-4.893,1.223a1.909,1.909,0,0,0-1.463,1.769l-.546,9.852a.554.554,0,0,1-.546.546Zm-.131-14.788-1.595.786c-.044.022-.066.022-.109.044l-3.582.9a1.255,1.255,0,0,0-.961,1.158l-.524,9.458a1.255,1.255,0,0,0,1.2,1.332h5.177l.524-9.349a3.015,3.015,0,0,1,1.245-2.294H71.8a.847.847,0,0,1-.808-.568Zm4.892,0-.371,1.049,1.66-.415Zm0,0" transform="translate(-55.765 -290.834)" fill="#231f20"/>
      </g>
    </g>
  </g>
</svg>
