<svg xmlns="http://www.w3.org/2000/svg" width="115" height="115" viewBox="0 0 115 115">
  <g id="Grupo_1180964" data-name="Grupo 1180964" transform="translate(-217.75 -1148)">
    <circle id="Elipse_13660" data-name="Elipse 13660" cx="57.5" cy="57.5" r="57.5" transform="translate(217.75 1148)" fill="#fff3b2"/>
    <g id="Grupo_1178628" data-name="Grupo 1178628" transform="translate(236.75 1157.999)">
      <g id="Grupo_1178628-2" data-name="Grupo 1178628" transform="translate(47.616 66.539)">
        <path id="Trazado_1007582" data-name="Trazado 1007582" d="M341.805,394.34v-6.712c0-3.57-2.315-4.3-5.264-6.073l-4.461,2.888c-.829.483-1.019.932-1.641.138l-.769-.816-2.487-2.633-2.492,2.642-.764.807c-.618.794-.808.345-1.637-.138l-4.461-2.888c-2.949,1.77-5.264,2.5-5.264,6.073v6.712c0,.824.38.721,1.01.721h27.218C341.425,395.061,341.805,395.165,341.805,394.34Zm-16.371-7.653-2.4,5.193Z" transform="translate(-312.566 -381.132)" fill="#f9f7f7" fill-rule="evenodd"/>
      </g>
      <g id="Grupo_1178629" data-name="Grupo 1178629" transform="translate(58.064 71.11)">
        <path id="Trazado_1007583" data-name="Trazado 1007583" d="M389.46,417.315l-2.4-5.193-1.745-.984-1.749.984-2.4,5.193c-.022.052-.039.052,0,.095l1.814,3.086h4.664l1.818-3.086C389.5,417.367,389.478,417.367,389.46,417.315Z" transform="translate(-381.15 -411.138)" fill="#7bacdf" fill-rule="evenodd"/>
      </g>
      <g id="Grupo_1178630" data-name="Grupo 1178630" transform="translate(59.392 66.539)">
        <path id="Trazado_1007584" data-name="Trazado 1007584" d="M394.453,386.687l.743-2.922.38-1.446-2.867-1.187-1.347.63-1.494.695.35,1.317.743,2.914h3.494Z" transform="translate(-389.867 -381.132)" fill="#3987d0" fill-rule="evenodd"/>
      </g>
      <g id="Grupo_1178631" data-name="Grupo 1178631" transform="translate(52.88 64.398)">
        <path id="Trazado_1007585" data-name="Trazado 1007585" d="M353.982,371.861l2.492-2.642-1.714-1.658-3.36-.483-4.279,2.564,4.461,2.888c.829.483,1.019.932,1.637.138Z" transform="translate(-347.12 -367.078)" fill="#cecece" fill-rule="evenodd"/>
      </g>
      <g id="Grupo_1178632" data-name="Grupo 1178632" transform="translate(62.234 64.398)">
        <path id="Trazado_1007586" data-name="Trazado 1007586" d="M413.416,372.53l4.461-2.888-4.279-2.564-2.591.173-2.487,1.968,2.487,2.633.769.816C412.4,373.462,412.587,373.013,413.416,372.53Z" transform="translate(-408.519 -367.078)" fill="#cecece" fill-rule="evenodd"/>
      </g>
      <g id="Grupo_1178633" data-name="Grupo 1178633" transform="translate(53.394 47.443)">
        <path id="Trazado_1007587" data-name="Trazado 1007587" d="M364.41,272.734a10.714,10.714,0,0,0,3.606-5.529,5.911,5.911,0,0,0,.16-1.325v-5.862h-1.628c-3.442,0-4.159-4.239-8.369-4.239h-2.047c-3.222,0-.769,4.886-4.474,4.886h-1.166v5.214a5.912,5.912,0,0,0,.16,1.325,10.716,10.716,0,0,0,3.606,5.529,9.961,9.961,0,0,0,2.863,1.692,5.679,5.679,0,0,0,4.426,0A9.96,9.96,0,0,0,364.41,272.734Z" transform="translate(-350.492 -255.779)" fill="#ffe5c1" fill-rule="evenodd"/>
      </g>
      <g id="Grupo_1178634" data-name="Grupo 1178634" transform="translate(53.389 42.639)">
        <path id="Trazado_1007588" data-name="Trazado 1007588" d="M368.149,231.585c0-4.131-4.241-6.941-8.166-7.342h-1.861a5.252,5.252,0,0,0-3.7,1.869c-4.271.376-3.96,6.06-3.96,6.807v3.509h1.166c3.705,0,1.252-4.886,4.474-4.886h2.047c4.21,0,4.927,4.239,8.369,4.239h1.628v-4.2Z" transform="translate(-350.46 -224.243)" fill="#838383" fill-rule="evenodd"/>
      </g>
      <g id="Grupo_1178635" data-name="Grupo 1178635" transform="translate(61.055 42.639)">
        <path id="Trazado_1007589" data-name="Trazado 1007589" d="M410.8,233.286v-1.7c0-4.131-4.241-6.941-8.166-7.342H400.78c3.826.522,7.829,3.289,7.829,7.3v4.2a3.968,3.968,0,0,0,.566.039H410.8v-2.5Z" transform="translate(-400.78 -224.243)" fill="#595959" fill-rule="evenodd"/>
      </g>
      <g id="Grupo_1178636" data-name="Grupo 1178636" transform="translate(57.19 49.938)">
        <path id="Trazado_1007590" data-name="Trazado 1007590" d="M389.3,279.762v-3.367H387.67a3.966,3.966,0,0,1-.566-.039c-2.971-.432-3.835-4.2-7.8-4.2h-2.047a1.742,1.742,0,0,0-1.844,1.511h2.345c3.964,0,4.832,4.191,7.8,4.623l1.3.026c.259,0,.255.095.255.337v1.062a5.91,5.91,0,0,1-.16,1.325,10.717,10.717,0,0,1-3.606,5.529c-.082.069-.173.142-.259.211a11.614,11.614,0,0,1-1.019.708,9.268,9.268,0,0,1-1.585.773c-.134.052-.263.1-.393.138a6.109,6.109,0,0,1-.833.216,5.335,5.335,0,0,0,1.2.142,6.177,6.177,0,0,0,2.215-.449,9.961,9.961,0,0,0,2.863-1.692,10.715,10.715,0,0,0,3.606-5.53A5.9,5.9,0,0,0,389.3,279.762Z" transform="translate(-375.41 -272.156)" fill="#fed1a3" fill-rule="evenodd"/>
      </g>
      <g id="Grupo_1178637" data-name="Grupo 1178637" transform="translate(55.104 64.398)">
        <path id="Trazado_1007591" data-name="Trazado 1007591" d="M366.826,371.364l2.021-2.145a5.337,5.337,0,0,1-1.2-.142,7.333,7.333,0,0,1-1.006-.306,9.961,9.961,0,0,1-2.863-1.692l-2.056,1.23c.242.233.492.457.751.669a12.417,12.417,0,0,0,3.6,2.132l.1.035Q366.5,371.267,366.826,371.364Z" transform="translate(-361.717 -367.078)" fill="#b5adb6" fill-rule="evenodd"/>
      </g>
      <g id="Grupo_1178638" data-name="Grupo 1178638" transform="translate(62.234 64.399)">
        <path id="Trazado_1007592" data-name="Trazado 1007592" d="M411.3,371.111a12.424,12.424,0,0,0,3.6-2.132c.259-.211.51-.436.751-.669l-2.056-1.23a9.961,9.961,0,0,1-2.863,1.692,6.18,6.18,0,0,1-2.215.449l2.025,2.145c.212-.065.427-.134.648-.216Z" transform="translate(-408.518 -367.079)" fill="#b5adb6" fill-rule="evenodd"/>
      </g>
      <g id="Grupo_1178639" data-name="Grupo 1178639" transform="translate(61.163 66.539)">
        <path id="Trazado_1007593" data-name="Trazado 1007593" d="M404.584,383.277l-2.025-2.145-1.071,1.139,1.149,1.515.354.449c.108.134.078.155.035.324l-.341,1.338-.125.79H404.3l.743-2.922Z" transform="translate(-401.488 -381.132)" fill="#0067b4" fill-rule="evenodd"/>
      </g>
      <g id="Grupo_1178640" data-name="Grupo 1178640" transform="translate(62.234 72.095)">
        <path id="Trazado_1007594" data-name="Trazado 1007594" d="M412.66,422.791l-2.4-5.193h-1.745l1.814,5.193c.022.052.039.052,0,.095l-1.818,3.086h2.328l1.818-3.086C412.695,422.843,412.677,422.843,412.66,422.791Z" transform="translate(-408.519 -417.598)" fill="#3987d0" fill-rule="evenodd"/>
      </g>
      <g id="Grupo_1178641" data-name="Grupo 1178641" transform="translate(68.841 66.962)">
        <path id="Trazado_1007595" data-name="Trazado 1007595" d="M459.9,389.982c0-3.57-2.315-4.3-5.264-6.073l-2.751,1.778c2.552,1.459,4.448,2.365,4.448,5.594v6.134h2.556c.631,0,1.01.1,1.01-.721Z" transform="translate(-451.889 -383.909)" fill="#e2e2e2" fill-rule="evenodd"/>
      </g>
      <g id="Grupo_1178642" data-name="Grupo 1178642" transform="translate(1.143 66.539)">
        <path id="Trazado_1007596" data-name="Trazado 1007596" d="M36.735,394.34v-6.712c0-3.57-2.31-4.3-5.26-6.073l-4.465,2.888c-.825.483-1.015.932-1.637.138l-.769-.816-2.487-2.633-2.492,2.642-.764.807c-.622.794-.808.345-1.637-.138l-4.465-2.888c-2.95,1.77-5.26,2.5-5.26,6.073v6.712c0,.824.376.721,1.01.721H35.724c.635,0,1.011.1,1.011-.721Zm-16.366-7.653-2.4,5.193Z" transform="translate(-7.5 -381.132)" fill="#f9f7f7" fill-rule="evenodd"/>
      </g>
      <g id="Grupo_1178643" data-name="Grupo 1178643" transform="translate(11.589 71.11)">
        <path id="Trazado_1007597" data-name="Trazado 1007597" d="M84.384,417.315l-2.4-5.193-1.74-.984-1.749.984-2.4,5.193c-.022.052-.039.052-.009.095l1.818,3.086h4.664l1.818-3.086C84.423,417.367,84.406,417.367,84.384,417.315Z" transform="translate(-76.076 -411.138)" fill="#fe9737" fill-rule="evenodd"/>
      </g>
      <g id="Grupo_1178644" data-name="Grupo 1178644" transform="translate(12.919 66.539)">
        <path id="Trazado_1007598" data-name="Trazado 1007598" d="M89.383,386.687l.747-2.922.38-1.446-2.867-1.187-1.347.63-1.494.695.35,1.317.743,2.914h3.489Z" transform="translate(-84.801 -381.132)" fill="#fe7600" fill-rule="evenodd"/>
      </g>
      <g id="Grupo_1178645" data-name="Grupo 1178645" transform="translate(6.402 64.398)">
        <path id="Trazado_1007599" data-name="Trazado 1007599" d="M48.892,371.861l2.492-2.642-1.714-1.658-3.364-.483-4.279,2.564,4.465,2.888c.829.483,1.015.932,1.637.138Z" transform="translate(-42.026 -367.078)" fill="#cecece" fill-rule="evenodd"/>
      </g>
      <g id="Grupo_1178646" data-name="Grupo 1178646" transform="translate(15.76 64.398)">
        <path id="Trazado_1007600" data-name="Trazado 1007600" d="M108.346,372.53l4.465-2.888-4.279-2.564-2.591.173-2.487,1.968,2.487,2.633.769.816C107.331,373.462,107.521,373.013,108.346,372.53Z" transform="translate(-103.453 -367.078)" fill="#cecece" fill-rule="evenodd"/>
      </g>
      <g id="Grupo_1178647" data-name="Grupo 1178647" transform="translate(6.92 47.443)">
        <path id="Trazado_1007601" data-name="Trazado 1007601" d="M59.346,272.734a10.714,10.714,0,0,0,3.606-5.529,5.9,5.9,0,0,0,.155-1.325v-5.862H61.483c-3.442,0-4.163-4.239-8.369-4.239H51.068c-3.222,0-.769,4.886-4.478,4.886H45.428v5.214a5.9,5.9,0,0,0,.155,1.325,10.717,10.717,0,0,0,3.606,5.529,9.961,9.961,0,0,0,2.863,1.692,5.69,5.69,0,0,0,4.431,0A9.961,9.961,0,0,0,59.346,272.734Z" transform="translate(-45.428 -255.779)" fill="#ffe5c1" fill-rule="evenodd"/>
      </g>
      <g id="Grupo_1178648" data-name="Grupo 1178648" transform="translate(6.915 42.639)">
        <path id="Trazado_1007602" data-name="Trazado 1007602" d="M63.078,231.585c0-4.131-4.241-6.941-8.166-7.342H53.051a5.252,5.252,0,0,0-3.7,1.869c-4.271.376-3.956,6.06-3.956,6.807v3.509h1.162c3.709,0,1.257-4.886,4.478-4.886h2.047c4.206,0,4.927,4.239,8.369,4.239h1.624v-4.2Z" transform="translate(-45.394 -224.243)" fill="#838383" fill-rule="evenodd"/>
      </g>
      <g id="Grupo_1178649" data-name="Grupo 1178649" transform="translate(14.581 42.639)">
        <path id="Trazado_1007603" data-name="Trazado 1007603" d="M105.732,233.286v-1.7c0-4.131-4.241-6.941-8.166-7.342H95.714c3.826.522,7.1,2.892,7.1,6.9v3.311l.721,1.286a4.033,4.033,0,0,0,.57.039h1.624v-2.5Z" transform="translate(-95.714 -224.243)" fill="#595959" fill-rule="evenodd"/>
      </g>
      <g id="Grupo_1178650" data-name="Grupo 1178650" transform="translate(8.626 64.398)">
        <path id="Trazado_1007604" data-name="Trazado 1007604" d="M61.737,371.364l2.021-2.145a5.372,5.372,0,0,1-1.209-.142,7.717,7.717,0,0,1-1.006-.306,9.961,9.961,0,0,1-2.863-1.692l-2.056,1.23c.246.233.5.457.751.669a12.5,12.5,0,0,0,3.6,2.132c.03.013.065.022.1.035Q61.413,371.267,61.737,371.364Z" transform="translate(-56.624 -367.078)" fill="#b5adb6" fill-rule="evenodd"/>
      </g>
      <g id="Grupo_1178651" data-name="Grupo 1178651" transform="translate(15.76 64.399)">
        <path id="Trazado_1007605" data-name="Trazado 1007605" d="M106.233,371.111a12.5,12.5,0,0,0,3.6-2.132c.259-.211.51-.436.751-.669l-2.056-1.23a9.961,9.961,0,0,1-2.863,1.692,6.216,6.216,0,0,1-2.215.449l2.025,2.145c.207-.065.423-.134.648-.216Z" transform="translate(-103.452 -367.079)" fill="#b5adb6" fill-rule="evenodd"/>
      </g>
      <g id="Grupo_1178652" data-name="Grupo 1178652" transform="translate(14.685 66.539)">
        <path id="Trazado_1007606" data-name="Trazado 1007606" d="M99.5,383.277l-2.025-2.145L96.4,382.271l1.149,1.515.354.449c.108.134.082.155.039.324L97.6,385.9l-.125.79h1.74l.747-2.922Z" transform="translate(-96.395 -381.132)" fill="#e6581f" fill-rule="evenodd"/>
      </g>
      <g id="Grupo_1178653" data-name="Grupo 1178653" transform="translate(15.76 72.095)">
        <path id="Trazado_1007607" data-name="Trazado 1007607" d="M107.59,422.791l-2.4-5.193h-1.74l1.809,5.193c.022.052.039.052.009.095l-1.818,3.086h2.328l1.818-3.086c.03-.043.013-.043-.009-.095Z" transform="translate(-103.453 -417.598)" fill="#f36b37" fill-rule="evenodd"/>
      </g>
      <g id="Grupo_1178654" data-name="Grupo 1178654" transform="translate(22.367 66.962)">
        <path id="Trazado_1007608" data-name="Trazado 1007608" d="M154.833,389.982c0-3.57-2.31-4.3-5.26-6.073l-2.751,1.778c2.548,1.459,4.448,2.365,4.448,5.594v6.134h2.552c.635,0,1.01.1,1.01-.721Z" transform="translate(-146.823 -383.909)" fill="#e2e2e2" fill-rule="evenodd"/>
      </g>
      <g id="Grupo_1178655" data-name="Grupo 1178655" transform="translate(24.165 11.143)">
        <path id="Trazado_1007609" data-name="Trazado 1007609" d="M162.745,21.623a14.081,14.081,0,1,1,0,19.908A14.089,14.089,0,0,1,162.745,21.623Z" transform="translate(-158.622 -17.498)" fill="#97da7b" fill-rule="evenodd"/>
      </g>
      <g id="Grupo_1178656" data-name="Grupo 1178656" transform="translate(35.892 11.143)">
        <path id="Trazado_1007610" data-name="Trazado 1007610" d="M243.205,21.623a14.086,14.086,0,0,1-6.24,23.538q-.674.181-1.36.3a14.083,14.083,0,0,0,16.414-13.04,13.675,13.675,0,0,0,0-1.684A14.082,14.082,0,0,0,240.9,17.807a14.185,14.185,0,0,0-5.294-.112,14.015,14.015,0,0,1,7.6,3.928Z" transform="translate(-235.605 -17.498)" fill="#68ca44" fill-rule="evenodd"/>
      </g>
      <g id="Grupo_1178657" data-name="Grupo 1178657" transform="translate(10.716 49.938)">
        <path id="Trazado_1007611" data-name="Trazado 1007611" d="M82.034,276.356c-2.967-.432-3.835-4.2-7.8-4.2H72.188a1.739,1.739,0,0,0-1.844,1.511h2.345c3.964,0,4.828,4.122,7.8,4.554h.721c.121,0,.1.056.1.173a11.3,11.3,0,0,1-.16,2.646c-.009.048-.022.095-.03.142-.669,2.883-1.572,4.744-4.133,6.306a9.075,9.075,0,0,1-1.581.773c-.134.052-.263.1-.393.138a6.005,6.005,0,0,1-.838.216,5.372,5.372,0,0,0,1.209.142,6.213,6.213,0,0,0,2.215-.449,9.961,9.961,0,0,0,2.863-1.692,10.714,10.714,0,0,0,3.606-5.529,5.9,5.9,0,0,0,.155-1.325v-3.367H82.6A4.009,4.009,0,0,1,82.034,276.356Z" transform="translate(-70.344 -272.156)" fill="#fed1a3" fill-rule="evenodd"/>
      </g>
      <g id="Grupo_1178658" data-name="Grupo 1178658" transform="translate(14.581 42.639)">
        <path id="Trazado_1007612" data-name="Trazado 1007612" d="M102.818,235.561a3.836,3.836,0,0,0,.721.181,4.033,4.033,0,0,0,.57.039h1.624v-4.2c0-4.131-4.241-6.941-8.166-7.342H95.714c3.826.522,7.1,2.892,7.1,6.9Q102.818,233.353,102.818,235.561Z" transform="translate(-95.714 -224.243)" fill="#595959" fill-rule="evenodd"/>
      </g>
      <g id="Grupo_1178659" data-name="Grupo 1178659" transform="translate(24.379 69.876)">
        <path id="Trazado_1007613" data-name="Trazado 1007613" d="M189.272,416.238v-6.712c0-3.565-2.315-4.3-5.264-6.069l-9.358-.423-9.354.423c-2.954,1.77-5.264,2.5-5.264,6.069v6.712c0,.829.38.725,1.01.725h27.214c.635,0,1.015.1,1.015-.725ZM172.9,408.585" transform="translate(-160.033 -403.034)" fill="#7bacdf" fill-rule="evenodd"/>
      </g>
      <g id="Grupo_1178660" data-name="Grupo 1178660" transform="translate(34.827 74.443)">
        <path id="Trazado_1007614" data-name="Trazado 1007614" d="M236.923,439.19,234.531,434l-1.745-.984-1.749.984-2.4,5.193c-.022.052-.039.056,0,.1l1.814,3.086h4.664l1.818-3.086C236.962,439.246,236.945,439.242,236.923,439.19Z" transform="translate(-228.617 -433.013)" fill="#fe9737" fill-rule="evenodd"/>
      </g>
      <g id="Grupo_1178661" data-name="Grupo 1178661" transform="translate(36.155 69.876)">
        <path id="Trazado_1007615" data-name="Trazado 1007615" d="M241.92,408.586l.743-2.918.38-1.446-2.867-1.187-1.347.626-1.494.695.35,1.317.743,2.914h3.494Z" transform="translate(-237.334 -403.035)" fill="#fe7600" fill-rule="evenodd"/>
      </g>
      <g id="Grupo_1178662" data-name="Grupo 1178662" transform="translate(29.643 67.731)">
        <path id="Trazado_1007616" data-name="Trazado 1007616" d="M201.449,393.734l2.492-2.637-1.714-1.658-3.364-.488-4.275,2.568,4.461,2.888c.829.479,1.015.932,1.637.134Z" transform="translate(-194.587 -388.951)" fill="#0078c8" fill-rule="evenodd"/>
      </g>
      <g id="Grupo_1178663" data-name="Grupo 1178663" transform="translate(38.997 67.731)">
        <path id="Trazado_1007617" data-name="Trazado 1007617" d="M260.883,394.408l4.461-2.888-4.279-2.568-2.591.173-2.487,1.973,2.487,2.633.769.811C259.864,395.341,260.054,394.887,260.883,394.408Z" transform="translate(-255.986 -388.952)" fill="#0078c8" fill-rule="evenodd"/>
      </g>
      <g id="Grupo_1178664" data-name="Grupo 1178664" transform="translate(30.157 50.776)">
        <path id="Trazado_1007618" data-name="Trazado 1007618" d="M211.877,294.609a10.721,10.721,0,0,0,3.606-5.525,5.967,5.967,0,0,0,.155-1.329v-5.862h-1.624c-3.442,0-4.159-4.239-8.369-4.239H203.6c-3.222,0-.769,4.886-4.474,4.886h-1.166v5.214a6.228,6.228,0,0,0,.155,1.329,10.776,10.776,0,0,0,3.606,5.525,10.077,10.077,0,0,0,2.863,1.7,5.69,5.69,0,0,0,4.431,0A10.072,10.072,0,0,0,211.877,294.609Z" transform="translate(-197.959 -277.654)" fill="#ffe5c1" fill-rule="evenodd"/>
      </g>
      <g id="Grupo_1178665" data-name="Grupo 1178665" transform="translate(30.152 45.971)">
        <path id="Trazado_1007619" data-name="Trazado 1007619" d="M215.61,253.459c0-4.131-4.241-6.941-8.162-7.342h-1.861a5.26,5.26,0,0,0-3.7,1.869c-4.275.376-3.96,6.06-3.96,6.807v3.514H199.1c3.705,0,1.252-4.886,4.474-4.886h2.047c4.21,0,4.927,4.239,8.369,4.239h1.624v-4.2Z" transform="translate(-197.926 -246.117)" fill="#838383" fill-rule="evenodd"/>
      </g>
      <g id="Grupo_1178666" data-name="Grupo 1178666" transform="translate(37.818 45.971)">
        <path id="Trazado_1007620" data-name="Trazado 1007620" d="M258.265,253.459c0-4.131-4.241-6.941-8.162-7.342h-1.857c3.826.522,7.829,3.293,7.829,7.3q-.006,2.1,0,4.2a3.383,3.383,0,0,0,.566.043h1.624Q258.266,255.562,258.265,253.459Z" transform="translate(-248.247 -246.117)" fill="#595959" fill-rule="evenodd"/>
      </g>
      <g id="Grupo_1178667" data-name="Grupo 1178667" transform="translate(33.953 53.275)">
        <path id="Trazado_1007621" data-name="Trazado 1007621" d="M234.571,298.256c-2.971-.432-3.835-4.2-7.8-4.2h-2.047a1.736,1.736,0,0,0-1.844,1.506h2.345c3.964,0,4.828,4.122,7.8,4.554h.725c.117,0,.1.06.1.177a11.554,11.554,0,0,1-.155,2.646c-.013.048-.022.091-.035.138-.669,2.883-1.572,4.744-4.133,6.306a9.1,9.1,0,0,1-1.581.777c-.134.048-.263.095-.393.138a7.5,7.5,0,0,1-.838.216,5.372,5.372,0,0,0,1.209.142,6.292,6.292,0,0,0,2.215-.449,10.077,10.077,0,0,0,2.863-1.7,10.721,10.721,0,0,0,3.606-5.525,5.966,5.966,0,0,0,.155-1.329V298.3h-1.624A3.4,3.4,0,0,1,234.571,298.256Z" transform="translate(-222.877 -294.06)" fill="#fed1a3" fill-rule="evenodd"/>
      </g>
      <g id="Grupo_1178668" data-name="Grupo 1178668" transform="translate(31.867 67.731)">
        <path id="Trazado_1007622" data-name="Trazado 1007622" d="M214.294,393.238l2.021-2.141a5.372,5.372,0,0,1-1.209-.142,8.466,8.466,0,0,1-1.006-.307,10.077,10.077,0,0,1-2.863-1.7l-2.051,1.235c.242.229.492.453.747.669a12.585,12.585,0,0,0,3.6,2.128l.1.039C213.858,393.1,214.078,393.174,214.294,393.238Z" transform="translate(-209.185 -388.952)" fill="#0067b4" fill-rule="evenodd"/>
      </g>
      <g id="Grupo_1178669" data-name="Grupo 1178669" transform="translate(38.997 67.731)">
        <path id="Trazado_1007623" data-name="Trazado 1007623" d="M258.77,392.984a12.564,12.564,0,0,0,3.6-2.128c.259-.216.51-.44.751-.669l-2.056-1.235a10.076,10.076,0,0,1-2.863,1.7,6.291,6.291,0,0,1-2.215.449l2.025,2.141c.212-.06.427-.134.648-.211a.857.857,0,0,1,.112-.043Z" transform="translate(-255.985 -388.952)" fill="#0067b4" fill-rule="evenodd"/>
      </g>
      <g id="Grupo_1178670" data-name="Grupo 1178670" transform="translate(37.926 69.876)">
        <path id="Trazado_1007624" data-name="Trazado 1007624" d="M252.051,405.176l-2.025-2.141-1.071,1.135,1.144,1.519.354.445c.108.134.082.155.039.324l-.341,1.342-.125.786h1.745l.743-2.918Z" transform="translate(-248.955 -403.035)" fill="#e6581f" fill-rule="evenodd"/>
      </g>
      <g id="Grupo_1178671" data-name="Grupo 1178671" transform="translate(38.997 75.427)">
        <path id="Trazado_1007625" data-name="Trazado 1007625" d="M260.123,444.666l-2.392-5.193h-1.745l1.809,5.193c.022.052.039.056.009.1l-1.818,3.086h2.328l1.818-3.086C260.162,444.722,260.145,444.718,260.123,444.666Z" transform="translate(-255.986 -439.473)" fill="#f36b37" fill-rule="evenodd"/>
      </g>
      <g id="Grupo_1178672" data-name="Grupo 1178672" transform="translate(45.604 70.299)">
        <path id="Trazado_1007626" data-name="Trazado 1007626" d="M307.371,411.88c0-3.565-2.315-4.3-5.264-6.069l-2.751,1.778c2.552,1.455,4.448,2.361,4.448,5.594v6.134h2.552c.635,0,1.015.1,1.015-.725Z" transform="translate(-299.356 -405.811)" fill="#3987d0" fill-rule="evenodd"/>
      </g>
      <g id="Grupo_1178673" data-name="Grupo 1178673" transform="translate(0 10.001)">
        <path id="Trazado_1007627" data-name="Trazado 1007627" d="M208.287,81.673a1.143,1.143,0,0,0,.738.271c.032,0,.065,0,.1,0a1.142,1.142,0,0,0,.778-.4l7.289-8.7a1.142,1.142,0,0,0-1.751-1.468l-6.552,7.817-3-2.538a1.142,1.142,0,1,0-1.477,1.744Z" transform="translate(-172.931 -61.674)"/>
        <path id="Trazado_1007628" data-name="Trazado 1007628" d="M166.353,40.435a15.216,15.216,0,1,0-12.159-24.379,1.143,1.143,0,0,0,1.824,1.376A12.936,12.936,0,1,1,153.9,21.7a1.143,1.143,0,1,0-2.2-.621,15.213,15.213,0,0,0,14.652,19.357Z" transform="translate(-128.106 -10.001)"/>
        <path id="Trazado_1007629" data-name="Trazado 1007629" d="M73.352,241.653c-.379-.216-.771-.439-1.173-.679l-2.987-1.792a11.3,11.3,0,0,0,2.84-5.065,7.083,7.083,0,0,0,.189-1.583v-7.562c0-3.44-2.588-6.545-6.6-7.908-3.5-1.191-6.982-.638-8.854,1.36-1.919.338-4.611,1.86-4.52,7.754,0,.052,0,.094,0,.128v6.228a7.014,7.014,0,0,0,.189,1.578,11.278,11.278,0,0,0,2.84,5.071l-2.937,1.761c-.021.011-.043.024-.064.037-.4.238-.785.459-1.159.672a13.365,13.365,0,0,0-3.061,2.127l-2.105-1.263a11.307,11.307,0,0,0,2.841-5.065,7.151,7.151,0,0,0,.184-1.584V228.3c0-3.438-2.587-6.541-6.591-7.9-3.5-1.193-6.983-.641-8.855,1.357-1.921.337-4.613,1.859-4.52,7.752,0,.053,0,.1,0,.129v6.229a7.418,7.418,0,0,0,.184,1.584,11.3,11.3,0,0,0,2.843,5.065l-2.1,1.263a13.389,13.389,0,0,0-3.064-2.128c-.379-.216-.771-.437-1.171-.678l-.03-.018-.009-.005-2.949-1.767a11.294,11.294,0,0,0,2.841-5.067,7.044,7.044,0,0,0,.185-1.582v-7.562c0-3.439-2.587-6.543-6.592-7.906-3.5-1.194-6.985-.641-8.858,1.358-1.919.337-4.609,1.859-4.516,7.752,0,.053,0,.1,0,.13v6.229a7.041,7.041,0,0,0,.184,1.579A11.3,11.3,0,0,0,8.8,239.182l-2.989,1.791c-.4.24-.791.462-1.17.677C2.256,243.007,0,244.29,0,248.026v6.712a1.944,1.944,0,0,0,.5,1.412,1.771,1.771,0,0,0,1.318.456l.164,0,.171,0H23.236v1.469a1.945,1.945,0,0,0,.5,1.415,1.771,1.771,0,0,0,1.318.457l.165,0c.053,0,.11,0,.169,0h1.316a1.143,1.143,0,1,0,0-2.285H25.521v-6.295c0-2.311,1.008-2.975,3.493-4.384.038-.021.076-.044.116-.066.158-.09.318-.183.483-.277l1.906,1.234,1.964,1.272.05.029c.137.079.257.163.375.242a2.268,2.268,0,0,0,1.249.475,1.492,1.492,0,0,0,.727-.192l.157.615-2.227,4.825,0,.011a1.179,1.179,0,0,0,.076,1.185l.778,1.325h-2.68a1.143,1.143,0,0,0,0,2.285H52.6c.059,0,.116,0,.169,0l.165,0a1.781,1.781,0,0,0,1.322-.457,1.948,1.948,0,0,0,.5-1.415V256.6H75.845l.169,0c.052,0,.107,0,.165,0a1.771,1.771,0,0,0,1.318-.457,1.941,1.941,0,0,0,.5-1.411v-6.712c0-3.735-2.256-5.018-4.646-6.374Zm-50.4.337-2.9,1.879c-.12.071-.227.14-.321.2l-.624-.661-.033-.035-1.041-1.1q.168-.056.342-.121a10.783,10.783,0,0,0,2.543-1.384Zm-11.98-21.353a1.143,1.143,0,0,0,.8-.441c1.16-1.5,3.887-1.9,6.633-.967,2.326.792,5.043,2.772,5.043,5.744v3.053h-.481c-1.126,0-1.853-.628-2.947-1.652a7.512,7.512,0,0,0-5.422-2.587H12.56c-2.486,0-2.9,2.02-3.149,3.227-.285,1.388-.42,1.66-1.33,1.66H8.063v-2.367c0-.042,0-.1,0-.166-.055-3.477.926-5.328,2.915-5.5ZM8.189,233.6a4.755,4.755,0,0,1-.126-1.068v-1.577h.019c2.852,0,3.318-2.267,3.568-3.485.288-1.4.408-1.4.91-1.4h2.047c1.757,0,2.732.913,3.86,1.97s2.423,2.269,4.509,2.269h.481v2.224a4.76,4.76,0,0,1-.127,1.071,9.828,9.828,0,0,1-5.755,6.405,5.124,5.124,0,0,1-1.815.376,5.126,5.126,0,0,1-1.817-.377A9.827,9.827,0,0,1,8.189,233.6Zm8.8,10.889-.371,1.452H14.9L14.53,244.5l1.23-1.3ZM10.6,240.768a10.777,10.777,0,0,0,2.541,1.383q.174.065.343.122l-1.7,1.8c-.1-.063-.2-.132-.323-.2l-2.9-1.878Zm.03,12.2.792,1.344H2.285v-6.29c0-2.314,1.007-2.979,3.489-4.389.2-.112.4-.225.6-.342l3.874,2.505.045.028c.137.08.258.163.374.243a2.272,2.272,0,0,0,1.256.487,1.478,1.478,0,0,0,.725-.2l.156.612L10.577,251.8A1.182,1.182,0,0,0,10.633,252.972Zm6.8,1.344H14.077l-1.2-2.042,1.868-4.047h2.027l1.868,4.047Zm5.8-2.958v2.958h-3.15l.792-1.344a1.183,1.183,0,0,0,.056-1.174l-2.226-4.824.158-.616a1.482,1.482,0,0,0,.733.2,2.279,2.279,0,0,0,1.261-.491c.116-.079.235-.162.371-.241l.043-.026,3.874-2.505.6.343a16.793,16.793,0,0,1,2.136,1.351C25.493,246.345,23.236,247.627,23.236,251.358Zm46.194-9.367-2.9,1.877c-.122.072-.23.142-.326.206l-.625-.663c-.012-.014-.027-.029-.041-.043l-1.033-1.1c.113-.037.225-.078.341-.12a10.845,10.845,0,0,0,2.543-1.385ZM57.454,220.636a1.142,1.142,0,0,0,.806-.44c1.158-1.5,3.883-1.9,6.628-.969,2.328.794,5.047,2.773,5.047,5.745v3.053H69.45c-1.126,0-1.852-.626-2.945-1.65a7.511,7.511,0,0,0-5.425-2.588H59.033c-2.486,0-2.9,2.02-3.147,3.228-.285,1.386-.419,1.657-1.325,1.657h-.024v-2.366c0-.041,0-.1,0-.165-.053-3.478.928-5.33,2.919-5.506ZM54.667,233.6a4.764,4.764,0,0,1-.131-1.069v-1.577h.024c2.849,0,3.313-2.267,3.563-3.484.288-1.4.407-1.4.909-1.4h2.047c1.76,0,2.735.913,3.862,1.97s2.421,2.268,4.508,2.268h.484v2.224a4.812,4.812,0,0,1-.131,1.072,9.826,9.826,0,0,1-5.757,6.406,4.564,4.564,0,0,1-3.626,0,9.813,9.813,0,0,1-5.754-6.407Zm8.792,10.889-.369,1.45H61.373L61,244.5l1.229-1.3Zm-6.38-3.723a10.793,10.793,0,0,0,2.541,1.382c.116.043.23.084.343.122l-1.7,1.8c-.1-.062-.2-.131-.323-.2l-2.9-1.878ZM46.2,245.325,43.3,247.2c-.122.07-.23.14-.326.2l-1.7-1.8c.113-.038.225-.078.341-.12a10.782,10.782,0,0,0,2.544-1.388ZM34.217,223.969a1.143,1.143,0,0,0,.805-.441c1.158-1.5,3.884-1.9,6.629-.966,2.326.792,5.042,2.771,5.042,5.742v3.057h-.481c-1.125,0-1.852-.627-2.944-1.651a7.511,7.511,0,0,0-5.425-2.588H35.8c-2.486,0-2.9,2.021-3.148,3.228-.284,1.386-.419,1.658-1.325,1.658H31.3v-2.371c0-.042,0-.1,0-.166-.055-3.477.927-5.328,2.919-5.5Zm-2.788,12.983a5.147,5.147,0,0,1-.129-1.085v-1.573h.023c2.849,0,3.314-2.267,3.564-3.484.287-1.4.407-1.4.91-1.4h2.047c1.76,0,2.734.913,3.862,1.971s2.421,2.268,4.507,2.268h.481v2.22a4.843,4.843,0,0,1-.126,1.074,9.848,9.848,0,0,1-5.752,6.406,4.557,4.557,0,0,1-3.633,0,9.839,9.839,0,0,1-5.753-6.4Zm8.793,10.874-.369,1.45H38.135l-.367-1.446,1.229-1.3Zm-5.2-.42c-.094-.062-.2-.131-.323-.2l-2.9-1.878,2.037-1.225a10.893,10.893,0,0,0,2.547,1.389c.114.041.227.081.338.117Zm5.647,10.248H37.314l-1.2-2.046,1.866-4.046h2.032l1.865,4.049Zm11.8,0H43.324l.792-1.344a1.193,1.193,0,0,0,.059-1.167l0-.011-2.223-4.825.157-.612a1.485,1.485,0,0,0,.73.2,2.284,2.284,0,0,0,1.255-.484c.117-.081.238-.163.375-.242l.05-.029,3.869-2.506c.161.094.323.186.48.276l.123.07c2.482,1.409,3.489,2.073,3.489,4.381Zm4.645-4.662.78,1.325h-3.14v-2.958c0-3.731-2.256-5.012-4.645-6.369a0,0,0,0,1,0,0,16.584,16.584,0,0,1,2.133-1.348c.2-.113.4-.225.6-.344l3.871,2.5a.441.441,0,0,0,.044.029c.137.079.257.161.375.241a2.279,2.279,0,0,0,1.258.48,1.49,1.49,0,0,0,.722-.19l.157.615L57.051,251.8s0,0,0,0a1.169,1.169,0,0,0,.072,1.19Zm6.787,1.325H60.552l-1.2-2.044,1.866-4.045h2.031l1.866,4.043Zm11.8,0H66.56l.791-1.344a1.176,1.176,0,0,0,.091-1.1c-.009-.023-.02-.047-.03-.07l-2.227-4.825.157-.614a1.487,1.487,0,0,0,.731.2,2.285,2.285,0,0,0,1.26-.489c.116-.079.236-.161.373-.241.015-.009.03-.018.046-.029l3.869-2.5c.2.119.405.232.6.344,2.483,1.409,3.49,2.073,3.49,4.387Z" transform="translate(0 -184.992)"/>
      </g>
    </g>
  </g>
</svg>
