<svg xmlns="http://www.w3.org/2000/svg" width="73" height="73" viewBox="0 0 73 73">
  <g id="Grupo_1178685" data-name="Grupo 1178685" transform="translate(-717.396 -1574.227)">
    <rect id="Rectángulo_454573" data-name="Rectángulo 454573" width="73" height="73" rx="5" transform="translate(717.396 1574.227)" fill="#c8bf57"/>
    <g id="Grupo_1178684" data-name="Grupo 1178684" transform="translate(729.356 1583.971)">
      <g id="Grupo_1178682" data-name="Grupo 1178682" transform="translate(0.719 3.169)">
        <g id="Grupo_1178681" data-name="Grupo 1178681">
          <g id="Grupo_1178675" data-name="Grupo 1178675" transform="translate(9.595)">
            <path id="Trazado_1007630" data-name="Trazado 1007630" d="M136.043,43.123a.959.959,0,0,0-.959-.959H108.548a.959.959,0,0,0-.959.959V70.445h28.454Z" transform="translate(-107.589 -39.076)" fill="#a79ba7"/>
            <path id="Trazado_1007631" data-name="Trazado 1007631" d="M377.5,49.372V43.123a.959.959,0,0,0-.959-.959h-1.895v7.9a5.052,5.052,0,0,1,2.56-.693Z" transform="translate(-349.045 -39.076)" fill="#918291"/>
            <path id="Trazado_1007632" data-name="Trazado 1007632" d="M210.179,41.319V10.909a.959.959,0,0,0-.959-.959h-8.951a.959.959,0,0,0-.959.959V41.319Z" transform="translate(-190.518 -9.95)" fill="#e2dee2"/>
            <path id="Trazado_1007633" data-name="Trazado 1007633" d="M285.777,10.909a.959.959,0,0,0-.959-.959h-1.895V41.223h2.853Z" transform="translate(-266.116 -9.95)" fill="#cbc4cc"/>
          </g>
          <g id="Grupo_1178679" data-name="Grupo 1178679" transform="translate(0 10.296)">
            <g id="Grupo_1178676" data-name="Grupo 1178676" transform="translate(28.454)">
              <path id="Trazado_1007634" data-name="Trazado 1007634" d="M358.073,163.509a2.837,2.837,0,0,1-2.318-1.2.389.389,0,0,0-.637,0,2.837,2.837,0,0,1-2.318,1.2h-4.274l-.14.1v1.6a5.371,5.371,0,1,0,10.741,0v-1.6l-.1-.1Z" transform="translate(-344.161 -157.845)" fill="#bb5d4c"/>
              <path id="Trazado_1007635" data-name="Trazado 1007635" d="M322.553,258.5a.864.864,0,0,1,.863.863v.1h.1v-4.943a4.358,4.358,0,0,0-4.358-4.358H308.68a4.358,4.358,0,0,0-4.358,4.358V258.5Z" transform="translate(-304.322 -237.424)" fill="#b3dafe"/>
              <path id="Trazado_1007636" data-name="Trazado 1007636" d="M322.552,261.015a.864.864,0,0,1,.863.863v.1h.1V257.03a4.36,4.36,0,0,0-2.853-4.091v5.44a.959.959,0,0,1-.959.959H304.321v1.677h18.231Z" transform="translate(-304.321 -239.942)" fill="#8ac9fe"/>
              <path id="Trazado_1007637" data-name="Trazado 1007637" d="M384.133,253.815h1.858l.141-.125.988-3.535h-4.1L384,253.69Z" transform="translate(-375.475 -237.424)" fill="#d9b1ee"/>
              <path id="Trazado_1007638" data-name="Trazado 1007638" d="M388.141,291.84l-.866-4.808h-2.129l-.863,4.808Z" transform="translate(-376.619 -270.766)" fill="#cb97e7"/>
              <path id="Trazado_1007639" data-name="Trazado 1007639" d="M388.141,321.371l-.3-1.677h-3.255l-.3,1.677Z" transform="translate(-376.619 -300.297)" fill="#bd80e1"/>
              <path id="Trazado_1007640" data-name="Trazado 1007640" d="M359.126,123.114h-1.054a2.926,2.926,0,0,1-2.4-1.246.292.292,0,0,0-.478,0,2.926,2.926,0,0,1-2.4,1.246h-4.415v-.684a5.078,5.078,0,0,1,5.078-5.078h.586a5.078,5.078,0,0,1,5.078,5.078Z" transform="translate(-344.161 -117.353)" fill="#685e68"/>
            </g>
            <g id="Grupo_1178678" data-name="Grupo 1178678">
              <g id="Grupo_1178677" data-name="Grupo 1178677">
                <path id="Trazado_1007641" data-name="Trazado 1007641" d="M61.252,163.509a2.837,2.837,0,0,1-2.318-1.2.389.389,0,0,0-.637,0,2.837,2.837,0,0,1-2.318,1.2H51.7l-.14.1v1.6a5.371,5.371,0,1,0,10.741,0v-1.6l-.1-.1Z" transform="translate(-47.34 -157.845)" fill="#ffdfcf"/>
                <path id="Trazado_1007642" data-name="Trazado 1007642" d="M7.6,259.457v-.1a.864.864,0,0,1,.863-.863H26.689v-3.985a4.358,4.358,0,0,0-4.358-4.358H11.858A4.358,4.358,0,0,0,7.5,254.513v4.943Z" transform="translate(-7.5 -237.424)" fill="#b3dafe"/>
                <path id="Trazado_1007643" data-name="Trazado 1007643" d="M7.6,261.974v-.1a.864.864,0,0,1,.863-.863H26.689V257.03a4.36,4.36,0,0,0-2.853-4.091v5.44a.959.959,0,0,1-.959.959H7.5v2.636h.1Z" transform="translate(-7.5 -239.942)" fill="#8ac9fe"/>
                <path id="Trazado_1007644" data-name="Trazado 1007644" d="M87.312,253.815H89.17l.141-.125.988-3.535H86.2l.984,3.535Z" transform="translate(-78.654 -237.424)" fill="#d9b1ee"/>
                <path id="Trazado_1007645" data-name="Trazado 1007645" d="M91.319,291.84l-.866-4.808H88.325l-.863,4.808Z" transform="translate(-79.797 -270.766)" fill="#cb97e7"/>
                <path id="Trazado_1007646" data-name="Trazado 1007646" d="M91.319,321.371l-.3-1.677H87.763l-.3,1.677Z" transform="translate(-79.797 -300.297)" fill="#bd80e1"/>
                <path id="Trazado_1007647" data-name="Trazado 1007647" d="M62.3,123.114H61.251a2.926,2.926,0,0,1-2.4-1.246.292.292,0,0,0-.478,0,2.926,2.926,0,0,1-2.4,1.246H51.563v-.684a5.078,5.078,0,0,1,5.078-5.078h.586a5.078,5.078,0,0,1,5.078,5.078Z" transform="translate(-47.339 -117.353)" fill="#bb5d4c"/>
              </g>
            </g>
          </g>
          <g id="Grupo_1178680" data-name="Grupo 1178680" transform="translate(0 31.273)">
            <path id="Trazado_1007648" data-name="Trazado 1007648" d="M354.714,351.129v-3.593a.959.959,0,0,0-.959-.959h-.086a2.628,2.628,0,0,1-2.646-2.641,2.59,2.59,0,0,1,2.588-2.541h.144a.959.959,0,0,0,.959-.959v-3.29a.959.959,0,0,0-.959-.959H338.833v15.9h14.922A.959.959,0,0,0,354.714,351.129Z" transform="translate(-307.071 -336.188)" fill="#fedf30"/>
            <path id="Trazado_1007649" data-name="Trazado 1007649" d="M353.612,341.4h.144a.959.959,0,0,0,.959-.959v-3.29a.959.959,0,0,0-.959-.959H349.49V348.4a.959.959,0,0,1-.959.959h-9.7v2.732h14.922a.959.959,0,0,0,.959-.959v-3.593a.959.959,0,0,0-.959-.959h-.086a2.628,2.628,0,0,1-2.646-2.641A2.59,2.59,0,0,1,353.612,341.4Z" transform="translate(-307.071 -336.188)" fill="#fed402"/>
            <path id="Trazado_1007650" data-name="Trazado 1007650" d="M189.048,352.088v-4.551a.959.959,0,0,1,.959-.959h.144a2.591,2.591,0,0,0,0-5.183h-.144a.959.959,0,0,1-.959-.959v-4.249H173.167v15.9Z" transform="translate(-157.286 -336.188)" fill="#fdb97e"/>
            <path id="Trazado_1007651" data-name="Trazado 1007651" d="M190.15,341.4h-.144a.959.959,0,0,1-.959-.959v-4.249h-2.853V348.4a.959.959,0,0,1-.959.959H173.167v2.732h15.881v-4.551a.959.959,0,0,1,.959-.959h.144a2.591,2.591,0,0,0,0-5.183Z" transform="translate(-157.286 -336.188)" fill="#fea95c"/>
            <path id="Trazado_1007652" data-name="Trazado 1007652" d="M23.381,352.088v-4.551a.959.959,0,0,1,.959-.959h.144a2.591,2.591,0,0,0,0-5.183H24.34a.959.959,0,0,1-.959-.959v-4.249H8.459a.959.959,0,0,0-.959.959v13.983a.959.959,0,0,0,.959.959Z" transform="translate(-7.5 -336.188)" fill="#fedf30"/>
            <path id="Trazado_1007653" data-name="Trazado 1007653" d="M24.483,341.4H24.34a.959.959,0,0,1-.959-.959v-4.249H20.528V348.4a.959.959,0,0,1-.959.959H7.5v1.773a.959.959,0,0,0,.959.959H23.381v-4.551a.959.959,0,0,1,.959-.959h.144a2.591,2.591,0,0,0,0-5.183Z" transform="translate(-7.5 -336.188)" fill="#fed402"/>
          </g>
          <path id="Trazado_1007654" data-name="Trazado 1007654" d="M386.027,170.326h-.95a2.834,2.834,0,0,1-1.8-.648v1.735a5.37,5.37,0,0,1-5.025,5.358,5.371,5.371,0,0,0,7.878-4.749v-1.6Z" transform="translate(-342.712 -154.366)" fill="#a44f3e"/>
          <path id="Trazado_1007655" data-name="Trazado 1007655" d="M403.311,117.353h-.441a5.076,5.076,0,0,1,2.665,4.469v.674a2.916,2.916,0,0,0,1.8.618h1.054v-.684A5.078,5.078,0,0,0,403.311,117.353Z" transform="translate(-364.969 -107.057)" fill="#554e56"/>
          <path id="Trazado_1007656" data-name="Trazado 1007656" d="M89.206,170.326h-.95a2.834,2.834,0,0,1-1.8-.648v1.735a5.37,5.37,0,0,1-5.025,5.358,5.371,5.371,0,0,0,7.878-4.749v-1.6Z" transform="translate(-74.345 -154.366)" fill="#ffcebf"/>
          <path id="Trazado_1007657" data-name="Trazado 1007657" d="M106.489,117.353h-.441a5.076,5.076,0,0,1,2.665,4.469v.674a2.916,2.916,0,0,0,1.8.618h1.054v-.684A5.078,5.078,0,0,0,106.489,117.353Z" transform="translate(-96.601 -107.057)" fill="#a44f3e"/>
        </g>
      </g>
      <g id="Grupo_1178683" data-name="Grupo 1178683" transform="translate(0 2.45)">
        <path id="Trazado_1007658" data-name="Trazado 1007658" d="M231.838,46.883h1.438v1.97h-1.438Z" transform="translate(-209.614 -42.624)"/>
        <path id="Trazado_1007659" data-name="Trazado 1007659" d="M265.163,46.883H266.6v1.97h-1.438Z" transform="translate(-239.744 -42.624)"/>
        <path id="Trazado_1007660" data-name="Trazado 1007660" d="M231.838,87.985h1.438v1.97h-1.438Z" transform="translate(-209.614 -79.786)"/>
        <path id="Trazado_1007661" data-name="Trazado 1007661" d="M265.163,87.985H266.6v1.97h-1.438Z" transform="translate(-239.744 -79.786)"/>
        <path id="Trazado_1007662" data-name="Trazado 1007662" d="M231.838,129.085h1.438v10.276h-1.438Z" transform="translate(-209.614 -116.946)"/>
        <path id="Trazado_1007663" data-name="Trazado 1007663" d="M265.163,129.085H266.6v10.276h-1.438Z" transform="translate(-239.744 -116.946)"/>
        <path id="Trazado_1007664" data-name="Trazado 1007664" d="M334.388,69.5h1.438v1.97h-1.438Z" transform="translate(-302.333 -63.073)"/>
        <path id="Trazado_1007665" data-name="Trazado 1007665" d="M367.713,69.5h1.438v1.97h-1.438Z" transform="translate(-332.464 -63.073)"/>
        <path id="Trazado_1007666" data-name="Trazado 1007666" d="M129.287,69.5h1.438v1.97h-1.438Z" transform="translate(-116.893 -63.073)"/>
        <path id="Trazado_1007667" data-name="Trazado 1007667" d="M162.612,69.5h1.438v1.97h-1.438Z" transform="translate(-147.024 -63.073)"/>
        <path id="Trazado_1007668" data-name="Trazado 1007668" d="M44,25.476H42.691a6.078,6.078,0,0,0,2.166-4.652V18.542a5.8,5.8,0,0,0-5.371-5.779V7.216a1.68,1.68,0,0,0-1.678-1.678H30.694V4.128A1.68,1.68,0,0,0,29.016,2.45H20.065a1.68,1.68,0,0,0-1.678,1.678V5.538H11.272A1.68,1.68,0,0,0,9.595,7.216v5.547a5.8,5.8,0,0,0-5.371,5.779v2.282A6.078,6.078,0,0,0,6.39,25.476H5.077A5.083,5.083,0,0,0,0,30.554V41.01a.719.719,0,0,0,1.438,0V35.4a.24.24,0,0,1,.24-.24h14.2v3.53a1.68,1.68,0,0,0,1.678,1.678H17.7a1.872,1.872,0,0,1,0,3.745h-.144a1.68,1.68,0,0,0-1.678,1.678v3.832H1.678a.24.24,0,0,1-.24-.24V44.365a.719.719,0,0,0-1.438,0v5.018a1.68,1.68,0,0,0,1.678,1.678H41.028a.719.719,0,1,0,0-1.438H33.2V45.791a.24.24,0,0,1,.24-.24h.144a3.31,3.31,0,0,0,0-6.621h-.144a.24.24,0,0,1-.24-.24v-3.53H47.4a.24.24,0,0,1,.24.24v3.29a.24.24,0,0,1-.24.24h-.144a3.325,3.325,0,0,0-3.307,3.247,3.257,3.257,0,0,0,.944,2.358,3.411,3.411,0,0,0,2.42,1.016H47.4a.24.24,0,0,1,.24.24v3.593a.24.24,0,0,1-.24.24h-3.02a.719.719,0,1,0,0,1.438H47.4a1.68,1.68,0,0,0,1.678-1.678V45.791A1.68,1.68,0,0,0,47.4,44.113h-.086a1.965,1.965,0,0,1-1.394-.585A1.83,1.83,0,0,1,45.39,42.2a1.88,1.88,0,0,1,1.869-1.836H47.4a1.68,1.68,0,0,0,1.678-1.678V30.554A5.083,5.083,0,0,0,44,25.476ZM39.87,26.914l-.586,2.1H38.247l-.584-2.1Zm-1.1-1.438a4.657,4.657,0,0,1-4.652-4.652v-.88h3.7a3.654,3.654,0,0,0,2.636-1.127,3.655,3.655,0,0,0,2.636,1.127h.335v.88A4.657,4.657,0,0,1,38.767,25.476Zm4.651-6.969h-.334a2.215,2.215,0,0,1-1.81-.941,1.011,1.011,0,0,0-1.654,0,2.215,2.215,0,0,1-1.81.941H34.116a4.363,4.363,0,0,1,4.358-4.323h.586a4.363,4.363,0,0,1,4.358,4.323ZM37.809,6.976a.24.24,0,0,1,.24.24v5.547a5.8,5.8,0,0,0-5.371,5.779v2.282a6.078,6.078,0,0,0,2.166,4.652H33.531a5.048,5.048,0,0,0-2.837.868V6.976Zm-26.536,0h7.115v5.3a.719.719,0,1,0,1.438,0V4.128a.24.24,0,0,1,.24-.24h8.951a.24.24,0,0,1,.24.24V27.82a5.046,5.046,0,0,0-.8,2.734v3.17h-1.6V27.072H25.419v6.652H23.662V27.072H22.224v6.652h-1.6v-3.17a5.045,5.045,0,0,0-.8-2.734V15.636a.719.719,0,1,0-1.438,0V26.345a5.048,5.048,0,0,0-2.837-.868H14.237A6.078,6.078,0,0,0,16.4,20.825V18.542a5.8,5.8,0,0,0-5.371-5.779V7.216a.24.24,0,0,1,.24-.24Zm.145,19.938-.586,2.1H9.793l-.584-2.1Zm-1.4-12.731h.586a4.363,4.363,0,0,1,4.358,4.323H14.63a2.215,2.215,0,0,1-1.81-.941,1.012,1.012,0,0,0-.827-.43h0a1.013,1.013,0,0,0-.827.43,2.215,2.215,0,0,1-1.81.941H5.663a4.363,4.363,0,0,1,4.358-4.323ZM5.662,20.825v-.88h3.7a3.654,3.654,0,0,0,2.637-1.127,3.654,3.654,0,0,0,2.636,1.127h.335v.88a4.652,4.652,0,0,1-9.3,0ZM1.438,33.743V30.554a3.643,3.643,0,0,1,3.639-3.639h2.64l.793,2.851L7.8,33.723H1.678A1.675,1.675,0,0,0,1.438,33.743Zm7.823-.019.587-3.274h.927l.589,3.274Zm3.564,0-.713-3.958.8-2.851h2.64a3.643,3.643,0,0,1,3.639,3.639v3.17H12.825Zm20.614,6.645h.144a1.872,1.872,0,0,1,0,3.745h-.144a1.68,1.68,0,0,0-1.678,1.678v3.832H17.319V45.791a.24.24,0,0,1,.24-.24H17.7a3.31,3.31,0,0,0,0-6.621h-.144a.24.24,0,0,1-.24-.24v-3.53H31.762v3.53A1.679,1.679,0,0,0,33.439,40.369Zm-3.548-6.645v-3.17a3.643,3.643,0,0,1,3.639-3.639h2.64l.793,2.851-.71,3.959Zm7.823,0,.587-3.274h.927l.589,3.274Zm9.689,0H41.279l-.713-3.958.8-2.851H44a3.643,3.643,0,0,1,3.639,3.639v3.189A1.686,1.686,0,0,0,47.4,33.723Z" transform="translate(0 -2.45)"/>
      </g>
    </g>
  </g>
</svg>
