<svg xmlns="http://www.w3.org/2000/svg" width="80" height="80" viewBox="0 0 80 80">
  <g id="Grupo_1176955" data-name="Grupo 1176955" transform="translate(-179.668 -5521)">
    <rect id="Rectángulo_402006" data-name="Rectángulo 402006" width="80" height="80" rx="5" transform="translate(179.668 5521)" fill="#c8bf57"/>
    <g id="Grupo_1178523" data-name="Grupo 1178523" transform="translate(185.668 5521.482)">
      <path id="Trazado_998140" data-name="Trazado 998140" d="M2,31.349a3.186,3.186,0,0,0,3.182,3.182h7.19a2.023,2.023,0,0,1,2.021,2.02l0,19.562A3.848,3.848,0,0,0,21.1,58.7a3.848,3.848,0,0,0,6.7-2.586V36.551a2.023,2.023,0,0,1,2.021-2.021h7.194a3.185,3.185,0,0,0,0-6.37H25.479a5.822,5.822,0,1,0-8.766,0H5.184A3.191,3.191,0,0,0,2,31.349Zm36.193,0a1.185,1.185,0,0,1-1.184,1.184H29.815a4.026,4.026,0,0,0-4.021,4.021V56.113a1.85,1.85,0,0,1-3.7,0V46.7a1,1,0,0,0-2,0v9.413a1.851,1.851,0,0,1-3.7,0V36.55a4.026,4.026,0,0,0-4.021-4.02H5.181a1.184,1.184,0,0,1,0-2.368H21.058l.039,0,.039,0H37.01a1.185,1.185,0,0,1,1.183,1.185Zm-20.92-7.006a3.822,3.822,0,1,1,3.841,3.82h-.039a3.825,3.825,0,0,1-3.8-3.82Z" fill="#405425"/>
      <path id="Trazado_998141" data-name="Trazado 998141" d="M65,58.154H60.728V29.38a1,1,0,0,0-1-1H55.621a1,1,0,0,0-1,1V58.154h-4.16V39.647a1,1,0,0,0-1-1H45.354a1,1,0,0,0-1,1V58.154h-4.16v-8.24a1,1,0,0,0-1-1H35.088a1,1,0,0,0-1,1v8.24H31.12a1,1,0,0,0,0,2H65a1,1,0,0,0,0-2Zm-28.913,0v-7.24h2.106v7.24Zm10.267,0V40.647h2.107V58.154Zm10.267,0V30.38h2.107V58.154Z" fill="#405425"/>
    </g>
  </g>
</svg>
