<svg xmlns="http://www.w3.org/2000/svg" width="73" height="73" viewBox="0 0 73 73">
  <g id="Grupo_1178594" data-name="Grupo 1178594" transform="translate(-716.711 -1945.863)">
    <rect id="Rectángulo_454573" data-name="Rectángulo 454573" width="73" height="73" rx="5" transform="translate(716.711 1945.863)" fill="#ffd600"/>
    <g id="Grupo_1178593" data-name="Grupo 1178593" transform="translate(724.864 1945.897)">
      <path id="Trazado_1007315" data-name="Trazado 1007315" d="M39.317,41.084,36.752,40.4a.775.775,0,0,0-.4,1.5l2.564.687a.734.734,0,0,0,.2.027.775.775,0,0,0,.2-1.524Zm-18.429-.14a.775.775,0,0,0-.95-.548l-2.561.688a.775.775,0,0,0,.2,1.524.747.747,0,0,0,.2-.027l2.561-.687a.777.777,0,0,0,.548-.95ZM39.445,29.8a.775.775,0,0,0-1.059-.285l-3.293,1.9a.775.775,0,0,0,.775,1.343l3.293-1.9a.774.774,0,0,0,.283-1.059ZM21.6,31.415l-3.29-1.9a.775.775,0,1,0-.775,1.343l3.29,1.9a.775.775,0,1,0,.775-1.343Zm6.75-5.587a.775.775,0,0,0-.775.775v2.646a.775.775,0,0,0,1.55,0V26.6a.775.775,0,0,0-.775-.775Zm21.938-4.847H44.314a1.936,1.936,0,0,0-1.933,1.933v1.121a1.508,1.508,0,0,0,.957,1.4v2.643A1.317,1.317,0,0,0,44.653,29.4h5.292a1.317,1.317,0,0,0,1.315-1.315V25.438a1.507,1.507,0,0,0,.958-1.4V22.915a1.937,1.937,0,0,0-1.933-1.933Zm.382,3.011h-.182a.775.775,0,0,0-.775.775v3.079H44.889V24.767a.775.775,0,0,0-.775-.775h-.183V22.915a.388.388,0,0,1,.383-.382h5.971a.388.388,0,0,1,.382.382Zm-.382-3.011H44.314a1.936,1.936,0,0,0-1.933,1.933v1.121a1.508,1.508,0,0,0,.957,1.4v2.643A1.317,1.317,0,0,0,44.653,29.4h5.292a1.317,1.317,0,0,0,1.315-1.315V25.438a1.507,1.507,0,0,0,.958-1.4V22.915a1.937,1.937,0,0,0-1.933-1.933Zm.382,3.011h-.182a.775.775,0,0,0-.775.775v3.079H44.889V24.767a.775.775,0,0,0-.775-.775h-.183V22.915a.388.388,0,0,1,.383-.382h5.971a.388.388,0,0,1,.382.382Zm-.382-3.011H44.314a1.936,1.936,0,0,0-1.933,1.933v1.121a1.508,1.508,0,0,0,.957,1.4v2.643A1.317,1.317,0,0,0,44.653,29.4h5.292a1.317,1.317,0,0,0,1.315-1.315V25.438a1.507,1.507,0,0,0,.958-1.4V22.915a1.937,1.937,0,0,0-1.933-1.933Zm.382,3.011h-.182a.775.775,0,0,0-.775.775v3.079H44.889V24.767a.775.775,0,0,0-.775-.775h-.183V22.915a.388.388,0,0,1,.383-.382h5.971a.388.388,0,0,1,.382.382Zm-.382-3.011H44.314a1.936,1.936,0,0,0-1.933,1.933v1.121a1.508,1.508,0,0,0,.957,1.4v2.643A1.317,1.317,0,0,0,44.653,29.4h5.292a1.317,1.317,0,0,0,1.315-1.315V25.438a1.507,1.507,0,0,0,.958-1.4V22.915a1.937,1.937,0,0,0-1.933-1.933Zm.382,3.011h-.182a.775.775,0,0,0-.775.775v3.079H44.889V24.767a.775.775,0,0,0-.775-.775h-.183V22.915a.388.388,0,0,1,.383-.382h5.971a.388.388,0,0,1,.382.382Zm-.382-3.011H44.314a1.936,1.936,0,0,0-1.933,1.933v1.121a1.508,1.508,0,0,0,.957,1.4v2.643A1.317,1.317,0,0,0,44.653,29.4h5.292a1.317,1.317,0,0,0,1.315-1.315V25.438a1.507,1.507,0,0,0,.958-1.4V22.915a1.937,1.937,0,0,0-1.933-1.933Zm.382,3.011h-.182a.775.775,0,0,0-.775.775v3.079H44.889V24.767a.775.775,0,0,0-.775-.775h-.183V22.915a.388.388,0,0,1,.383-.382h5.971a.388.388,0,0,1,.382.382Zm-.382-3.011H44.314a1.936,1.936,0,0,0-1.933,1.933v1.121a1.508,1.508,0,0,0,.957,1.4v2.643A1.317,1.317,0,0,0,44.653,29.4h5.292a1.317,1.317,0,0,0,1.315-1.315V25.438a1.507,1.507,0,0,0,.958-1.4V22.915a1.937,1.937,0,0,0-1.933-1.933Zm.382,3.011h-.182a.775.775,0,0,0-.775.775v3.079H44.889V24.767a.775.775,0,0,0-.775-.775h-.183V22.915a.388.388,0,0,1,.383-.382h5.971a.388.388,0,0,1,.382.382Zm-.382-3.011H44.314a1.936,1.936,0,0,0-1.933,1.933v1.121a1.508,1.508,0,0,0,.957,1.4v2.643A1.317,1.317,0,0,0,44.653,29.4h5.292a1.317,1.317,0,0,0,1.315-1.315V25.438a1.507,1.507,0,0,0,.958-1.4V22.915a1.937,1.937,0,0,0-1.933-1.933Zm.382,3.011h-.182a.775.775,0,0,0-.775.775v3.079H44.889V24.767a.775.775,0,0,0-.775-.775h-.183V22.915a.388.388,0,0,1,.383-.382h5.971a.388.388,0,0,1,.382.382Zm-.382-3.011H44.314a1.936,1.936,0,0,0-1.933,1.933v1.121a1.508,1.508,0,0,0,.957,1.4v2.643A1.317,1.317,0,0,0,44.653,29.4h5.292a1.317,1.317,0,0,0,1.315-1.315V25.438a1.507,1.507,0,0,0,.958-1.4V22.915a1.937,1.937,0,0,0-1.933-1.933Zm.382,3.011h-.182a.775.775,0,0,0-.775.775v3.079H44.889V24.767a.775.775,0,0,0-.775-.775h-.183V22.915a.388.388,0,0,1,.383-.382h5.971a.388.388,0,0,1,.382.382Zm-.382-3.011H44.314a1.936,1.936,0,0,0-1.933,1.933v1.121a1.508,1.508,0,0,0,.957,1.4v2.643A1.317,1.317,0,0,0,44.653,29.4h5.292a1.317,1.317,0,0,0,1.315-1.315V25.438a1.507,1.507,0,0,0,.958-1.4V22.915a1.937,1.937,0,0,0-1.933-1.933Zm.382,3.011h-.182a.775.775,0,0,0-.775.775v3.079H44.889V24.767a.775.775,0,0,0-.775-.775h-.183V22.915a.388.388,0,0,1,.383-.382h5.971a.388.388,0,0,1,.382.382Zm-.382-3.011H44.314a1.936,1.936,0,0,0-1.933,1.933v1.121a1.508,1.508,0,0,0,.957,1.4v2.643A1.317,1.317,0,0,0,44.653,29.4h5.292a1.317,1.317,0,0,0,1.315-1.315V25.438a1.507,1.507,0,0,0,.958-1.4V22.915a1.937,1.937,0,0,0-1.933-1.933Zm.382,3.011h-.182a.775.775,0,0,0-.775.775v3.079H44.889V24.767a.775.775,0,0,0-.775-.775h-.183V22.915a.388.388,0,0,1,.383-.382h5.971a.388.388,0,0,1,.382.382Zm-.382-3.011H44.314a1.936,1.936,0,0,0-1.933,1.933v1.121a1.508,1.508,0,0,0,.957,1.4v2.643A1.317,1.317,0,0,0,44.653,29.4h5.292a1.317,1.317,0,0,0,1.315-1.315V25.438a1.507,1.507,0,0,0,.958-1.4V22.915a1.937,1.937,0,0,0-1.933-1.933Zm.382,3.011h-.182a.775.775,0,0,0-.775.775v3.079H44.889V24.767a.775.775,0,0,0-.775-.775h-.183V22.915a.388.388,0,0,1,.383-.382h5.971a.388.388,0,0,1,.382.382Zm-.382-3.011H44.314a1.936,1.936,0,0,0-1.933,1.933v1.121a1.508,1.508,0,0,0,.957,1.4v2.643A1.317,1.317,0,0,0,44.653,29.4h5.292a1.317,1.317,0,0,0,1.315-1.315V25.438a1.507,1.507,0,0,0,.958-1.4V22.915a1.937,1.937,0,0,0-1.933-1.933Zm.382,3.011h-.182a.775.775,0,0,0-.775.775v3.079H44.889V24.767a.775.775,0,0,0-.775-.775h-.183V22.915a.388.388,0,0,1,.383-.382h5.971a.388.388,0,0,1,.382.382ZM47.3,17.086a8.1,8.1,0,1,0,8.1,8.1,8.1,8.1,0,0,0-8.1-8.1Zm0,14.655a6.552,6.552,0,1,1,6.551-6.552A6.552,6.552,0,0,1,47.3,31.741Zm2.985-10.76H44.314a1.936,1.936,0,0,0-1.933,1.933v1.121a1.508,1.508,0,0,0,.957,1.4v2.643A1.317,1.317,0,0,0,44.653,29.4h5.292a1.317,1.317,0,0,0,1.315-1.315V25.438a1.507,1.507,0,0,0,.958-1.4V22.915A1.937,1.937,0,0,0,50.284,20.981Zm.382,3.011h-.182a.775.775,0,0,0-.775.775v3.079H44.889V24.767a.775.775,0,0,0-.775-.775h-.183V22.915a.388.388,0,0,1,.383-.382h5.971a.388.388,0,0,1,.382.382Zm-.382-3.011H44.314a1.936,1.936,0,0,0-1.933,1.933v1.121a1.508,1.508,0,0,0,.957,1.4v2.643A1.317,1.317,0,0,0,44.653,29.4h5.292a1.317,1.317,0,0,0,1.315-1.315V25.438a1.507,1.507,0,0,0,.958-1.4V22.915A1.937,1.937,0,0,0,50.284,20.981Zm.382,3.011h-.182a.775.775,0,0,0-.775.775v3.079H44.889V24.767a.775.775,0,0,0-.775-.775h-.183V22.915a.388.388,0,0,1,.383-.382h5.971a.388.388,0,0,1,.382.382Zm-.382-3.011H44.314a1.936,1.936,0,0,0-1.933,1.933v1.121a1.508,1.508,0,0,0,.957,1.4v2.643A1.317,1.317,0,0,0,44.653,29.4h5.292a1.317,1.317,0,0,0,1.315-1.315V25.438a1.507,1.507,0,0,0,.958-1.4V22.915A1.937,1.937,0,0,0,50.284,20.981Zm.382,3.011h-.182a.775.775,0,0,0-.775.775v3.079H44.889V24.767a.775.775,0,0,0-.775-.775h-.183V22.915a.388.388,0,0,1,.383-.382h5.971a.388.388,0,0,1,.382.382Zm-.382-3.011H44.314a1.936,1.936,0,0,0-1.933,1.933v1.121a1.508,1.508,0,0,0,.957,1.4v2.643A1.317,1.317,0,0,0,44.653,29.4h5.292a1.317,1.317,0,0,0,1.315-1.315V25.438a1.507,1.507,0,0,0,.958-1.4V22.915A1.937,1.937,0,0,0,50.284,20.981Zm.382,3.011h-.182a.775.775,0,0,0-.775.775v3.079H44.889V24.767a.775.775,0,0,0-.775-.775h-.183V22.915a.388.388,0,0,1,.383-.382h5.971a.388.388,0,0,1,.382.382Zm-.382-3.011H44.314a1.936,1.936,0,0,0-1.933,1.933v1.121a1.508,1.508,0,0,0,.957,1.4v2.643A1.317,1.317,0,0,0,44.653,29.4h5.292a1.317,1.317,0,0,0,1.315-1.315V25.438a1.507,1.507,0,0,0,.958-1.4V22.915A1.937,1.937,0,0,0,50.284,20.981Zm.382,3.011h-.182a.775.775,0,0,0-.775.775v3.079H44.889V24.767a.775.775,0,0,0-.775-.775h-.183V22.915a.388.388,0,0,1,.383-.382h5.971a.388.388,0,0,1,.382.382Zm-.382-3.011H44.314a1.936,1.936,0,0,0-1.933,1.933v1.121a1.508,1.508,0,0,0,.957,1.4v2.643A1.317,1.317,0,0,0,44.653,29.4h5.292a1.317,1.317,0,0,0,1.315-1.315V25.438a1.507,1.507,0,0,0,.958-1.4V22.915A1.937,1.937,0,0,0,50.284,20.981Zm.382,3.011h-.182a.775.775,0,0,0-.775.775v3.079H44.889V24.767a.775.775,0,0,0-.775-.775h-.183V22.915a.388.388,0,0,1,.383-.382h5.971a.388.388,0,0,1,.382.382Zm-.382-3.011H44.314a1.936,1.936,0,0,0-1.933,1.933v1.121a1.508,1.508,0,0,0,.957,1.4v2.643A1.317,1.317,0,0,0,44.653,29.4h5.292a1.317,1.317,0,0,0,1.315-1.315V25.438a1.507,1.507,0,0,0,.958-1.4V22.915A1.937,1.937,0,0,0,50.284,20.981Zm.382,3.011h-.182a.775.775,0,0,0-.775.775v3.079H44.889V24.767a.775.775,0,0,0-.775-.775h-.183V22.915a.388.388,0,0,1,.383-.382h5.971a.388.388,0,0,1,.382.382Zm-.382-3.011H44.314a1.936,1.936,0,0,0-1.933,1.933v1.121a1.508,1.508,0,0,0,.957,1.4v2.643A1.317,1.317,0,0,0,44.653,29.4h5.292a1.317,1.317,0,0,0,1.315-1.315V25.438a1.507,1.507,0,0,0,.958-1.4V22.915A1.937,1.937,0,0,0,50.284,20.981Zm.382,3.011h-.182a.775.775,0,0,0-.775.775v3.079H44.889V24.767a.775.775,0,0,0-.775-.775h-.183V22.915a.388.388,0,0,1,.383-.382h5.971a.388.388,0,0,1,.382.382Zm-.382-3.011H44.314a1.936,1.936,0,0,0-1.933,1.933v1.121a1.508,1.508,0,0,0,.957,1.4v2.643A1.317,1.317,0,0,0,44.653,29.4h5.292a1.317,1.317,0,0,0,1.315-1.315V25.438a1.507,1.507,0,0,0,.958-1.4V22.915A1.937,1.937,0,0,0,50.284,20.981Zm.382,3.011h-.182a.775.775,0,0,0-.775.775v3.079H44.889V24.767a.775.775,0,0,0-.775-.775h-.183V22.915a.388.388,0,0,1,.383-.382h5.971a.388.388,0,0,1,.382.382Zm-.382-3.011H44.314a1.936,1.936,0,0,0-1.933,1.933v1.121a1.508,1.508,0,0,0,.957,1.4v2.643A1.317,1.317,0,0,0,44.653,29.4h5.292a1.317,1.317,0,0,0,1.315-1.315V25.438a1.507,1.507,0,0,0,.958-1.4V22.915A1.937,1.937,0,0,0,50.284,20.981Zm.382,3.011h-.182a.775.775,0,0,0-.775.775v3.079H44.889V24.767a.775.775,0,0,0-.775-.775h-.183V22.915a.388.388,0,0,1,.383-.382h5.971a.388.388,0,0,1,.382.382Zm-.382-3.011H44.314a1.936,1.936,0,0,0-1.933,1.933v1.121a1.508,1.508,0,0,0,.957,1.4v2.643A1.317,1.317,0,0,0,44.653,29.4h5.292a1.317,1.317,0,0,0,1.315-1.315V25.438a1.507,1.507,0,0,0,.958-1.4V22.915A1.937,1.937,0,0,0,50.284,20.981Zm.382,3.011h-.182a.775.775,0,0,0-.775.775v3.079H44.889V24.767a.775.775,0,0,0-.775-.775h-.183V22.915a.388.388,0,0,1,.383-.382h5.971a.388.388,0,0,1,.382.382Zm-41.272.421a.979.979,0,1,1,.926-1.307.775.775,0,0,0,1.458-.527,2.55,2.55,0,0,0-1.609-1.554v-.672a.775.775,0,1,0-1.55,0v.671a2.53,2.53,0,0,0,.775,4.939.981.981,0,1,1-.923,1.312.775.775,0,1,0-1.461.52,2.536,2.536,0,0,0,1.609,1.558v.671a.775.775,0,1,0,1.55,0v-.671a2.531,2.531,0,0,0-.775-4.941Zm0,0a.979.979,0,1,1,.926-1.307.775.775,0,0,0,1.458-.527,2.55,2.55,0,0,0-1.609-1.554v-.672a.775.775,0,1,0-1.55,0v.671a2.53,2.53,0,0,0,.775,4.939.981.981,0,1,1-.923,1.312.775.775,0,1,0-1.461.52,2.536,2.536,0,0,0,1.609,1.558v.671a.775.775,0,1,0,1.55,0v-.671a2.531,2.531,0,0,0-.775-4.941Zm0,0a.979.979,0,1,1,.926-1.307.775.775,0,0,0,1.458-.527,2.55,2.55,0,0,0-1.609-1.554v-.672a.775.775,0,1,0-1.55,0v.671a2.53,2.53,0,0,0,.775,4.939.981.981,0,1,1-.923,1.312.775.775,0,1,0-1.461.52,2.536,2.536,0,0,0,1.609,1.558v.671a.775.775,0,1,0,1.55,0v-.671a2.531,2.531,0,0,0-.775-4.941Zm0,0a.979.979,0,1,1,.926-1.307.775.775,0,0,0,1.458-.527,2.55,2.55,0,0,0-1.609-1.554v-.672a.775.775,0,1,0-1.55,0v.671a2.53,2.53,0,0,0,.775,4.939.981.981,0,1,1-.923,1.312.775.775,0,1,0-1.461.52,2.536,2.536,0,0,0,1.609,1.558v.671a.775.775,0,1,0,1.55,0v-.671a2.531,2.531,0,0,0-.775-4.941Zm0,0a.979.979,0,1,1,.926-1.307.775.775,0,0,0,1.458-.527,2.55,2.55,0,0,0-1.609-1.554v-.672a.775.775,0,1,0-1.55,0v.671a2.53,2.53,0,0,0,.775,4.939.981.981,0,1,1-.923,1.312.775.775,0,1,0-1.461.52,2.536,2.536,0,0,0,1.609,1.558v.671a.775.775,0,1,0,1.55,0v-.671a2.531,2.531,0,0,0-.775-4.941Zm0,0a.979.979,0,1,1,.926-1.307.775.775,0,0,0,1.458-.527,2.55,2.55,0,0,0-1.609-1.554v-.672a.775.775,0,1,0-1.55,0v.671a2.53,2.53,0,0,0,.775,4.939.981.981,0,1,1-.923,1.312.775.775,0,1,0-1.461.52,2.536,2.536,0,0,0,1.609,1.558v.671a.775.775,0,1,0,1.55,0v-.671a2.531,2.531,0,0,0-.775-4.941Zm0,0a.979.979,0,1,1,.926-1.307.775.775,0,0,0,1.458-.527,2.55,2.55,0,0,0-1.609-1.554v-.672a.775.775,0,1,0-1.55,0v.671a2.53,2.53,0,0,0,.775,4.939.981.981,0,1,1-.923,1.312.775.775,0,1,0-1.461.52,2.536,2.536,0,0,0,1.609,1.558v.671a.775.775,0,1,0,1.55,0v-.671a2.531,2.531,0,0,0-.775-4.941Zm0,0a.979.979,0,1,1,.926-1.307.775.775,0,0,0,1.458-.527,2.55,2.55,0,0,0-1.609-1.554v-.672a.775.775,0,1,0-1.55,0v.671a2.53,2.53,0,0,0,.775,4.939.981.981,0,1,1-.923,1.312.775.775,0,1,0-1.461.52,2.536,2.536,0,0,0,1.609,1.558v.671a.775.775,0,1,0,1.55,0v-.671a2.531,2.531,0,0,0-.775-4.941Zm0,0a.979.979,0,1,1,.926-1.307.775.775,0,0,0,1.458-.527,2.55,2.55,0,0,0-1.609-1.554v-.672a.775.775,0,1,0-1.55,0v.671a2.53,2.53,0,0,0,.775,4.939.981.981,0,1,1-.923,1.312.775.775,0,1,0-1.461.52,2.536,2.536,0,0,0,1.609,1.558v.671a.775.775,0,1,0,1.55,0v-.671a2.531,2.531,0,0,0-.775-4.941Zm0,0a.979.979,0,1,1,.926-1.307.775.775,0,0,0,1.458-.527,2.55,2.55,0,0,0-1.609-1.554v-.672a.775.775,0,1,0-1.55,0v.671a2.53,2.53,0,0,0,.775,4.939.981.981,0,1,1-.923,1.312.775.775,0,1,0-1.461.52,2.536,2.536,0,0,0,1.609,1.558v.671a.775.775,0,1,0,1.55,0v-.671a2.531,2.531,0,0,0-.775-4.941Zm0,0a.979.979,0,1,1,.926-1.307.775.775,0,0,0,1.458-.527,2.55,2.55,0,0,0-1.609-1.554v-.672a.775.775,0,1,0-1.55,0v.671a2.53,2.53,0,0,0,.775,4.939.981.981,0,1,1-.923,1.312.775.775,0,1,0-1.461.52,2.536,2.536,0,0,0,1.609,1.558v.671a.775.775,0,1,0,1.55,0v-.671a2.531,2.531,0,0,0-.775-4.941Zm0,0a.979.979,0,1,1,.926-1.307.775.775,0,0,0,1.458-.527,2.55,2.55,0,0,0-1.609-1.554v-.672a.775.775,0,1,0-1.55,0v.671a2.53,2.53,0,0,0,.775,4.939.981.981,0,1,1-.923,1.312.775.775,0,1,0-1.461.52,2.536,2.536,0,0,0,1.609,1.558v.671a.775.775,0,1,0,1.55,0v-.671a2.531,2.531,0,0,0-.775-4.941Zm0-7.327a8.1,8.1,0,1,0,8.1,8.1,8.1,8.1,0,0,0-8.1-8.1Zm0,14.655a6.552,6.552,0,1,1,6.551-6.552,6.552,6.552,0,0,1-6.551,6.552Zm0-7.328a.979.979,0,1,1,.926-1.307.775.775,0,0,0,1.458-.527,2.55,2.55,0,0,0-1.609-1.554v-.672a.775.775,0,1,0-1.55,0v.671a2.53,2.53,0,0,0,.775,4.939.981.981,0,1,1-.923,1.312.775.775,0,1,0-1.461.52,2.536,2.536,0,0,0,1.609,1.558v.671a.775.775,0,1,0,1.55,0v-.671a2.531,2.531,0,0,0-.775-4.941Zm0,0a.979.979,0,1,1,.926-1.307.775.775,0,0,0,1.458-.527,2.55,2.55,0,0,0-1.609-1.554v-.672a.775.775,0,1,0-1.55,0v.671a2.53,2.53,0,0,0,.775,4.939.981.981,0,1,1-.923,1.312.775.775,0,1,0-1.461.52,2.536,2.536,0,0,0,1.609,1.558v.671a.775.775,0,1,0,1.55,0v-.671a2.531,2.531,0,0,0-.775-4.941Zm0,0a.979.979,0,1,1,.926-1.307.775.775,0,0,0,1.458-.527,2.55,2.55,0,0,0-1.609-1.554v-.672a.775.775,0,1,0-1.55,0v.671a2.53,2.53,0,0,0,.775,4.939.981.981,0,1,1-.923,1.312.775.775,0,1,0-1.461.52,2.536,2.536,0,0,0,1.609,1.558v.671a.775.775,0,1,0,1.55,0v-.671a2.531,2.531,0,0,0-.775-4.941Zm0,0a.979.979,0,1,1,.926-1.307.775.775,0,0,0,1.458-.527,2.55,2.55,0,0,0-1.609-1.554v-.672a.775.775,0,1,0-1.55,0v.671a2.53,2.53,0,0,0,.775,4.939.981.981,0,1,1-.923,1.312.775.775,0,1,0-1.461.52,2.536,2.536,0,0,0,1.609,1.558v.671a.775.775,0,1,0,1.55,0v-.671a2.531,2.531,0,0,0-.775-4.941Zm0,0a.979.979,0,1,1,.926-1.307.775.775,0,0,0,1.458-.527,2.55,2.55,0,0,0-1.609-1.554v-.672a.775.775,0,1,0-1.55,0v.671a2.53,2.53,0,0,0,.775,4.939.981.981,0,1,1-.923,1.312.775.775,0,1,0-1.461.52,2.536,2.536,0,0,0,1.609,1.558v.671a.775.775,0,1,0,1.55,0v-.671a2.531,2.531,0,0,0-.775-4.941Zm0,0a.979.979,0,1,1,.926-1.307.775.775,0,0,0,1.458-.527,2.55,2.55,0,0,0-1.609-1.554v-.672a.775.775,0,1,0-1.55,0v.671a2.53,2.53,0,0,0,.775,4.939.981.981,0,1,1-.923,1.312.775.775,0,1,0-1.461.52,2.536,2.536,0,0,0,1.609,1.558v.671a.775.775,0,1,0,1.55,0v-.671a2.531,2.531,0,0,0-.775-4.941Zm0,0a.979.979,0,1,1,.926-1.307.775.775,0,0,0,1.458-.527,2.55,2.55,0,0,0-1.609-1.554v-.672a.775.775,0,1,0-1.55,0v.671a2.53,2.53,0,0,0,.775,4.939.981.981,0,1,1-.923,1.312.775.775,0,1,0-1.461.52,2.536,2.536,0,0,0,1.609,1.558v.671a.775.775,0,1,0,1.55,0v-.671a2.531,2.531,0,0,0-.775-4.941Zm0,0a.979.979,0,1,1,.926-1.307.775.775,0,0,0,1.458-.527,2.55,2.55,0,0,0-1.609-1.554v-.672a.775.775,0,1,0-1.55,0v.671a2.53,2.53,0,0,0,.775,4.939.981.981,0,1,1-.923,1.312.775.775,0,1,0-1.461.52,2.536,2.536,0,0,0,1.609,1.558v.671a.775.775,0,1,0,1.55,0v-.671a2.531,2.531,0,0,0-.775-4.941Zm0,0a.979.979,0,1,1,.926-1.307.775.775,0,0,0,1.458-.527,2.55,2.55,0,0,0-1.609-1.554v-.672a.775.775,0,1,0-1.55,0v.671a2.53,2.53,0,0,0,.775,4.939.981.981,0,1,1-.923,1.312.775.775,0,1,0-1.461.52,2.536,2.536,0,0,0,1.609,1.558v.671a.775.775,0,1,0,1.55,0v-.671a2.531,2.531,0,0,0-.775-4.941Zm0,0a.979.979,0,1,1,.926-1.307.775.775,0,0,0,1.458-.527,2.55,2.55,0,0,0-1.609-1.554v-.672a.775.775,0,1,0-1.55,0v.671a2.53,2.53,0,0,0,.775,4.939.981.981,0,1,1-.923,1.312.775.775,0,1,0-1.461.52,2.536,2.536,0,0,0,1.609,1.558v.671a.775.775,0,1,0,1.55,0v-.671a2.531,2.531,0,0,0-.775-4.941Zm0,0a.979.979,0,1,1,.926-1.307.775.775,0,0,0,1.458-.527,2.55,2.55,0,0,0-1.609-1.554v-.672a.775.775,0,1,0-1.55,0v.671a2.53,2.53,0,0,0,.775,4.939.981.981,0,1,1-.923,1.312.775.775,0,1,0-1.461.52,2.536,2.536,0,0,0,1.609,1.558v.671a.775.775,0,1,0,1.55,0v-.671a2.531,2.531,0,0,0-.775-4.941ZM11.218,41.87h-1.3v-1.3a1.814,1.814,0,1,0-3.629,0v1.3h-1.3a1.814,1.814,0,1,0,0,3.629h1.3v1.3a1.814,1.814,0,0,0,3.629,0V45.5h1.3a1.814,1.814,0,0,0,0-3.629Zm0,2.078H9.141a.775.775,0,0,0-.776.775V46.8a.264.264,0,0,1-.527,0V44.724a.775.775,0,0,0-.775-.775H4.985a.264.264,0,0,1,0-.528H7.062a.775.775,0,0,0,.775-.775V40.568a.264.264,0,1,1,.527,0v2.077a.775.775,0,0,0,.776.775h2.077a.264.264,0,1,1,0,.528Zm0-2.078h-1.3v-1.3a1.814,1.814,0,1,0-3.629,0v1.3h-1.3a1.814,1.814,0,1,0,0,3.629h1.3v1.3a1.814,1.814,0,0,0,3.629,0V45.5h1.3a1.814,1.814,0,0,0,0-3.629Zm0,2.078H9.141a.775.775,0,0,0-.776.775V46.8a.264.264,0,0,1-.527,0V44.724a.775.775,0,0,0-.775-.775H4.985a.264.264,0,0,1,0-.528H7.062a.775.775,0,0,0,.775-.775V40.568a.264.264,0,1,1,.527,0v2.077a.775.775,0,0,0,.776.775h2.077a.264.264,0,1,1,0,.528Zm0-2.078h-1.3v-1.3a1.814,1.814,0,1,0-3.629,0v1.3h-1.3a1.814,1.814,0,1,0,0,3.629h1.3v1.3a1.814,1.814,0,0,0,3.629,0V45.5h1.3a1.814,1.814,0,0,0,0-3.629Zm0,2.078H9.141a.775.775,0,0,0-.776.775V46.8a.264.264,0,0,1-.527,0V44.724a.775.775,0,0,0-.775-.775H4.985a.264.264,0,0,1,0-.528H7.062a.775.775,0,0,0,.775-.775V40.568a.264.264,0,1,1,.527,0v2.077a.775.775,0,0,0,.776.775h2.077a.264.264,0,1,1,0,.528Zm0-2.078h-1.3v-1.3a1.814,1.814,0,1,0-3.629,0v1.3h-1.3a1.814,1.814,0,1,0,0,3.629h1.3v1.3a1.814,1.814,0,0,0,3.629,0V45.5h1.3a1.814,1.814,0,0,0,0-3.629Zm0,2.078H9.141a.775.775,0,0,0-.776.775V46.8a.264.264,0,0,1-.527,0V44.724a.775.775,0,0,0-.775-.775H4.985a.264.264,0,0,1,0-.528H7.062a.775.775,0,0,0,.775-.775V40.568a.264.264,0,1,1,.527,0v2.077a.775.775,0,0,0,.776.775h2.077a.264.264,0,1,1,0,.528Zm0-2.078h-1.3v-1.3a1.814,1.814,0,1,0-3.629,0v1.3h-1.3a1.814,1.814,0,1,0,0,3.629h1.3v1.3a1.814,1.814,0,0,0,3.629,0V45.5h1.3a1.814,1.814,0,0,0,0-3.629Zm0,2.078H9.141a.775.775,0,0,0-.776.775V46.8a.264.264,0,0,1-.527,0V44.724a.775.775,0,0,0-.775-.775H4.985a.264.264,0,0,1,0-.528H7.062a.775.775,0,0,0,.775-.775V40.568a.264.264,0,1,1,.527,0v2.077a.775.775,0,0,0,.776.775h2.077a.264.264,0,1,1,0,.528Zm0-2.078h-1.3v-1.3a1.814,1.814,0,1,0-3.629,0v1.3h-1.3a1.814,1.814,0,1,0,0,3.629h1.3v1.3a1.814,1.814,0,0,0,3.629,0V45.5h1.3a1.814,1.814,0,0,0,0-3.629Zm0,2.078H9.141a.775.775,0,0,0-.776.775V46.8a.264.264,0,0,1-.527,0V44.724a.775.775,0,0,0-.775-.775H4.985a.264.264,0,0,1,0-.528H7.062a.775.775,0,0,0,.775-.775V40.568a.264.264,0,1,1,.527,0v2.077a.775.775,0,0,0,.776.775h2.077a.264.264,0,1,1,0,.528Zm0-2.078h-1.3v-1.3a1.814,1.814,0,1,0-3.629,0v1.3h-1.3a1.814,1.814,0,1,0,0,3.629h1.3v1.3a1.814,1.814,0,0,0,3.629,0V45.5h1.3a1.814,1.814,0,0,0,0-3.629Zm0,2.078H9.141a.775.775,0,0,0-.776.775V46.8a.264.264,0,0,1-.527,0V44.724a.775.775,0,0,0-.775-.775H4.985a.264.264,0,0,1,0-.528H7.062a.775.775,0,0,0,.775-.775V40.568a.264.264,0,1,1,.527,0v2.077a.775.775,0,0,0,.776.775h2.077a.264.264,0,1,1,0,.528Zm0-2.078h-1.3v-1.3a1.814,1.814,0,1,0-3.629,0v1.3h-1.3a1.814,1.814,0,1,0,0,3.629h1.3v1.3a1.814,1.814,0,0,0,3.629,0V45.5h1.3a1.814,1.814,0,0,0,0-3.629Zm0,2.078H9.141a.775.775,0,0,0-.776.775V46.8a.264.264,0,0,1-.527,0V44.724a.775.775,0,0,0-.775-.775H4.985a.264.264,0,0,1,0-.528H7.062a.775.775,0,0,0,.775-.775V40.568a.264.264,0,1,1,.527,0v2.077a.775.775,0,0,0,.776.775h2.077a.264.264,0,1,1,0,.528Zm0-2.078h-1.3v-1.3a1.814,1.814,0,1,0-3.629,0v1.3h-1.3a1.814,1.814,0,1,0,0,3.629h1.3v1.3a1.814,1.814,0,0,0,3.629,0V45.5h1.3a1.814,1.814,0,0,0,0-3.629Zm0,2.078H9.141a.775.775,0,0,0-.776.775V46.8a.264.264,0,0,1-.527,0V44.724a.775.775,0,0,0-.775-.775H4.985a.264.264,0,0,1,0-.528H7.062a.775.775,0,0,0,.775-.775V40.568a.264.264,0,1,1,.527,0v2.077a.775.775,0,0,0,.776.775h2.077a.264.264,0,1,1,0,.528Zm0-2.078h-1.3v-1.3a1.814,1.814,0,1,0-3.629,0v1.3h-1.3a1.814,1.814,0,1,0,0,3.629h1.3v1.3a1.814,1.814,0,0,0,3.629,0V45.5h1.3a1.814,1.814,0,0,0,0-3.629Zm0,2.078H9.141a.775.775,0,0,0-.776.775V46.8a.264.264,0,0,1-.527,0V44.724a.775.775,0,0,0-.775-.775H4.985a.264.264,0,0,1,0-.528H7.062a.775.775,0,0,0,.775-.775V40.568a.264.264,0,1,1,.527,0v2.077a.775.775,0,0,0,.776.775h2.077a.264.264,0,1,1,0,.528Zm0-2.078h-1.3v-1.3a1.814,1.814,0,1,0-3.629,0v1.3h-1.3a1.814,1.814,0,1,0,0,3.629h1.3v1.3a1.814,1.814,0,0,0,3.629,0V45.5h1.3a1.814,1.814,0,0,0,0-3.629Zm0,2.078H9.141a.775.775,0,0,0-.776.775V46.8a.264.264,0,0,1-.527,0V44.724a.775.775,0,0,0-.775-.775H4.985a.264.264,0,0,1,0-.528H7.062a.775.775,0,0,0,.775-.775V40.568a.264.264,0,1,1,.527,0v2.077a.775.775,0,0,0,.776.775h2.077a.264.264,0,1,1,0,.528Zm0-2.078h-1.3v-1.3a1.814,1.814,0,1,0-3.629,0v1.3h-1.3a1.814,1.814,0,1,0,0,3.629h1.3v1.3a1.814,1.814,0,0,0,3.629,0V45.5h1.3a1.814,1.814,0,0,0,0-3.629Zm0,2.078H9.141a.775.775,0,0,0-.776.775V46.8a.264.264,0,0,1-.527,0V44.724a.775.775,0,0,0-.775-.775H4.985a.264.264,0,0,1,0-.528H7.062a.775.775,0,0,0,.775-.775V40.568a.264.264,0,1,1,.527,0v2.077a.775.775,0,0,0,.776.775h2.077a.264.264,0,1,1,0,.528ZM8.1,35.583a8.1,8.1,0,1,0,8.105,8.1,8.1,8.1,0,0,0-8.105-8.1Zm0,14.655a6.552,6.552,0,1,1,6.554-6.553A6.552,6.552,0,0,1,8.1,50.238Zm3.117-8.368h-1.3v-1.3a1.814,1.814,0,1,0-3.629,0v1.3h-1.3a1.814,1.814,0,1,0,0,3.629h1.3v1.3a1.814,1.814,0,0,0,3.629,0V45.5h1.3a1.814,1.814,0,0,0,0-3.629Zm0,2.078H9.141a.775.775,0,0,0-.776.775V46.8a.264.264,0,0,1-.527,0V44.724a.775.775,0,0,0-.775-.775H4.985a.264.264,0,0,1,0-.528H7.062a.775.775,0,0,0,.775-.775V40.568a.264.264,0,1,1,.527,0v2.077a.775.775,0,0,0,.776.775h2.077a.264.264,0,1,1,0,.528Zm0-2.078h-1.3v-1.3a1.814,1.814,0,1,0-3.629,0v1.3h-1.3a1.814,1.814,0,1,0,0,3.629h1.3v1.3a1.814,1.814,0,0,0,3.629,0V45.5h1.3a1.814,1.814,0,0,0,0-3.629Zm0,2.078H9.141a.775.775,0,0,0-.776.775V46.8a.264.264,0,0,1-.527,0V44.724a.775.775,0,0,0-.775-.775H4.985a.264.264,0,0,1,0-.528H7.062a.775.775,0,0,0,.775-.775V40.568a.264.264,0,1,1,.527,0v2.077a.775.775,0,0,0,.776.775h2.077a.264.264,0,1,1,0,.528Zm0-2.078h-1.3v-1.3a1.814,1.814,0,1,0-3.629,0v1.3h-1.3a1.814,1.814,0,1,0,0,3.629h1.3v1.3a1.814,1.814,0,0,0,3.629,0V45.5h1.3a1.814,1.814,0,0,0,0-3.629Zm0,2.078H9.141a.775.775,0,0,0-.776.775V46.8a.264.264,0,0,1-.527,0V44.724a.775.775,0,0,0-.775-.775H4.985a.264.264,0,0,1,0-.528H7.062a.775.775,0,0,0,.775-.775V40.568a.264.264,0,1,1,.527,0v2.077a.775.775,0,0,0,.776.775h2.077a.264.264,0,1,1,0,.528Zm0-2.078h-1.3v-1.3a1.814,1.814,0,1,0-3.629,0v1.3h-1.3a1.814,1.814,0,1,0,0,3.629h1.3v1.3a1.814,1.814,0,0,0,3.629,0V45.5h1.3a1.814,1.814,0,0,0,0-3.629Zm0,2.078H9.141a.775.775,0,0,0-.776.775V46.8a.264.264,0,0,1-.527,0V44.724a.775.775,0,0,0-.775-.775H4.985a.264.264,0,0,1,0-.528H7.062a.775.775,0,0,0,.775-.775V40.568a.264.264,0,1,1,.527,0v2.077a.775.775,0,0,0,.776.775h2.077a.264.264,0,1,1,0,.528Zm0-2.078h-1.3v-1.3a1.814,1.814,0,1,0-3.629,0v1.3h-1.3a1.814,1.814,0,1,0,0,3.629h1.3v1.3a1.814,1.814,0,0,0,3.629,0V45.5h1.3a1.814,1.814,0,0,0,0-3.629Zm0,2.078H9.141a.775.775,0,0,0-.776.775V46.8a.264.264,0,0,1-.527,0V44.724a.775.775,0,0,0-.775-.775H4.985a.264.264,0,0,1,0-.528H7.062a.775.775,0,0,0,.775-.775V40.568a.264.264,0,1,1,.527,0v2.077a.775.775,0,0,0,.776.775h2.077a.264.264,0,1,1,0,.528Zm0-2.078h-1.3v-1.3a1.814,1.814,0,1,0-3.629,0v1.3h-1.3a1.814,1.814,0,1,0,0,3.629h1.3v1.3a1.814,1.814,0,0,0,3.629,0V45.5h1.3a1.814,1.814,0,0,0,0-3.629Zm0,2.078H9.141a.775.775,0,0,0-.776.775V46.8a.264.264,0,0,1-.527,0V44.724a.775.775,0,0,0-.775-.775H4.985a.264.264,0,0,1,0-.528H7.062a.775.775,0,0,0,.775-.775V40.568a.264.264,0,1,1,.527,0v2.077a.775.775,0,0,0,.776.775h2.077a.264.264,0,1,1,0,.528Zm0-2.078h-1.3v-1.3a1.814,1.814,0,1,0-3.629,0v1.3h-1.3a1.814,1.814,0,1,0,0,3.629h1.3v1.3a1.814,1.814,0,0,0,3.629,0V45.5h1.3a1.814,1.814,0,0,0,0-3.629Zm0,2.078H9.141a.775.775,0,0,0-.776.775V46.8a.264.264,0,0,1-.527,0V44.724a.775.775,0,0,0-.775-.775H4.985a.264.264,0,0,1,0-.528H7.062a.775.775,0,0,0,.775-.775V40.568a.264.264,0,1,1,.527,0v2.077a.775.775,0,0,0,.776.775h2.077a.264.264,0,1,1,0,.528Zm0-2.078h-1.3v-1.3a1.814,1.814,0,1,0-3.629,0v1.3h-1.3a1.814,1.814,0,1,0,0,3.629h1.3v1.3a1.814,1.814,0,0,0,3.629,0V45.5h1.3a1.814,1.814,0,0,0,0-3.629Zm0,2.078H9.141a.775.775,0,0,0-.776.775V46.8a.264.264,0,0,1-.527,0V44.724a.775.775,0,0,0-.775-.775H4.985a.264.264,0,0,1,0-.528H7.062a.775.775,0,0,0,.775-.775V40.568a.264.264,0,1,1,.527,0v2.077a.775.775,0,0,0,.776.775h2.077a.264.264,0,1,1,0,.528Zm0-2.078h-1.3v-1.3a1.814,1.814,0,1,0-3.629,0v1.3h-1.3a1.814,1.814,0,1,0,0,3.629h1.3v1.3a1.814,1.814,0,0,0,3.629,0V45.5h1.3a1.814,1.814,0,0,0,0-3.629Zm0,2.078H9.141a.775.775,0,0,0-.776.775V46.8a.264.264,0,0,1-.527,0V44.724a.775.775,0,0,0-.775-.775H4.985a.264.264,0,0,1,0-.528H7.062a.775.775,0,0,0,.775-.775V40.568a.264.264,0,1,1,.527,0v2.077a.775.775,0,0,0,.776.775h2.077a.264.264,0,1,1,0,.528Zm0-2.078h-1.3v-1.3a1.814,1.814,0,1,0-3.629,0v1.3h-1.3a1.814,1.814,0,1,0,0,3.629h1.3v1.3a1.814,1.814,0,0,0,3.629,0V45.5h1.3a1.814,1.814,0,0,0,0-3.629Zm0,2.078H9.141a.775.775,0,0,0-.776.775V46.8a.264.264,0,0,1-.527,0V44.724a.775.775,0,0,0-.775-.775H4.985a.264.264,0,0,1,0-.528H7.062a.775.775,0,0,0,.775-.775V40.568a.264.264,0,1,1,.527,0v2.077a.775.775,0,0,0,.776.775h2.077a.264.264,0,1,1,0,.528Zm0-2.078h-1.3v-1.3a1.814,1.814,0,1,0-3.629,0v1.3h-1.3a1.814,1.814,0,1,0,0,3.629h1.3v1.3a1.814,1.814,0,0,0,3.629,0V45.5h1.3a1.814,1.814,0,0,0,0-3.629Zm0,2.078H9.141a.775.775,0,0,0-.776.775V46.8a.264.264,0,0,1-.527,0V44.724a.775.775,0,0,0-.775-.775H4.985a.264.264,0,0,1,0-.528H7.062a.775.775,0,0,0,.775-.775V40.568a.264.264,0,1,1,.527,0v2.077a.775.775,0,0,0,.776.775h2.077a.264.264,0,1,1,0,.528Zm41.5-3.691a2.854,2.854,0,0,0-4.027,0l-.1.1-.1-.1a2.848,2.848,0,1,0-4.028,4.028l3.33,3.33a1.117,1.117,0,0,0,.794.327,1.143,1.143,0,0,0,.8-.327l3.326-3.329a2.848,2.848,0,0,0,0-4.029Zm-1.1,2.932-3.026,3.03-3.031-3.03A1.3,1.3,0,1,1,47.4,41.357l.4.393a1.118,1.118,0,0,0,.789.331h.007a1.119,1.119,0,0,0,.8-.331l.4-.4a1.3,1.3,0,0,1,1.835,1.836Zm1.1-2.932a2.854,2.854,0,0,0-4.027,0l-.1.1-.1-.1a2.848,2.848,0,1,0-4.028,4.028l3.33,3.33a1.117,1.117,0,0,0,.794.327,1.143,1.143,0,0,0,.8-.327l3.326-3.329a2.848,2.848,0,0,0,0-4.029Zm-1.1,2.932-3.026,3.03-3.031-3.03A1.3,1.3,0,1,1,47.4,41.357l.4.393a1.118,1.118,0,0,0,.789.331h.007a1.119,1.119,0,0,0,.8-.331l.4-.4a1.3,1.3,0,0,1,1.835,1.836Zm1.1-2.932a2.854,2.854,0,0,0-4.027,0l-.1.1-.1-.1a2.848,2.848,0,1,0-4.028,4.028l3.33,3.33a1.117,1.117,0,0,0,.794.327,1.143,1.143,0,0,0,.8-.327l3.326-3.329a2.848,2.848,0,0,0,0-4.029Zm-1.1,2.932-3.026,3.03-3.031-3.03A1.3,1.3,0,1,1,47.4,41.357l.4.393a1.118,1.118,0,0,0,.789.331h.007a1.119,1.119,0,0,0,.8-.331l.4-.4a1.3,1.3,0,0,1,1.835,1.836Zm1.1-2.932a2.854,2.854,0,0,0-4.027,0l-.1.1-.1-.1a2.848,2.848,0,1,0-4.028,4.028l3.33,3.33a1.117,1.117,0,0,0,.794.327,1.143,1.143,0,0,0,.8-.327l3.326-3.329a2.848,2.848,0,0,0,0-4.029Zm-1.1,2.932-3.026,3.03-3.031-3.03A1.3,1.3,0,1,1,47.4,41.357l.4.393a1.118,1.118,0,0,0,.789.331h.007a1.119,1.119,0,0,0,.8-.331l.4-.4a1.3,1.3,0,0,1,1.835,1.836Zm1.1-2.932a2.854,2.854,0,0,0-4.027,0l-.1.1-.1-.1a2.848,2.848,0,1,0-4.028,4.028l3.33,3.33a1.117,1.117,0,0,0,.794.327,1.143,1.143,0,0,0,.8-.327l3.326-3.329a2.848,2.848,0,0,0,0-4.029Zm-1.1,2.932-3.026,3.03-3.031-3.03A1.3,1.3,0,1,1,47.4,41.357l.4.393a1.118,1.118,0,0,0,.789.331h.007a1.119,1.119,0,0,0,.8-.331l.4-.4a1.3,1.3,0,0,1,1.835,1.836Zm1.1-2.932a2.854,2.854,0,0,0-4.027,0l-.1.1-.1-.1a2.848,2.848,0,1,0-4.028,4.028l3.33,3.33a1.117,1.117,0,0,0,.794.327,1.143,1.143,0,0,0,.8-.327l3.326-3.329a2.848,2.848,0,0,0,0-4.029Zm-1.1,2.932-3.026,3.03-3.031-3.03A1.3,1.3,0,1,1,47.4,41.357l.4.393a1.118,1.118,0,0,0,.789.331h.007a1.119,1.119,0,0,0,.8-.331l.4-.4a1.3,1.3,0,0,1,1.835,1.836Zm1.1-2.932a2.854,2.854,0,0,0-4.027,0l-.1.1-.1-.1a2.848,2.848,0,1,0-4.028,4.028l3.33,3.33a1.117,1.117,0,0,0,.794.327,1.143,1.143,0,0,0,.8-.327l3.326-3.329a2.848,2.848,0,0,0,0-4.029Zm-1.1,2.932-3.026,3.03-3.031-3.03A1.3,1.3,0,1,1,47.4,41.357l.4.393a1.118,1.118,0,0,0,.789.331h.007a1.119,1.119,0,0,0,.8-.331l.4-.4a1.3,1.3,0,0,1,1.835,1.836Zm1.1-2.932a2.854,2.854,0,0,0-4.027,0l-.1.1-.1-.1a2.848,2.848,0,1,0-4.028,4.028l3.33,3.33a1.117,1.117,0,0,0,.794.327,1.143,1.143,0,0,0,.8-.327l3.326-3.329a2.848,2.848,0,0,0,0-4.029Zm-1.1,2.932-3.026,3.03-3.031-3.03A1.3,1.3,0,1,1,47.4,41.357l.4.393a1.118,1.118,0,0,0,.789.331h.007a1.119,1.119,0,0,0,.8-.331l.4-.4a1.3,1.3,0,0,1,1.835,1.836Zm1.1-2.932a2.854,2.854,0,0,0-4.027,0l-.1.1-.1-.1a2.848,2.848,0,1,0-4.028,4.028l3.33,3.33a1.117,1.117,0,0,0,.794.327,1.143,1.143,0,0,0,.8-.327l3.326-3.329a2.848,2.848,0,0,0,0-4.029Zm-1.1,2.932-3.026,3.03-3.031-3.03A1.3,1.3,0,1,1,47.4,41.357l.4.393a1.118,1.118,0,0,0,.789.331h.007a1.119,1.119,0,0,0,.8-.331l.4-.4a1.3,1.3,0,0,1,1.835,1.836Zm1.1-2.932a2.854,2.854,0,0,0-4.027,0l-.1.1-.1-.1a2.848,2.848,0,1,0-4.028,4.028l3.33,3.33a1.117,1.117,0,0,0,.794.327,1.143,1.143,0,0,0,.8-.327l3.326-3.329a2.848,2.848,0,0,0,0-4.029Zm-1.1,2.932-3.026,3.03-3.031-3.03A1.3,1.3,0,1,1,47.4,41.357l.4.393a1.118,1.118,0,0,0,.789.331h.007a1.119,1.119,0,0,0,.8-.331l.4-.4a1.3,1.3,0,0,1,1.835,1.836Zm1.1-2.932a2.854,2.854,0,0,0-4.027,0l-.1.1-.1-.1a2.848,2.848,0,1,0-4.028,4.028l3.33,3.33a1.117,1.117,0,0,0,.794.327,1.143,1.143,0,0,0,.8-.327l3.326-3.329a2.848,2.848,0,0,0,0-4.029Zm-1.1,2.932-3.026,3.03-3.031-3.03A1.3,1.3,0,1,1,47.4,41.357l.4.393a1.118,1.118,0,0,0,.789.331h.007a1.119,1.119,0,0,0,.8-.331l.4-.4a1.3,1.3,0,0,1,1.835,1.836Zm1.1-2.932a2.854,2.854,0,0,0-4.027,0l-.1.1-.1-.1a2.848,2.848,0,1,0-4.028,4.028l3.33,3.33a1.117,1.117,0,0,0,.794.327,1.143,1.143,0,0,0,.8-.327l3.326-3.329a2.848,2.848,0,0,0,0-4.029Zm-1.1,2.932-3.026,3.03-3.031-3.03A1.3,1.3,0,1,1,47.4,41.357l.4.393a1.118,1.118,0,0,0,.789.331h.007a1.119,1.119,0,0,0,.8-.331l.4-.4a1.3,1.3,0,0,1,1.835,1.836Zm-3.026-7.607a8.1,8.1,0,1,0,8.1,8.1A8.1,8.1,0,0,0,48.592,35.583Zm0,14.655a6.552,6.552,0,1,1,6.551-6.552A6.552,6.552,0,0,1,48.592,50.238Zm4.122-9.98a2.854,2.854,0,0,0-4.027,0l-.1.1-.1-.1a2.848,2.848,0,1,0-4.028,4.028l3.33,3.33a1.117,1.117,0,0,0,.794.327,1.143,1.143,0,0,0,.8-.327l3.326-3.329a2.848,2.848,0,0,0,0-4.029Zm-1.1,2.932-3.026,3.03-3.031-3.03A1.3,1.3,0,1,1,47.4,41.357l.4.393a1.118,1.118,0,0,0,.789.331h.007a1.119,1.119,0,0,0,.8-.331l.4-.4a1.3,1.3,0,0,1,1.835,1.836Zm1.1-2.932a2.854,2.854,0,0,0-4.027,0l-.1.1-.1-.1a2.848,2.848,0,1,0-4.028,4.028l3.33,3.33a1.117,1.117,0,0,0,.794.327,1.143,1.143,0,0,0,.8-.327l3.326-3.329a2.848,2.848,0,0,0,0-4.029Zm-1.1,2.932-3.026,3.03-3.031-3.03A1.3,1.3,0,1,1,47.4,41.357l.4.393a1.118,1.118,0,0,0,.789.331h.007a1.119,1.119,0,0,0,.8-.331l.4-.4a1.3,1.3,0,0,1,1.835,1.836Zm1.1-2.932a2.854,2.854,0,0,0-4.027,0l-.1.1-.1-.1a2.848,2.848,0,1,0-4.028,4.028l3.33,3.33a1.117,1.117,0,0,0,.794.327,1.143,1.143,0,0,0,.8-.327l3.326-3.329a2.848,2.848,0,0,0,0-4.029Zm-1.1,2.932-3.026,3.03-3.031-3.03A1.3,1.3,0,1,1,47.4,41.357l.4.393a1.118,1.118,0,0,0,.789.331h.007a1.119,1.119,0,0,0,.8-.331l.4-.4a1.3,1.3,0,0,1,1.835,1.836Zm1.1-2.932a2.854,2.854,0,0,0-4.027,0l-.1.1-.1-.1a2.848,2.848,0,1,0-4.028,4.028l3.33,3.33a1.117,1.117,0,0,0,.794.327,1.143,1.143,0,0,0,.8-.327l3.326-3.329a2.848,2.848,0,0,0,0-4.029Zm-1.1,2.932-3.026,3.03-3.031-3.03A1.3,1.3,0,1,1,47.4,41.357l.4.393a1.118,1.118,0,0,0,.789.331h.007a1.119,1.119,0,0,0,.8-.331l.4-.4a1.3,1.3,0,0,1,1.835,1.836Zm1.1-2.932a2.854,2.854,0,0,0-4.027,0l-.1.1-.1-.1a2.848,2.848,0,1,0-4.028,4.028l3.33,3.33a1.117,1.117,0,0,0,.794.327,1.143,1.143,0,0,0,.8-.327l3.326-3.329a2.848,2.848,0,0,0,0-4.029Zm-1.1,2.932-3.026,3.03-3.031-3.03A1.3,1.3,0,1,1,47.4,41.357l.4.393a1.118,1.118,0,0,0,.789.331h.007a1.119,1.119,0,0,0,.8-.331l.4-.4a1.3,1.3,0,0,1,1.835,1.836Zm1.1-2.932a2.854,2.854,0,0,0-4.027,0l-.1.1-.1-.1a2.848,2.848,0,1,0-4.028,4.028l3.33,3.33a1.117,1.117,0,0,0,.794.327,1.143,1.143,0,0,0,.8-.327l3.326-3.329a2.848,2.848,0,0,0,0-4.029Zm-1.1,2.932-3.026,3.03-3.031-3.03A1.3,1.3,0,1,1,47.4,41.357l.4.393a1.118,1.118,0,0,0,.789.331h.007a1.119,1.119,0,0,0,.8-.331l.4-.4a1.3,1.3,0,0,1,1.835,1.836Zm1.1-2.932a2.854,2.854,0,0,0-4.027,0l-.1.1-.1-.1a2.848,2.848,0,1,0-4.028,4.028l3.33,3.33a1.117,1.117,0,0,0,.794.327,1.143,1.143,0,0,0,.8-.327l3.326-3.329a2.848,2.848,0,0,0,0-4.029Zm-1.1,2.932-3.026,3.03-3.031-3.03A1.3,1.3,0,1,1,47.4,41.357l.4.393a1.118,1.118,0,0,0,.789.331h.007a1.119,1.119,0,0,0,.8-.331l.4-.4a1.3,1.3,0,0,1,1.835,1.836Zm1.1-2.932a2.854,2.854,0,0,0-4.027,0l-.1.1-.1-.1a2.848,2.848,0,1,0-4.028,4.028l3.33,3.33a1.117,1.117,0,0,0,.794.327,1.143,1.143,0,0,0,.8-.327l3.326-3.329a2.848,2.848,0,0,0,0-4.029Zm-1.1,2.932-3.026,3.03-3.031-3.03A1.3,1.3,0,1,1,47.4,41.357l.4.393a1.118,1.118,0,0,0,.789.331h.007a1.119,1.119,0,0,0,.8-.331l.4-.4a1.3,1.3,0,0,1,1.835,1.836Zm1.1-2.932a2.854,2.854,0,0,0-4.027,0l-.1.1-.1-.1a2.848,2.848,0,1,0-4.028,4.028l3.33,3.33a1.117,1.117,0,0,0,.794.327,1.143,1.143,0,0,0,.8-.327l3.326-3.329a2.848,2.848,0,0,0,0-4.029Zm-1.1,2.932-3.026,3.03-3.031-3.03A1.3,1.3,0,1,1,47.4,41.357l.4.393a1.118,1.118,0,0,0,.789.331h.007a1.119,1.119,0,0,0,.8-.331l.4-.4a1.3,1.3,0,0,1,1.835,1.836Zm1.1-2.932a2.854,2.854,0,0,0-4.027,0l-.1.1-.1-.1a2.848,2.848,0,1,0-4.028,4.028l3.33,3.33a1.117,1.117,0,0,0,.794.327,1.143,1.143,0,0,0,.8-.327l3.326-3.329a2.848,2.848,0,0,0,0-4.029Zm-1.1,2.932-3.026,3.03-3.031-3.03A1.3,1.3,0,1,1,47.4,41.357l.4.393a1.118,1.118,0,0,0,.789.331h.007a1.119,1.119,0,0,0,.8-.331l.4-.4a1.3,1.3,0,0,1,1.835,1.836Zm1.1-2.932a2.854,2.854,0,0,0-4.027,0l-.1.1-.1-.1a2.848,2.848,0,1,0-4.028,4.028l3.33,3.33a1.117,1.117,0,0,0,.794.327,1.143,1.143,0,0,0,.8-.327l3.326-3.329a2.848,2.848,0,0,0,0-4.029Zm-1.1,2.932-3.026,3.03-3.031-3.03A1.3,1.3,0,1,1,47.4,41.357l.4.393a1.118,1.118,0,0,0,.789.331h.007a1.119,1.119,0,0,0,.8-.331l.4-.4a1.3,1.3,0,0,1,1.835,1.836ZM38.006,15.457l-5.879-4.012-.012-.007L29.056,9.353l0,0a1.244,1.244,0,0,0-1.415,0l-5.966,4.069-2.983,2.035a.775.775,0,0,0,.874,1.281l1.5-1.021v7.637a1.376,1.376,0,0,0,1.321,1.422h3.765a.567.567,0,0,0,.062,0,.58.58,0,0,0,.062,0h4.157a.582.582,0,0,0,.062,0,.567.567,0,0,0,.062,0h3.761a1.378,1.378,0,0,0,1.324-1.422V15.717l1.5,1.021a.775.775,0,0,0,.874-1.281Zm-8.294,7.769H26.981v-3.3a1.365,1.365,0,1,1,2.731,0Zm4.373,0H31.263v-3.3a2.916,2.916,0,1,0-5.832,0v3.3H22.609V14.66l2.916-1.99.008-.006,2.814-1.92,5.738,3.915ZM31.147,46.683h-5.6c-5.346,0-9.7,4.008-9.7,8.936v6.1A2.092,2.092,0,0,0,17.941,63.8h20.81a2.092,2.092,0,0,0,2.091-2.087v-6.1C40.842,50.691,36.493,46.683,31.147,46.683Zm8.144,15.031a.545.545,0,0,1-.539.537H35.365V55.618a.775.775,0,1,0-1.55,0v6.633H22.879V55.618a.775.775,0,0,0-1.55,0v6.633H17.941a.539.539,0,0,1-.539-.537v-6.1c0-4.073,3.653-7.386,8.144-7.386h5.6c4.491,0,8.144,3.313,8.144,7.386ZM28.347,31.176A7.222,7.222,0,1,0,35.57,38.4a7.222,7.222,0,0,0-7.223-7.223Zm0,12.894A5.672,5.672,0,1,1,34.018,38.4,5.672,5.672,0,0,1,28.347,44.071Z" transform="translate(0)"/>
      <path id="Trazado_1007316" data-name="Trazado 1007316" d="M20.56,262.04a6.552,6.552,0,1,0,6.554,6.552,6.552,6.552,0,0,0-6.554-6.552Zm3.117,8.364h-1.3v1.3a1.814,1.814,0,1,1-3.629,0v-1.3h-1.3a1.814,1.814,0,0,1,0-3.629h1.3v-1.3a1.814,1.814,0,1,1,3.629,0v1.3h1.3a1.814,1.814,0,1,1,0,3.629Z" transform="translate(-12.459 -224.906)" fill="#6edbbb"/>
      <path id="Trazado_1007317" data-name="Trazado 1007317" d="M49.4,294.051a.267.267,0,0,1-.264.264H47.055a.775.775,0,0,0-.776.775v2.077a.264.264,0,0,1-.527,0v-2.077a.775.775,0,0,0-.775-.775H42.9a.264.264,0,0,1,0-.528h2.077a.775.775,0,0,0,.775-.775v-2.077a.264.264,0,1,1,.527,0v2.077a.775.775,0,0,0,.776.775h2.077a.267.267,0,0,1,.264.265Z" transform="translate(-37.914 -250.365)" fill="#2da17e"/>
      <path id="Trazado_1007318" data-name="Trazado 1007318" d="M32.213,94.99a6.552,6.552,0,1,0,6.551,6.551,6.552,6.552,0,0,0-6.551-6.551Zm.775,10.716v.671a.775.775,0,0,1-1.55,0v-.671a2.536,2.536,0,0,1-1.609-1.558.775.775,0,0,1,1.461-.52.981.981,0,1,0,.923-1.312,2.53,2.53,0,0,1-.775-4.939v-.671a.775.775,0,0,1,1.55,0v.672A2.55,2.55,0,0,1,34.6,98.932a.775.775,0,0,1-1.458.527.982.982,0,1,0-.926,1.307,2.531,2.531,0,0,1,.775,4.941Z" transform="translate(-22.819 -76.353)" fill="#fea832"/>
      <path id="Trazado_1007319" data-name="Trazado 1007319" d="M215.656,27.625v8.566h-2.821v-3.3a2.916,2.916,0,0,0-5.832,0v3.3H204.18V27.625l2.916-1.99.008-.006,2.814-1.92Z" transform="translate(-181.571 -12.966)" fill="#00cef2"/>
      <path id="Trazado_1007320" data-name="Trazado 1007320" d="M246.4,95.675v3.3H243.67v-3.3a1.365,1.365,0,1,1,2.731,0Z" transform="translate(-216.689 -75.748)" fill="#00b9da"/>
      <path id="Trazado_1007321" data-name="Trazado 1007321" d="M374.533,94.99a6.552,6.552,0,1,0,6.551,6.551A6.552,6.552,0,0,0,374.533,94.99Zm3.961,6.8v2.643a1.317,1.317,0,0,1-1.315,1.315h-5.292a1.317,1.317,0,0,1-1.315-1.315v-2.643a1.508,1.508,0,0,1-.957-1.4V99.267a1.936,1.936,0,0,1,1.933-1.933h5.971a1.937,1.937,0,0,1,1.933,1.933v1.121A1.507,1.507,0,0,1,378.494,101.791Z" transform="translate(-327.234 -76.353)" fill="#ebb37b"/>
      <path id="Trazado_1007322" data-name="Trazado 1007322" d="M403.476,130.552v1.077h-.182a.775.775,0,0,0-.775.775v3.079H397.7V132.4a.775.775,0,0,0-.775-.775h-.183v-1.077a.388.388,0,0,1,.383-.382h5.971A.388.388,0,0,1,403.476,130.552Z" transform="translate(-352.809 -107.637)" fill="#c99057"/>
      <path id="Trazado_1007323" data-name="Trazado 1007323" d="M386.213,262.04a6.552,6.552,0,1,0,6.551,6.551A6.552,6.552,0,0,0,386.213,262.04Zm4.122,7.153-3.326,3.329a1.143,1.143,0,0,1-.8.327,1.117,1.117,0,0,1-.794-.327l-3.33-3.33a2.848,2.848,0,1,1,4.028-4.028l.1.1.1-.1a2.848,2.848,0,1,1,4.027,4.029Z" transform="translate(-337.621 -224.906)" fill="#f9c"/>
      <path id="Trazado_1007324" data-name="Trazado 1007324" d="M414.863,298.019a1.285,1.285,0,0,1-.381.918l-3.026,3.03-3.031-3.03a1.3,1.3,0,0,1,1.838-1.834l.4.393a1.118,1.118,0,0,0,.79.331h.007a1.119,1.119,0,0,0,.8-.331l.4-.4a1.3,1.3,0,0,1,2.216.918Z" transform="translate(-362.863 -255.747)" fill="#dd5b9c"/>
      <circle id="Elipse_13659" data-name="Elipse 13659" cx="5.672" cy="5.672" r="5.672" transform="translate(21.84 43.088) rotate(-80.783)" fill="#fbbd80"/>
      <path id="Trazado_1007325" data-name="Trazado 1007325" d="M179.049,369.656v6.1a.545.545,0,0,1-.539.537h-3.387v-6.633a.775.775,0,1,0-1.55,0v6.633H162.637v-6.633a.775.775,0,1,0-1.55,0v6.633H157.7a.539.539,0,0,1-.539-.537v-6.1c0-4.073,3.653-7.386,8.144-7.386h5.6C175.4,362.27,179.049,365.583,179.049,369.656Z" transform="translate(-139.758 -314.037)" fill="#0091ca"/>
    </g>
  </g>
</svg>
