<svg xmlns="http://www.w3.org/2000/svg" width="73" height="73" viewBox="0 0 73 73">
  <g id="Grupo_1180965" data-name="Grupo 1180965" transform="translate(-830 -2143)">
    <rect id="Rectángulo_454618" data-name="Rectángulo 454618" width="73" height="73" rx="5" transform="translate(830 2143)" fill="#ffd600"/>
    <g id="Grupo_1178690" data-name="Grupo 1178690" transform="translate(754 1982.879)">
      <g id="Grupo_1178686" data-name="Grupo 1178686" transform="translate(84.501 194.869)">
        <path id="Trazado_1007669" data-name="Trazado 1007669" d="M439.064,585.756h-7.32a1.1,1.1,0,0,1-1.041-1.439l3.66-11.138a1.1,1.1,0,0,1,2.083,0l3.66,11.138a1.1,1.1,0,0,1-1.041,1.439Zm-5.806-2.192h4.291l-2.146-6.53Z" transform="translate(-407.401 -565.71)" fill="#405425"/>
        <path id="Trazado_1007670" data-name="Trazado 1007670" d="M371.77,741.21h-18a1.1,1.1,0,0,1-1.1-1.1v-1.362A3.758,3.758,0,0,1,356.424,735h12.689a3.758,3.758,0,0,1,3.754,3.754v1.362A1.1,1.1,0,0,1,371.77,741.21Zm-16.908-2.192h15.812v-.266a1.564,1.564,0,0,0-1.562-1.562H356.424a1.564,1.564,0,0,0-1.561,1.562Z" transform="translate(-334.765 -717.146)" fill="#405425"/>
        <path id="Trazado_1007671" data-name="Trazado 1007671" d="M100.045,484.222A8.736,8.736,0,0,1,91.32,475.5a1.1,1.1,0,0,1,1.1-1.1h15.259a1.1,1.1,0,0,1,1.1,1.1A8.736,8.736,0,0,1,100.045,484.222Zm-6.44-7.629a6.534,6.534,0,0,0,12.88,0Z" transform="translate(-91.32 -474.4)" fill="#405425"/>
        <path id="Trazado_1007672" data-name="Trazado 1007672" d="M221.367,592.172H203.776a1.1,1.1,0,0,1-1.1-1.1v-4.22a1.1,1.1,0,0,1,2.192,0v3.124h16.494a1.1,1.1,0,1,1,0,2.192Z" transform="translate(-195.051 -578.131)" fill="#405425"/>
        <path id="Trazado_1007673" data-name="Trazado 1007673" d="M662.723,484.222A8.736,8.736,0,0,1,654,475.5a1.1,1.1,0,0,1,1.1-1.1h15.256a1.1,1.1,0,0,1,1.1,1.1A8.736,8.736,0,0,1,662.723,484.222Zm-6.44-7.629a6.534,6.534,0,0,0,12.883,0Z" transform="translate(-615.451 -474.4)" fill="#405425"/>
        <path id="Trazado_1007674" data-name="Trazado 1007674" d="M527.247,592.172H509.656a1.1,1.1,0,1,1,0-2.192h16.494v-3.124a1.1,1.1,0,0,1,2.192,0v4.22A1.1,1.1,0,0,1,527.247,592.172Z" transform="translate(-479.975 -578.131)" fill="#405425"/>
      </g>
      <path id="Trazado_1007675" data-name="Trazado 1007675" d="M93.227,192.767a9.229,9.229,0,1,1,9.228-9.23A9.238,9.238,0,0,1,93.227,192.767Zm0-16.262a7.035,7.035,0,1,0,7.035,7.033A7.035,7.035,0,0,0,93.227,176.505Z" fill="#2d3b1a"/>
      <path id="Trazado_1007676" data-name="Trazado 1007676" d="M655.858,192.8a9.227,9.227,0,1,1,9.227-9.23A9.238,9.238,0,0,1,655.858,192.8Zm0-16.262a7.035,7.035,0,1,0,7.035,7.034A7.035,7.035,0,0,0,655.858,176.542Z" transform="translate(-524.084 -0.037)" fill="#c8bf57"/>
      <path id="Trazado_1007677" data-name="Trazado 1007677" d="M161.422,295.192H154.7a1.1,1.1,0,0,1,0-2.192h6.726a1.1,1.1,0,0,1,0,2.192Z" transform="translate(-64.832 -110.559)" fill="#2d3b1a"/>
      <path id="Trazado_1007678" data-name="Trazado 1007678" d="M724.052,295.192h-6.726a1.1,1.1,0,0,1,0-2.192h6.726a1.1,1.1,0,0,1,0,2.192Z" transform="translate(-588.916 -110.559)" fill="#c8bf57"/>
      <path id="Trazado_1007679" data-name="Trazado 1007679" d="M766.416,252.914a1.1,1.1,0,0,1-1.1-1.1V245.1a1.1,1.1,0,1,1,2.192,0v6.726A1.1,1.1,0,0,1,766.416,252.914Z" transform="translate(-634.643 -64.916)" fill="#c8bf57"/>
    </g>
  </g>
</svg>
