<svg xmlns="http://www.w3.org/2000/svg" width="100" height="100" viewBox="0 0 100 100">
  <g id="Grupo_1176927" data-name="Grupo 1176927" transform="translate(-637 -6992)">
    <g id="Grupo_1098742" data-name="Grupo 1098742" transform="translate(637.242 6992)">
      <rect id="Rectángulo_400898" data-name="Rectángulo 400898" width="100" height="100" rx="50" transform="translate(-0.242)" fill="#fff" opacity="0.859"/>
      <g id="Rectángulo_400907" data-name="Rectángulo 400907" transform="translate(-0.242)" fill="none" stroke="#c8bf57" stroke-linecap="round" stroke-width="3" stroke-dasharray="0 7">
        <rect width="100" height="100" rx="50" stroke="none"/>
        <rect x="1.5" y="1.5" width="97" height="97" rx="48.5" fill="none"/>
      </g>
    </g>
    <g id="Grupo_1107006" data-name="Grupo 1107006" transform="translate(645.398 7000.157)">
      <rect id="Rectángulo_400898-2" data-name="Rectángulo 400898" width="84" height="84" rx="42" transform="translate(-0.399 -0.157)" fill="#405425"/>
      <rect id="Rectángulo_400907-2" data-name="Rectángulo 400907" width="84" height="84" rx="42" transform="translate(-0.398 -0.157)" fill="none"/>
    </g>
    <g id="Grupo_1177904" data-name="Grupo 1177904" transform="translate(660.272 7015.095)">
      <g id="Grupo_1177902" data-name="Grupo 1177902" transform="translate(1.821 1.821)">
        <g id="Grupo_1177886" data-name="Grupo 1177886" transform="translate(34.465 27.08)">
          <path id="Trazado_996171" data-name="Trazado 996171" d="M56.949,41.885a3.549,3.549,0,0,1,.181,1.1,3.4,3.4,0,0,1-.574,1.9L53.847,48.95H48.924L45.3,44.724A5.414,5.414,0,0,1,44,41.212a4.567,4.567,0,0,1,4.571-4.571h4.776A9.8,9.8,0,0,0,58.771,35v2.782A5.528,5.528,0,0,1,56.949,41.885Z" transform="translate(-44 -35)" fill="#656d78"/>
        </g>
        <g id="Grupo_1177887" data-name="Grupo 1177887" transform="translate(0 27.9)">
          <path id="Trazado_996172" data-name="Trazado 996172" d="M15.056,44.51l-.033.107a7.652,7.652,0,0,1-3.176,4.513H6.924a7.652,7.652,0,0,1-3.176-4.513l-.016-.066a3.48,3.48,0,0,1,.336-6.187l4.677-2.084A3.427,3.427,0,0,1,10.083,36h.123a3.281,3.281,0,0,1,3.282,3.282h.574a2.709,2.709,0,0,1,.993,5.227Z" transform="translate(-2 -36)" fill="#656d78"/>
        </g>
        <g id="Grupo_1177888" data-name="Grupo 1177888" transform="translate(34.687 43.492)">
          <path id="Trazado_996173" data-name="Trazado 996173" d="M54.93,55.345a5.685,5.685,0,0,1,3.89,5.4H44.869l-.6-1.592a5.709,5.709,0,0,1,3.668-3.808L48.972,55A7.775,7.775,0,0,0,53.9,55Z" transform="translate(-44.27 -55)" fill="#b4dd7f"/>
        </g>
        <g id="Grupo_1177889" data-name="Grupo 1177889" transform="translate(39.389 41.03)">
          <path id="Trazado_996174" data-name="Trazado 996174" d="M54.924,52v2.462a7.775,7.775,0,0,1-4.924,0V52Z" transform="translate(-50 -52)" fill="#a0d468"/>
        </g>
        <g id="Grupo_1177890" data-name="Grupo 1177890" transform="translate(0 43.492)">
          <path id="Trazado_996175" data-name="Trazado 996175" d="M12.881,55.345a5.685,5.685,0,0,1,3.89,5.4H2a5.686,5.686,0,0,1,3.89-5.4L6.924,55a7.775,7.775,0,0,0,4.924,0Z" transform="translate(-2 -55)" fill="#b4dd7f"/>
        </g>
        <g id="Grupo_1177891" data-name="Grupo 1177891" transform="translate(4.924 41.03)">
          <path id="Trazado_996176" data-name="Trazado 996176" d="M12.924,52v2.462a7.775,7.775,0,0,1-4.924,0V52Z" transform="translate(-8 -52)" fill="#a0d468"/>
        </g>
        <g id="Grupo_1177892" data-name="Grupo 1177892" transform="translate(16.412 19.842)">
          <path id="Trazado_996177" data-name="Trazado 996177" d="M37.033,27.485a7.18,7.18,0,0,0-2.552-1.206l-.115-.025a1.17,1.17,0,0,1-.222-.074l-.172,1.034a4.147,4.147,0,0,1-.1.46,6.811,6.811,0,0,1-2.847,4.1,6.819,6.819,0,0,1-2.847-4.1,4.148,4.148,0,0,1-.1-.46l-.172-1.034a1.17,1.17,0,0,1-.222.074,7.314,7.314,0,0,0-2.634,1.256l-1.461,1.411A7.5,7.5,0,0,0,22,33.541v1.518H40.053V33.418A7.325,7.325,0,0,0,37.033,27.485Z" transform="translate(-22 -26.18)" fill="#ff826e"/>
        </g>
        <g id="Grupo_1177893" data-name="Grupo 1177893" transform="translate(16.412 41.85)">
          <path id="Trazado_996178" data-name="Trazado 996178" d="M35.13,60.385H22l.427-1.723A7.632,7.632,0,0,1,28.565,53a7.775,7.775,0,0,0,4.924,0l.591.1a7.6,7.6,0,0,1,5.875,4.833l.32.862.6,1.592Z" transform="translate(-22 -53)" fill="#75b1f2"/>
        </g>
        <g id="Grupo_1177894" data-name="Grupo 1177894" transform="translate(22.977 39.389)">
          <path id="Trazado_996179" data-name="Trazado 996179" d="M34.924,50v2.462a7.775,7.775,0,0,1-4.924,0V50Z" transform="translate(-30 -50)" fill="#5d9cec"/>
        </g>
        <g id="Grupo_1177895" data-name="Grupo 1177895" transform="translate(18.053 26.259)">
          <path id="Trazado_996180" data-name="Trazado 996180" d="M31.385,34h4.924a2.46,2.46,0,0,1,1.74,4.2,2.407,2.407,0,0,1-.935.583v.008a13.579,13.579,0,0,1-2.257,6.827l-1.009,1.51H28.924L25.3,42.9A5.414,5.414,0,0,1,24,39.391c0-.238.016-.476.853-2.913a5.127,5.127,0,0,1,.722-.9.411.411,0,0,1,.066-.057A5.4,5.4,0,0,1,29.391,34Z" transform="translate(-24 -34)" fill="#b27946"/>
        </g>
        <g id="Grupo_1177896" data-name="Grupo 1177896" transform="translate(22.591 21.335)">
          <path id="Trazado_996181" data-name="Trazado 996181" d="M29.53,28h5.695a6.811,6.811,0,0,1-2.847,4.1A6.819,6.819,0,0,1,29.53,28Z" transform="translate(-29.53 -28)" fill="#ffeaa7"/>
        </g>
        <g id="Grupo_1177897" data-name="Grupo 1177897" transform="translate(14.771 0)">
          <path id="Trazado_996182" data-name="Trazado 996182" d="M41.335,14.924A3.444,3.444,0,0,1,39.793,17.8l-.919.615a3.6,3.6,0,0,1-1.256,4.021l-.944.714a7.18,7.18,0,0,0-2.552-1.206l-.115-.025a1.17,1.17,0,0,1-.222-.074,1.651,1.651,0,0,1-.944-1l-.361-1.083a5.726,5.726,0,0,0,3.931-5.449V11.133a1.639,1.639,0,0,0-.8-1.4L32.309,7.744h-4.1L25.58,9.714a1.652,1.652,0,0,0-.656,1.313v3.282a5.71,5.71,0,0,0,1.682,4.062,5.64,5.64,0,0,0,2.248,1.387l-.361,1.083a1.651,1.651,0,0,1-.944,1,1.17,1.17,0,0,1-.222.074,7.314,7.314,0,0,0-2.634,1.256l-.008-.008-.968-.73a3.606,3.606,0,0,1-1.444-2.88,3.652,3.652,0,0,1,.189-1.141l-.919-.615a3.454,3.454,0,0,1-.533-5.317,2.8,2.8,0,0,0,.78-1.51l.279-1.682a8.718,8.718,0,0,1,17.2,0l.279,1.682a2.8,2.8,0,0,0,.78,1.51,3.452,3.452,0,0,1,1.009,2.445Z" transform="translate(-20 -2)" fill="#656d78"/>
        </g>
        <g id="Grupo_1177898" data-name="Grupo 1177898" transform="translate(36.106 13.95)">
          <path id="Trazado_996183" data-name="Trazado 996183" d="M52.565,28.847a3.282,3.282,0,1,0-3.282-3.282A3.281,3.281,0,0,0,52.565,28.847Zm5.367-6.327a.821.821,0,0,0,.574,1.4h.624v3.282h-.624a.821.821,0,0,0-.574,1.4l.435.435-2.322,2.322-.435-.435a.821.821,0,0,0-1.4.574v.624H50.924v-.624a.821.821,0,0,0-1.4-.574l-.435.435-2.322-2.322.435-.435a.821.821,0,0,0-.574-1.4H46V23.924h.624a.821.821,0,0,0,.574-1.4l-.435-.435,2.322-2.322.435.435a.821.821,0,0,0,1.4-.574V19h3.282v.624a.821.821,0,0,0,1.4.574l.435-.435,2.322,2.322Z" transform="translate(-46 -19)" fill="#fcd770"/>
        </g>
        <g id="Grupo_1177899" data-name="Grupo 1177899" transform="translate(0)">
          <path id="Trazado_996184" data-name="Trazado 996184" d="M8.565,11.847A3.282,3.282,0,1,0,5.282,8.565,3.281,3.281,0,0,0,8.565,11.847ZM13.931,5.52a.821.821,0,0,0,.574,1.4h.624v3.282h-.624a.821.821,0,0,0-.574,1.4l.435.435-2.322,2.322-.435-.435a.821.821,0,0,0-1.4.574v.624H6.924v-.624a.821.821,0,0,0-1.4-.574l-.435.435L2.763,12.044l.435-.435a.821.821,0,0,0-.574-1.4H2V6.924h.624A.821.821,0,0,0,3.2,5.52l-.435-.435L5.085,2.763,5.52,3.2a.821.821,0,0,0,1.4-.574V2h3.282v.624a.821.821,0,0,0,1.4.574l.435-.435,2.322,2.322Z" transform="translate(-2 -2)" fill="#fcd770"/>
        </g>
        <g id="Grupo_1177900" data-name="Grupo 1177900" transform="translate(22.32 17.758)">
          <path id="Trazado_996185" data-name="Trazado 996185" d="M34.493,24.723a1.651,1.651,0,0,0,.944,1l-.172,1.034a4.146,4.146,0,0,1-.1.46H29.471a4.147,4.147,0,0,1-.1-.46L29.2,25.724a1.651,1.651,0,0,0,.944-1L30.5,23.64a5.714,5.714,0,0,0,3.627,0Z" transform="translate(-29.2 -23.64)" fill="#f0d0b4"/>
        </g>
        <g id="Grupo_1177901" data-name="Grupo 1177901" transform="translate(19.694 5.744)">
          <path id="Trazado_996186" data-name="Trazado 996186" d="M37.488,12.389v3.176a5.726,5.726,0,0,1-3.931,5.449,5.714,5.714,0,0,1-3.627,0,5.64,5.64,0,0,1-2.248-1.387A5.71,5.71,0,0,1,26,15.565V12.282a1.652,1.652,0,0,1,.656-1.313L29.282,9h4.1l3.307,1.986A1.639,1.639,0,0,1,37.488,12.389Z" transform="translate(-26 -9)" fill="#f0d0b4"/>
        </g>
      </g>
      <g id="Grupo_1177903" data-name="Grupo 1177903" transform="translate(1 1)">
        <circle id="Elipse_13631" data-name="Elipse 13631" cx="1" cy="1" r="1" transform="translate(23.438 10.438)"/>
        <circle id="Elipse_13632" data-name="Elipse 13632" cx="1" cy="1" r="1" transform="translate(27.438 10.438)"/>
        <path id="Trazado_996188" data-name="Trazado 996188" d="M1.422,11.866,4.9,15.349l1.019-1.02v1.442h4.924V14.328l1.019,1.021,3.483-3.483-1.021-1.019h1.443V5.924H14.328L15.349,4.9,11.866,1.421,10.847,2.442V1H5.924V2.443L4.9,1.422,1.422,4.9,2.443,5.924H1v4.924H2.443ZM2.641,7.552A1.642,1.642,0,0,0,3.735,4.912L4.913,3.734a1.641,1.641,0,0,0,2.64-1.093H9.217a1.642,1.642,0,0,0,2.641,1.094l1.178,1.178a1.641,1.641,0,0,0,1.094,2.64V9.217a1.642,1.642,0,0,0-1.094,2.641l-1.178,1.178A1.642,1.642,0,0,0,9.217,14.13H7.552a1.642,1.642,0,0,0-2.641-1.094L3.734,11.858a1.641,1.641,0,0,0-1.093-2.64Z" transform="translate(-1 -1)"/>
        <path id="Trazado_996189" data-name="Trazado 996189" d="M9.1,13.206A4.1,4.1,0,1,0,5,9.1,4.108,4.108,0,0,0,9.1,13.206Zm0-6.565A2.462,2.462,0,1,1,6.641,9.1,2.465,2.465,0,0,1,9.1,6.641Z" transform="translate(-1.718 -1.718)"/>
        <path id="Trazado_996190" data-name="Trazado 996190" d="M11.924,22.641H10.282V21H8.641v1.641H7v1.641H8.641v1.641h1.641V24.282h1.641Z" transform="translate(-2.076 -4.588)"/>
        <path id="Trazado_996191" data-name="Trazado 996191" d="M10.282,33.924V32.282h1.641V30.641H10.282V29H8.641v1.641H7v1.641H8.641v1.641Z" transform="translate(-2.076 -6.023)"/>
        <path id="Trazado_996192" data-name="Trazado 996192" d="M51.877,19.874H50.434l1.021-1.02-3.483-3.483-1.019,1.021V14.95H42.03v1.443l-1.019-1.021-3.483,3.483,1.021,1.019H37.106V24.8h1.443l-1.021,1.02L41.011,29.3l1.018-1.021v1.442H40.856a5.37,5.37,0,0,0-3.749,1.525V28.9A8.16,8.16,0,0,0,34.585,23l.117-.088a4.412,4.412,0,0,0,1.7-4.314l.441-.294a4.278,4.278,0,0,0,.652-6.584,1.945,1.945,0,0,1-.545-1.06L36.668,8.97a9.539,9.539,0,0,0-18.818,0l-.281,1.686a1.948,1.948,0,0,1-.545,1.059,4.278,4.278,0,0,0,.652,6.584l.441.294a4.413,4.413,0,0,0,1.7,4.313l.151.113a8.316,8.316,0,0,0-2.555,6v2.34H19.43a6.172,6.172,0,0,0,1.118,6.15l3.428,4V43a8.432,8.432,0,0,0-6.109,6.131l-.275,1.1h-.245a6.492,6.492,0,0,0-4.388-5.358l-.471-.158V43.264A8.433,8.433,0,0,0,15.565,38.8a3.518,3.518,0,0,0-1.517-6.61A4.109,4.109,0,0,0,10.027,28.9H9.9a4.078,4.078,0,0,0-1.666.354l-4.682,2.08a4.294,4.294,0,0,0-.711,7.453,8.439,8.439,0,0,0,3.08,4.477v1.457l-.47.157A6.506,6.506,0,0,0,1,51.056v.821H51.877v-.821a6.5,6.5,0,0,0-4.453-6.178l-.47-.158V43.1l2.567-3.851a4.231,4.231,0,0,0,.716-2.36,4.3,4.3,0,0,0-.088-.856,6.356,6.356,0,0,0,1.729-4.345V27.367l-1.276.85a8.937,8.937,0,0,1-3.648,1.407V28.277L47.972,29.3l3.483-3.483L50.434,24.8h1.443ZM36.96,39.154l3.428,4v1.567l-.47.157a6.5,6.5,0,0,0-3.353,2.577,8.452,8.452,0,0,0-6.023-4.477v-1.52l.869-1.3A14.373,14.373,0,0,0,33.765,33.4a3.275,3.275,0,0,0,1.585-2.038h1.642a5.369,5.369,0,0,0-1.526,3.749,6.21,6.21,0,0,0,1.5,4.042Zm8.352,5.518a7,7,0,0,1-3.282,0v-1h3.282ZM28.9,43.03a7,7,0,0,1-3.282,0v-1H28.9Zm6.565-13.309h-.117a3.283,3.283,0,0,0-1.41-1.943,1.977,1.977,0,0,1,.465-.759l-1.16-1.16a3.613,3.613,0,0,0-.862,1.421c-.067,0-.131-.021-.2-.021H28.577a7.675,7.675,0,0,0,2.44-4.425l.02-.121A6.527,6.527,0,0,1,35.465,28.9Zm-8.206-9.027a6.59,6.59,0,0,0,1.281-.127l.117.354a2.438,2.438,0,0,0,.824,1.145l-.045.27H25.082l-.045-.271a2.436,2.436,0,0,0,.824-1.146l.117-.353a6.527,6.527,0,0,0,1.281.128Zm1.714,3.282a6.035,6.035,0,0,1-1.714,2.264,6.043,6.043,0,0,1-1.714-2.264Zm-9.142-5.485.2-.595-1.444-.963a2.637,2.637,0,0,1-.4-4.058,3.575,3.575,0,0,0,1-1.95l.281-1.686a7.9,7.9,0,0,1,15.58,0l.281,1.685a3.566,3.566,0,0,0,1,1.951,2.637,2.637,0,0,1-.4,4.059l-1.444.963.2.595a2.775,2.775,0,0,1-.97,3.1l-.479.359a8.169,8.169,0,0,0-2.325-.987l-.12-.03a.818.818,0,0,1-.58-.536l-.12-.359a6.566,6.566,0,0,0,3.731-5.912V10.955a2.473,2.473,0,0,0-1.195-2.111L29.323,6.862l-.844,1.407,3.306,1.983a.823.823,0,0,1,.4.7V14.13a4.924,4.924,0,0,1-9.847,0V10.847a.825.825,0,0,1,.327-.656l2.134-1.6,2.79,2.093.984-1.313L24.8,6.539l-3.119,2.34a2.474,2.474,0,0,0-.984,1.969V14.13a6.565,6.565,0,0,0,3.73,5.912l-.12.359a.816.816,0,0,1-.58.537A8.336,8.336,0,0,0,21.3,21.972l-.5-.378a2.774,2.774,0,0,1-.969-3.1Zm-.778,11.229v-.7a6.679,6.679,0,0,1,4.43-6.3l.018.107a7.677,7.677,0,0,0,2.44,4.425h-.677a6.177,6.177,0,0,0-2.968.757,3.581,3.581,0,0,0-1.022-2.158l-1.16,1.161a1.968,1.968,0,0,1,.58,1.4v.859c-.13.142-.254.289-.37.442Zm1.641,3.749a4.575,4.575,0,0,1,4.57-4.57h6.918a1.641,1.641,0,0,1,0,3.282H30.541A1.643,1.643,0,0,1,28.9,30.541H27.259a3.286,3.286,0,0,0,3.282,3.282h1.53a12.733,12.733,0,0,1-2.028,5.42l-.762,1.145H25.175l-3.38-3.945a4.571,4.571,0,0,1-1.1-2.974ZM19.458,49.533a6.786,6.786,0,0,1,5.318-5.015,8.517,8.517,0,0,0,4.991-.007l.409.068a6.809,6.809,0,0,1,5.243,4.316l.5,1.341H32.183V46.953H30.541v3.282H23.977V46.953H22.335v3.282H19.283ZM7.565,43.671h3.282v1a7,7,0,0,1-3.282,0ZM4.879,39.525a4.227,4.227,0,0,0,.423.043H6.744a2.462,2.462,0,1,0,0-4.924H5.924v1.641h.821a.821.821,0,1,1,0,1.641H5.3a2.661,2.661,0,0,1-1.081-5.093L8.9,30.753a2.441,2.441,0,0,1,1-.212h.124A2.465,2.465,0,0,1,12.488,33v.821h1.4a1.885,1.885,0,0,1,.369,3.734l-1.928.386.322,1.609.968-.194a6.807,6.807,0,0,1-2.206,2.671H7a6.8,6.8,0,0,1-2.122-2.5Zm1.094,6.909.79-.263a8.5,8.5,0,0,0,4.886,0l.79.263a4.864,4.864,0,0,1,3.259,3.8H14.13V48.595H12.488v1.641H5.924V48.595H4.282v1.641H2.71a4.866,4.866,0,0,1,3.263-3.8Zm44.194,3.8H48.595V48.595H46.953v1.641H40.389V48.595H38.747v1.641H37.675l-.291-.776a4.867,4.867,0,0,1,3.053-3.026l.79-.263a8.5,8.5,0,0,0,4.886,0l.79.263a4.865,4.865,0,0,1,3.264,3.8Zm.069-18.55a4.708,4.708,0,0,1-.844,2.683,4.3,4.3,0,0,0-.4-.489l-.635-.635-1.16,1.16.635.635a2.611,2.611,0,0,1,.327,3.3L45.694,42.03H41.587l-3.38-3.945a4.571,4.571,0,0,1-1.1-2.974,3.754,3.754,0,0,1,3.749-3.749h4.78a10.555,10.555,0,0,0,4.6-1.05v1.374Zm0-8.518a1.642,1.642,0,0,0-1.094,2.641l-1.178,1.178a1.642,1.642,0,0,0-2.641,1.094H43.659a1.642,1.642,0,0,0-2.641-1.094L39.84,25.809a1.642,1.642,0,0,0-1.093-2.641V21.5a1.642,1.642,0,0,0,1.094-2.641l1.178-1.178a1.642,1.642,0,0,0,2.641-1.094h1.665a1.642,1.642,0,0,0,2.641,1.094l1.178,1.178A1.642,1.642,0,0,0,50.237,21.5v1.665Z" transform="translate(-1 -1)"/>
        <path id="Trazado_996193" data-name="Trazado 996193" d="M53.1,22a4.1,4.1,0,1,0,4.1,4.1A4.108,4.108,0,0,0,53.1,22Zm0,6.565A2.462,2.462,0,1,1,55.565,26.1,2.465,2.465,0,0,1,53.1,28.565Z" transform="translate(-9.611 -4.767)"/>
        <path id="Trazado_996194" data-name="Trazado 996194" d="M52.641,14.924h1.641V13.282h1.641V11.641H54.282V10H52.641v1.641H51v1.641h1.641Z" transform="translate(-9.97 -2.615)"/>
        <path id="Trazado_996195" data-name="Trazado 996195" d="M52.641,6.924h1.641V5.282h1.641V3.641H54.282V2H52.641V3.641H51V5.282h1.641Z" transform="translate(-9.97 -1.179)"/>
      </g>
    </g>
  </g>
</svg>
