<svg xmlns="http://www.w3.org/2000/svg" width="72" height="72" viewBox="0 0 72 72">
  <g id="Grupo_1114452" data-name="Grupo 1114452" transform="translate(-704.668 -6155)">
    <path id="Trazado_925100" data-name="Trazado 925100" d="M8,0H64a8,8,0,0,1,8,8V64a8,8,0,0,1-8,8H8a8,8,0,0,1-8-8V8A8,8,0,0,1,8,0Z" transform="translate(704.668 6155)" fill="#c5cbbd"/>
    <g id="Grupo_1176528" data-name="Grupo 1176528" transform="translate(716.881 6167.939)">
      <path id="Trazado_990233" data-name="Trazado 990233" d="M12,15H41.049V44.049H12Z" transform="translate(-2.738 -3.559)" fill="#6aa5bf"/>
      <path id="Trazado_990234" data-name="Trazado 990234" d="M12,15H41.049A29.049,29.049,0,0,1,12,44.049h0Z" transform="translate(-2.738 -3.559)" fill="#95cbe9"/>
      <path id="Trazado_990235" data-name="Trazado 990235" d="M44.139,33.02,41.96,36.651l2.179,3.631,2.179-3.631Z" transform="translate(-10.94 -8.492)" fill="#c0935b"/>
      <path id="Trazado_990236" data-name="Trazado 990236" d="M50.137,47.02l-2.418,4.357L45.3,47.02" transform="translate(-11.854 -12.325)" fill="#c0935b"/>
      <path id="Trazado_990237" data-name="Trazado 990237" d="M43.474,47.02l-2.426,4.357L38.63,47.02" transform="translate(-10.028 -12.325)" fill="#c0935b"/>
      <path id="Trazado_990238" data-name="Trazado 990238" d="M36.8,47.02l-2.418,4.357L31.96,47.02" transform="translate(-8.202 -12.325)" fill="#c0935b"/>
      <path id="Trazado_990239" data-name="Trazado 990239" d="M30.137,47.02l-2.418,4.357L25.3,47.02" transform="translate(-6.379 -12.325)" fill="#ebcc90"/>
      <path id="Trazado_990240" data-name="Trazado 990240" d="M23.474,47.02l-2.426,4.357L18.63,47.02" transform="translate(-4.553 -12.325)" fill="#ebcc90"/>
      <path id="Trazado_990241" data-name="Trazado 990241" d="M16.8,47.02l-2.418,4.357L11.96,47.02" transform="translate(-2.727 -12.325)" fill="#ebcc90"/>
      <path id="Trazado_990242" data-name="Trazado 990242" d="M32.489,25l2.186,2.919-4.357,5.81-4.357-5.81L28.153,25" transform="translate(-6.559 -6.297)" fill="#c0935b"/>
      <path id="Trazado_990243" data-name="Trazado 990243" d="M18.139,33.02,15.96,36.651l2.179,3.631,2.179-3.631Z" transform="translate(-3.822 -8.492)" fill="#ebcc90"/>
      <path id="Trazado_990244" data-name="Trazado 990244" d="M44.179,33,42,36.631l.886,1.452a29.224,29.224,0,0,0,2.338-3.362Z" transform="translate(-10.951 -8.487)" fill="#ebcc90"/>
      <path id="Trazado_990245" data-name="Trazado 990245" d="M10.46,6H42.08l5.084,1.452L42.08,8.9H10.46" transform="translate(-2.316 -1.095)" fill="#f0efec"/>
      <g id="Grupo_1176527" data-name="Grupo 1176527" transform="translate(10.715 2.726)">
        <path id="Trazado_990246" data-name="Trazado 990246" d="M14,11.715V4.452a1.452,1.452,0,0,1,2.9,0v7.262" transform="translate(-14 -3)" fill="#c0935b"/>
        <path id="Trazado_990247" data-name="Trazado 990247" d="M22,11.715V4.452a1.452,1.452,0,1,1,2.9,0v7.262" transform="translate(-16.19 -3)" fill="#c0935b"/>
        <path id="Trazado_990248" data-name="Trazado 990248" d="M30,11.715V4.452a1.452,1.452,0,1,1,2.9,0v7.262" transform="translate(-18.38 -3)" fill="#c0935b"/>
        <path id="Trazado_990249" data-name="Trazado 990249" d="M38,11.715V4.452a1.452,1.452,0,1,1,2.9,0v7.262" transform="translate(-20.57 -3)" fill="#c0935b"/>
        <path id="Trazado_990250" data-name="Trazado 990250" d="M46,11.715V4.452a1.452,1.452,0,1,1,2.9,0v7.262" transform="translate(-22.76 -3)" fill="#c0935b"/>
      </g>
      <path id="Trazado_990251" data-name="Trazado 990251" d="M39.7,23.9H8.084L3,22.452,8.084,21H39.7" transform="translate(-0.274 -5.202)" fill="#f0efec"/>
      <circle id="Elipse_13565" data-name="Elipse 13565" cx="3" cy="3" r="3" transform="translate(38.787 14.061)" fill="#f2614c"/>
      <circle id="Elipse_13566" data-name="Elipse 13566" cx="3" cy="3" r="3" transform="translate(2.787 3.061)" fill="#f2614c"/>
      <path id="Trazado_990252" data-name="Trazado 990252" d="M18.494,32.368a.726.726,0,0,0-1.242,0L15.073,36a.726.726,0,0,0,0,.726l2.179,3.631a.726.726,0,0,0,1.242,0l2.179-3.631a.726.726,0,0,0,0-.726Zm-.6,6.224-1.329-2.179,1.329-2.23,1.307,2.179Z" transform="translate(-3.552 -8.218)"/>
      <path id="Trazado_990253" data-name="Trazado 990253" d="M43.252,40.387a.726.726,0,0,0,1.242,0l2.179-3.631a.726.726,0,0,0,0-.726L44.494,32.4a.726.726,0,0,0-1.242,0l-2.179,3.631a.726.726,0,0,0,0,.726Zm.646-6.195,1.307,2.179-1.336,2.179L42.54,36.371Z" transform="translate(-10.67 -8.226)"/>
      <path id="Trazado_990254" data-name="Trazado 990254" d="M39.764,8.536a.581.581,0,0,0,.2,0l5.084-1.452a.726.726,0,0,0,0-1.394L39.96,4.237a.581.581,0,0,0-.2-.058H37.586a2.179,2.179,0,0,0-4.357,0H31.776a2.179,2.179,0,1,0-4.357,0H25.966a2.179,2.179,0,0,0-4.357,0H20.156a2.179,2.179,0,0,0-4.357,0H14.346a2.179,2.179,0,1,0-4.357,0H8.536a3.631,3.631,0,1,0,0,4.357H9.989v2.179H9.262a.726.726,0,0,0-.726.726v3.631H7.81a.581.581,0,0,0-.2,0L2.53,16.525a.726.726,0,0,0,0,1.394l5.084,1.452a.581.581,0,0,0,.2.058h.726V40.491a.726.726,0,0,0,.726.726h.726v2.9h1.452v-2.9h1.452v2.9h1.452v-2.9H15.8v2.9h1.452v-2.9H18.7v2.9h1.452v-2.9h1.452v2.9h1.452v-2.9h1.452v2.9h1.452v-2.9h1.452v2.9h1.452v-2.9h1.452v2.9h1.452v-2.9h1.452v2.9h1.452v-2.9h1.452v2.9h1.452v-2.9h.726a.726.726,0,0,0,.726-.726V19.43a3.631,3.631,0,1,0,0-4.357V11.441a.726.726,0,0,0-.726-.726h-.726V8.536Zm-.1-2.9,2.542.726-2.542.726H37.586V5.631Zm-7.887,5.084V8.536h1.452v2.179Zm1.452-5.084V7.084H31.776V5.631ZM29.6,3.452a.726.726,0,0,1,.726.726v6.536H28.871V4.179A.726.726,0,0,1,29.6,3.452Zm-2.179,7.262H25.966V8.536h1.452Zm0-5.084V7.084H25.966V5.631ZM23.787,3.452a.726.726,0,0,1,.726.726v6.536H23.061V4.179A.726.726,0,0,1,23.787,3.452Zm-2.179,7.262H20.156V8.536h1.452Zm0-5.084V7.084H20.156V5.631ZM17.977,3.452a.726.726,0,0,1,.726.726v6.536H17.251V4.179A.726.726,0,0,1,17.977,3.452ZM15.8,10.715H14.346V8.536H15.8Zm0-5.084V7.084H14.346V5.631ZM5.631,8.536A2.179,2.179,0,1,1,7.81,6.357,2.179,2.179,0,0,1,5.631,8.536ZM9.19,7.084a3.668,3.668,0,0,0,0-1.452h.8V7.084Zm2.251-2.9a.726.726,0,1,1,1.452,0v6.536H11.441ZM5.37,17.251l2.542-.726h30.5a3.631,3.631,0,0,0,0,1.452H7.912Zm21.838,4.357L23.787,26.22l-3.479-4.612,1.649-2.179h3.631ZM9.989,37.491l1.06,1.91a.723.723,0,0,0,1.271,0l1.787-3.21,1.787,3.21a.726.726,0,0,0,1.271,0l1.787-3.21,1.787,3.21A.726.726,0,0,0,22,39.4l1.787-3.21,1.787,3.21a.723.723,0,0,0,1.271,0l1.787-3.21,1.787,3.21a.726.726,0,0,0,1.271,0l1.787-3.21,1.787,3.21a.726.726,0,0,0,1.264,0l1.06-1.9v2.266H9.989Zm.508-2.07h2.375l-1.213,2.164Zm4.844,0h2.346l-1.162,2.164Zm4.815-.015h2.368L21.34,37.586Zm4.837,0h2.375l-1.184,2.179Zm4.844,0h2.375l-1.162,2.179Zm4.844,0h2.368l-1.184,2.179Zm2.9-1.452H9.989V19.43H20.156l-1.322,1.757a.726.726,0,0,0,0,.871l4.357,5.81a.726.726,0,0,0,1.162,0l4.357-5.81a.726.726,0,0,0,0-.871L27.418,19.43H37.586Zm4.357-18.882a2.179,2.179,0,1,1-2.179,2.179A2.179,2.179,0,0,1,41.943,15.072Zm-31.954,0v-2.9h27.6v2.9Zm24.692-4.357V4.179a.726.726,0,1,1,1.452,0v6.536Z"/>
    </g>
  </g>
</svg>
