<svg xmlns="http://www.w3.org/2000/svg" width="115" height="115" viewBox="0 0 115 115">
  <g id="Grupo_1180966" data-name="Grupo 1180966" transform="translate(-217.75 -1148)">
    <circle id="Elipse_13660" data-name="Elipse 13660" cx="57.5" cy="57.5" r="57.5" transform="translate(217.75 1148)" fill="#fff3b2"/>
    <g id="Grupo_1180853" data-name="Grupo 1180853" transform="translate(235.148 1163.398)">
      <g id="Grupo_1180851" data-name="Grupo 1180851" transform="translate(1.31 2.31)">
        <g id="Grupo_1180820" data-name="Grupo 1180820" transform="translate(35.363 2.619)">
          <circle id="Elipse_13751" data-name="Elipse 13751" cx="4" cy="4" r="4" transform="translate(-0.071 -0.328)" fill="#fcd770"/>
        </g>
        <g id="Grupo_1180821" data-name="Grupo 1180821" transform="translate(60.247 0)">
          <circle id="Elipse_13752" data-name="Elipse 13752" cx="9" cy="9" r="9" transform="translate(0.044 0.292)" fill="#fcd770"/>
        </g>
        <g id="Grupo_1180822" data-name="Grupo 1180822" transform="translate(68.106 26.195)">
          <circle id="Elipse_13753" data-name="Elipse 13753" cx="4" cy="4" r="4" transform="translate(0.186 0.097)" fill="#fcd770"/>
        </g>
        <g id="Grupo_1180823" data-name="Grupo 1180823" transform="translate(35.363 68.106)">
          <circle id="Elipse_13754" data-name="Elipse 13754" cx="4" cy="4" r="4" transform="translate(-0.071 0.187)" fill="#fcd770"/>
        </g>
        <g id="Grupo_1180824" data-name="Grupo 1180824" transform="translate(0 57.628)">
          <path id="Trazado_1010900" data-name="Trazado 1010900" d="M18.891,49.065A10.484,10.484,0,1,1,11.478,46,10.5,10.5,0,0,1,18.891,49.065Z" transform="translate(-1 -46)" fill="#fcd770"/>
        </g>
        <g id="Grupo_1180825" data-name="Grupo 1180825" transform="translate(0 23.575)">
          <path id="Trazado_1010901" data-name="Trazado 1010901" d="M8.989,27.858a9.1,9.1,0,0,0-2.567,4.7v.013A14.346,14.346,0,0,1,1,21.31V20a7.865,7.865,0,0,0,7.858,7.858Z" transform="translate(-1 -20)" fill="#e6e9ed"/>
        </g>
        <g id="Grupo_1180826" data-name="Grupo 1180826" transform="translate(20.825 29.94)">
          <path id="Trazado_1010902" data-name="Trazado 1010902" d="M20.96,27.754v.118a6.777,6.777,0,0,0,.2,1.611V29.5a17.256,17.256,0,0,1-1.676,1.572l-.013-.013a9.1,9.1,0,0,0-2.567-4.7h.131a7.818,7.818,0,0,0,4.61-1.493,6.446,6.446,0,0,0-.681,2.894Z" transform="translate(-16.9 -24.86)" fill="#e6e9ed"/>
        </g>
        <g id="Grupo_1180827" data-name="Grupo 1180827" transform="translate(24.885 41.518)">
          <path id="Trazado_1010903" data-name="Trazado 1010903" d="M30.543,42.8a9.179,9.179,0,0,0-5.121,6.47v.013a14.458,14.458,0,0,1-4.781-15.546l.052-.039a3.648,3.648,0,0,0,.458.55A3.92,3.92,0,0,0,23.929,35.4h1.31a6.551,6.551,0,0,0,6.549,6.549h2.619A9.111,9.111,0,0,0,30.543,42.8Z" transform="translate(-20 -33.7)" fill="#e6e9ed"/>
        </g>
        <g id="Grupo_1180828" data-name="Grupo 1180828" transform="translate(39.292 41.492)">
          <path id="Trazado_1010904" data-name="Trazado 1010904" d="M44.844,34.034a14.407,14.407,0,0,1-2.056,12.272,14.111,14.111,0,0,1-2.8,2.986v-.013A9.166,9.166,0,0,0,31,41.957h2.619a6.551,6.551,0,0,0,6.549-6.549h1.31a3.92,3.92,0,0,0,2.777-1.153,4.035,4.035,0,0,0,.485-.576A3.613,3.613,0,0,1,44.844,34.034Z" transform="translate(-31 -33.68)" fill="#e6e9ed"/>
        </g>
        <g id="Grupo_1180829" data-name="Grupo 1180829" transform="translate(64.177 59.828)">
          <path id="Trazado_1010905" data-name="Trazado 1010905" d="M60.478,49.409a3.92,3.92,0,0,0,2.777-1.153,4.035,4.035,0,0,0,.485-.576,14.429,14.429,0,0,1-4.754,15.612v-.013A9.166,9.166,0,0,0,50,55.957h2.619a6.551,6.551,0,0,0,6.549-6.549Z" transform="translate(-50 -47.68)" fill="#e6e9ed"/>
        </g>
        <g id="Grupo_1180830" data-name="Grupo 1180830" transform="translate(49.77 59.855)">
          <path id="Trazado_1010906" data-name="Trazado 1010906" d="M49.543,56.8a9.179,9.179,0,0,0-5.121,6.47v.013a14.458,14.458,0,0,1-4.781-15.546l.052-.039a3.648,3.648,0,0,0,.458.55A3.92,3.92,0,0,0,42.929,49.4h1.31a6.551,6.551,0,0,0,6.549,6.549h2.619A9.111,9.111,0,0,0,49.543,56.8Z" transform="translate(-39 -47.7)" fill="#e6e9ed"/>
        </g>
        <g id="Grupo_1180831" data-name="Grupo 1180831" transform="translate(55.192 68.957)">
          <path id="Trazado_1010907" data-name="Trazado 1010907" d="M55.988,54.65a9.179,9.179,0,0,1,5.121,6.47v.013a14.412,14.412,0,0,1-17.969,0V61.12a9.179,9.179,0,0,1,5.121-6.47v.013c.314,2.475,1.912,4.374,3.864,4.374s3.549-1.9,3.864-4.374Z" transform="translate(-43.14 -54.65)" fill="#fcd770"/>
        </g>
        <g id="Grupo_1180832" data-name="Grupo 1180832" transform="translate(30.307 50.621)">
          <path id="Trazado_1010908" data-name="Trazado 1010908" d="M24.14,47.12a9.179,9.179,0,0,1,5.121-6.47v.013c.314,2.475,1.912,4.374,3.864,4.374s3.549-1.9,3.864-4.374V40.65a9.179,9.179,0,0,1,5.121,6.47v.013a14.412,14.412,0,0,1-17.969,0Z" transform="translate(-24.14 -40.65)" fill="#b4dd7f"/>
        </g>
        <g id="Grupo_1180833" data-name="Grupo 1180833" transform="translate(5.422 29.665)">
          <path id="Trazado_1010909" data-name="Trazado 1010909" d="M20.542,26.418a9.1,9.1,0,0,1,2.567,4.7l.013.013a14.431,14.431,0,0,1-17.983,0V31.12a9.191,9.191,0,0,1,5.121-6.47v.013c.314,2.475,1.912,4.374,3.864,4.374s3.549-1.9,3.864-4.374V24.65a9.181,9.181,0,0,1,2.554,1.768Z" transform="translate(-5.14 -24.65)" fill="#ef7385"/>
        </g>
        <g id="Grupo_1180834" data-name="Grupo 1180834" transform="translate(24.885 20.956)">
          <path id="Trazado_1010910" data-name="Trazado 1010910" d="M25.239,31.412v1h-1.31A3.926,3.926,0,0,0,20.9,33.822l-.55-1.676c-.065-.17-.1-.354-.157-.524v-.013A6.777,6.777,0,0,1,20,30v-.118a6.446,6.446,0,0,1,.681-2.894,6.133,6.133,0,0,1,1.231-1.729l.707-.707a6.472,6.472,0,0,1,1.31-3.929,6.144,6.144,0,0,1,.6-.707A6.577,6.577,0,0,1,29.168,18H39.646a3.924,3.924,0,0,1,3.929,3.929l1,.5a7.477,7.477,0,0,1,2.148,1.6,7.728,7.728,0,0,1,1.807,3.143,8.132,8.132,0,0,1,.288,2.122A7.643,7.643,0,0,1,48,32.721l-.393.786a3.908,3.908,0,0,0-2.724-1.1h-1.31V29.788H38.952a24.72,24.72,0,0,1-11.093-2.619,4.733,4.733,0,0,0-2.619,4.244Z" transform="translate(-20 -18)" fill="#b27946"/>
        </g>
        <g id="Grupo_1180835" data-name="Grupo 1180835" transform="translate(14.407 18.336)">
          <path id="Trazado_1010911" data-name="Trazado 1010911" d="M26.407,16v5.239a6.472,6.472,0,0,0-1.31,3.929l-.707.707A6.133,6.133,0,0,0,23.159,27.6a7.818,7.818,0,0,1-4.61,1.493h-.131A9.146,9.146,0,0,0,12,26.478h2.619a6.551,6.551,0,0,0,6.549-6.549h1.31A3.935,3.935,0,0,0,26.407,16Z" transform="translate(-12 -16)" fill="#656d78"/>
        </g>
        <g id="Grupo_1180836" data-name="Grupo 1180836" transform="translate(0 18.336)">
          <path id="Trazado_1010912" data-name="Trazado 1010912" d="M11.543,27.329A9.18,9.18,0,0,0,8.989,29.1H8.858A7.865,7.865,0,0,1,1,21.239V16a3.935,3.935,0,0,0,3.929,3.929h1.31a6.551,6.551,0,0,0,6.549,6.549h2.619a9.111,9.111,0,0,0-3.864.851Z" transform="translate(-1 -16)" fill="#656d78"/>
        </g>
        <g id="Grupo_1180837" data-name="Grupo 1180837">
          <path id="Trazado_1010913" data-name="Trazado 1010913" d="M6.239,13.788v2.619H4.929A3.924,3.924,0,0,0,1,20.336V16.407a14.407,14.407,0,1,1,28.814,0v3.929a3.924,3.924,0,0,0-3.929-3.929h-1.31V13.788h-.511a15.642,15.642,0,0,1-8.657-2.619A15.642,15.642,0,0,1,6.75,13.788Z" transform="translate(-1 -2)" fill="#656d78"/>
        </g>
        <g id="Grupo_1180838" data-name="Grupo 1180838" transform="translate(51.079 39.292)">
          <path id="Trazado_1010914" data-name="Trazado 1010914" d="M46.549,41.168a4.733,4.733,0,0,0-2.619,4.244v1h-1.31A3.884,3.884,0,0,0,40,47.415v-.589a14.407,14.407,0,0,0,2.056-12.272A10.016,10.016,0,0,1,48.749,32h8.7a10.055,10.055,0,0,1,8.592,15.285,3.87,3.87,0,0,0-2.462-.878h-1.31V43.788H57.642a24.72,24.72,0,0,1-11.093-2.619Z" transform="translate(-40 -32)" fill="#656d78"/>
        </g>
        <g id="Grupo_1180839" data-name="Grupo 1180839" transform="translate(73.345 53.699)">
          <path id="Trazado_1010915" data-name="Trazado 1010915" d="M60.772,43.878a3.884,3.884,0,0,1,1.467,3.052,3.964,3.964,0,0,1-.668,2.2,4.035,4.035,0,0,1-.485.576,3.92,3.92,0,0,1-2.777,1.153H57V43h1.31a3.87,3.87,0,0,1,2.462.878Z" transform="translate(-57 -43)" fill="#f0d0b4"/>
        </g>
        <g id="Grupo_1180840" data-name="Grupo 1180840" transform="translate(60.313 68.106)">
          <path id="Trazado_1010916" data-name="Trazado 1010916" d="M50.914,54a9.111,9.111,0,0,1,3.864.851v.013c-.314,2.475-1.912,4.374-3.864,4.374s-3.549-1.9-3.864-4.374v-.013A9.111,9.111,0,0,1,50.914,54Z" transform="translate(-47.05 -54)" fill="#f0d0b4"/>
        </g>
        <g id="Grupo_1180841" data-name="Grupo 1180841" transform="translate(55.009 48.46)">
          <path id="Trazado_1010917" data-name="Trazado 1010917" d="M61.336,44.239V52.1a6.551,6.551,0,0,1-6.549,6.549H49.549A6.551,6.551,0,0,1,43,52.1V43.244A4.733,4.733,0,0,1,45.619,39a24.72,24.72,0,0,0,11.093,2.619h4.623Z" transform="translate(-43 -39)" fill="#f0d0b4"/>
        </g>
        <g id="Grupo_1180842" data-name="Grupo 1180842" transform="translate(49.77 53.699)">
          <path id="Trazado_1010918" data-name="Trazado 1010918" d="M44.239,43v7.858h-1.31a3.92,3.92,0,0,1-2.777-1.153,3.649,3.649,0,0,1-.458-.55A3.936,3.936,0,0,1,39,46.929,3.944,3.944,0,0,1,42.929,43Z" transform="translate(-39 -43)" fill="#f0d0b4"/>
        </g>
        <g id="Grupo_1180843" data-name="Grupo 1180843" transform="translate(48.46 35.363)">
          <path id="Trazado_1010919" data-name="Trazado 1010919" d="M43.239,32.929a3.964,3.964,0,0,1-.668,2.2,4.035,4.035,0,0,1-.485.576,3.92,3.92,0,0,1-2.777,1.153H38V29h1.31a3.933,3.933,0,0,1,3.929,3.929Z" transform="translate(-38 -29)" fill="#f0d0b4"/>
        </g>
        <g id="Grupo_1180844" data-name="Grupo 1180844" transform="translate(35.428 49.77)">
          <path id="Trazado_1010920" data-name="Trazado 1010920" d="M31.914,40a9.111,9.111,0,0,1,3.864.851v.013c-.314,2.475-1.912,4.374-3.864,4.374s-3.549-1.9-3.864-4.374v-.013A9.111,9.111,0,0,1,31.914,40Z" transform="translate(-28.05 -40)" fill="#f0d0b4"/>
        </g>
        <g id="Grupo_1180845" data-name="Grupo 1180845" transform="translate(30.124 30.124)">
          <path id="Trazado_1010921" data-name="Trazado 1010921" d="M42.336,30.239V38.1a6.551,6.551,0,0,1-6.549,6.549H30.549A6.551,6.551,0,0,1,24,38.1V29.244A4.733,4.733,0,0,1,26.619,25a24.72,24.72,0,0,0,11.093,2.619h4.623Z" transform="translate(-24 -25)" fill="#f0d0b4"/>
        </g>
        <g id="Grupo_1180846" data-name="Grupo 1180846" transform="translate(24.885 35.363)">
          <path id="Trazado_1010922" data-name="Trazado 1010922" d="M25.239,29v7.858h-1.31a3.92,3.92,0,0,1-2.777-1.153,3.649,3.649,0,0,1-.458-.55A3.923,3.923,0,0,1,23.929,29Z" transform="translate(-20 -29)" fill="#f0d0b4"/>
        </g>
        <g id="Grupo_1180847" data-name="Grupo 1180847" transform="translate(23.575 14.407)">
          <path id="Trazado_1010923" data-name="Trazado 1010923" d="M24.239,16.929a3.935,3.935,0,0,1-3.929,3.929H19V13h1.31a3.924,3.924,0,0,1,3.929,3.929Z" transform="translate(-19 -13)" fill="#f0d0b4"/>
        </g>
        <g id="Grupo_1180848" data-name="Grupo 1180848" transform="translate(10.543 28.814)">
          <path id="Trazado_1010924" data-name="Trazado 1010924" d="M12.914,24a9.111,9.111,0,0,1,3.864.851v.013c-.314,2.475-1.912,4.374-3.864,4.374s-3.549-1.9-3.864-4.374v-.013A9.111,9.111,0,0,1,12.914,24Z" transform="translate(-9.05 -24)" fill="#f0d0b4"/>
        </g>
        <g id="Grupo_1180849" data-name="Grupo 1180849" transform="translate(5.239 9.168)">
          <path id="Trazado_1010925" data-name="Trazado 1010925" d="M23.336,14.239V22.1a6.551,6.551,0,0,1-6.549,6.549H11.549A6.551,6.551,0,0,1,5,22.1V11.619h.511A15.642,15.642,0,0,0,14.168,9a15.642,15.642,0,0,0,8.657,2.619h.511Z" transform="translate(-5 -9)" fill="#f0d0b4"/>
        </g>
        <g id="Grupo_1180850" data-name="Grupo 1180850" transform="translate(0 14.407)">
          <path id="Trazado_1010926" data-name="Trazado 1010926" d="M6.239,13v7.858H4.929a3.929,3.929,0,0,1,0-7.858Z" transform="translate(-1 -13)" fill="#f0d0b4"/>
        </g>
      </g>
      <g id="Grupo_1180852" data-name="Grupo 1180852" transform="translate(0 1)">
        <ellipse id="Elipse_13755" data-name="Elipse 13755" cx="1" cy="1.5" rx="1" ry="1.5" transform="translate(35.602 36.602)"/>
        <ellipse id="Elipse_13756" data-name="Elipse 13756" cx="1" cy="1.5" rx="1" ry="1.5" transform="translate(43.602 36.602)"/>
        <ellipse id="Elipse_13757" data-name="Elipse 13757" cx="1" cy="1.5" rx="1" ry="1.5" transform="translate(10.602 15.602)"/>
        <ellipse id="Elipse_13758" data-name="Elipse 13758" cx="1" cy="1.5" rx="1" ry="1.5" transform="translate(18.602 15.602)"/>
        <path id="Trazado_1010927" data-name="Trazado 1010927" d="M15.826,17.83a2.929,2.929,0,0,1-5.239,0l-.138-.276L8.106,18.726,8.244,19a5.549,5.549,0,0,0,9.925,0l.138-.276-2.343-1.172Z" transform="translate(2.511 4.127)"/>
        <path id="Trazado_1010928" data-name="Trazado 1010928" d="M37.169,35l.138-.276-2.343-1.172-.138.278a2.929,2.929,0,0,1-5.239,0l-.138-.276-2.343,1.172.138.276a5.549,5.549,0,0,0,9.925,0Z" transform="translate(8.395 9.082)"/>
        <path id="Trazado_1010929" data-name="Trazado 1010929" d="M53.826,47.83a2.929,2.929,0,0,1-5.239,0l-.138-.276-2.343,1.172.138.276a5.549,5.549,0,0,0,9.925,0l.138-.276-2.343-1.172Z" transform="translate(14.28 13.418)"/>
        <ellipse id="Elipse_13759" data-name="Elipse 13759" cx="1" cy="1.5" rx="1" ry="1.5" transform="translate(60.602 54.602)"/>
        <ellipse id="Elipse_13760" data-name="Elipse 13760" cx="1" cy="1.5" rx="1" ry="1.5" transform="translate(68.602 54.602)"/>
        <path id="Trazado_1010930" data-name="Trazado 1010930" d="M69.84,40.292H61.133A11.356,11.356,0,0,0,56.3,41.378a5.19,5.19,0,0,0-.939-2.783l.013-.028a9.006,9.006,0,0,0,.948-4.014c0-.274-.033-.541-.056-.809h12.03a5.239,5.239,0,1,0,0-2.619H55.632a8.857,8.857,0,0,0-.964-1.737l9.642-9.642a10.512,10.512,0,1,0-1.852-1.852l-9.6,9.6a9.069,9.069,0,0,0-1.5-.971l-.344-.172a5.246,5.246,0,0,0-5.169-4.4H41.911V13.911a5.239,5.239,0,1,0-2.619,0v8.044H35.363a7.788,7.788,0,0,0-3.929,1.065v-6.3A15.717,15.717,0,0,0,0,16.717V27.195A15.693,15.693,0,0,0,25.27,39.65a5.079,5.079,0,0,0,.2,4.3,15.622,15.622,0,0,0,.648,10.291l-6.977,6.977a11.818,11.818,0,1,0,1.852,1.852L27.4,56.652A15.714,15.714,0,0,0,39.292,63.8v5.492a5.239,5.239,0,1,0,2.619,0V63.8a15.6,15.6,0,0,0,7.947-2.978,5.149,5.149,0,0,0,.491,1.46,15.717,15.717,0,1,0,30.273,0,5.09,5.09,0,0,0-.606-5.627A11.321,11.321,0,0,0,69.84,40.292Zm3.5-10.478a2.619,2.619,0,1,1-2.619,2.619A2.622,2.622,0,0,1,73.345,29.814ZM37.982,8.858A2.619,2.619,0,1,1,40.6,11.478,2.622,2.622,0,0,1,37.982,8.858ZM11.788,79.584a9.168,9.168,0,1,1,9.168-9.168A9.178,9.178,0,0,1,11.788,79.584ZM69.84,42.911a8.735,8.735,0,0,1,8.043,12.163,5.2,5.2,0,0,0-1.919-.376V52.079h-5.93A23.606,23.606,0,0,1,59.523,49.6l-.585-.292-.585.293a6.017,6.017,0,0,0-2.524,2.377,15.413,15.413,0,0,0,.1-7.3,8.7,8.7,0,0,1,5.2-1.763Zm6.124,19.646V57.318a2.619,2.619,0,0,1,0,5.239ZM65.486,71.725a7.784,7.784,0,0,1,2.334.38c-.434,1.323-1.337,2.24-2.334,2.24s-1.9-.917-2.334-2.24A7.784,7.784,0,0,1,65.486,71.725Zm-2.619-2.619a5.244,5.244,0,0,1-5.239-5.239V55.008a3.409,3.409,0,0,1,1.38-2.75A26.255,26.255,0,0,0,70.034,54.7h3.311v9.168a5.244,5.244,0,0,1-5.239,5.239Zm-7.858-6.549a2.619,2.619,0,1,1,0-5.239ZM37.982,50.77a5.244,5.244,0,0,1-5.239-5.239V36.672a3.409,3.409,0,0,1,1.38-2.75,26.255,26.255,0,0,0,11.025,2.441H48.46v9.168a5.244,5.244,0,0,1-5.239,5.239Zm13.1-11.788a2.619,2.619,0,0,1,0,5.239Zm-.118,7.858h.118a5.185,5.185,0,0,0,2.473-.648A13.36,13.36,0,0,1,53.7,48.15a13.031,13.031,0,0,1-3.509,8.892,10.516,10.516,0,0,0-3.636-4.406,7.868,7.868,0,0,0,4.407-5.8ZM40.6,53.389a7.784,7.784,0,0,1,2.334.38c-.434,1.323-1.337,2.24-2.334,2.24s-1.9-.917-2.334-2.24A7.784,7.784,0,0,1,40.6,53.389Zm-4.678,1.578A5.224,5.224,0,0,0,40.6,58.628a5.224,5.224,0,0,0,4.678-3.661A7.811,7.811,0,0,1,48.071,58.9a13.032,13.032,0,0,1-14.939,0A7.813,7.813,0,0,1,35.923,54.967Zm19.134-.655c-.014.127-.02.257-.026.386h-.022c-.05,0-.1.013-.145.014C54.926,54.578,55,54.45,55.057,54.312ZM70.725,3.619a7.858,7.858,0,1,1-7.858,7.858A7.866,7.866,0,0,1,70.725,3.619ZM35.363,24.575H45.84a2.622,2.622,0,0,1,2.619,2.619V28l1.725.862a6.332,6.332,0,0,1,3.075,7.987,5.194,5.194,0,0,0-2.181-.49V33.743h-5.93a23.606,23.606,0,0,1-10.511-2.482l-.585-.292-.585.293a6,6,0,0,0-3.323,5.1h-.021a5.171,5.171,0,0,0-2.35.583,5.739,5.739,0,0,1-.27-1.8,5.21,5.21,0,0,1,1.534-3.705l1.086-1.084v-.542a5.244,5.244,0,0,1,5.239-5.239ZM30.124,44.221a2.619,2.619,0,0,1,0-5.239ZM8.847,32.4a6.54,6.54,0,0,1-6.228-6.516v-.728a5.185,5.185,0,0,0,2.619.728h.118a7.873,7.873,0,0,0,4.407,5.8A10.541,10.541,0,0,0,8.847,32.4ZM5.239,23.265a2.619,2.619,0,0,1,0-5.239ZM13.1,29.814a5.244,5.244,0,0,1-5.239-5.239V15.389a16.845,16.845,0,0,0,7.858-2.363,16.845,16.845,0,0,0,7.858,2.363v9.186a5.244,5.244,0,0,1-5.239,5.239Zm2.619,2.619a7.784,7.784,0,0,1,2.334.38c-.434,1.323-1.337,2.24-2.334,2.24s-1.9-.917-2.334-2.24A7.784,7.784,0,0,1,15.717,32.433Zm10.36-6.549h.118a5.185,5.185,0,0,0,2.619-.728v.334a7.8,7.8,0,0,0-1.29,3.763l-.338.338a7.811,7.811,0,0,0-1.307,1.739,6.477,6.477,0,0,1-3.286,1.079,10.472,10.472,0,0,0-.923-.727,7.877,7.877,0,0,0,4.407-5.8Zm.118-7.858a2.619,2.619,0,0,1,0,5.239ZM24.912,34.653c-.013.194-.028.389-.028.587-.1-.173-.191-.344-.3-.511C24.7,34.7,24.808,34.685,24.912,34.653Zm-9.2-31.034a13.1,13.1,0,0,1,13.067,12.5,5.172,5.172,0,0,0-2.589-.712V12.788H24.367a14.237,14.237,0,0,1-7.925-2.4L15.717,9.9l-.727.485a14.236,14.236,0,0,1-7.924,2.4H5.239v2.619a5.172,5.172,0,0,0-2.589.712,13.1,13.1,0,0,1,13.067-12.5ZM4.346,33.667a9.122,9.122,0,0,0,2.491,1.074,10.6,10.6,0,0,0-.709,1.345A13.1,13.1,0,0,1,4.346,33.667Zm3.9,4.271a7.822,7.822,0,0,1,2.791-3.928,5.224,5.224,0,0,0,4.678,3.662A5.224,5.224,0,0,0,20.4,34.012a7.816,7.816,0,0,1,2.791,3.928,13.032,13.032,0,0,1-14.939,0ZM27.5,48.15a13.169,13.169,0,0,1,.147-1.958,5.185,5.185,0,0,0,2.473.648h.118a7.873,7.873,0,0,0,4.407,5.8,10.516,10.516,0,0,0-3.636,4.406A13.036,13.036,0,0,1,27.5,48.15ZM43.221,74.345A2.619,2.619,0,1,1,40.6,71.725,2.622,2.622,0,0,1,43.221,74.345Zm9.168-7.858a13.168,13.168,0,0,1,.147-1.958,5.185,5.185,0,0,0,2.473.648h.118a7.873,7.873,0,0,0,4.407,5.8A10.516,10.516,0,0,0,55.9,75.379a13.036,13.036,0,0,1-3.509-8.893ZM58.017,77.23A7.822,7.822,0,0,1,60.808,73.3a4.82,4.82,0,0,0,9.357,0,7.811,7.811,0,0,1,2.791,3.928,13.032,13.032,0,0,1-14.939,0Zm17.058-1.852a10.516,10.516,0,0,0-3.636-4.406,7.87,7.87,0,0,0,4.407-5.8h.118a5.185,5.185,0,0,0,2.473-.648,13.391,13.391,0,0,1,.147,1.959A13.031,13.031,0,0,1,75.075,75.378Z" transform="translate(0 -1)"/>
        <path id="Trazado_1010931" data-name="Trazado 1010931" d="M6.619,54H4a6.556,6.556,0,0,0,6.549,6.549V57.929A3.934,3.934,0,0,1,6.619,54Z" transform="translate(1.239 15.416)"/>
        <path id="Trazado_1010932" data-name="Trazado 1010932" d="M55.239,7.619V5A5.244,5.244,0,0,0,50,10.239h2.619A2.622,2.622,0,0,1,55.239,7.619Z" transform="translate(15.486 0.239)"/>
      </g>
    </g>
  </g>
</svg>
