<svg xmlns="http://www.w3.org/2000/svg" width="295" height="192.1" viewBox="0 0 295 192.1">
  <g id="Grupo_1178845" data-name="Grupo 1178845" transform="translate(-1124.75 -2046.9)">
    <path id="Rectángulo_454613" data-name="Rectángulo 454613" d="M15,0H280a15,15,0,0,1,15,15V151.637a0,0,0,0,1,0,0H0a0,0,0,0,1,0,0V15A15,15,0,0,1,15,0Z" transform="translate(1124.75 2087.363)" fill="#c8bf57"/>
    <g id="_5155720_2672333" data-name="5155720_2672333" transform="translate(1126.025 1961.572)">
      <g id="OBJECTS" transform="translate(15.725 85.328)">
        <g id="Grupo_1178691" data-name="Grupo 1178691" transform="translate(8.903 9.588)">
          <path id="Trazado_1007680" data-name="Trazado 1007680" d="M148.532,133.875c-8.846-32.091-48.711-42.429-71.557-18.445q-.492.516-.983,1.051c-32.753,35.6-17.28,123.343,51.075,145.581S266.52,243.691,270.514,207.39s-27.541-47.708-76.481-37.557C166.383,175.567,154.039,153.853,148.532,133.875Z" transform="translate(-43.617 -102.265)" fill="#bbe2f2"/>
          <path id="Trazado_1007681" data-name="Trazado 1007681" d="M310.582,167.035c-9.146,1.489-11.68,9.592-4.619,15.34a21.774,21.774,0,0,0,10.415,4.266c18.089,3,27.688-5,20.437-15.379C332.341,164.858,319.645,165.56,310.582,167.035Z" transform="translate(-148.805 -129.936)" fill="#bbe2f2"/>
          <path id="Trazado_1007682" data-name="Trazado 1007682" d="M47.406,278.822c-5.686-7.317-14.013-5.663-15.679,3.289A21.776,21.776,0,0,0,32.968,293.3c6.025,17.318,17.647,21.914,23.286,10.58C59.735,296.883,53.041,286.072,47.406,278.822Z" transform="translate(-31.452 -176.881)" fill="#bbe2f2"/>
          <path id="Trazado_1007683" data-name="Trazado 1007683" d="M443.564,287.3c-.842,4.41,2.8,7.535,6.926,5.835a8.73,8.73,0,0,0,3.964-3.549c4.662-7.253,2.3-13.475-4.191-12.836C446.257,277.144,444.4,282.929,443.564,287.3Z" transform="translate(-210.22 -177.957)" fill="#bbe2f2"/>
          <path id="Trazado_1007684" data-name="Trazado 1007684" d="M394.793,202.924c4.4.918,7.581-2.671,5.952-6.825a8.734,8.734,0,0,0-3.48-4.024c-7.172-4.785-13.434-2.53-12.906,3.972C384.685,200.059,390.437,202.015,394.793,202.924Z" transform="translate(-184.57 -140.123)" fill="#bbe2f2"/>
          <path id="Trazado_1007685" data-name="Trazado 1007685" d="M209.159,118.437c3.48,2.837,7.96,1.118,8.426-3.321a8.731,8.731,0,0,0-1.239-5.174c-4.166-7.549-10.762-8.428-13.285-2.413C201.5,111.242,205.71,115.626,209.159,118.437Z" transform="translate(-105.77 -102.833)" fill="#bbe2f2"/>
        </g>
        <g id="Grupo_1178701" data-name="Grupo 1178701" transform="translate(0 34.505)">
          <path id="Trazado_1007686" data-name="Trazado 1007686" d="M437.963,321.934c6.979-7.016,12.294-14.945,7.007-16.181s-14.18,12.58-15.729,25.157l-1.55,4.152c1.289-9.146-1.845-20.286-6.434-20.745-4.559-.456-1.8,6.77,1.822,12.95a25.576,25.576,0,0,1,3.664,10.333l-7.321,19.611c2-14.489-2.965-32.068-10.225-32.794-7.234-.723-2.855,10.742,2.89,20.548,4.342,7.41,5.511,13.271,5.809,16.333l-1.459,3.911q.958.539,1.921,1.067l8.709-23.332a28.141,28.141,0,0,1,7.864-4c6.785-2.3,13.6-5.946,9.862-8.589-3.248-2.294-10.885,2.121-16.145,8.352l3.012-8.069A40.933,40.933,0,0,1,437.963,321.934Z" transform="translate(-184.818 -215.445)" fill="#1c31b5"/>
          <path id="Trazado_1007687" data-name="Trazado 1007687" d="M59.31,161.236c.905-8.474.2-16.664-4.017-14.644s-2.742,16.093,3,25.374l1.2,3.624c-4.064-6.837-12.174-12.629-15.5-10.464-3.308,2.151,2.441,5.517,8.2,7.715a22.024,22.024,0,0,1,8.031,4.965l5.655,17.117C59.408,184.114,46.6,174.985,41.331,178.41c-5.248,3.414,3.873,8.753,13.017,12.242a35.047,35.047,0,0,1,12.706,7.837l1.128,3.413q.934-.154,1.865-.319l-6.728-20.364a24.243,24.243,0,0,1,3.125-6.925c3.32-5.2,5.931-11.326,1.993-11.084-3.418.211-6.166,7.292-6.34,14.312L59.77,170.48A35.233,35.233,0,0,1,59.31,161.236Z" transform="translate(-26.168 -146.282)" fill="#1c31b5"/>
          <g id="Grupo_1178694" data-name="Grupo 1178694" transform="translate(205.577 66.317)">
            <g id="Grupo_1178692" data-name="Grupo 1178692">
              <path id="Trazado_1007688" data-name="Trazado 1007688" d="M379.335,326.912c.089.48.191,1,.311,1.561h0c1.257,5.843,4.342,15.408,11.284,17.289,0,0-3.779-19.7,9.689-24.834s11.978-10.017,11.208-18.714-3.746-10.355,5.6-18.5,7.557-20.281,7.557-20.281-8.843,13.854-18.289,14.176-11.1,8.385-10.7,14.381-7.619,6.674-11.96,10.152-5.158,21.742-5.158,21.742S379,325.079,379.335,326.912Z" transform="translate(-378.879 -263.433)" fill="#009cf8"/>
            </g>
            <g id="Grupo_1178693" data-name="Grupo 1178693" transform="translate(0.456 17.727)">
              <path id="Trazado_1007689" data-name="Trazado 1007689" d="M379.684,340.5c.089.48.191,1,.311,1.561a29.84,29.84,0,0,1,3.606-7.284c3.021-4.476,7.275-8.153,11.1-9.6,6.092-2.3,9.068-8.271,9.644-19.376.334-6.445,7.078-10.253,7.147-10.29a.409.409,0,0,0-.4-.716c-.294.162-7.21,4.059-7.568,10.963-.556,10.735-3.368,16.489-9.115,18.655-4.037,1.521-8.333,5.223-11.492,9.9A31.056,31.056,0,0,0,379.684,340.5Z" transform="translate(-379.684 -294.748)" fill="#006bde"/>
            </g>
          </g>
          <g id="Grupo_1178697" data-name="Grupo 1178697" transform="translate(0 94.342)">
            <g id="Grupo_1178695" data-name="Grupo 1178695">
              <path id="Trazado_1007690" data-name="Trazado 1007690" d="M72.692,367.137h9.463c-5.113-.845-17.791-6.288-18.921-17.2-1.432-13.823-6.354-13.651-14.648-15.1s-10.579.915-15.845-9.817-17.015-12.084-17.015-12.084,10.709,11.685,8.659,20.564,5.052,12.426,10.739,13.542,4.324,8.758,6.485,13.667c.986,2.24,5.023,4.562,9.12,6.425Z" transform="translate(-15.725 -312.939)" fill="#006bde"/>
            </g>
            <g id="Grupo_1178696" data-name="Grupo 1178696" transform="translate(13.012 17.192)">
              <path id="Trazado_1007691" data-name="Trazado 1007691" d="M62.168,366.708c.413,4.14,2.794,9.063,6.367,13.169.126.144.256.291.39.438H70c-.308-.324-.6-.645-.871-.957-3.419-3.927-5.787-8.806-6.179-12.729-.624-6.247-5.451-10.5-15.654-13.8-5.922-1.914-7.793-9.143-7.81-9.218a.395.395,0,0,0-.766.19c.078.315,1.989,7.727,8.332,9.777C56.917,356.765,61.579,360.815,62.168,366.708Z" transform="translate(-38.71 -343.309)" fill="#1c31b5"/>
            </g>
          </g>
          <g id="Grupo_1178700" data-name="Grupo 1178700" transform="translate(5.922 25.312)">
            <g id="Grupo_1178698" data-name="Grupo 1178698">
              <path id="Trazado_1007692" data-name="Trazado 1007692" d="M82.335,288.57c-.2.671-.427,1.4-.684,2.179v0c-2.691,8.143-8.21,21.857-18.4,23.473,0,0,8.067-28.069-10.357-37.46s-15.548-16.132-13.112-28.42,6.935-14.2-5.143-27.254S26.973,191,26.973,191,37.46,212.12,50.884,214.031,65.43,227.7,63.934,236.192s9.843,10.692,15.5,16.321,4.016,31.81,4.016,31.81S83.1,286.007,82.335,288.57Z" transform="translate(-26.186 -190.997)" fill="#009cf8"/>
            </g>
            <g id="Grupo_1178699" data-name="Grupo 1178699" transform="translate(17.437 27.443)">
              <path id="Trazado_1007693" data-name="Trazado 1007693" d="M95.7,309.606c-.2.671-.427,1.4-.684,2.179a42.822,42.822,0,0,0-4.024-10.945c-3.621-6.85-9.125-12.749-14.362-15.4-8.338-4.211-11.664-13.193-10.779-29.123.515-9.246-8.52-15.715-8.614-15.778a.587.587,0,0,1,.675-.961c.395.277,9.661,6.9,9.111,16.8-.856,15.4,2.27,24.04,10.135,28.014,5.526,2.791,11.086,8.732,14.872,15.892A44.491,44.491,0,0,1,95.7,309.606Z" transform="translate(-56.989 -239.476)" fill="#006bde"/>
            </g>
          </g>
        </g>
        <g id="Grupo_1178736" data-name="Grupo 1178736" transform="translate(22.441 26.337)">
          <g id="Grupo_1178702" data-name="Grupo 1178702" transform="translate(46.793 132.069)">
            <path id="Trazado_1007694" data-name="Trazado 1007694" d="M138.172,383.193c.031,2.134.07,4.355.117,6.6h20.583c.039-2.459.069-4.815.092-7.025.062-5.991.069-10.921.064-13.985,0-2.174-.011-3.406-.011-3.406l-20.988-.222s0,1.813.016,4.779C138.057,373.23,138.094,377.949,138.172,383.193Z" transform="translate(-138.028 -365.155)" fill="#18315b"/>
            <path id="Trazado_1007695" data-name="Trazado 1007695" d="M138.056,372.715c.014,3.3.05,8.015.129,13.26a103.123,103.123,0,0,0,20.791-.425c.062-5.991.069-10.921.065-13.985Z" transform="translate(-138.04 -367.936)" fill="#000b29"/>
          </g>
          <g id="Grupo_1178703" data-name="Grupo 1178703" transform="translate(20.969 132.069)">
            <path id="Trazado_1007696" data-name="Trazado 1007696" d="M92.438,378.461c.023,3.355.063,7.2.13,11.334h20.585c.051-2.421.092-4.813.125-7.1.071-4.905.108-9.321.126-12.5.016-3.124.016-5.045.016-5.045l-21,.222s-.016,2.226-.011,5.972C92.411,373.33,92.42,375.734,92.438,378.461Z" transform="translate(-92.41 -365.155)" fill="#18315b"/>
            <path id="Trazado_1007697" data-name="Trazado 1007697" d="M92.412,375.217c0,1.981.009,4.384.028,7.111a128.69,128.69,0,0,0,20.839,4.235c.071-4.905.108-9.321.126-12.5Z" transform="translate(-92.411 -369.022)" fill="#000b29"/>
          </g>
          <g id="Grupo_1178712" data-name="Grupo 1178712" transform="translate(29.087)">
            <path id="Trazado_1007698" data-name="Trazado 1007698" d="M133.177,153.493s3.308-3.185,3.3-6.331-2.149-2.216-3.3-5.147-4.557-4.719-6.427-4.361-5.818-6.935-11.172-5.648-4.889,8.151-7.195,9.151-1.663,5.076-.447,6.006,1.73,4.665,2.414,4.58S133.177,153.493,133.177,153.493Z" transform="translate(-106.788 -131.853)" fill="#18315b"/>
            <g id="Grupo_1178706" data-name="Grupo 1178706" transform="translate(0 20.177)">
              <path id="Trazado_1007699" data-name="Trazado 1007699" d="M110.877,168.884s-2.08-2.773-3.626-.48.64,9.064,4.426,7.411Z" transform="translate(-106.75 -167.496)" fill="#f97853"/>
              <g id="Grupo_1178704" data-name="Grupo 1178704" transform="translate(0.812 2.427)">
                <path id="Trazado_1007700" data-name="Trazado 1007700" d="M111.473,175.584a.32.32,0,0,1-.308-.234,4.948,4.948,0,0,0-2.774-2.946.32.32,0,0,1,.227-.6,5.509,5.509,0,0,1,3.164,3.372.32.32,0,0,1-.221.395A.337.337,0,0,1,111.473,175.584Z" transform="translate(-108.185 -171.784)" fill="#ea5143"/>
              </g>
              <g id="Grupo_1178705" data-name="Grupo 1178705" transform="translate(1.595 3.684)">
                <path id="Trazado_1007701" data-name="Trazado 1007701" d="M109.887,175.493a.316.316,0,0,1-.173-.051.32.32,0,0,1-.1-.442,2.918,2.918,0,0,1,1.2-.968.32.32,0,1,1,.261.584,2.318,2.318,0,0,0-.924.73A.32.32,0,0,1,109.887,175.493Z" transform="translate(-109.568 -174.004)" fill="#ea5143"/>
              </g>
            </g>
            <g id="Grupo_1178710" data-name="Grupo 1178710" transform="translate(24.758 20.177)">
              <path id="Trazado_1007702" data-name="Trazado 1007702" d="M151.286,168.884s2.079-2.773,3.626-.48-.64,9.064-4.426,7.411Z" transform="translate(-150.486 -167.496)" fill="#f97853"/>
              <g id="Grupo_1178707" data-name="Grupo 1178707" transform="translate(0.506 2.427)">
                <path id="Trazado_1007703" data-name="Trazado 1007703" d="M151.7,175.584a.32.32,0,0,0,.308-.234,4.946,4.946,0,0,1,2.774-2.946.32.32,0,0,0-.227-.6,5.509,5.509,0,0,0-3.164,3.372.32.32,0,0,0,.222.395A.33.33,0,0,0,151.7,175.584Z" transform="translate(-151.38 -171.784)" fill="#ea5143"/>
              </g>
              <g id="Grupo_1178709" data-name="Grupo 1178709" transform="translate(1.63 3.684)">
                <g id="Grupo_1178708" data-name="Grupo 1178708">
                  <path id="Trazado_1007704" data-name="Trazado 1007704" d="M154.748,175.493a.316.316,0,0,0,.173-.051.32.32,0,0,0,.1-.442,2.918,2.918,0,0,0-1.2-.968.32.32,0,1,0-.262.584,2.317,2.317,0,0,1,.924.73A.321.321,0,0,0,154.748,175.493Z" transform="translate(-153.365 -174.004)" fill="#ea5143"/>
                </g>
              </g>
            </g>
            <path id="Trazado_1007705" data-name="Trazado 1007705" d="M134.464,192.339v6.734s-2.008,3.43-4.724,3.663-5.124-2.953-5.124-2.953v-6.971Z" transform="translate(-114.502 -158.099)" fill="#ffa681"/>
            <path id="Trazado_1007706" data-name="Trazado 1007706" d="M134.464,192.339v2.988c-1.822,2.023-5.059,2.528-9.849,1.821v-4.335Z" transform="translate(-114.502 -158.099)" fill="#f97853"/>
            <path id="Trazado_1007707" data-name="Trazado 1007707" d="M136.026,155.3a65.458,65.458,0,0,1-.873,8.507c-.125.653-.266,1.267-.422,1.817-1.417,4.962-4.962,13.472-14.886,9.927-4.383-1.564-6.414-6.446-7.32-11.412a48.013,48.013,0,0,1-.662-9.214,7.031,7.031,0,0,1,3.567-5.982c5.858-3.321,12.039-2.083,16.108-.519A7.009,7.009,0,0,1,136.026,155.3Z" transform="translate(-108.964 -138.358)" fill="#ffa681"/>
            <path id="Trazado_1007708" data-name="Trazado 1007708" d="M113.04,177.069a51.956,51.956,0,0,0,1.873,7.829c.911,2.091,3.4,2.486,4.329,4.253,1.331,2.52,3.36,4.518,6.7,3.3,2.777-1.013,2.651-2.432,4.207-3.531,2.665-1.882,3.986-3.952,4.093-5.668a54.323,54.323,0,0,1,1.43-6.516l-1.43-.1a37.233,37.233,0,0,1-2.014,3.548c-1.2-2.642-7-.721-7-.721l-1.107.358-1.137-.358s-5.866-1.84-7.025.931a10.459,10.459,0,0,1-1.549-3.6Zm11.076,3.646c6.649-1.141,5.461,2.752,5.418,2.892v0l0,0a6.592,6.592,0,0,1-1.367,1.036c-2.576,1.392-2.855,1.182-3.871,1.227a7.648,7.648,0,0,1-3.908-1.066,11.107,11.107,0,0,1-1.862-1.416S117.48,179.821,124.116,180.715Z" transform="translate(-109.479 -151.285)" fill="#18315b"/>
            <path id="Trazado_1007709" data-name="Trazado 1007709" d="M124.278,170.5c0,.719-.37,1.3-.828,1.3s-.828-.582-.828-1.3.371-1.3.828-1.3S124.278,169.784,124.278,170.5Z" transform="translate(-113.638 -148.059)" fill="#18315b"/>
            <path id="Trazado_1007710" data-name="Trazado 1007710" d="M141.656,170.5c0,.719-.371,1.3-.828,1.3s-.828-.582-.828-1.3.37-1.3.828-1.3S141.656,169.784,141.656,170.5Z" transform="translate(-121.178 -148.059)" fill="#18315b"/>
            <path id="Trazado_1007711" data-name="Trazado 1007711" d="M142.578,163.416s-3.42-1.351-6.053-.214l.263,1.464s3.864-.327,5.811.462A2.536,2.536,0,0,0,142.578,163.416Z" transform="translate(-119.67 -145.258)" fill="#18315b"/>
            <path id="Trazado_1007712" data-name="Trazado 1007712" d="M118.372,163.424s3.445-1.361,6.1-.216l-.266,1.475s-3.893-.329-5.854.465A2.561,2.561,0,0,1,118.372,163.424Z" transform="translate(-111.723 -145.259)" fill="#18315b"/>
            <g id="Grupo_1178711" data-name="Grupo 1178711" transform="translate(13.765 21.641)">
              <path id="Trazado_1007713" data-name="Trazado 1007713" d="M132.255,176.34a3.412,3.412,0,0,0,1.158-.244.32.32,0,0,0-.242-.592,1.92,1.92,0,0,1-1.283.121.347.347,0,0,1-.157-.3,48.338,48.338,0,0,1,.194-4.9.32.32,0,0,0-.637-.052,47.345,47.345,0,0,0-.192,5.018.977.977,0,0,0,.465.781A1.353,1.353,0,0,0,132.255,176.34Z" transform="translate(-131.066 -170.082)" fill="#f97853"/>
            </g>
            <path id="Trazado_1007714" data-name="Trazado 1007714" d="M125.962,184.973a3.826,3.826,0,0,0,3.77,3.47c2.726,0,3.49-2.054,3.753-3.47Z" transform="translate(-115.086 -154.902)" fill="#fff"/>
            <path id="Trazado_1007715" data-name="Trazado 1007715" d="M136.026,155.3a65.453,65.453,0,0,1-.873,8.507l-1.43-.1s.346-2.209.507-3.65.432-4.131-.8-4.466-.506-3.4-2.211-4.734-5.493-2.508-8.008-.96-5.375.691-6.533.96-2.735,1.865-2.31,3.359-.851,2.4-1.161,3.944.682,5.7.682,5.7l-1.366.275a48.013,48.013,0,0,1-.662-9.214,7.031,7.031,0,0,1,3.567-5.982c5.858-3.321,12.039-2.083,16.108-.519A7.011,7.011,0,0,1,136.026,155.3Z" transform="translate(-108.965 -138.358)" fill="#18315b"/>
          </g>
          <g id="Grupo_1178733" data-name="Grupo 1178733" transform="translate(16.613 41.055)">
            <g id="Grupo_1178713" data-name="Grupo 1178713">
              <path id="Trazado_1007716" data-name="Trazado 1007716" d="M140.232,305.733a113.8,113.8,0,0,1-19.424,3.188c-.294.022-.585.043-.879.063q-1.336.09-2.671.148a110.216,110.216,0,0,1-13.22-.224q-1.333-.1-2.665-.238-.425-.041-.853-.09a115.783,115.783,0,0,1-15.789-2.846c-.053-4.851.007-20.187.305-36.819.035-2,.073-4.016.117-6.037.466-21.919,1.367-44.169,2.986-46.4,1.552-2.133,6.231-4.844,10.7-7.29l.8-.435c1.006-.546,1.989-1.076,2.914-1.578,1.982-1.078,3.691-2.037,4.747-2.778v.609s2.408,3.188,5.122,2.952c2.474-.212,4.357-3.07,4.677-3.583a62.757,62.757,0,0,0,5.693,3.239c.676.358,1.376.725,2.089,1.1q.394.207.792.419c4.946,2.624,10.28,5.582,11.88,7.78a2.719,2.719,0,0,1,.342.809c.948,3.207,1.535,13.851,1.893,26.74,0,.046,0,.093,0,.14.016.521.028,1.046.041,1.574,0,.068,0,.139.006.208.117,4.521.205,9.281.274,14.064.006.379.013.759.017,1.138,0,.191,0,.379.006.571.016.941.025,1.883.035,2.821q.015,1.038.024,2.075C140.376,284.345,140.3,300.651,140.232,305.733Z" transform="translate(-84.714 -204.377)" fill="#006bde"/>
            </g>
            <g id="Grupo_1178714" data-name="Grupo 1178714" transform="translate(47.704 30.151)">
              <path id="Trazado_1007717" data-name="Trazado 1007717" d="M176.4,269.292c-1.558-2.544-3.23-5.141-4.806-7.438a.1.1,0,0,1-.011-.017c-.662-.965-1.305-1.875-1.917-2.706a.362.362,0,0,0-.031-.043c-.191-.261-.381-.515-.567-.762a.471.471,0,0,1-.067-.134l0,0a.43.43,0,0,1,.755-.381c1.892,2.507,4.312,6.111,6.6,9.769,0,.046,0,.093,0,.14C176.377,268.239,176.39,268.765,176.4,269.292Z" transform="translate(-168.984 -257.639)" fill="#264cbe"/>
            </g>
            <path id="Trazado_1007718" data-name="Trazado 1007718" d="M177,225.907s9.762,17.885,15.713,26.95c0,0,3.384-3.109,7.785-7.268,4.772-4.509,11.3-12.046,11.3-12.046l3.612,4.283s-14.664,26.388-21.241,29.7-18.7-20.157-18.7-20.157Z" transform="translate(-124.096 -213.719)" fill="#006bde"/>
            <g id="Grupo_1178715" data-name="Grupo 1178715" transform="translate(3.865 62.231)">
              <path id="Trazado_1007719" data-name="Trazado 1007719" d="M99.251,334.755h-.016a.442.442,0,0,1-.426-.457c.512-14.444-6.978-19.123-7.053-19.168a.442.442,0,0,1,.453-.759,13.44,13.44,0,0,1,3.981,4.335c1.75,2.813,3.779,7.808,3.5,15.623A.441.441,0,0,1,99.251,334.755Z" transform="translate(-91.541 -314.308)" fill="#264cbe"/>
            </g>
            <g id="Grupo_1178716" data-name="Grupo 1178716" transform="translate(43.051 44.581)">
              <path id="Trazado_1007720" data-name="Trazado 1007720" d="M161.239,307.618a.442.442,0,0,1-.44-.407c-.237-3.042.765-5.26,2.033-8.069.371-.822.755-1.671,1.147-2.624,2.462-5.97,1.224-12.8,1.212-12.865a.441.441,0,0,1,.868-.162c.054.289,1.3,7.154-1.263,13.365-.4.966-.785,1.822-1.159,2.651-1.264,2.8-2.177,4.821-1.958,7.637a.442.442,0,0,1-.406.474Z" transform="translate(-160.764 -283.13)" fill="#264cbe"/>
            </g>
            <g id="Grupo_1178729" data-name="Grupo 1178729" transform="translate(17.841 0.002)">
              <path id="Trazado_1007721" data-name="Trazado 1007721" d="M116.231,207.178c.188,1.422.465,3.267.768,5.362.092.622.185,1.267.279,1.93.307,2.164.624,4.519.894,6.9.073.639.142,1.28.206,1.92.238,2.357.418,4.7.483,6.876.022.658.03,1.3.026,1.926a30.688,30.688,0,0,1-.3,4.5q-.194,1.239-.343,2.422-.126.982-.225,1.93c-.258,2.456-.386,4.743-.422,6.9q-.016.982-.006,1.924c.019,2.447.159,4.727.36,6.9q.09.975.2,1.92c.264,2.372.585,4.631.888,6.864q.132.959.258,1.913c.131,1.021.255,2.042.362,3.069.114,1.09.187,2.363.221,3.777.017.618.025,1.264.028,1.93.008,2.113-.045,4.453-.144,6.9q-.038.959-.085,1.941c-.109,2.273-.253,4.611-.414,6.919q-.07.975-.144,1.939c-.178,2.4-.375,4.743-.575,6.919-.06.661-.12,1.307-.18,1.933-.23,2.4-.452,4.526-.648,6.225a110.119,110.119,0,0,0,13.221.223c.1-1.808.384-4.725.661-8.159.052-.628.1-1.276.15-1.937.165-2.183.315-4.517.414-6.872.028-.645.052-1.294.068-1.939.067-2.351.069-4.687-.032-6.876-.03-.665-.068-1.315-.12-1.947-.052-.648-.114-1.278-.189-1.887a38.505,38.505,0,0,1-.283-5.006c0-.648.019-1.291.049-1.937.1-2.239.345-4.483.628-6.865.075-.633.155-1.277.234-1.933.255-2.119.521-4.367.731-6.827q.083-.946.152-1.937c.146-2.11.245-4.378.26-6.849q.006-.955-.006-1.952c-.024-2.139-.114-4.427-.288-6.892-.015-.218-.03-.44-.047-.663-.032-.431-.06-.867-.079-1.3a65.451,65.451,0,0,1,.043-6.866q.052-.971.127-1.943c.178-2.308.438-4.594.738-6.786q.132-.978.275-1.933c.361-2.4.748-4.663,1.1-6.683.118-.665.232-1.3.339-1.913.242-1.364.452-2.58.607-3.61a63.01,63.01,0,0,1-5.693-3.239c-.32.513-2.2,3.369-4.678,3.582-2.713.236-5.122-2.952-5.122-2.952V204.4C119.922,205.141,118.213,206.1,116.231,207.178Z" transform="translate(-116.231 -204.381)" fill="#fff"/>
              <g id="Grupo_1178728" data-name="Grupo 1178728" transform="translate(0.768 6.438)">
                <g id="Grupo_1178717" data-name="Grupo 1178717">
                  <path id="Trazado_1007722" data-name="Trazado 1007722" d="M117.587,217.476c.092.622.185,1.267.279,1.93a35.856,35.856,0,0,0,8.738-1.1,23.28,23.28,0,0,1,9.508-.225c.118-.665.232-1.3.339-1.913a25.206,25.206,0,0,0-10.28.259A33.528,33.528,0,0,1,117.587,217.476Z" transform="translate(-117.587 -215.754)" fill="#e3e3e3"/>
                </g>
                <g id="Grupo_1178718" data-name="Grupo 1178718" transform="translate(1.174 8.818)">
                  <path id="Trazado_1007723" data-name="Trazado 1007723" d="M119.66,233.065c.073.639.142,1.28.206,1.92a38.906,38.906,0,0,0,7.638-1.1,23.246,23.246,0,0,1,8.129-.431q.132-.978.275-1.933a25.334,25.334,0,0,0-8.837.483A37.145,37.145,0,0,1,119.66,233.065Z" transform="translate(-119.66 -231.332)" fill="#e3e3e3"/>
                </g>
                <g id="Grupo_1178719" data-name="Grupo 1178719" transform="translate(1.862 17.641)">
                  <path id="Trazado_1007724" data-name="Trazado 1007724" d="M120.876,248.624c.022.658.03,1.3.026,1.926a40.487,40.487,0,0,0,7.129-1.083,23.356,23.356,0,0,1,7.265-.523q.052-.971.127-1.943a25.447,25.447,0,0,0-7.824.585A39.323,39.323,0,0,1,120.876,248.624Z" transform="translate(-120.876 -246.917)" fill="#e3e3e3"/>
                </g>
                <g id="Grupo_1178720" data-name="Grupo 1178720" transform="translate(1.021 26.463)">
                  <path id="Trazado_1007725" data-name="Trazado 1007725" d="M119.391,266.16a38.068,38.068,0,0,0,8-1.109,23.315,23.315,0,0,1,7.348-.515c-.015-.219-.03-.44-.047-.663-.032-.431-.06-.867-.079-1.3a25.428,25.428,0,0,0-7.655.6,37.242,37.242,0,0,1-7.338,1.06Q119.491,265.211,119.391,266.16Z" transform="translate(-119.391 -262.502)" fill="#e3e3e3"/>
                </g>
                <g id="Grupo_1178721" data-name="Grupo 1178721" transform="translate(0.588 35.285)">
                  <path id="Trazado_1007726" data-name="Trazado 1007726" d="M118.63,281.744a36.727,36.727,0,0,0,8.425-1.109,23.361,23.361,0,0,1,7.642-.493q.006-.955-.006-1.952a25.416,25.416,0,0,0-8.069.564,35.289,35.289,0,0,1-7.985,1.066Q118.62,280.8,118.63,281.744Z" transform="translate(-118.626 -278.086)" fill="#e3e3e3"/>
                </g>
                <g id="Grupo_1178722" data-name="Grupo 1178722" transform="translate(0.952 44.107)">
                  <path id="Trazado_1007727" data-name="Trazado 1007727" d="M119.269,295.4q.09.975.2,1.92a38.328,38.328,0,0,0,7.87-1.1,23.324,23.324,0,0,1,7.231-.53q.083-.946.152-1.937a25.387,25.387,0,0,0-7.816.585A36.528,36.528,0,0,1,119.269,295.4Z" transform="translate(-119.269 -293.67)" fill="#e3e3e3"/>
                </g>
                <g id="Grupo_1178723" data-name="Grupo 1178723" transform="translate(2.036 52.927)">
                  <path id="Trazado_1007728" data-name="Trazado 1007728" d="M121.183,310.948q.132.959.258,1.913a41.728,41.728,0,0,0,6.724-1.06,23.49,23.49,0,0,1,6.265-.592c.075-.633.155-1.277.234-1.933a25.535,25.535,0,0,0-6.932.644A40.127,40.127,0,0,1,121.183,310.948Z" transform="translate(-121.183 -309.251)" fill="#e3e3e3"/>
                </g>
                <g id="Grupo_1178724" data-name="Grupo 1178724" transform="translate(2.876 61.75)">
                  <path id="Trazado_1007729" data-name="Trazado 1007729" d="M122.668,326.471c.017.618.025,1.263.028,1.93a43.426,43.426,0,0,0,6.113-1.017,23.681,23.681,0,0,1,5.587-.609c0-.648.019-1.291.049-1.937a25.725,25.725,0,0,0-6.07.667A42.986,42.986,0,0,1,122.668,326.471Z" transform="translate(-122.668 -324.838)" fill="#e3e3e3"/>
                </g>
                <g id="Grupo_1178725" data-name="Grupo 1178725" transform="translate(2.675 70.572)">
                  <path id="Trazado_1007730" data-name="Trazado 1007730" d="M122.312,344a43.409,43.409,0,0,0,6.342-1.036,23.419,23.419,0,0,1,6.179-.59c-.03-.665-.068-1.315-.12-1.947a25.647,25.647,0,0,0-6.492.656,42.152,42.152,0,0,1-5.823.976Q122.359,343.023,122.312,344Z" transform="translate(-122.312 -340.421)" fill="#e3e3e3"/>
                </g>
                <g id="Grupo_1178726" data-name="Grupo 1178726" transform="translate(2.117 79.392)">
                  <path id="Trazado_1007731" data-name="Trazado 1007731" d="M121.327,359.624a41.552,41.552,0,0,0,6.9-1.072,23.5,23.5,0,0,1,6.143-.6c.028-.645.052-1.294.068-1.939a25.606,25.606,0,0,0-6.645.654,40.515,40.515,0,0,1-6.323,1.014Q121.4,358.66,121.327,359.624Z" transform="translate(-121.327 -356.002)" fill="#e3e3e3"/>
                </g>
                <g id="Grupo_1178727" data-name="Grupo 1178727" transform="translate(1.362 88.215)">
                  <path id="Trazado_1007732" data-name="Trazado 1007732" d="M119.993,375.238a38.887,38.887,0,0,0,7.655-1.1,23.484,23.484,0,0,1,5.579-.609c.052-.628.1-1.276.15-1.937a25.629,25.629,0,0,0-6.162.665,38.434,38.434,0,0,1-7.042,1.051C120.113,373.966,120.053,374.612,119.993,375.238Z" transform="translate(-119.993 -371.587)" fill="#e3e3e3"/>
                </g>
              </g>
            </g>
            <g id="Grupo_1178732" data-name="Grupo 1178732" transform="translate(14.129 4.341)">
              <g id="Grupo_1178730" data-name="Grupo 1178730" transform="translate(21.086)">
                <path id="Trazado_1007733" data-name="Trazado 1007733" d="M146.921,312.311c.294-.019.585-.041.879-.062,1.737-10.214.736-25.207.362-29.8a50.229,50.229,0,0,1,2.036-16.825c1.3-4.6.5-15.261-.138-23.827-.18-2.4-.352-4.676-.452-6.542-.328-6.032,1.855-17.193,3.059-22.787l-.791-.421c-1.205,5.538-3.468,16.953-3.125,23.255.1,1.875.275,4.151.455,6.559.637,8.5,1.43,19.077.169,23.527a51.081,51.081,0,0,0-2.066,17.129C147.68,287.117,148.688,302.2,146.921,312.311Z" transform="translate(-146.921 -212.046)" fill="#264cbe"/>
              </g>
              <g id="Grupo_1178731" data-name="Grupo 1178731" transform="translate(0 0.037)">
                <path id="Trazado_1007734" data-name="Trazado 1007734" d="M112.963,270.78a55.667,55.667,0,0,1,.326,15.081c-.12,1.527-.245,3.1-.332,4.845-.272,5.465-1.2,16.47-1.607,21.23.285.032.568.062.854.09.41-4.76,1.337-15.793,1.611-21.277.086-1.729.21-3.3.331-4.82a56.459,56.459,0,0,0-.337-15.287c-.221-1.37-.457-2.76-.691-4.144-1.156-6.845-2.353-13.922-1.787-17.313.137-.828.313-1.767.5-2.763.768-4.092,1.727-9.184,1.424-13.6-.3-4.38-2.1-16.239-2.784-20.709-.266.144-.532.29-.8.435.718,4.674,2.436,16.078,2.728,20.331.294,4.309-.652,9.343-1.411,13.386-.189,1-.367,1.943-.506,2.779-.588,3.533.566,10.364,1.789,17.6C112.506,268.024,112.74,269.411,112.963,270.78Z" transform="translate(-109.673 -212.111)" fill="#264cbe"/>
              </g>
            </g>
          </g>
          <g id="Grupo_1178735" data-name="Grupo 1178735" transform="translate(0 53.629)">
            <path id="Trazado_1007735" data-name="Trazado 1007735" d="M72.515,238.576s-8.739,29.142-10.9,39.527-2.332,31.975-2.332,31.975-3.821,7.931-3.911,11.46c-.1,3.762,1.879,6.756,1.654,9.218s2.772,1.125,1.925-3.862,1.556-9.5,2.593-9.359-.858,5.445.063,7.355,2.113-1.8,3.3-4.051c1.231-2.338,1.158-7.438.6-11.079s6.04-25.757,6.072-32.165l8.358-28.242S77.169,237.564,72.515,238.576Z" transform="translate(-55.367 -231.764)" fill="#ffa681"/>
            <path id="Trazado_1007736" data-name="Trazado 1007736" d="M83.461,243.47a74.631,74.631,0,0,1-2.67,9.133v0c-.114.341-.23.688-.345,1.042a.316.316,0,0,0-.017.049c-.335,1.006-.684,2.059-1.044,3.149l-.006.019c-1.482,4.5-3.123,9.648-4.5,14.937-.474,1.81-.916,3.64-1.308,5.463-.5,2.327-.927,4.648-1.237,6.919-1.117,8.183-3.254,18.547-3.254,18.547-3.134,1.287-8.033-.412-8.033-.412s-.127-14.926.573-20.726a155.5,155.5,0,0,1,3.329-18.135A231.579,231.579,0,0,1,77.12,227.364c.144-.335.258-.594.337-.774h1.56C82.085,228.541,84.262,238.425,83.461,243.47Z" transform="translate(-57.827 -226.59)" fill="#006bde"/>
            <path id="Trazado_1007737" data-name="Trazado 1007737" d="M60.6,355.086l.246,3.434s4.658,1.514,8.149.448l.923-3.064A25.949,25.949,0,0,1,60.6,355.086Z" transform="translate(-57.639 -282.346)" fill="#009cf8"/>
            <g id="Grupo_1178734" data-name="Grupo 1178734" transform="translate(15.743 25.587)">
              <path id="Trazado_1007738" data-name="Trazado 1007738" d="M90.4,272.215v0a.45.45,0,0,1-.025.148q-.158.435-.32.894a.316.316,0,0,0-.017.049c-.343.974-.693,2.033-1.044,3.149l-.006.019a169.364,169.364,0,0,0-4.534,17.758q.013-1.406.035-2.82c-.474,1.81-.916,3.64-1.308,5.463a65.9,65.9,0,0,1,1.332-7.172,168.08,168.08,0,0,1,5.057-17.633.429.429,0,0,1,.832.144Z" transform="translate(-83.177 -271.789)" fill="#264cbe"/>
            </g>
          </g>
        </g>
        <g id="Grupo_1178773" data-name="Grupo 1178773" transform="translate(137.641 25.74)">
          <g id="Grupo_1178740" data-name="Grupo 1178740" transform="translate(63.207 141.324)">
            <g id="Grupo_1178738" data-name="Grupo 1178738" transform="translate(0.001 0.001)">
              <g id="Grupo_1178737" data-name="Grupo 1178737">
                <path id="Trazado_1007739" data-name="Trazado 1007739" d="M371.4,396.431h20.642c-.069-1.432-.136-2.8-.2-4.1-.36-7.068-.666-11.881-.666-11.881l-16.787.746-1.392.063-2.469.11s.238,4.3.609,10.608C371.219,393.371,371.308,394.865,371.4,396.431Z" transform="translate(-370.528 -380.45)" fill="#18315b"/>
              </g>
            </g>
            <path id="Trazado_1007740" data-name="Trazado 1007740" d="M373,381.258l-2.469.11s.238,4.3.609,10.608a149.856,149.856,0,0,0,20.705.353c-.36-7.068-.666-11.881-.666-11.881l-16.787.746Z" transform="translate(-370.527 -380.449)" fill="#000b29"/>
            <g id="Grupo_1178739" data-name="Grupo 1178739" transform="translate(2.469 0.747)">
              <path id="Trazado_1007741" data-name="Trazado 1007741" d="M377.136,397c-.378-6.542-.687-12.132-.856-15.235l-1.392.063c.169,3.089.477,8.653.854,15.172Z" transform="translate(-374.888 -381.768)" fill="#000b29"/>
            </g>
          </g>
          <g id="Grupo_1178744" data-name="Grupo 1178744" transform="translate(37.384 141.323)">
            <g id="Grupo_1178742" data-name="Grupo 1178742" transform="translate(0 0.001)">
              <g id="Grupo_1178741" data-name="Grupo 1178741">
                <path id="Trazado_1007742" data-name="Trazado 1007742" d="M345.551,396.431c.106-1.772.206-3.453.3-5,.355-6.006.579-10.06.579-10.06l-2.68-.119-1.39-.063-16.581-.737s-.182,2.868-.431,7.428c-.132,2.43-.283,5.342-.436,8.554h20.642Z" transform="translate(-324.909 -380.449)" fill="#18315b"/>
              </g>
            </g>
            <path id="Trazado_1007743" data-name="Trazado 1007743" d="M325.678,387.876a182.4,182.4,0,0,0,20.5,3.551c.356-6.006.579-10.06.579-10.06l-2.68-.119-1.39-.063-16.581-.737S325.928,383.317,325.678,387.876Z" transform="translate(-325.243 -380.448)" fill="#000b29"/>
            <g id="Grupo_1178743" data-name="Grupo 1178743" transform="translate(16.591 0.738)">
              <path id="Trazado_1007744" data-name="Trazado 1007744" d="M355.611,397c.376-6.526.684-12.094.853-15.181l-1.39-.063c-.17,3.1-.479,8.7-.857,15.244h1.394Z" transform="translate(-354.217 -381.752)" fill="#000b29"/>
            </g>
          </g>
          <g id="Grupo_1178751" data-name="Grupo 1178751" transform="translate(35.259 42.004)">
            <g id="Grupo_1178746" data-name="Grupo 1178746">
              <g id="Grupo_1178745" data-name="Grupo 1178745">
                <path id="Trazado_1007745" data-name="Trazado 1007745" d="M372.75,307.537a99.016,99.016,0,0,1-12.614,2.616q-2.193.308-4.384.511-2.956.274-5.909.367a93.571,93.571,0,0,1-9.773-.213,99.016,99.016,0,0,1-18.9-3.282c-.058-5.874.03-26.938.471-47.256q.032-1.368.064-2.731c0-.192.009-.385.013-.578,0-.21.01-.419.016-.628.014-.645.031-1.287.047-1.926q.049-1.958.1-3.881.034-1.149.068-2.283c0-.157.01-.312.014-.468q.024-.747.047-1.485v0c.006-.153.01-.305.016-.458.014-.454.03-.9.044-1.351.014-.381.027-.756.04-1.133.488-13.706,1.2-24.516,2.223-26.04,1.732-2.584,7.632-6.014,12.377-8.806,1.691-.993,3.71-2.026,4.865-2.792,1.685,1.357,2.908,2.582,5.406,2.5,2.795-.1,3.484-1.776,4.55-3.218.65.422,2.3,1.777,3.162,2.281.735.434,1.531.893,2.361,1.371,1.284.735,2.649,1.515,4,2.311,2,1.18,3.981,2.4,5.62,3.56a14.812,14.812,0,0,1,3.58,3.237c.927,1.393,1.528,10.408,1.915,22.273.016.415.027.836.043,1.26,0,.052,0,.1,0,.156.016.431.029.873.038,1.316q.058,2,.112,4.086c.007.293.014.588.019.882.006.221.013.444.014.662.013.571.025,1.143.038,1.72,0,.115,0,.231.007.347.032,1.522.061,3.066.088,4.623q.013.683.023,1.368C372.912,277.815,372.831,301.225,372.75,307.537Z" transform="translate(-321.155 -205)" fill="#006bde"/>
              </g>
            </g>
            <path id="Trazado_1007746" data-name="Trazado 1007746" d="M373,286.216l-6.658,6.754-6.2-6.289-6.2,6.289-6.226-6.315-6.229,6.315-6.268-6.356-6.269,6.356-6.769-6.864c.014-.645.031-1.287.047-1.926q.049-1.958.1-3.881l6.618-6.712,6.269,6.358,6.268-6.358,6.229,6.315,6.226-6.315,6.2,6.289,6.2-6.289,6.547,6.637c.032,1.522.061,3.066.088,4.623Q372.994,285.531,373,286.216Z" transform="translate(-321.599 -234.761)" fill="#264cbe"/>
            <g id="Grupo_1178747" data-name="Grupo 1178747" transform="translate(10.077 70.636)">
              <path id="Trazado_1007747" data-name="Trazado 1007747" d="M368.79,345.411h0c-8.916-.039-16.526-4.1-21.34-7.493a48.829,48.829,0,0,1-8.393-7.433.429.429,0,0,1,.657-.553,48,48,0,0,0,8.251,7.3c4.709,3.32,12.146,7.284,20.829,7.322a.429.429,0,0,1,0,.858Z" transform="translate(-338.955 -329.78)" fill="#264cbe"/>
            </g>
            <g id="Grupo_1178748" data-name="Grupo 1178748" transform="translate(19.588 72.669)">
              <path id="Trazado_1007748" data-name="Trazado 1007748" d="M370.519,341.7c-7.591-1.492-14.311-7.306-14.616-7.573a.429.429,0,0,1,.564-.646c.079.069,7.986,6.907,16.045,7.642a.429.429,0,0,1-.078.854A18.715,18.715,0,0,1,370.519,341.7Z" transform="translate(-355.757 -333.371)" fill="#264cbe"/>
            </g>
            <g id="Grupo_1178749" data-name="Grupo 1178749" transform="translate(18.718 4.788)">
              <path id="Trazado_1007749" data-name="Trazado 1007749" d="M354.649,223.687a.429.429,0,0,1-.08-.851c10.87-2.063,14.146-9.055,14.178-9.126a.429.429,0,0,1,.782.354c-.138.3-3.5,7.471-14.8,9.616A.48.48,0,0,1,354.649,223.687Z" transform="translate(-354.221 -213.458)" fill="#264cbe"/>
            </g>
            <g id="Grupo_1178750" data-name="Grupo 1178750" transform="translate(0.814 33.323)">
              <path id="Trazado_1007750" data-name="Trazado 1007750" d="M327.662,264.383v0a.446.446,0,0,1-.058.137c-.162.261-.332.531-.5.806a.39.39,0,0,0-.025.046c-.543.879-1.11,1.839-1.694,2.854a.031.031,0,0,1-.01.017c-.912,1.6-1.856,3.327-2.781,5.085q.024-.747.047-1.485v0c.006-.153.01-.305.016-.458,1.491-2.768,2.978-5.357,4.225-7.321a.429.429,0,0,1,.783.318Z" transform="translate(-322.592 -263.866)" fill="#264cbe"/>
            </g>
          </g>
          <g id="Grupo_1178754" data-name="Grupo 1178754" transform="translate(73.834)">
            <path id="Trazado_1007751" data-name="Trazado 1007751" d="M423.4,203.693s13.9-4.468,18.013-13.589c1.19-2.642-8.611-29.463-8.611-29.463l-4.731.229s1.348,9.306,2.165,14.575c.672,4.332,1.758,9.509,2.124,11.214.08.37.125.575.125.575-.232.04-.465.085-.7.132C425.29,188.685,417,192.916,417,192.916Z" transform="translate(-401.318 -143.748)" fill="#ffa681"/>
            <g id="Grupo_1178753" data-name="Grupo 1178753" transform="translate(30.466 42.912)">
              <g id="Grupo_1178752" data-name="Grupo 1178752">
                <path id="Trazado_1007752" data-name="Trazado 1007752" d="M447.311,209.749a.445.445,0,0,0,.622-.1.437.437,0,0,0-.1-.622,35.051,35.051,0,0,0-4.14-2.426c.08.37.125.575.125.575-.232.04-.465.085-.7.132A35.108,35.108,0,0,1,447.311,209.749Z" transform="translate(-443.118 -206.603)" fill="#f97853"/>
              </g>
            </g>
            <path id="Trazado_1007753" data-name="Trazado 1007753" d="M390.113,212.305s-4.2,9.867,6.5,15.36c7.408,3.8,24.283-6.124,24.283-6.124l-6.016-12.774S399.44,215.137,390.113,212.305Z" transform="translate(-389.299 -164.631)" fill="#006bde"/>
            <path id="Trazado_1007754" data-name="Trazado 1007754" d="M433.932,132.613c-.419.294-.333,2.106-.149,3.813-.059.008-.12.019-.18.029-.5-2.278-1.488-6.152-2.335-5.413-.555.484.188,3.825.694,5.823l-.314.1c-.638-2.372-2.014-6.941-2.929-6.053-.611.593.562,4.616,1.213,6.668l-.267.1c-.623-1.991-1.953-5.757-2.864-4.872-.825.8,1.539,6.495,1.539,6.495h0l.62,2.235s-.737.318-1.887-.983-2.525-1.53-1.57.352c1.08,2.127,2.677,3.652,3.38,5.156s2.916,2,2.916,2l4.442-.215s.862-7.508-.8-11.087h0C435.162,134.642,434.661,132.1,433.932,132.613Z" transform="translate(-404.87 -130.798)" fill="#ffa681"/>
          </g>
          <g id="Grupo_1178771" data-name="Grupo 1178771" transform="translate(45.463 5.441)">
            <path id="Trazado_1007755" data-name="Trazado 1007755" d="M343.549,154.1c0,7.566,4.658,12.78,12.221,12.78s12.841-5.6,12.841-13.172a16.221,16.221,0,0,0-1-5.759c-.038-.1-.077-.205-.119-.305-.08-.2-.164-.392-.254-.581-.132-.292-.279-.578-.434-.854a11.2,11.2,0,0,0-10.247-5.8C347.491,140.411,343.549,146.532,343.549,154.1Z" transform="translate(-341.076 -140.41)" fill="#18315b"/>
            <g id="Grupo_1178757" data-name="Grupo 1178757" transform="translate(0 15.543)">
              <path id="Trazado_1007756" data-name="Trazado 1007756" d="M343.352,169.271s-2.1-2.8-3.665-.485.647,9.163,4.473,7.492Z" transform="translate(-339.181 -167.868)" fill="#f97853"/>
              <g id="Grupo_1178755" data-name="Grupo 1178755" transform="translate(0.82 2.454)">
                <path id="Trazado_1007757" data-name="Trazado 1007757" d="M343.954,176.043a.324.324,0,0,1-.311-.236,5,5,0,0,0-2.8-2.978.324.324,0,0,1,.229-.605,5.567,5.567,0,0,1,3.2,3.408.323.323,0,0,1-.224.4A.309.309,0,0,1,343.954,176.043Z" transform="translate(-340.63 -172.203)" fill="#ea5143"/>
              </g>
              <g id="Grupo_1178756" data-name="Grupo 1178756" transform="translate(1.611 3.724)">
                <path id="Trazado_1007758" data-name="Trazado 1007758" d="M342.35,175.952a.324.324,0,0,1-.272-.5,2.954,2.954,0,0,1,1.214-.978.323.323,0,1,1,.264.59,2.335,2.335,0,0,0-.934.739A.322.322,0,0,1,342.35,175.952Z" transform="translate(-342.027 -174.447)" fill="#ea5143"/>
              </g>
            </g>
            <g id="Grupo_1178762" data-name="Grupo 1178762" transform="translate(25.025 15.543)">
              <path id="Trazado_1007759" data-name="Trazado 1007759" d="M384.2,169.271s2.1-2.8,3.665-.485-.647,9.163-4.474,7.492Z" transform="translate(-383.388 -167.868)" fill="#f97853"/>
              <g id="Grupo_1178758" data-name="Grupo 1178758" transform="translate(0.512 2.454)">
                <path id="Trazado_1007760" data-name="Trazado 1007760" d="M384.617,176.043a.324.324,0,0,0,.311-.236,5,5,0,0,1,2.8-2.978.324.324,0,0,0-.229-.605,5.569,5.569,0,0,0-3.2,3.408.323.323,0,0,0,.224.4A.315.315,0,0,0,384.617,176.043Z" transform="translate(-384.293 -172.203)" fill="#ea5143"/>
              </g>
              <g id="Grupo_1178761" data-name="Grupo 1178761" transform="translate(1.648 3.724)">
                <g id="Grupo_1178760" data-name="Grupo 1178760">
                  <g id="Grupo_1178759" data-name="Grupo 1178759">
                    <path id="Trazado_1007761" data-name="Trazado 1007761" d="M387.7,175.952a.324.324,0,0,0,.272-.5,2.949,2.949,0,0,0-1.214-.978.323.323,0,1,0-.264.59,2.336,2.336,0,0,1,.934.739A.322.322,0,0,0,387.7,175.952Z" transform="translate(-386.3 -174.447)" fill="#ea5143"/>
                  </g>
                </g>
              </g>
            </g>
            <path id="Trazado_1007762" data-name="Trazado 1007762" d="M367.193,192.979v6.807s-2.03,3.467-4.776,3.7-5.18-2.985-5.18-2.985v-7.047Z" transform="translate(-347.016 -163.22)" fill="#ffa681"/>
            <path id="Trazado_1007763" data-name="Trazado 1007763" d="M367.193,192.979V196c-1.842,2.044-5.114,2.555-9.955,1.84v-4.382Z" transform="translate(-347.016 -163.22)" fill="#f97853"/>
            <path id="Trazado_1007764" data-name="Trazado 1007764" d="M368.772,155.544a66.277,66.277,0,0,1-.883,8.6c-.126.659-.268,1.28-.427,1.837-1.433,5.016-5.015,13.618-15.047,10.034-4.43-1.582-6.484-6.516-7.4-11.535a48.466,48.466,0,0,1-.669-9.313,7.108,7.108,0,0,1,3.606-6.048c5.921-3.357,12.169-2.105,16.282-.524A7.084,7.084,0,0,1,368.772,155.544Z" transform="translate(-341.418 -143.267)" fill="#ffa681"/>
            <path id="Trazado_1007765" data-name="Trazado 1007765" d="M356.8,170.907c0,.727-.375,1.316-.837,1.316s-.837-.589-.837-1.316.375-1.316.837-1.316S356.8,170.18,356.8,170.907Z" transform="translate(-346.101 -153.072)" fill="#18315b"/>
            <path id="Trazado_1007766" data-name="Trazado 1007766" d="M374.219,170.86c0,.727-.374,1.316-.837,1.316s-.837-.589-.837-1.316.375-1.316.837-1.316S374.219,170.133,374.219,170.86Z" transform="translate(-353.659 -153.052)" fill="#18315b"/>
            <path id="Trazado_1007767" data-name="Trazado 1007767" d="M375.26,163.484s-2.639-1.043-4.671-.165l.2,1.13a13.012,13.012,0,0,1,4.485.357A1.959,1.959,0,0,0,375.26,163.484Z" transform="translate(-352.809 -150.198)" fill="#18315b"/>
            <path id="Trazado_1007768" data-name="Trazado 1007768" d="M351.582,163.484s2.639-1.043,4.671-.165l-.2,1.13a13.012,13.012,0,0,0-4.485.357A1.959,1.959,0,0,1,351.582,163.484Z" transform="translate(-344.509 -150.198)" fill="#18315b"/>
            <g id="Grupo_1178763" data-name="Grupo 1178763" transform="translate(13.912 17.022)">
              <path id="Trazado_1007769" data-name="Trazado 1007769" d="M364.96,176.807a3.441,3.441,0,0,0,1.171-.247.323.323,0,0,0-.245-.6,1.944,1.944,0,0,1-1.3.123.352.352,0,0,1-.159-.3,49.119,49.119,0,0,1,.2-4.953.323.323,0,0,0-.644-.053,47.947,47.947,0,0,0-.194,5.072.989.989,0,0,0,.47.79A1.36,1.36,0,0,0,364.96,176.807Z" transform="translate(-363.758 -170.48)" fill="#f97853"/>
            </g>
            <path id="Trazado_1007770" data-name="Trazado 1007770" d="M358.211,184.557c.538,1.866,2.066,3.727,4.171,3.753,2.1-.025,3.632-1.887,4.169-3.753Z" transform="translate(-347.438 -159.566)" fill="#fff"/>
            <g id="Grupo_1178764" data-name="Grupo 1178764" transform="translate(13.093 29.728)">
              <path id="Trazado_1007771" data-name="Trazado 1007771" d="M363.981,193.968a3.378,3.378,0,0,0,1.577-.442.324.324,0,1,0-.335-.554,2.749,2.749,0,0,1-1.241.348,2.616,2.616,0,0,1-1.177-.347.323.323,0,1,0-.34.55A3.211,3.211,0,0,0,363.981,193.968Z" transform="translate(-362.31 -192.925)" fill="#f97853"/>
            </g>
            <path id="Trazado_1007772" data-name="Trazado 1007772" d="M368.431,160.27h-1.466c.162-1.471.394-4.063-.814-4.434-3.819-1.173,1.13-3.871-.594-5.217s-6.014-.77-9-.867a63.931,63.931,0,0,0-9,.217c-1.174.268-.53,2.217-.1,3.728s-1.439,3.176-1.753,4.738a6.887,6.887,0,0,0,0,1.836h-1.222c-.145-1.9-.166-3.671-.14-5.106a7.108,7.108,0,0,1,3.606-6.047c5.921-3.357,12.169-2.105,16.282-.524a7.083,7.083,0,0,1,4.537,6.949C368.7,156.993,368.6,158.641,368.431,160.27Z" transform="translate(-341.419 -143.267)" fill="#18315b"/>
            <g id="Grupo_1178770" data-name="Grupo 1178770" transform="translate(2.263 14.323)">
              <g id="Grupo_1178765" data-name="Grupo 1178765" transform="translate(3.793)">
                <path id="Trazado_1007773" data-name="Trazado 1007773" d="M353.541,173.033a3.661,3.661,0,1,1,3.661-3.661A3.665,3.665,0,0,1,353.541,173.033Zm0-6.751a3.09,3.09,0,1,0,3.09,3.09A3.094,3.094,0,0,0,353.541,166.282Z" transform="translate(-349.88 -165.711)" fill="#fff"/>
              </g>
              <g id="Grupo_1178766" data-name="Grupo 1178766" transform="translate(13.8)">
                <path id="Trazado_1007774" data-name="Trazado 1007774" d="M371.218,173.033a3.661,3.661,0,1,1,3.661-3.661A3.665,3.665,0,0,1,371.218,173.033Zm0-6.751a3.09,3.09,0,1,0,3.09,3.09A3.094,3.094,0,0,0,371.218,166.282Z" transform="translate(-367.557 -165.711)" fill="#fff"/>
              </g>
              <g id="Grupo_1178767" data-name="Grupo 1178767" transform="translate(0 0.606)">
                <path id="Trazado_1007775" data-name="Trazado 1007775" d="M347.591,168.657a.286.286,0,0,1-.2-.083h0a4.5,4.5,0,0,0-3.861-1.121.285.285,0,0,1-.13-.555,4.994,4.994,0,0,1,4.393,1.272.284.284,0,0,1-.2.487Z" transform="translate(-343.179 -166.782)" fill="#fff"/>
              </g>
              <g id="Grupo_1178768" data-name="Grupo 1178768" transform="translate(20.285 0.526)">
                <path id="Trazado_1007776" data-name="Trazado 1007776" d="M379.3,168.6a.285.285,0,0,1-.157-.524c.109-.071,2.7-1.742,4.9-1.38a.285.285,0,1,1-.093.563c-1.984-.327-4.474,1.278-4.5,1.294A.274.274,0,0,1,379.3,168.6Z" transform="translate(-379.012 -166.641)" fill="#fff"/>
              </g>
              <g id="Grupo_1178769" data-name="Grupo 1178769" transform="translate(10.446 1.343)">
                <path id="Trazado_1007777" data-name="Trazado 1007777" d="M365.187,169.579a2.307,2.307,0,0,0-1.576-.926,2.1,2.1,0,0,0-1.5.924l-.478-.312a2.643,2.643,0,0,1,1.979-1.183,2.845,2.845,0,0,1,2.038,1.163Z" transform="translate(-361.632 -168.083)" fill="#fff"/>
              </g>
            </g>
          </g>
          <g id="Grupo_1178772" data-name="Grupo 1178772" transform="translate(0 54.324)">
            <path id="Trazado_1007778" data-name="Trazado 1007778" d="M298.807,247.745a103.9,103.9,0,0,1-8.4,13.383,34.991,34.991,0,0,1-4.116,4.6c-2.233,2.016-4.41,3.07-6.183,2.175-6.577-3.316-21.24-29.7-21.24-29.7l3.611-4.283s6.526,7.536,11.3,12.046c4.4,4.159,7.786,7.268,7.786,7.268.609-.927,1.258-1.943,1.933-3.019.718-1.141,1.462-2.35,2.22-3.592,5.5-9.023,11.594-19.855,11.594-19.855Z" transform="translate(-258.87 -226.762)" fill="#ffa681"/>
            <path id="Trazado_1007779" data-name="Trazado 1007779" d="M309.288,276.347a34.987,34.987,0,0,1-4.116,4.6l-2.795-15.516c.718-1.141,1.462-2.35,2.22-3.592Z" transform="translate(-277.748 -241.981)" fill="#f97853"/>
            <path id="Trazado_1007780" data-name="Trazado 1007780" d="M316.675,226.762l-13.181,20.73,4.424,18.233,10.907-17.76S320.148,235.814,316.675,226.762Z" transform="translate(-278.233 -226.762)" fill="#006bde"/>
          </g>
        </g>
        <g id="Grupo_1178796" data-name="Grupo 1178796" transform="translate(103.593 28.021)">
          <g id="Grupo_1178779" data-name="Grupo 1178779" transform="translate(1.735 38.237)">
            <path id="Trazado_1007781" data-name="Trazado 1007781" d="M255.97,375.442c-.941-5.217-1.869-11.1-2.713-16.814q-.278-1.9-.545-3.753c-.676-4.731-1.28-9.2-1.766-12.916-.185-1.41-.351-2.712-.5-3.874-.47-3.706-.747-6.007-.747-6.007l-20.814.787-20.878-.787s-.538,4.554-1.4,11.157c-.157,1.2-.325,2.469-.5,3.793-.464,3.465-.993,7.292-1.564,11.21l-.025.172c-.179,1.221-.359,2.451-.547,3.68a.368.368,0,0,1-.008.049v0c-.447,2.971-.915,5.939-1.391,8.794-.2,1.179-.393,2.336-.594,3.463-.062.352-.124.7-.186,1.044H255.97Z" transform="translate(-201.789 -258.654)" fill="#006bde"/>
            <g id="Grupo_1178774" data-name="Grupo 1178774" transform="translate(0.187 77.713)">
              <path id="Trazado_1007782" data-name="Trazado 1007782" d="M218.24,341.617a1.962,1.962,0,1,1-1.961-1.961A1.962,1.962,0,0,1,218.24,341.617Z" transform="translate(-207.411 -339.656)" fill="#264cbe"/>
              <path id="Trazado_1007783" data-name="Trazado 1007783" d="M226.84,355.044a1.962,1.962,0,1,1-1.961-1.961A1.962,1.962,0,0,1,226.84,355.044Z" transform="translate(-211.143 -345.482)" fill="#264cbe"/>
              <path id="Trazado_1007784" data-name="Trazado 1007784" d="M243.759,348.112a1.961,1.961,0,1,1-1.962-1.961A1.962,1.962,0,0,1,243.759,348.112Z" transform="translate(-218.485 -342.474)" fill="#264cbe"/>
              <path id="Trazado_1007785" data-name="Trazado 1007785" d="M217.056,369.3a1.961,1.961,0,1,1-1.961-1.961A1.962,1.962,0,0,1,217.056,369.3Z" transform="translate(-206.898 -351.669)" fill="#264cbe"/>
              <path id="Trazado_1007786" data-name="Trazado 1007786" d="M238.2,367.819a1.961,1.961,0,1,1-1.961-1.961A1.961,1.961,0,0,1,238.2,367.819Z" transform="translate(-216.072 -351.025)" fill="#264cbe"/>
              <path id="Trazado_1007787" data-name="Trazado 1007787" d="M211.191,353.627a1.959,1.959,0,0,1-1.778,1.953c.177-1.323.345-2.591.5-3.793A1.96,1.96,0,0,1,211.191,353.627Z" transform="translate(-205.284 -344.92)" fill="#264cbe"/>
              <path id="Trazado_1007788" data-name="Trazado 1007788" d="M272.651,388.179a1.962,1.962,0,1,1-1.961-1.962A1.961,1.961,0,0,1,272.651,388.179Z" transform="translate(-231.021 -359.859)" fill="#264cbe"/>
              <path id="Trazado_1007789" data-name="Trazado 1007789" d="M271.014,369.3a1.961,1.961,0,1,1-1.961-1.961A1.962,1.962,0,0,1,271.014,369.3Z" transform="translate(-230.311 -351.669)" fill="#264cbe"/>
              <path id="Trazado_1007790" data-name="Trazado 1007790" d="M290.615,376.089a1.962,1.962,0,1,1-.77-3.767,1.566,1.566,0,0,1,.225.015Q290.339,374.191,290.615,376.089Z" transform="translate(-239.334 -353.83)" fill="#264cbe"/>
              <path id="Trazado_1007791" data-name="Trazado 1007791" d="M274.479,402.014a1.961,1.961,0,1,1-1.961-1.962A1.962,1.962,0,0,1,274.479,402.014Z" transform="translate(-231.815 -365.863)" fill="#264cbe"/>
              <path id="Trazado_1007792" data-name="Trazado 1007792" d="M289.3,396.482a1.962,1.962,0,1,1-1.962-1.961A1.962,1.962,0,0,1,289.3,396.482Z" transform="translate(-238.246 -363.463)" fill="#264cbe"/>
              <path id="Trazado_1007793" data-name="Trazado 1007793" d="M258.986,408.026a1.956,1.956,0,0,0-3.233,0Z" transform="translate(-225.392 -368.952)" fill="#264cbe"/>
              <path id="Trazado_1007794" data-name="Trazado 1007794" d="M214.775,391.193a1.962,1.962,0,1,1-1.962-1.962A1.962,1.962,0,0,1,214.775,391.193Z" transform="translate(-205.908 -361.167)" fill="#264cbe"/>
              <path id="Trazado_1007795" data-name="Trazado 1007795" d="M207.331,380.381a1.957,1.957,0,0,1-1.706,1.942.367.367,0,0,0,.008-.049c.187-1.23.368-2.459.547-3.68A1.967,1.967,0,0,1,207.331,380.381Z" transform="translate(-203.64 -356.552)" fill="#264cbe"/>
              <path id="Trazado_1007796" data-name="Trazado 1007796" d="M203.517,402.3a1.966,1.966,0,0,1-1.4,1.881c.2-1.127.4-2.285.594-3.463A1.959,1.959,0,0,1,203.517,402.3Z" transform="translate(-202.119 -366.153)" fill="#264cbe"/>
              <path id="Trazado_1007797" data-name="Trazado 1007797" d="M223.375,403.478a1.962,1.962,0,1,1-1.962-1.961A1.962,1.962,0,0,1,223.375,403.478Z" transform="translate(-209.64 -366.498)" fill="#264cbe"/>
              <path id="Trazado_1007798" data-name="Trazado 1007798" d="M241.663,400.764A1.961,1.961,0,1,1,239.7,398.8,1.962,1.962,0,0,1,241.663,400.764Z" transform="translate(-217.575 -365.321)" fill="#264cbe"/>
              <path id="Trazado_1007799" data-name="Trazado 1007799" d="M228.616,383.726a1.962,1.962,0,1,1-1.962-1.961A1.962,1.962,0,0,1,228.616,383.726Z" transform="translate(-211.914 -357.927)" fill="#264cbe"/>
              <path id="Trazado_1007800" data-name="Trazado 1007800" d="M247.225,380.26a1.961,1.961,0,1,1-1.961-1.961A1.961,1.961,0,0,1,247.225,380.26Z" transform="translate(-219.989 -356.424)" fill="#264cbe"/>
              <path id="Trazado_1007801" data-name="Trazado 1007801" d="M255.6,361.974a1.962,1.962,0,1,1-1.961-1.962A1.961,1.961,0,0,1,255.6,361.974Z" transform="translate(-223.623 -348.489)" fill="#264cbe"/>
              <path id="Trazado_1007802" data-name="Trazado 1007802" d="M286.8,346.563a1.847,1.847,0,0,1-.421.047,1.961,1.961,0,0,1-.081-3.921C286.451,343.851,286.617,345.153,286.8,346.563Z" transform="translate(-237.83 -340.972)" fill="#264cbe"/>
              <path id="Trazado_1007803" data-name="Trazado 1007803" d="M267.548,348.112a1.961,1.961,0,1,1-1.961-1.961A1.962,1.962,0,0,1,267.548,348.112Z" transform="translate(-228.807 -342.474)" fill="#264cbe"/>
              <path id="Trazado_1007804" data-name="Trazado 1007804" d="M280.241,360.462a1.961,1.961,0,1,1-1.961-1.962A1.961,1.961,0,0,1,280.241,360.462Z" transform="translate(-234.315 -347.833)" fill="#264cbe"/>
              <path id="Trazado_1007805" data-name="Trazado 1007805" d="M259.067,391.193a1.961,1.961,0,1,1-1.961-1.962A1.962,1.962,0,0,1,259.067,391.193Z" transform="translate(-225.127 -361.167)" fill="#264cbe"/>
            </g>
            <path id="Trazado_1007806" data-name="Trazado 1007806" d="M254.492,276.312c-10.98,7.168-31.142,6.607-43.811,0,1.21-7.539,2.8-15.086,2.461-25.12q-.058-1.65-.14-3.276-.073-1.414-.164-2.8c-1.094-16.692-3.942-30.34-2.542-32.1a13.314,13.314,0,0,1,2.886-2.459c.494-.336,1.021-.676,1.578-1.017,1.314-.8,2.776-1.611,4.243-2.4,3.482-1.859,7.017-3.584,8.79-4.762a11.26,11.26,0,0,0,4.665,1.176,1.288,1.288,0,0,0,.13,0,1.168,1.168,0,0,0,.126,0,11.276,11.276,0,0,0,4.667-1.176c1.644,1.094,4.739,2.619,7.9,4.282a68.461,68.461,0,0,1,6.509,3.78,13.053,13.053,0,0,1,2.78,2.389c.693.874.4,4.708-.191,10.387-.587,5.588-1.466,12.967-2,21.078-.147,2.252-.268,4.56-.349,6.9C251.69,261.227,253.281,268.774,254.492,276.312Z" transform="translate(-205.316 -202.374)" fill="#009cf8"/>
            <g id="Grupo_1178775" data-name="Grupo 1178775" transform="translate(12.872 50.1)">
              <path id="Trazado_1007807" data-name="Trazado 1007807" d="M254.117,306.378h0c-8.842-.039-16.389-4.062-21.164-7.431a48.415,48.415,0,0,1-8.324-7.372.425.425,0,1,1,.651-.548,47.569,47.569,0,0,0,8.182,7.237c4.67,3.292,12.046,7.224,20.657,7.262a.426.426,0,0,1,0,.851Z" transform="translate(-224.528 -290.876)" fill="#006bde"/>
            </g>
            <g id="Grupo_1178776" data-name="Grupo 1178776" transform="translate(21.967 52.198)">
              <path id="Trazado_1007808" data-name="Trazado 1007808" d="M255.234,302.839c-7.528-1.48-14.193-7.246-14.5-7.511a.425.425,0,1,1,.56-.64c.078.069,7.921,6.85,15.912,7.579a.425.425,0,1,1-.078.847A18.689,18.689,0,0,1,255.234,302.839Z" transform="translate(-240.593 -294.582)" fill="#006bde"/>
            </g>
            <g id="Grupo_1178777" data-name="Grupo 1178777" transform="translate(25.036 11.359)">
              <path id="Trazado_1007809" data-name="Trazado 1007809" d="M246.44,232.584a.426.426,0,0,1-.079-.844c10.78-2.046,14.029-8.981,14.061-9.051a.426.426,0,0,1,.776.35c-.136.3-3.467,7.409-14.677,9.536A.39.39,0,0,1,246.44,232.584Z" transform="translate(-246.015 -222.439)" fill="#006bde"/>
            </g>
            <path id="Trazado_1007810" data-name="Trazado 1007810" d="M252.244,206.657c-2.14,4.881-7.4,9.935-14.24,8.753-6.624-1.145-9.766-4.649-12.033-8.273,3.483-1.86,7.018-3.583,8.789-4.762a11.307,11.307,0,0,0,4.664,1.177,1.261,1.261,0,0,0,.13,0,1.2,1.2,0,0,0,.127,0,11.329,11.329,0,0,0,4.667-1.177C245.991,203.468,249.087,204.993,252.244,206.657Z" transform="translate(-212.281 -202.374)" fill="#ffa681"/>
            <g id="Grupo_1178778" data-name="Grupo 1178778" transform="translate(19.061 0.358)">
              <path id="Trazado_1007811" data-name="Trazado 1007811" d="M250.644,203.006a.337.337,0,0,0-.341.336c0,.275-.114,6.726-5.905,7.226-5.372.467-7.6-4.675-8.282-6.808a.3.3,0,0,0-.288-.209h-.063a.3.3,0,0,0-.288.4c.733,2.2,3.074,7.516,8.547,7.321q.213-.008.432-.027c6.409-.553,6.524-7.822,6.524-7.9A.338.338,0,0,0,250.644,203.006Z" transform="translate(-235.461 -203.006)" fill="#fff"/>
            </g>
          </g>
          <g id="Grupo_1178789" data-name="Grupo 1178789" transform="translate(11.846)">
            <path id="Trazado_1007812" data-name="Trazado 1007812" d="M248.411,142.43s5.176,8.017,4.608,16.367.763,17.99-6.709,17.566-20.8,3-25.036-3.508S248.411,142.43,248.411,142.43Z" transform="translate(-220.184 -138.126)" fill="#18315b"/>
            <path id="Trazado_1007813" data-name="Trazado 1007813" d="M261.939,168.364s1.343,12.1-4.4,15.437-9.9-.388-9.9-.388S259.746,166.542,261.939,168.364Z" transform="translate(-231.795 -149.32)" fill="#000b29"/>
            <g id="Grupo_1178788" data-name="Grupo 1178788" transform="translate(2.195 6.019)">
              <g id="Grupo_1178782" data-name="Grupo 1178782" transform="translate(0 11.593)">
                <path id="Trazado_1007814" data-name="Trazado 1007814" d="M227.62,167.316s-2.062-2.749-3.6-.476.635,8.989,4.389,7.35Z" transform="translate(-223.527 -165.94)" fill="#f97853"/>
                <g id="Grupo_1178780" data-name="Grupo 1178780" transform="translate(0.804 2.407)">
                  <path id="Trazado_1007815" data-name="Trazado 1007815" d="M228.21,173.96a.318.318,0,0,1-.306-.232,4.9,4.9,0,0,0-2.752-2.922.317.317,0,0,1,.225-.594,5.466,5.466,0,0,1,3.138,3.344.317.317,0,0,1-.305.4Z" transform="translate(-224.948 -170.192)" fill="#ea5143"/>
                </g>
                <g id="Grupo_1178781" data-name="Grupo 1178781" transform="translate(1.581 3.653)">
                  <path id="Trazado_1007816" data-name="Trazado 1007816" d="M226.636,173.871a.317.317,0,0,1-.267-.489,2.9,2.9,0,0,1,1.191-.96.317.317,0,1,1,.259.579,2.294,2.294,0,0,0-.916.725A.314.314,0,0,1,226.636,173.871Z" transform="translate(-226.319 -172.394)" fill="#ea5143"/>
                </g>
              </g>
              <g id="Grupo_1178785" data-name="Grupo 1178785" transform="translate(24.554 11.593)">
                <path id="Trazado_1007817" data-name="Trazado 1007817" d="M267.694,167.316s2.062-2.749,3.6-.476-.635,8.989-4.389,7.35Z" transform="translate(-266.901 -165.94)" fill="#f97853"/>
                <g id="Grupo_1178783" data-name="Grupo 1178783" transform="translate(0.502 2.407)">
                  <path id="Trazado_1007818" data-name="Trazado 1007818" d="M268.105,173.96a.318.318,0,0,0,.306-.232,4.9,4.9,0,0,1,2.752-2.922.317.317,0,0,0-.225-.594,5.465,5.465,0,0,0-3.138,3.344.318.318,0,0,0,.22.391A.324.324,0,0,0,268.105,173.96Z" transform="translate(-267.788 -170.192)" fill="#ea5143"/>
                </g>
                <g id="Grupo_1178784" data-name="Grupo 1178784" transform="translate(1.617 3.653)">
                  <path id="Trazado_1007819" data-name="Trazado 1007819" d="M271.128,173.871a.317.317,0,0,0,.267-.489,2.9,2.9,0,0,0-1.191-.96.317.317,0,0,0-.259.579,2.293,2.293,0,0,1,.916.725A.315.315,0,0,0,271.128,173.871Z" transform="translate(-269.757 -172.394)" fill="#ea5143"/>
                </g>
              </g>
              <path id="Trazado_1007820" data-name="Trazado 1007820" d="M251.01,190.577v6.679s-1.992,3.4-4.686,3.633-5.082-2.928-5.082-2.928v-6.914Z" transform="translate(-231.214 -165.037)" fill="#ffa681"/>
              <path id="Trazado_1007821" data-name="Trazado 1007821" d="M251.01,190.577v2.963c-1.808,2.006-5.016,2.716-9.767,2.015v-4.509Z" transform="translate(-231.214 -165.037)" fill="#f97853"/>
              <path id="Trazado_1007822" data-name="Trazado 1007822" d="M252.56,153.848a65.071,65.071,0,0,1-.866,8.436c-.124.647-.263,1.256-.419,1.8-1.406,4.921-4.921,13.361-14.763,9.845-4.347-1.552-6.362-6.393-7.259-11.317a47.591,47.591,0,0,1-.657-9.138,6.972,6.972,0,0,1,3.537-5.933c5.809-3.293,11.939-2.066,15.975-.514A6.95,6.95,0,0,1,252.56,153.848Z" transform="translate(-225.722 -145.46)" fill="#ffa681"/>
              <path id="Trazado_1007823" data-name="Trazado 1007823" d="M240.615,168.074c0,.713-.367,1.291-.821,1.291s-.821-.578-.821-1.291.367-1.291.821-1.291S240.615,167.361,240.615,168.074Z" transform="translate(-230.229 -154.713)" fill="#18315b"/>
              <path id="Trazado_1007824" data-name="Trazado 1007824" d="M258.517,168.074c0,.713-.367,1.291-.821,1.291s-.821-.578-.821-1.291.367-1.291.821-1.291S258.517,167.361,258.517,168.074Z" transform="translate(-237.997 -154.713)" fill="#18315b"/>
              <path id="Trazado_1007825" data-name="Trazado 1007825" d="M236.538,161.871a13.7,13.7,0,0,1,3.511-.526.61.61,0,0,1,.607.715l0,.01a.608.608,0,0,1-.628.5,15.409,15.409,0,0,0-4.807.589.918.918,0,0,1,.279-.653A2.115,2.115,0,0,1,236.538,161.871Z" transform="translate(-228.599 -152.353)" fill="#18315b"/>
              <path id="Trazado_1007826" data-name="Trazado 1007826" d="M257.812,161.918a13.7,13.7,0,0,0-3.511-.526.61.61,0,0,0-.607.715l0,.01a.607.607,0,0,0,.627.5,15.409,15.409,0,0,1,4.807.589.92.92,0,0,0-.279-.653A2.108,2.108,0,0,0,257.812,161.918Z" transform="translate(-236.612 -152.373)" fill="#18315b"/>
              <g id="Grupo_1178786" data-name="Grupo 1178786" transform="translate(13.65 13.044)">
                <path id="Trazado_1007827" data-name="Trazado 1007827" d="M248.819,174.709a1.339,1.339,0,0,1-.69-.165.969.969,0,0,1-.461-.774,46.925,46.925,0,0,1,.191-4.976.318.318,0,1,1,.633.052,48.013,48.013,0,0,0-.192,4.859.344.344,0,0,0,.156.3,1.907,1.907,0,0,0,1.273-.12.317.317,0,0,1,.239.587A3.391,3.391,0,0,1,248.819,174.709Z" transform="translate(-247.639 -168.502)" fill="#f97853"/>
              </g>
              <path id="Trazado_1007828" data-name="Trazado 1007828" d="M242.606,183.006a3.778,3.778,0,0,0,3.723,3.427c2.692,0,3.447-2.029,3.707-3.427Z" transform="translate(-231.805 -161.752)" fill="#fff"/>
              <g id="Grupo_1178787" data-name="Grupo 1178787" transform="translate(12.846 25.51)">
                <path id="Trazado_1007829" data-name="Trazado 1007829" d="M247.859,191.547a3.169,3.169,0,0,1-1.488-.435.317.317,0,0,1,.333-.54h0a2.553,2.553,0,0,0,1.155.341,2.7,2.7,0,0,0,1.219-.342.317.317,0,0,1,.328.543A3.315,3.315,0,0,1,247.859,191.547Z" transform="translate(-246.22 -190.525)" fill="#f97853"/>
              </g>
            </g>
            <path id="Trazado_1007830" data-name="Trazado 1007830" d="M253.231,148.717a1.045,1.045,0,0,1-.764.585,20.136,20.136,0,0,1-.115,2.348c-.392,4.586-1.548,5.391-1.81,4.257a52.923,52.923,0,0,1-.079-6.48,14.954,14.954,0,0,1-1.681-.211l-1.064-4.452-.372,4.4c-1.6.555-5.318-.334-5.318-.334l-1.249-4.388-.772,4.222a8.89,8.89,0,0,1-5.384.389l-.687-4.554-1.587,4.554s-5.1,1.831-5.16,0a34.307,34.307,0,0,1,1.406-6.392,9.614,9.614,0,0,1,4.637-5.886,16.9,16.9,0,0,1,15.326-.219C253.431,139.462,253.231,148.717,253.231,148.717Z" transform="translate(-222.921 -134.827)" fill="#18315b"/>
            <path id="Trazado_1007831" data-name="Trazado 1007831" d="M226.73,143.029s-4.2,5-5.586,13.926-3.3,15.524,2.083,18.472c5.823,3.19,5.318-3.353,5.235-5.132s-5.036-6.64-1.732-20.331C227.8,145.545,226.73,143.029,226.73,143.029Z" transform="translate(-219.65 -138.386)" fill="#18315b"/>
            <path id="Trazado_1007832" data-name="Trazado 1007832" d="M230.423,175.619v.011c0,.066.006.421.032.977.013.345.034.764.066,1.24.2,3.008.783,8.2,2.5,10a5.742,5.742,0,0,0,3.527,1.215V186.7a9.352,9.352,0,0,1-3.869-3.593,22.094,22.094,0,0,1-2.14-6.6Z" transform="translate(-224.324 -152.527)" fill="#000b29"/>
            <path id="Trazado_1007833" data-name="Trazado 1007833" d="M269.931,180.211a.743.743,0,1,1-.743-.743A.743.743,0,0,1,269.931,180.211Z" transform="translate(-240.822 -154.197)" fill="#fff"/>
          </g>
          <g id="Grupo_1178795" data-name="Grupo 1178795" transform="translate(0 48.689)">
            <path id="Trazado_1007834" data-name="Trazado 1007834" d="M267.663,254.159c-2.105,6.028-11.535,5.589-22.275,2.294l-.046-.014-.1-.031-1.477-.471c-.2-.066-.409-.134-.613-.2q-1.736-.582-3.494-1.251a119.917,119.917,0,0,1-11.351-5.027l.025-.063,1.1-2.852.375-.971s19.91,2.169,29.921.076c.17-.036.335-.071.5-.109a6.243,6.243,0,0,0-.114-.661c-5.3-18.058.5-21.52,2.438-24.039C262.547,220.835,271.638,242.78,267.663,254.159Z" transform="translate(-211.56 -220.836)" fill="#009cf8"/>
            <g id="Grupo_1178790" data-name="Grupo 1178790" transform="translate(48.166 24.039)">
              <path id="Trazado_1007835" data-name="Trazado 1007835" d="M288.5,267a.433.433,0,0,1-.186.042.426.426,0,0,1-.382-.238c-.759-1.554-3.334-2.478-4.125-2.731.17-.036.335-.071.5-.109-.04-.222-.078-.443-.114-.661,1.006.332,3.634,1.346,4.5,3.129A.424.424,0,0,1,288.5,267Z" transform="translate(-283.81 -263.301)" fill="#006bde"/>
            </g>
            <g id="Grupo_1178791" data-name="Grupo 1178791" transform="translate(16.928 24.524)">
              <path id="Trazado_1007836" data-name="Trazado 1007836" d="M236.671,266.611c-4.063,0-7.363-.234-7.651-.255a.424.424,0,1,1,.062-.846c.15.011,15.085,1.067,20.974-1.321a.425.425,0,1,1,.319.787C247.115,266.3,241.38,266.611,236.671,266.611Z" transform="translate(-228.627 -264.158)" fill="#006bde"/>
            </g>
            <g id="Grupo_1178792" data-name="Grupo 1178792" transform="translate(32.204 26.977)">
              <path id="Trazado_1007837" data-name="Trazado 1007837" d="M255.612,276.615h0c3.407-.94,6.5-1.855,8.293-2.428,2.483-.8,4.538-3.307,5.472-5.441a.425.425,0,0,1,.778.341c-1.01,2.308-3.254,5.03-5.991,5.909-1.3.416-3.28,1.01-5.571,1.664a5.146,5.146,0,0,1-2.982-.045Z" transform="translate(-255.612 -268.492)" fill="#006bde"/>
            </g>
            <g id="Grupo_1178794" data-name="Grupo 1178794" transform="translate(0.796 0.184)">
              <path id="Trazado_1007838" data-name="Trazado 1007838" d="M240.722,253.158c-30.77,10.363-40.236,3.581-40.236,3.581-2.071-18.733,5.562-35.579,5.562-35.579a85.322,85.322,0,0,1,4.806,10.209l.674,14.359-.051.4-.024.188-.127.982,0,.02.2.042c9.308,1.964,26.33-.23,26.33-.23Z" transform="translate(-200.129 -221.161)" fill="#009cf8"/>
              <g id="Grupo_1178793" data-name="Grupo 1178793" transform="translate(5.982 25.156)">
                <path id="Trazado_1007839" data-name="Trazado 1007839" d="M216.105,266.643a30.3,30.3,0,0,0-4.645,4.841.425.425,0,0,1-.678-.513,0,0,0,0,0,0,0,31.126,31.126,0,0,1,5.254-5.37l-.127.982,0,.02Z" transform="translate(-210.697 -265.599)" fill="#006bde"/>
              </g>
              <path id="Trazado_1007840" data-name="Trazado 1007840" d="M266.763,261.6s3.407-7.738,8.586-7.049l1.562,5.6c-2.835,1.2-3.25,6.065-7.275,7.482Z" transform="translate(-229.043 -235.63)" fill="#ffa681"/>
            </g>
            <path id="Trazado_1007841" data-name="Trazado 1007841" d="M216.969,259.2a12.329,12.329,0,0,0-7.813-6.515c-5.662-1.466-9.269,1.2-9.649,2.209s2.135.045,2.135.045a4.885,4.885,0,0,0-2.578,2c-.94,1.54,2.288-.122,2.288-.122s-2.314,1.014-2.609,1.955,2.758-.648,3.331-.618c0,0-2.726,1.083-2.707,2.054s3.131-.612,5.455-.487a36.649,36.649,0,0,1,5.888,1.088,39.039,39.039,0,0,0,5.364.706Z" transform="translate(-198.724 -234.469)" fill="#ffa681"/>
          </g>
        </g>
        <g id="Grupo_1178842" data-name="Grupo 1178842" transform="translate(13.219)">
          <g id="Grupo_1178835" data-name="Grupo 1178835" transform="translate(0 5.273)">
            <g id="Grupo_1178815" data-name="Grupo 1178815" transform="translate(159.492 3.597)">
              <g id="Grupo_1178814" data-name="Grupo 1178814">
                <g id="Grupo_1178797" data-name="Grupo 1178797" transform="translate(0 6.457)">
                  <path id="Trazado_1007842" data-name="Trazado 1007842" d="M324.622,120a3.8,3.8,0,1,1,3.8-3.8A3.805,3.805,0,0,1,324.622,120Zm0-6.409a2.608,2.608,0,1,0,2.608,2.609A2.611,2.611,0,0,0,324.622,113.6Z" transform="translate(-320.821 -112.403)" fill="#006bde"/>
                </g>
                <g id="Grupo_1178798" data-name="Grupo 1178798" transform="translate(33.158)">
                  <path id="Trazado_1007843" data-name="Trazado 1007843" d="M383.2,108.6a3.8,3.8,0,1,1,3.8-3.8A3.805,3.805,0,0,1,383.2,108.6Zm0-6.409A2.609,2.609,0,1,0,385.8,104.8,2.611,2.611,0,0,0,383.2,102.19Z" transform="translate(-379.396 -100.997)" fill="#009cf8"/>
                </g>
                <g id="Grupo_1178805" data-name="Grupo 1178805" transform="translate(37.368 16.131)">
                  <g id="Grupo_1178801" data-name="Grupo 1178801" transform="translate(3.69)">
                    <g id="Grupo_1178799" data-name="Grupo 1178799">
                      <path id="Trazado_1007844" data-name="Trazado 1007844" d="M393.948,133.313a.6.6,0,0,1-.6-.6v-2.629a.6.6,0,0,1,1.192,0v2.629A.6.6,0,0,1,393.948,133.313Z" transform="translate(-393.352 -129.492)" fill="#006bde"/>
                    </g>
                    <g id="Grupo_1178800" data-name="Grupo 1178800" transform="translate(0 4.601)">
                      <path id="Trazado_1007845" data-name="Trazado 1007845" d="M393.948,141.44a.6.6,0,0,1-.6-.6v-2.629a.6.6,0,0,1,1.192,0v2.629A.6.6,0,0,1,393.948,141.44Z" transform="translate(-393.352 -137.619)" fill="#006bde"/>
                    </g>
                  </g>
                  <g id="Grupo_1178804" data-name="Grupo 1178804" transform="translate(0 3.614)">
                    <g id="Grupo_1178802" data-name="Grupo 1178802" transform="translate(5.019)">
                      <path id="Trazado_1007846" data-name="Trazado 1007846" d="M398.657,137.069H396.3a.6.6,0,0,1,0-1.192h2.362a.6.6,0,1,1,0,1.192Z" transform="translate(-395.699 -135.877)" fill="#006bde"/>
                    </g>
                    <g id="Grupo_1178803" data-name="Grupo 1178803">
                      <path id="Trazado_1007847" data-name="Trazado 1007847" d="M389.791,137.069h-2.362a.6.6,0,1,1,0-1.192h2.362a.6.6,0,0,1,0,1.192Z" transform="translate(-386.833 -135.877)" fill="#006bde"/>
                    </g>
                  </g>
                </g>
                <g id="Grupo_1178813" data-name="Grupo 1178813" transform="translate(17.294 0.204)">
                  <g id="Grupo_1178812" data-name="Grupo 1178812">
                    <g id="Grupo_1178808" data-name="Grupo 1178808" transform="translate(3.69)">
                      <g id="Grupo_1178806" data-name="Grupo 1178806">
                        <path id="Trazado_1007848" data-name="Trazado 1007848" d="M358.486,105.178a.6.6,0,0,1-.6-.6v-2.629a.6.6,0,0,1,1.192,0v2.629A.6.6,0,0,1,358.486,105.178Z" transform="translate(-357.89 -101.357)" fill="#1c31b5"/>
                      </g>
                      <g id="Grupo_1178807" data-name="Grupo 1178807" transform="translate(0 4.601)">
                        <path id="Trazado_1007849" data-name="Trazado 1007849" d="M358.486,113.305a.6.6,0,0,1-.6-.6V110.08a.6.6,0,0,1,1.192,0v2.629A.6.6,0,0,1,358.486,113.305Z" transform="translate(-357.89 -109.484)" fill="#1c31b5"/>
                      </g>
                    </g>
                    <g id="Grupo_1178811" data-name="Grupo 1178811" transform="translate(0 3.615)">
                      <g id="Grupo_1178809" data-name="Grupo 1178809" transform="translate(5.019)">
                        <path id="Trazado_1007850" data-name="Trazado 1007850" d="M363.195,108.935h-2.362a.6.6,0,1,1,0-1.192h2.362a.6.6,0,0,1,0,1.192Z" transform="translate(-360.237 -107.743)" fill="#1c31b5"/>
                      </g>
                      <g id="Grupo_1178810" data-name="Grupo 1178810">
                        <path id="Trazado_1007851" data-name="Trazado 1007851" d="M354.329,108.935h-2.362a.6.6,0,1,1,0-1.192h2.362a.6.6,0,1,1,0,1.192Z" transform="translate(-351.371 -107.743)" fill="#1c31b5"/>
                      </g>
                    </g>
                  </g>
                </g>
              </g>
            </g>
            <g id="Grupo_1178834" data-name="Grupo 1178834">
              <g id="Grupo_1178833" data-name="Grupo 1178833">
                <g id="Grupo_1178816" data-name="Grupo 1178816" transform="translate(27.451 0.41)">
                  <path id="Trazado_1007852" data-name="Trazado 1007852" d="M87.568,99.169a3.8,3.8,0,1,1,3.8,3.8A3.805,3.805,0,0,1,87.568,99.169Zm1.193,0a2.608,2.608,0,1,0,2.608-2.609A2.611,2.611,0,0,0,88.761,99.169Z" transform="translate(-87.568 -95.368)" fill="#006bde"/>
                </g>
                <g id="Grupo_1178817" data-name="Grupo 1178817" transform="translate(12.188 14.897)">
                  <path id="Trazado_1007853" data-name="Trazado 1007853" d="M60.607,124.759a3.8,3.8,0,1,1,3.8,3.8A3.805,3.805,0,0,1,60.607,124.759Zm1.192,0a2.608,2.608,0,1,0,2.609-2.609A2.611,2.611,0,0,0,61.8,124.759Z" transform="translate(-60.607 -120.958)" fill="#009cf8"/>
                </g>
                <g id="Grupo_1178824" data-name="Grupo 1178824" transform="translate(0 20.209)">
                  <g id="Grupo_1178820" data-name="Grupo 1178820" transform="translate(3.69)">
                    <g id="Grupo_1178818" data-name="Grupo 1178818">
                      <path id="Trazado_1007854" data-name="Trazado 1007854" d="M46.191,134.164a.6.6,0,0,0,.6-.6v-2.629a.6.6,0,1,0-1.192,0v2.629A.6.6,0,0,0,46.191,134.164Z" transform="translate(-45.595 -130.343)" fill="#006bde"/>
                    </g>
                    <g id="Grupo_1178819" data-name="Grupo 1178819" transform="translate(0 4.601)">
                      <path id="Trazado_1007855" data-name="Trazado 1007855" d="M46.191,142.292a.6.6,0,0,0,.6-.6v-2.629a.6.6,0,0,0-1.192,0V141.7A.6.6,0,0,0,46.191,142.292Z" transform="translate(-45.595 -138.471)" fill="#006bde"/>
                    </g>
                  </g>
                  <g id="Grupo_1178823" data-name="Grupo 1178823" transform="translate(0 3.615)">
                    <g id="Grupo_1178821" data-name="Grupo 1178821">
                      <path id="Trazado_1007856" data-name="Trazado 1007856" d="M39.672,137.921h2.362a.6.6,0,1,0,0-1.192H39.672a.6.6,0,0,0,0,1.192Z" transform="translate(-39.076 -136.729)" fill="#006bde"/>
                    </g>
                    <g id="Grupo_1178822" data-name="Grupo 1178822" transform="translate(5.019)">
                      <path id="Trazado_1007857" data-name="Trazado 1007857" d="M48.538,137.921H50.9a.6.6,0,0,0,0-1.192H48.538a.6.6,0,1,0,0,1.192Z" transform="translate(-47.942 -136.729)" fill="#006bde"/>
                    </g>
                  </g>
                </g>
                <g id="Grupo_1178832" data-name="Grupo 1178832" transform="translate(13.737)">
                  <g id="Grupo_1178831" data-name="Grupo 1178831">
                    <g id="Grupo_1178827" data-name="Grupo 1178827" transform="translate(3.69)">
                      <g id="Grupo_1178825" data-name="Grupo 1178825">
                        <path id="Trazado_1007858" data-name="Trazado 1007858" d="M70.458,98.464a.6.6,0,0,0,.6-.6V95.239a.6.6,0,1,0-1.192,0v2.629A.6.6,0,0,0,70.458,98.464Z" transform="translate(-69.862 -94.643)" fill="#1c31b5"/>
                      </g>
                      <g id="Grupo_1178826" data-name="Grupo 1178826" transform="translate(0 4.601)">
                        <path id="Trazado_1007859" data-name="Trazado 1007859" d="M70.458,106.592a.6.6,0,0,0,.6-.6v-2.629a.6.6,0,1,0-1.192,0V106A.6.6,0,0,0,70.458,106.592Z" transform="translate(-69.862 -102.771)" fill="#1c31b5"/>
                      </g>
                    </g>
                    <g id="Grupo_1178830" data-name="Grupo 1178830" transform="translate(0 3.615)">
                      <g id="Grupo_1178828" data-name="Grupo 1178828">
                        <path id="Trazado_1007860" data-name="Trazado 1007860" d="M63.939,102.221H66.3a.6.6,0,1,0,0-1.192H63.939a.6.6,0,0,0,0,1.192Z" transform="translate(-63.343 -101.029)" fill="#1c31b5"/>
                      </g>
                      <g id="Grupo_1178829" data-name="Grupo 1178829" transform="translate(5.019)">
                        <path id="Trazado_1007861" data-name="Trazado 1007861" d="M72.805,102.221h2.362a.6.6,0,1,0,0-1.192H72.805a.6.6,0,0,0,0,1.192Z" transform="translate(-72.209 -101.029)" fill="#1c31b5"/>
                      </g>
                    </g>
                  </g>
                </g>
              </g>
            </g>
          </g>
          <g id="Grupo_1178841" data-name="Grupo 1178841" transform="translate(110.825)">
            <g id="Grupo_1178838" data-name="Grupo 1178838" transform="translate(19.204 8.451)">
              <g id="Grupo_1178836" data-name="Grupo 1178836">
                <path id="Trazado_1007862" data-name="Trazado 1007862" d="M270.425,101.563a.421.421,0,0,1-.209-.031c-.723-.305-1.147-.448-1.152-.449a.423.423,0,1,1,.268-.8c.018.006.456.153,1.213.472a.424.424,0,0,1-.12.812Z" transform="translate(-268.775 -100.258)" fill="#bbe2f2"/>
              </g>
              <g id="Grupo_1178837" data-name="Grupo 1178837" transform="translate(3.46 1.527)">
                <path id="Trazado_1007863" data-name="Trazado 1007863" d="M309.778,142.235c.288.768.558,1.56.8,2.354a.424.424,0,0,0,.449.3.45.45,0,0,0,.08-.016.423.423,0,0,0,.28-.529c-.249-.811-.524-1.619-.818-2.4a.423.423,0,0,0-.793.3Z" transform="translate(-290.015 -119.751)" fill="#bbe2f2"/>
                <path id="Trazado_1007864" data-name="Trazado 1007864" d="M312.371,150.666c.194.8.369,1.614.521,2.434a.423.423,0,0,0,.46.344l.033,0a.424.424,0,0,0,.339-.494c-.155-.835-.333-1.669-.531-2.48a.423.423,0,1,0-.823.2Z" transform="translate(-291.146 -123.43)" fill="#bbe2f2"/>
                <path id="Trazado_1007865" data-name="Trazado 1007865" d="M315.161,171.076a.423.423,0,0,0,.378-.414c.013-.849.007-1.7-.018-2.533a.423.423,0,1,0-.846.025c.025.819.031,1.658.018,2.495a.423.423,0,0,0,.417.43A.386.386,0,0,0,315.161,171.076Z" transform="translate(-292.151 -131.056)" fill="#bbe2f2"/>
                <path id="Trazado_1007866" data-name="Trazado 1007866" d="M314.345,158.87a.423.423,0,0,0-.365.474c.05.383.1.769.135,1.149.046.438.088.886.122,1.33a.423.423,0,0,0,.455.389h.011a.424.424,0,0,0,.378-.454c-.036-.451-.077-.906-.124-1.352-.041-.387-.087-.78-.138-1.17a.423.423,0,0,0-.464-.366Z" transform="translate(-291.848 -127.216)" fill="#bbe2f2"/>
                <path id="Trazado_1007867" data-name="Trazado 1007867" d="M307.261,136.42a.423.423,0,1,0,.773-.346c-.345-.771-.718-1.54-1.11-2.284a.423.423,0,1,0-.749.394C306.558,134.914,306.923,135.665,307.261,136.42Z" transform="translate(-288.441 -116.236)" fill="#bbe2f2"/>
                <path id="Trazado_1007868" data-name="Trazado 1007868" d="M275.116,103.755c.727.371,1.46.776,2.181,1.2a.423.423,0,0,0,.432-.729c-.735-.435-1.484-.848-2.226-1.227a.424.424,0,0,0-.386.754Z" transform="translate(-274.886 -102.954)" fill="#bbe2f2"/>
                <path id="Trazado_1007869" data-name="Trazado 1007869" d="M284.743,109.7a.419.419,0,0,0,.3.084.423.423,0,0,0,.212-.757c-.67-.512-1.364-1.01-2.063-1.481a.423.423,0,1,0-.473.7C283.406,108.711,284.086,109.2,284.743,109.7Z" transform="translate(-278.205 -104.916)" fill="#bbe2f2"/>
                <path id="Trazado_1007870" data-name="Trazado 1007870" d="M297.68,121.659a.423.423,0,0,0,.661-.529c-.526-.657-1.081-1.307-1.649-1.932a.423.423,0,1,0-.626.569C296.621,120.379,297.165,121.016,297.68,121.659Z" transform="translate(-284.028 -109.942)" fill="#bbe2f2"/>
                <path id="Trazado_1007871" data-name="Trazado 1007871" d="M291.576,115.291a.423.423,0,1,0,.591-.606c-.6-.586-1.232-1.163-1.874-1.716a.423.423,0,0,0-.552.641C290.368,114.152,290.986,114.717,291.576,115.291Z" transform="translate(-281.268 -107.255)" fill="#bbe2f2"/>
                <path id="Trazado_1007872" data-name="Trazado 1007872" d="M302.942,128.735a.423.423,0,1,0,.722-.441c-.439-.72-.907-1.434-1.391-2.125a.423.423,0,0,0-.693.486C302.053,127.331,302.512,128.031,302.942,128.735Z" transform="translate(-286.435 -112.949)" fill="#bbe2f2"/>
              </g>
            </g>
            <g id="Grupo_1178840" data-name="Grupo 1178840">
              <g id="Grupo_1178839" data-name="Grupo 1178839">
                <path id="Trazado_1007873" data-name="Trazado 1007873" d="M255.7,92.189l1.853-6.861-22.7.195Z" transform="translate(-234.85 -85.328)" fill="#009cf8"/>
                <path id="Trazado_1007874" data-name="Trazado 1007874" d="M234.85,85.671l19.745,8.323.052.023.85,1.407.2-3.086Z" transform="translate(-234.85 -85.477)" fill="#006bde"/>
                <path id="Trazado_1007875" data-name="Trazado 1007875" d="M269.911,101.821l-1.84-.29.991-1.117Z" transform="translate(-249.265 -91.874)" fill="#006bde"/>
                <path id="Trazado_1007876" data-name="Trazado 1007876" d="M252.163,92.969l2.485,1.047-5.117,5.766-14.68-14.11Z" transform="translate(-234.85 -85.477)" fill="#009cf8"/>
              </g>
            </g>
          </g>
        </g>
        <g id="Grupo_1178843" data-name="Grupo 1178843" transform="translate(16.482 183.045)">
          <path id="Trazado_1007877" data-name="Trazado 1007877" d="M277.624,413v.414a4.321,4.321,0,0,1-4.322,4.32H49.161a4.32,4.32,0,0,1-4.32-4.32V413a4.32,4.32,0,0,1,4.32-4.32H273.3A4.321,4.321,0,0,1,277.624,413Z" transform="translate(-44.841 -408.68)" fill="#1c31b5"/>
          <path id="Trazado_1007878" data-name="Trazado 1007878" d="M277.624,413v.207H44.841V413a4.32,4.32,0,0,1,4.32-4.32H273.3A4.321,4.321,0,0,1,277.624,413Z" transform="translate(-44.841 -408.68)" fill="#006bde"/>
        </g>
        <g id="Grupo_1178844" data-name="Grupo 1178844" transform="translate(93.717 126.523)">
          <path id="Trazado_1007879" data-name="Trazado 1007879" d="M254.736,351.763H184.323a3.046,3.046,0,0,1-3.046-3.046V311.878a3.046,3.046,0,0,1,3.046-3.046h70.413a3.046,3.046,0,0,1,3.046,3.046v36.839A3.046,3.046,0,0,1,254.736,351.763Z" transform="translate(-181.277 -308.832)" fill="#18315b"/>
          <rect id="Rectángulo_455149" data-name="Rectángulo 455149" width="11.849" height="13.507" transform="translate(32.329 42.883)" fill="#000b29"/>
          <circle id="Elipse_13661" data-name="Elipse 13661" cx="5.881" cy="5.881" r="5.881" transform="translate(32.24 16.111)" fill="#1d567e"/>
          <path id="Trazado_1007880" data-name="Trazado 1007880" d="M252.084,404.772H221.522v-1.03a3.762,3.762,0,0,1,3.762-3.762h23.038a3.762,3.762,0,0,1,3.762,3.762v1.03Z" transform="translate(-198.74 -348.382)" fill="#18315b"/>
        </g>
      </g>
    </g>
  </g>
</svg>
