<svg xmlns="http://www.w3.org/2000/svg" width="106" height="106" viewBox="0 0 106 106">
  <g id="Grupo_1177070" data-name="Grupo 1177070" transform="translate(-199.571 -537)">
    <rect id="Rectángulo_454494" data-name="Rectángulo 454494" width="106" height="106" rx="5" transform="translate(199.571 537)" fill="#faa159"/>
    <circle id="Elipse_13580" data-name="Elipse 13580" cx="36" cy="36" r="36" transform="translate(216.571 554)" fill="#fee3cd"/>
    <g id="Grupo_1177069" data-name="Grupo 1177069" transform="translate(199.896 544.305)">
      <g id="Grupo_1177069-2" data-name="Grupo 1177069" transform="translate(28.789 6.764)">
        <path id="Trazado_993916" data-name="Trazado 993916" d="M39.091,7.3H73.618v4.851H39.091Z" transform="translate(-32.321 -7.302)" fill="#a96f3f"/>
        <path id="Trazado_993917" data-name="Trazado 993917" d="M72.346,55.34l-4.754,6-4.741-6-4.747,6-4.741-6-4.754,6-4.741-6-4.747,6-4.741-6-4.373,5.524a28.313,28.313,0,0,0-.381,10.32l4.754-6,4.741,6,4.747-6,4.741,6,4.754-6,4.741,6,4.747-6,4.741,6,4.754-6,4.741,6a28.277,28.277,0,0,0-.381-10.313v-.007Z" transform="translate(-29.323 -22.047)" fill="#53856b"/>
        <path id="Trazado_993918" data-name="Trazado 993918" d="M42.369,30.913a14.54,14.54,0,0,1-1.227,1.83,15.567,15.567,0,0,1-2.162,2.232c-.326.263-.638.52-.943.79a23.38,23.38,0,0,0-7.728,12.5l4.373-5.524,4.741,6,4.747-6,4.741,6,4.754-6,4.741,6,4.747-6,4.741,6,4.754-6,4.359,5.524a23.38,23.38,0,0,0-7.728-12.5c-.3-.27-.617-.527-.943-.79a15.566,15.566,0,0,1-2.162-2.232,14.539,14.539,0,0,1-1.227-1.83,13.9,13.9,0,0,1-1.275-3.022c-1.636-5.642.492-11.553,4.664-13.591H38.98c4.172,2.038,6.3,7.949,4.664,13.591A13.9,13.9,0,0,1,42.369,30.913Z" transform="translate(-29.626 -9.45)" fill="#ffd772"/>
        <path id="Trazado_993919" data-name="Trazado 993919" d="M65.7,112.532q1.611-2.422,3.077-4.851A88.243,88.243,0,0,0,75.58,94.09H34.01a88.244,88.244,0,0,0,6.806,13.591q1.466,2.433,3.077,4.851Z" transform="translate(-30.761 -33.941)" fill="#eb5468"/>
        <path id="Trazado_993920" data-name="Trazado 993920" d="M77.221,75.542l-4.741-6-4.754,6-4.741-6-4.747,6-4.741-6-4.754,6L44,69.54l-4.747,6-4.741-6-4.754,6a48.229,48.229,0,0,0,2.946,11.013h41.57A48.229,48.229,0,0,0,77.221,75.542Z" transform="translate(-29.457 -26.405)" fill="#ffd772"/>
        <path id="Trazado_993921" data-name="Trazado 993921" d="M71.788,113.7H43.83q1.466,2.434,3.077,4.851h21.8Q70.322,116.126,71.788,113.7Z" transform="translate(-33.775 -39.96)" fill="#375e7d"/>
        <path id="Trazado_993922" data-name="Trazado 993922" d="M68.471,33.909H48.442a13.9,13.9,0,0,1-1.275,3.021,14.6,14.6,0,0,1-1.227,1.83H70.973a14.6,14.6,0,0,1-1.227-1.83,13.9,13.9,0,0,1-1.275-3.021Z" transform="translate(-34.423 -15.469)" fill="#e29356"/>
      </g>
      <path id="Trazado_993923" data-name="Trazado 993923" d="M59.114,7.976a1.213,1.213,0,0,0,0-2.426H55.663a1.213,1.213,0,0,0,0,2.426Z" transform="translate(-8.246)"/>
      <path id="Trazado_993924" data-name="Trazado 993924" d="M41.643,24.866a12.973,12.973,0,0,1-2.291,4.442A18.375,18.375,0,0,1,36.4,32.163c-16.163,14.076-7.367,36.016,4.5,53.864a1.214,1.214,0,0,0,1.01.541h12.1a1.213,1.213,0,1,0,0-2.426H42.572c-.576-.875-1-1.538-1.555-2.426H64.628c-.575.919-1.059,1.672-1.555,2.426H60.342a1.213,1.213,0,0,0,0,2.426h3.382a1.214,1.214,0,0,0,1.01-.541c11.908-17.9,20.649-39.807,4.513-53.857-1.788-1.585-4.081-3.292-5.246-7.3-1.421-4.905.255-10.123,3.812-12.038h2.273A1.213,1.213,0,0,0,71.3,11.616V6.764a1.212,1.212,0,0,0-1.213-1.213h-12.9a1.213,1.213,0,1,0,0,2.426H68.874V10.4h-32.1V7.976H41.1a1.213,1.213,0,1,0,0-2.426H35.558a1.212,1.212,0,0,0-1.213,1.213v4.851a1.213,1.213,0,0,0,1.213,1.213h2.27c3.56,1.915,5.236,7.133,3.812,12.038ZM66.108,79.292H39.536a89.79,89.79,0,0,1-5.7-11.166h37.98a89.7,89.7,0,0,1-5.7,11.166ZM72.761,65.7H32.879a46.583,46.583,0,0,1-2.512-9.458l3.474-4.385,3.79,4.8a1.212,1.212,0,0,0,1.9,0l3.8-4.8,3.789,4.8a1.212,1.212,0,0,0,1.9,0l3.8-4.8,3.79,4.8a1.212,1.212,0,0,0,1.9,0l3.8-4.8,3.79,4.8a1.212,1.212,0,0,0,1.9,0l3.8-4.8,3.465,4.387A46.557,46.557,0,0,1,72.765,65.7ZM75.6,52.749l-2.842-3.6a1.212,1.212,0,0,0-1.9,0l-3.8,4.8-3.79-4.8a1.212,1.212,0,0,0-1.9,0l-3.8,4.8-3.79-4.8a1.212,1.212,0,0,0-1.9,0l-3.8,4.8-3.79-4.8a1.212,1.212,0,0,0-1.9,0l-3.8,4.8L34.8,49.15a1.212,1.212,0,0,0-1.9,0l-2.853,3.6a25.55,25.55,0,0,1,.562-6.642l3.244-4.1,3.789,4.8a1.213,1.213,0,0,0,1.9,0l3.8-4.8,3.789,4.8a1.212,1.212,0,0,0,1.9,0l3.8-4.8,3.79,4.8a1.212,1.212,0,0,0,1.9,0l3.8-4.8,3.79,4.8a1.212,1.212,0,0,0,1.9,0l3.8-4.8,3.232,4.095a25.564,25.564,0,0,1,.561,6.642ZM41.616,12.827H64.029a13.691,13.691,0,0,0-2.713,11.164H44.329a13.689,13.689,0,0,0-2.713-11.164ZM63.068,28.843H42.577l.008-.014a18.268,18.268,0,0,0,1.1-2.41H61.955c0,.01.009.021.013.032a16.794,16.794,0,0,0,1.1,2.392Zm1.7,2.426c2.189,2.57,4.3,3.271,7.171,7.589a1.281,1.281,0,0,0-.128-.015,1.127,1.127,0,0,0-.952.46l-3.8,4.8-3.79-4.8a1.211,1.211,0,0,0-1.9,0l-3.8,4.8-3.79-4.8a1.211,1.211,0,0,0-1.9,0l-3.8,4.8-3.79-4.8a1.212,1.212,0,0,0-1.9,0l-3.8,4.8L34.8,39.3a1.1,1.1,0,0,0-1.094-.445c2.95-4.436,4.9-4.921,7.171-7.591Z" transform="translate(0 0)"/>
    </g>
  </g>
</svg>
