<svg xmlns="http://www.w3.org/2000/svg" width="100" height="100" viewBox="0 0 100 100">
  <g id="Grupo_1176309" data-name="Grupo 1176309" transform="translate(-637 -6992)">
    <g id="Grupo_1098742" data-name="Grupo 1098742" transform="translate(637.242 6992)">
      <rect id="Rectángulo_400898" data-name="Rectángulo 400898" width="100" height="100" rx="50" transform="translate(-0.242)" fill="#fff" opacity="0.859"/>
      <g id="Rectángulo_400907" data-name="Rectángulo 400907" transform="translate(-0.242)" fill="none" stroke="#c8bf57" stroke-linecap="round" stroke-width="3" stroke-dasharray="0 7">
        <rect width="100" height="100" rx="50" stroke="none"/>
        <rect x="1.5" y="1.5" width="97" height="97" rx="48.5" fill="none"/>
      </g>
    </g>
    <g id="Grupo_1107006" data-name="Grupo 1107006" transform="translate(645.398 7000.157)">
      <rect id="Rectángulo_400898-2" data-name="Rectángulo 400898" width="84" height="84" rx="42" transform="translate(-0.399 -0.157)" fill="#405425"/>
      <rect id="Rectángulo_400907-2" data-name="Rectángulo 400907" width="84" height="84" rx="42" transform="translate(-0.398 -0.157)" fill="none"/>
    </g>
    <g id="Grupo_1177885" data-name="Grupo 1177885" transform="translate(661.22 7016.22)">
      <g id="Grupo_1177882" data-name="Grupo 1177882" transform="translate(0.755 0.755)">
        <path id="Trazado_996145" data-name="Trazado 996145" d="M13.872,10.156a6.933,6.933,0,0,0-1.018-2.231,3.646,3.646,0,0,0-4.929,4.929c.51.271,1.491,1.525,2.109,1.525C12.047,14.379,13.872,12.169,13.872,10.156Z" transform="translate(-7.5 -7.5)" fill="#60b7ff"/>
        <path id="Trazado_996146" data-name="Trazado 996146" d="M432.115,11.145a3.628,3.628,0,0,0,.425,1.709c.51.271,1.638,1.226,2.256,1.226,2.013,0,3.6-2.188,3.6-4.2,0-.618-.659-1.444-.93-1.954a3.646,3.646,0,0,0-5.354,3.22Z" transform="translate(-389.355 -7.5)" fill="#918291"/>
        <path id="Trazado_996147" data-name="Trazado 996147" d="M438.7,435.152a9.594,9.594,0,0,0-1.229-2.613,3.646,3.646,0,0,0-4.929,4.929c.51.271,1.318,1.1,1.936,1.1C436.488,438.564,438.7,437.165,438.7,435.152Z" transform="translate(-389.354 -389.355)" fill="#ffe177"/>
        <path id="Trazado_996148" data-name="Trazado 996148" d="M13.922,434.585c0-.618-.8-1.534-1.068-2.044a3.646,3.646,0,0,0-4.929,4.929c.51.271,1.2,1.039,1.817,1.039A4.384,4.384,0,0,0,13.922,434.585Z" transform="translate(-7.5 -389.356)" fill="#5de1c4"/>
        <path id="Trazado_996149" data-name="Trazado 996149" d="M271.531,24.446v1.585a3,3,0,0,0,2.39,2.929,18.655,18.655,0,0,1,3.812,1.259.251.251,0,0,1,.072.406l-2.787,2.787a.5.5,0,0,0,.168.822,14.118,14.118,0,0,1,7.858,7.856.5.5,0,0,0,.822.168l2.786-2.785a.251.251,0,0,1,.406.072,18.63,18.63,0,0,1,1.259,3.812,3,3,0,0,0,2.929,2.39h.16c0-.15.906-.438.906-.588,0-5.974-3.135-11.288-6.812-15.43a23.363,23.363,0,0,0-13.421-5.785A.5.5,0,0,0,271.531,24.446Z" transform="translate(-244.942 -22.286)" fill="#918291"/>
        <path id="Trazado_996150" data-name="Trazado 996150" d="M291.156,271.551a3,3,0,0,0-2.822,2.388,18.653,18.653,0,0,1-1.259,3.812.251.251,0,0,1-.406.072l-2.787-2.787a.5.5,0,0,0-.822.168,14.119,14.119,0,0,1-7.856,7.858.5.5,0,0,0-.168.822l2.785,2.786a.251.251,0,0,1-.072.406,18.63,18.63,0,0,1-3.812,1.259,3,3,0,0,0-2.388,2.822C281.223,291.157,292.653,283.379,291.156,271.551Z" transform="translate(-244.96 -244.96)" fill="#ffe177"/>
        <path id="Trazado_996151" data-name="Trazado 996151" d="M43.356,288.316a18.654,18.654,0,0,1-3.812-1.259.251.251,0,0,1-.072-.406l2.787-2.787a.5.5,0,0,0-.168-.822,14.118,14.118,0,0,1-7.858-7.856.5.5,0,0,0-.822-.168L30.625,277.8a.251.251,0,0,1-.406-.072,18.63,18.63,0,0,1-1.259-3.812,3,3,0,0,0-2.929-2.39H24.445a.5.5,0,0,0-.5.548A23.368,23.368,0,0,0,29.728,285.5c4.141,3.677,9.419,7.542,15.392,7.542.15,0,.475-1.633.625-1.636v-.16A3,3,0,0,0,43.356,288.316Z" transform="translate(-22.285 -244.941)" fill="#5de1c4"/>
        <path id="Trazado_996152" data-name="Trazado 996152" d="M43.357,28.96a18.626,18.626,0,0,0-3.812,1.259.251.251,0,0,0-.072.406l2.785,2.786a.5.5,0,0,1-.168.822,14.119,14.119,0,0,0-7.856,7.858.5.5,0,0,1-.822.168l-2.787-2.787a.251.251,0,0,0-.406.072,18.648,18.648,0,0,0-1.259,3.812,3,3,0,0,1-2.929,2.39H24.446a.5.5,0,0,1-.5-.548A23.466,23.466,0,0,1,45.2,23.944a.5.5,0,0,1,.548.5v1.585a3,3,0,0,1-2.39,2.929Z" transform="translate(-22.286 -22.286)" fill="#60b7ff"/>
        <path id="Trazado_996153" data-name="Trazado 996153" d="M416.161,97.427h1.425a.5.5,0,0,0,.5-.548,23.41,23.41,0,0,0-7.833-15.469,23.369,23.369,0,0,1,5.91,15.568Q416.165,97.2,416.161,97.427Z" transform="translate(-369.697 -73.966)" fill="#7a6d79"/>
        <path id="Trazado_996154" data-name="Trazado 996154" d="M292.832,271.531h-1.585l-.107,0a23.475,23.475,0,0,1-19.606,19.606q0,.054,0,.108v1.585a.5.5,0,0,0,.548.5,23.467,23.467,0,0,0,21.254-21.254A.5.5,0,0,0,292.832,271.531Z" transform="translate(-244.942 -244.942)" fill="#ffc344"/>
        <path id="Trazado_996155" data-name="Trazado 996155" d="M81.412,410.258a23.406,23.406,0,0,0,15.469,7.833.5.5,0,0,0,.548-.5v-1.425q-.224,0-.45,0A23.369,23.369,0,0,1,81.412,410.258Z" transform="translate(-73.969 -369.699)" fill="#0ed2b3"/>
        <path id="Trazado_996156" data-name="Trazado 996156" d="M16.648,11.719a3.646,3.646,0,0,1-4.929,4.929,3.645,3.645,0,1,0,4.929-4.929Z" transform="translate(-11.294 -11.294)" fill="#26a6fe"/>
        <path id="Trazado_996157" data-name="Trazado 996157" d="M438.043,17.073a3.628,3.628,0,0,1-1.709-.425,3.645,3.645,0,1,0,4.929-4.929,3.646,3.646,0,0,1-3.22,5.354Z" transform="translate(-393.149 -11.294)" fill="#7a6d79"/>
        <path id="Trazado_996158" data-name="Trazado 996158" d="M441.263,436.334a3.646,3.646,0,0,1-4.929,4.929,3.645,3.645,0,1,0,4.929-4.929Z" transform="translate(-393.149 -393.149)" fill="#ffc344"/>
        <path id="Trazado_996159" data-name="Trazado 996159" d="M16.648,436.334a3.646,3.646,0,0,1-4.929,4.929,3.645,3.645,0,1,0,4.929-4.929Z" transform="translate(-11.294 -393.149)" fill="#0ed2b3"/>
        <path id="Trazado_996160" data-name="Trazado 996160" d="M170.556,192.309l.6-1.169c1.336-1.16,1.477-3.2,1.33-5.141-.108-1.429-1.456-2.309-2.422-3.267a5.736,5.736,0,0,0-1.715-.376,5.816,5.816,0,0,0-4.584,1.785.447.447,0,0,1-.65,0,5.848,5.848,0,0,0-1.6-1.179.448.448,0,0,1-.419-.13l-.1-.1a5.831,5.831,0,0,0-5.92,9.845h0l6.5,5.647a.881.881,0,0,0,.419-.2Z" transform="translate(-138.412 -164.736)" fill="#fd8087"/>
        <path id="Trazado_996161" data-name="Trazado 996161" d="M249.789,191.185a5.857,5.857,0,0,0-3.724-4.988,5.818,5.818,0,0,1-.282,8.537h0l-7.777,6.754a.88.88,0,0,1-.419.2l1.275,1.107a.883.883,0,0,0,1.158,0l7.777-6.754h0A5.82,5.82,0,0,0,249.789,191.185Z" transform="translate(-214.417 -168.202)" fill="#fe646f"/>
      </g>
      <g id="Grupo_1177884" data-name="Grupo 1177884">
        <g id="Grupo_1177883" data-name="Grupo 1177883">
          <path id="Trazado_996162" data-name="Trazado 996162" d="M16.447,38.386A1.259,1.259,0,0,0,17.7,39.757h1.585a3.782,3.782,0,0,0,3.668-2.987,17.942,17.942,0,0,1,.918-2.983l2.262,2.262a1.258,1.258,0,0,0,2.058-.422,13.388,13.388,0,0,1,7.435-7.437,1.258,1.258,0,0,0,.422-2.057l-2.26-2.261a17.921,17.921,0,0,1,2.983-.918,3.782,3.782,0,0,0,2.987-3.668V17.7a1.259,1.259,0,0,0-1.371-1.254,24.053,24.053,0,0,0-7.62,1.968.755.755,0,0,0,.612,1.381,22.538,22.538,0,0,1,6.868-1.819v1.309a2.235,2.235,0,0,1-1.793,2.191,19.438,19.438,0,0,0-3.966,1.31,1.007,1.007,0,0,0-.293,1.628l2.518,2.519a14.915,14.915,0,0,0-7.778,7.78l-2.52-2.52a1.007,1.007,0,0,0-1.628.293,19.453,19.453,0,0,0-1.31,3.966,2.236,2.236,0,0,1-2.191,1.793H17.978A22.847,22.847,0,0,1,28.4,21.39a.755.755,0,1,0-.81-1.275A24.224,24.224,0,0,0,16.447,38.386Z" transform="translate(-14.786 -14.786)"/>
          <path id="Trazado_996163" data-name="Trazado 996163" d="M4.4,8.8A4.4,4.4,0,1,0,0,4.4,4.4,4.4,0,0,0,4.4,8.8Zm0-7.289A2.889,2.889,0,1,1,1.511,4.4,2.893,2.893,0,0,1,4.4,1.511Z"/>
          <path id="Trazado_996164" data-name="Trazado 996164" d="M267.018,22.956a17.924,17.924,0,0,1,2.983.918l-2.262,2.262a1.258,1.258,0,0,0,.422,2.058,13.388,13.388,0,0,1,7.437,7.435,1.258,1.258,0,0,0,2.057.422l2.261-2.26a17.913,17.913,0,0,1,.918,2.983,3.782,3.782,0,0,0,3.668,2.987h1.585a1.259,1.259,0,0,0,1.255-1.371,24.222,24.222,0,0,0-21.94-21.94,1.259,1.259,0,0,0-1.371,1.255v1.585a3.782,3.782,0,0,0,2.987,3.667Zm-1.476-4.976a22.656,22.656,0,0,1,20.269,20.269H284.5a2.235,2.235,0,0,1-2.191-1.793A19.417,19.417,0,0,0,281,32.49a1.007,1.007,0,0,0-1.628-.293l-2.519,2.518a14.915,14.915,0,0,0-7.78-7.778l2.52-2.52a1.007,1.007,0,0,0-.293-1.628,19.443,19.443,0,0,0-3.966-1.31,2.236,2.236,0,0,1-1.793-2.191V17.98Z" transform="translate(-237.442 -14.788)"/>
          <path id="Trazado_996165" data-name="Trazado 996165" d="M429.015,8.8a4.4,4.4,0,1,0-4.4-4.4A4.4,4.4,0,0,0,429.015,8.8Zm0-7.289A2.889,2.889,0,1,1,426.126,4.4,2.893,2.893,0,0,1,429.015,1.511Z" transform="translate(-381.855)"/>
          <path id="Trazado_996166" data-name="Trazado 996166" d="M287.341,265.4a1.259,1.259,0,0,0-1.255-1.371H284.5a3.782,3.782,0,0,0-3.668,2.987,17.943,17.943,0,0,1-.918,2.983l-2.262-2.262a1.258,1.258,0,0,0-2.058.422,13.388,13.388,0,0,1-7.435,7.437,1.258,1.258,0,0,0-.422,2.057l2.26,2.261a17.92,17.92,0,0,1-2.983.918,3.782,3.782,0,0,0-2.987,3.668v1.585a1.259,1.259,0,0,0,1.26,1.259c.037,0,.074,0,.111,0a24.222,24.222,0,0,0,21.939-21.94Zm-21.8,20.409V284.5a2.235,2.235,0,0,1,1.793-2.191A19.434,19.434,0,0,0,271.3,281a1.007,1.007,0,0,0,.293-1.628l-2.518-2.519a14.915,14.915,0,0,0,7.778-7.78l2.52,2.52A1.006,1.006,0,0,0,281,271.3a19.452,19.452,0,0,0,1.31-3.966,2.236,2.236,0,0,1,2.191-1.793h1.309A22.655,22.655,0,0,1,265.541,285.812Z" transform="translate(-237.442 -237.443)"/>
          <path id="Trazado_996167" data-name="Trazado 996167" d="M429.015,424.615a4.4,4.4,0,1,0,4.4,4.4A4.4,4.4,0,0,0,429.015,424.615Zm0,7.289a2.889,2.889,0,1,1,2.889-2.889A2.893,2.893,0,0,1,429.015,431.9Z" transform="translate(-381.855 -381.855)"/>
          <path id="Trazado_996168" data-name="Trazado 996168" d="M36.769,280.832a17.928,17.928,0,0,1-2.983-.918l2.262-2.262a1.258,1.258,0,0,0-.422-2.058,13.415,13.415,0,0,1-4.87-3.362.755.755,0,1,0-1.112,1.022,14.947,14.947,0,0,0,5.07,3.6l-2.52,2.52A1.007,1.007,0,0,0,32.487,281a19.446,19.446,0,0,0,3.966,1.31,2.235,2.235,0,0,1,1.793,2.191v1.309A22.656,22.656,0,0,1,17.977,265.54h1.309a2.236,2.236,0,0,1,2.191,1.793,19.417,19.417,0,0,0,1.311,3.966,1.007,1.007,0,0,0,1.628.293l2.519-2.518c.168.389.353.774.552,1.146a.755.755,0,0,0,1.331-.714,13.312,13.312,0,0,1-.627-1.345,1.258,1.258,0,0,0-2.057-.422L23.871,270a17.913,17.913,0,0,1-.918-2.983,3.782,3.782,0,0,0-3.668-2.987H17.7a1.259,1.259,0,0,0-1.255,1.371,24.222,24.222,0,0,0,21.94,21.939q.056,0,.111,0a1.259,1.259,0,0,0,1.26-1.259V284.5A3.782,3.782,0,0,0,36.769,280.832Z" transform="translate(-14.785 -237.441)"/>
          <path id="Trazado_996169" data-name="Trazado 996169" d="M4.4,424.615a4.4,4.4,0,1,0,4.4,4.4A4.4,4.4,0,0,0,4.4,424.615Zm0,7.289a2.889,2.889,0,1,1,2.889-2.889A2.893,2.893,0,0,1,4.4,431.9Z" transform="translate(0 -381.855)"/>
          <path id="Trazado_996170" data-name="Trazado 996170" d="M160.926,189.423a.755.755,0,0,0,1.06.069l3.555-3.088a6.585,6.585,0,1,0-8.851-9.749,6.585,6.585,0,1,0-8.851,9.749l7.777,6.754a1.646,1.646,0,0,0,2.149,0l1.49-1.294a.776.776,0,0,0,.114-1.068.755.755,0,0,0-1.081-.093l-1.514,1.315a.129.129,0,0,1-.168,0l-7.777-6.754a5.075,5.075,0,1,1,6.99-7.344,1.2,1.2,0,0,0,1.741,0,5.075,5.075,0,1,1,6.99,7.344l-3.555,3.088A.756.756,0,0,0,160.926,189.423Z" transform="translate(-130.91 -157.238)"/>
        </g>
      </g>
    </g>
  </g>
</svg>
