<svg xmlns="http://www.w3.org/2000/svg" width="70" height="70" viewBox="0 0 70 70">
  <g id="Grupo_1176713" data-name="Grupo 1176713" transform="translate(-269 -958.087)">
    <circle id="Elipse_5614" data-name="Elipse 5614" cx="35" cy="35" r="35" transform="translate(269 958.087)" fill="#fff"/>
    <g id="leadership" transform="translate(282.388 971.197)">
      <path id="Trazado_1010938" data-name="Trazado 1010938" d="M31.6,44.117l-1.925-.642a.643.643,0,0,0-.411,0l-.211-1.264a4.6,4.6,0,0,0,2.331-3.369H32.1a1.313,1.313,0,0,0,1.313-1.313v-.656a1.313,1.313,0,0,0-1.066-1.288l.874-.874a.656.656,0,0,0,.192-.464v-.656A4.6,4.6,0,0,0,28.816,29H24.877a4.6,4.6,0,0,0-4.595,4.595v.656a.656.656,0,0,0,.192.464l.874.874a1.313,1.313,0,0,0-1.066,1.288v.656a1.313,1.313,0,0,0,1.313,1.313H22.3a4.6,4.6,0,0,0,2.331,3.369l-.211,1.264a.647.647,0,0,0-.411,0l-1.925.642A5.908,5.908,0,0,0,17,50.006a.656.656,0,0,0,.656.656h18.38a.656.656,0,0,0,.656-.656A5.908,5.908,0,0,0,31.6,44.117Zm.493-6.583h-.656v-.656H32.1Zm-10.5-3.939a3.286,3.286,0,0,1,3.282-3.282h3.939A3.286,3.286,0,0,1,32.1,33.595v.385l-.656.656v-.385a.656.656,0,0,0-.363-.591l-2.626-1.313A.656.656,0,0,0,28,32.3l-5.251,1.313a.656.656,0,0,0-.5.64v.385l-.656-.656Zm0,3.282h.656v.656h-.656Zm1.969,1.313V34.764l4.519-1.13,2.045,1.023V38.19a3.282,3.282,0,1,1-6.564,0Zm3.282,4.595a4.565,4.565,0,0,0,.958-.1l.308,1.847L26.846,45.8,25.58,44.529l.308-1.847a4.564,4.564,0,0,0,.958.1Zm-2.8,2.064,2.34,2.339a.656.656,0,0,0,.928,0l2.34-2.339.793.263L27.8,49.349H25.9L23.25,45.113Zm-2.107.639,2.416,3.862H18.358a4.582,4.582,0,0,1,3.578-3.862Zm7.405,3.862,2.414-3.862a4.582,4.582,0,0,1,3.58,3.862Z" transform="translate(-5.234 -9.175)" fill="#405425"/>
      <path id="Trazado_1010939" data-name="Trazado 1010939" d="M51.626,41a2.626,2.626,0,1,0,2.626,2.626A2.626,2.626,0,0,0,51.626,41Zm0,3.939a1.313,1.313,0,1,1,1.313-1.313A1.313,1.313,0,0,1,51.626,44.939Z" transform="translate(-16.228 -13.298)" fill="#405425"/>
      <path id="Trazado_1010940" data-name="Trazado 1010940" d="M55.317,39.958l-.44-.112.236-.387a.656.656,0,0,0-.1-.8L53.157,36.8a.666.666,0,0,0-.8-.1l-.387.236-.112-.44a.656.656,0,0,0-.637-.5H48.595a.656.656,0,0,0-.637.5l-.112.44-.387-.236a.666.666,0,0,0-.8.1L44.8,38.659a.656.656,0,0,0-.1.8l.236.387-.44.112a.656.656,0,0,0-.5.637v2.626a.656.656,0,0,0,.5.637l.44.112-.236.387a.656.656,0,0,0,.1.8l1.858,1.858a.666.666,0,0,0,.8.1l.387-.236.112.44a.656.656,0,0,0,.637.5h2.626a.656.656,0,0,0,.637-.5l.112-.44.387.236a.666.666,0,0,0,.8-.1l1.858-1.858a.656.656,0,0,0,.1-.8l-.236-.387.44-.112a.656.656,0,0,0,.5-.637V40.595A.656.656,0,0,0,55.317,39.958Zm-.814,2.75-.8.2a.661.661,0,0,0-.446.387.649.649,0,0,0,.046.591l.42.709-1.129,1.129-.709-.427a.669.669,0,0,0-.591-.039.661.661,0,0,0-.387.446l-.2.8h-1.6l-.2-.8a.661.661,0,0,0-.387-.446.669.669,0,0,0-.591.039l-.709.427-1.129-1.129.42-.709a.649.649,0,0,0,.046-.591.661.661,0,0,0-.446-.387l-.8-.2v-1.6l.8-.2a.661.661,0,0,0,.446-.387.649.649,0,0,0-.046-.591l-.42-.709,1.129-1.129.709.42a.649.649,0,0,0,.591.046.661.661,0,0,0,.387-.446l.2-.8h1.6l.2.8a.661.661,0,0,0,.387.446.649.649,0,0,0,.591-.046l.709-.42,1.129,1.129-.42.709a.649.649,0,0,0-.046.591.661.661,0,0,0,.446.387l.8.2Z" transform="translate(-14.51 -11.58)" fill="#405425"/>
      <path id="Trazado_1010941" data-name="Trazado 1010941" d="M9.626,41a2.626,2.626,0,1,0,2.626,2.626A2.626,2.626,0,0,0,9.626,41Zm0,3.939a1.313,1.313,0,1,1,1.313-1.313A1.313,1.313,0,0,1,9.626,44.939Z" transform="translate(-1.798 -13.298)" fill="#405425"/>
      <path id="Trazado_1010942" data-name="Trazado 1010942" d="M13.317,39.958l-.44-.112.236-.387a.656.656,0,0,0-.1-.8L11.157,36.8a.666.666,0,0,0-.8-.1l-.387.236-.112-.44a.656.656,0,0,0-.637-.5H6.595a.656.656,0,0,0-.637.5l-.112.44L5.459,36.7a.666.666,0,0,0-.8.1L2.8,38.659a.656.656,0,0,0-.1.8l.236.387-.44.112a.656.656,0,0,0-.5.637v2.626a.656.656,0,0,0,.5.637l.44.112-.236.387a.656.656,0,0,0,.1.8l1.858,1.858a.666.666,0,0,0,.8.1l.387-.236.112.44a.656.656,0,0,0,.637.5H9.221a.656.656,0,0,0,.637-.5l.112-.44.387.236a.666.666,0,0,0,.8-.1l1.858-1.858a.656.656,0,0,0,.1-.8l-.236-.387.44-.112a.656.656,0,0,0,.5-.637V40.595A.656.656,0,0,0,13.317,39.958Zm-.814,2.75-.8.2a.661.661,0,0,0-.446.387.649.649,0,0,0,.046.591l.42.709-1.129,1.129-.709-.427a.669.669,0,0,0-.591-.039.661.661,0,0,0-.387.446l-.2.8h-1.6l-.2-.8a.661.661,0,0,0-.387-.446.669.669,0,0,0-.591.039l-.709.427L4.094,44.593l.42-.709a.649.649,0,0,0,.046-.591.661.661,0,0,0-.446-.387l-.8-.2v-1.6l.8-.2a.661.661,0,0,0,.446-.387.649.649,0,0,0-.046-.591l-.42-.709,1.129-1.129.709.42a.649.649,0,0,0,.591.046.661.661,0,0,0,.387-.446l.2-.8h1.6l.2.8a.661.661,0,0,0,.387.446.649.649,0,0,0,.591-.046l.709-.42,1.129,1.129-.42.709a.649.649,0,0,0-.046.591.661.661,0,0,0,.446.387l.8.2Z" transform="translate(-0.08 -11.58)" fill="#405425"/>
      <path id="Trazado_1010943" data-name="Trazado 1010943" d="M25.4,10.325l-1.283,3.95a.656.656,0,0,0,1.01.734l3.358-2.441,3.36,2.441a.656.656,0,0,0,1.01-.734l-1.285-3.95,3.36-2.441A.656.656,0,0,0,34.545,6.7H30.392l-1.283-3.95a.656.656,0,0,0-1.247,0L26.577,6.7H22.423a.656.656,0,0,0-.386,1.187Zm1.654-2.316a.656.656,0,0,0,.624-.454l.807-2.482.807,2.482a.656.656,0,0,0,.624.454h2.609L30.413,9.543a.656.656,0,0,0-.238.734l.8,2.482L28.87,11.226a.656.656,0,0,0-.772,0L25.99,12.759l.807-2.482a.656.656,0,0,0-.238-.734L24.444,8.009Z" transform="translate(-6.871)" fill="#405425"/>
      <path id="Trazado_1010944" data-name="Trazado 1010944" d="M41.8,18.15a.656.656,0,0,0,.239.734L45.4,21.325l-1.283,3.95a.656.656,0,0,0,1.01.734l3.358-2.441,3.36,2.441a.656.656,0,0,0,1.01-.734l-1.285-3.95,3.36-2.441a.656.656,0,0,0-.385-1.187H50.391l-1.283-3.95a.656.656,0,0,0-1.247,0L46.576,17.7H42.423a.656.656,0,0,0-.625.454Zm5.255.859a.656.656,0,0,0,.624-.454l.807-2.482.807,2.482a.656.656,0,0,0,.624.454h2.609l-2.112,1.534a.656.656,0,0,0-.238.734l.8,2.482L48.87,22.226a.656.656,0,0,0-.772,0l-2.108,1.533.807-2.482a.656.656,0,0,0-.238-.734l-2.114-1.534Z" transform="translate(-13.743 -3.779)" fill="#405425"/>
      <path id="Trazado_1010945" data-name="Trazado 1010945" d="M5.4,21.325l-1.285,3.95a.656.656,0,0,0,1.01.734l3.36-2.441,3.36,2.441a.656.656,0,0,0,1.01-.734l-1.285-3.95,3.36-2.441a.656.656,0,0,0-.385-1.187H10.392l-1.283-3.95a.656.656,0,0,0-1.247,0L6.577,17.7H2.423a.656.656,0,0,0-.386,1.187Zm1.654-2.316a.656.656,0,0,0,.624-.454l.807-2.482.807,2.482a.656.656,0,0,0,.624.454h2.609l-2.112,1.534a.656.656,0,0,0-.238.734l.8,2.482L8.87,22.226a.656.656,0,0,0-.772,0L5.99,23.759,6.8,21.277a.656.656,0,0,0-.238-.734L4.444,19.009Z" transform="translate(0 -3.779)" fill="#405425"/>
      <path id="Trazado_1010946" data-name="Trazado 1010946" d="M11.313,56H10v2.626a.656.656,0,0,0,.656.656h2.626V57.969H11.313Z" transform="translate(-2.829 -18.452)" fill="#405425"/>
      <path id="Trazado_1010947" data-name="Trazado 1010947" d="M50.969,57.969H49v1.313h2.626a.656.656,0,0,0,.656-.656V56H50.969Z" transform="translate(-16.228 -18.452)" fill="#405425"/>
    </g>
  </g>
</svg>
