<svg xmlns="http://www.w3.org/2000/svg" width="73" height="73" viewBox="0 0 73 73">
  <g id="Grupo_1180803" data-name="Grupo 1180803" transform="translate(-717.396 -1574.227)">
    <rect id="Rectángulo_454573" data-name="Rectángulo 454573" width="73" height="73" rx="5" transform="translate(717.396 1574.227)" fill="#c8bf57"/>
    <g id="Grupo_1180819" data-name="Grupo 1180819" transform="translate(728.268 1585.162)">
      <g id="Grupo_1180817" data-name="Grupo 1180817" transform="translate(0.825 0.825)">
        <g id="Grupo_1180804" data-name="Grupo 1180804" transform="translate(29.688 28.038)">
          <path id="Trazado_1010877" data-name="Trazado 1010877" d="M43.6,43.247a3.3,3.3,0,0,0-3.3,3.3h-.825a2.468,2.468,0,0,0-1.748.726,7.421,7.421,0,0,1,6.7-10.622h2.8a9.791,9.791,0,0,0,5.154-1.468c.1-.058.2-.115.3-.181l1.5,1.5a8.96,8.96,0,0,1,1.592,10.506,2.487,2.487,0,0,0-1.443-.462h-.825A1.654,1.654,0,0,0,51.844,44.9h-6.6A1.654,1.654,0,0,1,43.6,43.247Z" transform="translate(-37 -35)" fill="#b27946"/>
        </g>
        <g id="Grupo_1180805" data-name="Grupo 1180805" transform="translate(0 0)">
          <path id="Trazado_1010878" data-name="Trazado 1010878" d="M10.014,8.908,7.4,9.057a3.3,3.3,0,0,0-3.1,3.3v.19H3.474a2.469,2.469,0,0,0-1.377.421A7.94,7.94,0,0,1,8.933,1h2.4a5.972,5.972,0,0,1,5.336,3.3l.1.016A5.012,5.012,0,0,1,20.792,9.23a8.305,8.305,0,0,1-.948,3.843,2.461,2.461,0,0,0-1.526-.528h-.825V10.9a3.693,3.693,0,0,1-2.045-.627A3.613,3.613,0,0,1,14.2,8.818h-.008v.231a2.98,2.98,0,0,1-1.649,2.672l-.272-.825a3,3,0,0,0-2.26-1.987Z" transform="translate(-1 -1)" fill="#b27946"/>
        </g>
        <g id="Grupo_1180806" data-name="Grupo 1180806" transform="translate(29.688)">
          <path id="Trazado_1010879" data-name="Trazado 1010879" d="M46.055,9.214l-.041.033H43.6a3.3,3.3,0,0,0-3.3,3.3v4.123a5.644,5.644,0,0,0,.561,2.474l-1.253-.264A3.31,3.31,0,0,1,37,15.646V10.9a9.9,9.9,0,1,1,19.792,0v4.75a3.31,3.31,0,0,1-2.606,3.233l-1.253.264a5.644,5.644,0,0,0,.561-2.474v-3.3A2.471,2.471,0,0,0,51.019,10.9H49.37a4.088,4.088,0,0,1-3.315-1.682Z" transform="translate(-37 -1)" fill="#656d78"/>
        </g>
        <g id="Grupo_1180807" data-name="Grupo 1180807" transform="translate(0 28.038)">
          <path id="Trazado_1010880" data-name="Trazado 1010880" d="M5.956,37.507A9.9,9.9,0,0,1,22.441,44.9V45.96a12.973,12.973,0,0,0,1.369,5.8,2.748,2.748,0,0,1,.28,1.188,2.671,2.671,0,0,1-2.672,2.672H16.347a5.756,5.756,0,0,0,2.8-4.948V46.545A1.654,1.654,0,0,0,17.493,44.9H13.37l-1.649-2.474L10.071,44.9H7.6a1.654,1.654,0,0,0-1.649,1.649v4.123a5.756,5.756,0,0,0,2.8,4.948H3.672A2.675,2.675,0,0,1,1,52.945a2.7,2.7,0,0,1,.28-1.188,12.973,12.973,0,0,0,1.369-5.8V44.9a9.865,9.865,0,0,1,2.895-7C5.676,37.763,5.816,37.631,5.956,37.507Z" transform="translate(-1 -35)" fill="#fcd770"/>
        </g>
        <g id="Grupo_1180808" data-name="Grupo 1180808" transform="translate(4.948 35.46)">
          <path id="Trazado_1010881" data-name="Trazado 1010881" d="M20.195,48.123v4.123a5.768,5.768,0,0,1-5.773,5.773H12.773A5.768,5.768,0,0,1,7,52.247V48.123a1.654,1.654,0,0,1,1.649-1.649h2.474L12.773,44l1.649,2.474h4.123A1.654,1.654,0,0,1,20.195,48.123Z" transform="translate(-7 -44)" fill="#f0d0b4"/>
        </g>
        <g id="Grupo_1180809" data-name="Grupo 1180809" transform="translate(46.115 39.584)">
          <path id="Trazado_1010882" data-name="Trazado 1010882" d="M59.559,53.222a2.468,2.468,0,0,1-1.748.726h-.825l-.066-.008a4.424,4.424,0,0,0,.066-.816V49h.825a2.472,2.472,0,0,1,1.748,4.222Z" transform="translate(-56.92 -49)" fill="#f0d0b4"/>
        </g>
        <g id="Grupo_1180810" data-name="Grupo 1180810" transform="translate(29.688 39.584)">
          <path id="Trazado_1010883" data-name="Trazado 1010883" d="M40.3,53.123a4.424,4.424,0,0,0,.066.816l-.066.008h-.825a2.432,2.432,0,0,1-.981-.206,2.338,2.338,0,0,1-.767-.52A2.474,2.474,0,0,1,39.474,49H40.3Z" transform="translate(-37 -49)" fill="#f0d0b4"/>
        </g>
        <g id="Grupo_1180811" data-name="Grupo 1180811" transform="translate(32.986 36.285)">
          <path id="Trazado_1010884" data-name="Trazado 1010884" d="M54.195,48.3v4.123a4.424,4.424,0,0,1-.066.816,5.756,5.756,0,0,1-5.707,4.956H46.773a5.756,5.756,0,0,1-5.707-4.956A4.425,4.425,0,0,1,41,52.422V48.3A3.3,3.3,0,0,1,44.3,45a1.654,1.654,0,0,0,1.649,1.649h6.6A1.654,1.654,0,0,1,54.195,48.3Z" transform="translate(-41 -45)" fill="#f0d0b4"/>
        </g>
        <g id="Grupo_1180812" data-name="Grupo 1180812" transform="translate(32.986 8.214)">
          <path id="Trazado_1010885" data-name="Trazado 1010885" d="M54.195,15.116v3.3a5.644,5.644,0,0,1-.561,2.474,5.178,5.178,0,0,1-.932,1.385,5.681,5.681,0,0,1-4.28,1.913H46.773a5.748,5.748,0,0,1-5.212-3.3A5.644,5.644,0,0,1,41,18.415V14.292a3.3,3.3,0,0,1,3.3-3.3h2.416l.041-.033a4.088,4.088,0,0,0,3.315,1.682h1.649A2.471,2.471,0,0,1,54.195,15.116Z" transform="translate(-41 -10.96)" fill="#f0d0b4"/>
        </g>
        <g id="Grupo_1180813" data-name="Grupo 1180813" transform="translate(16.427 11.545)">
          <path id="Trazado_1010886" data-name="Trazado 1010886" d="M23.559,19.222a2.468,2.468,0,0,1-1.748.726h-.825l-.066-.008a4.424,4.424,0,0,0,.066-.816V15h.825a2.472,2.472,0,0,1,1.748,4.222Z" transform="translate(-20.92 -15)" fill="#f0d0b4"/>
        </g>
        <g id="Grupo_1180814" data-name="Grupo 1180814" transform="translate(3.299 7.818)">
          <path id="Trazado_1010887" data-name="Trazado 1010887" d="M16.149,11.931a3.693,3.693,0,0,0,2.045.627v5.773a4.424,4.424,0,0,1-.066.816A5.756,5.756,0,0,1,12.422,24.1H10.773a5.681,5.681,0,0,1-4.28-1.913,5.566,5.566,0,0,1-1.427-3.043A4.424,4.424,0,0,1,5,18.331V14.018a3.3,3.3,0,0,1,3.1-3.3l2.614-.148a3,3,0,0,1,2.26,1.987l.272.825A2.98,2.98,0,0,0,14.9,10.711V10.48H14.9a3.613,3.613,0,0,0,1.245,1.451Z" transform="translate(-5 -10.48)" fill="#f0d0b4"/>
        </g>
        <g id="Grupo_1180815" data-name="Grupo 1180815" transform="translate(0 11.545)">
          <path id="Trazado_1010888" data-name="Trazado 1010888" d="M4.3,19.123a4.424,4.424,0,0,0,.066.816l-.066.008H3.474a2.474,2.474,0,0,1,0-4.948H4.3Z" transform="translate(-1 -15)" fill="#f0d0b4"/>
        </g>
        <g id="Grupo_1180816" data-name="Grupo 1180816" transform="translate(16.493 21.441)">
          <path id="Trazado_1010889" data-name="Trazado 1010889" d="M21.462,31.791,21.041,29.7A2.711,2.711,0,0,1,21,29.251,2.249,2.249,0,0,1,23.251,27H35.242a2.249,2.249,0,0,1,2.251,2.251,2.533,2.533,0,0,1-.041.437l-.421,2.1a2.259,2.259,0,0,1-2.21,1.814h-3.2l-2.045,2.837a1.093,1.093,0,0,1-1.979-.635V33.6H23.672a2.26,2.26,0,0,1-2.21-1.806Z" transform="translate(-21 -27)" fill="#e6e9ed"/>
        </g>
      </g>
      <g id="Grupo_1180818" data-name="Grupo 1180818" transform="translate(0 0)">
        <path id="Trazado_1010890" data-name="Trazado 1010890" d="M15.812,21.325,14.385,20.5a2.477,2.477,0,0,1-4.288,0l-1.427.825a4.123,4.123,0,0,0,7.142,0Z" transform="translate(-1.52 -3.594)"/>
        <path id="Trazado_1010891" data-name="Trazado 1010891" d="M48.241,55.737A2.487,2.487,0,0,1,46.1,54.5l-1.427.826a4.124,4.124,0,0,0,7.142,0L50.385,54.5a2.487,2.487,0,0,1-2.144,1.238Z" transform="translate(-7.832 -9.556)"/>
        <path id="Trazado_1010892" data-name="Trazado 1010892" d="M48.241,21.737A2.486,2.486,0,0,1,46.1,20.5l-1.427.825a4.123,4.123,0,0,0,7.142,0L50.385,20.5a2.486,2.486,0,0,1-2.144,1.237Z" transform="translate(-7.832 -3.594)"/>
        <path id="Trazado_1010893" data-name="Trazado 1010893" d="M14.241,55.737A2.487,2.487,0,0,1,12.1,54.5l-1.427.826a4.124,4.124,0,0,0,7.142,0L16.385,54.5A2.487,2.487,0,0,1,14.241,55.737Z" transform="translate(-1.871 -9.556)"/>
        <path id="Trazado_1010894" data-name="Trazado 1010894" d="M37.663,31.781l.42-2.1A3.077,3.077,0,0,0,35.067,26H23.075a3.077,3.077,0,0,0-3.016,3.679l.42,2.1a3.083,3.083,0,0,0,3.016,2.472h3.1V35.63a1.916,1.916,0,0,0,3.47,1.121l1.8-2.5h2.782A3.084,3.084,0,0,0,37.663,31.781Zm-6.642.825L28.73,35.785a.276.276,0,0,1-.483-.155V32.6H23.495a1.43,1.43,0,0,1-1.4-1.147l-.42-2.095a1.443,1.443,0,0,1-.027-.28,1.427,1.427,0,0,1,1.426-1.426H35.067a1.428,1.428,0,0,1,1.427,1.427,1.447,1.447,0,0,1-.027.28l-.42,2.1a1.43,1.43,0,0,1-1.4,1.148Z" transform="translate(-3.507 -4.559)"/>
        <path id="Trazado_1010895" data-name="Trazado 1010895" d="M32,30h1.649v1.649H32Z" transform="translate(-5.611 -5.26)"/>
        <path id="Trazado_1010896" data-name="Trazado 1010896" d="M36,30h1.649v1.649H36Z" transform="translate(-6.312 -5.26)"/>
        <path id="Trazado_1010897" data-name="Trazado 1010897" d="M24,30h1.649v1.649H24Z" transform="translate(-4.208 -5.26)"/>
        <path id="Trazado_1010898" data-name="Trazado 1010898" d="M28,30h1.649v1.649H28Z" transform="translate(-4.91 -5.26)"/>
        <path id="Trazado_1010899" data-name="Trazado 1010899" d="M47.867,19.507a4.144,4.144,0,0,0,3.262-4.033V10.721A10.711,10.711,0,0,0,31.392,4.943a21.641,21.641,0,0,0-11.671,0A5.809,5.809,0,0,0,17.041,3.4,6.752,6.752,0,0,0,11.156,0H8.761A8.727,8.727,0,0,0,.9,12.591a3.289,3.289,0,0,0,2.4,5.552h.217a6.58,6.58,0,0,0,1.2,2.427,21.158,21.158,0,0,0,.148,10.545,10.682,10.682,0,0,0-3.218,7.645v1.065A12.181,12.181,0,0,1,.369,45.248,3.494,3.494,0,0,0,3.493,50.3H8.358a6.549,6.549,0,0,0,3.186.825h1.649A6.547,6.547,0,0,0,16.38,50.3h4.865a3.489,3.489,0,0,0,3.476-3.318c.289.012.57.02.844.02a21.391,21.391,0,0,0,6.426-1,3.246,3.246,0,0,0,1,.171H33.2a6.6,6.6,0,0,0,6.38,4.948h1.649a6.6,6.6,0,0,0,6.38-4.948h.217a3.285,3.285,0,0,0,2.434-5.506,9.712,9.712,0,0,0-2-10.9l-1.458-1.458a20.4,20.4,0,0,0-.4-7.752A6.646,6.646,0,0,0,47,19.692Zm-6.634,1.935H39.584a4.953,4.953,0,0,1-4.948-4.948V12.37A2.477,2.477,0,0,1,37.11,9.9H39.2a4.937,4.937,0,0,0,3.685,1.649h1.649a1.651,1.651,0,0,1,1.649,1.649v3.3A4.953,4.953,0,0,1,41.233,21.441ZM40.408,1.649a9.082,9.082,0,0,1,9.071,9.071v4.754a2.481,2.481,0,0,1-1.789,2.368,6.614,6.614,0,0,0,.139-1.349v-3.3a3.3,3.3,0,0,0-3.3-3.3H42.882a3.3,3.3,0,0,1-3.3-3.3H37.934a4.925,4.925,0,0,0,.283,1.649H37.11a4.128,4.128,0,0,0-4.123,4.123v4.123a6.614,6.614,0,0,0,.139,1.349,2.483,2.483,0,0,1-1.789-2.368V10.721A9.082,9.082,0,0,1,40.408,1.649ZM18.143,13.195a1.649,1.649,0,0,1,0,3.3ZM1.649,14.844A1.651,1.651,0,0,1,3.3,13.195v3.3A1.651,1.651,0,0,1,1.649,14.844Zm1.711-3.3H3.3a3.259,3.259,0,0,0-.995.17A7.09,7.09,0,0,1,8.761,1.649h2.395a5.113,5.113,0,0,1,4.6,2.843l.181.361.493.1a4.2,4.2,0,0,1,3.363,4.1,7.443,7.443,0,0,1-.516,2.7,3.258,3.258,0,0,0-1.133-.214V9.9h-.825A2.817,2.817,0,0,1,14.69,8.117L13.96,6.291,12.428,6.9l.731,1.826c.011.026.025.049.035.074v.073a2.154,2.154,0,0,1-.428,1.293A3.839,3.839,0,0,0,10,7.921,2.185,2.185,0,0,1,8.247,5.785V4.123H6.6V5.785a3.8,3.8,0,0,0,.761,2.267l-.183.011A4.119,4.119,0,0,0,3.36,11.545Zm1.587,4.948V12.179a2.478,2.478,0,0,1,2.326-2.47l2.468-.148a2.181,2.181,0,0,1,1.573,1.424l.574,1.723.85-.426a3.789,3.789,0,0,0,1.728-1.759,4.44,4.44,0,0,0,2.027.946v5.024a4.953,4.953,0,0,1-4.948,4.948H9.9A4.953,4.953,0,0,1,4.948,16.493Zm6.6,32.986A4.953,4.953,0,0,1,6.6,44.532V40.408a.825.825,0,0,1,.825-.825H9.9a.826.826,0,0,0,.686-.367l.963-1.445.963,1.445a.826.826,0,0,0,.686.367h4.123a.825.825,0,0,1,.825.825v4.123a4.953,4.953,0,0,1-4.948,4.948Zm9.7-.825h-2.91a6.561,6.561,0,0,0,1.456-4.123V40.408a2.477,2.477,0,0,0-2.474-2.474H13.636l-1.4-2.107a.855.855,0,0,0-1.372,0l-1.4,2.107H7.422a2.477,2.477,0,0,0-2.474,2.474v4.123A6.561,6.561,0,0,0,6.4,48.655H3.493a1.844,1.844,0,0,1-1.649-2.669A13.844,13.844,0,0,0,3.3,39.824V38.759a9.071,9.071,0,0,1,18.143,0v1.065A13.844,13.844,0,0,0,22.9,45.986a1.844,1.844,0,0,1-1.649,2.669ZM24.4,45.314c-.01-.021-.017-.045-.028-.066a12.181,12.181,0,0,1-1.281-5.424V38.759A10.708,10.708,0,0,0,6.272,29.953a19.655,19.655,0,0,1-.155-8.061A6.552,6.552,0,0,0,9.9,23.09h1.649a6.6,6.6,0,0,0,6.38-4.948h.217a3.3,3.3,0,0,0,3.3-3.3,3.266,3.266,0,0,0-.794-2.122,9.08,9.08,0,0,0,.794-3.668,5.792,5.792,0,0,0-.668-2.684,20,20,0,0,1,9.816.063,10.647,10.647,0,0,0-.9,4.288v4.754a4.145,4.145,0,0,0,3.262,4.033l.869.186a6.6,6.6,0,0,0,5.765,3.4h1.649a6.552,6.552,0,0,0,3.779-1.2,19.231,19.231,0,0,1,.1,6.655,8.966,8.966,0,0,1-4.381,1.141h-2.8A8.218,8.218,0,0,0,30.29,40.993,3.264,3.264,0,0,0,30.3,44.78a19.721,19.721,0,0,1-4.732.576c-.369,0-.76-.017-1.165-.042Zm6.938-2.432a1.651,1.651,0,0,1,1.649-1.649v3.3A1.651,1.651,0,0,1,31.337,42.882Zm14.844,1.649a4.953,4.953,0,0,1-4.948,4.948H39.584a4.953,4.953,0,0,1-4.948-4.948V40.408a2.478,2.478,0,0,1,1.823-2.387,2.478,2.478,0,0,0,2.3,1.563h6.6a.825.825,0,0,1,.825.825Zm1.649,0v-3.3a1.649,1.649,0,1,1,0,3.3ZM49.48,36.7a8.168,8.168,0,0,1-.612,3.069,3.257,3.257,0,0,0-1.037-.183h-.152a2.471,2.471,0,0,0-2.322-1.649h-6.6a.825.825,0,1,1,0-1.649h.825V34.636h-.825a2.479,2.479,0,0,0-2.354,1.71,4.132,4.132,0,0,0-3.33,3.238h-.089a3.27,3.27,0,0,0-1.347.294,6.57,6.57,0,0,1,6.295-8.541h2.8a10.612,10.612,0,0,0,5.326-1.428L47.1,30.946A8.082,8.082,0,0,1,49.48,36.7Z" transform="translate(0 0)"/>
      </g>
    </g>
  </g>
</svg>
