<svg xmlns="http://www.w3.org/2000/svg" width="70" height="70" viewBox="0 0 70 70">
  <g id="Grupo_1176711" data-name="Grupo 1176711" transform="translate(-269 -958.087)">
    <circle id="Elipse_5614" data-name="Elipse 5614" cx="35" cy="35" r="35" transform="translate(269 958.087)" fill="#fff"/>
    <path id="Trazado_1010934" data-name="Trazado 1010934" d="M108.753,53.852a.808.808,0,1,1,0-1.615h1.88a.808.808,0,1,1,0,1.615Zm1.189-8.265a.81.81,0,0,1,1.1-.295l1.628.94a.808.808,0,0,1-.4,1.507.8.8,0,0,1-.4-.108l-1.629-.94a.81.81,0,0,1-.3-1.1Zm5.164-4.354a.808.808,0,1,1,1.4-.808l.939,1.629a.808.808,0,1,1-1.4.807Zm13.165.821.941-1.629a.808.808,0,0,1,1.4.808l-.94,1.628a.808.808,0,0,1-1.4-.807Zm-6.221-1.234V38.939a.808.808,0,1,1,1.616,0V40.82a.808.808,0,1,1-1.616,0ZM132.692,76.6a.81.81,0,0,0-.163,1l2.493,4.422-22.715,6.944,8.515-8.78a0,0,0,0,0,0,0l4.636-4.78,3.786-1.72.007,0,12.388-5.63a.3.3,0,0,1,.243.012.462.462,0,0,1,.151.1Zm-4.634-4.155-.374-3.359-3.314-.715-2.434,8.343,2.471-2.549a.815.815,0,0,1,.246-.174Zm-10.324-3.719-3.121,15.539,4.914-5.068,3.5-12a.808.808,0,0,1,.945-.564l4.618,1a.809.809,0,0,1,.632.7l.379,3.411,3.074-1.4-.335-4.516a1.715,1.715,0,0,0-1-1.47l-.02-.01-2.331,2.332a.809.809,0,0,1-1.332-.3L126.21,62.35a8.478,8.478,0,0,1-3.15.583c-.083,0-.167,0-.251-.005a2.985,2.985,0,0,1,.135.389,2.85,2.85,0,0,1-1.89,3.461c-.047.284-.1.568-.146.854a.806.806,0,0,1-.658.657Zm-1.421-3.689.855.6a.788.788,0,0,0,.209.1l.042.028,1.334.769a2.822,2.822,0,0,0,.624.266l-4.107.708Zm-2.137-3.581a1.484,1.484,0,0,1-.489-1.769l2.859-6.989a2.437,2.437,0,0,1,1.668-1.475l1.725-.47a4.293,4.293,0,0,0,.839.287,64.022,64.022,0,0,1-.474,9.6l-2.016-1.4,1.213-3.978a.808.808,0,1,0-1.545-.471l-1.385,4.542a.808.808,0,0,0,.312.9l2,1.385-1.331,2.306-1.117-.781Zm7.553-17.233a2.654,2.654,0,0,1,0,5.309c-.045,0-.09,0-.135,0h0a2.654,2.654,0,0,1,.139-5.305Zm.131,17.018A66.8,66.8,0,0,0,122.4,51.09,4.2,4.2,0,0,0,123.4,50.8l2.406,9.966A7.309,7.309,0,0,1,121.86,61.237ZM120.5,65.255a1.232,1.232,0,0,1-.944-.121l-.633-.366,1.244-2.156.354.2.007,0,.273.157a1.246,1.246,0,0,1,.455,1.7A1.231,1.231,0,0,1,120.5,65.255ZM133.425,48.1l.779,2.256-5.979,1.509a.807.807,0,0,0-.589.969c.01.037.906,3.834,2.654,10.266l-1.538,1.538L127.7,61.72l-2.875-11.912c.054-.057.108-.116.158-.176Zm6.208-1.428a.268.268,0,0,1,.291.076,2.88,2.88,0,0,1-.852.669l-.855.428a.808.808,0,0,0-.442.639,1.278,1.278,0,0,1-.91,1.192c-.057.025-.366.125-1.236-.139l-.612-1.774Zm3.794,20.649a2.014,2.014,0,0,0-2.453-.745l-6.726,3.057-.291-3.922a3.316,3.316,0,0,0-1.908-2.805l-.159-.076c-1.309-4.813-2.145-8.164-2.494-9.591l6.057-1.528a.809.809,0,0,0,.514-.4c.005-.011.01-.023.015-.033a3.855,3.855,0,0,0,.615.052,2.25,2.25,0,0,0,.925-.178,2.846,2.846,0,0,0,1.786-2.046l.488-.243a4.677,4.677,0,0,0,1.177-.866,1.535,1.535,0,0,0,.487-1.833,1.913,1.913,0,0,0-2.2-1.064L133.8,46.387l-7.906,1.437a4.27,4.27,0,1,0-7.523,1.679l-.579.158a4.048,4.048,0,0,0-2.737,2.422l-2.859,6.989a3.079,3.079,0,0,0,1.014,3.673l1.762,1.321-1.762,4.175a.807.807,0,0,0,.745,1.121.767.767,0,0,0,.137-.012l1.939-.334L112.534,86.4l-3.57,3.682a.807.807,0,0,0,.816,1.335l26.675-8.155a.809.809,0,0,0,.468-1.17l-2.669-4.735,8.945-8.078a1.478,1.478,0,0,0,.226-1.966Z" transform="translate(178.178 928.294)" fill="#405425" fill-rule="evenodd"/>
  </g>
</svg>
