<svg xmlns="http://www.w3.org/2000/svg" width="70" height="70" viewBox="0 0 70 70">
  <g id="Grupo_1101085" data-name="Grupo 1101085" transform="translate(-269 -958.087)">
    <circle id="Elipse_5614" data-name="Elipse 5614" cx="35" cy="35" r="35" transform="translate(269 958.087)" fill="#fff"/>
    <path id="Trazado_1010933" data-name="Trazado 1010933" d="M64.761,27.759A4.9,4.9,0,0,1,63.222,29.3a4.9,4.9,0,0,1,1.539,1.539A4.9,4.9,0,0,1,66.3,29.3,4.9,4.9,0,0,1,64.761,27.759ZM52.734,48.826V37.117a.746.746,0,1,1,1.492,0v10.8A4,4,0,0,0,56.8,43.851V37.117a5.768,5.768,0,0,0-1.449-4.231,5.745,5.745,0,0,0-4.091-1.425,8.217,8.217,0,0,1-7.621,0c-3.657.065-5.54,1.992-5.54,5.655v6.734a4,4,0,0,0,2.571,4.067v-10.8a.746.746,0,1,1,1.492,0V60.893H46.7V48.826a.746.746,0,1,1,1.492,0V60.893h4.542ZM51.065,29.969c4.671,0,7.224,2.663,7.224,7.147v6.734c0,2.656-1.439,5.02-4.062,5.607V61.639a.746.746,0,0,1-.746.746H41.413a.746.746,0,0,1-.746-.746V49.458c-2.624-.588-4.062-2.952-4.062-5.607V37.117c0-4.485,2.552-7.149,7.224-7.149a.743.743,0,0,1,.442.145,6.727,6.727,0,0,0,6.411-.034A.756.756,0,0,1,51.065,29.969Zm-3.619-1.378c2.382,0,3.778-2.991,3.842-5.092.075-2.438-1.284-4.008-3.842-4.008S43.53,21.061,43.6,23.5C43.669,25.6,45.065,28.592,47.447,28.592Zm0,1.492c3.261,0,5.238-3.614,5.328-6.543.1-3.293-1.9-5.54-5.328-5.54s-5.429,2.248-5.328,5.54C42.208,26.47,44.186,30.083,47.447,30.083ZM32.141,41.695a.631.631,0,0,0-.631-.631V39.571a.631.631,0,0,0,.631-.631h1.492a.631.631,0,0,0,.631.631v1.492a.631.631,0,0,0-.631.631Zm6.017-17.512a.631.631,0,0,0,.631.631v1.492a.631.631,0,0,0-.631.631H36.666a.631.631,0,0,0-.631-.631V24.814a.631.631,0,0,0,.631-.631ZM62.752,41.695H61.26a.631.631,0,0,0-.631-.631V39.571a.631.631,0,0,0,.631-.631h1.492a.631.631,0,0,0,.631.631v1.492A.631.631,0,0,0,62.752,41.695Zm-6.2-17.066a.63.63,0,0,0,.185-.447h1.492a.631.631,0,0,0,.631.631v1.492a.631.631,0,0,0-.631.631H56.735a.631.631,0,0,0-.631-.631V24.814A.63.63,0,0,0,56.55,24.629Zm-26.418,3.13A4.9,4.9,0,0,1,28.594,29.3a4.9,4.9,0,0,1,1.539,1.539A4.9,4.9,0,0,1,31.671,29.3,4.9,4.9,0,0,1,30.132,27.759Zm-.746-2.594h1.492a3.386,3.386,0,0,0,3.386,3.386v1.492a3.386,3.386,0,0,0-3.386,3.386H29.386A3.386,3.386,0,0,0,26,30.044V28.552A3.386,3.386,0,0,0,29.386,25.166Zm34.628,0h1.492a3.386,3.386,0,0,0,3.386,3.386v1.492a3.386,3.386,0,0,0-3.386,3.386H64.015a3.386,3.386,0,0,0-3.386-3.386V28.552A3.386,3.386,0,0,0,64.015,25.166Z" transform="translate(256.554 952.896)" fill="#405425" fill-rule="evenodd"/>
  </g>
</svg>
