<svg xmlns="http://www.w3.org/2000/svg" width="73" height="73" viewBox="0 0 73 73">
  <g id="Grupo_1177075" data-name="Grupo 1177075" transform="translate(-716.711 -529)">
    <rect id="Rectángulo_454495" data-name="Rectángulo 454495" width="73" height="73" rx="5" transform="translate(716.711 529)" fill="#c8bf57"/>
    <g id="Grupo_1177074" data-name="Grupo 1177074" transform="translate(725.629 525.206)">
      <g id="Grupo_1177072" data-name="Grupo 1177072" transform="translate(0.808 15.055)">
        <g id="Grupo_1177071" data-name="Grupo 1177071" transform="translate(0 3.116)">
          <path id="Trazado_993925" data-name="Trazado 993925" d="M125.99,199.223l-5.821-6.455a.534.534,0,0,0-.793,0l-5.821,6.455a.534.534,0,0,0,.4.891h2.882a.535.535,0,0,1,.534.552,18.026,18.026,0,0,1-33.308,8.992.666.666,0,0,0-1.058-.09l-2.392,2.652a.67.67,0,0,0-.052.83,22.816,22.816,0,0,0,41.6-12.418.532.532,0,0,1,.533-.518h2.9a.534.534,0,0,0,.4-.891Z" transform="translate(-72.581 -177.3)" fill="#5392f9"/>
          <path id="Trazado_993926" data-name="Trazado 993926" d="M34.273,50.665A22.814,22.814,0,0,0,11.459,73.479H8.034a.534.534,0,0,0-.4.891l5.821,6.455a.534.534,0,0,0,.793,0l5.821-6.455a.534.534,0,0,0-.4-.891H16.25a18.026,18.026,0,0,1,33.316-9.543.666.666,0,0,0,1.059.09l2.392-2.652a.67.67,0,0,0,.052-.83,22.791,22.791,0,0,0-18.8-9.879Z" transform="translate(-7.499 -50.665)" fill="#5392f9"/>
        </g>
        <path id="Trazado_993927" data-name="Trazado 993927" d="M294.752,190.662a1.1,1.1,0,0,0-.584-1.011,5.577,5.577,0,0,0-8.19,4.729,1.1,1.1,0,0,0,.584,1.011,5.577,5.577,0,0,0,8.19-4.729Z" transform="translate(-255.974 -170.978)" fill="#6dc17d"/>
        <path id="Trazado_993928" data-name="Trazado 993928" d="M144.575,190.662a1.1,1.1,0,0,1,.584-1.011,5.577,5.577,0,0,1,8.19,4.729,1.1,1.1,0,0,1-.584,1.011,5.577,5.577,0,0,1-8.19-4.729Z" transform="translate(-129.806 -170.978)" fill="#6dc17d"/>
        <circle id="Elipse_13581" data-name="Elipse 13581" cx="8.35" cy="8.35" r="8.35" transform="translate(18.424)" fill="#e9a52d"/>
        <path id="Trazado_993929" data-name="Trazado 993929" d="M243.955,21.743a8.392,8.392,0,0,0-1.455.129,8.349,8.349,0,0,1,0,16.443,8.35,8.35,0,1,0,1.455-16.572Z" transform="translate(-217.181 -21.743)" fill="#e38523"/>
        <path id="Trazado_993930" data-name="Trazado 993930" d="M158.241,322.932h20.1a.541.541,0,0,0,.541-.541V303.268a.541.541,0,0,0-.541-.541h-20.1a.541.541,0,0,0-.541.541v19.122A.541.541,0,0,0,158.241,322.932Z" transform="translate(-141.517 -272.453)" fill="#e9a52d"/>
        <path id="Trazado_993931" data-name="Trazado 993931" d="M325.185,302.727h-2.909a.541.541,0,0,1,.541.541v19.122a.541.541,0,0,1-.541.541h2.909a.541.541,0,0,0,.541-.541V303.268A.541.541,0,0,0,325.185,302.727Z" transform="translate(-288.361 -272.453)" fill="#e38523"/>
        <path id="Trazado_993932" data-name="Trazado 993932" d="M230.1,302.727v6.437a.234.234,0,0,0,.374.188l2.277-1.693a.234.234,0,0,1,.279,0l2.277,1.693a.234.234,0,0,0,.374-.188v-6.437Z" transform="translate(-206.114 -272.453)" fill="#f7f3f1"/>
      </g>
      <g id="Grupo_1177073" data-name="Grupo 1177073" transform="translate(0 14.247)">
        <path id="Trazado_993933" data-name="Trazado 993933" d="M54.816,39.552,48.994,33.1A1.342,1.342,0,0,0,47,33.1l-5.82,6.454A1.325,1.325,0,0,0,40.952,41a1.343,1.343,0,0,0,1.227.8h2.6a17.074,17.074,0,0,1-5.8,12.093V45.87A1.351,1.351,0,0,0,37.63,44.52H28.389v-.479a4.531,4.531,0,0,1,2.43-3.983,1.87,1.87,0,0,0,.2.122,6.385,6.385,0,0,0,9.376-5.413,1.918,1.918,0,0,0-1.013-1.754A6.385,6.385,0,0,0,30,38.427a1.881,1.881,0,0,0,.007.233,6.286,6.286,0,0,0-1.622,1.256V32.526a9.179,9.179,0,0,0,7.929-6.375,17.3,17.3,0,0,1,5.871,5.721,1.475,1.475,0,0,0,2.344.2l2.393-2.654a1.476,1.476,0,0,0,.116-1.829A23.816,23.816,0,0,0,35.435,18.7a9.152,9.152,0,0,0-15.711,0,23.719,23.719,0,0,0-9.055,5.788.808.808,0,0,0,1.157,1.128A22.135,22.135,0,0,1,18.8,20.8a9.079,9.079,0,0,0-.312,3.688A18.764,18.764,0,0,0,8.75,40.985a.808.808,0,0,0,.808.808h2.808l-5.2,5.772-5.2-5.772H4.767a.808.808,0,0,0,.808-.808A21.869,21.869,0,0,1,9.511,28.423.808.808,0,0,0,8.185,27.5,23.461,23.461,0,0,0,3.973,40.176H1.342a1.342,1.342,0,0,0-1,2.24l5.822,6.457a1.342,1.342,0,0,0,1.993,0l5.819-6.454a1.342,1.342,0,0,0-1-2.241h-2.6A17.145,17.145,0,0,1,18.843,26.15a9.179,9.179,0,0,0,7.93,6.376v7.389a6.506,6.506,0,0,0-1.622-1.256,1.878,1.878,0,0,0,.007-.233,6.385,6.385,0,0,0-9.376-5.413,1.918,1.918,0,0,0-1.013,1.754,6.378,6.378,0,0,0,9.376,5.413,1.868,1.868,0,0,0,.2-.122l.2.113a4.48,4.48,0,0,1,2.234,3.869v.479H17.531a1.351,1.351,0,0,0-1.349,1.349v8.017A17.2,17.2,0,0,1,12.973,50.1a1.473,1.473,0,0,0-2.344-.2L8.237,52.549a1.472,1.472,0,0,0-.117,1.83,23.8,23.8,0,0,0,8.062,7.3v3.315a1.351,1.351,0,0,0,1.349,1.349H30.524a.808.808,0,0,0,0-1.616H17.8V46.136h6.184v5.629a1.042,1.042,0,0,0,1.664.836l1.935-1.438L29.516,52.6a1.042,1.042,0,0,0,1.664-.837V46.136h6.184V64.725H34.295a.808.808,0,0,0,0,1.616H37.63a1.351,1.351,0,0,0,1.349-1.349V61.677A23.639,23.639,0,0,0,51.188,41.793H53.82a1.342,1.342,0,0,0,1-2.24ZM34,34.523a4.747,4.747,0,0,1,4.623-.081.293.293,0,0,1,.155.268,4.767,4.767,0,0,1-6.25,4.363l3.441-1.987a.808.808,0,0,0-.808-1.4l-3.442,1.987A4.739,4.739,0,0,1,34,34.523ZM18.766,38.672a4.747,4.747,0,0,1-2.382-3.963.293.293,0,0,1,.155-.268,4.767,4.767,0,0,1,6.9,3.232L20,35.686a.808.808,0,0,0-.808,1.4l3.441,1.987a4.738,4.738,0,0,1-3.868-.4ZM45.65,28.421l-2.193,2.432a18.906,18.906,0,0,0-6.785-6.362A9.081,9.081,0,0,0,36.36,20.8,22.224,22.224,0,0,1,45.65,28.421ZM20.039,23.405a7.542,7.542,0,1,1,7.542,7.542A7.551,7.551,0,0,1,20.039,23.405ZM9.512,53.549,11.7,51.118a18.8,18.8,0,0,0,4.477,4.856v3.837a22.2,22.2,0,0,1-6.67-6.262Zm20.052-2.926L28.2,49.612a1.036,1.036,0,0,0-1.244,0L25.6,50.623V46.136h3.965v4.487ZM50.921,40.176a1.348,1.348,0,0,0-1.341,1.308A22.019,22.019,0,0,1,38.98,59.81V55.973a19.013,19.013,0,0,0,5.187-6.064A18.613,18.613,0,0,0,46.4,41.563a1.344,1.344,0,0,0-1.342-1.387H42.8L48,34.406l5.2,5.771H50.921Z" transform="translate(0 -14.247)"/>
        <path id="Trazado_993934" data-name="Trazado 993934" d="M230.951,56.443v-.654a2.763,2.763,0,0,0,2.278-2.147c.171-.96-.269-2.216-2.018-2.862l-.317-.117a12.6,12.6,0,0,1-1.648-.675.459.459,0,0,1-.225-.475.852.852,0,0,1,.648-.707,2.456,2.456,0,0,1,2.036.468.808.808,0,0,0,1.036-1.24,4.436,4.436,0,0,0-1.789-.841v-.671a.808.808,0,1,0-1.616,0v.7c-.044.011-.088.023-.133.036a2.476,2.476,0,0,0-1.789,2.088,2.059,2.059,0,0,0,1.06,2.06,13.657,13.657,0,0,0,1.863.773l.316.116c.332.122,1.092.471.986,1.061a1.284,1.284,0,0,1-1.325.878,2.563,2.563,0,0,1-1.883-.79.808.808,0,1,0-1.2,1.085,4.1,4.1,0,0,0,2.1,1.207v.705a.808.808,0,1,0,1.616,0Z" transform="translate(-202.563 -42.325)"/>
      </g>
    </g>
  </g>
</svg>
