<svg xmlns="http://www.w3.org/2000/svg" width="80" height="80" viewBox="0 0 80 80">
  <g id="Grupo_1176957" data-name="Grupo 1176957" transform="translate(-179.668 -5521)">
    <rect id="Rectángulo_402006" data-name="Rectángulo 402006" width="80" height="80" rx="5" transform="translate(179.668 5521)" fill="#c8bf57"/>
    <g id="Grupo_1178522" data-name="Grupo 1178522" transform="translate(187.668 5529)">
      <path id="Trazado_998137" data-name="Trazado 998137" d="M54,1H40a3,3,0,0,0-3,3V6a4,4,0,0,0,0,8v5h8V17a2,2,0,0,1,4,0v2h5a3,3,0,0,0,3-3V4A3,3,0,0,0,54,1Zm1,15a1,1,0,0,1-1,1H51a4,4,0,0,0-8,0H39V12H37a2,2,0,0,1,0-4h2V4a1,1,0,0,1,1-1H54a1,1,0,0,1,1,1Z" fill="#405425"/>
      <path id="Trazado_998138" data-name="Trazado 998138" d="M37,21a4,4,0,0,0-4,4H29V20H27a2,2,0,0,1,0-4h2V7H26.319A19.319,19.319,0,0,0,14.086,41.271L18,44.474v2.711a2.983,2.983,0,0,0,.22,5.7,2.971,2.971,0,0,0,1.834,3.948,7,7,0,0,0,13.892,0,2.972,2.972,0,0,0,1.834-3.949,2.983,2.983,0,0,0,.22-5.7V44.473l3.914-3.2A19.244,19.244,0,0,0,47,26.319V25H41A4,4,0,0,0,37,21ZM26.319,9H27v5a4,4,0,0,0,0,8v3H23a4,4,0,0,0-8,0H9.05A17.342,17.342,0,0,1,26.319,9ZM15.352,39.723A17.244,17.244,0,0,1,9.014,27H17V25a2,2,0,0,1,4,0v2h6v4a4,4,0,0,0,0,8v8H20V43.526ZM27,61a5.009,5.009,0,0,1-4.9-4h9.8A5.009,5.009,0,0,1,27,61Zm6-6H21a1,1,0,0,1,0-2H33a1,1,0,0,1,0,2Zm2-4H19a1,1,0,0,1,0-2H35a1,1,0,0,1,0,2Zm3.648-11.277L34,43.526V47H29V37H27a2,2,0,0,1,0-4h2V27h6V25a2,2,0,0,1,4,0v2h5.986A17.244,17.244,0,0,1,38.648,39.723Z" fill="#405425"/>
    </g>
  </g>
</svg>
