<svg xmlns="http://www.w3.org/2000/svg" width="92" height="92" viewBox="0 0 92 92">
  <g id="Grupo_1178619" data-name="Grupo 1178619" transform="translate(-209.75 -3101)">
    <rect id="Rectángulo_454604" data-name="Rectángulo 454604" width="92" height="92" transform="translate(209.75 3101)" fill="#ffd600"/>
    <g id="Grupo_1178616" data-name="Grupo 1178616" transform="translate(229.065 3116.502)">
      <path id="Trazado_1007419" data-name="Trazado 1007419" d="M118.154,0H81.3a.937.937,0,0,0,0,1.875h36.857a2.857,2.857,0,0,1,2.854,2.854V49.444a.937.937,0,1,0,1.875,0V4.728A4.734,4.734,0,0,0,118.154,0Zm0,0" transform="translate(-70.267 0)" fill="#405425"/>
      <path id="Trazado_1007420" data-name="Trazado 1007420" d="M51.677,52.443a.937.937,0,0,0-.937.937v3.387a2.857,2.857,0,0,1-2.854,2.854H5.228a2.857,2.857,0,0,1-2.854-2.854V4.728A2.857,2.857,0,0,1,5.228,1.875H7A.937.937,0,1,0,7,0H5.228A4.734,4.734,0,0,0,.5,4.728v52.04A4.734,4.734,0,0,0,5.228,61.5H47.886a4.733,4.733,0,0,0,4.728-4.728V53.381a.937.937,0,0,0-.937-.937Zm0,0" fill="#405425"/>
      <path id="Trazado_1007421" data-name="Trazado 1007421" d="M57,50.363a7.114,7.114,0,1,0,7.114,7.114A7.122,7.122,0,0,0,57,50.363Zm0,12.353a5.239,5.239,0,1,1,5.239-5.239A5.245,5.245,0,0,1,57,62.716Zm0,0" transform="translate(-43.454 -44.314)" fill="#405425"/>
      <path id="Trazado_1007422" data-name="Trazado 1007422" d="M197.863,66.793h20.432a.937.937,0,0,0,0-1.875H197.863a.937.937,0,0,0,0,1.875Zm0,0" transform="translate(-172.834 -57.121)" fill="#405425"/>
      <path id="Trazado_1007423" data-name="Trazado 1007423" d="M197.863,103.66h14.789a.937.937,0,0,0,0-1.875H197.863a.937.937,0,0,0,0,1.875Zm0,0" transform="translate(-172.834 -89.561)" fill="#405425"/>
      <path id="Trazado_1007424" data-name="Trazado 1007424" d="M197.863,140.531H215.7a.937.937,0,0,0,0-1.875H197.863a.937.937,0,0,0,0,1.875Zm0,0" transform="translate(-172.834 -122.003)" fill="#405425"/>
      <path id="Trazado_1007425" data-name="Trazado 1007425" d="M197.863,213.32h20.432a.937.937,0,0,0,0-1.875H197.863a.937.937,0,0,0,0,1.875Zm0,0" transform="translate(-172.834 -186.049)" fill="#405425"/>
      <path id="Trazado_1007426" data-name="Trazado 1007426" d="M197.863,250.187h14.789a.937.937,0,0,0,0-1.875H197.863a.937.937,0,0,0,0,1.875Zm0,0" transform="translate(-172.834 -218.488)" fill="#405425"/>
      <path id="Trazado_1007427" data-name="Trazado 1007427" d="M197.863,287.058H215.7a.937.937,0,0,0,0-1.875H197.863a.937.937,0,0,0,0,1.875Zm0,0" transform="translate(-172.834 -250.931)" fill="#405425"/>
      <path id="Trazado_1007428" data-name="Trazado 1007428" d="M57,343.418a7.114,7.114,0,1,0,7.114,7.114A7.122,7.122,0,0,0,57,343.418Zm0,12.353a5.239,5.239,0,1,1,5.239-5.239A5.245,5.245,0,0,1,57,355.771Zm0,0" transform="translate(-43.454 -302.171)" fill="#405425"/>
      <path id="Trazado_1007429" data-name="Trazado 1007429" d="M197.863,359.847h20.432a.937.937,0,0,0,0-1.875H197.863a.937.937,0,0,0,0,1.875Zm0,0" transform="translate(-172.834 -314.977)" fill="#405425"/>
      <path id="Trazado_1007430" data-name="Trazado 1007430" d="M197.863,396.718h14.789a.937.937,0,1,0,0-1.874H197.863a.937.937,0,0,0,0,1.874Zm0,0" transform="translate(-172.834 -347.42)" fill="#405425"/>
      <path id="Trazado_1007431" data-name="Trazado 1007431" d="M197.863,433.585H215.7a.937.937,0,0,0,0-1.875H197.863a.937.937,0,0,0,0,1.875Zm0,0" transform="translate(-172.834 -379.859)" fill="#405425"/>
      <path id="Trazado_1007432" data-name="Trazado 1007432" d="M55.709,199.957a.937.937,0,0,0-1.326,1.325l2.312,2.312a.938.938,0,0,0,1.326,0l4.836-4.836.014-.014,3.211-3.211a.937.937,0,1,0-1.326-1.325L62.3,196.66a7.115,7.115,0,1,0,1.81,4.742.937.937,0,0,0-1.875,0,5.242,5.242,0,1,1-1.265-3.413l-3.616,3.616Zm0,0" transform="translate(-43.455 -170.641)" fill="#405425"/>
    </g>
  </g>
</svg>
