<svg xmlns="http://www.w3.org/2000/svg" width="80" height="80" viewBox="0 0 80 80">
  <g id="Grupo_1176724" data-name="Grupo 1176724" transform="translate(-179.668 -5521)">
    <rect id="Rectángulo_402006" data-name="Rectángulo 402006" width="80" height="80" rx="5" transform="translate(179.668 5521)" fill="#c8bf57"/>
    <g id="Layer_2" data-name="Layer 2" transform="translate(191.56 5532.892)">
      <path id="Trazado_996120" data-name="Trazado 996120" d="M36.521.987h0a10.54,10.54,0,0,1,10.54,10.54V32.608H25.981V11.527A10.54,10.54,0,0,1,36.521.987Z" transform="translate(-3.16 -0.12)" fill="#7a838b"/>
      <path id="Trazado_996121" data-name="Trazado 996121" d="M29,13H44.811v7.905a7.905,7.905,0,0,1-7.905,7.905h0A7.905,7.905,0,0,1,29,20.905Z" transform="translate(-3.527 -1.581)" fill="#5d6972"/>
      <path id="Trazado_996122" data-name="Trazado 996122" d="M38.905,30.513V27H35.392v3.513a1.757,1.757,0,0,1-1.757,1.757H31v3.513H43.3V32.27H40.662A1.757,1.757,0,0,1,38.905,30.513Z" transform="translate(-3.77 -3.284)" fill="#ffd3b6"/>
      <path id="Trazado_996123" data-name="Trazado 996123" d="M36,30.311a7.707,7.707,0,0,0,3.513,0V27H36Z" transform="translate(-4.379 -3.284)" fill="#f9b995"/>
      <path id="Trazado_996124" data-name="Trazado 996124" d="M39.75,33a4.392,4.392,0,0,1-8.608,0H25.814a7.027,7.027,0,0,0-6.757,5.095L17,45.3h5.27V59.351H48.621V45.3h5.27l-2.057-7.2A7.027,7.027,0,0,0,45.078,33Z" transform="translate(-2.068 -4.014)" fill="#a7d0e1"/>
      <path id="Trazado_996125" data-name="Trazado 996125" d="M24.905,44.546h0a1.757,1.757,0,0,0-1.757-1.757h0A2.65,2.65,0,0,1,20.6,39.411l1.091-3.824a6.979,6.979,0,0,1,.675-1.543,7.013,7.013,0,0,0-3.31,4.178L17,45.424h5.27V59.478H48.621V56.843H37.2A12.3,12.3,0,0,1,24.905,44.546Z" transform="translate(-2.068 -4.141)" fill="#80bbce"/>
      <path id="Trazado_996126" data-name="Trazado 996126" d="M29,11H44.811v7.905a7.905,7.905,0,0,1-7.905,7.905h0A7.905,7.905,0,0,1,29,18.905Z" transform="translate(-3.527 -1.338)" fill="#ffd3b6"/>
      <path id="Trazado_996127" data-name="Trazado 996127" d="M39.54,24.176a7.905,7.905,0,0,1-7.905-7.905V11H29v7.905a7.9,7.9,0,0,0,14.649,4.109,7.856,7.856,0,0,1-4.109,1.161Z" transform="translate(-3.527 -1.338)" fill="#f9b995"/>
      <path id="Trazado_996128" data-name="Trazado 996128" d="M27.757,15h.878v3.513h-.878A1.757,1.757,0,0,1,26,16.757h0A1.757,1.757,0,0,1,27.757,15Z" transform="translate(-3.162 -1.824)" fill="#f9b995"/>
      <path id="Trazado_996129" data-name="Trazado 996129" d="M1.757,0h.878V3.513H1.757A1.757,1.757,0,0,1,0,1.757H0A1.757,1.757,0,0,1,1.757,0Z" transform="translate(43.919 16.689) rotate(180)" fill="#ffd3b6"/>
      <path id="Trazado_996130" data-name="Trazado 996130" d="M22.27,48.513V46.757H17v5.27a3.513,3.513,0,0,0,3.513,3.513h.693a3.513,3.513,0,0,0,1.949-.59l4.385-2.923V45Z" transform="translate(-2.068 -5.473)" fill="#ffd3b6"/>
      <path id="Trazado_996131" data-name="Trazado 996131" d="M25.791,52.558a3.513,3.513,0,0,1-1.949.59h-.693a3.513,3.513,0,0,1-3.513-3.513V47H17v5.27a3.513,3.513,0,0,0,3.513,3.513h.693a3.513,3.513,0,0,0,1.949-.59L27.54,52.27v-.878Z" transform="translate(-2.068 -5.717)" fill="#f9b995"/>
      <path id="Trazado_996132" data-name="Trazado 996132" d="M26.981,8.987v5.27h9.964a3.513,3.513,0,0,0,2.484-1.029l.728-.728.728.727a3.513,3.513,0,0,0,2.484,1.029h2.936V8.987Z" transform="translate(-3.282 -1.093)" fill="#7a838b"/>
      <path id="Trazado_996133" data-name="Trazado 996133" d="M35,52.027V47.635L37.635,45l2.635,2.635v4.392Z" transform="translate(-4.257 -5.473)" fill="#f8c460"/>
      <path id="Trazado_996134" data-name="Trazado 996134" d="M37.635,46.757V45L35,47.635v4.392h5.27V49.392h0A2.635,2.635,0,0,1,37.635,46.757Z" transform="translate(-4.257 -5.473)" fill="#eaac47"/>
      <rect id="Rectángulo_455073" data-name="Rectángulo 455073" width="5" height="7" rx="2.5" transform="translate(23.108 39.108)" fill="#ffd3b6"/>
      <path id="Trazado_996135" data-name="Trazado 996135" d="M28.635,46.757V45A2.635,2.635,0,0,0,26,47.635v1.757a2.635,2.635,0,1,0,5.27,0A2.635,2.635,0,0,1,28.635,46.757Z" transform="translate(-3.162 -5.473)" fill="#f9b995"/>
      <path id="Trazado_996136" data-name="Trazado 996136" d="M52.27,48.513V46.757h5.27v5.27a3.513,3.513,0,0,1-3.513,3.513h-.693a3.513,3.513,0,0,1-1.949-.59L47,52.027V45Z" transform="translate(-5.717 -5.473)" fill="#ffd3b6"/>
      <path id="Trazado_996137" data-name="Trazado 996137" d="M56.662,52.905h-.693a3.513,3.513,0,0,1-1.949-.59l-4.385-2.923V46.757L47,45v7.027l4.385,2.923a3.513,3.513,0,0,0,1.949.59h.693a3.513,3.513,0,0,0,3.419-2.73A3.491,3.491,0,0,1,56.662,52.905Z" transform="translate(-5.717 -5.473)" fill="#f9b995"/>
      <rect id="Rectángulo_455074" data-name="Rectángulo 455074" width="5" height="7" rx="2.5" transform="translate(44.108 46.108) rotate(180)" fill="#ffd3b6"/>
      <path id="Trazado_996138" data-name="Trazado 996138" d="M46.635,46.757V45A2.635,2.635,0,0,0,44,47.635v1.757a2.635,2.635,0,0,0,5.27,0,2.635,2.635,0,0,1-2.635-2.635Z" transform="translate(-5.352 -5.473)" fill="#f9b995"/>
      <rect id="Rectángulo_455075" data-name="Rectángulo 455075" width="54" height="5" transform="translate(1.108 50.108)" fill="#f8c460"/>
      <path id="Trazado_996139" data-name="Trazado 996139" d="M3.635,57H1v5.27H55.459V59.635H6.27A2.635,2.635,0,0,1,3.635,57Z" transform="translate(-0.122 -6.933)" fill="#eaac47"/>
      <rect id="Rectángulo_455076" data-name="Rectángulo 455076" width="11" height="14" rx="5.5" transform="translate(4.108 36.108)" fill="#f8c460"/>
      <path id="Trazado_996140" data-name="Trazado 996140" d="M12.905,52.484a5.27,5.27,0,0,1-5.27-5.27V43.7A5.247,5.247,0,0,1,8.1,41.534a5.27,5.27,0,0,0-3.1,4.8v3.513a5.27,5.27,0,0,0,10.071,2.166,5.247,5.247,0,0,1-2.166.469Z" transform="translate(-0.608 -5.052)" fill="#eaac47"/>
      <path id="Trazado_996141" data-name="Trazado 996141" d="M55.337,49.189H51.8a4.346,4.346,0,0,0,.9-2.635v-5.27a.884.884,0,0,0-.033-.241l-2.057-7.2A7.944,7.944,0,0,0,44.8,28.319v-16.9a11.419,11.419,0,1,0-22.838,0v16.9a7.944,7.944,0,0,0-5.815,5.522l-.552,1.932a.879.879,0,0,0,1.69.481l.552-1.932a6.174,6.174,0,0,1,5.911-4.458h4.662a5.27,5.27,0,0,0,9.941,0H43.01a6.174,6.174,0,0,1,5.911,4.459l1.737,6.082H47.432v-.878a.878.878,0,1,0-1.757,0V41.4l-1.3-.862a3.475,3.475,0,0,0-5.812-.577L34.62,36.013l.257-.257a.878.878,0,1,0-1.242-1.242l-.257.257-.257-.257a.878.878,0,1,0-1.242,1.242l.257.257-3.947,3.947a3.476,3.476,0,0,0-5.816.583.026.026,0,0,0-.023.009l-1.269.847V39.527a.878.878,0,0,0-1.757,0v.878H15.74a6.142,6.142,0,0,0-11.985-.814A4.387,4.387,0,0,0,0,43.919V44.8a.878.878,0,0,0,1.757,0v-.878a2.635,2.635,0,0,1,1.757-2.473V44.8A6.126,6.126,0,0,0,5.369,49.19H.878A.878.878,0,0,0,0,50.067v5.27a.878.878,0,0,0,.878.878H55.337a.878.878,0,0,0,.878-.878v-5.27A.878.878,0,0,0,55.337,49.189ZM23.746,28.108h-.03v-10.7a2.605,2.605,0,0,0,.878.162,8.8,8.8,0,0,0,6.149,8.379V27.23a.878.878,0,0,1-.878.878Zm-.03-13.176a.878.878,0,0,1,.878-.878v1.757A.878.878,0,0,1,23.716,14.932Zm9.662,16.689a3.518,3.518,0,0,1-3.06-1.8A2.635,2.635,0,0,0,32.5,27.23v-.923a8.633,8.633,0,0,0,1.757,0v.923a2.635,2.635,0,0,0,2.182,2.589,3.518,3.518,0,0,1-3.06,1.8Zm9.662-3.513H36.892a.878.878,0,0,1-.878-.878V25.946a8.8,8.8,0,0,0,6.149-8.379,2.605,2.605,0,0,0,.878-.162Zm-.878-12.3V14.054a.878.878,0,1,1,0,1.757Zm.878-3.352a2.605,2.605,0,0,0-.878-.162H40.1a2.622,2.622,0,0,1-1.092-.237.879.879,0,0,0-.727,1.6,4.364,4.364,0,0,0,1.819.394h.3v3.513a7.027,7.027,0,1,1-14.054,0V14.054h7.328a4.365,4.365,0,0,0,3.106-1.287l.727-.727A.878.878,0,1,0,36.271,10.8l-.727.727a2.618,2.618,0,0,1-1.864.772H24.594a2.605,2.605,0,0,0-.878.162v-1.04a9.662,9.662,0,1,1,19.324,0ZM44.8,43.919v-.994l1.269.847a.878.878,0,0,0,1.366-.731v-.878h3.513v4.392a2.635,2.635,0,0,1-2.635,2.635h-.693a2.621,2.621,0,0,1-1.462-.439l-2.892-1.932A3.513,3.513,0,0,0,44.8,43.919Zm-5.27-1.757a1.757,1.757,0,0,1,3.513,0v1.757a1.757,1.757,0,0,1-3.513,0ZM36.013,39.89l.515.515-.515.515-.515-.515Zm-2.635-2.635,1.393,1.393-.515.515L34,38.906a.878.878,0,0,0-1.242,0l-.257.257-.515-.515Zm-1.757,5.27,1.757-1.757,1.757,1.757v3.15H31.621Zm-.878-2.635.515.515-.515.515-.515-.515Zm-1.757,4.028V42.162a3.427,3.427,0,0,0-.047-.467l.047-.047.878.878v4.028a.878.878,0,0,0,.878.878h5.27a.878.878,0,0,0,.878-.878V42.526l.878-.878.047.047a3.426,3.426,0,0,0-.047.467v1.757a3.506,3.506,0,0,0,3.2,3.482l2.685,1.788H23.1L25.784,47.4A3.506,3.506,0,0,0,28.986,43.919Zm-5.27-1.757a1.757,1.757,0,1,1,3.513,0v1.757a1.757,1.757,0,1,1-3.513,0Zm-7.905,0h3.513v.878a.878.878,0,0,0,1.366.731l1.269-.847v.994a3.514,3.514,0,0,0,1.534,2.9L20.6,48.75a2.621,2.621,0,0,1-1.462.439h-.693a2.635,2.635,0,0,1-2.635-2.635Zm-1.269,6.361a4.392,4.392,0,0,0,.414.666h-1A6.113,6.113,0,0,0,14.541,48.523ZM9.662,36.892a4.361,4.361,0,0,1,2.416.73A9.594,9.594,0,0,1,9.158,39.6a.879.879,0,1,0,.7,1.611,11.369,11.369,0,0,0,3.461-2.348,4.314,4.314,0,0,1,.4.744,9.612,9.612,0,0,1-1.915,1.75.878.878,0,0,0,.494,1.6.867.867,0,0,0,.494-.153,11.409,11.409,0,0,0,1.263-1v2.113h-.025A9.6,9.6,0,0,1,7.2,41.088L5.639,39.532a4.392,4.392,0,0,1,4.023-2.64ZM5.27,41.647l.683.683a11.344,11.344,0,0,0,8.013,3.345,4.354,4.354,0,0,1-.284.878h-.71a9.615,9.615,0,0,1-7.545-3.627l-.157-.2Zm.056,3.706a11.314,11.314,0,0,0,6.988,2.921,4.35,4.35,0,0,1-6.988-2.921Zm49.133,9.106H1.757V50.946h52.7Z"/>
      <path id="Trazado_996142" data-name="Trazado 996142" d="M41.878,17a.878.878,0,0,0-.878.878v.878a.878.878,0,0,0,1.757,0v-.878A.878.878,0,0,0,41.878,17Z" transform="translate(-4.987 -2.068)"/>
      <path id="Trazado_996143" data-name="Trazado 996143" d="M33.878,17a.878.878,0,0,0-.878.878v.878a.878.878,0,0,0,1.757,0v-.878A.878.878,0,0,0,33.878,17Z" transform="translate(-4.014 -2.068)"/>
      <path id="Trazado_996144" data-name="Trazado 996144" d="M60.635,59.757H58.878a.878.878,0,1,1,0-1.757h1.757a.878.878,0,0,1,0,1.757Z" transform="translate(-7.054 -7.054)" fill="#fff"/>
    </g>
  </g>
</svg>
