<svg xmlns="http://www.w3.org/2000/svg" width="70" height="70" viewBox="0 0 70 70">
  <g id="Grupo_1176712" data-name="Grupo 1176712" transform="translate(-269 -958.087)">
    <circle id="Elipse_5614" data-name="Elipse 5614" cx="35" cy="35" r="35" transform="translate(269 958.087)" fill="#fff"/>
    <g id="Grupo_1180854" data-name="Grupo 1180854" transform="translate(284.78 973.637)">
      <circle id="Elipse_13761" data-name="Elipse 13761" cx="0.5" cy="0.5" r="0.5" transform="translate(16.22 21.22)" fill="#405425"/>
      <circle id="Elipse_13762" data-name="Elipse 13762" cx="0.5" cy="0.5" r="0.5" transform="translate(21.22 21.22)" fill="#405425"/>
      <path id="Trazado_1010935" data-name="Trazado 1010935" d="M31.351,40.175H29v1.175h2.351A2.353,2.353,0,0,0,33.7,39H32.526A1.177,1.177,0,0,1,31.351,40.175Z" transform="translate(-11.543 -15.666)" fill="#405425"/>
      <path id="Trazado_1010936" data-name="Trazado 1010936" d="M31.179,30.111a3.4,3.4,0,0,1-1-2.423V27H29v.688a4.571,4.571,0,0,0,1.348,3.254Z" transform="translate(-11.543 -10.719)" fill="#405425"/>
      <path id="Trazado_1010937" data-name="Trazado 1010937" d="M37.44,26.861v-4.7A4.708,4.708,0,0,0,33.2,17.48l-.326-1.3a1.762,1.762,0,0,0,1.161-1.439l.1-.806H34.5a1.759,1.759,0,0,0,1.445-2.769l.207-.828A3.728,3.728,0,0,0,32.537,5.7H30.186a2.92,2.92,0,0,0-2.078.86l-.389.389-.2.068a2.675,2.675,0,0,0-1.75,3.189l.238.953a1.747,1.747,0,0,0-.319,1.006,1.765,1.765,0,0,0,1.763,1.763h.363l.1.806a1.763,1.763,0,0,0,1.161,1.439l-.326,1.3a4.642,4.642,0,0,0-1.984.669,6.476,6.476,0,0,0-5.3-5.3l-.344-1.378a1.762,1.762,0,0,0,1.161-1.439l.1-.806h.363A1.76,1.76,0,0,0,24.192,6.46l.207-.828A3.73,3.73,0,0,0,20.782,1H17.659a3.729,3.729,0,0,0-3.617,4.632l.207.828a1.76,1.76,0,0,0,1.445,2.769h.363l.1.806a1.763,1.763,0,0,0,1.161,1.439l-.364,1.456a5.221,5.221,0,0,0-3.5,2.96,4.3,4.3,0,0,0-.768.67,4.573,4.573,0,0,0,.065-.766V11.579A5.877,5.877,0,0,0,1,11.579v4.215a4.616,4.616,0,0,0,.731,2.46A4.1,4.1,0,0,0,1,20.586v6.275H12.755V24.183a2.327,2.327,0,0,0,1.175.327h.047a4.12,4.12,0,0,0,2.6,3.25l-.108.276H8.053a1.171,1.171,0,0,0-1.015.594,3.451,3.451,0,0,0-1.924-.594,1.761,1.761,0,0,0-1.655,1.175H3.351a2.351,2.351,0,1,0,0,4.7h9.4v2.351H1V37.44H37.44V36.265H25.685V33.914h9.4a2.351,2.351,0,1,0,0-4.7h-.108a1.761,1.761,0,0,0-1.655-1.175,3.451,3.451,0,0,0-1.924.594,1.171,1.171,0,0,0-1.015-.594H21.973l-.108-.276a4.119,4.119,0,0,0,2.6-3.25h.047v2.351ZM31.692,16.281l.294,1.175H29.964l.294-1.175Zm.1,2.351L31.2,19.808h-.449l-.588-1.175Zm-.918,2.351h.212l.94,4.7H29.929Zm5.4,1.175v3.526H33.22l-1.041-5.207.914-1.828A3.531,3.531,0,0,1,36.265,22.159Zm-1.763-9.4h-.216l.147-1.175H34.5a.588.588,0,1,1,0,1.175Zm-7.053,0a.588.588,0,1,1,0-1.175h.069l.147,1.175Zm.392-2.351h-.392a1.746,1.746,0,0,0-.41.053l-.133-.533a1.477,1.477,0,0,1-.045-.364,1.5,1.5,0,0,1,1.027-1.425l.466-.156.585-.585a1.753,1.753,0,0,1,1.247-.516h2.351a2.555,2.555,0,0,1,2.553,2.552,2.586,2.586,0,0,1-.076.619l-.1.408a1.742,1.742,0,0,0-.41-.053h-.493a1.856,1.856,0,0,1-1.271-1.763V8.053H31.563v.588a3.025,3.025,0,0,0,.373,1.449,2.13,2.13,0,0,1-1.549-2.037H29.212a3.269,3.269,0,0,0,.214,1.162Zm2.2-.177a3.29,3.29,0,0,0,2.008,1.091l1.215.173-.387,3.1a.588.588,0,0,1-.583.515H29.662a.588.588,0,0,1-.583-.515l-.417-3.334ZM24.51,23.334V21.174c0-.065-.01-.127-.015-.19h.015a1.175,1.175,0,1,1,0,2.351ZM22.747,8.053h-.216l.147-1.175h.069a.588.588,0,1,1,0,1.175Zm-7.053,0a.588.588,0,1,1,0-1.175h.069l.147,1.175ZM16.086,5.7h-.392a1.746,1.746,0,0,0-.41.053l-.1-.408a2.552,2.552,0,0,1,2.476-3.171h3.123a2.555,2.555,0,0,1,2.553,2.552,2.586,2.586,0,0,1-.076.619l-.1.408a1.742,1.742,0,0,0-.41-.053H22.2l-1.745-.249a2.134,2.134,0,0,1-1.823-2.1H17.457a3.269,3.269,0,0,0,.214,1.162Zm2.2-.177a3.29,3.29,0,0,0,2.008,1.091l1.215.173-.387,3.1a.588.588,0,0,1-.583.515H17.907a.588.588,0,0,1-.583-.515l-.417-3.334Zm.222,6.055h1.434l.294,1.175H18.27c-.021,0-.041,0-.062,0Zm-4.777,5.607.636,1.272a2.336,2.336,0,0,0-.431,1.349,2.318,2.318,0,0,0-1.106.289l-.009-.044a3.107,3.107,0,0,1,.91-2.866ZM2.176,11.579a4.7,4.7,0,0,1,9.4,0v4.215a3.432,3.432,0,0,1-.389,1.572,4.091,4.091,0,0,0-1.249-.684l-.2-.065a1.172,1.172,0,0,1-.769-.83l-.052-.209a3.34,3.34,0,0,0,1.271-2.107l.185-1.11a1.785,1.785,0,0,0,.025-.3,1.835,1.835,0,0,0-1.567-1.807l-.724-.1a2.134,2.134,0,0,1-1.823-2.1H5.114a3.269,3.269,0,0,0,.214,1.162l-.936.7a2.6,2.6,0,0,0-1.006,2.513l.174,1.043a3.342,3.342,0,0,0,1.271,2.107l-.052.209a1.172,1.172,0,0,1-.769.83l-.2.065a4.1,4.1,0,0,0-1.249.684,3.443,3.443,0,0,1-.389-1.573Zm5.867,7.053H5.713L4.96,17.445A2.337,2.337,0,0,0,5.9,16.126a3.145,3.145,0,0,0,1.951,0,2.333,2.333,0,0,0,.942,1.318ZM7.3,19.808l-.421.665-.421-.665Zm-.422-4.7A2.179,2.179,0,0,1,4.72,13.279l-.174-1.044A1.43,1.43,0,0,1,5.1,10.857l.84-.63a3.292,3.292,0,0,0,2.008,1.091l.724.1a.653.653,0,0,1,.558.644.691.691,0,0,1-.009.107L9.035,13.28a2.18,2.18,0,0,1-2.159,1.826Zm4.7,10.579h-9.4v-5.1a2.929,2.929,0,0,1,1.7-2.657l3,4.741,3-4.74a2.929,2.929,0,0,1,1.7,2.657Zm1.175-3.526a1.177,1.177,0,0,1,1.175-1.175v2.351A1.177,1.177,0,0,1,12.755,22.159Zm9.012,7.053h.752l-.686,2.058-1.561-.936Zm-2.711,4.7h.329l.783,2.351h-1.9Zm.389-1.175H19l-.589-1.178.777-.466.036.028.036-.028.777.466ZM16.608,31.27l-.686-2.058h.752l1.5,1.121Zm-14.432.293a1.177,1.177,0,0,1,1.175-1.175h.108a1.761,1.761,0,0,0,1.655,1.175H5.7V30.387H5.114a.588.588,0,1,1,0-1.175,2.265,2.265,0,0,1,1.591.659l.172.172v2.7H3.351a1.177,1.177,0,0,1-1.175-1.175Zm10.579,0v1.175h-4.7V29.212h6.63l1.273,3.82,1.441-.864.6,1.2-.964,2.893h-3.1v-4.7Zm20.571-2.351a.588.588,0,1,1,0,1.175h-.588v1.175h.588a1.761,1.761,0,0,0,1.655-1.175h.108a1.175,1.175,0,1,1,0,2.351H31.563v-2.7l.172-.172a2.265,2.265,0,0,1,1.591-.659Zm-2.939,3.526h-4.7V31.563H24.51v4.7h-3.1l-.964-2.893.6-1.2,1.441.864,1.273-3.819h6.63Zm-9.526-4.317L19.22,29.653l-1.642-1.231.156-.4c.1.008.206.016.31.016H20.4c.1,0,.207-.008.31-.016Zm2.473-4.5A2.942,2.942,0,0,1,20.4,26.861H18.045a2.942,2.942,0,0,1-2.939-2.939V19.808a1.177,1.177,0,0,1,1.175-1.175V17.457a2.326,2.326,0,0,0-.993.227l-.7-1.408a4.059,4.059,0,0,1,3.686-2.346H20.39a5.262,5.262,0,0,1,5.217,6.163,2.322,2.322,0,0,0-1.1-.285h-.416a2.478,2.478,0,0,0-1.282-.99,2.67,2.67,0,0,1-1.828-2.537H19.808a3.846,3.846,0,0,0,2.633,3.652,1.306,1.306,0,0,1,.894,1.24Zm3.526-1.763a2.321,2.321,0,0,0-.252-1.036l.126-.629a6.523,6.523,0,0,0,.109-.943,3.485,3.485,0,0,1,2.012-.9l.914,1.828L28.73,25.685H25.685v-1.5A2.343,2.343,0,0,0,26.861,22.159Z" fill="#405425"/>
    </g>
  </g>
</svg>
