<svg xmlns="http://www.w3.org/2000/svg" width="90.184" height="90.184" viewBox="0 0 90.184 90.184">
  <g id="Grupo_1180952" data-name="Grupo 1180952" transform="translate(-755.752 -1556)">
    <g id="Grupo_1177002" data-name="Grupo 1177002" transform="translate(755.752 1556)">
      <g id="Grupo_1073526" data-name="Grupo 1073526" transform="translate(0 0)">
        <g id="Grupo_1072785" data-name="Grupo 1072785" transform="translate(0 0)">
          <path id="Trazado_608385" data-name="Trazado 608385" d="M45.092,0A45.092,45.092,0,1,1,0,45.092,45.092,45.092,0,0,1,45.092,0Z" transform="translate(0 0)" fill="none"/>
        </g>
        <g id="Grupo_1073383" data-name="Grupo 1073383" transform="translate(0 0)">
          <path id="Trazado_608385-2" data-name="Trazado 608385" d="M45.092,0A45.092,45.092,0,1,1,0,45.092,45.092,45.092,0,0,1,45.092,0Z" transform="translate(0 0)" fill="#ebede8"/>
        </g>
      </g>
    </g>
    <g id="Grupo_1178609" data-name="Grupo 1178609" transform="translate(770.257 1532.505)">
      <g id="Grupo_1178608" data-name="Grupo 1178608" transform="translate(0.871 44.636)">
        <path id="Trazado_1007378" data-name="Trazado 1007378" d="M81.111,347.172l-2.283,2.284H28.74V336.87H79.06l2.051,1.584a5.657,5.657,0,0,0,0,8.718Z" transform="translate(-26.272 -303.524)" fill="#ecf4ff"/>
        <path id="Trazado_1007379" data-name="Trazado 1007379" d="M324.793,337.85v5.877a.982.982,0,0,1-1.433.872L320,342.859a.982.982,0,0,0-.9,0l-3.356,1.739a.982.982,0,0,1-1.433-.872V337.85a.982.982,0,0,1,.982-.982h8.52A.982.982,0,0,1,324.793,337.85Z" transform="translate(-278.663 -303.522)" fill="#bac0c9"/>
        <path id="Trazado_1007380" data-name="Trazado 1007380" d="M81.112,338.453a5.624,5.624,0,0,0-1.977,3.446H28.741v-5.03h50.32Z" transform="translate(-26.273 -303.523)" fill="#bac0c9"/>
        <path id="Trazado_1007381" data-name="Trazado 1007381" d="M11.568,323.81a4.365,4.365,0,0,0,4.359,4.467H63.212a2.033,2.033,0,1,1,0,4.066H15.928A8.428,8.428,0,0,1,7.5,323.888a8.508,8.508,0,0,1,8.552-8.4H63.212a2.033,2.033,0,1,1,0,4.066h-47.2a4.414,4.414,0,0,0-4.441,4.254Z" transform="translate(-7.501 -284.627)" fill="#b7e4fc"/>
        <path id="Trazado_1007382" data-name="Trazado 1007382" d="M10.745,323.886a8.508,8.508,0,0,1,8.552-8.4H16.052a8.508,8.508,0,0,0-8.552,8.4,8.428,8.428,0,0,0,8.427,8.455h3.245a8.427,8.427,0,0,1-8.427-8.455Z" transform="translate(-7.5 -284.625)" fill="#97ccfa"/>
        <g id="Grupo_1178606" data-name="Grupo 1178606" transform="translate(2.986 15.522)">
          <path id="Trazado_1007383" data-name="Trazado 1007383" d="M55.964,212.3l2.078,2.079h45.587V202.924H57.83l-1.866,1.441a5.149,5.149,0,0,1,0,7.935Z" transform="translate(-53.319 -200.663)" fill="#ecf4ff"/>
          <path id="Trazado_1007384" data-name="Trazado 1007384" d="M55.964,204.365a5.119,5.119,0,0,1,1.8,3.136h45.865v-4.578H57.83Z" transform="translate(-53.319 -200.663)" fill="#bac0c9"/>
          <path id="Trazado_1007385" data-name="Trazado 1007385" d="M82.055,191.038a3.973,3.973,0,0,1-3.967,4.065H35.052a1.85,1.85,0,0,0,0,3.7H78.088a7.67,7.67,0,0,0,7.67-7.695,7.744,7.744,0,0,0-7.784-7.644H35.052a1.85,1.85,0,0,0,0,3.7H78.013A4.017,4.017,0,0,1,82.055,191.038Z" transform="translate(-33.202 -183.464)" fill="#f5de87"/>
          <g id="Grupo_1178605" data-name="Grupo 1178605">
            <path id="Trazado_1007386" data-name="Trazado 1007386" d="M37.077,285.481a1.849,1.849,0,0,0,1.851,1.851H35.052a1.851,1.851,0,0,1,0-3.7h3.876A1.85,1.85,0,0,0,37.077,285.481Z" transform="translate(-33.201 -271.992)" fill="#f1ce73"/>
            <path id="Trazado_1007387" data-name="Trazado 1007387" d="M37.077,185.311a1.851,1.851,0,0,0,1.851,1.851H35.052a1.851,1.851,0,0,1,0-3.7h3.876A1.85,1.85,0,0,0,37.077,185.311Z" transform="translate(-33.201 -183.46)" fill="#f1ce73"/>
          </g>
        </g>
        <g id="Grupo_1178607" data-name="Grupo 1178607" transform="translate(5.903 0)">
          <path id="Trazado_1007388" data-name="Trazado 1007388" d="M114.759,78.7l-2.078,2.079H77.638V69.324h35.254l1.866,1.441a5.149,5.149,0,0,0,0,7.935Z" transform="translate(-75.392 -67.063)" fill="#ecf4ff"/>
          <path id="Trazado_1007389" data-name="Trazado 1007389" d="M114.759,70.765a5.119,5.119,0,0,0-1.8,3.136H77.638V69.324h35.254Z" transform="translate(-75.392 -67.063)" fill="#bac0c9"/>
          <path id="Trazado_1007390" data-name="Trazado 1007390" d="M62.008,57.439A3.973,3.973,0,0,0,65.975,61.5H98.467a1.85,1.85,0,1,1,0,3.7H65.975a7.67,7.67,0,0,1-7.67-7.695,7.744,7.744,0,0,1,7.784-7.644H98.467a1.85,1.85,0,1,1,0,3.7H66.05a4.017,4.017,0,0,0-4.042,3.872Z" transform="translate(-58.306 -49.865)" fill="#dd636e"/>
          <path id="Trazado_1007391" data-name="Trazado 1007391" d="M63.334,62.954A7.645,7.645,0,0,0,68.758,65.2H65.976a7.67,7.67,0,0,1-7.669-7.7,7.744,7.744,0,0,1,7.783-7.645h2.781a7.745,7.745,0,0,0-7.783,7.645A7.643,7.643,0,0,0,63.334,62.954Z" transform="translate(-58.307 -49.861)" fill="#da4a54"/>
        </g>
        <path id="Trazado_1007392" data-name="Trazado 1007392" d="M339.783,259.38v14.658l-5.242-2.715-5.241,2.715V259.38Z" transform="translate(-291.911 -235.037)" fill="#dd636e"/>
        <path id="Trazado_1007393" data-name="Trazado 1007393" d="M329.3,259.38h10.483V263.1H329.3Z" transform="translate(-291.911 -235.037)" fill="#da4a54"/>
      </g>
      <path id="Trazado_1007394" data-name="Trazado 1007394" d="M56.582,87.414h-.541a4.784,4.784,0,0,1,0-6.978h.541a2.9,2.9,0,1,0,0-5.809h-2.67a8.665,8.665,0,0,0,.871-.76,8.481,8.481,0,0,0,2.5-6.067,8.6,8.6,0,0,0-7.825-8.472,2.725,2.725,0,0,0-2.524-3.742h-.461a4.274,4.274,0,0,1,0-6.194h.461a2.722,2.722,0,0,0,0-5.443H14.558A8.612,8.612,0,0,0,5.9,52.461a8.481,8.481,0,0,0,2.5,6.067,8.665,8.665,0,0,0,.871.76H5.708a2.722,2.722,0,1,0,0,5.443h.46a4.274,4.274,0,0,1,0,6.2h-.46A2.723,2.723,0,0,0,4.426,76.05,9.275,9.275,0,0,0,9.3,93.224H56.582a2.9,2.9,0,1,0,0-5.809Zm1.162-9.883a1.164,1.164,0,0,1-1.162,1.162H49.614V76.37h6.968A1.163,1.163,0,0,1,57.744,77.532ZM9.637,57.3a6.75,6.75,0,0,1-1.991-4.829,6.867,6.867,0,0,1,6.912-6.775H46.935a.979.979,0,1,1,0,1.958H19.082a.871.871,0,1,0,0,1.743H44.26a6.025,6.025,0,0,0,0,6.194H14.444a3.1,3.1,0,0,1-3.1-3.173,3.155,3.155,0,0,1,3.171-3.021H15.6a.871.871,0,1,0,0-1.743H14.518a4.908,4.908,0,0,0-4.913,4.722,4.844,4.844,0,0,0,4.839,4.958H46.935a.979.979,0,0,1,0,1.959H14.444A6.754,6.754,0,0,1,9.637,57.3ZM5.015,62.7a.979.979,0,0,1,.693-1.67h42.92a6.869,6.869,0,0,1,6.913,6.775,6.8,6.8,0,0,1-5.927,6.764V72.59a4.847,4.847,0,0,0,3.967-4.879,4.906,4.906,0,0,0-4.912-4.722H5.708a.973.973,0,0,1-.693-.287Zm3.368,2.03H48.669a3.153,3.153,0,0,1,3.17,3.021,3.107,3.107,0,0,1-2.224,3.05V68.979a.871.871,0,0,0-.871-.871H31.507a.871.871,0,1,0,0,1.743h5.882v1.076H8.382a6.025,6.025,0,0,0,0-6.2ZM39.131,69.85h8.74V82.2L43.9,80.149a.871.871,0,0,0-.8,0L39.132,82.2V69.85ZM5.708,72.669H37.389v1.958H5.708a.979.979,0,1,1,0-1.958ZM57.4,91.14a1.154,1.154,0,0,1-.821.341H9.3A7.557,7.557,0,0,1,1.742,83.9a7.633,7.633,0,0,1,7.681-7.53H37.389v2.324H9.379a5.305,5.305,0,0,0-5.312,5.1A5.238,5.238,0,0,0,9.3,89.157H41.061a.871.871,0,0,0,0-1.743H9.3A3.495,3.495,0,0,1,5.81,83.839a3.552,3.552,0,0,1,3.57-3.4H37.389v3.2a.871.871,0,0,0,1.272.774L43.5,81.9l4.841,2.508a.871.871,0,0,0,1.272-.774v-3.2H53.8a6.528,6.528,0,0,0,0,6.978H44.547a.871.871,0,1,0,0,1.743H56.582A1.161,1.161,0,0,1,57.4,91.14Z" transform="translate(0 0)"/>
    </g>
  </g>
</svg>
