<svg xmlns="http://www.w3.org/2000/svg" width="80" height="80" viewBox="0 0 80 80">
  <g id="Grupo_1176956" data-name="Grupo 1176956" transform="translate(-179.668 -5521)">
    <rect id="Rectángulo_402006" data-name="Rectángulo 402006" width="80" height="80" rx="5" transform="translate(179.668 5521)" fill="#c8bf57"/>
    <g id="Grupo_1178521" data-name="Grupo 1178521" transform="translate(190.378 5531.71)">
      <path id="Trazado_998108" data-name="Trazado 998108" d="M1,61H57.58v1.825H1Z" transform="translate(0 -5.245)" fill="#405425"/>
      <path id="Trazado_998109" data-name="Trazado 998109" d="M25.071,7.311a22.859,22.859,0,0,1,21.135,4.783L44.03,14.271l10.34,2.584L51.785,6.516l-1.7,1.7a28.328,28.328,0,0,0-26.412-6.2L23,2.2v5.23l1.868-.088ZM24.825,3.6a26.495,26.495,0,0,1,24.652,6.543l.645.615.673-.673,1.066,4.262L47.6,13.282l1.236-1.236-.681-.644A24.678,24.678,0,0,0,24.825,5.486Z" transform="translate(-1.923)" fill="#405425"/>
      <path id="Trazado_998110" data-name="Trazado 998110" d="M2.017,37.325,2.2,38h5.23l-.088-1.868-.033-.2a22.867,22.867,0,0,1,4.784-21.136l2.177,2.177,2.584-10.34L6.516,9.21l1.7,1.7a28.328,28.328,0,0,0-6.2,26.412Zm8.128-25.807.615-.645-.673-.673,4.262-1.066L13.282,13.4l-1.236-1.237-.644.681A24.679,24.679,0,0,0,5.486,36.17H3.6a26.495,26.495,0,0,1,6.543-24.652Z" transform="translate(0 -0.492)" fill="#405425"/>
      <path id="Trazado_998111" data-name="Trazado 998111" d="M55.137,21.868l.033.2a22.861,22.861,0,0,1-4.783,21.136L48.21,41.03l-2.584,10.34,10.34-2.584-1.7-1.7a28.328,28.328,0,0,0,6.2-26.412L60.28,20H55.05Zm3.743-.043a26.495,26.495,0,0,1-6.543,24.652l-.615.645.673.673-4.262,1.066L49.2,44.6l1.236,1.237.644-.681a24.679,24.679,0,0,0,5.916-23.33Z" transform="translate(-3.901 -1.661)" fill="#405425"/>
      <path id="Trazado_998112" data-name="Trazado 998112" d="M22,39h1.825v1.825H22Z" transform="translate(-1.836 -3.322)" fill="#405425"/>
      <path id="Trazado_998113" data-name="Trazado 998113" d="M14,39h1.825v1.825H14Z" transform="translate(-1.136 -3.322)" fill="#405425"/>
      <path id="Trazado_998114" data-name="Trazado 998114" d="M18,39h1.825v1.825H18Z" transform="translate(-1.486 -3.322)" fill="#405425"/>
      <path id="Trazado_998115" data-name="Trazado 998115" d="M18,43h1.825v1.825H18Z" transform="translate(-1.486 -3.672)" fill="#405425"/>
      <path id="Trazado_998116" data-name="Trazado 998116" d="M14,43h1.825v1.825H14Z" transform="translate(-1.136 -3.672)" fill="#405425"/>
      <path id="Trazado_998117" data-name="Trazado 998117" d="M22,43h1.825v1.825H22Z" transform="translate(-1.836 -3.672)" fill="#405425"/>
      <path id="Trazado_998118" data-name="Trazado 998118" d="M18,47h1.825v1.825H18Z" transform="translate(-1.486 -4.021)" fill="#405425"/>
      <path id="Trazado_998119" data-name="Trazado 998119" d="M22,47h1.825v1.825H22Z" transform="translate(-1.836 -4.021)" fill="#405425"/>
      <path id="Trazado_998120" data-name="Trazado 998120" d="M14,47h1.825v1.825H14Z" transform="translate(-1.136 -4.021)" fill="#405425"/>
      <path id="Trazado_998121" data-name="Trazado 998121" d="M14,51h1.825v1.825H14Z" transform="translate(-1.136 -4.371)" fill="#405425"/>
      <path id="Trazado_998122" data-name="Trazado 998122" d="M22,51h1.825v1.825H22Z" transform="translate(-1.836 -4.371)" fill="#405425"/>
      <path id="Trazado_998123" data-name="Trazado 998123" d="M18,51h1.825v1.825H18Z" transform="translate(-1.486 -4.371)" fill="#405425"/>
      <path id="Trazado_998124" data-name="Trazado 998124" d="M16,31h1.825v1.825H16Z" transform="translate(-1.311 -2.623)" fill="#405425"/>
      <path id="Trazado_998125" data-name="Trazado 998125" d="M24,31h1.825v1.825H24Z" transform="translate(-2.011 -2.623)" fill="#405425"/>
      <path id="Trazado_998126" data-name="Trazado 998126" d="M20,31h1.825v1.825H20Z" transform="translate(-1.661 -2.623)" fill="#405425"/>
      <path id="Trazado_998127" data-name="Trazado 998127" d="M28,31h1.825v1.825H28Z" transform="translate(-2.36 -2.623)" fill="#405425"/>
      <path id="Trazado_998128" data-name="Trazado 998128" d="M24,27h1.825v1.825H24Z" transform="translate(-2.011 -2.273)" fill="#405425"/>
      <path id="Trazado_998129" data-name="Trazado 998129" d="M28,27h1.825v1.825H28Z" transform="translate(-2.36 -2.273)" fill="#405425"/>
      <path id="Trazado_998130" data-name="Trazado 998130" d="M20,27h1.825v1.825H20Z" transform="translate(-1.661 -2.273)" fill="#405425"/>
      <path id="Trazado_998131" data-name="Trazado 998131" d="M16,27h1.825v1.825H16Z" transform="translate(-1.311 -2.273)" fill="#405425"/>
      <path id="Trazado_998132" data-name="Trazado 998132" d="M16,23h1.825v1.825H16Z" transform="translate(-1.311 -1.923)" fill="#405425"/>
      <path id="Trazado_998133" data-name="Trazado 998133" d="M24,23h1.825v1.825H24Z" transform="translate(-2.011 -1.923)" fill="#405425"/>
      <path id="Trazado_998134" data-name="Trazado 998134" d="M20,23h1.825v1.825H20Z" transform="translate(-1.661 -1.923)" fill="#405425"/>
      <path id="Trazado_998135" data-name="Trazado 998135" d="M28,23h1.825v1.825H28Z" transform="translate(-2.36 -1.923)" fill="#405425"/>
      <path id="Trazado_998136" data-name="Trazado 998136" d="M40.241,40.9h2.738a6.4,6.4,0,0,0,6.388-6.388V33.6H44.8a6.364,6.364,0,0,0-4.563,1.926V31.776h2.738a6.4,6.4,0,0,0,6.388-6.388v-.913H44.8a6.365,6.365,0,0,0-4.612,1.98,6.4,6.4,0,0,0-6.339-5.631H31.115V19H11.038V33.6H9.213V51.853H1v1.825H57.58V51.853H40.241ZM44.8,35.426H47.45a4.571,4.571,0,0,1-4.471,3.65H40.333A4.57,4.57,0,0,1,44.8,35.426Zm0-9.126H47.45a4.571,4.571,0,0,1-4.471,3.65H40.333A4.57,4.57,0,0,1,44.8,26.3ZM38.416,51.853h-7.3V35.325a6.364,6.364,0,0,0,4.563,1.926h2.738v14.6ZM31.207,31.776h2.646a4.57,4.57,0,0,1,4.471,3.65H35.678A4.57,4.57,0,0,1,31.207,31.776Zm2.646-9.126a4.57,4.57,0,0,1,4.471,3.65H35.678a4.57,4.57,0,0,1-4.471-3.65Zm1.825,5.475h2.738v3.752a6.364,6.364,0,0,0-4.563-1.926H31.115V26.2A6.364,6.364,0,0,0,35.678,28.126Zm-22.815-7.3H29.29V51.853H25.64V33.6H12.864Zm-1.825,14.6H23.815V51.853H11.038Z" transform="translate(0 -1.574)" fill="#405425"/>
    </g>
  </g>
</svg>
