<svg xmlns="http://www.w3.org/2000/svg" xmlns:xlink="http://www.w3.org/1999/xlink" width="180.985" height="113.2" viewBox="0 0 180.985 113.2">
  <defs>
    <clipPath id="clip-path">
      <rect id="Rectángulo_455147" data-name="Rectángulo 455147" width="180.985" height="113.2" fill="none"/>
    </clipPath>
  </defs>
  <g id="Grupo_1178625" data-name="Grupo 1178625" transform="translate(0 0)">
    <g id="Grupo_1178624" data-name="Grupo 1178624" transform="translate(0 0)" clip-path="url(#clip-path)">
      <path id="Trazado_1007466" data-name="Trazado 1007466" d="M26.9,110.468S4.911,7.829,51.139,1.111c64.514-9.374,50.516,43.673,50.516,43.673s16.869-10.665,32.869.853c22.2,15.978-13.218,64.744-13.218,64.744Z" transform="translate(12.809 0)" fill="#f0f8ff"/>
      <path id="Trazado_1007467" data-name="Trazado 1007467" d="M39.707,95.4S-10.213,51.6,1.893,34.379c14.058-19.994,37.328,0,37.328,0Z" transform="translate(0 15.067)" fill="#f0f8ff"/>
      <path id="Trazado_1007468" data-name="Trazado 1007468" d="M109.589,86.887s30.39-25.652,16.736-33.947c0,0-7.863-2.391-14.774,14.94,0,0,15.972-26.543,6-29.206,0,0-8.935-8.537-14.827,23.719,0,0,3.328-19.832-5.414-21.956,0,0-19.234-8-6.358,45.021Z" transform="translate(51.133 22.252)" fill="#519457"/>
      <path id="Trazado_1007469" data-name="Trazado 1007469" d="M173.282,70.085c0,2.288-36.962,4.145-82.557,4.145S8.167,72.372,8.167,70.085,45.129,65.94,90.724,65.94s82.557,1.855,82.557,4.145" transform="translate(4.827 38.971)" fill="#bad3e2"/>
      <path id="Trazado_1007470" data-name="Trazado 1007470" d="M22.279,71.568H92.27L94.412,34.9H20.141Z" transform="translate(11.903 20.627)" fill="#feb824"/>
      <path id="Trazado_1007471" data-name="Trazado 1007471" d="M55.231,41.094c0,4.593-4.708,8.323-10.52,8.323l-23.851.208-.943-16.852H44.711c5.812,0,10.52,3.725,10.52,8.321" transform="translate(11.771 19.369)" fill="#e08b03"/>
      <path id="Trazado_1007472" data-name="Trazado 1007472" d="M74.45,91.676H29.6A4.184,4.184,0,0,1,25.433,87.5V8.35A4.184,4.184,0,0,1,29.6,4.18H74.45a4.184,4.184,0,0,1,4.172,4.17V87.5a4.184,4.184,0,0,1-4.172,4.172" transform="translate(15.031 2.471)" fill="#cee8ef"/>
      <path id="Trazado_1007473" data-name="Trazado 1007473" d="M74.9,4.18H29.158A3.735,3.735,0,0,0,25.433,7.9v8.945H78.62V7.9A3.734,3.734,0,0,0,74.9,4.18" transform="translate(15.031 2.471)" fill="#b7d9f7"/>
      <path id="Trazado_1007474" data-name="Trazado 1007474" d="M75.782,91.676H30.937A4.184,4.184,0,0,1,26.765,87.5V8.35a4.184,4.184,0,0,1,4.172-4.17H75.782a4.184,4.184,0,0,1,4.172,4.17V87.5a4.184,4.184,0,0,1-4.172,4.172" transform="translate(15.818 2.471)" fill="#fff"/>
      <path id="Trazado_1007475" data-name="Trazado 1007475" d="M76.6,4.18H30.115a3.36,3.36,0,0,0-3.349,3.351v9.319H79.953V7.531A3.361,3.361,0,0,0,76.6,4.18" transform="translate(15.819 2.471)" fill="#c1e3fb"/>
      <path id="Trazado_1007476" data-name="Trazado 1007476" d="M33.934,8.845a1.809,1.809,0,1,1-1.809-1.809,1.809,1.809,0,0,1,1.809,1.809" transform="translate(17.917 4.159)" fill="#f0f8ff"/>
      <path id="Trazado_1007477" data-name="Trazado 1007477" d="M37.931,8.845a1.809,1.809,0,1,1-1.809-1.809,1.809,1.809,0,0,1,1.809,1.809" transform="translate(20.279 4.159)" fill="#f0f8ff"/>
      <path id="Trazado_1007478" data-name="Trazado 1007478" d="M41.7,8.845a1.809,1.809,0,1,1-1.809-1.809A1.809,1.809,0,0,1,41.7,8.845" transform="translate(22.505 4.159)" fill="#f0f8ff"/>
      <path id="Trazado_1007479" data-name="Trazado 1007479" d="M62.784,18.743H39.956a.741.741,0,0,1-.74-.74V16.655a.741.741,0,0,1,.74-.738H62.784a.741.741,0,0,1,.74.74V18a.741.741,0,0,1-.74.74" transform="translate(23.177 9.407)" fill="#cee8ef"/>
      <path id="Trazado_1007480" data-name="Trazado 1007480" d="M62.784,22.74H39.956a.741.741,0,0,1-.74-.74V20.654a.741.741,0,0,1,.74-.74H62.784a.741.741,0,0,1,.74.74V22a.741.741,0,0,1-.74.74" transform="translate(23.177 11.77)" fill="#cee8ef"/>
      <path id="Trazado_1007481" data-name="Trazado 1007481" d="M62.784,30.733H39.956a.741.741,0,0,1-.74-.74V28.647a.741.741,0,0,1,.74-.74H62.784a.741.741,0,0,1,.74.74v1.346a.741.741,0,0,1-.74.74" transform="translate(23.177 16.494)" fill="#cee8ef"/>
      <path id="Trazado_1007482" data-name="Trazado 1007482" d="M62.784,34.729H39.956a.741.741,0,0,1-.74-.74V32.643a.741.741,0,0,1,.74-.74H62.784a.741.741,0,0,1,.74.74v1.346a.741.741,0,0,1-.74.74" transform="translate(23.177 18.855)" fill="#cee8ef"/>
      <path id="Trazado_1007483" data-name="Trazado 1007483" d="M62.784,42.722H39.956a.741.741,0,0,1-.74-.74V40.634a.741.741,0,0,1,.74-.738H62.784a.741.741,0,0,1,.74.74v1.346a.741.741,0,0,1-.74.74" transform="translate(23.177 23.579)" fill="#cee8ef"/>
      <path id="Trazado_1007484" data-name="Trazado 1007484" d="M62.784,46.719H39.956a.741.741,0,0,1-.74-.74V44.633a.741.741,0,0,1,.74-.74H62.784a.741.741,0,0,1,.74.74v1.346a.741.741,0,0,1-.74.74" transform="translate(23.177 25.941)" fill="#cee8ef"/>
      <path id="Trazado_1007485" data-name="Trazado 1007485" d="M37.675,24.614H31.708a1.394,1.394,0,0,1-1.391-1.391V17.254a1.394,1.394,0,0,1,1.391-1.389h5.968a1.394,1.394,0,0,1,1.391,1.389v5.969a1.394,1.394,0,0,1-1.391,1.391" transform="translate(17.918 9.377)" fill="#cee8ef"/>
      <path id="Trazado_1007486" data-name="Trazado 1007486" d="M37.675,36.667H31.708a1.394,1.394,0,0,1-1.391-1.391V29.309a1.394,1.394,0,0,1,1.391-1.391h5.968a1.394,1.394,0,0,1,1.391,1.391v5.968a1.394,1.394,0,0,1-1.391,1.391" transform="translate(17.918 16.5)" fill="#cee8ef"/>
      <path id="Trazado_1007487" data-name="Trazado 1007487" d="M37.675,48.453H31.708a1.394,1.394,0,0,1-1.391-1.391V41.093A1.394,1.394,0,0,1,31.708,39.7h5.968a1.394,1.394,0,0,1,1.391,1.389v5.969a1.394,1.394,0,0,1-1.391,1.391" transform="translate(17.918 23.466)" fill="#cee8ef"/>
      <path id="Trazado_1007488" data-name="Trazado 1007488" d="M31.09,17.91l3.573,6.38,6.431-11.933-6.471,7.3Z" transform="translate(18.375 7.303)" fill="#b4a4f5"/>
      <path id="Trazado_1007489" data-name="Trazado 1007489" d="M31.09,30.15l3.573,6.38L41.095,24.6l-6.471,7.3Z" transform="translate(18.375 14.537)" fill="#b4a4f5"/>
      <path id="Trazado_1007490" data-name="Trazado 1007490" d="M96.059,43.662l.395-6.767H70.592c-5.363,0-9.821,2.916-10.782,6.767h-41.2l2.234,36.668H93.85l1.618-26.583,0-.027.611-10.058Z" transform="translate(10.997 21.805)" fill="#feb801"/>
      <path id="Trazado_1007491" data-name="Trazado 1007491" d="M48.59,70.673l-3.99-.711,3.806-3.182c.893.391.185,3.893.185,3.893" transform="translate(26.359 39.468)" fill="#9bc3ea"/>
      <path id="Trazado_1007492" data-name="Trazado 1007492" d="M76.838,77.149S69.9,54.487,54.468,59.844,33.725,72.817,27.786,69.827s-6.06-9.554-3.32-16.814l-.722-11.866s-27.79,24.573-4.571,38.873c10.552,6.5,26.557-1.251,30.018-3.349,9.107-5.518,21-2.336,19.9,9.15Z" transform="translate(5.861 24.319)" fill="#b5d6fc"/>
      <path id="Trazado_1007493" data-name="Trazado 1007493" d="M20.4,50.6l-5.586-3.031a.382.382,0,1,1,.364-.671l5.586,3.031a.382.382,0,1,1-.364.671" transform="translate(8.638 27.688)" fill="#9bc3ea"/>
      <path id="Trazado_1007494" data-name="Trazado 1007494" d="M18.846,53.1,13.26,50.07a.382.382,0,1,1,.364-.671l5.586,3.031a.382.382,0,1,1-.364.671" transform="translate(7.719 29.168)" fill="#9bc3ea"/>
      <path id="Trazado_1007495" data-name="Trazado 1007495" d="M18.789,55.419,12.532,54.3a.382.382,0,0,1,.134-.753l6.257,1.115a.382.382,0,1,1-.134.753" transform="translate(7.221 31.646)" fill="#9bc3ea"/>
      <path id="Trazado_1007496" data-name="Trazado 1007496" d="M19.107,57.023l-6.234,1.243a.383.383,0,0,1-.15-.751l6.234-1.241a.382.382,0,1,1,.15.749" transform="translate(7.339 33.254)" fill="#9bc3ea"/>
      <path id="Trazado_1007497" data-name="Trazado 1007497" d="M20.056,59.556l-5.9,2.352a.382.382,0,1,1-.283-.71l5.9-2.352a.382.382,0,0,1,.283.71" transform="translate(8.054 34.763)" fill="#9bc3ea"/>
      <path id="Trazado_1007498" data-name="Trazado 1007498" d="M21.838,61.195l-4.076,4.876a.382.382,0,0,1-.587-.49L21.251,60.7a.382.382,0,0,1,.587.49" transform="translate(10.098 35.796)" fill="#9bc3ea"/>
      <path id="Trazado_1007499" data-name="Trazado 1007499" d="M21.838,61.195l-4.076,4.876a.382.382,0,0,1-.587-.49L21.251,60.7a.382.382,0,0,1,.587.49" transform="translate(10.098 35.796)" fill="#9bc3ea"/>
      <path id="Trazado_1007500" data-name="Trazado 1007500" d="M24.772,61.415l-2.264,5.938a.382.382,0,1,1-.714-.272l2.264-5.938a.382.382,0,1,1,.714.272" transform="translate(12.865 35.991)" fill="#9bc3ea"/>
      <path id="Trazado_1007501" data-name="Trazado 1007501" d="M26.8,60.714l.831,6.3a.38.38,0,0,1-.328.428.384.384,0,0,1-.43-.329l-.831-6.3a.382.382,0,1,1,.757-.1" transform="translate(15.391 35.686)" fill="#9bc3ea"/>
      <path id="Trazado_1007502" data-name="Trazado 1007502" d="M30.534,58.865l1.142,6.253a.382.382,0,0,1-.751.137L29.781,59a.382.382,0,0,1,.753-.137" transform="translate(17.597 34.605)" fill="#9bc3ea"/>
      <path id="Trazado_1007503" data-name="Trazado 1007503" d="M33.814,57.169l1.836,6.086a.382.382,0,1,1-.732.22L33.082,57.39a.382.382,0,1,1,.732-.221" transform="translate(19.542 33.627)" fill="#9bc3ea"/>
      <path id="Trazado_1007504" data-name="Trazado 1007504" d="M37.539,55.64l.835,6.3a.383.383,0,0,1-.759.1l-.834-6.3a.382.382,0,1,1,.757-.1" transform="translate(21.736 32.687)" fill="#9bc3ea"/>
      <path id="Trazado_1007505" data-name="Trazado 1007505" d="M42.189,55.421,41.04,61.672a.382.382,0,1,1-.751-.138l1.149-6.251a.382.382,0,1,1,.751.138" transform="translate(23.807 32.487)" fill="#9bc3ea"/>
      <path id="Trazado_1007506" data-name="Trazado 1007506" d="M46.477,56.718l-2.912,5.65a.382.382,0,0,1-.679-.35l2.912-5.65a.382.382,0,1,1,.679.35" transform="translate(25.321 33.192)" fill="#9bc3ea"/>
      <path id="Trazado_1007507" data-name="Trazado 1007507" d="M49.675,58.711l-3.729,5.147a.382.382,0,0,1-.619-.449l3.729-5.147a.382.382,0,0,1,.619.449" transform="translate(26.746 34.341)" fill="#9bc3ea"/>
      <path id="Trazado_1007508" data-name="Trazado 1007508" d="M51.275,60.987l-3.729,5.147a.382.382,0,1,1-.619-.449l3.729-5.147a.382.382,0,0,1,.619.449" transform="translate(27.691 35.686)" fill="#9bc3ea"/>
      <path id="Trazado_1007509" data-name="Trazado 1007509" d="M68.228,23.479c.6,1.426,1.276,6.156-1.7,6.342-1.27.08-3.2-2.307-3.537-4.6-.145-.943.7-2.34,2.251-3.061a2.244,2.244,0,0,1,2.985,1.319" transform="translate(37.219 12.995)" fill="#fbb99d"/>
      <path id="Trazado_1007510" data-name="Trazado 1007510" d="M67.864,25.985s-1.7,2.029,0,3.7-4.466.862-4.466.862l.706-6.012Z" transform="translate(37.469 14.498)" fill="#fbb99d"/>
      <path id="Trazado_1007511" data-name="Trazado 1007511" d="M63.967,32.837a2.419,2.419,0,0,0-1-3.091c-.684-.3-1.526.388-2.175,1.083C59.233,32.5,55.73,40.339,57.682,42.3c1.841,1.852,5.168-5.869,6.284-9.465" transform="translate(33.75 17.537)" fill="#fbb99d"/>
      <path id="Trazado_1007512" data-name="Trazado 1007512" d="M61.047,38.4s3.607,1.768,3.9,2c1.849,1.473,3.04,1.826,2.635,2.067-.746.442-3.247-.722-3.624-.889A17.153,17.153,0,0,1,62,40.492a7.778,7.778,0,0,1-.953-2.087" transform="translate(36.079 22.698)" fill="#fbb99d"/>
      <path id="Trazado_1007513" data-name="Trazado 1007513" d="M57.743,38.809c1.741,1.674,8.447,4.307,8.447,4.307V41.151l-6.666-5.319s-3.519,1.3-1.78,2.977" transform="translate(33.841 21.177)" fill="#fbb99d"/>
      <path id="Trazado_1007514" data-name="Trazado 1007514" d="M58.063,34.307s2.205-7.051,5.363-6.1-.368,8.3-.368,8.3-3.631-.431-5-2.2" transform="translate(34.316 16.618)" fill="#fec44f"/>
      <path id="Trazado_1007515" data-name="Trazado 1007515" d="M58.165,62.974a5.872,5.872,0,0,1-.5,2.94c-.6,1.333,2.3,4.671,4.18,5.185.826.226,1.671-.733.557-1.714-2.464-2.165-1.09-5.686-1.09-5.686Z" transform="translate(34.035 37.218)" fill="#fbb99d"/>
      <path id="Trazado_1007516" data-name="Trazado 1007516" d="M58.134,64.646s1.935,5.22,4.188,3.392c0,0,2.025.566,1.78,1.426s-2.412.959-3.766.126c-1.707-1.053-2.24-1.23-2.87-1.994-1.356-1.645.668-2.95.668-2.95" transform="translate(33.686 38.206)" fill="#53424d"/>
      <path id="Trazado_1007517" data-name="Trazado 1007517" d="M59.546,55.208c-.173.492-.652,2.714-1.209,4.744-1.216,4.42-.506,10-.208,11.874a6.37,6.37,0,0,1,.048,1.141c-.038,1.72,1.974,2.531,2.119,2.221,1.031-2.208,5.265-13.294,5.276-18.316.016-7.333-1.37-14.828-6.025-1.664" transform="translate(34.072 28.366)" fill="#fbb99d"/>
      <path id="Trazado_1007518" data-name="Trazado 1007518" d="M67.963,37.238S62.876,38,62.518,44.5,54.5,81.61,54.5,81.61a22.707,22.707,0,0,0,12.135,1.836l7.955-46.208Z" transform="translate(32.21 22.008)" fill="#94b8ed"/>
      <path id="Trazado_1007519" data-name="Trazado 1007519" d="M75.548,66.291a6.137,6.137,0,0,1,1.591,2.674c.422,1.468,4.988,2.161,6.829,1.3.81-.377-.224-1.392-1.747-1.68-2.525-.476-3.675-3.847-3.675-3.847Z" transform="translate(44.649 38.263)" fill="#fbb99d"/>
      <path id="Trazado_1007520" data-name="Trazado 1007520" d="M76.314,66.785s5.037,2.762,5.9.648c0,0,2.143.477,1.936,1.387s-2.339,1.223-3.941.783c-2.388-.659-1.8-.4-2.781-.719a1.754,1.754,0,0,1-1.115-2.1" transform="translate(45.076 39.471)" fill="#53424d"/>
      <path id="Trazado_1007521" data-name="Trazado 1007521" d="M69.932,60.033c.194.509,1.314,2.6,2.242,4.593,2.019,4.337,6.353,8.3,7.856,9.587a6.671,6.671,0,0,1,.808.875c1.133,1.4,3.282.681,3.187.336-.671-2.453-4.792-14.134-8.175-18.137-4.94-5.845-11.107-10.875-5.919,2.746" transform="translate(40.168 30.34)" fill="#fbb99d"/>
      <path id="Trazado_1007522" data-name="Trazado 1007522" d="M90.3,81.855a13.957,13.957,0,0,1-5.292,2.978,2.565,2.565,0,0,1-.463.14,12.17,12.17,0,0,1-3.064.4h-.216a10.4,10.4,0,0,1-2.954-.433S67.787,55.869,63.965,49.369s1.7-12.131,1.7-12.131l7.279,1Z" transform="translate(37.008 22.008)" fill="#b3d0ff"/>
      <path id="Trazado_1007523" data-name="Trazado 1007523" d="M70.8,27.824a14.835,14.835,0,0,0-8.881.619c-4.278,1.723-.353,8.6.06,9.7,2.153,5.744-1.327,5.4-.643,6.695,1.225,2.326,7.177,2.614,10.921,1.309,1.462-.511,2.639-1.456,2.277-2.1-2.581-4.616-.522-6.91-.649-9.958C73.754,30.96,73.6,28.5,70.8,27.824" transform="translate(35.423 16.204)" fill="#feb801"/>
      <path id="Trazado_1007524" data-name="Trazado 1007524" d="M70.434,30.4a2.419,2.419,0,0,0-3.142-.827c-.625.414-.5,1.5-.263,2.415.562,2.211,4.706,8.921,7.847,8.878,2.612-.035-2.019-7.583-4.442-10.466" transform="translate(39.5 17.294)" fill="#fbb99d"/>
      <path id="Trazado_1007525" data-name="Trazado 1007525" d="M68.677,36.045s-4.741-5.666-2.237-7.81,6.789,4.8,6.789,4.8-2.324,2.822-4.552,3.015" transform="translate(38.835 16.444)" fill="#feb801"/>
      <path id="Trazado_1007526" data-name="Trazado 1007526" d="M70.175,20.586c2.647.2,3.476,2.205,2.337,4.479-1.809,3.608,3.012,2.267.465,6.186-2.019,3.109-.971,2.659.407,6.222,3.928,10.182-10.711,11.654-16.572,6.51-2.873-2.523-3.128-10.887,2.7-15.215,2.043-1.518,4.254-3.449,4.8-4.829.762-1.941,1.973-3.651,5.871-3.354" transform="translate(32.407 12.147)" fill="#53424d"/>
      <path id="Trazado_1007527" data-name="Trazado 1007527" d="M75.426,34.251s2.13-2.452,2.7-2.13S76.9,33.814,76.9,33.814Z" transform="translate(44.577 18.967)" fill="#fbb99d"/>
      <path id="Trazado_1007528" data-name="Trazado 1007528" d="M74.57,35.075s3.437-2.081,3.785-2.2c2.24-.761,2.7-1.133,2.681-.662-.032.867-1.866,2.111-2.211,2.339a15.105,15.105,0,0,1-1.982.846,7.771,7.771,0,0,1-2.272-.325" transform="translate(44.071 18.916)" fill="#fbb99d"/>
      <path id="Trazado_1007529" data-name="Trazado 1007529" d="M72.834,38.539c2.829-.714,7.973-4.832,7.973-4.832L79.32,33.1l-7.939,2.348s-.888,3.682,1.453,3.091" transform="translate(42.089 19.562)" fill="#fbb99d"/>
      <path id="Trazado_1007530" data-name="Trazado 1007530" d="M93.541,29.263h0c.7.053,1.112-.584,1.631-.49,3.882.7,7.373,1.056,10,1.449,1.815.272,3.128.753,3.5,1.416.686,1.235-3.939,1.274-1.379,4.31a20.453,20.453,0,0,0-2.312,4.375c-2.436,6.44.525,6.743-.25,8.2-1.387,2.609-7.152,2.239-11.4.772-1.661-.574-2.239-.791-1.966-1.581,1.965-5.71-.511-9.524.885-12.648.229-.512-.81.185-.692-.391,2.813-4.662,1.989-5.408,1.989-5.408" transform="translate(53.956 16.999)" fill="#ff4650"/>
      <path id="Trazado_1007531" data-name="Trazado 1007531" d="M104.457,62.319a10.744,10.744,0,0,0,.87,2.912c.552,1.074-1.755,3.917-3.3,4.407-.681.215-.646-.939.111-1.9a2.608,2.608,0,0,0-.14-3.6Z" transform="translate(60.01 36.831)" fill="#fbb99d"/>
      <path id="Trazado_1007532" data-name="Trazado 1007532" d="M105.108,63.663s-1.456,4.291-3.117,3.532c0,0-1,1.422-.382,1.836s2.043-.546,2.743-1.656c1.045-1.659.838-1.195,1.244-1.9a1.371,1.371,0,0,0-.488-1.809" transform="translate(59.933 37.626)" fill="#53424d"/>
      <path id="Trazado_1007533" data-name="Trazado 1007533" d="M100.855,56.338c.325.286,4.35,3.632,5.6,7.685.094.3.95,3.9.972,4.21.094,1.41-1.559,2.148-1.691,1.9C104.8,68.355,97.2,60.838,97.1,56.714c-.065-2.9,1.764-2.13,3.75-.375" transform="translate(57.388 32.373)" fill="#fbb99d"/>
      <path id="Trazado_1007534" data-name="Trazado 1007534" d="M103.56,42.1c3.067,6.267.958,5.923.558,18.572a5.22,5.22,0,0,0,.492,1.685l5.47,15.035c.18.469-3.752,3.892-4.581,2-.98-2.245-6.883-10.248-8.224-15.08-1.96-7.056-2.762-20.491-2.331-23.851l7.342-.495A7.2,7.2,0,0,1,103.56,42.1" transform="translate(56.046 23.617)" fill="#5a7fe5"/>
      <path id="Trazado_1007535" data-name="Trazado 1007535" d="M94.06,64.932a10.753,10.753,0,0,0-.444,3c.048,1.2-3.255,2.843-4.873,2.654-.71-.083-.188-1.117.91-1.685a2.617,2.617,0,0,0,1.4-3.325Z" transform="translate(52.256 38.375)" fill="#fbb99d"/>
      <path id="Trazado_1007536" data-name="Trazado 1007536" d="M93.772,66.3s-3.144,3.3-4.331,1.936c0,0-1.511.885-1.126,1.515s2.087.339,3.2-.385c1.653-1.08,1.268-.743,1.938-1.222a1.363,1.363,0,0,0,.323-1.844" transform="translate(52.158 39.185)" fill="#53424d"/>
      <path id="Trazado_1007537" data-name="Trazado 1007537" d="M92.674,58.341c.173.393,2.415,5.082,1.834,9.279-.043.313-.788,3.93-.9,4.223-.512,1.322-2.328,1.317-2.342,1.036-.1-2-3.822-11.94-2.157-15.729,1.169-2.668,2.506-1.216,3.567,1.192" transform="translate(52.41 32.931)" fill="#fbb99d"/>
      <path id="Trazado_1007538" data-name="Trazado 1007538" d="M101.476,40.258c1.414,8.644-3.74,10.4-5.839,22.3a9.5,9.5,0,0,0-.08,1.752L96,80.144c.582,1.475-5.3,2.724-5.629.511-.353-2.42-2.969-12.925-2.678-17.926.425-7.3,4.569-19.727,6.065-22.769l6.34.414Z" transform="translate(51.815 23.617)" fill="#5a7fe5"/>
      <path id="Trazado_1007539" data-name="Trazado 1007539" d="M91.681,40.714c-2.407-1.308-7.56-7.658-7.56-7.658l1.807-.228,7.78,5.265s.382,3.927-2.027,2.62" transform="translate(49.716 19.402)" fill="#fbb99d"/>
      <path id="Trazado_1007540" data-name="Trazado 1007540" d="M83.011,33.062a.548.548,0,0,1-.067-.142c-.04-.129.067-.185.06-.3s-.134-.2-.205-.266a1.464,1.464,0,0,1-.379-.431c-.051-.118,0-.183.13-.183a1.556,1.556,0,0,1,.193.027.123.123,0,0,0,.1-.016c.105-.084-.115-.337-.165-.4a.387.387,0,0,1-.11-.277.086.086,0,0,1,.014-.04.081.081,0,0,1,.04-.029.319.319,0,0,1,.229.038.275.275,0,0,0,.228.025c.1-.048.115-.186.175-.27.075-.1.151-.07.251-.022a1.448,1.448,0,0,1,.29.25c.105.088.2.186.307.277a3.794,3.794,0,0,0,.749.509,1.866,1.866,0,0,0,.831.243c.108,0,.218.043.293-.072a.458.458,0,0,0,.049-.258,2.559,2.559,0,0,1,.011-.706.4.4,0,0,1,.186-.274c.307-.148.372.364.4.554a2.609,2.609,0,0,0,.041.42c.04.13.11.25.143.385a2.418,2.418,0,0,1,.067.412c.01.116.014.234.013.35a1.6,1.6,0,0,0,.041.485,2.429,2.429,0,0,0,.194.487,3.649,3.649,0,0,0,.62.838.265.265,0,0,1,.084.129.269.269,0,0,1-.08.2,1.223,1.223,0,0,1-.194.212.994.994,0,0,1-.473.172,5.851,5.851,0,0,1-.625,0,.836.836,0,0,1-.477-.127,5.167,5.167,0,0,1-.818-.743,4.288,4.288,0,0,0-.807-.643c-.258-.145-.544-.235-.805-.372a1.445,1.445,0,0,1-.531-.438" transform="translate(48.699 18.153)" fill="#fbb99d"/>
      <path id="Trazado_1007541" data-name="Trazado 1007541" d="M93.631,30.123c.819-1.076,2.6-1.836,3.885-1.069.73.436.866,1.675.649,2.732-.52,2.538-5.263,12.405-8.407,9.344-1.115-1.085-1.451-1.394-.967-3.021.805-2.713,3.22-5.863,4.84-7.985" transform="translate(52.349 16.987)" fill="#ff4650"/>
      <path id="Trazado_1007542" data-name="Trazado 1007542" d="M95.118,32.25s.251-5.016-2.522.2c0,0-4.633,6.345,1.691,7.656,5.16,1.069,1.688-6.537,1.688-6.537Z" transform="translate(53.757 17.778)" fill="#ff4650"/>
      <path id="Trazado_1007543" data-name="Trazado 1007543" d="M90.852,34.828a3.2,3.2,0,0,0,1.181,1.621c1.324.928,2.947.358,4.226-.355.183-.1.019-.382-.164-.28-1.731.966-4.21,1.243-4.931-1.072-.06-.2-.374-.115-.312.086" transform="translate(53.689 20.466)" fill="#ed3748"/>
      <path id="Trazado_1007544" data-name="Trazado 1007544" d="M94.962,35.661a3.875,3.875,0,0,0,5.979.261c.148-.146-.081-.375-.229-.229a3.567,3.567,0,0,1-5.521-.261c-.135-.159-.364.072-.229.229" transform="translate(56.099 20.909)" fill="#ed3748"/>
      <path id="Trazado_1007545" data-name="Trazado 1007545" d="M93.87,28.769s-1.182,3.538.659,5.171,6.027,2.259,9.338-3.721Z" transform="translate(55.257 17.003)" fill="#fbb99d"/>
      <path id="Trazado_1007546" data-name="Trazado 1007546" d="M98.383,29.416s2.721,2.471,1.391,2.455-7.091.231-7.279-1.931,2.512-6.464,4.759-7.553a2.228,2.228,0,0,1,3.179.99s-5.448,1.168-2.049,6.039" transform="translate(54.659 13.045)" fill="#53424d"/>
      <path id="Trazado_1007547" data-name="Trazado 1007547" d="M100.121,25.932s-4.176.756-3.92,1.171-.164,1.268-.161,2.087a4.95,4.95,0,0,1-1.169,2.746c-.471.636.1,1.317.866,1.468a4.892,4.892,0,0,0,4.938-1.691c-1.279-1.677-.554-5.782-.554-5.782" transform="translate(55.968 15.326)" fill="#fbb99d"/>
      <path id="Trazado_1007548" data-name="Trazado 1007548" d="M95.623,29.19c0-.819.418-1.672.161-2.086s3.92-1.173,3.92-1.173a4.681,4.681,0,0,0-.7,2.141,15.775,15.775,0,0,1-3.6,2.208,3.139,3.139,0,0,0,.218-1.091" transform="translate(56.385 15.326)" fill="#dc8162"/>
      <path id="Trazado_1007549" data-name="Trazado 1007549" d="M97.378,22.6c-1.513,1.076-4.838,5.748-2.663,8.482.929,1.166,4.18.153,6.129-2.1.8-.924,1.174-3.195.5-5.311A2.665,2.665,0,0,0,97.378,22.6" transform="translate(55.553 13.053)" fill="#fbb99d"/>
      <path id="Trazado_1007550" data-name="Trazado 1007550" d="M94.723,25c.2.539.235-.7,1.47-1.012a2.228,2.228,0,0,1,.473-.053,1.028,1.028,0,0,1,.393.048.638.638,0,0,1,.382.643,2.833,2.833,0,0,0,.589,1.58,4.005,4.005,0,0,1,.745,1.721,2.26,2.26,0,0,0,.088.552,1.63,1.63,0,0,1,.111.7c-.014.231-.078.453-.11.681a.874.874,0,0,0,.239.823,1.732,1.732,0,0,0,.307.253,1.814,1.814,0,0,0,.76.285,1.741,1.741,0,0,0,1.6-.711,5.064,5.064,0,0,0,.735-3.142,14.885,14.885,0,0,0-.226-2.223,3.413,3.413,0,0,0-.913-1.788,4.506,4.506,0,0,0-2.34-1.258,4.572,4.572,0,0,0-1.349-.076c-3.246.32-3.114,2.557-2.954,2.982" transform="translate(55.943 13.004)" fill="#53424d"/>
      <path id="Trazado_1007551" data-name="Trazado 1007551" d="M97.476,28.608s-1.025,2.7.111,2.993,5.669.46,5.427-1.095c-.285-1.825-1.378-6.071-3.053-7.486a1.968,1.968,0,0,0-2.919.1s4.382,2.205.434,5.486" transform="translate(57.352 13.249)" fill="#53424d"/>
      <path id="Trazado_1007552" data-name="Trazado 1007552" d="M97.365,26.417s1.26-.982,1.881-.617-.439,2.129-1.752,1.764-.512-.886-.129-1.147" transform="translate(57.193 15.2)" fill="#fbb99d"/>
      <path id="Trazado_1007553" data-name="Trazado 1007553" d="M97.477,30.4a4.753,4.753,0,0,0,2.861-.815l-.091-.148a4.439,4.439,0,0,1-3.659.632,2.024,2.024,0,0,1-1.344-1.12l-.151.073A2.19,2.19,0,0,0,96.54,30.24a3.751,3.751,0,0,0,.937.161" transform="translate(56.2 17.11)" fill="#feb801"/>
      <path id="Trazado_1007554" data-name="Trazado 1007554" d="M96.4,31.545c1.052.049,2.541-.993,3.777-1.858l.164-.111-.091-.15-.162.113c-1.433,1-3.217,2.248-4.154,1.7-.479-.285-.708-1.044-.681-2.259l-.165,0c-.03,1.3.221,2.094.765,2.417a1.164,1.164,0,0,0,.547.156" transform="translate(56.196 17.123)" fill="#feb801"/>
      <path id="Trazado_1007555" data-name="Trazado 1007555" d="M95.453,32.978c1.177.056,4.055-2.409,5.007-3.4l-.116-.126c-.905.947-3.771,3.4-4.883,3.352a.346.346,0,0,1-.294-.134.486.486,0,0,1-.068-.21,14.153,14.153,0,0,1,.256-3.44l-.154-.062a14.237,14.237,0,0,0-.266,3.535.668.668,0,0,0,.1.288.513.513,0,0,0,.4.2l.011,0" transform="translate(56.09 17.112)" fill="#feb801"/>
      <path id="Trazado_1007556" data-name="Trazado 1007556" d="M94.76,31.744a.592.592,0,1,1,.56.66.612.612,0,0,1-.56-.66" transform="translate(56.003 18.403)" fill="#feb801"/>
      <path id="Trazado_1007557" data-name="Trazado 1007557" d="M104.059,40.25s-4,2.382-4.31,2.674c-2,1.877-3.338,2.4-2.848,2.636.9.441,3.682-1.141,4.1-1.37a19.72,19.72,0,0,0,2.153-1.441,9,9,0,0,0,.9-2.5" transform="translate(57.209 23.788)" fill="#fbb99d"/>
      <path id="Trazado_1007558" data-name="Trazado 1007558" d="M108.79,40.082c-1.852,2.1-9.349,5.771-9.349,5.771L99.629,44l7.016-6.536s4,.519,2.145,2.616" transform="translate(58.77 22.143)" fill="#fbb99d"/>
      <path id="Trazado_1007559" data-name="Trazado 1007559" d="M100.444,33.839c-.515-1.281-.479-2.937.866-3.664.762-.414,1.8.3,2.614,1.045,1.954,1.78,8.235,12.211,4.673,12.954-4.146.866-6.523-6.289-8.152-10.335" transform="translate(59.182 17.762)" fill="#ed3748"/>
      <path id="Trazado_1007560" data-name="Trazado 1007560" d="M100.922,41.011a4.159,4.159,0,0,0,1.9,4.924s-1.5,4.975-4.584,3.355-3.11-6.305,2.687-8.28" transform="translate(56.837 24.238)" fill="#5a7fe5"/>
      <path id="Trazado_1007561" data-name="Trazado 1007561" d="M91.354,40.794a23.436,23.436,0,0,0,13.334-.123l-.589-1.562a20.7,20.7,0,0,1-12.273.107Z" transform="translate(53.991 23.114)" fill="#4463cd"/>
      <path id="Trazado_1007562" data-name="Trazado 1007562" d="M93.416,39.415l-.9,1.889.851.259.574-2.118Z" transform="translate(54.679 23.295)" fill="#5a7fe5"/>
      <path id="Trazado_1007563" data-name="Trazado 1007563" d="M98.172,39.278l.352,2.3,1.069-.13-.8-2.336Z" transform="translate(58.02 23.114)" fill="#5a7fe5"/>
      <path id="Trazado_1007564" data-name="Trazado 1007564" d="M96.911,25.936c.035-.018-.04.016-.052.021a.738.738,0,0,1-.177.045c-.235.022-.344-.134-.4-.334-.037-.126-.234-.054-.2.07a.619.619,0,0,0,.95.364c.118-.062,0-.226-.123-.165" transform="translate(56.783 15.131)" fill="#1e100c"/>
      <path id="Trazado_1007565" data-name="Trazado 1007565" d="M95.54,25.39a.721.721,0,0,1-.2.13c-.231.1-.36-.043-.444-.248-.051-.121-.248-.051-.2.07.1.243.277.46.576.409a.852.852,0,0,0,.425-.231c.1-.091-.067-.221-.162-.13" transform="translate(55.964 14.899)" fill="#1e100c"/>
      <path id="Trazado_1007566" data-name="Trazado 1007566" d="M95.04,24.751a.626.626,0,0,1,.743.428c.057.151.286.045.229-.107A.865.865,0,0,0,95,24.5c-.159.033-.115.282.045.248" transform="translate(56.084 14.469)" fill="#3f302d"/>
      <path id="Trazado_1007567" data-name="Trazado 1007567" d="M96.324,25.308a.625.625,0,0,1,.83.21c.1.13.288-.035.193-.164a.864.864,0,0,0-1.133-.274c-.145.075-.035.3.11.228" transform="translate(56.823 14.76)" fill="#3f302d"/>
      <path id="Trazado_1007568" data-name="Trazado 1007568" d="M96.06,25.235a1.276,1.276,0,0,1-.04.7c-.13.313-.511.418-.738.663-.313.336-.065.584.366.756.105.041.17-.089.067-.13-.966-.387.248-.778.445-1.177a1.332,1.332,0,0,0,.073-.826c-.018-.091-.191-.078-.173.014" transform="translate(56.229 14.869)" fill="#dc8162"/>
      <path id="Trazado_1007569" data-name="Trazado 1007569" d="M96.5,26.879s-.024.869-.74.8-.716-.85-.716-.85Z" transform="translate(56.172 15.856)" fill="#faffff"/>
      <path id="Trazado_1007570" data-name="Trazado 1007570" d="M97.17,27.067a.49.49,0,1,1-.242-.649.489.489,0,0,1,.242.649" transform="translate(56.875 15.587)" fill="#f3a498"/>
      <path id="Trazado_1007571" data-name="Trazado 1007571" d="M94.414,25.815a.5.5,0,1,1-.148.686.5.5,0,0,1,.148-.686" transform="translate(55.665 15.211)" fill="#f3a498"/>
      <path id="Trazado_1007572" data-name="Trazado 1007572" d="M72.728,30.748H85.685a4.342,4.342,0,0,0,0-8.684H72.728a4.342,4.342,0,0,0,0,8.684" transform="translate(40.417 13.04)" fill="#d6e6f2"/>
      <path id="Trazado_1007573" data-name="Trazado 1007573" d="M79.084,27.264V30l-4.137-2.735Z" transform="translate(44.294 16.113)" fill="#d6e6f2"/>
      <path id="Trazado_1007574" data-name="Trazado 1007574" d="M77.231,25.376a1.322,1.322,0,1,0,1.322-1.322,1.322,1.322,0,0,0-1.322,1.322" transform="translate(45.644 14.216)" fill="#f0f8ff"/>
      <path id="Trazado_1007575" data-name="Trazado 1007575" d="M74.48,25.376A1.322,1.322,0,1,0,75.8,24.054a1.322,1.322,0,0,0-1.322,1.322" transform="translate(44.018 14.216)" fill="#f0f8ff"/>
      <path id="Trazado_1007576" data-name="Trazado 1007576" d="M71.729,25.376a1.322,1.322,0,1,0,1.322-1.322,1.322,1.322,0,0,0-1.322,1.322" transform="translate(42.392 14.216)" fill="#f0f8ff"/>
      <path id="Trazado_1007577" data-name="Trazado 1007577" d="M99.56,23.039H88a3.875,3.875,0,1,1,0-7.75H99.56a3.875,3.875,0,1,1,0,7.75" transform="translate(49.716 9.036)" fill="#d6e6f2"/>
      <path id="Trazado_1007578" data-name="Trazado 1007578" d="M88.084,19.93V22.37l3.691-2.441Z" transform="translate(52.058 11.779)" fill="#d6e6f2"/>
      <path id="Trazado_1007579" data-name="Trazado 1007579" d="M89.243,18.246a1.18,1.18,0,1,1-1.181-1.181,1.18,1.18,0,0,1,1.181,1.181" transform="translate(51.349 10.086)" fill="#f0f8ff"/>
      <path id="Trazado_1007580" data-name="Trazado 1007580" d="M91.7,18.246a1.18,1.18,0,1,1-1.182-1.181A1.18,1.18,0,0,1,91.7,18.246" transform="translate(52.8 10.086)" fill="#f0f8ff"/>
      <path id="Trazado_1007581" data-name="Trazado 1007581" d="M94.153,18.246a1.18,1.18,0,1,1-1.181-1.181,1.18,1.18,0,0,1,1.181,1.181" transform="translate(54.251 10.086)" fill="#f0f8ff"/>
    </g>
  </g>
</svg>
