<svg xmlns="http://www.w3.org/2000/svg" width="169.706" height="169.706" viewBox="0 0 169.706 169.706">
  <g id="Grupo_1177734" data-name="Grupo 1177734" transform="translate(-714.98 -3369.146)">
    <rect id="Rect치ngulo_402033" data-name="Rect치ngulo 402033" width="120" height="120" rx="30" transform="translate(714.98 3453.999) rotate(-45)" fill="#ffd600"/>
    <rect id="Rect치ngulo_454167" data-name="Rect치ngulo 454167" width="100" height="100" rx="50" transform="translate(749.833 3403.999)" fill="#c8bf57"/>
    <g id="Grupo_1177733" data-name="Grupo 1177733" transform="translate(775.71 3429)">
      <g id="Grupo_1177731" data-name="Grupo 1177731" transform="translate(0.718 0.718)">
        <path id="Trazado_995540" data-name="Trazado 995540" d="M79.883,40.061H42.9a2.5,2.5,0,0,1-2.5-2.5V10a2.5,2.5,0,0,1,2.5-2.5H79.883a2.5,2.5,0,0,1,2.5,2.5V37.559A2.5,2.5,0,0,1,79.883,40.061Z" transform="translate(-37.253 -7.5)" fill="#c8effe"/>
        <path id="Trazado_995541" data-name="Trazado 995541" d="M45.36,40.061H42.9a2.5,2.5,0,0,1-2.5-2.5V10a2.5,2.5,0,0,1,2.5-2.5H45.36a2.5,2.5,0,0,0-2.5,2.5V37.559A2.5,2.5,0,0,0,45.36,40.061Z" transform="translate(-37.251 -7.5)" fill="#99e6fc"/>
        <g id="Grupo_1177726" data-name="Grupo 1177726" transform="translate(6.99 1.788)">
          <path id="Trazado_995542" data-name="Trazado 995542" d="M114,228.2h.846a5.512,5.512,0,0,1,5.512,5.512c0,.523-.424,5.927-.947,5.927h-9.975c-.523,0-.947-5.4-.947-5.927A5.512,5.512,0,0,1,114,228.2Z" transform="translate(-105.815 -208.862)" fill="#9be69d"/>
          <path id="Trazado_995543" data-name="Trazado 995543" d="M88.877,26.184a8.344,8.344,0,0,0-8.344,8.343v3.05a4.747,4.747,0,0,0,4.747,4.747h7.193a4.747,4.747,0,0,0,4.747-4.747v-3.05A8.343,8.343,0,0,0,88.877,26.184Z" transform="translate(-80.533 -26.184)" fill="#fe646f"/>
          <path id="Trazado_995544" data-name="Trazado 995544" d="M89.925,42.325H85.278a4.746,4.746,0,0,1-4.746-4.747v-3.05A8.349,8.349,0,0,1,91.2,26.512c-4.7-.221-8.115,5.885-4.4,9.273l-1.624,1.793A4.747,4.747,0,0,0,89.925,42.325Z" transform="translate(-80.532 -26.184)" fill="#fd4755"/>
          <path id="Trazado_995545" data-name="Trazado 995545" d="M110.481,229.8a5.5,5.5,0,0,0-1.614,3.9c0,.523-.614,3.629-.091,3.629h-3.229c-.523,0,.091-3.106.091-3.629a5.511,5.511,0,0,1,5.512-5.512H112a5.517,5.517,0,0,1,1.192.129A5.5,5.5,0,0,0,110.481,229.8Z" transform="translate(-102.963 -208.857)" fill="#6fd7a3"/>
          <g id="Grupo_1177725" data-name="Grupo 1177725" transform="translate(2.862 8.492)">
            <path id="Trazado_995546" data-name="Trazado 995546" d="M121.933,116.95v2.63a5.75,5.75,0,0,1-3.678,5.364v1.279a2.1,2.1,0,0,1-2,2.12,2.072,2.072,0,0,1-2.148-2.07v-1.33a5.75,5.75,0,0,1-3.676-5.363v-2.63a5.809,5.809,0,0,1,.054-.79.482.482,0,0,1,.662-.377,4.593,4.593,0,0,0,4.7-.749.509.509,0,0,1,.656,0,4.593,4.593,0,0,0,4.7.749.482.482,0,0,1,.662.377,5.765,5.765,0,0,1,.054.79Z" transform="translate(-110.436 -114.914)" fill="#ffdfcf"/>
            <path id="Trazado_995547" data-name="Trazado 995547" d="M118.533,132.69c-.091.042-.184.081-.278.117v1.279a2.1,2.1,0,0,1-2,2.12,2.072,2.072,0,0,1-2.148-2.07v-1.33a5.75,5.75,0,0,1-3.676-5.363v-2.63a5.808,5.808,0,0,1,.054-.79.482.482,0,0,1,.662-.377,4.614,4.614,0,0,0,2.693.241c-.016.171-.023.343-.023.517v2.63a5.75,5.75,0,0,0,4.712,5.656Z" transform="translate(-110.436 -122.778)" fill="#ffcebf"/>
          </g>
        </g>
        <g id="Grupo_1177727" data-name="Grupo 1177727" transform="translate(16.587 22.688)">
          <path id="Trazado_995548" data-name="Trazado 995548" d="M194.362,421.167h-12.7a.846.846,0,0,1-.846-.846v-.778a7.2,7.2,0,1,1,14.391,0v.778A.847.847,0,0,1,194.362,421.167Z" transform="translate(-180.818 -396.29)" fill="#fe646f"/>
          <path id="Trazado_995549" data-name="Trazado 995549" d="M185.1,419.538v.778a.847.847,0,0,0,.847.846h-4.284a.847.847,0,0,1-.846-.846v-.778a7.2,7.2,0,0,1,9.338-6.871A7.2,7.2,0,0,0,185.1,419.538Z" transform="translate(-180.818 -396.286)" fill="#fd4755"/>
          <path id="Trazado_995550" data-name="Trazado 995550" d="M194.169,261.216H181.856a1.038,1.038,0,0,1-1.038-1.038V251.76a7.2,7.2,0,1,1,14.391,0v8.417A1.038,1.038,0,0,1,194.169,261.216Z" transform="translate(-180.817 -244.565)" fill="#ffe177"/>
          <path id="Trazado_995551" data-name="Trazado 995551" d="M184.848,251.765v8.416a1.038,1.038,0,0,0,1.038,1.039h-4.031a1.038,1.038,0,0,1-1.038-1.039v-8.416a7.2,7.2,0,0,1,9.21-6.909A7.2,7.2,0,0,0,184.848,251.765Z" transform="translate(-180.817 -244.57)" fill="#ffd15b"/>
        </g>
        <g id="Grupo_1177728" data-name="Grupo 1177728" transform="translate(33.174 22.688)">
          <path id="Trazado_995552" data-name="Trazado 995552" d="M367.677,421.167h-12.7a.846.846,0,0,1-.846-.846v-.778a7.2,7.2,0,1,1,14.391,0v.778A.846.846,0,0,1,367.677,421.167Z" transform="translate(-354.133 -396.29)" fill="#d9b1ee"/>
          <path id="Trazado_995553" data-name="Trazado 995553" d="M374.923,346.858h-3.385a4.243,4.243,0,0,1-4.243-4.243v-2.688h11.871v2.688A4.243,4.243,0,0,1,374.923,346.858Z" transform="translate(-366.035 -330.8)" fill="#ffdfcf"/>
          <path id="Trazado_995554" data-name="Trazado 995554" d="M374.909,346.86h-3.369a4.243,4.243,0,0,1-4.243-4.243v-2.687h3.369v2.687A4.243,4.243,0,0,0,374.909,346.86Z" transform="translate(-366.036 -330.802)" fill="#ffcebf"/>
          <path id="Trazado_995555" data-name="Trazado 995555" d="M358.418,419.538v.778a.847.847,0,0,0,.847.846H354.98a.847.847,0,0,1-.846-.846v-.778a7.2,7.2,0,0,1,9.338-6.871A7.2,7.2,0,0,0,358.418,419.538Z" transform="translate(-354.134 -396.286)" fill="#cb97e7"/>
          <path id="Trazado_995556" data-name="Trazado 995556" d="M365.011,257.171h-7.366a3.512,3.512,0,0,1-3.512-3.512v-1.9a7.2,7.2,0,0,1,14.391,0v1.9A3.512,3.512,0,0,1,365.011,257.171Z" transform="translate(-354.133 -244.565)" fill="#d1a08f"/>
          <path id="Trazado_995557" data-name="Trazado 995557" d="M361.115,257.173h-3.469a3.513,3.513,0,0,1-3.513-3.513v-1.9a7.2,7.2,0,0,1,8.93-6.984,7.2,7.2,0,0,0-5.461,6.984v1.9A3.513,3.513,0,0,0,361.115,257.173Z" transform="translate(-354.133 -244.567)" fill="#c68d7a"/>
        </g>
        <g id="Grupo_1177729" data-name="Grupo 1177729" transform="translate(0 22.688)">
          <path id="Trazado_995558" data-name="Trazado 995558" d="M21.044,421.167H8.347a.847.847,0,0,1-.847-.846v-.778a7.2,7.2,0,0,1,14.391,0v.778A.846.846,0,0,1,21.044,421.167Z" transform="translate(-7.5 -396.29)" fill="#03bed7"/>
          <path id="Trazado_995559" data-name="Trazado 995559" d="M28.29,346.858H24.905a4.243,4.243,0,0,1-4.243-4.243v-2.688H32.533v2.688A4.243,4.243,0,0,1,28.29,346.858Z" transform="translate(-19.402 -330.8)" fill="#d1a08f"/>
          <path id="Trazado_995560" data-name="Trazado 995560" d="M28.276,346.86H24.906a4.243,4.243,0,0,1-4.243-4.243v-2.687h3.369v2.687A4.243,4.243,0,0,0,28.276,346.86Z" transform="translate(-19.403 -330.802)" fill="#c68d7a"/>
          <path id="Trazado_995561" data-name="Trazado 995561" d="M11.784,419.538v.778a.847.847,0,0,0,.847.846H8.347a.847.847,0,0,1-.847-.846v-.778a7.2,7.2,0,0,1,9.338-6.871A7.2,7.2,0,0,0,11.784,419.538Z" transform="translate(-7.5 -396.286)" fill="#07b2cd"/>
          <path id="Trazado_995562" data-name="Trazado 995562" d="M18.378,257.171H11.012A3.512,3.512,0,0,1,7.5,253.659v-1.9a7.2,7.2,0,0,1,14.391,0v1.9A3.512,3.512,0,0,1,18.378,257.171Z" transform="translate(-7.5 -244.565)" fill="#596c76"/>
          <path id="Trazado_995563" data-name="Trazado 995563" d="M14.482,257.173H11.013A3.513,3.513,0,0,1,7.5,253.661v-1.9a7.2,7.2,0,0,1,8.93-6.984,7.2,7.2,0,0,0-5.461,6.984v1.9A3.513,3.513,0,0,0,14.482,257.173Z" transform="translate(-7.5 -244.567)" fill="#465a61"/>
        </g>
        <g id="Grupo_1177730" data-name="Grupo 1177730" transform="translate(26.445 3.104)">
          <path id="Trazado_995564" data-name="Trazado 995564" d="M296.6,39.933h-9.745a3.037,3.037,0,0,0-3.037,3.037v5.164a3.037,3.037,0,0,0,3.037,3.037H289.9v2.785a1.033,1.033,0,0,0,1.848.634l2.662-3.42h2.2a3.037,3.037,0,0,0,3.037-3.037V42.97a3.037,3.037,0,0,0-3.037-3.037Z" transform="translate(-283.822 -39.933)" fill="#ffe177"/>
          <path id="Trazado_995565" data-name="Trazado 995565" d="M289.448,51.172h-2.591a3.037,3.037,0,0,1-3.037-3.037V42.971a3.037,3.037,0,0,1,3.037-3.037h2.591a3.037,3.037,0,0,0-3.037,3.037v5.164A3.037,3.037,0,0,0,289.448,51.172Z" transform="translate(-283.821 -39.934)" fill="#ffd15b"/>
        </g>
      </g>
      <g id="Grupo_1177732" data-name="Grupo 1177732" transform="translate(0 0)">
        <path id="Trazado_995566" data-name="Trazado 995566" d="M149.512,179.9a.718.718,0,1,0-.652-1.279,3.08,3.08,0,0,1-2.789,0,.718.718,0,1,0-.652,1.279,4.521,4.521,0,0,0,4.093,0Z" transform="translate(-131.147 -161.458)"/>
        <path id="Trazado_995567" data-name="Trazado 995567" d="M142.068,139.536v-.823a.718.718,0,1,0-1.436,0v.823a.718.718,0,0,0,1.436,0Z" transform="translate(-127.173 -124.788)"/>
        <path id="Trazado_995568" data-name="Trazado 995568" d="M186.1,140.254a.718.718,0,0,0,.718-.718v-.823a.718.718,0,1,0-1.436,0v.823A.718.718,0,0,0,186.1,140.254Z" transform="translate(-167.636 -124.788)"/>
        <path id="Trazado_995569" data-name="Trazado 995569" d="M47.732,35.517A4.217,4.217,0,0,0,49,32.5V30.6a7.889,7.889,0,0,0-2.434-5.7V3.219A3.223,3.223,0,0,0,43.348,0H6.368a3.223,3.223,0,0,0-3.22,3.22V16.972a.718.718,0,1,0,1.436,0V3.219A1.786,1.786,0,0,1,6.368,1.436H43.348a1.786,1.786,0,0,1,1.784,1.784V23.8a7.909,7.909,0,0,0-11.957,6.8v1.9c0,.02,0,.04,0,.061h-.763V30.6c0-.128,0-.258-.01-.385a.718.718,0,1,0-1.434.071c.005.1.008.209.008.314v8.417a.321.321,0,0,1-.321.321H18.344a.321.321,0,0,1-.321-.321V30.6a6.479,6.479,0,0,1,12.112-3.2.718.718,0,0,0,1.248-.709,7.911,7.911,0,0,0-9.918-3.4,6.273,6.273,0,0,0-2.359-1.706V21.5a6.5,6.5,0,0,0,2.818-2.631A5.441,5.441,0,0,0,25.113,13.9V10.849a9.061,9.061,0,1,0-18.123,0V13.9a5.449,5.449,0,0,0,3.866,5.226,6.528,6.528,0,0,0,.889,1.111A6.445,6.445,0,0,0,13.527,21.5v.09a6.235,6.235,0,0,0-2.036,1.357c-.134.134-.261.274-.382.419a7.888,7.888,0,0,0-6.525.06v-3.1a.718.718,0,0,0-1.436,0v3.966A7.905,7.905,0,0,0,0,30.6v1.9a4.217,4.217,0,0,0,1.269,3.017,4.969,4.969,0,0,0,2.854,4.2A7.919,7.919,0,0,0,0,46.659v.778A1.566,1.566,0,0,0,1.564,49h12.7a1.566,1.566,0,0,0,1.564-1.564v-.778A7.92,7.92,0,0,0,11.7,39.715a4.969,4.969,0,0,0,2.853-4.2,4.24,4.24,0,0,0,1-1.521h1.035v5.023a1.758,1.758,0,0,0,1.756,1.756h.864a7.913,7.913,0,0,0-2.621,5.884v.778A1.566,1.566,0,0,0,18.152,49h12.7a1.566,1.566,0,0,0,1.564-1.564v-.778a7.862,7.862,0,0,0-2.318-5.6c-.1-.1-.2-.194-.3-.288h.866a1.758,1.758,0,0,0,1.756-1.756V34h1.035a4.242,4.242,0,0,0,1,1.521,4.969,4.969,0,0,0,2.853,4.2,7.919,7.919,0,0,0-4.123,6.944v.778A1.566,1.566,0,0,0,34.739,49h12.7A1.566,1.566,0,0,0,49,47.437v-.778a7.919,7.919,0,0,0-4.123-6.944,4.969,4.969,0,0,0,2.854-4.2ZM8.426,13.9V10.849a7.626,7.626,0,1,1,15.252,0V13.9a4.019,4.019,0,0,1-.949,2.6,6.353,6.353,0,0,0,.057-.84v-2.63a6.5,6.5,0,0,0-.061-.888,1.2,1.2,0,0,0-1.645-.943,3.875,3.875,0,0,1-3.968-.632,1.22,1.22,0,0,0-1.585,0,3.875,3.875,0,0,1-3.968.632,1.2,1.2,0,0,0-1.645.944,6.553,6.553,0,0,0-.06.887v2.63a6.518,6.518,0,0,0,.164,1.447A4.022,4.022,0,0,1,8.426,13.9Zm4.335,5.322a5,5,0,0,1-1.473-3.558v-2.63c0-.131.005-.263.015-.394a5.313,5.313,0,0,0,5.016-.863,5.312,5.312,0,0,0,5.016.863c.01.131.015.262.015.394v2.63a5.063,5.063,0,0,1-3.219,4.694.718.718,0,0,0-.459.67v1.279a1.392,1.392,0,0,1-1.3,1.4,1.355,1.355,0,0,1-1.4-1.353v-1.33a.718.718,0,0,0-.459-.669A5.015,5.015,0,0,1,12.761,19.221ZM1.436,30.6a6.478,6.478,0,0,1,12.955,0v1.9A2.8,2.8,0,0,1,11.6,35.294H4.23A2.8,2.8,0,0,1,1.436,32.5ZM14.391,46.659v.778a.129.129,0,0,1-.129.129H1.564a.129.129,0,0,1-.129-.129v-.778A6.485,6.485,0,0,1,7.9,40.182h.018a6.485,6.485,0,0,1,6.468,6.477ZM9.606,38.746H6.221a3.531,3.531,0,0,1-3.272-2.215,4.212,4.212,0,0,0,1.281.2H11.6a4.214,4.214,0,0,0,1.281-.2,3.53,3.53,0,0,1-3.271,2.215Zm6.219-6.185c0-.02,0-.04,0-.061V30.6a7.91,7.91,0,0,0-3.435-6.52c.038-.041.076-.082.116-.121a4.8,4.8,0,0,1,1.128-.837,2.793,2.793,0,0,0,2.681,2.022l.1,0a2.784,2.784,0,0,0,2.573-2.025,4.836,4.836,0,0,1,1.167.871A7.912,7.912,0,0,0,16.588,30.6v1.959h-.763Zm13.256,9.517a6.435,6.435,0,0,1,1.9,4.58v.778a.129.129,0,0,1-.129.129h-12.7a.129.129,0,0,1-.129-.129v-.778a6.479,6.479,0,0,1,3.767-5.884H27.21A6.474,6.474,0,0,1,29.081,42.078ZM34.61,30.6a6.478,6.478,0,0,1,12.955,0v1.9a2.8,2.8,0,0,1-2.795,2.795H37.4A2.8,2.8,0,0,1,34.61,32.5ZM47.565,46.659v.778a.129.129,0,0,1-.129.129h-12.7a.129.129,0,0,1-.129-.129v-.778a6.485,6.485,0,0,1,6.468-6.477H41.1A6.485,6.485,0,0,1,47.565,46.659ZM42.78,38.746H39.4a3.53,3.53,0,0,1-3.271-2.215,4.214,4.214,0,0,0,1.281.2h7.366a4.212,4.212,0,0,0,1.281-.2,3.531,3.531,0,0,1-3.272,2.215Z" transform="translate(0 0)"/>
        <path id="Trazado_995570" data-name="Trazado 995570" d="M280.99,32.43h-.916a3.759,3.759,0,0,0-3.754,3.755v5.164a3.759,3.759,0,0,0,3.754,3.755H282.4v2.068a1.729,1.729,0,0,0,1.182,1.655,1.784,1.784,0,0,0,.58.1,1.728,1.728,0,0,0,1.369-.678l2.447-3.144h1.846a3.759,3.759,0,0,0,3.755-3.755V36.185a3.759,3.759,0,0,0-3.755-3.755H284.34a.718.718,0,0,0,0,1.436h5.479a2.322,2.322,0,0,1,2.319,2.319v5.164a2.322,2.322,0,0,1-2.319,2.319h-2.2a.717.717,0,0,0-.566.277l-2.662,3.42a.315.315,0,0,1-.563-.193V44.385a.718.718,0,0,0-.718-.718h-3.039a2.322,2.322,0,0,1-2.319-2.319V36.185a2.322,2.322,0,0,1,2.319-2.319h.916a.718.718,0,1,0,0-1.436Z" transform="translate(-249.875 -29.326)"/>
        <path id="Trazado_995571" data-name="Trazado 995571" d="M320.867,72.83H311.68a.718.718,0,1,0,0,1.436h9.188a.718.718,0,0,0,0-1.436Z" transform="translate(-281.201 -65.86)"/>
        <path id="Trazado_995572" data-name="Trazado 995572" d="M320.867,105.078H311.68a.718.718,0,1,0,0,1.436h9.188a.718.718,0,0,0,0-1.436Z" transform="translate(-281.201 -95.022)"/>
      </g>
    </g>
  </g>
</svg>
