<svg xmlns="http://www.w3.org/2000/svg" width="100" height="100" viewBox="0 0 100 100">
  <g id="Grupo_1176940" data-name="Grupo 1176940" transform="translate(-637 -6992)">
    <g id="Grupo_1098742" data-name="Grupo 1098742" transform="translate(637.242 6992)">
      <rect id="Rectángulo_400898" data-name="Rectángulo 400898" width="100" height="100" rx="50" transform="translate(-0.242)" fill="#fff" opacity="0.859"/>
      <g id="Rectángulo_400907" data-name="Rectángulo 400907" transform="translate(-0.242)" fill="none" stroke="#c8bf57" stroke-linecap="round" stroke-width="3" stroke-dasharray="0 7">
        <rect width="100" height="100" rx="50" stroke="none"/>
        <rect x="1.5" y="1.5" width="97" height="97" rx="48.5" fill="none"/>
      </g>
    </g>
    <g id="Grupo_1107006" data-name="Grupo 1107006" transform="translate(645.398 7000.157)">
      <rect id="Rectángulo_400898-2" data-name="Rectángulo 400898" width="84" height="84" rx="42" transform="translate(-0.399 -0.157)" fill="#ffd600"/>
      <rect id="Rectángulo_400907-2" data-name="Rectángulo 400907" width="84" height="84" rx="42" transform="translate(-0.398 -0.157)" fill="none"/>
    </g>
    <g id="Grupo_1178515" data-name="Grupo 1178515" transform="translate(659.089 7013.744)">
      <path id="Trazado_996445" data-name="Trazado 996445" d="M363.834,214.741c0,.986-.009,1.9-.037,2.735a18.887,18.887,0,0,0-2.763-1.935,20.542,20.542,0,0,0-11.646-2.651v-.037a6.516,6.516,0,0,0-.084-.949,4.593,4.593,0,0,0-.26-.93c-.037-.093-.074-.177-.112-.261a3.544,3.544,0,0,0-.428-.623.838.838,0,0,0-.177-.186.7.7,0,0,0-.2-.177.842.842,0,0,0-.214-.158,2.1,2.1,0,0,0-.242-.149c-.056-.223-.112-.456-.186-.688-.009-.037-.028-.084-.037-.121l.1-.028a36.028,36.028,0,0,1,11.385-2.642,23.969,23.969,0,0,1,3.739.056l.186-.037a40.235,40.235,0,0,1,.967,8.781Zm0,0" transform="translate(-308.948 -182.763)" fill="#d84315"/>
      <path id="Trazado_996446" data-name="Trazado 996446" d="M361.043,215.124c0,.27,0,.539-.009.8a20.542,20.542,0,0,0-11.646-2.651v-.037a6.516,6.516,0,0,0-.084-.949,4.593,4.593,0,0,0-.26-.93c-.037-.093-.074-.177-.112-.261a3.546,3.546,0,0,0-.428-.623.84.84,0,0,0-.177-.186.7.7,0,0,0-.2-.177.843.843,0,0,0-.214-.158,2.093,2.093,0,0,0-.242-.149c-.056-.223-.112-.456-.186-.688-.009-.037-.028-.084-.037-.121l.1-.028a36.028,36.028,0,0,1,11.385-2.642c.316,0,.632.028.949.056l.186-.037a40.235,40.235,0,0,1,.967,8.781Zm0,0" transform="translate(-308.948 -183.147)" fill="#ff5722"/>
      <path id="Trazado_996447" data-name="Trazado 996447" d="M24.826,208.59c-.01.037-.028.084-.037.121-.074.232-.13.465-.186.688a2.135,2.135,0,0,0-.242.149.851.851,0,0,0-.214.158.7.7,0,0,0-.2.177.827.827,0,0,0-.177.186,3.524,3.524,0,0,0-.428.623c-.037.084-.074.168-.112.261a4.593,4.593,0,0,0-.26.93,5.45,5.45,0,0,0-.084.949v.037a20.184,20.184,0,0,0-14.408,4.586c-.028-.837-.037-1.748-.037-2.735a40.235,40.235,0,0,1,.967-8.781l.186.037a33.573,33.573,0,0,1,15.125,2.586Zm0,0" transform="translate(-7.509 -182.743)" fill="#ffeb3a"/>
      <path id="Trazado_996448" data-name="Trazado 996448" d="M375.815,273.251c-.037,1.135-.084,2.139-.149,3.014a2.791,2.791,0,0,1-4.819,1.674.35.35,0,0,0-.065-.056,15.194,15.194,0,0,0-7.8-4.372,8.631,8.631,0,0,0-1.079-.158c-.307-.028-.623-.047-.93-.047v-1.86a.91.91,0,0,0,.037-.13,2.063,2.063,0,0,0,.065-.214,1.689,1.689,0,0,1,.047-.177c.019-.084.046-.177.065-.279.056-.27.112-.577.158-.93.019-.149.028-.316.047-.484.009-.186.019-.372.019-.568a21.585,21.585,0,0,1,6.213.5A19.435,19.435,0,0,1,375.815,273.251Zm0,0" transform="translate(-320.966 -238.539)" fill="#fdd834"/>
      <path id="Trazado_996449" data-name="Trazado 996449" d="M373.061,272.4c-.037,1.135-.084,2.14-.149,3.014a2.7,2.7,0,0,1-2.13,2.474c-.9.214-1.609-1-2.372-1.786-1.442-1.479-3.526-1.758-5.432-2.586a13.226,13.226,0,0,0-2.009-.7v-1.367a.911.911,0,0,0,.037-.13,2.058,2.058,0,0,0,.065-.214,1.7,1.7,0,0,1,.047-.177c.019-.084.046-.177.065-.279.056-.27.112-.577.158-.93.019-.149.028-.316.047-.484.009-.186.019-.372.019-.568a21.585,21.585,0,0,1,6.213.5A19.194,19.194,0,0,1,373.061,272.4Zm0,0" transform="translate(-320.965 -238.54)" fill="#ffeb3a"/>
      <path id="Trazado_996450" data-name="Trazado 996450" d="M23.626,271.339v1.86c-.307,0-.623.019-.93.047a14.882,14.882,0,0,0-8.948,4.586,2.791,2.791,0,0,1-4.819-1.674c-.065-.874-.111-1.879-.148-3.014a20.184,20.184,0,0,1,14.408-4.586c0,.2.01.381.019.568.01.168.028.335.047.484.046.354.1.661.158.93.019.1.046.2.065.279a1.689,1.689,0,0,1,.047.177,2.061,2.061,0,0,0,.065.214.974.974,0,0,0,.037.13Zm0,0" transform="translate(-7.808 -238.432)" fill="#ff5722"/>
      <path id="Trazado_996451" data-name="Trazado 996451" d="M260.191,293.145a3.721,3.721,0,0,1-3.721,3.72,3.486,3.486,0,0,1-1.4-.279,3.721,3.721,0,0,0-1.4-7.162v-4.651a3.713,3.713,0,0,0-2.791-3.6,3.405,3.405,0,0,0-.93-.121v-1.86a43.047,43.047,0,0,0-10.7-1.832q.684-.028,1.4-.028a42.807,42.807,0,0,1,12.092,1.861v1.86a3.408,3.408,0,0,1,.93.121,3.713,3.713,0,0,1,2.79,3.6v4.651a3.721,3.721,0,0,1,3.721,3.721Zm0,0" transform="translate(-212.746 -246.285)" fill="#f57c00"/>
      <path id="Trazado_996452" data-name="Trazado 996452" d="M112.013,293.371a3.7,3.7,0,0,1-2.326,3.442,3.7,3.7,0,0,1-2.326-3.442v-.93a8.03,8.03,0,0,1-1.042,4.074,6.387,6.387,0,0,1-.511.791v.009a6.218,6.218,0,0,1-.456.549c-.01,0-.01,0,0,.009a8.684,8.684,0,0,1-1.61,1.423c-.111.074-.223.158-.344.232-.084.056-.167.112-.26.168-.2.121-.419.242-.632.363-.233.121-.484.242-.735.353-.2.093-.409.177-.623.261-.028.01-.065.028-.093.037-.2.074-.4.149-.614.214a16.1,16.1,0,0,1-2.2.558c-.251.037-.5.084-.744.112-.214.028-.428.056-.642.074-.53.047-1.07.074-1.59.074h-.093c-.428,0-.874-.019-1.312-.056-.065-.009-.121-.009-.186-.019-.214-.019-.419-.046-.632-.074h-.009c-.242-.028-.493-.074-.744-.112a16.1,16.1,0,0,1-2.2-.558c-.2-.065-.41-.139-.614-.214-.028-.009-.065-.028-.093-.037-.214-.084-.419-.168-.623-.261-.251-.111-.5-.232-.735-.353-.214-.121-.428-.242-.632-.363s-.409-.261-.6-.4a8.683,8.683,0,0,1-1.61-1.423c.01-.009.01-.009,0-.009a6.136,6.136,0,0,1-.455-.549v-.009a7.977,7.977,0,0,1-1.554-4.865v.93a3.687,3.687,0,0,1-1.748,3.144,3.6,3.6,0,0,1-1.972.577,3.488,3.488,0,0,1-1.4-.279,3.721,3.721,0,0,1,1.4-7.162V285a3.713,3.713,0,0,1,2.79-3.6,3.411,3.411,0,0,1,.93-.121v-1.86a43.045,43.045,0,0,1,10.7-1.832,43.045,43.045,0,0,1,10.7,1.832v1.86a3.408,3.408,0,0,1,.93.121,3.713,3.713,0,0,1,2.791,3.6v4.651a3.721,3.721,0,0,1,3.721,3.721Zm0,0" transform="translate(-67.358 -246.51)" fill="#ff9801"/>
      <path id="Trazado_996453" data-name="Trazado 996453" d="M233.787,288.495a.93.93,0,0,1-.912,1.126H229.6a.93.93,0,0,1-.912-1.126L230.2,281.9l1.042-4.567Zm0,0" transform="translate(-203.328 -246.285)" fill="#ffb301"/>
      <path id="Trazado_996454" data-name="Trazado 996454" d="M230.8,326.267h-1.2a.93.93,0,0,1-.912-1.126l1.507-6.595,1.507,6.595a.93.93,0,0,1-.9,1.126Zm0,0" transform="translate(-203.327 -282.933)" fill="#fec108"/>
      <path id="Trazado_996455" data-name="Trazado 996455" d="M163.852,224.132v.037c0,.2-.01.381-.019.568-.019.168-.028.335-.047.484-.046.354-.1.661-.158.93-.028.1-.046.2-.065.279a1.7,1.7,0,0,0-.047.177c-.028.084-.046.158-.065.214a.911.911,0,0,1-.037.13s-.79-.261-2.13-.6a43.132,43.132,0,0,0-9.962-1.265c-.363,0-.726.01-1.088.019h-.121a42.941,42.941,0,0,0-10.883,1.842.972.972,0,0,1-.037-.13c-.019-.056-.037-.13-.065-.214a1.686,1.686,0,0,0-.047-.177c-.009-.028-.009-.046-.019-.074a1.944,1.944,0,0,0-.046-.2c-.056-.27-.112-.577-.158-.93-.019-.149-.028-.316-.047-.484-.009-.186-.019-.372-.019-.568v-.037a6.516,6.516,0,0,1,.084-.949,4.592,4.592,0,0,1,.26-.93c.037-.093.074-.177.112-.261a3.523,3.523,0,0,1,.428-.623c.055-.065.111-.121.177-.186a1.846,1.846,0,0,1,.2-.177,1.9,1.9,0,0,1,.214-.158,2.134,2.134,0,0,1,.242-.149,3.36,3.36,0,0,1,.586-.26,42.987,42.987,0,0,1,9.06-1.823.042.042,0,0,0,.047,0c.4-.019.772-.037,1.126-.037a39.544,39.544,0,0,1,10.232,1.861,3.363,3.363,0,0,1,.586.26,2.1,2.1,0,0,1,.242.149,1.907,1.907,0,0,1,.214.158,1.844,1.844,0,0,1,.2.177c.065.065.121.121.177.186a3.544,3.544,0,0,1,.428.623c.037.084.074.168.112.261a4.593,4.593,0,0,1,.26.93A6.518,6.518,0,0,1,163.852,224.132Zm0,0" transform="translate(-123.411 -194.043)" fill="#00695c"/>
      <path id="Trazado_996456" data-name="Trazado 996456" d="M161.555,224.431v.037c0,.2-.009.381-.019.568-.018.168-.028.335-.046.484-.046.354-.1.661-.158.93a2.061,2.061,0,0,0-.047.2c-.009.028-.009.046-.019.074a1.684,1.684,0,0,0-.046.177c-.028.084-.047.158-.065.214a1.04,1.04,0,0,1-.037.13,42.942,42.942,0,0,0-10.883-1.842h-.121c-.363-.009-.726-.019-1.088-.019a43.135,43.135,0,0,0-9.962,1.265,1.946,1.946,0,0,0-.046-.2c-.056-.27-.112-.577-.158-.93-.019-.149-.028-.316-.047-.484-.009-.186-.019-.372-.019-.568v-.037a6.515,6.515,0,0,1,.084-.949,4.594,4.594,0,0,1,.26-.93c.037-.093.074-.177.112-.261a3.524,3.524,0,0,1,.428-.623c.055-.065.111-.121.177-.186a1.845,1.845,0,0,1,.2-.177,1.906,1.906,0,0,1,.214-.158,2.136,2.136,0,0,1,.242-.149,3.361,3.361,0,0,1,.586-.26,42.987,42.987,0,0,1,9.06-1.823.042.042,0,0,0,.047,0,42.988,42.988,0,0,1,9.06,1.823,3.375,3.375,0,0,1,.586.26,2.094,2.094,0,0,1,.242.149,2.618,2.618,0,0,1,.41.335c.065.065.121.121.177.186a3.547,3.547,0,0,1,.428.623c.037.084.074.168.111.261a4.594,4.594,0,0,1,.261.93A6.515,6.515,0,0,1,161.555,224.431Zm0,0" transform="translate(-123.412 -194.342)" fill="#009688"/>
      <path id="Trazado_996457" data-name="Trazado 996457" d="M175.874,168.456a3.362,3.362,0,0,0-.586-.26c-.548-.186-1.172-.363-1.842-.549a37.9,37.9,0,0,0-8.39-1.312c-.335,0-.7.01-1.079.037h-.046a42.249,42.249,0,0,0-9.106,1.823,3.361,3.361,0,0,0-.586.26c.056-.223.121-.446.186-.688.009-.037.028-.084.037-.121.019-.084.056-.177.084-.27.019-.047.037-.112.056-.168.1-.288.2-.577.335-.874s.27-.614.428-.911c.093-.177.186-.344.288-.512a1.126,1.126,0,0,1,.056-.1c.093-.167.2-.326.307-.493.037-.056.074-.1.112-.158.093-.13.186-.26.288-.39v-.01c.139-.177.279-.344.428-.511.112-.13.223-.252.344-.372a9.538,9.538,0,0,1,1.609-1.339c.307-.2.623-.381.967-.558.168-.084.344-.168.521-.242a11.14,11.14,0,0,1,3.413-.846l.233-.028c.019,0,.028.01.046,0,.093,0,.186-.009.288-.009.251-.019.521-.028.791-.028s.539.01.79.028a5.529,5.529,0,0,1,.568.037,11.14,11.14,0,0,1,3.413.846c.177.074.354.158.521.242.344.177.66.363.967.558a9.537,9.537,0,0,1,1.61,1.339c.121.121.232.242.344.372.149.167.288.344.428.521.1.13.2.26.288.39.037.056.074.1.112.158.1.167.214.326.307.493a1.119,1.119,0,0,1,.056.1c.1.168.2.335.288.512.158.3.3.6.428.911.148.354.279.707.39,1.042.028.084.047.158.074.242,0,.009.009.018.009.028.01.037.028.084.037.121C175.753,168.01,175.818,168.233,175.874,168.456Zm0,0" transform="translate(-137.145 -141.8)" fill="#f57c00"/>
      <path id="Trazado_996458" data-name="Trazado 996458" d="M175.462,168.755a3.375,3.375,0,0,0-.586-.26,42.357,42.357,0,0,0-9.106-1.823h-.046c-.381-.028-.744-.037-1.079-.037a37.9,37.9,0,0,0-8.39,1.312c.019-.084.056-.177.084-.27.019-.047.037-.112.056-.168.1-.288.2-.577.335-.874s.27-.614.428-.911c.093-.177.186-.344.288-.512a1.126,1.126,0,0,1,.056-.1c.093-.167.2-.326.307-.493.037-.056.074-.1.112-.158.093-.13.186-.26.288-.39v-.01c.139-.177.279-.344.428-.511.112-.13.223-.252.344-.372a9.538,9.538,0,0,1,1.609-1.339c.307-.2.623-.381.967-.558.168-.084.344-.168.521-.242a11.139,11.139,0,0,1,3.413-.846l.233-.028c.019,0,.028.01.046,0l.232.028a11.139,11.139,0,0,1,3.414.846c.177.074.354.158.521.242.344.177.661.363.968.558a9.535,9.535,0,0,1,1.609,1.339c.121.121.232.242.344.372.149.167.288.344.428.521.1.13.2.26.288.39.037.056.074.1.112.158.1.167.214.326.307.493.019.037.046.074.056.1.1.168.2.335.288.512.158.3.3.6.428.911.149.354.279.707.391,1.042.028.084.046.158.074.242,0,.009.009.018.009.028.009.037.028.084.037.121C175.341,168.309,175.406,168.532,175.462,168.755Zm0,0" transform="translate(-138.937 -142.099)" fill="#ff9801"/>
      <path id="Trazado_996459" data-name="Trazado 996459" d="M262.388,455.527c-2.264,3.06-6.626,4.437-10.532,4.437h14.306a10.261,10.261,0,0,0-3.774-4.437Zm0,0" transform="translate(-223.945 -404.732)" fill="#fec108"/>
      <path id="Trazado_996460" data-name="Trazado 996460" d="M137.068,459.965c-3.907,0-8.268-1.377-10.532-4.437a10.259,10.259,0,0,0-3.774,4.437Zm0,0" transform="translate(-109.156 -404.733)" fill="#fec108"/>
      <path id="Trazado_996461" data-name="Trazado 996461" d="M343.763,143.277l-.186.037a21.939,21.939,0,0,0-2.586-.093,30.847,30.847,0,0,0-7.293.977,39.619,39.619,0,0,0-5.246,1.7l-.1.028c-.037-.121-.074-.242-.121-.363a11.811,11.811,0,0,0-2.26-4.037l.046-.037a39.33,39.33,0,0,1,11.357-5.4,23,23,0,0,1,3.739-.689,36.074,36.074,0,0,1,2.651,7.879Zm0,0" transform="translate(-289.844 -120.081)" fill="#fdd834"/>
      <path id="Trazado_996462" data-name="Trazado 996462" d="M341.13,148.23l-.186.037a27.78,27.78,0,0,0-7.246.335,36.633,36.633,0,0,0-5.47,1.368,11.812,11.812,0,0,0-2.26-4.037l.046-.037a39.331,39.331,0,0,1,11.357-5.4c.372-.056.735-.1,1.107-.14a35.462,35.462,0,0,1,2.512,7.274c.056.2.093.41.139.6Zm0,0" transform="translate(-289.844 -124.485)" fill="#ffeb3a"/>
      <path id="Trazado_996463" data-name="Trazado 996463" d="M313.495,64.35a20.9,20.9,0,0,0-2.4.372,37.294,37.294,0,0,0-12.343,5.488c-.121.074-.242.158-.354.233l-.046.037-.019-.019a9.683,9.683,0,0,0-3.423-2.493c1.637-2.763,5.116-7.944,9.786-11.218a17.587,17.587,0,0,1,1.851-1.163l.074-.093a24.919,24.919,0,0,1,6.874,8.855Zm0,0" transform="translate(-262.227 -49.033)" fill="#d84315"/>
      <path id="Trazado_996464" data-name="Trazado 996464" d="M311.532,75.651c-4.874.465-9.581,2.726-12.78,4.632-.14.074-.288.168-.419.252a9.682,9.682,0,0,0-3.423-2.493c1.637-2.763,5.116-7.944,9.786-11.218a24.436,24.436,0,0,1,6.4,7.972c.158.279.3.568.437.856Zm0,0" transform="translate(-262.228 -59.105)" fill="#ff5722"/>
      <path id="Trazado_996465" data-name="Trazado 996465" d="M268.338,13.913l-.074.093c-5.6,3.07-9.786,9.265-11.637,12.381-.335-.139-.679-.27-1.042-.381a12.624,12.624,0,0,0-3.73-.53V8.732a30.7,30.7,0,0,1,7.86.949c.642.158,1.256.344,1.842.549a22.4,22.4,0,0,1,6.781,3.684Zm0,0" transform="translate(-223.944 -7.451)" fill="#fdd834"/>
      <path id="Trazado_996466" data-name="Trazado 996466" d="M266.477,22.933l-.074.093c-4.884,2.679-8.7,7.739-10.818,11.051a12.624,12.624,0,0,0-3.73-.53V17.808a28.507,28.507,0,0,1,6,.893c.642.158,1.256.344,1.842.548a22.424,22.424,0,0,1,6.781,3.684Zm0,0" transform="translate(-223.944 -15.522)" fill="#ffeb3a"/>
      <path id="Trazado_996467" data-name="Trazado 996467" d="M119.6,8.732V25.475a11.922,11.922,0,0,0-4.772.912c-1.851-3.116-6.037-9.311-11.637-12.381l-.074-.093a22.405,22.405,0,0,1,6.781-3.684c.586-.2,1.2-.391,1.842-.549a30.705,30.705,0,0,1,7.86-.949Zm0,0" transform="translate(-91.692 -7.45)" fill="#ff5722"/>
      <path id="Trazado_996468" data-name="Trazado 996468" d="M59.679,67.97a9.606,9.606,0,0,0-3.442,2.512l-.046-.037c-2.865-1.944-8.846-5.5-15.1-6.093A24.919,24.919,0,0,1,47.967,55.5l.074.093c5.6,3.07,9.786,9.265,11.637,12.381Zm0,0" transform="translate(-36.539 -49.034)" fill="#ffeb3a"/>
      <path id="Trazado_996469" data-name="Trazado 996469" d="M34.965,141.529a11.921,11.921,0,0,0-2.381,4.4l-.1-.028a33.574,33.574,0,0,0-15.125-2.586l-.186-.037a35.567,35.567,0,0,1,2.651-7.879c6.251.6,12.232,4.149,15.1,6.093Zm0,0" transform="translate(-15.268 -120.081)" fill="#ff5722"/>
      <path id="Trazado_996470" data-name="Trazado 996470" d="M160.365,322.091a.93.93,0,0,1-.416-1.767,13.3,13.3,0,0,1,5.067-1.023.93.93,0,1,1,0,1.86,11.569,11.569,0,0,0-4.236.837A.932.932,0,0,1,160.365,322.091Zm0,0" transform="translate(-141.756 -283.602)"/>
      <path id="Trazado_996471" data-name="Trazado 996471" d="M225.415,283.082h-3.28a1.86,1.86,0,0,1-1.818-2.25l2.551-11.174a.93.93,0,0,1,1.814,0l2.548,11.162v.012a1.861,1.861,0,0,1-1.819,2.25Zm-1.64-9.039-1.643,7.191,3.283-.013Zm0,0" transform="translate(-195.864 -238.818)"/>
      <path id="Trazado_996472" data-name="Trazado 996472" d="M102.649,412.559a.93.93,0,1,1-.93-.93A.93.93,0,0,1,102.649,412.559Zm0,0" transform="translate(-89.619 -365.699)"/>
      <path id="Trazado_996473" data-name="Trazado 996473" d="M135.274,309.953a.93.93,0,0,1-.93-.93v-5.581a.93.93,0,1,1,1.861,0v5.581A.93.93,0,0,1,135.274,309.953Zm0,0" transform="translate(-119.455 -268.674)"/>
      <path id="Trazado_996474" data-name="Trazado 996474" d="M135.274,390.17a.93.93,0,0,1-.93-.93v-1.861a.93.93,0,0,1,1.861,0v1.861A.93.93,0,0,1,135.274,390.17Zm0,0" transform="translate(-119.455 -343.309)"/>
      <path id="Trazado_996475" data-name="Trazado 996475" d="M211.728,448.03a.928.928,0,0,1-.415-.093,11.3,11.3,0,0,0-4.236-.837,11.561,11.561,0,0,0-4.234.837.931.931,0,1,1-.832-1.665,13,13,0,0,1,10.131,0,.93.93,0,0,1-.415,1.758Zm0,0" transform="translate(-179.166 -395.589)"/>
      <path id="Trazado_996476" data-name="Trazado 996476" d="M211.728,414.456a.928.928,0,0,1-.415-.093,11.3,11.3,0,0,0-4.236-.837,11.569,11.569,0,0,0-4.234.837.931.931,0,1,1-.832-1.665,13,13,0,0,1,10.131,0,.93.93,0,0,1-.415,1.758Zm0,0" transform="translate(-179.166 -365.736)"/>
      <path id="Trazado_996477" data-name="Trazado 996477" d="M291.007,322.091a.932.932,0,0,1-.415-.093,11.569,11.569,0,0,0-4.236-.837.93.93,0,1,1,0-1.86,13.3,13.3,0,0,1,5.067,1.023.93.93,0,0,1-.416,1.767Zm0,0" transform="translate(-253.794 -283.602)"/>
      <path id="Trazado_996478" data-name="Trazado 996478" d="M131.816,220.419a.93.93,0,0,1-.882-.634c-.045-.135-1.095-3.33.062-5.649a3.964,3.964,0,0,1,2.386-2.041,40.708,40.708,0,0,1,10.526-1.908,40.693,40.693,0,0,1,10.524,1.908,3.964,3.964,0,0,1,2.386,2.041c1.157,2.319.108,5.514.062,5.649a.931.931,0,0,1-1.175.587,39.289,39.289,0,0,0-23.594,0,.926.926,0,0,1-.3.047Zm12.092-8.371a38.5,38.5,0,0,0-9.936,1.813,2.139,2.139,0,0,0-1.31,1.105,5.662,5.662,0,0,0-.186,3.348,41.19,41.19,0,0,1,22.859,0c.266-1.34.465-3.806-1.488-4.458a38.52,38.52,0,0,0-9.939-1.813Zm0,0" transform="translate(-115.997 -186.582)"/>
      <path id="Trazado_996479" data-name="Trazado 996479" d="M168.412,161.923a.931.931,0,0,1-.448-.115,2.586,2.586,0,0,0-.433-.186,38.5,38.5,0,0,0-9.936-1.818,38.5,38.5,0,0,0-9.936,1.813,2.589,2.589,0,0,0-.433.186.931.931,0,0,1-1.353-1.032c.674-2.8,3.164-9.338,11.722-9.338s11.048,6.533,11.72,9.342a.93.93,0,0,1-.9,1.147Zm-10.817-3.978a40.012,40.012,0,0,1,9.379,1.555c-1.108-2.839-3.634-6.206-9.379-6.206s-8.271,3.367-9.379,6.206A40.012,40.012,0,0,1,157.595,157.945Zm0,0" transform="translate(-129.684 -134.339)"/>
      <path id="Trazado_996480" data-name="Trazado 996480" d="M87.661,294.986c-4.974,0-10.248-2.014-12.217-6.353a4.651,4.651,0,1,1-4.526-7.506v-3.814a4.658,4.658,0,0,1,3.72-4.558v-1.023a.93.93,0,0,1,.636-.883,41.157,41.157,0,0,1,24.771,0,.931.931,0,0,1,.638.883v1.023a4.659,4.659,0,0,1,3.721,4.558v3.814a4.651,4.651,0,1,1-4.525,7.506c-1.971,4.34-7.245,6.354-12.219,6.354ZM75.569,283.824a.93.93,0,0,1,.93.93c0,5.752,5.786,8.371,11.162,8.371s11.162-2.619,11.162-8.371a.93.93,0,1,1,1.861,0v.93a2.79,2.79,0,1,0,2.79-2.791.93.93,0,0,1-.93-.93v-4.651a2.79,2.79,0,0,0-2.79-2.79.93.93,0,0,1-.93-.93v-1.17a42.558,42.558,0,0,0-11.162-1.62A42.5,42.5,0,0,0,76.5,272.421v1.171a.93.93,0,0,1-.93.93,2.79,2.79,0,0,0-2.79,2.79v4.651a.93.93,0,0,1-.93.93,2.791,2.791,0,1,0,2.79,2.791v-.93A.93.93,0,0,1,75.569,283.824Zm0,0" transform="translate(-59.75 -238.824)"/>
      <path id="Trazado_996481" data-name="Trazado 996481" d="M387.993,412.559a.93.93,0,1,1-.93-.93A.93.93,0,0,1,387.993,412.559Zm0,0" transform="translate(-343.341 -365.699)"/>
      <path id="Trazado_996482" data-name="Trazado 996482" d="M353.5,309.953a.93.93,0,0,1-.93-.93v-5.581a.93.93,0,1,1,1.861,0v5.581A.93.93,0,0,1,353.5,309.953Zm0,0" transform="translate(-313.501 -268.674)"/>
      <path id="Trazado_996483" data-name="Trazado 996483" d="M258.7,453.427H244.391a.93.93,0,1,1,0-1.861c3.278,0,7.57-1.066,9.784-4.06a.93.93,0,0,1,1.275-.213,11.211,11.211,0,0,1,4.106,4.849.93.93,0,0,1-.86,1.285Zm-6.52-1.861h4.976a9.8,9.8,0,0,0-2.074-2.232,10.822,10.822,0,0,1-2.9,2.232Zm0,0" transform="translate(-216.48 -397.265)"/>
      <path id="Trazado_996484" data-name="Trazado 996484" d="M129.6,453.427H115.295a.93.93,0,0,1-.86-1.285,11.214,11.214,0,0,1,4.106-4.849.93.93,0,0,1,1.275.213c2.214,2.994,6.506,4.06,9.785,4.06a.93.93,0,0,1,0,1.861Zm-12.762-1.861h4.976a10.822,10.822,0,0,1-2.9-2.232,9.8,9.8,0,0,0-2.074,2.232Zm0,0" transform="translate(-101.69 -397.265)"/>
      <path id="Trazado_996485" data-name="Trazado 996485" d="M1.332,266.634a.93.93,0,0,1-.6-1.644,21.1,21.1,0,0,1,15.069-4.8.932.932,0,0,1-.115,1.861,19.246,19.246,0,0,0-13.757,4.372.926.926,0,0,1-.6.209Zm0,0" transform="translate(-0.356 -230.991)"/>
      <path id="Trazado_996486" data-name="Trazado 996486" d="M26.509,202.382a.929.929,0,0,1-.348-.068A32.423,32.423,0,0,0,11.472,199.8a.931.931,0,0,1-.175-1.853,34.255,34.255,0,0,1,15.562,2.648.93.93,0,0,1-.348,1.793Zm0,0" transform="translate(-9.295 -175.632)"/>
      <path id="Trazado_996487" data-name="Trazado 996487" d="M49.194,135.029a.929.929,0,0,1-.522-.161C45.77,132.9,40,129.5,34.011,128.935a.93.93,0,0,1,.176-1.848c6.408.607,12.481,4.174,15.534,6.247a.93.93,0,0,1-.525,1.7Zm0,0" transform="translate(-29.545 -112.69)"/>
      <path id="Trazado_996488" data-name="Trazado 996488" d="M107.622,62.034a.93.93,0,0,1-.8-.455c-1.927-3.239-5.956-9.1-11.289-12.035a.93.93,0,1,1,.9-1.628c5.72,3.138,9.97,9.314,11.992,12.715a.93.93,0,0,1-.8,1.406Zm0,0" transform="translate(-84.48 -42.171)"/>
      <path id="Trazado_996489" data-name="Trazado 996489" d="M51.921,41.211a3.778,3.778,0,0,1-2.709-1.155A13.509,13.509,0,0,0,40,35.7a.93.93,0,0,1-.93-.93v-1.86a.954.954,0,0,1,.048-.294c.013-.039,1.288-3.975-.837-5.145a.93.93,0,0,1-.456-.6c-.708-2.957-2.94-7.917-9.916-7.917s-9.2,4.96-9.912,7.917a.931.931,0,0,1-.456.6c-2.106,1.158-.854,5.1-.837,5.143a.954.954,0,0,1,.043.3v1.86a.93.93,0,0,1-.93.93A13.5,13.5,0,0,0,6.61,40.056a3.757,3.757,0,0,1-4.016.921,3.633,3.633,0,0,1-2.4-3.186c-.121-1.65-.186-3.606-.186-5.814C-.013,31.4-.342,16.992,8.626,7.748c4.765-4.909,11.252-7.4,19.285-7.4s14.52,2.488,19.281,7.4c8.968,9.244,8.639,23.649,8.624,24.257,0,2.179-.061,4.135-.186,5.786a3.633,3.633,0,0,1-2.4,3.186,3.788,3.788,0,0,1-1.312.234ZM40.934,33.878a15.846,15.846,0,0,1,9.613,4.876,1.919,1.919,0,0,0,2.046.477,1.774,1.774,0,0,0,1.177-1.579c.119-1.605.179-3.515.179-5.674,0-.169.317-14.273-8.1-22.942C41.453,4.507,35.417,2.212,27.911,2.212S14.363,4.51,9.964,9.044c-8.425,8.684-8.1,22.764-8.1,22.906,0,2.19.06,4.1.179,5.7a1.773,1.773,0,0,0,1.187,1.578,1.912,1.912,0,0,0,2.046-.476,15.846,15.846,0,0,1,9.61-4.879v-.829c-.261-.875-1.348-5.1,1.4-6.987.8-2.977,3.43-8.967,11.627-8.967s10.826,5.992,11.627,8.967c2.743,1.891,1.655,6.112,1.4,6.987Zm0,0" transform="translate(0)"/>
      <path id="Trazado_996490" data-name="Trazado 996490" d="M244.391,18.955a.93.93,0,0,1-.93-.93V1.282a.93.93,0,0,1,1.86,0V18.025A.93.93,0,0,1,244.391,18.955Zm0,0" transform="translate(-216.48 0)"/>
      <path id="Trazado_996491" data-name="Trazado 996491" d="M168.947,20.234a.929.929,0,0,1-.864-.584,36.684,36.684,0,0,0-4.06-6.967.93.93,0,1,1,1.513-1.082,38.567,38.567,0,0,1,4.279,7.357.931.931,0,0,1-.519,1.21A.918.918,0,0,1,168.947,20.234Zm0,0" transform="translate(-145.687 -9.651)"/>
      <path id="Trazado_996492" data-name="Trazado 996492" d="M371.8,266.574a.923.923,0,0,1-.6-.216,19.247,19.247,0,0,0-13.757-4.372.932.932,0,1,1-.114-1.861,21.1,21.1,0,0,1,15.069,4.8.93.93,0,0,1-.6,1.644Zm0,0" transform="translate(-316.953 -230.931)"/>
      <path id="Trazado_996493" data-name="Trazado 996493" d="M340.9,202.365a.93.93,0,0,1-.348-1.793,34.251,34.251,0,0,1,15.562-2.648.931.931,0,0,1-.175,1.853A32.407,32.407,0,0,0,341.25,202.3a.929.929,0,0,1-.348.068Zm0,0" transform="translate(-302.295 -175.614)"/>
      <path id="Trazado_996494" data-name="Trazado 996494" d="M318.926,134.976a.93.93,0,0,1-.524-1.7c3.051-2.073,9.124-5.639,15.534-6.247a.93.93,0,0,1,.176,1.852c-5.994.567-11.759,3.961-14.661,5.933a.93.93,0,0,1-.524.161Zm0,0" transform="translate(-282.753 -112.636)"/>
      <path id="Trazado_996495" data-name="Trazado 996495" d="M287.436,62.2a.93.93,0,0,1-.8-1.405c2.022-3.4,6.272-9.581,11.992-12.715a.93.93,0,1,1,.9,1.631c-5.334,2.93-9.362,8.8-11.289,12.035a.93.93,0,0,1-.8.455Zm0,0" transform="translate(-254.756 -42.335)"/>
      <path id="Trazado_996496" data-name="Trazado 996496" d="M286.354,20.234a.914.914,0,0,1-.345-.067.931.931,0,0,1-.519-1.21,38.543,38.543,0,0,1,4.279-7.357.93.93,0,1,1,1.513,1.082,36.66,36.66,0,0,0-4.06,6.967.929.929,0,0,1-.868.584Zm0,0" transform="translate(-253.792 -9.651)"/>
    </g>
  </g>
</svg>
