<svg xmlns="http://www.w3.org/2000/svg" width="169.706" height="169.706" viewBox="0 0 169.706 169.706">
  <g id="Grupo_1177724" data-name="Grupo 1177724" transform="translate(-363.98 -3369.146)">
    <rect id="Rect치ngulo_402033" data-name="Rect치ngulo 402033" width="120" height="120" rx="30" transform="translate(363.98 3453.999) rotate(-45)" fill="#ffd600"/>
    <rect id="Rect치ngulo_454167" data-name="Rect치ngulo 454167" width="100" height="100" rx="50" transform="translate(398.833 3403.999)" fill="#c8bf57"/>
    <g id="Grupo_1177723" data-name="Grupo 1177723" transform="translate(416.65 3423.708)">
      <g id="Grupo_1177721" data-name="Grupo 1177721" transform="translate(3.318 1.176)">
        <path id="Trazado_995522" data-name="Trazado 995522" d="M228.693,204.749a4.516,4.516,0,1,0-9.032,0v2.258a4.516,4.516,0,0,0,9.032,0v-2.258Z" transform="translate(-195.31 -177.914)" fill="#bb6b57" fill-rule="evenodd"/>
        <path id="Trazado_995523" data-name="Trazado 995523" d="M202.057,283.625a4.5,4.5,0,0,1-6.715,0,7.928,7.928,0,0,0-4.545,7.149V304.8H206.6V290.774A7.928,7.928,0,0,0,202.057,283.625Z" transform="translate(-169.833 -251.52)" fill="#ff5a58" fill-rule="evenodd"/>
        <path id="Trazado_995524" data-name="Trazado 995524" d="M109.591,204.749a4.516,4.516,0,1,0-9.032,0v2.258a4.516,4.516,0,0,0,9.032,0v-2.258Z" transform="translate(-90.184 -177.914)" fill="#cc9081" fill-rule="evenodd"/>
        <path id="Trazado_995525" data-name="Trazado 995525" d="M82.955,283.625a4.5,4.5,0,0,1-6.715,0,7.928,7.928,0,0,0-4.545,7.149V304.8H87.5V290.774A7.928,7.928,0,0,0,82.955,283.625Z" transform="translate(-64.707 -251.52)" fill="#66e0f7" fill-rule="evenodd"/>
        <path id="Trazado_995526" data-name="Trazado 995526" d="M347.795,204.749a4.516,4.516,0,1,0-9.032,0v2.258a4.516,4.516,0,0,0,9.032,0v-2.258Z" transform="translate(-300.436 -177.914)" fill="#cc9081" fill-rule="evenodd"/>
        <path id="Trazado_995527" data-name="Trazado 995527" d="M321.159,283.625a4.5,4.5,0,0,1-6.715,0,7.928,7.928,0,0,0-4.545,7.149V304.8H325.7V290.774A7.928,7.928,0,0,0,321.159,283.625Z" transform="translate(-274.958 -251.52)" fill="#ff9346" fill-rule="evenodd"/>
        <path id="Trazado_995528" data-name="Trazado 995528" d="M178.928,11.551a5.268,5.268,0,0,0-7.412,0c-5.538,5.52,5.123,15.167,8.785,16.145,3.661-.978,14.322-10.625,8.785-16.145a5.268,5.268,0,0,0-7.412,0A1.916,1.916,0,0,1,178.928,11.551Z" transform="translate(-151.433 -10.027)" fill="#ff5a58" fill-rule="evenodd"/>
        <path id="Trazado_995529" data-name="Trazado 995529" d="M50.041,342.282a4.516,4.516,0,0,0-9.032,0v2.258a4.516,4.516,0,0,0,9.032,0v-2.258Z" transform="translate(-37.622 -299.308)" fill="#bb6b57" fill-rule="evenodd"/>
        <path id="Trazado_995530" data-name="Trazado 995530" d="M23.4,421.158a4.5,4.5,0,0,1-6.715,0,7.928,7.928,0,0,0-4.545,7.149v2.841H27.95v-2.841a7.927,7.927,0,0,0-4.545-7.149Z" transform="translate(-12.144 -372.914)" fill="#ffc144" fill-rule="evenodd"/>
        <path id="Trazado_995531" data-name="Trazado 995531" d="M169.142,342.282a4.516,4.516,0,0,0-9.032,0v2.258a4.516,4.516,0,0,0,9.032,0Z" transform="translate(-142.747 -299.308)" fill="#e5ae8c" fill-rule="evenodd"/>
        <path id="Trazado_995532" data-name="Trazado 995532" d="M142.507,421.158a4.5,4.5,0,0,1-6.715,0,7.928,7.928,0,0,0-4.545,7.149v2.841h15.806v-2.841A7.928,7.928,0,0,0,142.507,421.158Z" transform="translate(-117.271 -372.914)" fill="#8481e2" fill-rule="evenodd"/>
        <path id="Trazado_995533" data-name="Trazado 995533" d="M288.244,342.282a4.516,4.516,0,0,0-9.032,0v2.258a4.516,4.516,0,0,0,9.032,0v-2.258Z" transform="translate(-247.873 -299.308)" fill="#cc9081" fill-rule="evenodd"/>
        <path id="Trazado_995534" data-name="Trazado 995534" d="M261.608,421.158a4.5,4.5,0,0,1-6.715,0,7.928,7.928,0,0,0-4.545,7.149v2.841h15.806v-2.841A7.928,7.928,0,0,0,261.608,421.158Z" transform="translate(-222.396 -372.914)" fill="#fff" fill-rule="evenodd"/>
        <path id="Trazado_995535" data-name="Trazado 995535" d="M407.346,342.282a4.516,4.516,0,0,0-9.032,0v2.258a4.516,4.516,0,0,0,9.032,0Z" transform="translate(-352.999 -299.308)" fill="#e5ae8c" fill-rule="evenodd"/>
        <path id="Trazado_995536" data-name="Trazado 995536" d="M380.71,421.158a4.5,4.5,0,0,1-6.715,0,7.928,7.928,0,0,0-4.545,7.149v2.841h15.806v-2.841A7.928,7.928,0,0,0,380.71,421.158Z" transform="translate(-327.522 -372.914)" fill="#cbe558" fill-rule="evenodd"/>
      </g>
      <g id="Grupo_1177722" data-name="Grupo 1177722" transform="translate(2.145 -0.001)">
        <path id="Trazado_995537" data-name="Trazado 995537" d="M58.194,216.944a5.652,5.652,0,0,0,.644-2.624v-2.258a5.7,5.7,0,0,0-3.749-5.348,9.033,9.033,0,0,0-3.883-5.909,5.653,5.653,0,0,0,.644-2.624v-2.258a5.689,5.689,0,1,0-11.379,0v2.258a5.653,5.653,0,0,0,.644,2.624,9.11,9.11,0,0,0-1.946,1.754,9.086,9.086,0,0,0-1.939-1.752,5.653,5.653,0,0,0,.645-2.626v-2.258a5.689,5.689,0,1,0-11.379,0v2.258a5.651,5.651,0,0,0,.645,2.626,9.086,9.086,0,0,0-1.949,1.764,9.178,9.178,0,0,0-1.938-1.763,5.653,5.653,0,0,0,.645-2.626v-2.258a5.689,5.689,0,0,0-11.379,0v2.258a5.653,5.653,0,0,0,.644,2.624,9.039,9.039,0,0,0-3.883,5.908,5.7,5.7,0,0,0-3.749,5.348v2.258a5.652,5.652,0,0,0,.644,2.624,9.024,9.024,0,0,0-4.031,7.536v2.841a1.173,1.173,0,0,0,1.173,1.173H61.052a1.173,1.173,0,0,0,1.173-1.173v-2.841a9.024,9.024,0,0,0-4.031-7.536Zm-1.7-4.883v2.258a3.342,3.342,0,0,1-6.685,0v-2.258a3.342,3.342,0,0,1,6.685,0ZM52.6,206.4a5.7,5.7,0,0,0-5.14,5.662v2.258a5.652,5.652,0,0,0,.645,2.626,9.1,9.1,0,0,0-1.937,1.751,9.115,9.115,0,0,0-1.949-1.752,5.653,5.653,0,0,0,.644-2.624v-2.258a5.7,5.7,0,0,0-5.14-5.662,6.851,6.851,0,0,1,2.9-3.77,5.672,5.672,0,0,0,7.083,0A6.848,6.848,0,0,1,52.6,206.4ZM35.83,214.32v-2.258a3.342,3.342,0,0,1,6.685,0v2.258a3.342,3.342,0,0,1-6.685,0Zm6.988-18.4a3.342,3.342,0,0,1,6.685,0v2.258a3.342,3.342,0,0,1-6.685,0Zm-13.976,0a3.342,3.342,0,0,1,6.685,0v2.258a3.342,3.342,0,0,1-6.685,0v-2.258Zm-.2,6.706a5.672,5.672,0,0,0,7.083,0,6.766,6.766,0,0,1,2.115,2.083,9.047,9.047,0,0,0-.609,2,5.7,5.7,0,0,0-3.749,5.348v2.258a5.652,5.652,0,0,0,.644,2.624,9.112,9.112,0,0,0-1.948,1.751,9.085,9.085,0,0,0-1.937-1.749,5.652,5.652,0,0,0,.645-2.626v-2.258a5.7,5.7,0,0,0-3.75-5.349,8.983,8.983,0,0,0-.615-1.989,6.766,6.766,0,0,1,2.123-2.094ZM21.854,214.32v-2.258a3.343,3.343,0,0,1,6.685,0v2.258a3.343,3.343,0,0,1-6.685,0Zm-6.988-18.4a3.342,3.342,0,0,1,6.685,0v2.258a3.342,3.342,0,0,1-6.685,0Zm-.2,6.706a5.672,5.672,0,0,0,7.083,0,6.846,6.846,0,0,1,2.9,3.77,5.7,5.7,0,0,0-5.14,5.662v2.258a5.653,5.653,0,0,0,.644,2.624,9.116,9.116,0,0,0-1.948,1.75,9.077,9.077,0,0,0-1.938-1.749,5.653,5.653,0,0,0,.645-2.626v-2.258a5.7,5.7,0,0,0-5.14-5.662A6.852,6.852,0,0,1,14.668,202.629Zm-6.789,9.433a3.342,3.342,0,0,1,6.685,0v2.258a3.342,3.342,0,0,1-6.685,0ZM4.492,224.481a6.7,6.7,0,0,1,3.187-5.713,5.672,5.672,0,0,0,7.083,0,6.759,6.759,0,0,1,2.113,2.08,9.063,9.063,0,0,0-.755,3.633v1.667H4.492Zm13.976,0a6.7,6.7,0,0,1,3.187-5.713,5.672,5.672,0,0,0,7.083,0,6.764,6.764,0,0,1,2.113,2.08,9.063,9.063,0,0,0-.755,3.633v1.667H18.467v-1.667Zm13.976,0a6.7,6.7,0,0,1,3.187-5.713,5.672,5.672,0,0,0,7.084,0,6.7,6.7,0,0,1,3.188,5.713v1.667H32.443Zm27.435,1.667H48.249V224.48a9.062,9.062,0,0,0-.755-3.632,6.776,6.776,0,0,1,2.113-2.081,5.672,5.672,0,0,0,7.083,0,6.7,6.7,0,0,1,3.187,5.713v1.667Z" transform="translate(-2.145 -167.911)"/>
        <path id="Trazado_995538" data-name="Trazado 995538" d="M161.991,9.975a1.174,1.174,0,0,0,.705-1.5c-.738-2.043-.471-3.66.815-4.942a4.083,4.083,0,0,1,5.755,0,3.087,3.087,0,0,0,4.4,0,4.083,4.083,0,0,1,5.755,0,4.129,4.129,0,0,1,1.015,4.313c-1.176,4.4-6.629,8.883-8.97,9.768a11.787,11.787,0,0,1-2.579-1.546,1.173,1.173,0,1,0-1.41,1.876,11.987,11.987,0,0,0,3.685,2.037,1.173,1.173,0,0,0,.606,0,16.775,16.775,0,0,0,6.058-4.073c1.455-1.412,4.022-4.259,4.877-7.456a6.467,6.467,0,0,0-10.694-6.582.747.747,0,0,1-1.088,0,6.435,6.435,0,0,0-9.069,0c-1.943,1.936-2.415,4.5-1.365,7.4a1.174,1.174,0,0,0,1.5.705Z" transform="translate(-141.427 0.001)"/>
        <path id="Trazado_995539" data-name="Trazado 995539" d="M188.636,104a1.173,1.173,0,1,0,1.174,1.173A1.173,1.173,0,0,0,188.636,104Z" transform="translate(-165.717 -91.801)"/>
      </g>
    </g>
  </g>
</svg>
