<svg xmlns="http://www.w3.org/2000/svg" width="50" height="41.671" viewBox="0 0 50 41.671">
  <g id="Grupo_1177719" data-name="Grupo 1177719" transform="translate(0.001 -42.647)">
    <path id="XMLID_83_" d="M49.713,146.232a.977.977,0,0,0-1.381,0l-5.94,5.94a.973.973,0,0,0-.286.692l0,1.737a11.157,11.157,0,0,1-3.034,7.7l-2.749-2.749a.977.977,0,0,0-1.381,1.381l4.3,4.3a1.512,1.512,0,0,1-2.137,2.139l-7.4-7.4a.977.977,0,0,0-1.506.153.957.957,0,0,0-.049.083.977.977,0,0,0,.174,1.145l9.068,9.068a1.512,1.512,0,0,1-2.138,2.138l-9.068-9.068a.977.977,0,1,0-1.381,1.381l7.4,7.4a1.512,1.512,0,0,1-2.139,2.138l-7.4-7.4a.977.977,0,1,0-1.381,1.381L25.894,173a1.512,1.512,0,0,1-2.139,2.137L11.182,162.566A11.164,11.164,0,0,1,7.89,154.6l0-1.737a.973.973,0,0,0-.286-.692h0l-5.94-5.94a.977.977,0,0,0-1.381,1.381l5.654,5.654,0,1.333a13.1,13.1,0,0,0,3.6,9.078l-.736.736a3.471,3.471,0,0,0,1.4,5.759,3.47,3.47,0,0,0,4.8,4.8,3.468,3.468,0,0,0,5.757,1.4l.735-.735.879.879A3.464,3.464,0,0,0,28.1,175.2l.584.584a3.463,3.463,0,0,0,5.75-1.4,3.465,3.465,0,0,0,4.793-4.79,3.467,3.467,0,0,0,1.4-5.752l-.165-.165a13.1,13.1,0,0,0,3.606-9.081l0-1.332,5.654-5.654a.977.977,0,0,0,0-1.381ZM10.186,165.8l.732-.732L13.05,167.2l.012.011-.733.733a1.516,1.516,0,1,1-2.144-2.144Zm1.86,7.334a1.516,1.516,0,0,1,0-2.144l2.4-2.4,2.144,2.144-.735.735-1.665,1.665A1.517,1.517,0,0,1,12.046,173.129Zm7.333,1.86a1.516,1.516,0,0,1-2.145-2.143l.736-.736,2.144,2.144Z" transform="translate(0 -93.211)" fill="#405425"/>
    <path id="XMLID_86_" d="M109.258,49.988a.972.972,0,0,0,.707.3h3.592a11.248,11.248,0,0,1,2.088.195c-.044.029-.088.056-.132.085l-5.452,3.651a3.706,3.706,0,0,0-.974,5.2A3.728,3.728,0,0,0,112.137,61a3.666,3.666,0,0,0,1.416-.283l5.362-2.242,3.026,3.026a.977.977,0,0,0,1.381-1.381L119.9,56.706a.977.977,0,0,0-1.134-.285l-5.972,2.5a1.763,1.763,0,0,1-2.112-.612,1.753,1.753,0,0,1,.461-2.462l5.452-3.651a11.223,11.223,0,0,1,6.265-1.9h3.6a.974.974,0,0,0,.7-.3l5.674-5.673a.977.977,0,1,0-1.381-1.381l-5.4,5.4h-3.187a13.179,13.179,0,0,0-4.656.847,13.15,13.15,0,0,0-4.651-.846H110.37l-5.4-5.405a.977.977,0,0,0-1.381,1.381Z" transform="translate(-93.211)" fill="#405425"/>
    <path id="XMLID_87_" d="M324.067,250.49a.977.977,0,1,0,.69.286A.984.984,0,0,0,324.067,250.49Z" transform="translate(-291.539 -187.546)" fill="#405425"/>
  </g>
</svg>
