<svg xmlns="http://www.w3.org/2000/svg" width="92" height="92" viewBox="0 0 92 92">
  <g id="Grupo_1178621" data-name="Grupo 1178621" transform="translate(-210 -3364.5)">
    <rect id="Rectángulo_454607" data-name="Rectángulo 454607" width="92" height="92" transform="translate(210 3364.5)" fill="#ffd600"/>
    <g id="Grupo_1178620" data-name="Grupo 1178620" transform="translate(166.728 3379.37)">
      <path id="Trazado_1007441" data-name="Trazado 1007441" d="M239.344,177.618h15.808a.912.912,0,0,0,0-1.824H239.344a.912.912,0,0,0,0,1.824Z" transform="translate(-151.547 -154.417)" fill="#405425"/>
      <path id="Trazado_1007442" data-name="Trazado 1007442" d="M158.617,165.436l-1.958,1.884-.241-.486a.912.912,0,0,0-1.635.809l.793,1.6a.912.912,0,0,0,1.45.253l2.855-2.747a.912.912,0,1,0-1.265-1.314Z" transform="translate(-77.987 -145.095)" fill="#405425"/>
      <path id="Trazado_1007443" data-name="Trazado 1007443" d="M141.013,138.764a2.106,2.106,0,0,0-2.1-2.1h-7.416a2.106,2.106,0,0,0-2.1,2.1v7.416a2.106,2.106,0,0,0,2.1,2.1h7.416a2.106,2.106,0,0,0,2.1-2.1v-7.416Zm-1.824,7.416a.28.28,0,0,1-.28.28h-7.416a.28.28,0,0,1-.28-.28v-7.416a.28.28,0,0,1,.28-.28h7.416a.28.28,0,0,1,.28.28v7.416Z" transform="translate(-55.764 -120.042)" fill="#405425"/>
      <path id="Trazado_1007444" data-name="Trazado 1007444" d="M239.344,288.169h15.808a.912.912,0,0,0,0-1.824H239.344a.912.912,0,0,0,0,1.824Z" transform="translate(-151.547 -251.525)" fill="#405425"/>
      <path id="Trazado_1007445" data-name="Trazado 1007445" d="M158.617,275.987l-1.958,1.884-.241-.486a.912.912,0,0,0-1.635.809l.793,1.6a.912.912,0,0,0,1.45.253l2.855-2.747a.912.912,0,1,0-1.265-1.314Z" transform="translate(-77.987 -242.203)" fill="#405425"/>
      <path id="Trazado_1007446" data-name="Trazado 1007446" d="M141.013,249.315a2.106,2.106,0,0,0-2.1-2.1h-7.416a2.106,2.106,0,0,0-2.1,2.1v7.415a2.106,2.106,0,0,0,2.1,2.1h7.416a2.106,2.106,0,0,0,2.1-2.1v-7.415Zm-1.824,7.416a.28.28,0,0,1-.28.28h-7.416a.28.28,0,0,1-.28-.28v-7.415a.28.28,0,0,1,.28-.28h7.416a.28.28,0,0,1,.28.28v7.415Z" transform="translate(-55.764 -217.15)" fill="#405425"/>
      <path id="Trazado_1007447" data-name="Trazado 1007447" d="M239.344,398.72h15.808a.912.912,0,0,0,0-1.824H239.344a.912.912,0,0,0,0,1.824Z" transform="translate(-151.547 -348.633)" fill="#405425"/>
      <path id="Trazado_1007448" data-name="Trazado 1007448" d="M158.617,386.538l-1.958,1.884-.241-.486a.912.912,0,0,0-1.635.809l.793,1.6a.912.912,0,0,0,1.45.253l2.855-2.747a.912.912,0,1,0-1.265-1.314Z" transform="translate(-77.987 -339.31)" fill="#405425"/>
      <path id="Trazado_1007449" data-name="Trazado 1007449" d="M138.909,357.762h-7.416a2.106,2.106,0,0,0-2.1,2.1v7.415a2.106,2.106,0,0,0,2.1,2.1h7.416a2.106,2.106,0,0,0,2.1-2.1v-7.415A2.106,2.106,0,0,0,138.909,357.762Zm.28,9.519a.28.28,0,0,1-.28.28h-7.416a.28.28,0,0,1-.28-.28v-7.415a.28.28,0,0,1,.28-.28h7.416a.28.28,0,0,1,.28.28v7.415Z" transform="translate(-55.764 -314.258)" fill="#405425"/>
      <path id="Trazado_1007450" data-name="Trazado 1007450" d="M108.793,5.26H101.81a2.009,2.009,0,0,0-1.952-1.551H95.406v-.2A3.512,3.512,0,0,0,91.9,0H86.145a3.512,3.512,0,0,0-3.508,3.508v.2H78.186A2.009,2.009,0,0,0,76.234,5.26H69.25A3.348,3.348,0,0,0,65.906,8.6V17.31a.912.912,0,1,0,1.824,0V8.6a1.522,1.522,0,0,1,1.52-1.52h6.93V8.908H71.074a1.522,1.522,0,0,0-1.52,1.52V57.092a1.522,1.522,0,0,0,1.52,1.52h29.618a.912.912,0,0,0,0-1.824H71.378V10.732h4.8v2.219a2.009,2.009,0,0,0,2.006,2.006H99.857a2.009,2.009,0,0,0,2.006-2.006V10.732h4.8V56.788h-1.717a.912.912,0,0,0,0,1.824h2.021a1.522,1.522,0,0,0,1.52-1.52V10.428a1.522,1.522,0,0,0-1.52-1.52h-5.106V7.084h6.93a1.522,1.522,0,0,1,1.52,1.52V58.916a1.522,1.522,0,0,1-1.52,1.52H69.25a1.522,1.522,0,0,1-1.52-1.52V21.566a.912.912,0,1,0-1.824,0v37.35A3.348,3.348,0,0,0,69.25,62.26h39.543a3.348,3.348,0,0,0,3.344-3.344V8.6a3.348,3.348,0,0,0-3.344-3.344Zm-8.754,7.691a.183.183,0,0,1-.182.182H78.186A.183.183,0,0,1,78,12.951V5.715a.183.183,0,0,1,.182-.182H83.55a.912.912,0,0,0,.912-.912V3.508a1.686,1.686,0,0,1,1.684-1.684H91.9a1.686,1.686,0,0,1,1.684,1.684V4.621a.912.912,0,0,0,.912.912h5.363a.183.183,0,0,1,.182.182c0,1.055,0,6.2,0,7.236Z" transform="translate(0 0)" fill="#405425"/>
    </g>
  </g>
</svg>
