<svg xmlns="http://www.w3.org/2000/svg" width="50" height="50.008" viewBox="0 0 50 50.008">
  <g id="Grupo_1177720" data-name="Grupo 1177720" transform="translate(-0.997 -1)">
    <path id="Trazado_995509" data-name="Trazado 995509" d="M24,40.286v7.258a.806.806,0,0,0,.806.806H36.1a.806.806,0,0,0,.806-.806V40.286a4.037,4.037,0,0,0-4.032-4.032h-.025a4.032,4.032,0,1,0-4.789,0h-.025A4.037,4.037,0,0,0,24,40.286Zm4.032-7.258a2.419,2.419,0,1,1,2.419,2.419A2.419,2.419,0,0,1,28.032,33.028Zm4.839,4.839a2.419,2.419,0,0,1,2.419,2.419v6.452H25.613V40.286a2.419,2.419,0,0,1,2.419-2.419Z" transform="translate(-4.452 -5.415)" fill="#405425"/>
    <path id="Trazado_995510" data-name="Trazado 995510" d="M49.677,33.7V28.866A3.219,3.219,0,0,0,46.9,25.685a3.226,3.226,0,1,0-4.113,0A3.219,3.219,0,0,0,40,28.866V33.7a.806.806,0,0,0,.806.806h8.065A.806.806,0,0,0,49.677,33.7Zm-4.839-12.1a1.613,1.613,0,1,1-1.613,1.613A1.613,1.613,0,0,1,44.839,21.608ZM48.065,32.9H41.613V28.866a1.613,1.613,0,0,1,1.613-1.613h3.226a1.613,1.613,0,0,1,1.613,1.613Z" transform="translate(-7.549 -3.672)" fill="#405425"/>
    <path id="Trazado_995511" data-name="Trazado 995511" d="M16.839,20a3.212,3.212,0,0,0-2.057,5.69A3.219,3.219,0,0,0,12,28.871V33.71a.806.806,0,0,0,.806.806h8.065a.806.806,0,0,0,.806-.806V28.871A3.219,3.219,0,0,0,18.9,25.69,3.212,3.212,0,0,0,16.839,20Zm0,1.613a1.613,1.613,0,1,1-1.613,1.613A1.613,1.613,0,0,1,16.839,21.613Zm3.226,7.258V32.9H13.613V28.871a1.613,1.613,0,0,1,1.613-1.613h3.226A1.613,1.613,0,0,1,20.065,28.871Z" transform="translate(-2.13 -3.677)" fill="#405425"/>
    <path id="Trazado_995512" data-name="Trazado 995512" d="M27,18.577v3.71a.806.806,0,0,0,.806.806h6.452a.806.806,0,0,0,.806-.806v-3.71A2.742,2.742,0,0,0,32.918,15.9a2.823,2.823,0,1,0-3.771,0A2.742,2.742,0,0,0,27,18.577Zm4.032-5.968a1.21,1.21,0,1,1-1.21,1.21A1.21,1.21,0,0,1,31.032,12.609Zm-2.419,5.968a1.129,1.129,0,0,1,1.129-1.129h2.581a1.129,1.129,0,0,1,1.129,1.129v2.9H28.613Z" transform="translate(-5.033 -1.932)" fill="#405425"/>
    <path id="Trazado_995513" data-name="Trazado 995513" d="M26,50.936A23.382,23.382,0,0,1,8.351,12.209L8.073,14.6l1.6.186L10.24,9.9a.806.806,0,0,0-.988-.877l-4.785,1.14.373,1.569,2.253-.537A25,25,0,0,0,39.333,48.7l-.861-1.365A23.317,23.317,0,0,1,26,50.936Z" transform="translate(0 -1.548)" fill="#405425"/>
    <path id="Trazado_995514" data-name="Trazado 995514" d="M28.8,1A24.914,24.914,0,0,0,15.466,4.85l.861,1.365A23.387,23.387,0,0,1,46.448,41.34l.278-2.394-1.6-.186-.565,4.89a.806.806,0,0,0,.8.9.818.818,0,0,0,.187-.022l4.788-1.14-.373-1.569-2.253.537A25,25,0,0,0,28.8,1Z" transform="translate(-2.8 0)" fill="#405425"/>
  </g>
</svg>
