<svg xmlns="http://www.w3.org/2000/svg" width="169.706" height="169.705" viewBox="0 0 169.706 169.705">
  <g id="Grupo_1177753" data-name="Grupo 1177753" transform="translate(8408.73 8330.854)">
    <rect id="Rect치ngulo_402033" data-name="Rect치ngulo 402033" width="120" height="120" rx="30" transform="translate(-8408.73 -8246.001) rotate(-45)" fill="#ffd600"/>
    <rect id="Rect치ngulo_454167" data-name="Rect치ngulo 454167" width="100" height="100" rx="50" transform="translate(-8373.878 -8296.001)" fill="#c8bf57"/>
    <g id="Grupo_1177752" data-name="Grupo 1177752" transform="translate(-8355 -8277)">
      <g id="Grupo_1177750" data-name="Grupo 1177750">
        <g id="Grupo_1177739" data-name="Grupo 1177739">
          <path id="Trazado_995582" data-name="Trazado 995582" d="M52,1V9H42V1Z" fill="#f0d0b4"/>
        </g>
        <g id="Grupo_1177740" data-name="Grupo 1177740">
          <path id="Trazado_995583" data-name="Trazado 995583" d="M20,1V9H10V1Z" fill="#f0d0b4"/>
        </g>
        <g id="Grupo_1177741" data-name="Grupo 1177741">
          <path id="Trazado_995584" data-name="Trazado 995584" d="M36,1V9H26V1Z" fill="#f0d0b4"/>
        </g>
        <g id="Grupo_1177742" data-name="Grupo 1177742">
          <path id="Trazado_995585" data-name="Trazado 995585" d="M57,53H5V19a4,4,0,0,1,4-4H53a4,4,0,0,1,4,4Z" fill="#ccd1d9"/>
        </g>
        <g id="Grupo_1177743" data-name="Grupo 1177743">
          <path id="Trazado_995586" data-name="Trazado 995586" d="M52,49H10a1,1,0,0,1-1-1V20a1,1,0,0,1,1-1H52a1,1,0,0,1,1,1V48A1,1,0,0,1,52,49Z" fill="#69d6f4"/>
        </g>
        <g id="Grupo_1177744" data-name="Grupo 1177744">
          <path id="Trazado_995587" data-name="Trazado 995587" d="M59,53H3a1.955,1.955,0,0,0-1.41.59A1.955,1.955,0,0,0,1,55a6,6,0,0,0,6,6H55a6.009,6.009,0,0,0,6-6,2.006,2.006,0,0,0-2-2Z" fill="#969faa"/>
        </g>
        <g id="Grupo_1177745" data-name="Grupo 1177745">
          <path id="Trazado_995588" data-name="Trazado 995588" d="M51,57h4v4H51Z" fill="#ff826e"/>
        </g>
        <g id="Grupo_1177746" data-name="Grupo 1177746">
          <path id="Trazado_995589" data-name="Trazado 995589" d="M43,57h4v4H43Z" fill="#ff826e"/>
        </g>
        <g id="Grupo_1177747" data-name="Grupo 1177747">
          <path id="Trazado_995590" data-name="Trazado 995590" d="M38,53v2a2.006,2.006,0,0,1-2,2H26a2.006,2.006,0,0,1-2-2V53Z" fill="#ff826e"/>
        </g>
        <g id="Grupo_1177748" data-name="Grupo 1177748">
          <path id="Trazado_995591" data-name="Trazado 995591" d="M47,43v6H40.55v-.03A10,10,0,1,0,21,46a9.908,9.908,0,0,0,.46,3H15V43l2.54-.81a14.529,14.529,0,0,1,1.24-3.02l-1.22-2.36,4.25-4.25,2.36,1.22a14.529,14.529,0,0,1,3.02-1.24L28,30h6l.81,2.54a14.529,14.529,0,0,1,3.02,1.24l2.36-1.22,4.25,4.25-1.22,2.36a14.529,14.529,0,0,1,1.24,3.02Z" fill="#ffc729"/>
        </g>
        <g id="Grupo_1177749" data-name="Grupo 1177749">
          <path id="Trazado_995592" data-name="Trazado 995592" d="M41,46a10.024,10.024,0,0,1-.45,2.97V49H33.64A3.949,3.949,0,0,0,35,46a4,4,0,0,0-8,0,3.949,3.949,0,0,0,1.36,3h-6.9A10,10,0,1,1,41,46Z" fill="#fcd770"/>
        </g>
      </g>
      <g id="Grupo_1177751" data-name="Grupo 1177751">
        <path id="Trazado_995593" data-name="Trazado 995593" d="M59,52H58V19a5.006,5.006,0,0,0-5-5H50v2h3a3,3,0,0,1,3,3V52H6V19a3,3,0,0,1,3-3h3V14H9a5.006,5.006,0,0,0-5,5V52H3a3,3,0,0,0-3,3,7.009,7.009,0,0,0,7,7H55a7.009,7.009,0,0,0,7-7A3,3,0,0,0,59,52ZM25,54H37v1a1,1,0,0,1-1,1H26a1,1,0,0,1-1-1Zm21,6H44V58h2Zm8,0H52V58h2Zm2-.1V56H50v4H48V56H42v4H7a5.006,5.006,0,0,1-5-5,1,1,0,0,1,1-1H23v1a3,3,0,0,0,3,3H36a3,3,0,0,0,3-3V54H59a1,1,0,0,1,1,1,5.009,5.009,0,0,1-4,4.9Z"/>
        <path id="Trazado_995594" data-name="Trazado 995594" d="M22,20V18H10a2,2,0,0,0-2,2V48a2,2,0,0,0,2,2H52a2,2,0,0,0,2-2V20a2,2,0,0,0-2-2H40v2H52V48H48V42.271L45.266,41.4a15.06,15.06,0,0,0-.919-2.229l1.312-2.549-5.274-5.274-2.549,1.312a15.105,15.105,0,0,0-2.229-.919L34.729,29H27.27l-.876,2.734a15.06,15.06,0,0,0-2.229.919l-2.549-1.312-5.274,5.274,1.312,2.549a15.105,15.105,0,0,0-.919,2.229L14,42.271V48H10V20Zm0,26a9,9,0,1,1,17.751,2H35.579a5,5,0,1,0-9.158,0H22.25A9.007,9.007,0,0,1,22,46Zm6,0a3,3,0,1,1,5.212,2H28.787A2.99,2.99,0,0,1,28,46ZM16,43.729l2.356-.754.146-.517a12.89,12.89,0,0,1,1.153-2.8l.262-.469L18.787,37,22,33.786l2.194,1.13.469-.262a12.89,12.89,0,0,1,2.8-1.153l.517-.146L28.729,31H33.27l.754,2.356.517.146a12.89,12.89,0,0,1,2.8,1.153l.469.262L40,33.787,43.213,37l-1.13,2.194.262.469a12.89,12.89,0,0,1,1.153,2.8l.146.517L46,43.729V48H41.811a11,11,0,1,0-21.622,0H16Z"/>
        <path id="Trazado_995595" data-name="Trazado 995595" d="M13,4h4V6H13Z"/>
        <path id="Trazado_995596" data-name="Trazado 995596" d="M29,4h4V6H29Z"/>
        <path id="Trazado_995597" data-name="Trazado 995597" d="M45,4h4V6H45Z"/>
        <path id="Trazado_995598" data-name="Trazado 995598" d="M30,27h2V10h5V0H25V10h5ZM27,2h8V8H27Z"/>
        <path id="Trazado_995599" data-name="Trazado 995599" d="M46,14H36V27h2V16H48V10h5V0H41V10h5ZM43,2h8V8H43Z"/>
        <path id="Trazado_995600" data-name="Trazado 995600" d="M14,16H24V27h2V14H16V10h5V0H9V10h5ZM11,2h8V8H11Z"/>
      </g>
    </g>
  </g>
</svg>
