<svg xmlns="http://www.w3.org/2000/svg" width="169.706" height="169.705" viewBox="0 0 169.706 169.705">
  <g id="Grupo_1177788" data-name="Grupo 1177788" transform="translate(7714.731 8330.854)">
    <rect id="Rect치ngulo_402033" data-name="Rect치ngulo 402033" width="120" height="120" rx="30" transform="translate(-7714.731 -8246.001) rotate(-45)" fill="#ffd600"/>
    <rect id="Rect치ngulo_454167" data-name="Rect치ngulo 454167" width="100" height="100" rx="50" transform="translate(-7679.878 -8296.001)" fill="#c8bf57"/>
    <g id="Grupo_1177787" data-name="Grupo 1177787" transform="translate(-7658.806 -8300.699)">
      <g id="Grupo_1177763" data-name="Grupo 1177763" transform="translate(10.991 32.143)">
        <g id="Grupo_1177762" data-name="Grupo 1177762" transform="translate(0 0)">
          <path id="Trazado_995631" data-name="Trazado 995631" d="M104.94,64.162a1.13,1.13,0,0,1,1.13,1.13V79.406h7.5V63.317a.565.565,0,0,0-.157-.391l-5.772-6.013a1.7,1.7,0,0,0-1.223-.521H97.83a.565.565,0,0,0-.565.565v7.2Z" transform="translate(-97.265 -56.392)" fill="#9c9c9c"/>
        </g>
      </g>
      <g id="Grupo_1177766" data-name="Grupo 1177766" transform="translate(10.991 32.143)">
        <g id="Grupo_1177764" data-name="Grupo 1177764" transform="translate(0 0)">
          <path id="Trazado_995632" data-name="Trazado 995632" d="M101.446,56.392H97.83a.565.565,0,0,0-.565.565v7.2h3.616v-7.2A.565.565,0,0,1,101.446,56.392Z" transform="translate(-97.265 -56.392)" fill="#838383"/>
        </g>
        <g id="Grupo_1177765" data-name="Grupo 1177765" transform="translate(7.675 7.77)">
          <path id="Trazado_995633" data-name="Trazado 995633" d="M167.9,125.151h-2.712a1.13,1.13,0,0,1,1.13,1.13V140.4h2.712V126.281A1.13,1.13,0,0,0,167.9,125.151Z" transform="translate(-165.187 -125.151)" fill="#838383"/>
        </g>
      </g>
      <path id="Trazado_995634" data-name="Trazado 995634" d="M199.088,301.59a.339.339,0,0,1-.439,0l-6.06-5.131a.339.339,0,0,1,.219-.6h1.808a.339.339,0,0,0,.339-.339v-3.454H175.187v20.721h25.886a.565.565,0,0,0,.565-.565V299.431Z" transform="translate(-155.391 -233.293)" fill="#e2e2e2"/>
      <path id="Trazado_995635" data-name="Trazado 995635" d="M175.187,260.058h19.768v3.617H175.187Z" transform="translate(-155.391 -204.901)" fill="#cecece"/>
      <path id="Trazado_995636" data-name="Trazado 995636" d="M24.946,161.918c0,.025,0,.051,0,.076H21.917a1.7,1.7,0,0,1-1.695-1.695v-2.565a1.7,1.7,0,0,1,1.695-1.695h1.9l1.916-3.991a3.653,3.653,0,0,1,.72-1.011V126.281a1.13,1.13,0,0,0-1.13-1.13H8.63a1.13,1.13,0,0,0-1.13,1.13v37.887a.565.565,0,0,0,.565.565H26.448V164.4A2.824,2.824,0,0,1,24.946,161.918Z" transform="translate(-6.653 -85.238)" fill="#8ac9fe"/>
      <g id="Grupo_1177767" data-name="Grupo 1177767" transform="translate(0.847 39.913)">
        <path id="Trazado_995637" data-name="Trazado 995637" d="M12.02,164.168V126.281a1.13,1.13,0,0,1,1.13-1.13H8.63a1.13,1.13,0,0,0-1.13,1.13v37.887a.565.565,0,0,0,.565.565h4.52A.565.565,0,0,1,12.02,164.168Z" transform="translate(-7.5 -125.151)" fill="#60b7ff"/>
      </g>
      <g id="Grupo_1177774" data-name="Grupo 1177774" transform="translate(33.516 33.818)">
        <g id="Grupo_1177768" data-name="Grupo 1177768" transform="translate(3.56 19.123)">
          <path id="Trazado_995638" data-name="Trazado 995638" d="M340.581,250.077h-1.808a.339.339,0,0,1-.339-.339v-9.287a9.988,9.988,0,0,1-7.827,0v9.287a.339.339,0,0,1-.339.339H328.46a.339.339,0,0,0-.219.6l6.06,5.131a.339.339,0,0,0,.439,0l6.06-5.131A.339.339,0,0,0,340.581,250.077Z" transform="translate(-328.12 -240.451)" fill="#fd6930"/>
        </g>
        <g id="Grupo_1177769" data-name="Grupo 1177769" transform="translate(3.56 19.123)">
          <path id="Trazado_995639" data-name="Trazado 995639" d="M340.581,250.077h-1.808a.339.339,0,0,1-.339-.339v-9.287a9.988,9.988,0,0,1-7.827,0v9.287a.339.339,0,0,1-.339.339H328.46a.339.339,0,0,0-.219.6l6.06,5.131a.339.339,0,0,0,.439,0l6.06-5.131A.339.339,0,0,0,340.581,250.077Z" transform="translate(-328.12 -240.451)" fill="#fd6930"/>
        </g>
        <g id="Grupo_1177770" data-name="Grupo 1177770" transform="translate(3.56 19.123)">
          <path id="Trazado_995640" data-name="Trazado 995640" d="M333.847,250.5v-9.271a9.908,9.908,0,0,1-3.239-.775v9.287a.339.339,0,0,1-.339.339H328.46a.339.339,0,0,0-.219.6l6.06,5.131a.339.339,0,0,0,.439,0l2.379-2.014-2.873-2.432A1.131,1.131,0,0,1,333.847,250.5Z" transform="translate(-328.12 -240.452)" fill="#fd5426"/>
        </g>
        <g id="Grupo_1177773" data-name="Grupo 1177773" transform="translate(0 0)">
          <g id="Grupo_1177771" data-name="Grupo 1177771">
            <circle id="Elipse_13618" data-name="Elipse 13618" cx="9.961" cy="9.961" r="9.961" fill="#ffe177"/>
          </g>
          <g id="Grupo_1177772" data-name="Grupo 1177772" transform="translate(0 0)">
            <path id="Trazado_995641" data-name="Trazado 995641" d="M302.037,81.176a9.965,9.965,0,0,1,7.249-9.587,9.961,9.961,0,1,0,0,19.174A9.965,9.965,0,0,1,302.037,81.176Z" transform="translate(-296.613 -71.215)" fill="#ffd15b"/>
          </g>
        </g>
      </g>
      <g id="Grupo_1177785" data-name="Grupo 1177785" transform="translate(13.57 64.732)">
        <g id="Grupo_1177783" data-name="Grupo 1177783">
          <path id="Trazado_995642" data-name="Trazado 995642" d="M145.13,350.866h-1.561l-1.916-3.991a3.661,3.661,0,0,0-3.3-2.077h-9.457a3.661,3.661,0,0,0-3.3,2.077l-1.916,3.991h-1.9a1.7,1.7,0,0,0-1.695,1.695v2.565a1.7,1.7,0,0,0,1.695,1.695h3.031c0-.028,0-.056,0-.085a2.825,2.825,0,0,1,5.65,0c0,.028,0,.057,0,.085h6.671c0-.028,0-.056,0-.085a2.825,2.825,0,0,1,5.65,0c0,.028,0,.057,0,.085h4.049a1.7,1.7,0,0,0,1.695-1.695v-.87A3.39,3.39,0,0,0,145.13,350.866Z" transform="translate(-120.088 -344.798)" fill="#fd6930"/>
          <g id="Grupo_1177775" data-name="Grupo 1177775" transform="translate(0 8.669)">
            <path id="Trazado_995643" data-name="Trazado 995643" d="M122.677,422.083a.565.565,0,0,0-.565-.565h-2.024v1.659a1.7,1.7,0,0,0,1.695,1.695h.894Z" transform="translate(-120.088 -421.518)" fill="#ffe177"/>
          </g>
          <g id="Grupo_1177776" data-name="Grupo 1177776" transform="translate(6.724 2.825)">
            <path id="Trazado_995644" data-name="Trazado 995644" d="M193.214,373.041l-1.329-2.769a.841.841,0,0,0-.754-.474h-9.457a.84.84,0,0,0-.754.474l-1.329,2.769Z" transform="translate(-179.591 -369.798)" fill="#dff6fd"/>
          </g>
          <g id="Grupo_1177779" data-name="Grupo 1177779" transform="translate(4.724 9.113)">
            <g id="Grupo_1177778" data-name="Grupo 1177778">
              <g id="Grupo_1177777" data-name="Grupo 1177777">
                <circle id="Elipse_13619" data-name="Elipse 13619" cx="2.825" cy="2.825" r="2.825" fill="#838383"/>
              </g>
            </g>
          </g>
          <g id="Grupo_1177782" data-name="Grupo 1177782" transform="translate(17.04 9.113)">
            <g id="Grupo_1177781" data-name="Grupo 1177781">
              <g id="Grupo_1177780" data-name="Grupo 1177780">
                <circle id="Elipse_13620" data-name="Elipse 13620" cx="2.825" cy="2.825" r="2.825" fill="#838383"/>
              </g>
            </g>
          </g>
        </g>
        <g id="Grupo_1177784" data-name="Grupo 1177784" transform="translate(24.736 6.068)">
          <path id="Trazado_995645" data-name="Trazado 995645" d="M339.305,398.5H339v1.422a1.782,1.782,0,0,0,1.782,1.782h1.908A3.39,3.39,0,0,0,339.305,398.5Z" transform="translate(-339 -398.5)" fill="#ffe177"/>
        </g>
      </g>
      <g id="Grupo_1177786" data-name="Grupo 1177786" transform="translate(0 29.054)">
        <path id="Trazado_995646" data-name="Trazado 995646" d="M41.792,162.919h9.695a.847.847,0,0,0,0-1.695H41.792a.847.847,0,0,0,0,1.695Z" transform="translate(-36.318 -146.289)"/>
        <path id="Trazado_995647" data-name="Trazado 995647" d="M41.792,200.1h9.695a.847.847,0,0,0,0-1.695H41.792a.847.847,0,0,0,0,1.695Z" transform="translate(-36.318 -179.268)"/>
        <path id="Trazado_995648" data-name="Trazado 995648" d="M41.792,237.278h9.695a.847.847,0,1,0,0-1.695H41.792a.847.847,0,1,0,0,1.695Z" transform="translate(-36.318 -212.246)"/>
        <path id="Trazado_995649" data-name="Trazado 995649" d="M41.792,274.456h9.695a.847.847,0,1,0,0-1.695H41.792a.847.847,0,1,0,0,1.695Z" transform="translate(-36.318 -245.223)"/>
        <path id="Trazado_995650" data-name="Trazado 995650" d="M41.792,311.635h9.695a.847.847,0,1,0,0-1.695H41.792a.847.847,0,1,0,0,1.695Z" transform="translate(-36.318 -278.201)"/>
        <path id="Trazado_995651" data-name="Trazado 995651" d="M41.792,348.815h9.695a.847.847,0,1,0,0-1.695H41.792a.847.847,0,1,0,0,1.695Z" transform="translate(-36.318 -311.179)"/>
        <path id="Trazado_995652" data-name="Trazado 995652" d="M352,102.067h2.577a1.028,1.028,0,0,1,1.027,1.027.847.847,0,1,0,1.695,0,2.725,2.725,0,0,0-2.722-2.722h-.441V99.5a.847.847,0,0,0-1.695,0v.871H352a2.725,2.725,0,0,0-2.722,2.722v.547A2.725,2.725,0,0,0,352,106.362h2.577a1.028,1.028,0,0,1,1.027,1.027v.547a1.028,1.028,0,0,1-1.027,1.027H352a1.028,1.028,0,0,1-1.027-1.027.847.847,0,1,0-1.695,0A2.725,2.725,0,0,0,352,110.657h.441v.87a.847.847,0,0,0,1.695,0v-.87h.441a2.725,2.725,0,0,0,2.722-2.722v-.547a2.725,2.725,0,0,0-2.722-2.722H352a1.028,1.028,0,0,1-1.027-1.027v-.547A1.028,1.028,0,0,1,352,102.067Z" transform="translate(-309.81 -90.789)"/>
        <path id="Trazado_995653" data-name="Trazado 995653" d="M279.825,31.582a.847.847,0,0,0,.847-.847V29.9a.847.847,0,1,0-1.695,0v.833A.847.847,0,0,0,279.825,31.582Z" transform="translate(-247.454 -29.054)"/>
        <path id="Trazado_995654" data-name="Trazado 995654" d="M279.825,76.752a.847.847,0,0,0,.847-.847v-.833a.847.847,0,1,0-1.695,0V75.9A.847.847,0,0,0,279.825,76.752Z" transform="translate(-247.454 -69.12)"/>
        <path id="Trazado_995655" data-name="Trazado 995655" d="M253.552,57.022h.781a.847.847,0,0,0,0-1.695h-.781a.847.847,0,1,0,0,1.695Z" transform="translate(-224.15 -52.358)"/>
        <path id="Trazado_995656" data-name="Trazado 995656" d="M299.182,57.022h.781a.847.847,0,0,0,0-1.695h-.781a.847.847,0,1,0,0,1.695Z" transform="translate(-264.624 -52.358)"/>
        <path id="Trazado_995657" data-name="Trazado 995657" d="M471.575,232.175a.847.847,0,0,0-.847.847v.833a.847.847,0,1,0,1.695,0v-.833A.847.847,0,0,0,471.575,232.175Z" transform="translate(-417.537 -209.223)"/>
        <path id="Trazado_995658" data-name="Trazado 995658" d="M471.575,277.345a.847.847,0,0,0-.847.847v.833a.847.847,0,0,0,1.695,0v-.833A.847.847,0,0,0,471.575,277.345Z" transform="translate(-417.537 -249.289)"/>
        <path id="Trazado_995659" data-name="Trazado 995659" d="M446.085,258.448H445.3a.847.847,0,1,0,0,1.695h.781a.847.847,0,0,0,0-1.695Z" transform="translate(-394.234 -232.527)"/>
        <path id="Trazado_995660" data-name="Trazado 995660" d="M491.715,258.448h-.781a.847.847,0,1,0,0,1.695h.781a.847.847,0,1,0,0-1.695Z" transform="translate(-434.708 -232.527)"/>
        <path id="Trazado_995661" data-name="Trazado 995661" d="M49.538,79.316h-1.3V71.085a10.767,10.767,0,0,0,5.889-7.857.847.847,0,0,0-1.67-.288,9.105,9.105,0,1,1-.1-3.62.848.848,0,0,0,1.652-.381A10.809,10.809,0,1,0,38.716,71.077v.829H28.145V69.073h.284a.847.847,0,1,0,0-1.695h-.284V65.322h.284a.847.847,0,0,0,0-1.695h-.284V61.572h.284a.847.847,0,0,0,0-1.695h-.284V56.665a1.407,1.407,0,0,0-.394-.978L25.944,53.8a.847.847,0,0,0-1.223,1.174l1.728,1.8v3.1H23.336a.847.847,0,0,0,0,1.695H26.45v2.056H23.336a.847.847,0,0,0,0,1.695H26.45v2.056H23.336a.847.847,0,1,0,0,1.695H26.45v2.833H20.643V58.639a1.98,1.98,0,0,0-1.977-1.977H11.838V50.587h8.307a.852.852,0,0,1,.611.261l1.226,1.277A.847.847,0,1,0,23.2,50.951l-1.226-1.277a2.555,2.555,0,0,0-1.834-.782H11.556A1.414,1.414,0,0,0,10.143,50.3v6.357H1.977A1.98,1.98,0,0,0,0,58.639V96.526a1.414,1.414,0,0,0,1.412,1.412H5.989a.847.847,0,1,0,0-1.695H1.695v-37.6a.283.283,0,0,1,.282-.282H18.666a.283.283,0,0,1,.282.282V83.068a4.457,4.457,0,0,0-.637.971l-1.685,3.511H15.265a2.545,2.545,0,0,0-2.542,2.542v2.565A2.545,2.545,0,0,0,15.265,95.2h2.3a3.654,3.654,0,0,0,.46,1.045H9.944a.847.847,0,0,0,0,1.695H45.682a1.414,1.414,0,0,0,1.412-1.412v-12.4l3.21-2.718a1.187,1.187,0,0,0-.767-2.093ZM20.643,73.6H38.716v1.922H20.643Zm-.8,11.171a2.829,2.829,0,0,1,2.537-1.6h9.457a2.828,2.828,0,0,1,2.537,1.6L35.7,87.549H34.45l-1.1-2.288a1.692,1.692,0,0,0-1.518-.955H22.376a1.692,1.692,0,0,0-1.518.955l-1.1,2.288H18.507Zm12.73,2.777H27.839V86h3.988ZM26.144,86v1.548h-4.5L22.383,86ZM15.311,93.5h-.047a.848.848,0,0,1-.847-.847v-.811h.894Zm5.807,2.74A1.977,1.977,0,1,1,23.1,94.267,1.98,1.98,0,0,1,21.118,96.244Zm3.092,0a3.654,3.654,0,0,0,.46-1.045h5.212a3.654,3.654,0,0,0,.46,1.045Zm9.225,0a1.977,1.977,0,1,1,1.977-1.977A1.98,1.98,0,0,1,33.435,96.244Zm0-5.65a3.678,3.678,0,0,0-3.592,2.91H24.71a3.672,3.672,0,0,0-7.185,0h-.52V91.563a1.414,1.414,0,0,0-1.412-1.412H14.417v-.059a.848.848,0,0,1,.847-.847H37.458v.574a2.633,2.633,0,0,0,2.63,2.63h1.066v.209a.848.848,0,0,1-.847.847H37.027a3.679,3.679,0,0,0-3.592-2.91Zm5.718-.776V89.3a2.551,2.551,0,0,1,1.78,1.45h-.845A.936.936,0,0,1,39.153,89.818ZM45.4,96.244H36.527a3.654,3.654,0,0,0,.46-1.045h3.319a2.545,2.545,0,0,0,2.542-2.542v-.87a4.242,4.242,0,0,0-4.237-4.237H37.583L35.9,84.039a4.533,4.533,0,0,0-4.065-2.558H22.376a4.48,4.48,0,0,0-1.733.353V77.218H38.716v2.1h-1.3a1.187,1.187,0,0,0-.767,2.093l6.06,5.131a1.184,1.184,0,0,0,1.534,0l1.156-.978ZM43.477,84.968,38.8,81.011h.421a1.188,1.188,0,0,0,1.187-1.187V71.74a10.841,10.841,0,0,0,6.132,0v8.082a1.188,1.188,0,0,0,1.187,1.187h.421Z" transform="translate(0 -46.65)"/>
        <circle id="Elipse_13621" data-name="Elipse 13621" cx="0.847" cy="0.847" r="0.847" transform="translate(20.271 46.769)"/>
        <circle id="Elipse_13622" data-name="Elipse 13622" cx="0.847" cy="0.847" r="0.847" transform="translate(32.587 46.769)"/>
      </g>
    </g>
  </g>
</svg>
