<svg xmlns="http://www.w3.org/2000/svg" width="100" height="100" viewBox="0 0 100 100">
  <g id="Grupo_1176279" data-name="Grupo 1176279" transform="translate(-637 -6992)">
    <g id="Grupo_1098742" data-name="Grupo 1098742" transform="translate(637.242 6992)">
      <rect id="Rectángulo_400898" data-name="Rectángulo 400898" width="100" height="100" rx="50" transform="translate(-0.242)" fill="#fff" opacity="0.859"/>
      <g id="Rectángulo_400907" data-name="Rectángulo 400907" transform="translate(-0.242)" fill="none" stroke="#ffd600" stroke-linecap="round" stroke-width="3" stroke-dasharray="0 7">
        <rect width="100" height="100" rx="50" stroke="none"/>
        <rect x="1.5" y="1.5" width="97" height="97" rx="48.5" fill="none"/>
      </g>
    </g>
    <g id="Grupo_1107006" data-name="Grupo 1107006" transform="translate(645.109 7000.157)">
      <rect id="Rectángulo_400898-2" data-name="Rectángulo 400898" width="84" height="84" rx="42" transform="translate(-0.399 -0.157)" fill="#405425" opacity="0.859"/>
      <rect id="Rectángulo_400907-2" data-name="Rectángulo 400907" width="84" height="84" rx="42" transform="translate(-0.398 -0.157)" fill="none"/>
    </g>
    <g id="Grupo_1177853" data-name="Grupo 1177853" transform="translate(658.772 7014.061)">
      <g id="Grupo_1177838" data-name="Grupo 1177838" transform="translate(0.841 0.822)">
        <g id="Grupo_1177830" data-name="Grupo 1177830" transform="translate(0 6.04)">
          <g id="Grupo_1177827" data-name="Grupo 1177827">
            <g id="Grupo_1177826" data-name="Grupo 1177826" transform="translate(3.441)">
              <path id="Trazado_995724" data-name="Trazado 995724" d="M101.981,173.794l-.484-2.637.484-1.563v-5.337a4.395,4.395,0,0,0-1.406-3.227c-.787-.732-1.843-.6-3-.6a.974.974,0,0,0-.974.974v12.388h5.383Z" transform="translate(-90.29 -149.7)" fill="#c46255"/>
              <path id="Trazado_995725" data-name="Trazado 995725" d="M75.825,118.921l-.386-1.416.386-1.436V106.96a3.887,3.887,0,0,0-1.492-3.065,3.675,3.675,0,0,0-2.4-.376h-.513a.974.974,0,0,0-.974.974v14.428Z" transform="translate(-67.002 -99.018)" fill="#c46255"/>
              <path id="Trazado_995726" data-name="Trazado 995726" d="M44.439,82.448l-.484-3.431.484-1.407V66.495a3.9,3.9,0,0,0-3.9-3.895,1.483,1.483,0,0,0-1.119.508s-.034.945-.034,1.32l-.334,18.019Z" transform="translate(-39.056 -62.6)" fill="#c46255"/>
            </g>
            <path id="Trazado_995727" data-name="Trazado 995727" d="M7.669,81.992V100.8a4.328,4.328,0,0,0,.96,2.718L19.352,116.8a7.789,7.789,0,0,1,1.632,6.117l-.556,3.5a.487.487,0,0,0,.481.564h8.53l1.689-.45.009-12.2a9.192,9.192,0,0,0-2.722-6.529L17.963,97.067c-1-.995-2.68-1.849-3.78-1.024a2.8,2.8,0,0,0-1.13,2.252l-.564-1.462.564-2.378v-10A3.922,3.922,0,0,0,9.812,80.59l-.033,0a3.842,3.842,0,0,0-.649-.054,1.463,1.463,0,0,0-1.461,1.461Z" transform="translate(-7.669 -78.565)" fill="#ce7165"/>
            <path id="Trazado_995728" data-name="Trazado 995728" d="M67.088,217.48l12.534,12.135a9.192,9.192,0,0,1,2.722,6.529v12.267h1.887a.548.548,0,0,0,.548-.548v-12.4a9.192,9.192,0,0,0-2.722-6.529l-11.3-11.2A2.817,2.817,0,0,0,67.088,217.48Z" transform="translate(-60.575 -200.002)" fill="#c46255"/>
          </g>
          <g id="Grupo_1177829" data-name="Grupo 1177829" transform="translate(30.149)">
            <g id="Grupo_1177828" data-name="Grupo 1177828" transform="translate(9.073)">
              <path id="Trazado_995729" data-name="Trazado 995729" d="M365.483,173.794l.484-2.637-.484-1.563v-5.337a4.395,4.395,0,0,1,1.406-3.227c.787-.732,1.843-.6,3-.6a.974.974,0,0,1,.974.974v12.388h-5.383Z" transform="translate(-365.483 -149.7)" fill="#c46255"/>
              <path id="Trazado_995730" data-name="Trazado 995730" d="M391.64,118.921l.386-1.416-.386-1.436V106.96a3.887,3.887,0,0,1,1.492-3.065,3.675,3.675,0,0,1,2.4-.376h.513a.974.974,0,0,1,.974.974v14.428Z" transform="translate(-388.773 -99.018)" fill="#c46255"/>
              <path id="Trazado_995731" data-name="Trazado 995731" d="M423.026,82.448l.484-3.431-.484-1.407V66.495a3.9,3.9,0,0,1,3.9-3.895,1.483,1.483,0,0,1,1.119.508s.034.945.034,1.32l.334,18.019Z" transform="translate(-416.718 -62.6)" fill="#c46255"/>
            </g>
            <path id="Trazado_995732" data-name="Trazado 995732" d="M282.712,126.863v-12.4a9.193,9.193,0,0,1,2.721-6.529l11.3-11.2a2.817,2.817,0,0,1,4.8,2l.563-1.462-.564-2.378v-10a3.922,3.922,0,0,1,3.24-3.861c.221-.039.158.139.391.139a1.461,1.461,0,0,1,1.461,1.46l-.3,18.553a4.327,4.327,0,0,1-.961,2.719l-10.884,13.061a7.787,7.787,0,0,0-1.632,6.117l.57,3.775-1.033.56H283.26A.548.548,0,0,1,282.712,126.863Z" transform="translate(-282.712 -79.002)" fill="#ce7165"/>
            <path id="Trazado_995733" data-name="Trazado 995733" d="M361.718,121.553l.923,5.422h1.295a.487.487,0,0,0,.481-.563l-.556-3.5a7.788,7.788,0,0,1,1.632-6.117l10.723-13.281a4.329,4.329,0,0,0,.96-2.718V81.992a1.463,1.463,0,0,0-1.461-1.46,3.932,3.932,0,0,0-.682.059V99.437a4.328,4.328,0,0,1-.96,2.718L363.35,115.437A7.788,7.788,0,0,0,361.718,121.553Z" transform="translate(-352.971 -78.566)" fill="#c46255"/>
          </g>
        </g>
        <g id="Grupo_1177831" data-name="Grupo 1177831" transform="translate(12.291)">
          <path id="Trazado_995734" data-name="Trazado 995734" d="M148.235,22.419c0,8.239-5.245,14.062-13.5,14.062-4.414,0-8.38-1.054-11.115-4.092a14.932,14.932,0,0,1,18.942-22.68C146.833,12.334,148.235,17.044,148.235,22.419Z" transform="translate(-119.796 -7.5)" fill="#f2fbff"/>
        </g>
        <path id="Trazado_995735" data-name="Trazado 995735" d="M173.647,27.645a14.931,14.931,0,0,1-18.942,22.68,14.931,14.931,0,1,0,18.942-22.68Z" transform="translate(-138.587 -25.437)" fill="#dff6fd"/>
        <g id="Grupo_1177837" data-name="Grupo 1177837" transform="translate(15.035 3.548)">
          <g id="Grupo_1177832" data-name="Grupo 1177832" transform="translate(8.569)">
            <path id="Trazado_995736" data-name="Trazado 995736" d="M229.62,49.354c0,2.444-.81,3.66-3,4.991C224.427,53.014,223,51.8,223,49.359c0-1.981,1.336-4.24,2.685-5.867.315-.38.632-.192.932-.492A9.482,9.482,0,0,1,229.62,49.354Z" transform="translate(-223.001 -42.657)" fill="#bbf49b"/>
            <path id="Trazado_995737" data-name="Trazado 995737" d="M248.112,40.009c-.2.215-.408.449-.613.7,1.349,1.627,2.686,3.886,2.686,5.867a9.492,9.492,0,0,1-.954,4.46c1.756-1.162,2.818-2.311,2.818-4.46,0-2.283-1.775-4.936-3.3-6.564A.435.435,0,0,0,248.112,40.009Z" transform="translate(-244.814 -39.87)" fill="#9be69d"/>
          </g>
          <g id="Grupo_1177834" data-name="Grupo 1177834" transform="translate(0 8.805)">
            <g id="Grupo_1177833" data-name="Grupo 1177833">
              <path id="Trazado_995738" data-name="Trazado 995738" d="M153.591,128.342a3.914,3.914,0,0,1-.2.779l-.661.011h-2.172a5.438,5.438,0,0,1-4.361-1.812,5.623,5.623,0,0,1-1.284-3.456l-.08-3.469a.194.194,0,0,1,.3-.169l1.1.69a17.027,17.027,0,0,0,3.863,1.8,5.065,5.065,0,0,1,3.5,5.623Z" transform="translate(-144.831 -120.196)" fill="#bbf49b"/>
              <path id="Trazado_995739" data-name="Trazado 995739" d="M162.426,148.6a5.44,5.44,0,0,1,1.193,3.974v.009a1.028,1.028,0,0,1-1.02.93h-2.261a5.62,5.62,0,0,1-3.063-.9,5.633,5.633,0,0,0,4.358,2.058h2.525l.311-.257c.089-.313.415-.369.447-.682A5.445,5.445,0,0,0,162.426,148.6Z" transform="translate(-155.91 -145.485)" fill="#9be69d"/>
            </g>
          </g>
          <g id="Grupo_1177836" data-name="Grupo 1177836" transform="translate(15.517 8.823)">
            <g id="Grupo_1177835" data-name="Grupo 1177835">
              <path id="Trazado_995740" data-name="Trazado 995740" d="M294.8,123.594v2.941a5.083,5.083,0,0,1-5.2,5.166h-2.108l-.729.006c-.086-.3-.318-.334-.349-.638a5.282,5.282,0,0,1,3.638-5.553,16.517,16.517,0,0,0,3.756-1.753l.7-.334A.188.188,0,0,1,294.8,123.594Z" transform="translate(-286.387 -123.068)" fill="#bbf49b"/>
              <path id="Trazado_995741" data-name="Trazado 995741" d="M295.175,120.393l-1.06.667-.046,2.018a5.48,5.48,0,0,1-5.479,5.354h-1.858c.056.243.258.291.338.571l.248.276h2.589a5.48,5.48,0,0,0,5.479-5.354l.077-3.368A.188.188,0,0,0,295.175,120.393Z" transform="translate(-286.694 -120.363)" fill="#9be69d"/>
            </g>
          </g>
        </g>
      </g>
      <g id="Grupo_1177851" data-name="Grupo 1177851" transform="translate(0.841 0.822)">
        <g id="Grupo_1177843" data-name="Grupo 1177843" transform="translate(0 6.04)">
          <g id="Grupo_1177840" data-name="Grupo 1177840">
            <g id="Grupo_1177839" data-name="Grupo 1177839" transform="translate(3.441)">
              <path id="Trazado_995742" data-name="Trazado 995742" d="M101.981,173.794l-.484-2.637.484-1.563v-5.337a4.395,4.395,0,0,0-1.406-3.227c-.787-.732-1.843-.6-3-.6a.974.974,0,0,0-.974.974v12.388h5.383Z" transform="translate(-90.29 -149.7)" fill="#c46255"/>
              <path id="Trazado_995743" data-name="Trazado 995743" d="M75.825,118.921l-.386-1.416.386-1.436V106.96a3.887,3.887,0,0,0-1.492-3.065,3.675,3.675,0,0,0-2.4-.376h-.513a.974.974,0,0,0-.974.974v14.428Z" transform="translate(-67.002 -99.018)" fill="#c46255"/>
              <path id="Trazado_995744" data-name="Trazado 995744" d="M44.439,82.448l-.484-3.431.484-1.407V66.495a3.9,3.9,0,0,0-3.9-3.895,1.483,1.483,0,0,0-1.119.508s-.034.945-.034,1.32l-.334,18.019Z" transform="translate(-39.056 -62.6)" fill="#c46255"/>
            </g>
            <path id="Trazado_995745" data-name="Trazado 995745" d="M7.669,81.992V100.8a4.328,4.328,0,0,0,.96,2.718L19.352,116.8a7.789,7.789,0,0,1,1.632,6.117l-.556,3.5a.487.487,0,0,0,.481.564h8.53l1.689-.45.009-12.2a9.192,9.192,0,0,0-2.722-6.529L17.963,97.067c-1-.995-2.68-1.849-3.78-1.024a2.8,2.8,0,0,0-1.13,2.252l-.564-1.462.564-2.378v-10A3.922,3.922,0,0,0,9.812,80.59l-.033,0a3.842,3.842,0,0,0-.649-.054,1.463,1.463,0,0,0-1.461,1.461Z" transform="translate(-7.669 -78.565)" fill="#ce7165"/>
            <path id="Trazado_995746" data-name="Trazado 995746" d="M67.088,217.48l12.534,12.135a9.192,9.192,0,0,1,2.722,6.529v12.267h1.887a.548.548,0,0,0,.548-.548v-12.4a9.192,9.192,0,0,0-2.722-6.529l-11.3-11.2A2.817,2.817,0,0,0,67.088,217.48Z" transform="translate(-60.575 -200.002)" fill="#c46255"/>
          </g>
          <g id="Grupo_1177842" data-name="Grupo 1177842" transform="translate(30.149)">
            <g id="Grupo_1177841" data-name="Grupo 1177841" transform="translate(9.073)">
              <path id="Trazado_995747" data-name="Trazado 995747" d="M365.483,173.794l.484-2.637-.484-1.563v-5.337a4.395,4.395,0,0,1,1.406-3.227c.787-.732,1.843-.6,3-.6a.974.974,0,0,1,.974.974v12.388h-5.383Z" transform="translate(-365.483 -149.7)" fill="#c46255"/>
              <path id="Trazado_995748" data-name="Trazado 995748" d="M391.64,118.921l.386-1.416-.386-1.436V106.96a3.887,3.887,0,0,1,1.492-3.065,3.675,3.675,0,0,1,2.4-.376h.513a.974.974,0,0,1,.974.974v14.428Z" transform="translate(-388.773 -99.018)" fill="#c46255"/>
              <path id="Trazado_995749" data-name="Trazado 995749" d="M423.026,82.448l.484-3.431-.484-1.407V66.495a3.9,3.9,0,0,1,3.9-3.895,1.483,1.483,0,0,1,1.119.508s.034.945.034,1.32l.334,18.019Z" transform="translate(-416.718 -62.6)" fill="#c46255"/>
            </g>
            <path id="Trazado_995750" data-name="Trazado 995750" d="M282.712,126.863v-12.4a9.193,9.193,0,0,1,2.721-6.529l11.3-11.2a2.817,2.817,0,0,1,4.8,2l.563-1.462-.564-2.378v-10a3.922,3.922,0,0,1,3.24-3.861c.221-.039.158.139.391.139a1.461,1.461,0,0,1,1.461,1.46l-.3,18.553a4.327,4.327,0,0,1-.961,2.719l-10.884,13.061a7.787,7.787,0,0,0-1.632,6.117l.57,3.775-1.033.56H283.26A.548.548,0,0,1,282.712,126.863Z" transform="translate(-282.712 -79.002)" fill="#ce7165"/>
            <path id="Trazado_995751" data-name="Trazado 995751" d="M361.718,121.553l.923,5.422h1.295a.487.487,0,0,0,.481-.563l-.556-3.5a7.788,7.788,0,0,1,1.632-6.117l10.723-13.281a4.329,4.329,0,0,0,.96-2.718V81.992a1.463,1.463,0,0,0-1.461-1.46,3.932,3.932,0,0,0-.682.059V99.437a4.328,4.328,0,0,1-.96,2.718L363.35,115.437A7.788,7.788,0,0,0,361.718,121.553Z" transform="translate(-352.971 -78.566)" fill="#c46255"/>
          </g>
        </g>
        <g id="Grupo_1177844" data-name="Grupo 1177844" transform="translate(12.291)">
          <path id="Trazado_995752" data-name="Trazado 995752" d="M148.235,22.419c0,8.239-5.245,14.062-13.5,14.062-4.414,0-8.38-1.054-11.115-4.092a14.932,14.932,0,0,1,18.942-22.68C146.833,12.334,148.235,17.044,148.235,22.419Z" transform="translate(-119.796 -7.5)" fill="#f2fbff"/>
        </g>
        <path id="Trazado_995753" data-name="Trazado 995753" d="M173.647,27.645a14.931,14.931,0,0,1-18.942,22.68,14.931,14.931,0,1,0,18.942-22.68Z" transform="translate(-138.587 -25.437)" fill="#dff6fd"/>
        <g id="Grupo_1177850" data-name="Grupo 1177850" transform="translate(15.035 3.548)">
          <g id="Grupo_1177845" data-name="Grupo 1177845" transform="translate(8.569)">
            <path id="Trazado_995754" data-name="Trazado 995754" d="M229.62,49.354c0,2.444-.81,3.66-3,4.991C224.427,53.014,223,51.8,223,49.359c0-1.981,1.336-4.24,2.685-5.867.315-.38.632-.192.932-.492A9.482,9.482,0,0,1,229.62,49.354Z" transform="translate(-223.001 -42.657)" fill="#bbf49b"/>
            <path id="Trazado_995755" data-name="Trazado 995755" d="M248.112,40.009c-.2.215-.408.449-.613.7,1.349,1.627,2.686,3.886,2.686,5.867a9.492,9.492,0,0,1-.954,4.46c1.756-1.162,2.818-2.311,2.818-4.46,0-2.283-1.775-4.936-3.3-6.564A.435.435,0,0,0,248.112,40.009Z" transform="translate(-244.814 -39.87)" fill="#9be69d"/>
          </g>
          <g id="Grupo_1177847" data-name="Grupo 1177847" transform="translate(0 8.805)">
            <g id="Grupo_1177846" data-name="Grupo 1177846">
              <path id="Trazado_995756" data-name="Trazado 995756" d="M153.591,128.342a3.914,3.914,0,0,1-.2.779l-.661.011h-2.172a5.438,5.438,0,0,1-4.361-1.812,5.623,5.623,0,0,1-1.284-3.456l-.08-3.469a.194.194,0,0,1,.3-.169l1.1.69a17.027,17.027,0,0,0,3.863,1.8,5.065,5.065,0,0,1,3.5,5.623Z" transform="translate(-144.831 -120.196)" fill="#bbf49b"/>
              <path id="Trazado_995757" data-name="Trazado 995757" d="M162.426,148.6a5.44,5.44,0,0,1,1.193,3.974v.009a1.028,1.028,0,0,1-1.02.93h-2.261a5.62,5.62,0,0,1-3.063-.9,5.633,5.633,0,0,0,4.358,2.058h2.525l.311-.257c.089-.313.415-.369.447-.682A5.445,5.445,0,0,0,162.426,148.6Z" transform="translate(-155.91 -145.485)" fill="#9be69d"/>
            </g>
          </g>
          <g id="Grupo_1177849" data-name="Grupo 1177849" transform="translate(15.517 8.823)">
            <g id="Grupo_1177848" data-name="Grupo 1177848">
              <path id="Trazado_995758" data-name="Trazado 995758" d="M294.8,123.594v2.941a5.083,5.083,0,0,1-5.2,5.166h-2.108l-.729.006c-.086-.3-.318-.334-.349-.638a5.282,5.282,0,0,1,3.638-5.553,16.517,16.517,0,0,0,3.756-1.753l.7-.334A.188.188,0,0,1,294.8,123.594Z" transform="translate(-286.387 -123.068)" fill="#bbf49b"/>
              <path id="Trazado_995759" data-name="Trazado 995759" d="M295.175,120.393l-1.06.667-.046,2.018a5.48,5.48,0,0,1-5.479,5.354h-1.858c.056.243.258.291.338.571l.248.276h2.589a5.48,5.48,0,0,0,5.479-5.354l.077-3.368A.188.188,0,0,0,295.175,120.393Z" transform="translate(-286.694 -120.363)" fill="#9be69d"/>
            </g>
          </g>
        </g>
      </g>
      <g id="Grupo_1177852" data-name="Grupo 1177852" transform="translate(0)">
        <path id="Trazado_995760" data-name="Trazado 995760" d="M53.837,8.006a4.749,4.749,0,0,0-1.172.146,2.313,2.313,0,0,0-2.3-2.113,4.731,4.731,0,0,0-4.7,4.218,4.713,4.713,0,0,0-2.341,1.484A15.775,15.775,0,0,0,18.138,3.519.822.822,0,0,0,19.174,4.8,14.125,14.125,0,0,1,42.187,15.328v.826a14.12,14.12,0,0,1-28.233-.413,13.974,13.974,0,0,1,2.7-8.295.822.822,0,0,0-1.328-.97,15.617,15.617,0,0,0-2.509,5.285,4.714,4.714,0,0,0-2.357-1.5,4.731,4.731,0,0,0-4.7-4.218,2.313,2.313,0,0,0-2.3,2.113,4.755,4.755,0,0,0-1.172-.146A2.288,2.288,0,0,0,0,10.29V29.11a5.165,5.165,0,0,0,1.146,3.238l4.222,5.219a.822.822,0,0,0,1.278-1.034L2.424,31.313a3.515,3.515,0,0,1-.78-2.2V10.29a.642.642,0,0,1,.642-.639,3.108,3.108,0,0,1,3.109,3.1V26.433a3.625,3.625,0,0,0,.962,2.637L14.31,37.7a.822.822,0,1,0,1.21-1.114L7.567,27.956a1.988,1.988,0,0,1,.068-2.77,2.013,2.013,0,0,1,2.817,0L21.777,36.4a8.424,8.424,0,0,1,2.484,5.949V55.3a.822.822,0,0,0,1.644,0V42.345a10.079,10.079,0,0,0-2.972-7.118l-6.123-6.058V26.742a15.752,15.752,0,0,0,22.5.023v2.4L33.19,35.227a10.079,10.079,0,0,0-2.972,7.118v5.274a.822.822,0,1,0,1.644,0V42.345A8.424,8.424,0,0,1,34.347,36.4L45.672,25.19a2.013,2.013,0,0,1,2.817,0,1.989,1.989,0,0,1,.068,2.77L40.6,36.591a.822.822,0,1,0,1.21,1.114l7.952-8.635a3.625,3.625,0,0,0,.962-2.637V19.568a.822.822,0,1,0-1.644,0v4a3.649,3.649,0,0,0-1.8-.588V10.759a3.083,3.083,0,0,1,3.083-3.075.668.668,0,0,1,.668.665v.576a4.738,4.738,0,0,0-1.947,3.827v3a.822.822,0,1,0,1.644,0v-3a3.109,3.109,0,0,1,3.109-3.1.642.642,0,0,1,.642.639V29.11a3.516,3.516,0,0,1-.78,2.2L42.952,44.6a8.618,8.618,0,0,0-1.808,6.767l.648,4.062a.822.822,0,0,0,1.624-.259l-.648-4.062a6.971,6.971,0,0,1,1.463-5.474L54.978,32.347a5.165,5.165,0,0,0,1.146-3.238V10.29a2.287,2.287,0,0,0-2.287-2.284ZM7.04,23.565V12.752A4.739,4.739,0,0,0,5.093,8.925V8.349a.668.668,0,0,1,.668-.665,3.083,3.083,0,0,1,3.083,3.075V22.977A3.649,3.649,0,0,0,7.04,23.565Zm3.449-.3V12.01a3.076,3.076,0,0,1,1.8,2.8V24.7l-.684-.677A3.606,3.606,0,0,0,10.489,23.268Zm4.678,4.274-1.23-1.217V22.7a15.748,15.748,0,0,0,1.23,2.067ZM40.957,24.8a15.756,15.756,0,0,0,1.23-2.053v3.578l-1.23,1.217Zm2.874-.1c0-.954,0-9.166,0-9.889a3.075,3.075,0,0,1,1.8-2.8V23.268a3.608,3.608,0,0,0-1.12.753Z" transform="translate(0)"/>
        <path id="Trazado_995761" data-name="Trazado 995761" d="M276.492,461.765a.822.822,0,0,0-.822.822v3.862a.822.822,0,1,0,1.644,0v-3.862A.822.822,0,0,0,276.492,461.765Z" transform="translate(-245.452 -411.148)"/>
        <path id="Trazado_995762" data-name="Trazado 995762" d="M70.468,357.642a.822.822,0,0,0-1.278,1.034l4.147,5.127a6.972,6.972,0,0,1,1.463,5.474l-.648,4.062a.822.822,0,0,0,.682.941.836.836,0,0,0,.13.01.822.822,0,0,0,.811-.693l.648-4.062a8.618,8.618,0,0,0-1.808-6.767Z" transform="translate(-61.442 -318.166)"/>
        <path id="Trazado_995763" data-name="Trazado 995763" d="M145.518,42.383c-.1-.025-.183-.05-.263-.077a15.846,15.846,0,0,1-3.438-1.622l-1.368-.86a.822.822,0,0,0-1.259.715l.086,3.734a6.329,6.329,0,0,0,6.331,6.179H148.5l2.688,2.048v1.974a.822.822,0,0,0,1.644,0v-2l2.955-2.251h2.595a6.329,6.329,0,0,0,6.331-6.179l.086-3.734a.822.822,0,0,0-1.259-.715l-1.368.86a15.85,15.85,0,0,1-3.437,1.622c-.08.026-.166.052-.263.077a5.257,5.257,0,0,0-3.941,5.089v1.87l-1.7,1.294v-6.63c1.944-1.221,3.6-2.629,3.6-5.435,0-2.674-2.079-5.7-3.859-7.475a.822.822,0,0,0-1.162,0c-1.78,1.777-3.859,4.8-3.859,7.475,0,2.821,1.676,4.228,3.632,5.454v6.634l-1.729-1.317V47.472a5.257,5.257,0,0,0-3.941-5.089Zm13.365,1.366c.133-.035.254-.07.369-.108a17.523,17.523,0,0,0,3.867-1.836l-.051,2.205a4.685,4.685,0,0,1-4.687,4.572H157.16a11.982,11.982,0,0,1,2.793-2.068.822.822,0,0,0-.778-1.449,13.626,13.626,0,0,0-3,2.181h0A3.613,3.613,0,0,1,158.883,43.749Zm-9.684-5.4c0-1.781,1.359-4.064,2.8-5.692,1.436,1.628,2.8,3.912,2.8,5.692a3.927,3.927,0,0,1-1.958,3.451V37.944a.822.822,0,0,0-1.644,0v3.874A3.944,3.944,0,0,1,149.2,38.345Zm-6.869,9.129a4.651,4.651,0,0,1-1.41-3.239l-.051-2.205a17.524,17.524,0,0,0,3.868,1.836c.115.038.236.073.369.108a3.613,3.613,0,0,1,2.709,3.5h0a13.618,13.618,0,0,0-3-2.181.822.822,0,0,0-.778,1.449,11.982,11.982,0,0,1,2.793,2.068h-1.221A4.667,4.667,0,0,1,142.33,47.474Z" transform="translate(-123.932 -27.272)"/>
      </g>
    </g>
  </g>
</svg>
