<svg xmlns="http://www.w3.org/2000/svg" width="100" height="100" viewBox="0 0 100 100">
  <g id="Grupo_1176278" data-name="Grupo 1176278" transform="translate(-637 -6992)">
    <g id="Grupo_1098742" data-name="Grupo 1098742" transform="translate(637.242 6992)">
      <rect id="Rectángulo_400898" data-name="Rectángulo 400898" width="100" height="100" rx="50" transform="translate(-0.242)" fill="#fff" opacity="0.859"/>
      <g id="Rectángulo_400907" data-name="Rectángulo 400907" transform="translate(-0.242)" fill="none" stroke="#ffd600" stroke-linecap="round" stroke-width="3" stroke-dasharray="0 7">
        <rect width="100" height="100" rx="50" stroke="none"/>
        <rect x="1.5" y="1.5" width="97" height="97" rx="48.5" fill="none"/>
      </g>
    </g>
    <g id="Grupo_1107006" data-name="Grupo 1107006" transform="translate(645.398 7000.157)">
      <rect id="Rectángulo_400898-2" data-name="Rectángulo 400898" width="84" height="84" rx="42" transform="translate(-0.399 -0.157)" fill="#405425" opacity="0.859"/>
      <rect id="Rectángulo_400907-2" data-name="Rectángulo 400907" width="84" height="84" rx="42" transform="translate(-0.398 -0.157)" fill="none"/>
    </g>
    <g id="Grupo_1177825" data-name="Grupo 1177825" transform="translate(639.767 7013.344)">
      <g id="Grupo_1177823" data-name="Grupo 1177823" transform="translate(21.758 0.84)">
        <g id="Grupo_1177821" data-name="Grupo 1177821" transform="translate(0 31.905)">
          <g id="Grupo_1177818" data-name="Grupo 1177818">
            <path id="Trazado_995699" data-name="Trazado 995699" d="M28.421,436.963V432.85a3.8,3.8,0,0,1,3.8-3.8h7.141a3.8,3.8,0,0,1,3.8,3.8v4.113a.531.531,0,0,1-.531.531H28.952a.531.531,0,0,1-.531-.531Z" transform="translate(-28.421 -413.766)" fill="#e9a52d"/>
            <path id="Trazado_995700" data-name="Trazado 995700" d="M104.863,429.048h-2.687a3.8,3.8,0,0,1,3.8,3.8v4.113a.531.531,0,0,1-.531.531h2.687a.531.531,0,0,0,.531-.531V432.85A3.8,3.8,0,0,0,104.863,429.048Z" transform="translate(-93.92 -413.766)" fill="#e38523"/>
            <path id="Trazado_995701" data-name="Trazado 995701" d="M75.43,388.7v4.488a2.11,2.11,0,1,0,4.22,0V388.7Z" transform="translate(-70.168 -377.931)" fill="#ebae9d"/>
            <path id="Trazado_995702" data-name="Trazado 995702" d="M57.722,293.425l-.251.63a.543.543,0,0,1-.5.342h-.8a1.177,1.177,0,0,0-1.177,1.177v5.921a3.7,3.7,0,0,0,3.7,3.7h1.4a3.7,3.7,0,0,0,3.7-3.7v-6.508a2.459,2.459,0,0,0-2.459-2.459H59.047A1.427,1.427,0,0,0,57.722,293.425Z" transform="translate(-52.011 -292.527)" fill="#ffcdbe"/>
            <path id="Trazado_995703" data-name="Trazado 995703" d="M61.324,292.527H59.048a1.427,1.427,0,0,0-1.325.9l-.251.63a.543.543,0,0,1-.5.342h-.8a1.177,1.177,0,0,0-1.177,1.177v3.255l1.882-1.288a1.028,1.028,0,0,1,1.192.021,12.322,12.322,0,0,0,5.723,2.491v-5.068A2.459,2.459,0,0,0,61.324,292.527Z" transform="translate(-52.012 -292.527)" fill="#a87c72"/>
          </g>
          <g id="Grupo_1177819" data-name="Grupo 1177819" transform="translate(18.103)">
            <path id="Trazado_995704" data-name="Trazado 995704" d="M190.142,436.963V432.85a3.8,3.8,0,0,1,3.8-3.8h7.141a3.8,3.8,0,0,1,3.8,3.8v4.113a.531.531,0,0,1-.531.531H190.673A.531.531,0,0,1,190.142,436.963Z" transform="translate(-190.142 -413.766)" fill="#de5791"/>
            <path id="Trazado_995705" data-name="Trazado 995705" d="M266.583,429.048H263.9a3.8,3.8,0,0,1,3.8,3.8v4.113a.531.531,0,0,1-.531.531h2.686a.531.531,0,0,0,.531-.531V432.85A3.8,3.8,0,0,0,266.583,429.048Z" transform="translate(-255.641 -413.766)" fill="#db387e"/>
            <path id="Trazado_995706" data-name="Trazado 995706" d="M237.151,388.7v4.488a2.11,2.11,0,1,0,4.22,0V388.7Z" transform="translate(-231.889 -377.931)" fill="#ebae9d"/>
            <path id="Trazado_995707" data-name="Trazado 995707" d="M219.443,293.425l-.251.63a.543.543,0,0,1-.5.342h-.8a1.177,1.177,0,0,0-1.177,1.177v5.921a3.7,3.7,0,0,0,3.7,3.7h1.4a3.7,3.7,0,0,0,3.7-3.7v-6.508a2.459,2.459,0,0,0-2.459-2.459h-2.276A1.427,1.427,0,0,0,219.443,293.425Z" transform="translate(-213.732 -292.527)" fill="#ffcdbe"/>
            <path id="Trazado_995708" data-name="Trazado 995708" d="M223.044,292.527h-2.276a1.427,1.427,0,0,0-1.325.9l-.251.63a.543.543,0,0,1-.5.342h-.8a1.177,1.177,0,0,0-1.177,1.177v3.255l1.882-1.288a1.028,1.028,0,0,1,1.192.021,12.322,12.322,0,0,0,5.723,2.491v-5.068A2.459,2.459,0,0,0,223.044,292.527Z" transform="translate(-213.732 -292.527)" fill="#a87c72"/>
          </g>
          <g id="Grupo_1177820" data-name="Grupo 1177820" transform="translate(36.205)">
            <path id="Trazado_995709" data-name="Trazado 995709" d="M351.863,436.963V432.85a3.8,3.8,0,0,1,3.8-3.8h7.141a3.8,3.8,0,0,1,3.8,3.8v4.113a.531.531,0,0,1-.531.531H352.394A.531.531,0,0,1,351.863,436.963Z" transform="translate(-351.863 -413.766)" fill="#6dc17d"/>
            <path id="Trazado_995710" data-name="Trazado 995710" d="M428.3,429.048h-2.687a3.8,3.8,0,0,1,3.8,3.8v4.113a.531.531,0,0,1-.531.531h2.687a.531.531,0,0,0,.531-.531V432.85A3.8,3.8,0,0,0,428.3,429.048Z" transform="translate(-417.361 -413.766)" fill="#5ea570"/>
            <path id="Trazado_995711" data-name="Trazado 995711" d="M398.872,388.7v4.488a2.11,2.11,0,1,0,4.22,0V388.7Z" transform="translate(-393.61 -377.931)" fill="#ebae9d"/>
            <path id="Trazado_995712" data-name="Trazado 995712" d="M381.164,293.425l-.251.63a.543.543,0,0,1-.5.342h-.8a1.177,1.177,0,0,0-1.177,1.177v5.921a3.7,3.7,0,0,0,3.7,3.7h1.4a3.7,3.7,0,0,0,3.7-3.7v-6.508a2.459,2.459,0,0,0-2.459-2.459h-2.276A1.427,1.427,0,0,0,381.164,293.425Z" transform="translate(-375.453 -292.527)" fill="#ffcdbe"/>
            <path id="Trazado_995713" data-name="Trazado 995713" d="M384.765,292.527h-2.276a1.427,1.427,0,0,0-1.325.9l-.251.63a.543.543,0,0,1-.5.342h-.8a1.177,1.177,0,0,0-1.177,1.177v3.255l1.882-1.288a1.028,1.028,0,0,1,1.192.021,12.322,12.322,0,0,0,5.723,2.491v-5.068A2.459,2.459,0,0,0,384.765,292.527Z" transform="translate(-375.453 -292.527)" fill="#a87c72"/>
          </g>
        </g>
        <g id="Grupo_1177822" data-name="Grupo 1177822" transform="translate(4.642)">
          <path id="Trazado_995714" data-name="Trazado 995714" d="M358.3,35.856a16.951,16.951,0,0,1-1.407,1.062.559.559,0,0,1-.786-.169l-1.5-2.4a.561.561,0,0,1,.161-.76q.51-.351,1-.757a12.9,12.9,0,0,0,1.952-17.73.558.558,0,0,0-.8-.083l-.9.754a.544.544,0,0,1-.9-.433V9.6a.579.579,0,0,1,.675-.548l5.658.952a.56.56,0,0,1,.267.981l-.916.769a.559.559,0,0,0-.079.775,16.857,16.857,0,0,1-2.42,23.329Z" transform="translate(-322.653 -8.871)" fill="#5392f9"/>
          <path id="Trazado_995715" data-name="Trazado 995715" d="M77.3,29.5l.9-.753a.544.544,0,0,1,.9.433v5.737a.579.579,0,0,1-.675.548l-5.658-.952a.56.56,0,0,1-.267-.981l.916-.769a.559.559,0,0,0,.079-.775A16.866,16.866,0,0,1,77.321,7.595a.559.559,0,0,1,.786.169l1.5,2.4a.561.561,0,0,1-.161.76q-.511.352-1,.758A12.9,12.9,0,0,0,76.5,29.412a.559.559,0,0,0,.8.085Z" transform="translate(-69.891 -7.5)" fill="#5392f9"/>
        </g>
      </g>
      <g id="Grupo_1177824" data-name="Grupo 1177824" transform="translate(20.918 0.001)">
        <path id="Trazado_995716" data-name="Trazado 995716" d="M32.7,300.308h-.621v-1.535a4.542,4.542,0,0,0,2.288-3.94v-6.508a3.3,3.3,0,0,0-3.3-3.3H28.793a2.255,2.255,0,0,0-2.1,1.427l-.177.443h-.6a2.019,2.019,0,0,0-2.016,2.016v5.921a4.542,4.542,0,0,0,2.289,3.94v1.535h-.621a4.646,4.646,0,0,0-4.641,4.641v4.113a1.373,1.373,0,0,0,1.371,1.371H35.97a1.373,1.373,0,0,0,1.371-1.371v-4.113A4.646,4.646,0,0,0,32.7,300.308Zm-6.793-11.733h.8A1.375,1.375,0,0,0,28,287.7l.251-.63a.584.584,0,0,1,.545-.37h2.276a1.621,1.621,0,0,1,1.62,1.62v4.085a12.985,12.985,0,0,1-4.383-2.183,1.867,1.867,0,0,0-2.167-.04l-.568.389v-1.664A.338.338,0,0,1,25.908,288.575Zm-.337,4.035,1.516-1.037a.187.187,0,0,1,.218,0,13.94,13.94,0,0,0,5.384,2.55v.708a2.864,2.864,0,0,1-2.861,2.861h-1.4a2.864,2.864,0,0,1-2.861-2.861v-2.222Zm2.861,6.762h1.4a4.574,4.574,0,0,0,.572-.037s0,1.791,0,1.8a1.27,1.27,0,0,1-2.539,0q0-.016,0-.032v-1.769a4.569,4.569,0,0,0,.572.037Zm7.231,9.381H22.6v-3.8a2.965,2.965,0,0,1,2.962-2.962h.754a2.947,2.947,0,0,0,5.634,0H32.7a2.965,2.965,0,0,1,2.962,2.962Z" transform="translate(-20.918 -253.121)"/>
        <path id="Trazado_995717" data-name="Trazado 995717" d="M194.423,300.307H193.8v-1.535a4.542,4.542,0,0,0,2.288-3.94v-6.508a3.3,3.3,0,0,0-3.3-3.3h-2.276a2.255,2.255,0,0,0-2.105,1.427l-.177.443h-.6a2.019,2.019,0,0,0-2.016,2.016v5.921a4.542,4.542,0,0,0,2.289,3.94v1.535h-.621a4.646,4.646,0,0,0-4.641,4.641v4.113a1.373,1.373,0,0,0,1.371,1.371h13.681a1.373,1.373,0,0,0,1.371-1.371v-4.113A4.646,4.646,0,0,0,194.423,300.307Zm-6.793-11.733h.8a1.375,1.375,0,0,0,1.284-.87l.251-.63a.584.584,0,0,1,.545-.37h2.276a1.621,1.621,0,0,1,1.62,1.62v4.085a12.985,12.985,0,0,1-4.383-2.183,1.867,1.867,0,0,0-2.167-.039l-.568.389v-1.664A.338.338,0,0,1,187.63,288.574Zm-.337,4.035,1.516-1.037a.187.187,0,0,1,.218,0,13.94,13.94,0,0,0,5.384,2.55v.708a2.864,2.864,0,0,1-2.861,2.861h-1.4a2.864,2.864,0,0,1-2.861-2.861Zm2.861,6.762h1.4a4.572,4.572,0,0,0,.572-.037s0,1.791,0,1.8a1.27,1.27,0,0,1-2.539,0c0-.011,0-.022,0-.033v-1.768A4.574,4.574,0,0,0,190.154,299.372Zm7.231,9.381H184.319v-3.8a2.965,2.965,0,0,1,2.962-2.962h.754a2.947,2.947,0,0,0,5.633,0h.754a2.965,2.965,0,0,1,2.962,2.962Z" transform="translate(-164.537 -253.12)"/>
        <path id="Trazado_995718" data-name="Trazado 995718" d="M356.145,300.307h-.621v-1.535a4.542,4.542,0,0,0,2.289-3.94v-6.508a3.3,3.3,0,0,0-3.3-3.3h-2.276a2.255,2.255,0,0,0-2.105,1.427l-.177.443h-.6a2.019,2.019,0,0,0-2.016,2.016v5.921a4.542,4.542,0,0,0,2.288,3.94v1.535H349a4.646,4.646,0,0,0-4.641,4.641v4.113a1.373,1.373,0,0,0,1.371,1.371h7.156a.84.84,0,1,0,0-1.679h-6.848v-3.8A2.965,2.965,0,0,1,349,301.986h.754a2.947,2.947,0,0,0,5.633,0h.754a2.965,2.965,0,0,1,2.962,2.962v3.8h-2.3a.84.84,0,1,0,0,1.679h2.607a1.373,1.373,0,0,0,1.371-1.371v-4.113A4.646,4.646,0,0,0,356.145,300.307Zm-6.793-11.733h.8a1.376,1.376,0,0,0,1.284-.87l.251-.63a.584.584,0,0,1,.545-.37h2.276a1.621,1.621,0,0,1,1.62,1.62v4.085a12.982,12.982,0,0,1-4.383-2.183,1.868,1.868,0,0,0-2.167-.039l-.568.389v-1.664A.338.338,0,0,1,349.352,288.574Zm-.337,4.035,1.516-1.037a.187.187,0,0,1,.218,0,13.939,13.939,0,0,0,5.384,2.55v.708a2.864,2.864,0,0,1-2.861,2.861h-1.4a2.864,2.864,0,0,1-2.861-2.861V292.61Zm3.559,9.778a1.274,1.274,0,0,1-1.269-1.252q0-.016,0-.032v-1.769a4.552,4.552,0,0,0,.572.037h1.4a4.572,4.572,0,0,0,.572-.037s0,1.79,0,1.8A1.273,1.273,0,0,1,352.574,302.388Z" transform="translate(-308.156 -253.12)"/>
        <path id="Trazado_995719" data-name="Trazado 995719" d="M348.724,30.531a1.4,1.4,0,0,0,1.967.419,17.806,17.806,0,0,0,1.477-1.115,17.7,17.7,0,0,0,2.706-24.278l.709-.6a1.4,1.4,0,0,0-.667-2.452l-5.658-.951a1.424,1.424,0,0,0-1.153.316,1.392,1.392,0,0,0-.5,1.059v5.73a1.385,1.385,0,0,0,.8,1.28,1.37,1.37,0,0,0,1.479-.2l.672-.563a12.059,12.059,0,0,1-2,16.337c-.3.253-.616.491-.932.709a1.4,1.4,0,0,0-.4,1.9Zm.9-3.724a13.738,13.738,0,0,0,2.078-18.885,1.4,1.4,0,0,0-2.006-.216l-.417.349V3.266l4.756.8-.452.379a1.393,1.393,0,0,0-.2,1.937,16.017,16.017,0,0,1-2.3,22.167c-.353.3-.721.58-1.1.843l-1.209-1.931c.286-.205.569-.424.844-.654Z" transform="translate(-310.504 -1.367)"/>
        <path id="Trazado_995720" data-name="Trazado 995720" d="M65.305,26.227a1.4,1.4,0,0,0,.667,2.452c5.939,1,5.677.971,5.893.971a1.416,1.416,0,0,0,1.419-1.4V22.524a1.385,1.385,0,0,0-.8-1.28,1.371,1.371,0,0,0-1.478.2L70.336,22a12.038,12.038,0,0,1,2-16.335c.3-.252.615-.491.934-.71a1.4,1.4,0,0,0,.4-1.9l-1.5-2.4A1.4,1.4,0,0,0,70.2.239a17.852,17.852,0,0,0-1.477,1.114,17.52,17.52,0,0,0-4.842,6.462.84.84,0,0,0,1.539.672A15.858,15.858,0,0,1,69.8,2.639c.351-.295.719-.577,1.1-.843l1.209,1.932c-.287.206-.57.425-.844.655a13.744,13.744,0,0,0-2.08,18.88,1.4,1.4,0,0,0,2.009.218l.416-.349v4.792l-4.756-.8.452-.379a1.393,1.393,0,0,0,.2-1.937,16.031,16.031,0,0,1-3.167-12.75.84.84,0,1,0-1.652-.3,17.715,17.715,0,0,0,3.334,13.873Z" transform="translate(-57.756 -0.001)"/>
        <path id="Trazado_995721" data-name="Trazado 995721" d="M206.016,52.63a1.041,1.041,0,0,0,1.236.713l2.395-.565a.84.84,0,0,0-.386-1.634l-.687.162,2.182-3.779a.225.225,0,0,1,.391,0l1.447,2.506a.84.84,0,1,0,1.454-.84L212.6,46.687a1.9,1.9,0,0,0-3.3,0l-2.182,3.779-.2-.676a.84.84,0,0,0-1.608.483Z" transform="translate(-184.636 -40.616)"/>
        <path id="Trazado_995722" data-name="Trazado 995722" d="M184.517,131.486h4.363L188.4,132a.84.84,0,0,0,1.222,1.151l1.688-1.792a1.04,1.04,0,0,0,0-1.426l-1.687-1.791a.84.84,0,1,0-1.222,1.151l.484.514h-4.363a.225.225,0,0,1-.2-.339l1.447-2.506a.84.84,0,1,0-1.454-.84l-1.447,2.506a1.9,1.9,0,0,0,1.65,2.857Z" transform="translate(-164.51 -111.632)"/>
        <path id="Trazado_995723" data-name="Trazado 995723" d="M281.407,101.7l.687.162a.84.84,0,1,0,.386-1.634l-2.4-.566a1.036,1.036,0,0,0-.757.111h0a1.038,1.038,0,0,0-.476.6l-.708,2.357a.839.839,0,1,0,1.608.483l.2-.676,2.182,3.779a.225.225,0,0,1-.2.339h-2.894a.84.84,0,1,0,0,1.679h2.894a1.9,1.9,0,0,0,1.65-2.857Z" transform="translate(-249.317 -88.477)"/>
      </g>
    </g>
  </g>
</svg>
