<svg xmlns="http://www.w3.org/2000/svg" width="100" height="100" viewBox="0 0 100 100">
  <g id="Grupo_1176900" data-name="Grupo 1176900" transform="translate(-637 -6992)">
    <g id="Grupo_1098742" data-name="Grupo 1098742" transform="translate(637.242 6992)">
      <rect id="Rectángulo_400898" data-name="Rectángulo 400898" width="100" height="100" rx="50" transform="translate(-0.242)" fill="#fff" opacity="0.859"/>
      <g id="Rectángulo_400907" data-name="Rectángulo 400907" transform="translate(-0.242)" fill="none" stroke="#ffd600" stroke-linecap="round" stroke-width="3" stroke-dasharray="0 7">
        <rect width="100" height="100" rx="50" stroke="none"/>
        <rect x="1.5" y="1.5" width="97" height="97" rx="48.5" fill="none"/>
      </g>
    </g>
    <g id="Grupo_1107006" data-name="Grupo 1107006" transform="translate(645.398 7000.157)">
      <rect id="Rectángulo_400898-2" data-name="Rectángulo 400898" width="84" height="84" rx="42" transform="translate(-0.399 -0.157)" fill="#405425" opacity="0.859"/>
      <rect id="Rectángulo_400907-2" data-name="Rectángulo 400907" width="84" height="84" rx="42" transform="translate(-0.398 -0.157)" fill="none"/>
    </g>
    <g id="Grupo_1177861" data-name="Grupo 1177861" transform="translate(659.339 7014.339)">
      <g id="Grupo_1177859" data-name="Grupo 1177859" transform="translate(0.81 0.81)">
        <path id="Trazado_995764" data-name="Trazado 995764" d="M196.487,258.661l-6.821-5.3a1.866,1.866,0,0,1,0-2.279l6.821-5.3a13.974,13.974,0,0,0,13.974-13.974l5.3-2.93a1.869,1.869,0,0,0,2.279,0l5.3,2.93A26.851,26.851,0,0,1,196.487,258.661Z" transform="translate(-169.636 -204.959)" fill="#fe5694"/>
        <path id="Trazado_995765" data-name="Trazado 995765" d="M34.351,7.5l6.821,5.3a1.866,1.866,0,0,1,0,2.279l-6.821,5.3A13.974,13.974,0,0,0,20.377,34.351l-5.3,2.93a1.869,1.869,0,0,0-2.279,0l-5.3-2.93A26.851,26.851,0,0,1,34.351,7.5Z" transform="translate(-7.5 -7.5)" fill="#0ed2b3"/>
        <path id="Trazado_995766" data-name="Trazado 995766" d="M282.852,34.349l-5.3,4.08a1.866,1.866,0,0,1-2.279,0l-5.3-4.08A13.974,13.974,0,0,0,256,20.375l4.08-5.3a1.869,1.869,0,0,0,0-2.279L256,7.5A26.851,26.851,0,0,1,282.852,34.349Z" transform="translate(-229.15 -7.498)" fill="#60b7ff"/>
        <path id="Trazado_995767" data-name="Trazado 995767" d="M7.5,219.116l5.3-4.08a1.866,1.866,0,0,1,2.279,0l5.3,4.08A13.974,13.974,0,0,0,34.352,233.09l-4.08,5.3a1.869,1.869,0,0,0,0,2.279l4.08,5.3A26.851,26.851,0,0,1,7.5,219.116Z" transform="translate(-7.501 -192.265)" fill="#fee45a"/>
        <path id="Trazado_995768" data-name="Trazado 995768" d="M290.389,258.816a13.982,13.982,0,0,1-13.69,11.158,14.132,14.132,0,0,1-2.018-.145A13.976,13.976,0,0,0,286.636,256Z" transform="translate(-245.811 -229.148)" fill="#fd3581"/>
        <path id="Trazado_995769" data-name="Trazado 995769" d="M290.673,140.644a14.04,14.04,0,0,1-.3,2.88l-3.74-2.88a13.976,13.976,0,0,0-11.956-13.829,14.133,14.133,0,0,1,2.018-.145,13.974,13.974,0,0,1,13.974,13.974Z" transform="translate(-245.811 -113.793)" fill="#26a6fe"/>
        <path id="Trazado_995770" data-name="Trazado 995770" d="M7.5,34.351A26.851,26.851,0,0,1,34.351,7.5l.327.255A26.864,26.864,0,0,0,11.734,31.09Z" transform="translate(-7.5 -7.5)" fill="#0ab69f"/>
        <path id="Trazado_995771" data-name="Trazado 995771" d="M34.351,255.931A26.851,26.851,0,0,1,7.5,229.08l4.235-3.261a27.062,27.062,0,0,0-.2,3.261,26.861,26.861,0,0,0,22.549,26.508Z" transform="translate(-7.5 -202.229)" fill="#ffd15b"/>
        <g id="Grupo_1177854" data-name="Grupo 1177854" transform="translate(39.394 38.789)">
          <circle id="Elipse_13628" data-name="Elipse 13628" cx="4.434" cy="4.434" r="4.434" transform="translate(0 0.001)" fill="#ffdfcf"/>
          <path id="Trazado_995772" data-name="Trazado 995772" d="M377.891,375.138a4.434,4.434,0,1,1,0-8.433,4.435,4.435,0,0,0,0,8.433Z" transform="translate(-372.084 -366.487)" fill="#ffcebf"/>
          <path id="Trazado_995773" data-name="Trazado 995773" d="M374.942,452.995a1.111,1.111,0,0,1-1.047-1.481,4.436,4.436,0,0,1,8.361,0,1.111,1.111,0,0,1-1.047,1.481Z" transform="translate(-373.642 -439.693)" fill="#7a6d79"/>
          <path id="Trazado_995774" data-name="Trazado 995774" d="M376.64,451.511a1.111,1.111,0,0,0,1.046,1.481h-2.746a1.111,1.111,0,0,1-1.046-1.481,4.437,4.437,0,0,1,5.553-2.736A4.443,4.443,0,0,0,376.64,451.511Z" transform="translate(-373.641 -439.69)" fill="#685e68"/>
        </g>
        <g id="Grupo_1177855" data-name="Grupo 1177855" transform="translate(3.942 40.295)">
          <path id="Trazado_995775" data-name="Trazado 995775" d="M70.106,396.368v7.608a1.746,1.746,0,0,1-1.745,1.745h-5.3a1.745,1.745,0,0,1-1.744-1.745v-7.608l4.392-1.556Z" transform="translate(-59.447 -393.257)" fill="#c8effe"/>
          <path id="Trazado_995776" data-name="Trazado 995776" d="M70.106,396.368v2.43H61.32v-2.43l4.392-1.556Z" transform="translate(-59.447 -393.257)" fill="#99e6fc"/>
          <path id="Trazado_995777" data-name="Trazado 995777" d="M65.714,405.721H63.065a1.746,1.746,0,0,1-1.745-1.745v-7.608l4.393-1.556,1.325.469-3.069,1.087v7.608A1.746,1.746,0,0,0,65.714,405.721Z" transform="translate(-59.447 -393.257)" fill="#99e6fc"/>
          <path id="Trazado_995778" data-name="Trazado 995778" d="M54.959,380.42H45.539a1.556,1.556,0,1,0,0,3.111h9.421a1.556,1.556,0,1,0,0-3.111Z" transform="translate(-43.983 -380.42)" fill="#c8effe"/>
          <path id="Trazado_995779" data-name="Trazado 995779" d="M47.979,383.081a1.547,1.547,0,0,0,1.1.456H45.54a1.555,1.555,0,1,1,0-3.111h3.539a1.555,1.555,0,0,0-1.1,2.655Z" transform="translate(-43.984 -380.425)" fill="#99e6fc"/>
        </g>
        <path id="Trazado_995780" data-name="Trazado 995780" d="M180.916,201.843a9.2,9.2,0,0,0,2.685-5.773l-1.395.6a.8.8,0,0,1-1.108-.825l.8-6.887a.8.8,0,0,1,1.268-.547l5.563,4.139a.8.8,0,0,1-.16,1.372l-1.716.74a12.487,12.487,0,0,1-.407,3.882l-2.166,3.3h-3.368Z" transform="translate(-162.178 -168.723)" fill="#fd3581"/>
        <g id="Grupo_1177857" data-name="Grupo 1177857" transform="translate(37.179 2.552)">
          <path id="Trazado_995781" data-name="Trazado 995781" d="M402.715,56.218c.1.283,1.962.516,2.231.65l1.624.814a.846.846,0,0,1,.467.757v3.655a.91.91,0,0,1-.91.911h-6.68L396.87,59.07l1.491-3.613" transform="translate(-391.977 -52.827)" fill="#c8effe"/>
          <path id="Trazado_995782" data-name="Trazado 995782" d="M412.452,35.163h-7.167l1.667-4.041h3.085a.849.849,0,0,1,.8.555l1.038,2.835A1.175,1.175,0,0,0,412.452,35.163Z" transform="translate(-399.483 -31.122)" fill="#685e68"/>
          <path id="Trazado_995783" data-name="Trazado 995783" d="M359.057,31.12V41.3H352.5a.911.911,0,0,1-.911-.911V32.031a.912.912,0,0,1,.911-.911Z" transform="translate(-351.588 -31.12)" fill="#fe5694"/>
          <path id="Trazado_995784" data-name="Trazado 995784" d="M355.006,41.3H352.5a.911.911,0,0,1-.911-.911V32.032a.911.911,0,0,1,.911-.911h2.506a.911.911,0,0,0-.911.911v8.356A.912.912,0,0,0,355.006,41.3Z" transform="translate(-351.588 -31.121)" fill="#fd3581"/>
          <g id="Grupo_1177856" data-name="Grupo 1177856" transform="translate(1.793 8.257)">
            <circle id="Elipse_13629" data-name="Elipse 13629" cx="1.921" cy="1.921" r="1.921" fill="#685e68"/>
            <circle id="Elipse_13630" data-name="Elipse 13630" cx="1.921" cy="1.921" r="1.921" transform="translate(7.631)" fill="#685e68"/>
          </g>
        </g>
        <g id="Grupo_1177858" data-name="Grupo 1177858" transform="translate(1.634 1.156)">
          <path id="Trazado_995785" data-name="Trazado 995785" d="M34.511,18.381a.887.887,0,0,0-1.429.7v2.242l-3.8-2.943a.887.887,0,0,0-1.429.7v2.242l-3.8-2.943a.887.887,0,0,0-1.429.7V28.4a1.026,1.026,0,0,0,1.026,1.026H37.287A1.026,1.026,0,0,0,38.313,28.4V22.278a1.945,1.945,0,0,0-.754-1.538Z" transform="translate(-22.618 -18.194)" fill="#efedef"/>
          <path id="Trazado_995786" data-name="Trazado 995786" d="M27.072,29.427H23.647A1.026,1.026,0,0,1,22.621,28.4V19.088a.887.887,0,0,1,1.429-.7l1.995,1.544V28.4a1.026,1.026,0,0,0,1.027,1.025Z" transform="translate(-22.621 -18.2)" fill="#dedbee"/>
        </g>
        <path id="Trazado_995787" data-name="Trazado 995787" d="M192.721,265.794l-4.139-5.563a.8.8,0,0,0-1.372.16l-.74,1.716A12.411,12.411,0,0,0,177,265.756a1.621,1.621,0,1,0,2.292,2.292,9.2,9.2,0,0,1,5.773-2.685l-.6,1.395a.8.8,0,0,0,.825,1.108l6.887-.8A.8.8,0,0,0,192.721,265.794Z" transform="translate(-158.261 -232.636)" fill="#fe5694"/>
      </g>
      <g id="Grupo_1177860" data-name="Grupo 1177860" transform="translate(0 0)">
        <path id="Trazado_995788" data-name="Trazado 995788" d="M47.434,48.468a5.244,5.244,0,0,0,2.446-4.331,27.674,27.674,0,0,0,2.053-29.752l.011-.033h.195a1.724,1.724,0,0,0,1.721-1.722V8.975a1.65,1.65,0,0,0-.915-1.482l-1.623-.813a.372.372,0,0,1-.183-.205L50.1,3.641a1.661,1.661,0,0,0-1.557-1.089H39.276a27.7,27.7,0,0,0-23.148-.037l-1.3-1A1.7,1.7,0,0,0,12.1,2.854v.59L9.6,1.512A1.7,1.7,0,0,0,6.865,2.854v.59l-2.5-1.932A1.7,1.7,0,0,0,1.633,2.854v9.313A1.838,1.838,0,0,0,3.47,14H3.6a27.547,27.547,0,0,0-1.452,2.945.81.81,0,1,0,1.494.628A26,26,0,0,1,5.486,14H17.113a1.838,1.838,0,0,0,1.836-1.836V6.05a2.773,2.773,0,0,0-1.069-2.179l-.3-.228a25.774,25.774,0,0,1,9.681-2.017L31.1,6.6a1.058,1.058,0,0,1,0,1.29l-3.841,4.988a14.807,14.807,0,0,0-14.3,13.2l-4.079-3.14a2.681,2.681,0,0,0-3.268,0l-3.94,3.033a26.007,26.007,0,0,1,.8-4.937A.81.81,0,0,0,.9,20.624,27.734,27.734,0,0,0,4.026,42.038a2.365,2.365,0,0,0,1.789,2.937v6.849A2.558,2.558,0,0,0,8.37,54.379h5.3a2.559,2.559,0,0,0,2.374-1.611,27.35,27.35,0,0,0,11.621,2.555,27.716,27.716,0,0,0,12.08-2.772A1.913,1.913,0,0,0,41.5,53.712h.855a.81.81,0,1,0,0-1.621H41.5a.3.3,0,0,1-.282-.4,3.63,3.63,0,0,1,3.412-2.413h.008a3.633,3.633,0,0,1,3.413,2.413.3.3,0,0,1-.283.4H46.14a.81.81,0,0,0,0,1.621h1.632a1.922,1.922,0,0,0,1.811-2.563,5.245,5.245,0,0,0-2.149-2.682Zm-30.105-36.3a.216.216,0,0,1-.215.215H3.47a.216.216,0,0,1-.215-.215V2.854A.067.067,0,0,1,3.3,2.786a.083.083,0,0,1,.036-.009.069.069,0,0,1,.044.018l3.8,2.943A.81.81,0,0,0,8.486,5.1V2.854a.076.076,0,0,1,.123-.06l3.8,2.943A.81.81,0,0,0,13.718,5.1V2.854a.076.076,0,0,1,.123-.06l3.048,2.359a1.142,1.142,0,0,1,.44.9Zm27.316,35.49h-.012a3.623,3.623,0,1,1,.012,0Zm4.691-33.007a1.111,1.111,0,1,1,1.111-1.111,1.112,1.112,0,0,1-1.111,1.111Zm2.883-5.709a.037.037,0,0,1,.021.033v3.654a.1.1,0,0,1-.1.1h-.194a2.732,2.732,0,0,0-5.217,0h-.457V8.214h4.5ZM48.578,4.2l.879,2.4H46.269V4.173h2.274a.037.037,0,0,1,.034.024ZM32.383,8.883a2.681,2.681,0,0,0,0-3.268L29.351,1.676A25.709,25.709,0,0,1,37.37,3.491a1.708,1.708,0,0,0-.19.782V6.561a.81.81,0,1,0,1.621,0V4.273a.1.1,0,0,1,.1-.1h5.748V12.73h-.336a2.732,2.732,0,0,0-5.217,0H38.9a.1.1,0,0,1-.1-.1V10.343a.81.81,0,0,0-1.621,0v2.286A1.724,1.724,0,0,0,38.9,14.351H39.1a2.732,2.732,0,0,0,5.217,0h2.415a2.73,2.73,0,0,0,4.126,1.459A26.066,26.066,0,0,1,53.7,27.265L48.719,31.1a1.058,1.058,0,0,1-1.29,0l-4.988-3.841a14.807,14.807,0,0,0-13.2-14.3ZM42.814,13.54A1.111,1.111,0,1,1,41.7,12.43,1.112,1.112,0,0,1,42.814,13.54ZM27.661,14.5A13.164,13.164,0,1,1,14.5,27.661,13.179,13.179,0,0,1,27.661,14.5ZM6.6,24.223a1.058,1.058,0,0,1,1.29,0l4.988,3.841a14.807,14.807,0,0,0,13.2,14.3l-3.14,4.079a2.681,2.681,0,0,0,0,3.268l3.033,3.939a25.656,25.656,0,0,1-9.75-2.589V44.974a2.366,2.366,0,0,0-.493-4.68h-.888v-.9a1.813,1.813,0,0,0-1.811-1.811H9.007A1.813,1.813,0,0,0,7.2,39.39v.9H6.308a2.351,2.351,0,0,0-1.227.344A25.974,25.974,0,0,1,1.624,28.057ZM13.22,40.295h-4.4v-.9a.191.191,0,0,1,.19-.191H13.03a.191.191,0,0,1,.191.191v.9ZM5.563,42.661a.746.746,0,0,1,.745-.745h9.421a.745.745,0,0,1,0,1.49H6.308a.746.746,0,0,1-.745-.745ZM14.6,51.824a.936.936,0,0,1-.935.935H8.37a.936.936,0,0,1-.935-.935v-6.8H14.6v6.8Zm25.3-1.175A26.057,26.057,0,0,1,28.058,53.7l-3.834-4.979a1.058,1.058,0,0,1,0-1.29l3.841-4.988a14.807,14.807,0,0,0,14.3-13.2l4.079,3.14a2.681,2.681,0,0,0,3.268,0l3.94-3.034a25.726,25.726,0,0,1-4.2,12.586,5.243,5.243,0,1,0-7.6,6.532,5.245,5.245,0,0,0-1.94,2.181Z" transform="translate(0 0)"/>
        <path id="Trazado_995789" data-name="Trazado 995789" d="M50.823,62.647H40.251a.81.81,0,1,0,0,1.621H50.823a.81.81,0,0,0,0-1.621Z" transform="translate(-35.179 -55.878)"/>
        <path id="Trazado_995790" data-name="Trazado 995790" d="M50.823,87.7H40.251a.81.81,0,1,0,0,1.621H50.823a.81.81,0,1,0,0-1.621Z" transform="translate(-35.179 -78.222)"/>
        <path id="Trazado_995791" data-name="Trazado 995791" d="M171.465,198.72a2.415,2.415,0,0,0,1.719-.712,8.471,8.471,0,0,1,3.867-2.213l-.013.03a1.608,1.608,0,0,0,1.663,2.234l6.887-.8a1.608,1.608,0,0,0,1.1-2.557l-4.139-5.563a1.608,1.608,0,0,0-2.766.323l-.522,1.21a13.394,13.394,0,0,0-2.366.184,13.306,13.306,0,0,0,.189-2.36l1.21-.522a1.608,1.608,0,0,0,.323-2.766l-5.563-4.139a1.608,1.608,0,0,0-2.557,1.1l-.8,6.887a1.608,1.608,0,0,0,2.234,1.663l.03-.013a8.47,8.47,0,0,1-2.213,3.867,2.431,2.431,0,0,0,1.719,4.15Zm14.576-3.539-.649.486v0Zm-6.293-2.878a.809.809,0,0,0,.786-.488l.732-1.7,4.113,5.527-6.843.8.593-1.374a.81.81,0,0,0-.81-1.129,10.06,10.06,0,0,0-6.28,2.919.81.81,0,0,1-1.146-1.146,11.531,11.531,0,0,1,8.233-3.429q.31,0,.623.016Zm-8.44-3.084.8-6.842,5.527,4.113-1.7.731a.811.811,0,0,0-.488.786,11.69,11.69,0,0,1-.289,3.261,12.977,12.977,0,0,0-1.925.776,9.955,9.955,0,0,0,.574-2.607.81.81,0,0,0-1.129-.81Z" transform="translate(-150.77 -161.212)"/>
      </g>
    </g>
  </g>
</svg>
