<svg xmlns="http://www.w3.org/2000/svg" width="100" height="100" viewBox="0 0 100 100">
  <g id="Grupo_1114537" data-name="Grupo 1114537" transform="translate(-637 -6992)">
    <g id="Grupo_1098742" data-name="Grupo 1098742" transform="translate(637.242 6992)">
      <rect id="Rectángulo_400898" data-name="Rectángulo 400898" width="100" height="100" rx="50" transform="translate(-0.242)" fill="#fff" opacity="0.859"/>
      <g id="Rectángulo_400907" data-name="Rectángulo 400907" transform="translate(-0.242)" fill="none" stroke="#ffd600" stroke-linecap="round" stroke-width="3" stroke-dasharray="0 7">
        <rect width="100" height="100" rx="50" stroke="none"/>
        <rect x="1.5" y="1.5" width="97" height="97" rx="48.5" fill="none"/>
      </g>
    </g>
    <g id="Grupo_1107006" data-name="Grupo 1107006" transform="translate(645.398 7000.157)">
      <rect id="Rectángulo_400898-2" data-name="Rectángulo 400898" width="84" height="84" rx="42" transform="translate(-0.399 -0.157)" fill="#405425" opacity="0.859"/>
      <rect id="Rectángulo_400907-2" data-name="Rectángulo 400907" width="84" height="84" rx="42" transform="translate(-0.398 -0.157)" fill="none"/>
    </g>
    <g id="Grupo_1177817" data-name="Grupo 1177817" transform="translate(660.049 6986.527)">
      <g id="Grupo_1177806" data-name="Grupo 1177806" transform="translate(0.79 33.205)">
        <g id="Grupo_1177797" data-name="Grupo 1177797" transform="translate(30.8 3.899)">
          <g id="Grupo_1177796" data-name="Grupo 1177796">
            <g id="Grupo_1177789" data-name="Grupo 1177789" transform="translate(0 16.213)">
              <path id="Trazado_995662" data-name="Trazado 995662" d="M321.587,275.133H300.064V258.591a6.919,6.919,0,0,1,6.919-6.919h7.686a6.919,6.919,0,0,1,6.919,6.919Z" transform="translate(-300.064 -251.672)" fill="#fcc16d"/>
            </g>
            <g id="Grupo_1177790" data-name="Grupo 1177790" transform="translate(10.948 16.213)">
              <path id="Trazado_995663" data-name="Trazado 995663" d="M414.625,258.589v16.542h-3.656V258.589a6.918,6.918,0,0,0-6.919-6.919h3.656A6.918,6.918,0,0,1,414.625,258.589Z" transform="translate(-404.05 -251.67)" fill="#fca62f"/>
            </g>
            <g id="Grupo_1177792" data-name="Grupo 1177792" transform="translate(0 24.937)">
              <path id="Trazado_995664" data-name="Trazado 995664" d="M300.06,334.54h21.523v6.578H300.06Z" transform="translate(-300.06 -334.54)" fill="#596d76"/>
              <g id="Grupo_1177791" data-name="Grupo 1177791" transform="translate(17.867)">
                <path id="Trazado_995665" data-name="Trazado 995665" d="M469.77,334.54h3.656v6.578H469.77Z" transform="translate(-469.77 -334.54)" fill="#475a61"/>
              </g>
            </g>
            <g id="Grupo_1177795" data-name="Grupo 1177795" transform="translate(4.272)">
              <path id="Trazado_995666" data-name="Trazado 995666" d="M383.636,243.888a2.17,2.17,0,0,1-2.17-2.17v-3.687h4.34v3.687A2.17,2.17,0,0,1,383.636,243.888Z" transform="translate(-377.168 -223.254)" fill="#a34f41"/>
              <g id="Grupo_1177794" data-name="Grupo 1177794">
                <g id="Grupo_1177793" data-name="Grupo 1177793" transform="translate(11.391 6.222)">
                  <circle id="Elipse_13623" data-name="Elipse 13623" cx="2.099" cy="2.099" r="2.099" fill="#a34f41"/>
                </g>
                <path id="Trazado_995667" data-name="Trazado 995667" d="M347.106,114.6a6.468,6.468,0,0,1-6.468-6.468v-3.989a6.468,6.468,0,1,1,12.936,0v3.989A6.468,6.468,0,0,1,347.106,114.6Z" transform="translate(-340.638 -97.673)" fill="#c86f5c"/>
              </g>
            </g>
          </g>
        </g>
        <g id="Grupo_1177805" data-name="Grupo 1177805">
          <g id="Grupo_1177804" data-name="Grupo 1177804">
            <g id="Grupo_1177798" data-name="Grupo 1177798" transform="translate(0 20.112)">
              <path id="Trazado_995668" data-name="Trazado 995668" d="M29.023,275.133H7.5V258.591a6.919,6.919,0,0,1,6.919-6.919H22.1a6.919,6.919,0,0,1,6.919,6.919Z" transform="translate(-7.5 -251.672)" fill="#24d1f8"/>
            </g>
            <g id="Grupo_1177799" data-name="Grupo 1177799" transform="translate(4.835 27.904)">
              <path id="Trazado_995669" data-name="Trazado 995669" d="M59.742,326.626l-.41.41-.41-.41a3.219,3.219,0,0,0-4.552,4.552l4.386,4.386a.814.814,0,0,0,1.151,0l4.386-4.386a3.219,3.219,0,0,0-4.552-4.552Z" transform="translate(-53.427 -325.684)" fill="#fb4a59"/>
              <path id="Trazado_995670" data-name="Trazado 995670" d="M97.574,331.179l-4.387,4.387a.814.814,0,0,1-1.151,0l-1.413-1.413a.661.661,0,0,0,.936,0l3.857-3.857a2.618,2.618,0,0,0-1.261-4.4,3.244,3.244,0,0,1,1.143-.208,3.218,3.218,0,0,1,2.276,5.494Z" transform="translate(-86.707 -325.685)" fill="#f82f40"/>
            </g>
            <g id="Grupo_1177803" data-name="Grupo 1177803" transform="translate(1.62)">
              <path id="Trazado_995671" data-name="Trazado 995671" d="M91.072,243.888a2.17,2.17,0,0,1-2.17-2.17v-3.687h4.34v3.687A2.17,2.17,0,0,1,91.072,243.888Z" transform="translate(-81.952 -219.355)" fill="#fdb0a0"/>
              <g id="Grupo_1177802" data-name="Grupo 1177802">
                <g id="Grupo_1177800" data-name="Grupo 1177800" transform="translate(0 10.122)">
                  <circle id="Elipse_13624" data-name="Elipse 13624" cx="2.099" cy="2.099" r="2.099" fill="#fdb0a0"/>
                </g>
                <path id="Trazado_995672" data-name="Trazado 995672" d="M54.542,136.966a6.468,6.468,0,0,1-6.468-6.468v-3.37a4.456,4.456,0,0,1,4.455-4.455h4.025a4.456,4.456,0,0,1,4.455,4.455v3.37A6.468,6.468,0,0,1,54.542,136.966Z" transform="translate(-45.422 -116.142)" fill="#ffcec0"/>
                <g id="Grupo_1177801" data-name="Grupo 1177801" transform="translate(1.188)">
                  <path id="Trazado_995673" data-name="Trazado 995673" d="M50.756,69.486H39.682a4.436,4.436,0,0,0-4.02,2.561l-.033.071a1.463,1.463,0,0,1-1.463-1.463V67.048a6.411,6.411,0,0,1,6.411-6.411h3.862a6.317,6.317,0,0,1,6.317,6.317v2.532Z" transform="translate(-34.166 -60.637)" fill="#ba5d4f"/>
                  <path id="Trazado_995674" data-name="Trazado 995674" d="M103.835,66.957v2.532h-4.2V66.957a6.317,6.317,0,0,0-6.147-6.315l.165,0h3.863A6.316,6.316,0,0,1,103.835,66.957Z" transform="translate(-87.244 -60.64)" fill="#a34f41"/>
                </g>
              </g>
            </g>
          </g>
        </g>
      </g>
      <g id="Grupo_1177816" data-name="Grupo 1177816" transform="translate(0 29.977)">
        <g id="Grupo_1177812" data-name="Grupo 1177812" transform="translate(14.934 0.789)">
          <g id="Grupo_1177807" data-name="Grupo 1177807" transform="translate(0 22.459)">
            <path id="Trazado_995675" data-name="Trazado 995675" d="M165.886,274.36H141.851V258.534a7.726,7.726,0,0,1,7.726-7.726h8.583a7.726,7.726,0,0,1,7.726,7.726V274.36Z" transform="translate(-141.851 -250.808)" fill="#fb6672"/>
          </g>
          <g id="Grupo_1177808" data-name="Grupo 1177808" transform="translate(12.904 22.459)">
            <path id="Trazado_995676" data-name="Trazado 995676" d="M275.551,258.536v15.825h-3.4V258.536a7.727,7.727,0,0,0-7.726-7.726h3.4A7.727,7.727,0,0,1,275.551,258.536Z" transform="translate(-264.42 -250.81)" fill="#fb4a59"/>
          </g>
          <g id="Grupo_1177811" data-name="Grupo 1177811" transform="translate(1.809)">
            <path id="Trazado_995677" data-name="Trazado 995677" d="M235.177,242.116a2.423,2.423,0,0,1-2.423-2.423v-4.117H237.6v4.117A2.423,2.423,0,0,1,235.177,242.116Z" transform="translate(-224.992 -214.72)" fill="#fdb0a0"/>
            <g id="Grupo_1177810" data-name="Grupo 1177810">
              <path id="Trazado_995678" data-name="Trazado 995678" d="M256.118,55.3h.934a4.6,4.6,0,0,1,4.171,2.657l.034.073a1.518,1.518,0,0,0,1.518-1.518V52.771c0-3.673-2.558-6.651-6.232-6.651h-1.284a1.56,1.56,0,0,0-1.56,1.56v5.2a2.419,2.419,0,0,0,2.419,2.419Z" transform="translate(-243.732 -45.21)" fill="#8d9da7"/>
              <path id="Trazado_995679" data-name="Trazado 995679" d="M273.187,52.775v3.741a1.517,1.517,0,0,1-1.517,1.518l-.034-.073a4.571,4.571,0,0,0-.786-1.172,1.455,1.455,0,0,0,.025-.273V52.775a6.344,6.344,0,0,0-5.538-6.615,1.572,1.572,0,0,1,.335-.036h1.285C270.629,46.124,273.187,49.1,273.187,52.775Z" transform="translate(-254.144 -45.214)" fill="#7a8d98"/>
              <g id="Grupo_1177809" data-name="Grupo 1177809" transform="translate(0 11.303)">
                <circle id="Elipse_13625" data-name="Elipse 13625" cx="2.343" cy="2.343" r="2.343" fill="#fdb0a0"/>
                <circle id="Elipse_13626" data-name="Elipse 13626" cx="2.343" cy="2.343" r="2.343" transform="translate(15.682)" fill="#fdb0a0"/>
              </g>
              <path id="Trazado_995680" data-name="Trazado 995680" d="M194.384,122.714a7.223,7.223,0,0,1-7.223-7.223v-3.763a4.976,4.976,0,0,1,4.976-4.976h4.5a4.976,4.976,0,0,1,4.976,4.976v3.763A7.223,7.223,0,0,1,194.384,122.714Z" transform="translate(-184.199 -99.459)" fill="#ffcec0"/>
              <path id="Trazado_995681" data-name="Trazado 995681" d="M180.6,47.358h-2.813a4.954,4.954,0,0,0-4.49,2.86l-.037.079a1.634,1.634,0,0,1-1.634-1.634V44.636a7.16,7.16,0,0,1,7.159-7.16h2.739a1.68,1.68,0,0,1,1.68,1.68v5.6A2.6,2.6,0,0,1,180.6,47.358Z" transform="translate(-170.303 -37.476)" fill="#596d76"/>
              <path id="Trazado_995682" data-name="Trazado 995682" d="M237.751,39.156v5.6a2.6,2.6,0,0,1-2.6,2.6h-2.555a2.6,2.6,0,0,0,2.6-2.6v-5.6a1.679,1.679,0,0,0-1.68-1.68h2.555A1.679,1.679,0,0,1,237.751,39.156Z" transform="translate(-224.848 -37.477)" fill="#475a61"/>
            </g>
          </g>
        </g>
        <g id="Grupo_1177815" data-name="Grupo 1177815">
          <g id="Grupo_1177813" data-name="Grupo 1177813" transform="translate(21.233 31.197)">
            <circle id="Elipse_13627" data-name="Elipse 13627" cx="5.718" cy="5.718" r="5.718" transform="translate(0 0)" fill="#fcb44d"/>
            <path id="Trazado_995683" data-name="Trazado 995683" d="M251,332.025a5.721,5.721,0,0,1-6.98,5.578,5.719,5.719,0,0,0,0-11.156,5.721,5.721,0,0,1,6.98,5.578Z" transform="translate(-239.559 -326.307)" fill="#fb9927"/>
          </g>
          <g id="Grupo_1177814" data-name="Grupo 1177814">
            <path id="Trazado_995684" data-name="Trazado 995684" d="M47.507,52.641A7.237,7.237,0,0,0,49.55,48.3a2.887,2.887,0,0,0-.036-5.763,7.234,7.234,0,0,0-1.021-2.8.79.79,0,1,0-1.34.835,5.662,5.662,0,0,1,.856,3v3.989a5.678,5.678,0,1,1-11.357,0v-.646a3.128,3.128,0,0,0,.2-4.84A5.678,5.678,0,0,1,44.9,38.51.79.79,0,1,0,45.62,37.1a7.269,7.269,0,0,0-9.045,2.034v-.809A7.092,7.092,0,0,0,29.886,30.9a2.465,2.465,0,0,0-1.919-.918H25.228a7.952,7.952,0,0,0-6.9,4.012,7.135,7.135,0,0,0-4.457-1.574H10.008a7.209,7.209,0,0,0-7.2,7.2v3.474a2.887,2.887,0,0,0,1.5,5.215,7.237,7.237,0,0,0,2.049,4.342A7.719,7.719,0,0,0,0,60.235V76.778a.79.79,0,0,0,1.579,0V60.235a6.136,6.136,0,0,1,6.129-6.129h.684c.059.028.118.054.178.081v1.382a2.96,2.96,0,0,0,5.919,0V54.185c.059-.027.119-.052.178-.081h.727a6.1,6.1,0,0,1,1.845.284A8.505,8.505,0,0,0,14.17,60.32a3.975,3.975,0,0,0-2.641,1.033,4.009,4.009,0,0,0-5.521,5.81L10.4,71.548a1.6,1.6,0,0,0,2.268,0l1.481-1.481v6.712a.79.79,0,0,0,1.579,0V60.952a6.944,6.944,0,0,1,6.937-6.936h.785c.089.043.179.083.269.123v1.6a3.213,3.213,0,0,0,6.426,0v-1.6c.091-.04.183-.081.272-.124.019,0,.83,0,.83,0a6.944,6.944,0,0,1,6.937,6.936v9.593a.79.79,0,1,0,1.579,0V69.408H52.323v7.37a.79.79,0,1,0,1.579,0V60.235a7.719,7.719,0,0,0-6.4-7.594Zm3.154-7.216a1.31,1.31,0,0,1-1.073,1.286V44.139A1.31,1.31,0,0,1,50.661,45.425ZM11.546,70.431a.037.037,0,0,1-.034,0L7.126,66.045a2.429,2.429,0,0,1,3.436-3.435l.41.41a.79.79,0,0,0,1.116,0l.411-.41a2.41,2.41,0,0,1,1.646-.709v5.931ZM43.71,54.685v.882a1.38,1.38,0,0,1-2.761,0v-.882a7.214,7.214,0,0,0,2.761,0ZM34.936,42.869a1.553,1.553,0,0,1,0,3.088V43.035C34.94,42.979,34.938,42.924,34.936,42.869ZM35,38.328v2.961c-.075-.005-.151-.009-.228-.009l-.1,0a5.727,5.727,0,0,0-4.235-3.873V34.765a3.185,3.185,0,0,1,1.353,1.084.79.79,0,1,0,1.273-.935,4.681,4.681,0,0,0-2.625-1.809v-.568A5.6,5.6,0,0,1,35,38.328Zm-8.069,14.9A6.441,6.441,0,0,1,20.494,46.8V43.772s0,0,0,0a4.178,4.178,0,0,1,3.736-2.33h2.813A3.4,3.4,0,0,0,30.3,39a4.163,4.163,0,0,1,3.063,4.034V46.8a6.441,6.441,0,0,1-6.434,6.434Zm-9.4-8.819a1.548,1.548,0,0,1,.3-.92,2.433,2.433,0,0,0,1.082.751v1.712A1.556,1.556,0,0,1,17.532,44.413Zm7.7-12.857h2.739a.891.891,0,0,1,.89.89v5.6a1.816,1.816,0,0,1-1.814,1.814H24.229a5.766,5.766,0,0,0-4.947,2.827.845.845,0,0,1-.423-.732V37.926A6.377,6.377,0,0,1,25.228,31.556ZM3.2,45.425a1.308,1.308,0,0,1,.2-.69,2.256,2.256,0,0,0,.875.595v1.381A1.31,1.31,0,0,1,3.2,45.425Zm2.652-.558a3.658,3.658,0,0,1,3.262-2.024h1.707a.79.79,0,0,0,0-1.579H9.113a5.246,5.246,0,0,0-4.456,2.5.674.674,0,0,1-.27-.539V39.617a5.628,5.628,0,0,1,5.621-5.622H13.87a5.468,5.468,0,0,1,3.789,1.5,7.918,7.918,0,0,0-.38,2.427v3.338H14.292a.79.79,0,1,0,0,1.579h2.081a3.132,3.132,0,0,0,.834,4.076v.642a5.679,5.679,0,1,1-11.357,0Zm7.059,10.7a1.38,1.38,0,0,1-2.761,0v-.882a7.214,7.214,0,0,0,2.761,0ZM18.8,53.321a7.614,7.614,0,0,0-2.1-.683,7.233,7.233,0,0,0,2.078-5.077v-.029q.081.008.163.011a7.992,7.992,0,0,0,2.394,5,8.651,8.651,0,0,0-2.54.783Zm9.757,2.419a1.634,1.634,0,0,1-3.267,0v-1.1a8.03,8.03,0,0,0,3.267,0Zm6.343-8.2q.085,0,.168-.012v.03a7.233,7.233,0,0,0,2.087,5.086,7.7,7.7,0,0,0-2.1.7,8.442,8.442,0,0,0-2.541-.81A7.992,7.992,0,0,0,34.9,47.543Zm1.758,6.846a6.1,6.1,0,0,1,1.846-.282h.684c.058.028.118.054.177.08v1.382a2.959,2.959,0,0,0,5.919,0V54.185c.059-.027.119-.052.178-.081h.727a6.136,6.136,0,0,1,6.129,6.129v1.016H39.758v-.3a8.5,8.5,0,0,0-3.1-6.563Zm3.1,13.44v-5H52.323v5Z" transform="translate(0 -29.977)"/>
            <path id="Trazado_995685" data-name="Trazado 995685" d="M368.269,173.177v-.368a.79.79,0,1,0-1.579,0v.368a.79.79,0,1,0,1.579,0Z" transform="translate(-328.086 -157.065)"/>
            <path id="Trazado_995686" data-name="Trazado 995686" d="M424.043,173.177v-.368a.79.79,0,1,0-1.579,0v.368a.79.79,0,1,0,1.579,0Z" transform="translate(-377.988 -157.065)"/>
            <path id="Trazado_995687" data-name="Trazado 995687" d="M378.472,207.6a3.507,3.507,0,0,0,2.567-1.124.79.79,0,1,0-1.16-1.072,1.916,1.916,0,0,1-2.816,0,.79.79,0,1,0-1.16,1.072A3.508,3.508,0,0,0,378.472,207.6Z" transform="translate(-336.142 -186.706)"/>
            <path id="Trazado_995688" data-name="Trazado 995688" d="M74.916,173.966a.79.79,0,0,0,.79-.79v-.368a.79.79,0,0,0-1.579,0v.368A.79.79,0,0,0,74.916,173.966Z" transform="translate(-66.322 -157.065)"/>
            <path id="Trazado_995689" data-name="Trazado 995689" d="M130.689,173.966a.79.79,0,0,0,.79-.79v-.368a.79.79,0,0,0-1.579,0v.368A.79.79,0,0,0,130.689,173.966Z" transform="translate(-116.223 -157.065)"/>
            <path id="Trazado_995690" data-name="Trazado 995690" d="M83.342,206.473a3.5,3.5,0,0,0,5.135,0,.79.79,0,0,0-1.16-1.072,1.916,1.916,0,0,1-2.816,0,.79.79,0,1,0-1.159,1.072Z" transform="translate(-74.38 -186.706)"/>
            <path id="Trazado_995691" data-name="Trazado 995691" d="M363.439,440.807a.79.79,0,0,0-.79.79v2.76a.79.79,0,0,0,1.579,0V441.6A.79.79,0,0,0,363.439,440.807Z" transform="translate(-324.47 -397.556)"/>
            <path id="Trazado_995692" data-name="Trazado 995692" d="M218.708,163.935v-.411a.79.79,0,1,0-1.579,0v.411a.79.79,0,1,0,1.579,0Z" transform="translate(-194.27 -148.758)"/>
            <path id="Trazado_995693" data-name="Trazado 995693" d="M280.2,162.733a.79.79,0,0,0-.79.79v.411a.79.79,0,0,0,1.579,0v-.411A.79.79,0,0,0,280.2,162.733Z" transform="translate(-249.997 -148.757)"/>
            <path id="Trazado_995694" data-name="Trazado 995694" d="M231.835,199.983a2.232,2.232,0,0,1-3.28,0,.79.79,0,0,0-1.16,1.072,3.811,3.811,0,0,0,5.6,0,.79.79,0,0,0-1.159-1.072Z" transform="translate(-203.268 -181.858)"/>
            <path id="Trazado_995695" data-name="Trazado 995695" d="M224.425,366.984v-.594a.79.79,0,1,0-1.579,0v.594a.79.79,0,0,0,1.579,0Z" transform="translate(-199.385 -330.266)"/>
            <path id="Trazado_995696" data-name="Trazado 995696" d="M274.944,365.6a.79.79,0,0,0-.79.79v.594a.79.79,0,0,0,1.579,0v-.594A.79.79,0,0,0,274.944,365.6Z" transform="translate(-245.292 -330.267)"/>
            <path id="Trazado_995697" data-name="Trazado 995697" d="M236.809,391.77a1.371,1.371,0,0,1-2.015,0,.79.79,0,0,0-1.16,1.072,2.95,2.95,0,0,0,4.334,0,.79.79,0,0,0-1.16-1.072Z" transform="translate(-208.85 -353.454)"/>
            <path id="Trazado_995698" data-name="Trazado 995698" d="M200.691,318.808a6.508,6.508,0,1,0,6.508,6.508A6.515,6.515,0,0,0,200.691,318.808Zm0,11.437a4.929,4.929,0,1,1,4.929-4.929A4.934,4.934,0,0,1,200.691,330.245Z" transform="translate(-173.74 -288.4)"/>
          </g>
        </g>
      </g>
    </g>
  </g>
</svg>
